<?xml version="1.0" encoding="utf-8"?>
<!-- Generator: Adobe Illustrator 16.0.0, SVG Export Plug-In . SVG Version: 6.00 Build 0)  -->
<!DOCTYPE svg PUBLIC "-//W3C//DTD SVG 1.1//EN" "http://www.w3.org/Graphics/SVG/1.1/DTD/svg11.dtd">
<svg version="1.1" id="Layer_1" xmlns="http://www.w3.org/2000/svg" xmlns:xlink="http://www.w3.org/1999/xlink" x="0px" y="0px"
	 width="100px" height="100px" viewBox="0 0 100 100" enable-background="new 0 0 100 100" xml:space="preserve">
<g>
	<path fill="#FFFFFF" d="M77.466,89.775c0.979,0,1.677-0.047,2.366,0.011c1.641,0.136,2.838,1.468,2.841,3.094
		c0.003,1.608-1.214,2.966-2.851,3.08c-0.99,0.069-1.989,0.021-2.985,0.021c-18.621,0-37.242-0.004-55.864,0.012
		c-1.469,0.001-2.675-0.418-3.309-1.807c-0.566-1.244-0.464-2.578,0.611-3.414c0.751-0.584,1.876-0.967,2.826-0.951
		c1.488,0.023,1.831-0.479,1.8-1.885c-0.094-4.424-0.206-8.854,0.971-13.197c1.824-6.727,5.754-12.075,10.902-16.583
		c2.392-2.093,4.968-3.979,7.514-5.89c2.041-1.531,2.114-3.022,0.041-4.497c-4.966-3.526-9.727-7.267-13.395-12.22
		c-4.045-5.46-6.065-11.578-6.066-18.369c0-2.233,0-4.466,0-6.952c-0.795,0-1.467,0.011-2.139-0.002
		c-1.943-0.038-3.342-1.316-3.354-3.053c-0.012-1.867,1.326-3.152,3.39-3.154c17.376-0.013,34.752-0.011,52.129-0.013
		c2.19,0,4.381-0.018,6.571,0.011c1.861,0.024,3.175,1.292,3.207,3.029c0.031,1.744-1.253,3.078-3.084,3.172
		c-0.636,0.033-1.272,0.006-2.114,0.006c0,1.49-0.029,2.816,0.004,4.141c0.117,4.709-0.242,9.338-1.965,13.792
		c-2.467,6.374-6.848,11.25-12.039,15.488c-1.731,1.415-3.557,2.718-5.363,4.041c-2.161,1.584-2.199,3.042-0.031,4.578
		c4.234,2.996,8.302,6.18,11.706,10.139c4.921,5.722,7.581,12.309,7.675,19.884C77.491,84.71,77.466,87.136,77.466,89.775z
		 M73.093,10.321c-0.194-0.026-0.39-0.076-0.585-0.076c-14.787-0.006-29.574-0.001-44.362-0.027
		c-0.945-0.001-1.195,0.366-1.178,1.235c0.041,1.991,0,3.983,0.014,5.974c0.041,5.972,1.903,11.314,5.532,16.056
		c3.404,4.45,7.755,7.837,12.292,11.013c4.189,2.934,4.212,7.943,0.069,10.949c-2.214,1.607-4.433,3.223-6.516,4.99
		c-5.067,4.301-9.291,9.309-10.57,16.006c-0.721,3.771-0.54,7.711-0.83,11.57c-0.101,1.338,0.292,1.776,1.707,1.771
		c14.339-0.055,28.68-0.032,43.02-0.036c0.523,0,1.051-0.052,1.678-0.085c0-2.555,0.023-4.938-0.006-7.322
		c-0.063-5.316-1.588-10.184-4.604-14.568c-3.415-4.97-8.051-8.636-12.908-12.063c-4.707-3.32-4.66-8.111,0.045-11.475
		c2.143-1.533,4.211-3.175,6.254-4.839C71.385,31.875,74.689,22.074,73.093,10.321z"/>
	<path fill="#FFFFFF" d="M49.914,43.115c-3.646-2.986-7.47-5.908-11.045-9.109c-2.94-2.633-5.156-5.873-6.463-9.842
		c11.766,0,23.409,0,35.515,0c-1.216,2.161-2.188,4.269-3.499,6.141c-2.684,3.835-6.375,6.653-10.084,9.428
		C52.877,40.826,51.438,41.948,49.914,43.115z"/>
	<path fill="#FFFFFF" d="M31.575,85.136c1.719-6.674,9.208-13.34,18.234-13.411c10.323-0.082,17.365,7.709,18.66,13.411
		C56.189,85.136,43.933,85.136,31.575,85.136z"/>
	<path fill="#FFFFFF" d="M52.07,66.191c0.037,1.14-0.887,2.072-2.049,2.072c-1.088,0.002-2-0.859-2.047-1.933
		c-0.046-1.077,0.947-2.093,2.063-2.106C51.04,64.214,52.037,65.177,52.07,66.191z"/>
	<path fill="#FFFFFF" d="M49.994,60.757c-1.106-0.019-2.02-0.897-2.026-1.95c-0.007-1.084,1.029-2.135,2.088-2.117
		c0.988,0.018,1.994,1.027,2.012,2.021C52.088,59.859,51.159,60.777,49.994,60.757z"/>
</g>
</svg>
