<?xml version="1.0" encoding="utf-8"?>
<!-- Generator: Adobe Illustrator 16.0.0, SVG Export Plug-In . SVG Version: 6.00 Build 0)  -->
<!DOCTYPE svg PUBLIC "-//W3C//DTD SVG 1.1//EN" "http://www.w3.org/Graphics/SVG/1.1/DTD/svg11.dtd">
<svg version="1.1" id="Layer_1" xmlns="http://www.w3.org/2000/svg" xmlns:xlink="http://www.w3.org/1999/xlink" x="0px" y="0px"
	 width="100px" height="100px" viewBox="0 0 100 100" enable-background="new 0 0 100 100" xml:space="preserve">
<g>
	<path fill="#A4403E" d="M50.438,97.137c-1.254,0-2.1,0.057-2.935-0.013c-1.581-0.129-3.155-0.34-4.734-0.495
		c-1.953-0.191-3.86-0.613-5.729-1.184c-1.938-0.59-3.859-1.24-5.759-1.941c-1.196-0.439-2.363-0.975-3.502-1.548
		c-2.743-1.38-5.345-3.003-7.783-4.867c-2.209-1.688-4.267-3.565-6.137-5.622c-2.06-2.265-3.913-4.697-5.487-7.33
		c-1.141-1.91-2.151-3.881-3.042-5.926c-1.201-2.757-2.034-5.623-2.748-8.527c-0.27-1.1-0.358-2.242-0.556-3.361
		c-0.479-2.715-0.422-5.455-0.367-8.189c0.029-1.438,0.241-2.874,0.365-4.31c0.175-2.019,0.611-3.992,1.188-5.921
		c0.593-1.979,1.302-3.927,2.039-5.858c0.462-1.212,1.008-2.401,1.625-3.542c1.348-2.497,2.849-4.897,4.623-7.127
		c1.317-1.655,2.711-3.23,4.216-4.715c2.013-1.987,4.204-3.752,6.534-5.35c1.871-1.282,3.823-2.435,5.863-3.421
		c3.342-1.617,6.801-2.934,10.441-3.716c1.662-0.357,3.346-0.612,5.02-0.915c3.208-0.58,6.448-0.392,9.675-0.361
		c1.343,0.013,2.682,0.325,4.021,0.484c3.371,0.399,6.616,1.305,9.793,2.465c1.179,0.43,2.33,0.932,3.484,1.421
		c2.344,0.994,4.531,2.285,6.662,3.658c1.307,0.843,2.546,1.806,3.739,2.806c1.421,1.191,2.795,2.443,4.126,3.734
		c1.693,1.642,3.158,3.483,4.542,5.396c1.581,2.186,2.964,4.484,4.146,6.901c1.512,3.094,2.664,6.323,3.428,9.681
		c0.36,1.596,0.67,3.209,0.9,4.829c0.331,2.337,0.284,4.697,0.277,7.054c-0.006,1.938-0.23,3.852-0.503,5.77
		c-0.308,2.168-0.825,4.281-1.452,6.37c-0.813,2.712-1.863,5.337-3.188,7.845c-1.355,2.565-2.91,5.002-4.697,7.301
		c-1.592,2.049-3.336,3.955-5.238,5.701c-1.678,1.541-3.46,2.965-5.354,4.252c-1.968,1.336-3.992,2.572-6.127,3.602
		c-3.322,1.602-6.764,2.914-10.389,3.674c-1.645,0.344-3.302,0.617-4.956,0.908C54.334,97.122,52.184,97.189,50.438,97.137z
		 M49.991,96.49c0.001,0.02,0.002,0.039,0.003,0.061c1.242-0.063,2.486-0.101,3.727-0.197c1.297-0.101,2.605-0.168,3.879-0.414
		c2.004-0.387,3.996-0.856,5.969-1.383c3.908-1.041,7.586-2.664,11.066-4.707c2.9-1.699,5.598-3.703,8.075-5.977
		c2.06-1.889,3.966-3.934,5.636-6.174c2.035-2.729,3.836-5.607,5.24-8.729c1.082-2.404,1.951-4.877,2.655-7.414
		c0.796-2.863,1.28-5.789,1.446-8.746c0.117-2.097-0.041-4.209-0.103-6.314c-0.054-1.859-0.383-3.683-0.755-5.502
		c-0.805-3.936-2.086-7.708-3.885-11.297c-0.633-1.26-1.364-2.473-2.088-3.686c-1.604-2.693-3.535-5.143-5.686-7.416
		c-0.958-1.014-1.99-1.961-3.023-2.899c-0.887-0.805-1.771-1.627-2.748-2.312c-1.765-1.236-3.573-2.414-5.406-3.547
		c-2.374-1.468-4.936-2.554-7.563-3.485c-3.062-1.085-6.188-1.907-9.416-2.344c-1.865-0.252-3.725-0.488-5.611-0.497
		c-2.36-0.012-4.726-0.056-7.067,0.281c-1.873,0.27-3.737,0.622-5.585,1.028c-3.584,0.788-7.007,2.07-10.301,3.669
		c-2.174,1.055-4.237,2.32-6.219,3.712c-2.054,1.441-3.986,3.025-5.789,4.767c-1.606,1.552-3.086,3.213-4.469,4.969
		c-1.779,2.26-3.313,4.674-4.645,7.215c-1.404,2.678-2.464,5.498-3.314,8.401c-0.927,3.164-1.51,6.394-1.695,9.674
		c-0.118,2.075,0.044,4.167,0.1,6.25c0.05,1.883,0.388,3.727,0.763,5.566c0.771,3.787,2.001,7.422,3.689,10.893
		c0.682,1.402,1.49,2.746,2.29,4.088c1.561,2.617,3.437,5.004,5.512,7.228c1.713,1.836,3.525,3.582,5.569,5.054
		c1.749,1.26,3.5,2.531,5.347,3.635c1.667,0.994,3.429,1.854,5.217,2.615c1.804,0.768,3.674,1.395,5.546,1.984
		c2.175,0.688,4.396,1.211,6.673,1.447c1.675,0.177,3.35,0.354,5.028,0.494C48.694,96.535,49.345,96.49,49.991,96.49z"/>
	<path fill="#FF3131" d="M49.991,96.49c-0.646,0-1.296,0.045-1.938-0.01c-1.678-0.142-3.353-0.317-5.028-0.494
		c-2.276-0.236-4.498-0.76-6.673-1.447c-1.872-0.592-3.742-1.217-5.546-1.984c-1.788-0.761-3.55-1.621-5.217-2.615
		c-1.847-1.104-3.598-2.375-5.347-3.635c-2.043-1.472-3.855-3.218-5.569-5.054c-2.075-2.224-3.952-4.61-5.512-7.228
		c-0.8-1.342-1.608-2.686-2.29-4.088c-1.688-3.471-2.918-7.104-3.689-10.893c-0.375-1.841-0.712-3.686-0.763-5.566
		c-0.056-2.082-0.218-4.174-0.1-6.25c0.185-3.28,0.769-6.51,1.695-9.674c0.85-2.903,1.91-5.723,3.314-8.401
		c1.332-2.541,2.866-4.955,4.645-7.215c1.383-1.756,2.863-3.417,4.469-4.969c1.803-1.742,3.735-3.326,5.789-4.767
		c1.982-1.392,4.045-2.657,6.219-3.712c3.293-1.599,6.717-2.881,10.301-3.669c1.848-0.407,3.713-0.759,5.585-1.028
		c2.341-0.337,4.708-0.292,7.068-0.281c1.887,0.009,3.746,0.245,5.611,0.497c3.229,0.437,6.354,1.258,9.416,2.344
		c2.625,0.931,5.188,2.017,7.562,3.485c1.833,1.134,3.643,2.311,5.407,3.547c0.977,0.685,1.86,1.507,2.748,2.312
		c1.033,0.938,2.064,1.886,3.022,2.899c2.149,2.273,4.082,4.723,5.687,7.416c0.723,1.213,1.453,2.425,2.086,3.686
		c1.8,3.589,3.08,7.361,3.886,11.297c0.372,1.819,0.7,3.643,0.755,5.502c0.063,2.104,0.219,4.218,0.102,6.314
		c-0.164,2.957-0.649,5.883-1.445,8.746c-0.704,2.537-1.573,5.01-2.655,7.414c-1.403,3.12-3.205,5.998-5.239,8.729
		c-1.671,2.24-3.578,4.285-5.637,6.174c-2.479,2.271-5.175,4.275-8.075,5.977c-3.481,2.043-7.157,3.666-11.065,4.707
		c-1.975,0.525-3.967,0.996-5.971,1.383c-1.271,0.246-2.582,0.313-3.879,0.414c-1.238,0.098-2.482,0.135-3.726,0.197
		C49.993,96.529,49.992,96.51,49.991,96.49z M67.991,27.548c-0.278,0.057-0.499,0.117-0.724,0.146
		c-0.444,0.058-0.897,0.068-1.336,0.153c-3.299,0.638-6.442,1.697-9.351,3.412c-2.873,1.694-5.392,3.813-7.508,6.381
		c-1.571,1.903-2.867,3.989-3.881,6.255c-1.045,2.337-1.789,4.764-2.141,7.285c-0.26,1.858-0.277,3.752-0.423,5.627
		c-0.068,0.871-0.113,1.754-0.292,2.605c-0.606,2.898-1.745,5.581-3.461,8.005c-1.134,1.603-2.435,3.063-3.985,4.269
		c-1.813,1.41-3.752,2.606-5.951,3.369c-2.157,0.746-4.336,1.282-6.632,1.266c-0.183-0.002-0.367,0.041-0.572,0.066
		c0,2.291,0,4.516,0,6.818c0.607-0.059,1.157-0.104,1.706-0.166c1.25-0.143,2.525-0.18,3.742-0.465
		c1.678-0.395,3.348-0.885,4.955-1.504c3.253-1.254,6.126-3.146,8.642-5.563c0.711-0.685,1.392-1.407,2.027-2.161
		c0.714-0.85,1.405-1.726,2.028-2.643c1.147-1.689,2.057-3.51,2.8-5.413c1.13-2.894,1.729-5.896,1.834-8.989
		c0.056-1.627,0.127-3.244,0.4-4.852c0.436-2.566,1.4-4.932,2.74-7.142c1.162-1.918,2.634-3.58,4.352-5.04
		c1.216-1.033,2.52-1.912,3.92-2.653c1.98-1.049,4.081-1.746,6.301-2.08c0.239-0.036,0.479-0.082,0.791-0.136
		c0,2.327,0,4.555,0,6.89c6.047-3.492,12.002-6.932,18.08-10.442c-6.076-3.509-12.031-6.948-18.063-10.431
		C67.991,22.833,67.991,25.135,67.991,27.548z M67.973,65.729c-3.418-0.406-6.445-1.603-9.214-3.471
		c-2.78-1.877-4.964-4.322-6.721-7.217c0.006,3.146-0.485,6.186-1.382,9.227c0.709,0.654,1.404,1.36,2.167,1.982
		c2.692,2.195,5.663,3.904,8.983,4.979c1.564,0.504,3.144,0.934,4.787,1.094c0.469,0.046,0.928,0.184,1.415,0.285
		c0,2.399,0,4.691,0,7.102c6.037-3.488,11.987-6.925,18.046-10.424c-6.095-3.518-12.05-6.956-18.082-10.438
		C67.973,61.178,67.973,63.393,67.973,65.729z M47.802,35.266c-5.234-13.78-18.027-18.506-26.063-18.208
		c-0.014,0.04-0.041,0.079-0.041,0.119c-0.005,2.047-0.003,4.094-0.016,6.141c-0.003,0.47,0.272,0.516,0.634,0.502
		c1.421-0.051,2.809,0.192,4.183,0.52c4.499,1.075,8.232,3.391,11.23,6.914c1.314,1.545,2.406,3.231,3.194,5.088
		c0.498,1.173,0.861,2.411,1.193,3.644c0.275,1.027,0.417,2.09,0.644,3.275C44.02,40.229,45.784,37.644,47.802,35.266z"/>
	<path fill="#FFFFFF" d="M67.991,27.548c0-2.414,0-4.715,0-7.131c6.03,3.483,11.985,6.922,18.063,10.431
		c-6.078,3.511-12.033,6.95-18.08,10.442c0-2.335,0-4.563,0-6.89c-0.313,0.054-0.553,0.1-0.793,0.136
		c-2.219,0.333-4.317,1.03-6.3,2.08c-1.401,0.741-2.704,1.62-3.92,2.653c-1.718,1.46-3.188,3.122-4.353,5.04
		c-1.338,2.21-2.304,4.576-2.739,7.142c-0.273,1.607-0.344,3.225-0.4,4.852c-0.105,3.094-0.704,6.098-1.834,8.989
		c-0.744,1.903-1.653,3.724-2.8,5.413c-0.623,0.917-1.314,1.793-2.028,2.643c-0.635,0.754-1.315,1.478-2.027,2.161
		c-2.516,2.416-5.389,4.31-8.642,5.563c-1.607,0.619-3.277,1.109-4.955,1.504c-1.217,0.285-2.492,0.322-3.742,0.465
		c-0.548,0.063-1.098,0.107-1.706,0.166c0-2.305,0-4.527,0-6.818c0.206-0.025,0.389-0.068,0.572-0.066
		c2.295,0.018,4.475-0.52,6.632-1.266c2.199-0.763,4.137-1.959,5.951-3.369c1.55-1.203,2.852-2.666,3.985-4.269
		c1.716-2.424,2.854-5.104,3.461-8.005c0.178-0.852,0.224-1.734,0.292-2.605c0.146-1.875,0.164-3.769,0.423-5.627
		c0.352-2.521,1.095-4.948,2.141-7.285c1.014-2.266,2.31-4.352,3.881-6.255c2.117-2.568,4.635-4.687,7.508-6.381
		c2.906-1.715,6.052-2.774,9.35-3.412c0.438-0.085,0.893-0.095,1.336-0.153C67.492,27.665,67.713,27.605,67.991,27.548z"/>
	<path fill="#FFFFFF" d="M67.973,65.729c0-2.338,0-4.553,0-6.883c6.032,3.482,11.987,6.922,18.082,10.438
		c-6.059,3.499-12.009,6.937-18.046,10.424c0-2.409,0-4.701,0-7.103c-0.487-0.102-0.946-0.238-1.415-0.285
		c-1.645-0.159-3.223-0.588-4.787-1.094c-3.32-1.072-6.291-2.781-8.983-4.978c-0.763-0.622-1.457-1.328-2.167-1.981
		c0.896-3.043,1.388-6.08,1.382-9.228c1.757,2.896,3.938,5.34,6.721,7.217C61.527,64.127,64.555,65.322,67.973,65.729z"/>
	<path fill="#FFFFFF" d="M47.802,35.266c-2.018,2.378-3.782,4.963-5.042,7.995c-0.227-1.185-0.368-2.249-0.644-3.275
		c-0.332-1.233-0.695-2.471-1.193-3.644c-0.788-1.857-1.88-3.543-3.194-5.088c-2.998-3.523-6.731-5.839-11.23-6.914
		c-1.374-0.328-2.762-0.571-4.183-0.52c-0.362,0.013-0.637-0.032-0.634-0.502c0.013-2.047,0.011-4.094,0.016-6.141
		c0-0.04,0.027-0.079,0.042-0.118C29.774,16.76,42.568,21.486,47.802,35.266z"/>
</g>
</svg>
