<?xml version="1.0" encoding="utf-8"?>
<!-- Generator: Adobe Illustrator 16.0.0, SVG Export Plug-In . SVG Version: 6.00 Build 0)  -->
<!DOCTYPE svg PUBLIC "-//W3C//DTD SVG 1.1//EN" "http://www.w3.org/Graphics/SVG/1.1/DTD/svg11.dtd">
<svg version="1.1" id="Layer_1" xmlns="http://www.w3.org/2000/svg" xmlns:xlink="http://www.w3.org/1999/xlink" x="0px" y="0px"
	 width="50px" height="50px" viewBox="0 0 50 50" enable-background="new 0 0 50 50" xml:space="preserve">
<g>
	<path fill="#FFFFFF" d="M4.291,25.088C4.287,24.677,4.482,24.51,4.749,24.4c0.324-0.132,0.65-0.258,0.973-0.39
		c1.171-0.48,2.35-0.941,3.509-1.447c1.008-0.44,2.002-0.913,2.987-1.404c1.292-0.646,2.525-1.396,3.65-2.304
		c0.946-0.762,1.81-1.611,2.6-2.541c1.146-1.35,2.017-2.862,2.814-4.432c1.08-2.126,1.987-4.324,2.828-6.552
		c0.112-0.296,0.245-0.585,0.37-0.875c0.104-0.241,0.279-0.383,0.548-0.35c0.265,0.032,0.472,0.165,0.574,0.424
		c0.479,1.238,0.935,2.486,1.44,3.713c1.017,2.46,2.119,4.878,3.699,7.041c0.405,0.554,0.844,1.086,1.301,1.599
		c0.399,0.45,0.841,0.866,1.276,1.284c0.816,0.781,1.752,1.409,2.707,2.005c1.117,0.698,2.291,1.297,3.486,1.844
		c1.727,0.787,3.469,1.542,5.25,2.198c0.172,0.063,0.344,0.128,0.512,0.201c0.223,0.097,0.412,0.229,0.432,0.5
		c0.021,0.299-0.092,0.519-0.383,0.638c-0.596,0.245-1.188,0.498-1.784,0.743c-0.968,0.396-1.942,0.771-2.897,1.193
		c-0.994,0.437-1.979,0.892-2.947,1.384c-1.361,0.688-2.645,1.513-3.838,2.468c-1.513,1.209-2.735,2.678-3.767,4.307
		c-0.877,1.386-1.621,2.842-2.28,4.344c-0.761,1.732-1.494,3.478-2.119,5.266c-0.039,0.108-0.123,0.202-0.162,0.311
		c-0.085,0.244-0.284,0.33-0.503,0.336c-0.245,0.006-0.449-0.096-0.548-0.353c-0.15-0.389-0.312-0.772-0.471-1.157
		c-0.579-1.4-1.146-2.809-1.743-4.203c-0.347-0.812-0.715-1.616-1.121-2.398c-0.629-1.219-1.308-2.415-2.158-3.496
		c-0.664-0.845-1.359-1.661-2.19-2.365c-0.679-0.576-1.369-1.131-2.098-1.639c-0.492-0.343-1.007-0.656-1.533-0.945
		c-0.806-0.443-1.612-0.897-2.45-1.271c-1.379-0.617-2.783-1.178-4.18-1.756c-0.598-0.246-1.204-0.473-1.805-0.711
		C4.448,25.493,4.291,25.271,4.291,25.088z M24.987,43.506c0.05-0.035,0.089-0.047,0.099-0.07c0.337-0.836,0.673-1.67,1.006-2.508
		c0.668-1.679,1.452-3.301,2.346-4.871c0.715-1.26,1.525-2.455,2.472-3.548c0.929-1.071,1.995-2.005,3.157-2.831
		c2.277-1.623,4.791-2.791,7.363-3.849c0.627-0.259,1.25-0.52,1.945-0.809c-0.122-0.071-0.184-0.115-0.25-0.144
		c-1.286-0.558-2.575-1.107-3.859-1.671c-1.855-0.816-3.644-1.758-5.289-2.957c-1.26-0.916-2.418-1.942-3.396-3.153
		c-1.098-1.359-2.018-2.84-2.82-4.392c-0.859-1.659-1.602-3.37-2.269-5.113c-0.139-0.364-0.302-0.719-0.482-1.145
		c-0.22,0.511-0.419,0.943-0.595,1.386c-0.56,1.415-1.159,2.812-1.835,4.176c-0.903,1.82-1.885,3.585-3.224,5.133
		c-1.075,1.243-2.264,2.354-3.607,3.301c-2.036,1.436-4.272,2.49-6.556,3.456c-0.847,0.358-1.695,0.713-2.616,1.102
		c0.542,0.226,1.018,0.417,1.489,0.621c1.146,0.493,2.296,0.979,3.434,1.491c1.07,0.48,2.091,1.058,3.091,1.672
		c1.877,1.152,3.563,2.54,4.954,4.255c1.025,1.262,1.886,2.638,2.612,4.093c0.44,0.881,0.854,1.775,1.251,2.676
		C23.944,41.023,24.455,42.257,24.987,43.506z"/>
	<g>
		<path fill="#FFFFFF" d="M45.732,25.022c-0.035,0.299-0.217,0.476-0.486,0.582c-0.627,0.242-1.256,0.478-1.877,0.731
			c-0.336,0.14-0.654,0.326-0.99,0.465c-0.479,0.195-0.969,0.351-1.443,0.55c-1.953,0.816-3.84,1.756-5.61,2.924
			c-1.316,0.869-2.5,1.894-3.537,3.078c-0.974,1.111-1.765,2.354-2.485,3.645c-1.007,1.798-1.839,3.678-2.587,5.593
			c-0.35,0.896-0.737,1.779-1.059,2.688c-0.027,0.078-0.039,0.164-0.08,0.233c-0.129,0.216-0.319,0.373-0.57,0.365
			c-0.261-0.009-0.465-0.132-0.571-0.413c-0.318-0.83-0.661-1.65-0.995-2.477c-0.723-1.776-1.432-3.561-2.331-5.26
			c-0.819-1.547-1.737-3.031-2.885-4.362c-1.424-1.649-3.151-2.921-5.023-4.011c-2.171-1.264-4.497-2.192-6.819-3.127
			c-0.483-0.193-0.974-0.365-1.459-0.554c-0.109-0.041-0.211-0.103-0.318-0.151c-0.245-0.111-0.344-0.314-0.335-0.57
			c0.007-0.247,0.162-0.41,0.374-0.498c0.45-0.186,0.91-0.348,1.364-0.527c1.922-0.758,3.83-1.555,5.683-2.471
			c1.569-0.775,3.072-1.67,4.431-2.776c1.568-1.276,2.858-2.804,3.915-4.528c0.981-1.603,1.83-3.273,2.537-5.014
			c0.602-1.477,1.186-2.961,1.778-4.442c0.037-0.094,0.062-0.198,0.119-0.278c0.315-0.447,0.923-0.343,1.081,0.035
			c0.172,0.416,0.34,0.836,0.5,1.256c0.907,2.395,1.881,4.762,3.1,7.016c1.041,1.932,2.268,3.73,3.897,5.223
			c1.021,0.934,2.13,1.75,3.326,2.442c0.511,0.296,1.013,0.605,1.539,0.865c1.647,0.81,3.313,1.583,5.024,2.249
			c0.765,0.297,1.521,0.607,2.281,0.905C45.508,24.521,45.709,24.692,45.732,25.022z M24.987,43.49
			c0.037-0.002,0.073-0.006,0.111-0.008c0.185-0.438,0.367-0.879,0.554-1.317c0.568-1.326,1.106-2.665,1.713-3.974
			c0.389-0.84,0.869-1.635,1.316-2.447c0.715-1.305,1.618-2.475,2.594-3.587c0.627-0.716,1.358-1.335,2.111-1.925
			c1.28-1.006,2.663-1.854,4.11-2.588c0.967-0.492,1.974-0.908,2.969-1.344c0.877-0.384,1.767-0.746,2.646-1.12
			c0.107-0.046,0.209-0.103,0.347-0.17c-0.492-0.216-0.929-0.407-1.362-0.598c-1.228-0.532-2.462-1.045-3.679-1.601
			c-1.051-0.48-2.045-1.068-3.039-1.657c-0.912-0.54-1.782-1.146-2.563-1.853c-0.972-0.875-1.906-1.796-2.687-2.859
			c-0.769-1.044-1.469-2.128-2.063-3.279c-0.604-1.166-1.189-2.341-1.689-3.559c-0.313-0.765-0.607-1.539-0.947-2.294
			c-0.114-0.255-0.142-0.571-0.418-0.798c-0.099,0.215-0.188,0.391-0.264,0.57c-0.569,1.323-1.131,2.648-1.704,3.971
			c-0.557,1.284-1.22,2.513-1.953,3.703c-0.612,0.994-1.287,1.948-2.067,2.816c-0.719,0.801-1.513,1.527-2.365,2.193
			c-1.093,0.855-2.257,1.596-3.481,2.241c-0.926,0.489-1.871,0.948-2.826,1.376c-1.056,0.474-2.135,0.895-3.203,1.346
			c-0.171,0.072-0.327,0.18-0.563,0.311c0.309,0.121,0.524,0.2,0.734,0.29c1.097,0.467,2.189,0.945,3.29,1.404
			c1.261,0.527,2.468,1.158,3.645,1.849c1.022,0.601,1.973,1.297,2.883,2.06c0.985,0.824,1.889,1.73,2.683,2.732
			c0.972,1.229,1.738,2.6,2.467,3.984c0.371,0.705,0.706,1.434,1.028,2.164c0.36,0.816,0.688,1.647,1.032,2.472
			C24.557,42.496,24.773,42.993,24.987,43.49z"/>
		<path fill="#FFFB73" d="M24.987,43.49c-0.214-0.497-0.431-0.994-0.641-1.493c-0.345-0.823-0.672-1.654-1.032-2.472
			c-0.322-0.73-0.657-1.459-1.028-2.164c-0.729-1.387-1.495-2.756-2.467-3.984c-0.794-1.002-1.698-1.908-2.683-2.732
			c-0.91-0.763-1.861-1.459-2.883-2.06c-1.176-0.69-2.383-1.319-3.645-1.849c-1.1-0.459-2.192-0.938-3.29-1.404
			c-0.21-0.09-0.425-0.169-0.734-0.29c0.236-0.131,0.392-0.238,0.563-0.311c1.067-0.451,2.146-0.872,3.203-1.346
			c0.956-0.428,1.9-0.887,2.826-1.376c1.224-0.646,2.388-1.386,3.481-2.241c0.852-0.666,1.646-1.393,2.365-2.193
			c0.78-0.868,1.455-1.822,2.067-2.816c0.733-1.19,1.396-2.419,1.953-3.703c0.573-1.322,1.135-2.647,1.704-3.971
			c0.076-0.18,0.165-0.355,0.264-0.57c0.276,0.227,0.304,0.543,0.418,0.798c0.339,0.755,0.634,1.529,0.947,2.294
			c0.5,1.218,1.086,2.393,1.689,3.559c0.596,1.151,1.297,2.235,2.063,3.279c0.779,1.063,1.715,1.984,2.687,2.859
			c0.781,0.707,1.651,1.313,2.563,1.853c0.994,0.589,1.988,1.177,3.039,1.657c1.217,0.556,2.451,1.068,3.679,1.601
			c0.436,0.19,0.87,0.382,1.362,0.598c-0.138,0.067-0.237,0.124-0.347,0.17c-0.881,0.374-1.77,0.736-2.646,1.12
			c-0.995,0.436-2.002,0.852-2.969,1.344c-1.447,0.734-2.83,1.582-4.11,2.588c-0.753,0.59-1.484,1.209-2.111,1.925
			c-0.976,1.112-1.879,2.282-2.594,3.587c-0.447,0.813-0.929,1.607-1.316,2.447c-0.605,1.309-1.145,2.646-1.713,3.974
			c-0.188,0.438-0.369,0.879-0.554,1.317C25.061,43.484,25.024,43.488,24.987,43.49z"/>
	</g>
</g>
</svg>
