<?xml version="1.0" encoding="utf-8"?>
<!-- Generator: Adobe Illustrator 16.0.0, SVG Export Plug-In . SVG Version: 6.00 Build 0)  -->
<!DOCTYPE svg PUBLIC "-//W3C//DTD SVG 1.1//EN" "http://www.w3.org/Graphics/SVG/1.1/DTD/svg11.dtd">
<svg version="1.1" id="Layer_1" xmlns="http://www.w3.org/2000/svg" xmlns:xlink="http://www.w3.org/1999/xlink" x="0px" y="0px"
	 width="50px" height="50px" viewBox="0 0 50 50" enable-background="new 0 0 50 50" xml:space="preserve">
<g>
	<path fill-rule="evenodd" clip-rule="evenodd" fill="#FFFFFF" d="M4.291,25.088C4.287,24.677,4.482,24.51,4.749,24.4
		c0.324-0.132,0.65-0.258,0.973-0.39c1.171-0.48,2.35-0.941,3.509-1.447c1.008-0.44,2.002-0.913,2.987-1.404
		c1.292-0.646,2.525-1.396,3.65-2.304c0.946-0.762,1.81-1.611,2.6-2.541c1.146-1.35,2.017-2.862,2.814-4.432
		c1.08-2.126,1.987-4.324,2.828-6.552c0.112-0.296,0.245-0.585,0.37-0.875c0.104-0.241,0.279-0.383,0.548-0.35
		c0.265,0.032,0.472,0.165,0.573,0.424c0.48,1.238,0.935,2.486,1.441,3.713c1.016,2.46,2.119,4.878,3.699,7.041
		c0.405,0.554,0.844,1.086,1.301,1.599c0.4,0.45,0.841,0.866,1.276,1.284c0.817,0.781,1.752,1.409,2.707,2.005
		c1.118,0.698,2.291,1.297,3.487,1.844c1.727,0.787,3.468,1.542,5.25,2.198c0.172,0.063,0.343,0.128,0.511,0.201
		c0.223,0.097,0.413,0.229,0.432,0.5c0.021,0.299-0.092,0.519-0.382,0.638c-0.597,0.245-1.189,0.498-1.785,0.743
		c-0.967,0.397-1.942,0.772-2.898,1.193c-0.993,0.437-1.979,0.892-2.946,1.384c-1.362,0.689-2.645,1.513-3.838,2.468
		c-1.513,1.209-2.736,2.677-3.767,4.306c-0.877,1.386-1.621,2.842-2.28,4.344c-0.761,1.733-1.495,3.478-2.12,5.266
		c-0.038,0.108-0.122,0.202-0.161,0.311c-0.086,0.243-0.285,0.329-0.504,0.335c-0.245,0.006-0.449-0.095-0.548-0.352
		c-0.15-0.389-0.312-0.772-0.471-1.157c-0.579-1.401-1.146-2.809-1.743-4.203c-0.347-0.812-0.715-1.617-1.121-2.399
		c-0.629-1.219-1.308-2.415-2.158-3.496c-0.664-0.845-1.359-1.661-2.19-2.366c-0.679-0.575-1.369-1.13-2.098-1.638
		c-0.492-0.343-1.007-0.656-1.533-0.946c-0.806-0.443-1.612-0.897-2.45-1.271c-1.379-0.617-2.783-1.178-4.18-1.755
		c-0.598-0.247-1.204-0.473-1.805-0.711C4.448,25.493,4.291,25.271,4.291,25.088z M24.987,43.506
		c0.05-0.035,0.089-0.047,0.099-0.071c0.337-0.835,0.673-1.67,1.006-2.507c0.668-1.679,1.452-3.301,2.346-4.872
		c0.715-1.259,1.525-2.455,2.471-3.547c0.929-1.072,1.996-2.005,3.157-2.831c2.278-1.624,4.792-2.791,7.364-3.849
		c0.626-0.258,1.25-0.52,1.945-0.809c-0.122-0.071-0.183-0.115-0.25-0.144c-1.286-0.558-2.575-1.107-3.859-1.671
		c-1.856-0.816-3.644-1.758-5.29-2.957c-1.259-0.916-2.417-1.942-3.396-3.153c-1.098-1.359-2.018-2.84-2.82-4.392
		c-0.859-1.659-1.602-3.37-2.269-5.113c-0.139-0.364-0.302-0.719-0.482-1.145c-0.22,0.511-0.419,0.943-0.595,1.386
		c-0.56,1.415-1.159,2.812-1.835,4.176c-0.903,1.82-1.885,3.585-3.224,5.133c-1.075,1.243-2.264,2.354-3.607,3.301
		c-2.036,1.436-4.272,2.49-6.556,3.456c-0.847,0.358-1.695,0.713-2.616,1.102c0.542,0.226,1.018,0.417,1.489,0.621
		c1.146,0.493,2.296,0.979,3.434,1.491c1.07,0.481,2.091,1.058,3.091,1.672c1.877,1.153,3.563,2.54,4.954,4.255
		c1.025,1.262,1.886,2.638,2.612,4.093c0.44,0.881,0.854,1.775,1.251,2.676C23.944,41.024,24.455,42.257,24.987,43.506z"/>
	<g>
		<path fill-rule="evenodd" clip-rule="evenodd" fill="#141514" d="M9.856,57.022c-0.035,0.299-0.217,0.476-0.486,0.581
			c-0.627,0.242-1.256,0.478-1.877,0.732c-0.336,0.139-0.654,0.326-0.99,0.465c-0.479,0.195-0.969,0.351-1.443,0.55
			c-1.953,0.816-3.84,1.755-5.611,2.924c-1.316,0.869-2.5,1.893-3.537,3.078c-0.973,1.111-1.764,2.354-2.486,3.644
			c-1.006,1.798-1.838,3.678-2.586,5.593c-0.35,0.896-0.738,1.779-1.058,2.688c-0.027,0.078-0.039,0.165-0.08,0.234
			c-0.129,0.215-0.319,0.373-0.57,0.365c-0.261-0.009-0.465-0.132-0.571-0.413c-0.318-0.83-0.661-1.651-0.995-2.477
			c-0.723-1.776-1.432-3.56-2.331-5.259c-0.819-1.548-1.737-3.032-2.885-4.363c-1.424-1.649-3.151-2.92-5.023-4.01
			c-2.171-1.264-4.497-2.193-6.819-3.128c-0.483-0.193-0.974-0.365-1.459-0.553c-0.109-0.041-0.211-0.103-0.318-0.151
			c-0.245-0.112-0.344-0.315-0.335-0.571c0.007-0.247,0.162-0.41,0.374-0.498c0.45-0.186,0.91-0.348,1.364-0.527
			c1.922-0.758,3.83-1.555,5.683-2.471c1.569-0.775,3.072-1.67,4.431-2.776c1.568-1.276,2.858-2.804,3.915-4.528
			c0.981-1.603,1.83-3.273,2.537-5.014c0.602-1.477,1.186-2.961,1.778-4.442c0.037-0.094,0.062-0.198,0.119-0.278
			c0.315-0.447,0.923-0.343,1.08,0.035c0.173,0.416,0.34,0.836,0.5,1.256c0.908,2.395,1.881,4.762,3.1,7.016
			c1.041,1.932,2.268,3.73,3.898,5.223c1.02,0.934,2.129,1.75,3.326,2.442c0.51,0.296,1.012,0.605,1.539,0.865
			c1.648,0.81,3.313,1.583,5.025,2.249c0.764,0.297,1.52,0.607,2.281,0.905C9.632,56.521,9.833,56.692,9.856,57.022z M-10.888,75.49
			c0.037-0.002,0.073-0.005,0.111-0.007c0.185-0.439,0.367-0.88,0.555-1.318c0.567-1.326,1.106-2.665,1.711-3.974
			c0.389-0.839,0.869-1.635,1.316-2.447c0.715-1.304,1.619-2.475,2.594-3.587c0.627-0.715,1.359-1.335,2.111-1.925
			c1.281-1.005,2.664-1.853,4.111-2.588c0.967-0.491,1.973-0.907,2.969-1.343c0.877-0.384,1.766-0.746,2.646-1.12
			c0.107-0.046,0.209-0.103,0.346-0.17c-0.492-0.216-0.928-0.407-1.363-0.598c-1.227-0.532-2.461-1.045-3.678-1.601
			c-1.051-0.48-2.045-1.068-3.039-1.657c-0.912-0.54-1.783-1.146-2.564-1.853c-0.971-0.875-1.906-1.796-2.686-2.859
			c-0.768-1.044-1.469-2.128-2.064-3.279c-0.604-1.166-1.189-2.341-1.689-3.559c-0.313-0.765-0.608-1.539-0.947-2.294
			c-0.114-0.255-0.142-0.571-0.418-0.798c-0.099,0.215-0.188,0.391-0.264,0.57c-0.569,1.323-1.131,2.648-1.704,3.971
			c-0.557,1.284-1.22,2.513-1.953,3.703c-0.612,0.994-1.287,1.948-2.067,2.816c-0.719,0.801-1.513,1.527-2.365,2.193
			c-1.093,0.855-2.257,1.596-3.481,2.241c-0.926,0.489-1.871,0.948-2.826,1.376c-1.056,0.474-2.135,0.895-3.203,1.346
			c-0.171,0.072-0.327,0.18-0.563,0.311c0.309,0.121,0.524,0.2,0.734,0.29c1.097,0.467,2.189,0.946,3.29,1.405
			c1.261,0.527,2.468,1.157,3.645,1.848c1.022,0.6,1.973,1.297,2.883,2.06c0.985,0.824,1.889,1.73,2.683,2.732
			c0.972,1.229,1.738,2.599,2.467,3.984c0.371,0.706,0.706,1.434,1.028,2.164c0.36,0.817,0.688,1.648,1.032,2.472
			C-11.319,74.496-11.102,74.993-10.888,75.49z"/>
		<path fill-rule="evenodd" clip-rule="evenodd" fill="#C5942D" d="M-10.888,75.49c-0.214-0.497-0.431-0.994-0.641-1.493
			c-0.345-0.823-0.672-1.654-1.032-2.472c-0.322-0.73-0.657-1.458-1.028-2.164c-0.729-1.386-1.495-2.756-2.467-3.984
			c-0.794-1.002-1.698-1.908-2.683-2.732c-0.91-0.763-1.861-1.46-2.883-2.06c-1.176-0.69-2.383-1.32-3.645-1.848
			c-1.1-0.459-2.192-0.938-3.29-1.405c-0.21-0.09-0.425-0.169-0.734-0.29c0.236-0.131,0.392-0.238,0.563-0.311
			c1.067-0.451,2.146-0.872,3.203-1.346c0.956-0.428,1.9-0.887,2.826-1.376c1.224-0.646,2.388-1.386,3.481-2.241
			c0.852-0.666,1.646-1.393,2.365-2.193c0.78-0.868,1.455-1.822,2.067-2.816c0.733-1.19,1.396-2.419,1.953-3.703
			c0.573-1.322,1.135-2.647,1.704-3.971c0.076-0.18,0.165-0.355,0.264-0.57c0.276,0.227,0.304,0.543,0.418,0.798
			c0.339,0.755,0.634,1.529,0.947,2.294c0.5,1.218,1.086,2.393,1.689,3.559c0.596,1.151,1.297,2.235,2.064,3.279
			c0.779,1.063,1.715,1.984,2.686,2.859c0.781,0.707,1.652,1.313,2.564,1.853c0.994,0.589,1.988,1.177,3.039,1.657
			c1.217,0.556,2.451,1.068,3.678,1.601c0.436,0.19,0.871,0.382,1.363,0.598c-0.137,0.067-0.238,0.124-0.346,0.17
			c-0.881,0.374-1.77,0.736-2.646,1.12c-0.996,0.436-2.002,0.852-2.969,1.343c-1.447,0.735-2.83,1.583-4.111,2.588
			c-0.752,0.59-1.484,1.21-2.111,1.925c-0.975,1.112-1.879,2.283-2.594,3.587c-0.447,0.813-0.928,1.608-1.316,2.447
			c-0.605,1.309-1.145,2.647-1.711,3.974c-0.188,0.438-0.37,0.879-0.555,1.318C-10.815,75.485-10.851,75.488-10.888,75.49z"/>
	</g>
</g>
</svg>
