<?xml version="1.0" encoding="utf-8"?>
<!-- Generator: Adobe Illustrator 16.0.0, SVG Export Plug-In . SVG Version: 6.00 Build 0)  -->
<!DOCTYPE svg PUBLIC "-//W3C//DTD SVG 1.1//EN" "http://www.w3.org/Graphics/SVG/1.1/DTD/svg11.dtd">
<svg version="1.1" id="Layer_1" xmlns="http://www.w3.org/2000/svg" xmlns:xlink="http://www.w3.org/1999/xlink" x="0px" y="0px"
	 width="50px" height="50px" viewBox="0 0 50 50" enable-background="new 0 0 50 50" xml:space="preserve">
<g>
	<path fill-rule="evenodd" clip-rule="evenodd" fill="#3C4FA2" d="M24.07,15.156c-1.097,0.159-2.207,0.3-3.309,0.486
		c-1.103,0.186-1.48,0.025-2.225-1.071c0.268-0.572,0.797-0.467,1.284-0.502c1.174-0.083,2.35-0.157,3.517-0.297
		c0.766-0.092,0.814-0.258,0.883-1.074c0.115-1.367-0.194-2.546-1.043-3.677c-0.666-0.888-1.11-1.958-1.554-2.99
		c-0.266-0.617-0.428-1.399,0.123-1.915c0.532-0.498,1.198-0.137,1.78,0.123c1.154,0.516,2.28,1.105,3.463,1.538
		c1.094,0.399,2.253,0.615,3.369,0.958c0.264,0.081,0.645,0.326,0.665,0.526c0.03,0.308-0.159,0.672-0.344,0.955
		c-0.105,0.163-0.387,0.209-0.585,0.316c-0.396,0.213-0.79,0.432-1.187,0.645c-1.386,0.747-1.889,1.963-1.908,3.581
		c1.235-0.099,2.344-0.398,3.392-0.899c0.903-0.433,2.271,0.303,2.304,1.286c0.016,0.493-0.384,0.564-0.74,0.637
		c-1.369,0.281-2.738,0.563-4.112,0.82c-1.158,0.217-1.161,0.202-1.121,1.669c0.706-0.128,1.401-0.236,2.089-0.384
		c1.631-0.349,3.256-0.724,4.886-1.072c0.243-0.052,0.552-0.108,0.75-0.006c1.059,0.545,1.725,1.446,2.096,2.558
		c0.117,0.351,0.122,0.697-0.362,0.882c-0.216,0.082-0.384,0.361-0.515,0.584c-0.819,1.406-1.681,2.792-2.415,4.243
		c-0.607,1.201-1.088,2.469-1.569,3.729c-0.374,0.975-0.335,0.987-1.284,0.688c-0.284-0.09-0.571-0.164-1.059-0.303
		c0.475,1.047,1.218,1.568,1.877,2.137c1.934,1.664,4.167,2.884,6.351,4.175c1.104,0.653,2.16,1.353,2.709,2.585
		c0.035,0.078,0.037,0.172,0.069,0.322c-0.43,0.264-0.851,0.222-1.196-0.136c-1.631-1.686-3.442-1.271-5.261-0.438
		c-1.17,0.536-1.271,0.646-2.058-0.361c-0.999-1.279-1.848-2.68-2.717-4.055c-0.578-0.918-1.076-1.886-1.619-2.826
		c-0.135-0.233-0.255-0.538-0.466-0.651c-0.251-0.135-0.603-0.154-0.892-0.106c-0.113,0.019-0.254,0.352-0.252,0.54
		c0.049,3.414,0.122,6.827,0.18,10.241c0.033,1.96,0.089,3.922,0.051,5.881c-0.02,1-0.741,1.63-1.64,1.639
		c-0.883,0.01-1.531-0.615-1.628-1.646c-0.107-1.13-0.233-2.266-0.228-3.397c0.011-1.982-0.667-3.725-1.697-5.355
		c-0.723-1.146-1.514-2.247-2.219-3.285c-2.159,1.064-4.216,2.085-6.279,3.093c-0.7,0.342-1.44,0.545-2.229,0.476
		c-0.161-0.015-0.316-0.104-0.535-0.178c0.274-0.838,0.941-1.151,1.566-1.483c1.394-0.741,2.81-1.441,4.201-2.189
		c0.516-0.278,0.996-0.627,1.473-0.969c0.683-0.488,0.675-0.498,0.606-1.39c0.447-0.122,0.991-0.124,1.322-0.391
		c1.074-0.861,1.192-1.426,0.511-2.665c-0.85-1.544-1.796-3.036-2.712-4.544c-0.659-1.083-1.344-2.15-2.006-3.231
		c-0.269-0.439-0.482-0.925-0.046-1.364c0.402-0.404,0.953-0.384,1.397-0.131c1.166,0.662,2.342,0.487,3.558,0.219
		c1.102-0.244,2.214-0.46,3.333-0.598C24.466,16.908,24.343,16.607,24.07,15.156z M19.619,31.588
		c1.213,1.476,2.168,3.246,3.946,4.314c0.419-1.107,0.549-6.186,0.229-7.597c-0.37,0-0.736,0.034-1.095-0.007
		c-0.676-0.077-1.042,0.19-1.37,0.806C20.886,29.936,20.264,30.672,19.619,31.588z M26.271,21.404
		c1.149-0.348,2.413-0.208,3.458-0.988c0.158-0.118,0.652,0.13,0.943,0.293c0.626,0.351,0.835,0.338,1.185-0.272
		c0.201-0.351,0.382-0.724,0.5-1.109c0.226-0.732-0.075-1.164-0.851-1.134c-0.993,0.038-1.991,0.124-2.976,0.268
		C25.974,18.837,26.027,18.427,26.271,21.404z M24.147,19.086c-1.604,0.308-3.057,0.575-4.502,0.878
		c-0.232,0.048-0.542,0.215-0.623,0.407c-0.249,0.587,0.502,1.697,1.144,1.686c1.342-0.024,2.687-0.077,3.981-0.485
		C24.147,20.798,24.147,20.082,24.147,19.086z M25.839,25.686c1.217-0.153,2.193-0.277,3.169-0.4
		c0.135-0.018,0.275-0.013,0.404-0.053c0.555-0.175,0.861-0.648,0.886-1.223c0.03-0.694-0.522-0.709-0.92-0.724
		c-1.064-0.04-2.134,0.02-3.273,0.042C26.016,24.121,25.941,24.775,25.839,25.686z M24.012,23.575
		c-0.964,0.171-1.893,0.312-2.809,0.516c-0.207,0.046-0.488,0.288-0.524,0.479c-0.133,0.694,0.592,1.553,1.297,1.548
		c2.377-0.017,2.163,0.25,2.176-2.064C24.152,23.971,24.105,23.888,24.012,23.575z"/>
</g>
</svg>
