<?xml version="1.0" encoding="utf-8"?>
<!-- Generator: Adobe Illustrator 16.0.0, SVG Export Plug-In . SVG Version: 6.00 Build 0)  -->
<!DOCTYPE svg PUBLIC "-//W3C//DTD SVG 1.1//EN" "http://www.w3.org/Graphics/SVG/1.1/DTD/svg11.dtd">
<svg version="1.1" id="Layer_1" xmlns="http://www.w3.org/2000/svg" xmlns:xlink="http://www.w3.org/1999/xlink" x="0px" y="0px"
	 width="50px" height="50px" viewBox="0 0 50 50" enable-background="new 0 0 50 50" xml:space="preserve">
<g>
	<path fill-rule="evenodd" clip-rule="evenodd" fill="#EC5856" d="M18.402,40.743c-0.377-1.312-0.684-2.366-0.983-3.423
		c-0.077-0.272-0.218-0.568-0.17-0.822s0.254-0.585,0.472-0.666c0.198-0.074,0.598,0.065,0.744,0.245
		c0.295,0.362,0.525,0.798,0.7,1.236c0.444,1.108,0.842,2.234,1.225,3.261c0.99-0.055,1.854-0.099,2.716-0.149
		c0.927-0.055,0.993-0.116,1.032-1.014c0.017-0.382,0.002-0.765,0.002-1.335c-0.692,0.113-1.282,0.209-1.945,0.316
		c-0.035,0.343-0.023,0.683-0.118,0.989c-0.057,0.184-0.286,0.448-0.426,0.441c-0.236-0.011-0.559-0.153-0.671-0.343
		c-0.163-0.276-0.2-0.642-0.239-0.975c-0.246-2.155-0.515-4.311-0.7-6.472c-0.093-1.095,0.109-1.278,1.232-1.261
		c3.066,0.05,6.031-0.571,8.986-1.274c0.141-0.033,0.27-0.113,0.41-0.139c2.345-0.425,2.594-0.221,2.514,2.151
		c-0.078,2.274-0.189,4.548-0.273,6.823c-0.013,0.373,0.047,0.749,0.063,0.984c1.342,0.079,2.586,0.087,3.813,0.24
		c1.954,0.245,3.111,2.42,2.316,4.23c-0.465,1.062-1.023,1.874-2.395,1.977c-1.275,0.097-2.535,0.504-3.784,0.836
		c-2.753,0.733-5.14,0.017-7.337-1.839c-0.842,0.684-1.857,0.69-2.879,0.626c-0.573-0.036-0.97,0.035-1.235,0.69
		c-0.263,0.651-0.528,0.589-1.112,0.123c-0.788-0.628-1.012-1.532-1.15-2.419c-0.122-0.779-0.435-1.019-1.196-1.122
		c-1.134-0.153-2.242-0.499-3.358-0.775c-0.23-0.058-0.444-0.179-0.669-0.258c-0.405-0.143-0.707-0.394-0.619-0.849
		c0.108-0.561,0.59-0.395,0.948-0.369c0.577,0.039,1.148,0.15,1.725,0.197C16.754,40.667,17.471,40.691,18.402,40.743z
		 M27.01,44.081c1.359,1.205,2.657,1.731,4.313,0.943c0.667-0.318,1.479-0.322,2.213-0.514c0.597-0.156,1.206-0.314,1.753-0.586
		c0.612-0.305,0.822-0.931,0.816-1.582c-0.006-0.654-0.451-1.027-1.004-1.277c-0.67-0.304-1.358-0.423-2.148-0.197
		c-0.017,0.357-0.041,0.687-0.045,1.015c-0.002,0.339-0.002,0.679,0.031,1.016c0.045,0.454-0.113,0.765-0.574,0.841
		c-1.049,0.175-2.11,0.603-3.107-0.229c-0.175-0.145-0.561-0.147-0.805-0.073C28,43.575,27.58,43.819,27.01,44.081z M26.783,31.528
		c0,0.36,0.02,0.651-0.004,0.939c-0.044,0.512,0.188,0.698,0.68,0.665c0.435-0.028,0.877,0.017,1.307-0.039
		c0.478-0.061,0.963-0.946,0.855-1.479c-0.09-0.453-0.503-0.627-1.182-0.48C27.931,31.245,27.426,31.375,26.783,31.528z
		 M29.252,37.859c-0.756,0-1.414,0-2.088,0c0,0.696,0,1.301,0,1.893C29.413,39.979,29.441,39.952,29.252,37.859z M24.416,34.85
		c-0.744,0.041-1.301-0.021-1.791,0.132c-0.296,0.093-0.616,0.488-0.686,0.801c-0.051,0.228,0.264,0.756,0.46,0.779
		c0.556,0.067,1.198,0.083,1.688-0.142C24.668,36.153,24.356,35.507,24.416,34.85z M24.391,31.792
		c-0.873,0.083-1.662,0.159-2.435,0.233c-0.191,1.431-0.191,1.43,0.973,1.42c0.469-0.004,0.938-0.001,1.461-0.001
		C24.391,32.796,24.391,32.297,24.391,31.792z M29.239,34.642c-0.691,0-1.388,0-2.118,0c0,0.577,0,1.076,0,1.536
		c0.461-0.047,0.84-0.09,1.221-0.124C29.387,35.96,29.387,35.961,29.239,34.642z M22.152,43.718
		c0.554-0.126,1.119-0.223,1.657-0.398c0.146-0.048,0.341-0.399,0.29-0.506c-0.096-0.2-0.351-0.453-0.543-0.456
		c-0.618-0.008-1.236,0.102-1.855,0.139c-0.481,0.028-0.526,0.325-0.479,0.694C21.299,43.79,21.668,43.822,22.152,43.718z
		 M29.158,41.311c-0.65,0.131-1.074,0.189-1.479,0.313c-0.132,0.04-0.255,0.234-0.302,0.384c-0.033,0.105,0.063,0.364,0.107,0.365
		c0.505,0.018,1.021,0.05,1.51-0.051C29.098,42.3,29.092,41.756,29.158,41.311z"/>
	<path fill-rule="evenodd" clip-rule="evenodd" fill="#111111" d="M22.682,15.918c-2.194,0.426-4.225,0.823-6.257,1.213
		c-1.149,0.22-1.525,0.086-1.631-0.556c-0.133-0.803,0.364-1.38,1.353-1.544c1.239-0.205,2.484-0.374,3.718-0.604
		c0.841-0.157,1.667-0.394,2.547-0.605c-0.066-1.852-0.361-3.557-0.835-5.226c-0.111-0.39-0.409-0.752-0.691-1.062
		c-0.506-0.554-1.064-1.146-0.781-1.912c0.347-0.941,0.822-1.851,1.82-2.345c0.483-0.239,0.887-0.056,1.209,0.183
		c1.15,0.853,1.967,1.98,2.556,3.288c0.213,0.473-0.01,0.78-0.305,1.009c-1.211,0.941-1.111,2.14-0.764,3.419
		c0.125,0.458,0.179,0.935,0.288,1.531c0.772-0.309,1.396-0.694,1.73-1.32c1.58-2.975,4.423-3.85,7.389-4.531
		c0.987-0.227,1.987-0.398,2.985-0.576c0.506-0.091,0.87,0.048,0.863,0.66c-0.005,0.438,0.025,0.876-0.002,1.312
		c-0.062,1.001-0.126,1.043-1.173,1.247c-1.941,0.377-3.893,0.715-5.814,1.173c-1.537,0.366-2.856,1.127-3.768,2.51
		c-0.311,0.472-0.813,0.82-1.235,1.215c-0.347,0.325-0.293,0.717,0.155,0.839c0.275,0.075,0.577,0.09,0.863,0.077
		c1.404-0.065,2.809-0.122,4.207-0.236c1.02-0.084,1.356,0.273,1.014,1.27c-0.17,0.496-0.414,0.981-0.709,1.415
		c-0.371,0.546-0.893,0.871-1.613,0.769c-1.771-0.25-3.543-0.49-5.316-0.714C23.395,17.677,22.714,17.146,22.682,15.918z"/>
	<path fill-rule="evenodd" clip-rule="evenodd" fill="#ED5A58" d="M26.663,27.238c0.704,0.157,1.242,0.061,1.331-0.819
		c0.015-0.137,0.109-0.267,0.17-0.398c0.635-1.382,0.768-2.642-0.755-3.591c-0.466-0.291-0.429-0.703-0.021-1.089
		c0.494-0.468,0.956-0.97,1.449-1.44c0.352-0.336,0.707-0.317,0.963,0.118c0.511,0.874,1.007,1.757,1.498,2.642
		c0.298,0.538,0.211,1.008-0.254,1.431c-0.547,0.499-0.854,1.143-1.166,2.03c0.498-0.038,0.859-0.009,1.189-0.099
		c1.968-0.538,3.969-0.803,6.008-0.783c0.89,0.009,1.53,0.333,1.54,0.764c0.01,0.44-0.677,0.954-1.443,0.986
		c-3.534,0.152-6.948,0.932-10.358,1.819c-2.718,0.708-5.493,1.056-8.315,0.569c-0.617-0.106-1.263-0.024-1.894-0.063
		c-0.887-0.053-1.72-0.266-2.352-0.958c-0.536-0.589-0.427-1.041,0.356-1.261c0.363-0.103,0.772-0.124,1.147-0.078
		c1.961,0.239,3.915,0.548,5.878,0.756c0.907,0.096,1.833,0.017,2.746,0.017c0.019-0.129,0.078-0.257,0.038-0.309
		c-0.792-1.034-0.795-1.032-0.121-2.204c0.265-0.46,0.518-0.928,0.806-1.375c0.275-0.426,0.708-0.566,1.136-0.317
		c0.344,0.199,0.389,0.536,0.293,0.989C26.242,25.947,26.285,25.956,26.663,27.238z"/>
</g>
</svg>
