<?xml version="1.0" encoding="utf-8"?>
<!-- Generator: Adobe Illustrator 16.0.0, SVG Export Plug-In . SVG Version: 6.00 Build 0)  -->
<!DOCTYPE svg PUBLIC "-//W3C//DTD SVG 1.1//EN" "http://www.w3.org/Graphics/SVG/1.1/DTD/svg11.dtd">
<svg version="1.1" id="Layer_1" xmlns="http://www.w3.org/2000/svg" xmlns:xlink="http://www.w3.org/1999/xlink" x="0px" y="0px"
	 width="50px" height="50px" viewBox="0 0 50 50" enable-background="new 0 0 50 50" xml:space="preserve">
<g>
	<path fill-rule="evenodd" clip-rule="evenodd" fill="#EC5856" d="M24.396,45.248c-0.979,0.754-2.063,0.721-3.144,0.669
		c-0.557-0.026-0.922,0.063-1.202,0.671c-0.355,0.772-0.579,0.699-1.268,0.137c-0.744-0.607-0.904-1.47-1.144-2.29
		c-0.401-1.375-0.374-1.354-1.798-1.588c-1.103-0.179-2.2-0.412-3.281-0.692c-0.373-0.098-0.739-0.363-1.017-0.643
		c-0.334-0.337-0.107-0.892,0.363-0.883c0.767,0.013,1.53,0.139,2.297,0.195c0.801,0.06,1.605,0.094,2.578,0.147
		c-0.383-1.27-0.704-2.333-1.023-3.397c-0.088-0.293-0.268-0.602-0.228-0.878c0.047-0.327,0.214-0.77,0.465-0.896
		c0.208-0.105,0.703,0.086,0.907,0.301c0.303,0.321,0.508,0.76,0.672,1.181c0.46,1.182,0.877,2.382,1.303,3.548
		c0.952-0.063,1.809-0.135,2.668-0.175c1.265-0.06,1.29-0.074,1.318-1.324c0.007-0.308,0.001-0.616,0.001-0.946
		c-0.756-0.484-1.371,0.148-2.118,0.117c-0.026,0.434,0.009,0.802-0.091,1.127c-0.054,0.177-0.336,0.378-0.525,0.39
		c-0.203,0.012-0.524-0.134-0.607-0.304c-0.154-0.311-0.201-0.686-0.242-1.04c-0.27-2.338-0.565-4.674-0.771-7.019
		c-0.093-1.063,0.133-1.261,1.245-1.248c3.302,0.036,6.503-0.573,9.687-1.369c0.735-0.184,1.526-0.156,2.293-0.198
		c0.489-0.026,0.767,0.192,0.743,0.736c-0.043,1.029,0.063,2.081-0.109,3.087c-0.397,2.307-0.065,4.604-0.22,6.795
		c1.46,0.091,2.772,0.11,4.067,0.268c1.839,0.224,3.283,2.271,2.72,4.013c-0.4,1.239-0.942,2.451-2.672,2.571
		c-1.403,0.098-2.791,0.546-4.168,0.907C29.22,47.973,26.74,47.213,24.396,45.248z M32.193,40.847c0,1.005-0.054,1.671,0.016,2.324
		c0.067,0.658-0.271,1.031-0.804,1.067c-1.056,0.073-2.177,0.596-3.155-0.346c-0.154-0.15-0.59-0.105-0.855-0.021
		c-0.479,0.151-0.926,0.399-1.451,0.637c1.305,1.304,2.707,1.894,4.441,1.046c0.793-0.388,1.621-0.524,2.501-0.592
		c0.633-0.049,1.308-0.284,1.854-0.617c1.194-0.729,1.103-2.396-0.165-2.944C33.906,41.109,33.135,41.055,32.193,40.847z
		 M25.722,32.895c0.687,0,1.204-0.024,1.716,0.007c0.717,0.044,0.984-0.365,1.145-0.979c0.232-0.895-0.09-1.312-0.977-1.152
		c-0.64,0.115-1.268,0.289-1.884,0.433C25.722,31.765,25.722,32.263,25.722,32.895z M26.043,39.986
		c2.504,0.12,2.519,0.106,2.205-2.035c-0.736,0-1.472,0-2.205,0C26.043,38.674,26.043,39.276,26.043,39.986z M23.304,34.727
		c-0.925,0.062-1.557,0.007-2.12,0.18c-0.296,0.09-0.604,0.556-0.654,0.89c-0.036,0.235,0.338,0.746,0.56,0.765
		c0.588,0.049,1.278,0.046,1.76-0.229C23.14,36.167,23.119,35.453,23.304,34.727z M20.445,31.741
		c-0.026,1.522-0.026,1.52,1.26,1.496c0.447-0.008,0.895-0.002,1.424-0.002c0-0.661,0-1.189,0-1.741
		C22.218,31.578,21.382,31.655,20.445,31.741z M25.912,34.439c0.043,0.708,0.074,1.224,0.101,1.675
		c0.657-0.044,1.162-0.088,1.667-0.109c0.614-0.026,0.733-0.417,0.751-0.931c0.021-0.579-0.309-0.661-0.779-0.64
		C27.148,34.457,26.643,34.439,25.912,34.439z M20.238,44.23c0.958-0.206,1.606-0.316,2.231-0.502
		c0.165-0.049,0.398-0.394,0.354-0.502c-0.093-0.226-0.348-0.538-0.54-0.542c-0.653-0.01-1.307,0.124-1.964,0.157
		c-0.491,0.023-0.609,0.288-0.557,0.699C19.82,43.997,19.999,44.313,20.238,44.23z M28.264,41.578
		c-0.791,0.156-1.241,0.216-1.67,0.348c-0.137,0.041-0.256,0.266-0.299,0.428c-0.029,0.113,0.074,0.375,0.135,0.38
		c0.496,0.042,1.023,0.137,1.477,0.002C28.09,42.681,28.116,42.095,28.264,41.578z"/>
	<path fill-rule="evenodd" clip-rule="evenodd" fill="#101010" d="M40.507,7.885c0.267,1.26-0.262,2.19-1.086,2.951
		c-1.628,1.5-3.291,2.962-4.955,4.421c-0.622,0.543-1.291,0.63-2.138,0.369c-2.609-0.804-5.28-1.36-8.032-0.994
		c-1.258,0.168-2.507,0.467-3.733,0.809c-1.963,0.547-2.104,0.514-3.414-1.025c-2.137-2.509-4.31-4.988-6.451-7.494
		c-0.326-0.381-0.656-0.808-0.817-1.271c-0.209-0.601,0.251-0.997,0.86-0.759c0.662,0.258,1.336,0.543,1.914,0.946
		c1.542,1.075,3.211,0.996,4.882,0.57c2.618-0.667,5.209-1.438,7.815-2.157c0.442-0.122,0.905-0.176,1.342-0.311
		c0.695-0.214,1.415-0.195,1.968-0.953c0.577-0.79,1.575-0.713,2.241,0.069c0.439,0.516,0.9,0.387,1.384,0.413
		c2.325,0.125,4.547,0.578,6.632,1.7C40.086,5.798,40.892,6.5,40.507,7.885z M28.852,12.514c0.74,0.234,1.231,0.36,1.7,0.543
		c0.732,0.287,1.339,0.163,1.959-0.337c1.421-1.146,2.494-2.563,3.377-4.135c0.491-0.874,0.419-1.253-0.474-1.737
		c-0.884-0.479-1.846-0.826-2.795-1.173c-0.645-0.236-1.043,0.089-1.269,0.715C31.128,7.01,30.85,7.611,30.6,8.222
		C30.027,9.622,29.458,11.023,28.852,12.514z M21.826,13.271c0.33-1.961-0.192-3.951-0.277-5.957
		c-0.931,0.171-1.787,0.315-2.636,0.488c-0.859,0.174-1.823-0.17-2.721,0.532c1.066,1.337,2.144,2.568,3.078,3.899
		C19.903,13.136,20.583,13.648,21.826,13.271z M26.547,12.697c0.386-2.251,0.764-4.444,1.187-6.906
		c-1.106,0.224-1.961,0.396-2.833,0.573c0.204,2.279,0.448,4.411-0.584,6.499C25.124,12.802,25.724,12.758,26.547,12.697z"/>
	<path fill-rule="evenodd" clip-rule="evenodd" fill="#ED5A58" d="M29.051,25.674c2.535-0.753,4.985-1.175,7.501-1.141
		c0.937,0.013,1.645,0.339,1.686,0.776c0.05,0.51-0.72,1.044-1.658,1.087c-3.747,0.176-7.361,1.029-10.98,1.959
		c-2.829,0.728-5.729,1.096-8.674,0.575c-0.704-0.124-1.444-0.02-2.163-0.078c-0.994-0.082-1.926-0.354-2.56-1.204
		c-0.288-0.386-0.301-0.718,0.219-0.996c0.748-0.4,1.486-0.215,2.252-0.131c2.542,0.282,5.089,0.531,7.636,0.776
		c0.279,0.027,0.569-0.053,1.042-0.104c-0.254-0.335-0.377-0.544-0.544-0.71c-0.396-0.391-0.389-0.842-0.156-1.274
		c0.388-0.721,0.814-1.423,1.256-2.113c0.246-0.384,0.625-0.572,1.062-0.328c0.437,0.244,0.654,0.584,0.398,1.129
		c-0.34,0.724-0.355,1.49-0.021,2.223c0.107,0.234,0.352,0.574,0.53,0.572c0.316-0.004,0.812-0.156,0.908-0.383
		c0.396-0.935,0.717-1.911,0.953-2.898c0.06-0.253-0.259-0.633-0.47-0.904c-0.405-0.521-0.856-1.005-1.289-1.504
		c0.489-0.582,0.976-1.165,1.467-1.743c0.1-0.118,0.21-0.229,0.329-0.327c0.556-0.457,0.836-0.422,1.22,0.228
		c0.467,0.792,0.857,1.63,1.34,2.413c0.411,0.668,0.418,1.212-0.173,1.785c-0.363,0.353-0.672,0.785-0.91,1.232
		C29.099,24.875,29.121,25.251,29.051,25.674z"/>
</g>
</svg>
