<?xml version="1.0" encoding="utf-8"?>
<!-- Generator: Adobe Illustrator 16.0.0, SVG Export Plug-In . SVG Version: 6.00 Build 0)  -->
<!DOCTYPE svg PUBLIC "-//W3C//DTD SVG 1.1//EN" "http://www.w3.org/Graphics/SVG/1.1/DTD/svg11.dtd">
<svg version="1.1" id="Layer_1" xmlns="http://www.w3.org/2000/svg" xmlns:xlink="http://www.w3.org/1999/xlink" x="0px" y="0px"
	 width="50px" height="50px" viewBox="0 0 50 50" enable-background="new 0 0 50 50" xml:space="preserve">
<g>
	<path fill-rule="evenodd" clip-rule="evenodd" fill="#236B37" d="M22.316,32.754c0.029-1.012,0.104-1.835-0.771-2.539
		c-0.777-0.626-0.606-1.956,0.325-2.43c1.106-0.562,2.365-1.117,3.562-1.126c1.142-0.009,2.357,0.562,3.416,1.114
		c1.006,0.525,1.195,1.823,0.332,2.518c-1.329,1.068-0.694,2.423-0.839,3.664c-0.016,0.136,0.174,0.32,0.308,0.44
		c0.172,0.155,0.397,0.252,0.574,0.403c1.396,1.19,1.338,2.736-0.01,3.727c-0.784,0.576-0.952,1.173-0.899,2.014
		c0.038,0.615,0.026,1.235,0.002,1.853c-0.029,0.73,0.053,1.283,0.791,1.779c1.028,0.69,0.899,2.244-0.151,2.893
		c-0.767,0.473-1.611,0.807-2.558,0.477c-0.693-0.242-1.363-0.175-2.08,0.023c-1.021,0.282-1.976-0.018-2.746-0.755
		c-0.807-0.772-0.896-1.756-0.04-2.456c0.741-0.606,0.85-1.28,0.801-2.105c-0.022-0.378-0.005-0.76-0.003-1.14
		c0.005-1.117,0.09-2.13-1.088-2.963c-1.077-0.761-0.971-2.183,0.095-3.074C22.164,34.379,22.541,33.668,22.316,32.754z
		 M26.373,29.546c-0.108-0.205-0.206-0.588-0.45-0.808c-0.343-0.309-0.792-0.276-1.15,0.055c-0.318,0.294-0.543,0.595-0.357,1.108
		c0.154,0.426,0.169,0.913,0.185,1.376c0.027,0.801-0.022,1.604,0.018,2.404c0.033,0.668,0.317,0.919,0.838,0.88
		c0.627-0.048,0.552-0.519,0.58-0.936C26.119,32.321,25.815,30.989,26.373,29.546z M26.032,42.399c0,0,0.001,0,0.002,0
		c0-0.66,0.007-1.32-0.002-1.979c-0.012-0.979-0.199-1.319-0.69-1.302c-0.461,0.018-0.717,0.448-0.728,1.328
		c-0.017,1.32-0.006,2.641-0.002,3.96c0,0.187-0.04,0.431,0.059,0.548c0.222,0.266,0.506,0.637,0.787,0.657
		c0.414,0.03,0.58-0.384,0.577-0.808C26.027,44.002,26.032,43.201,26.032,42.399z M24.328,36.663
		c0.043,0.01,0.106,0.041,0.125,0.023c0.62-0.561,1.233-0.593,1.897-0.048c0.067,0.057,0.41-0.136,0.55-0.284
		c0.089-0.094,0.09-0.335,0.044-0.483c-0.22-0.725-0.902-0.864-1.475-0.886c-0.646-0.023-1.32,0.191-1.667,0.873
		C23.628,36.202,23.913,36.632,24.328,36.663z M25.565,36.795c-0.572,0.299-1.12,0.532-1.597,0.867
		c-0.142,0.1-0.192,0.557-0.085,0.718c0.107,0.162,0.567,0.298,0.692,0.204c0.582-0.438,1.084-0.443,1.669-0.012
		c0.113,0.083,0.507-0.079,0.661-0.236c0.098-0.1,0.074-0.489-0.038-0.592C26.504,37.413,26.074,37.155,25.565,36.795z"/>
	<path fill-rule="evenodd" clip-rule="evenodd" fill="#226A37" d="M26.938,23.795c-1.007-0.361-2.162-0.109-3.325-0.054
		c-0.575,0.027-1.23-0.16-1.735-0.449c-1.064-0.61-1.242-1.925-0.319-2.733c0.655-0.574,0.858-1.164,0.78-1.966
		c-0.045-0.47-0.023-0.948-0.005-1.422c0.038-1.035,0.033-1.9-1.021-2.672c-1.22-0.894-1.011-2.582,0.289-3.508
		c0.6-0.427,0.789-0.851,0.736-1.515c-0.037-0.471-0.025-0.949-0.002-1.422c0.024-0.497-0.107-0.857-0.493-1.238
		c-1.16-1.146-0.897-2.484,0.599-3.148c0.721-0.32,1.483-0.618,2.255-0.73c0.623-0.091,1.293,0.085,1.934,0.191
		c0.414,0.068,0.824,0.194,1.216,0.347c0.389,0.151,0.801,0.309,1.115,0.569c0.897,0.742,1.042,1.865,0.143,2.566
		c-0.782,0.61-0.828,1.28-0.785,2.09c0.013,0.236,0.018,0.476-0.001,0.711c-0.047,0.602,0.021,1.135,0.649,1.437
		c0.165,0.079,0.304,0.227,0.437,0.36c1.301,1.304,1.014,2.631-0.167,3.523c-0.777,0.587-0.975,1.161-0.924,2.013
		c0.041,0.709,0.031,1.423,0.001,2.133c-0.024,0.599,0.052,1.074,0.657,1.413c0.759,0.426,0.932,1.183,0.729,1.975
		c-0.209,0.808-0.878,1.201-1.621,1.429C27.77,23.792,27.421,23.758,26.938,23.795z M26.03,18.639c-0.001,0-0.002,0-0.003,0
		c0-0.848,0-1.695,0-2.543c0-0.364-0.096-0.629-0.531-0.68c-0.463-0.055-0.717,0.17-0.849,0.562
		c-0.058,0.172-0.036,0.373-0.037,0.56c-0.002,1.366-0.002,2.731,0,4.097c0,0.187-0.024,0.391,0.039,0.557
		c0.133,0.352,0.322,0.694,0.787,0.637c0.454-0.056,0.613-0.34,0.6-0.788C26.015,20.241,26.03,19.439,26.03,18.639z M26.146,5.739
		c0.162-0.603-0.205-0.926-0.848-0.892c-0.522,0.028-1.097,0.563-0.931,1.009c0.451,1.207,0.134,2.438,0.243,3.65
		c0.021,0.234-0.044,0.534,0.078,0.688c0.212,0.266,0.538,0.442,0.816,0.656c0.175-0.252,0.486-0.497,0.501-0.759
		C26.093,8.643,26.106,7.19,26.146,5.739z M27.066,12.269c-0.045-0.083-0.11-0.258-0.221-0.397
		c-0.729-0.915-1.987-0.942-2.797-0.034c-0.149,0.167-0.268,0.622-0.192,0.681c0.215,0.171,0.679,0.369,0.793,0.269
		c0.578-0.505,1.021-0.393,1.57,0.049C26.504,13.064,27.041,12.711,27.066,12.269z M27.055,14.227
		c-0.054-0.089-0.13-0.26-0.246-0.396c-0.757-0.892-2.015-0.886-2.795,0.042c-0.138,0.165-0.22,0.553-0.121,0.694
		c0.121,0.173,0.591,0.34,0.681,0.258c0.601-0.545,1.098-0.455,1.699,0.019C26.549,15.062,27.08,14.652,27.055,14.227z"/>
	<path fill-rule="evenodd" clip-rule="evenodd" fill="#EEF6ED" d="M26.373,29.546c-0.558,1.443-0.254,2.775-0.337,4.08
		c-0.027,0.417,0.048,0.888-0.58,0.936c-0.521,0.039-0.805-0.212-0.838-0.88c-0.04-0.8,0.01-1.604-0.018-2.404
		c-0.016-0.463-0.031-0.95-0.185-1.376c-0.187-0.514,0.039-0.814,0.357-1.108c0.358-0.331,0.807-0.363,1.15-0.055
		C26.167,28.958,26.265,29.341,26.373,29.546z"/>
	<path fill-rule="evenodd" clip-rule="evenodd" fill="#EFF7EF" d="M26.032,42.399c0,0.802-0.005,1.603,0.002,2.404
		c0.003,0.424-0.164,0.838-0.577,0.808c-0.281-0.021-0.565-0.392-0.787-0.657c-0.098-0.117-0.058-0.361-0.059-0.548
		c-0.004-1.319-0.014-2.64,0.002-3.96c0.011-0.88,0.267-1.311,0.728-1.328c0.491-0.018,0.678,0.323,0.69,1.302
		c0.009,0.659,0.002,1.319,0.002,1.979C26.033,42.399,26.032,42.399,26.032,42.399z"/>
	<path fill-rule="evenodd" clip-rule="evenodd" fill="#EFF6ED" d="M24.328,36.663c-0.416-0.031-0.7-0.461-0.525-0.805
		c0.347-0.682,1.021-0.896,1.667-0.873c0.573,0.021,1.255,0.161,1.475,0.886c0.046,0.148,0.045,0.39-0.044,0.483
		c-0.14,0.148-0.482,0.341-0.55,0.284c-0.664-0.545-1.277-0.513-1.897,0.048C24.435,36.704,24.371,36.673,24.328,36.663z"/>
	<path fill-rule="evenodd" clip-rule="evenodd" fill="#ECF4EA" d="M25.565,36.795c0.509,0.36,0.938,0.618,1.302,0.949
		c0.112,0.103,0.136,0.492,0.038,0.592c-0.154,0.157-0.548,0.319-0.661,0.236c-0.585-0.432-1.088-0.426-1.669,0.012
		c-0.125,0.094-0.585-0.042-0.692-0.204c-0.107-0.161-0.056-0.618,0.085-0.718C24.445,37.327,24.994,37.094,25.565,36.795z"/>
	<path fill-rule="evenodd" clip-rule="evenodd" fill="#EFF7EE" d="M26.03,18.639c0,0.8-0.016,1.602,0.006,2.402
		c0.013,0.448-0.146,0.732-0.6,0.788c-0.465,0.057-0.653-0.285-0.787-0.637c-0.063-0.167-0.039-0.37-0.039-0.557
		c-0.002-1.366-0.002-2.731,0-4.097c0-0.188-0.021-0.388,0.037-0.56c0.132-0.392,0.386-0.617,0.849-0.562
		c0.435,0.051,0.531,0.316,0.531,0.68c0,0.848,0,1.695,0,2.543C26.028,18.639,26.029,18.639,26.03,18.639z"/>
	<path fill-rule="evenodd" clip-rule="evenodd" fill="#F1F8F0" d="M26.146,5.739c-0.04,1.451-0.054,2.904-0.141,4.352
		c-0.016,0.262-0.327,0.506-0.501,0.759c-0.278-0.214-0.604-0.39-0.816-0.656c-0.122-0.153-0.057-0.454-0.078-0.688
		c-0.109-1.212,0.208-2.443-0.243-3.65c-0.167-0.446,0.408-0.981,0.931-1.009C25.942,4.813,26.309,5.136,26.146,5.739z"/>
	<path fill-rule="evenodd" clip-rule="evenodd" fill="#F1F8F0" d="M27.066,12.269c-0.025,0.442-0.563,0.795-0.846,0.567
		c-0.55-0.442-0.993-0.554-1.57-0.049c-0.114,0.1-0.579-0.098-0.793-0.269c-0.076-0.06,0.042-0.514,0.192-0.681
		c0.81-0.909,2.068-0.881,2.797,0.034C26.956,12.011,27.021,12.186,27.066,12.269z"/>
	<path fill-rule="evenodd" clip-rule="evenodd" fill="#F1F8F0" d="M27.055,14.227c0.025,0.425-0.506,0.834-0.782,0.617
		c-0.601-0.474-1.098-0.564-1.699-0.019c-0.09,0.082-0.561-0.085-0.681-0.258c-0.099-0.141-0.017-0.53,0.121-0.694
		c0.78-0.929,2.038-0.935,2.795-0.042C26.925,13.967,27.001,14.138,27.055,14.227z"/>
</g>
</svg>
