<?xml version="1.0" encoding="utf-8"?>
<!-- Generator: Adobe Illustrator 16.0.0, SVG Export Plug-In . SVG Version: 6.00 Build 0)  -->
<!DOCTYPE svg PUBLIC "-//W3C//DTD SVG 1.1//EN" "http://www.w3.org/Graphics/SVG/1.1/DTD/svg11.dtd">
<svg version="1.1" id="Layer_1" xmlns="http://www.w3.org/2000/svg" xmlns:xlink="http://www.w3.org/1999/xlink" x="0px" y="0px"
	 width="50px" height="50px" viewBox="0 0 50 50" enable-background="new 0 0 50 50" xml:space="preserve">
<g>
	<path fill-rule="evenodd" clip-rule="evenodd" fill="#EF3E39" d="M34.813,18.841c-3.501,0.291-7.91-2.723-7.919-7.901
		c-0.009-4.726,4.021-7.908,7.985-7.875c4.134,0.034,7.916,3.47,7.897,7.944C42.758,15.524,38.891,19.08,34.813,18.841z
		 M40.836,10.97c0.225-3.005-2.293-6.087-6.001-6.074c-3.912,0.014-6.029,3.083-6.075,6.073c-0.052,3.281,2.724,6.146,6.069,6.111
		C38.398,17.043,41.138,13.899,40.836,10.97z"/>
	<path fill-rule="evenodd" clip-rule="evenodd" fill="#EF3E39" d="M35.012,31.783c4.007-0.194,7.855,3.503,7.771,8.021
		c-0.077,4.131-3.694,7.947-8.264,7.739c-3.449-0.157-7.572-2.791-7.621-7.906C26.854,35.009,30.785,31.481,35.012,31.783z
		 M40.837,39.602c0.226-3.073-2.527-6.05-6.027-6.073c-3.288-0.022-6.07,2.877-6.062,6.132c0.009,3.261,2.938,6.243,6.111,6.093
		C38.709,45.57,41.147,42.343,40.837,39.602z"/>
	<path fill-rule="evenodd" clip-rule="evenodd" fill="#EF3E39" d="M33.35,25.432c0.288,3.555-2.741,7.936-7.883,7.928
		c-4.852-0.008-7.915-4.068-7.894-7.967c0.021-4.072,3.42-7.918,7.934-7.91C29.992,17.491,33.584,21.333,33.35,25.432z
		 M25.416,31.514c3.273,0.035,6.256-2.763,6.181-6.018c-0.091-3.9-3.231-6.044-5.874-6.118c-3.29-0.091-6.266,2.332-6.314,5.975
		C19.359,29.108,22.237,31.344,25.416,31.514z"/>
	<path fill-rule="evenodd" clip-rule="evenodd" fill="#EF3E39" d="M23.917,11.094c0.229,4.292-3.825,7.863-7.979,7.792
		c-4.095-0.07-7.831-3.556-7.792-8.033c0.032-3.745,3.285-7.817,8.034-7.8C20.064,3.069,24.258,6.64,23.917,11.094z M16.043,17.109
		c3.701-0.337,6.042-2.623,6.092-6.079c0.052-3.533-2.583-6.183-6.134-6.134c-3.436,0.047-6.034,2.386-5.997,6.094
		C10.041,14.664,12.396,16.702,16.043,17.109z"/>
	<path fill-rule="evenodd" clip-rule="evenodd" fill="#EF3E39" d="M23.916,39.726c0.205,4.389-3.852,7.869-7.943,7.832
		c-4.076-0.037-7.87-3.63-7.832-8.006c0.032-3.737,3.283-7.854,8.005-7.832C20.155,31.739,24.248,35.387,23.916,39.726z
		 M22.192,39.646c-0.259-3.479-2.455-6.034-6.078-6.081c-3.433-0.044-6.185,2.336-6.11,6.141c0.075,3.812,2.596,6.01,6.089,5.99
		C19.941,45.673,21.932,42.938,22.192,39.646z"/>
	<path fill-rule="evenodd" clip-rule="evenodd" fill="#EF3D38" d="M9.485,25.339c-0.004-1.44,1.124-2.632,2.496-2.596
		c1.268,0.034,2.554,1.147,2.466,2.65c-0.08,1.364-1.117,2.489-2.438,2.518C10.643,27.942,9.489,26.767,9.485,25.339z"/>
	<path fill-rule="evenodd" clip-rule="evenodd" fill="#FEECEA" d="M40.836,10.97c0.302,2.929-2.438,6.073-6.007,6.11
		c-3.346,0.035-6.121-2.831-6.069-6.111c0.046-2.989,2.163-6.059,6.075-6.073C38.543,4.883,41.061,7.965,40.836,10.97z
		 M39.879,10.911c0.173-2.679-2.207-5.174-5.148-5.068c-2.896,0.104-4.99,2.291-5,5.106c-0.01,2.804,2.403,5.318,5.114,5.183
		C38.24,15.964,40.092,13.25,39.879,10.911z"/>
	<path fill-rule="evenodd" clip-rule="evenodd" fill="#FEECEA" d="M40.837,39.602c0.311,2.741-2.128,5.969-5.978,6.151
		c-3.174,0.15-6.103-2.832-6.111-6.093c-0.009-3.255,2.773-6.154,6.062-6.132C38.31,33.552,41.063,36.528,40.837,39.602z
		 M39.88,39.67c0.199-2.736-2.129-5.186-5.056-5.164c-2.718,0.02-5.116,2.118-5.096,5.178c0.019,2.724,2.304,5.173,5.02,5.103
		C38.113,44.699,40.044,42.086,39.88,39.67z"/>
	<path fill-rule="evenodd" clip-rule="evenodd" fill="#FEECEA" d="M25.416,31.514c-3.179-0.17-6.057-2.405-6.007-6.16
		c0.048-3.643,3.024-6.066,6.314-5.975c2.643,0.074,5.783,2.217,5.874,6.118C31.672,28.751,28.688,31.549,25.416,31.514z
		 M25.468,20.381c-2.709-0.185-5.086,2.16-5.143,5.104c-0.052,2.684,2.385,5.025,5.094,5.048c2.865,0.025,5.395-2.437,5.227-5.239
		C30.455,22.109,27.818,20.177,25.468,20.381z"/>
	<path fill-rule="evenodd" clip-rule="evenodd" fill="#FEEBE9" d="M16.043,17.109c-3.647-0.408-6.002-2.445-6.039-6.12
		c-0.037-3.708,2.561-6.047,5.997-6.094c3.552-0.049,6.187,2.602,6.134,6.134C22.084,14.486,19.744,16.772,16.043,17.109z
		 M21.235,11.038c-0.241-2.972-1.945-5.116-5.109-5.179c-2.971-0.059-5.103,1.866-5.176,5.047c-0.067,2.911,1.804,5.113,5.045,5.174
		C18.905,16.136,20.89,14.292,21.235,11.038z"/>
	<path fill-rule="evenodd" clip-rule="evenodd" fill="#FEEBE8" d="M22.192,39.646c-0.26,3.292-2.251,6.027-6.1,6.05
		c-3.493,0.02-6.014-2.179-6.089-5.99c-0.075-3.805,2.678-6.185,6.11-6.141C19.738,33.611,21.934,36.167,22.192,39.646z
		 M21.234,39.695c-0.245-2.967-1.958-5.114-5.116-5.17c-2.977-0.052-5.109,1.88-5.167,5.052c-0.054,2.998,1.88,5.18,5.211,5.166
		C19.203,44.73,20.933,42.601,21.234,39.695z"/>
	<path fill-rule="evenodd" clip-rule="evenodd" fill="#EF3E39" d="M39.879,10.911c0.213,2.339-1.639,5.053-5.034,5.221
		c-2.711,0.135-5.124-2.379-5.114-5.183c0.01-2.816,2.104-5.003,5-5.106C37.672,5.737,40.052,8.232,39.879,10.911z M34.835,11.997
		c0.72,0.002,1.131-0.413,1.087-1.098c-0.039-0.611-0.42-0.944-1.08-0.945c-0.621-0.001-1.193,0.551-1.144,1.103
		C33.743,11.548,34.283,11.996,34.835,11.997z M32.329,12.139c-0.074,0.21-0.278,0.573-0.21,0.634
		c0.544,0.493,1.129,0.944,1.734,1.361c0.078,0.054,0.416-0.122,0.499-0.268c0.067-0.118-0.008-0.424-0.123-0.521
		c-0.489-0.407-1.016-0.771-1.535-1.14C32.625,12.156,32.512,12.169,32.329,12.139z M38.313,10.657
		c-0.29-0.55-0.528-1.082-0.849-1.559c-0.087-0.129-0.442-0.165-0.632-0.106c-0.107,0.033-0.222,0.372-0.175,0.524
		c0.14,0.455,0.412,0.872,0.527,1.33c0.101,0.396,0.277,0.605,0.644,0.447C38.019,11.211,38.119,10.925,38.313,10.657z M32.57,8.764
		c-0.818,0.551-0.972,1.313-0.914,2.138c0.011,0.151,0.22,0.387,0.36,0.405c0.164,0.021,0.465-0.114,0.513-0.25
		c0.192-0.542,0.354-1.105,0.429-1.673C32.983,9.2,32.711,8.976,32.57,8.764z M36.135,8.702c0.037-0.141,0.073-0.282,0.11-0.423
		c-0.225-0.179-0.439-0.49-0.678-0.51c-0.573-0.048-1.16,0.015-1.733,0.097c-0.095,0.014-0.191,0.345-0.196,0.532
		c-0.002,0.099,0.189,0.287,0.299,0.291C34.668,8.715,35.402,8.702,36.135,8.702z M37.194,12.079
		c-0.72,0.518-1.318,0.935-1.892,1.385c-0.058,0.045-0.001,0.32,0.079,0.435c0.08,0.115,0.328,0.262,0.38,0.225
		c0.593-0.423,1.173-0.868,1.72-1.348C37.532,12.73,37.33,12.399,37.194,12.079z"/>
	<path fill-rule="evenodd" clip-rule="evenodd" fill="#EF3E39" d="M39.88,39.67c0.164,2.416-1.767,5.029-5.132,5.116
		c-2.716,0.07-5.001-2.379-5.02-5.103c-0.021-3.06,2.378-5.158,5.096-5.178C37.751,34.484,40.079,36.934,39.88,39.67z
		 M35.922,39.604c-0.019-0.593-0.57-1.127-1.142-1.107c-0.436,0.016-1.127,0.792-1.081,1.213c0.057,0.515,0.711,0.996,1.289,0.949
		C35.602,40.609,35.942,40.225,35.922,39.604z M32.404,40.685c-0.102,0.294-0.341,0.71-0.257,0.792
		c0.49,0.475,1.043,0.891,1.607,1.277c0.106,0.072,0.497-0.038,0.523-0.13c0.056-0.197,0.04-0.534-0.09-0.642
		C33.658,41.539,33.074,41.161,32.404,40.685z M38.339,39.429c-0.318-0.613-0.589-1.185-0.915-1.722
		c-0.067-0.11-0.463-0.178-0.505-0.118c-0.132,0.181-0.266,0.457-0.217,0.652c0.114,0.46,0.303,0.909,0.523,1.331
		c0.097,0.186,0.36,0.421,0.519,0.4C37.932,39.949,38.088,39.674,38.339,39.429z M34.588,36.401
		c-0.033,0.002-0.332-0.054-0.556,0.051c-0.188,0.088-0.334,0.35-0.399,0.565c-0.021,0.072,0.249,0.32,0.407,0.344
		c0.366,0.053,0.748,0.039,1.12,0.012c0.385-0.028,1.012,0.207,0.995-0.433c-0.013-0.481-0.553-0.572-1.013-0.54
		C35.036,36.407,34.929,36.401,34.588,36.401z M32.601,37.415c-0.854,0.576-1.019,1.346-0.928,2.183
		c0.015,0.135,0.414,0.378,0.523,0.327C32.697,39.695,32.948,38.259,32.601,37.415z M35.742,42.855
		c0.396-0.238,0.85-0.421,1.174-0.737c0.268-0.26,0.619-0.856,0.517-0.994c-0.349-0.468-0.715-0.085-1.052,0.195
		c-0.323,0.269-0.702,0.47-1.023,0.74c-0.076,0.064-0.067,0.309-0.011,0.43C35.406,42.619,35.568,42.702,35.742,42.855z"/>
	<path fill-rule="evenodd" clip-rule="evenodd" fill="#EF3E39" d="M25.468,20.381c2.35-0.204,4.987,1.728,5.177,4.914
		c0.168,2.803-2.361,5.265-5.227,5.239c-2.709-0.023-5.146-2.364-5.094-5.048C20.382,22.541,22.759,20.196,25.468,20.381z
		 M25.514,26.559c0.577-0.019,1.034-0.594,0.986-1.242c-0.049-0.669-0.388-0.986-1.038-0.972c-0.678,0.015-1.04,0.448-0.991,1.186
		C24.509,26.1,24.993,26.576,25.514,26.559z M25.271,22.08c-0.078,0.018-0.419,0.03-0.683,0.18c-0.18,0.103-0.252,0.397-0.372,0.606
		c0.208,0.108,0.409,0.286,0.625,0.306c0.309,0.029,0.642-0.132,0.941-0.079c0.426,0.076,0.922,0.294,0.972-0.34
		c0.043-0.532-0.492-0.608-0.92-0.671C25.728,22.067,25.619,22.08,25.271,22.08z M28.886,25.143
		c-0.231-0.535-0.398-1.042-0.669-1.484c-0.095-0.155-0.444-0.155-0.677-0.226c-0.05,0.222-0.172,0.458-0.133,0.665
		c0.077,0.413,0.211,0.823,0.383,1.207c0.101,0.225,0.318,0.397,0.484,0.592C28.461,25.667,28.646,25.437,28.886,25.143z
		 M25.129,28.193c-0.078-0.163-0.099-0.287-0.171-0.344c-0.506-0.391-1.015-0.778-1.544-1.137c-0.096-0.065-0.376-0.044-0.416,0.025
		c-0.094,0.167-0.193,0.498-0.117,0.565c0.507,0.446,1.043,0.869,1.616,1.227C24.599,28.593,24.915,28.313,25.129,28.193z
		 M28.157,26.972c-0.145-0.085-0.422-0.338-0.51-0.284c-0.589,0.364-1.149,0.781-1.682,1.225c-0.047,0.039,0.125,0.531,0.273,0.579
		C26.844,28.692,28.052,27.774,28.157,26.972z M22.236,24.802c0,0.249-0.037,0.375,0.007,0.457c0.118,0.216,0.271,0.413,0.411,0.617
		c0.179-0.164,0.427-0.295,0.519-0.499c0.125-0.275,0.089-0.62,0.195-0.908c0.141-0.383,0.472-0.826-0.094-1.021
		c-0.165-0.057-0.567,0.461-0.8,0.762C22.324,24.405,22.28,24.685,22.236,24.802z"/>
	<path fill-rule="evenodd" clip-rule="evenodd" fill="#EF3F3A" d="M21.235,11.038c-0.345,3.254-2.33,5.098-5.24,5.042
		c-3.241-0.062-5.112-2.264-5.045-5.174c0.073-3.181,2.205-5.106,5.176-5.047C19.29,5.922,20.994,8.066,21.235,11.038z
		 M16.08,11.983c0.65-0.016,0.979-0.347,0.984-0.992c0.005-0.686-0.432-1.083-1.127-1.023c-0.606,0.052-0.923,0.44-0.889,1.086
		C15.083,11.696,15.42,12,16.08,11.983z M19.46,10.568c-0.281-0.565-0.514-1.091-0.81-1.578c-0.066-0.109-0.399-0.162-0.534-0.092
		C17.99,8.962,17.878,9.24,17.91,9.393c0.099,0.464,0.229,0.932,0.429,1.359c0.11,0.234,0.386,0.391,0.587,0.583
		C19.085,11.105,19.245,10.877,19.46,10.568z M18.696,12.524c-0.154-0.066-0.43-0.285-0.547-0.22
		c-0.56,0.311-1.085,0.688-1.601,1.071c-0.085,0.063-0.119,0.298-0.073,0.412c0.054,0.134,0.205,0.284,0.342,0.32
		C17.429,14.272,18.659,13.313,18.696,12.524z M13.651,12.043c-0.101,0.392-0.275,0.683-0.192,0.824
		c0.179,0.305,0.455,0.584,0.754,0.779c0.408,0.266,0.928,0.875,1.351,0.194c0.419-0.676-0.497-0.638-0.769-0.952
		C14.533,12.584,14.141,12.395,13.651,12.043z M14.778,8.606c0.861,0.139,1.698,0.199,2.596-0.044
		c-0.213-1.047-0.949-0.792-1.526-0.821C15.296,7.713,14.762,7.756,14.778,8.606z M14.294,9.091c-0.221-0.051-0.49-0.207-0.635-0.13
		c-0.587,0.314-1.047,1.491-0.848,2.083c0.041,0.121,0.2,0.247,0.328,0.278c0.133,0.033,0.398-0.006,0.427-0.081
		C13.819,10.567,14.033,9.88,14.294,9.091z"/>
	<path fill-rule="evenodd" clip-rule="evenodd" fill="#EF3F3A" d="M21.234,39.695c-0.302,2.905-2.031,5.035-5.071,5.048
		c-3.331,0.014-5.265-2.168-5.211-5.166c0.057-3.172,2.189-5.104,5.167-5.052C19.276,34.581,20.989,36.729,21.234,39.695z
		 M17.065,39.576c-0.035-0.615-0.417-0.96-1.048-0.942c-0.632,0.018-0.966,0.365-0.968,1.01c-0.003,0.71,0.393,1.067,1.116,1.008
		C16.773,40.602,17.101,40.211,17.065,39.576z M18.229,40.868c-0.539,0.369-1.082,0.713-1.586,1.105
		c-0.119,0.093-0.204,0.393-0.141,0.513c0.082,0.157,0.41,0.367,0.484,0.32c0.576-0.364,1.125-0.772,1.655-1.201
		c0.08-0.065,0.069-0.333,0.005-0.46C18.589,41.029,18.404,40.977,18.229,40.868z M13.68,40.811
		c-0.087,0.205-0.279,0.438-0.254,0.646c0.061,0.514,1.309,1.391,1.834,1.318c0.132-0.019,0.29-0.173,0.35-0.304
		c0.053-0.116,0.045-0.355-0.035-0.422c-0.489-0.408-1.004-0.787-1.518-1.164C13.987,40.835,13.872,40.846,13.68,40.811z
		 M14.213,37.819c0.005,0.006-0.094-0.173-0.246-0.26c-0.105-0.061-0.348-0.053-0.418,0.024c-0.517,0.573-0.856,1.234-0.739,2.031
		c0.022,0.15,0.25,0.362,0.398,0.377c0.163,0.016,0.452-0.129,0.5-0.268C13.897,39.177,14.014,38.604,14.213,37.819z M18.235,37.331
		c-0.627,1.02,0.273,1.705,0.241,2.505c-0.002,0.053,0.289,0.194,0.396,0.157c0.163-0.057,0.387-0.222,0.405-0.362
		C19.387,38.744,19.154,37.979,18.235,37.331z M16.117,37.383c0-0.001,0-0.003,0-0.003c0.211,0,0.438,0.047,0.631-0.014
		c0.205-0.064,0.377-0.232,0.564-0.354c-0.155-0.188-0.29-0.514-0.469-0.54c-0.516-0.074-1.055-0.076-1.572-0.004
		c-0.187,0.025-0.334,0.341-0.5,0.523c0.184,0.131,0.351,0.321,0.555,0.376C15.574,37.434,15.852,37.383,16.117,37.383z"/>
	<path fill-rule="evenodd" clip-rule="evenodd" fill="#FDE4E2" d="M34.835,11.997c-0.552-0.001-1.092-0.449-1.137-0.941
		c-0.05-0.552,0.522-1.104,1.144-1.103c0.66,0.001,1.041,0.334,1.08,0.945C35.966,11.584,35.555,11.999,34.835,11.997z
		 M34.869,11.363c0.144-0.132,0.242-0.222,0.34-0.312c-0.12-0.118-0.241-0.237-0.361-0.355c-0.084,0.102-0.231,0.202-0.234,0.306
		C34.61,11.104,34.754,11.211,34.869,11.363z"/>
	<path fill-rule="evenodd" clip-rule="evenodd" fill="#FDE5E3" d="M32.329,12.139c0.183,0.03,0.296,0.017,0.365,0.066
		c0.52,0.369,1.046,0.732,1.535,1.14c0.115,0.097,0.19,0.403,0.123,0.521c-0.083,0.146-0.421,0.322-0.499,0.268
		c-0.605-0.417-1.19-0.868-1.734-1.361C32.051,12.711,32.255,12.349,32.329,12.139z"/>
	<path fill-rule="evenodd" clip-rule="evenodd" fill="#FDE5E3" d="M38.313,10.657c-0.194,0.268-0.295,0.554-0.484,0.636
		c-0.366,0.158-0.543-0.052-0.644-0.447c-0.115-0.458-0.388-0.875-0.527-1.33c-0.047-0.152,0.067-0.491,0.175-0.524
		c0.189-0.059,0.545-0.023,0.632,0.106C37.785,9.576,38.023,10.107,38.313,10.657z"/>
	<path fill-rule="evenodd" clip-rule="evenodd" fill="#FEEBE8" d="M32.57,8.764c0.141,0.212,0.413,0.436,0.388,0.62
		c-0.075,0.568-0.236,1.131-0.429,1.673c-0.048,0.136-0.349,0.271-0.513,0.25c-0.141-0.018-0.35-0.254-0.36-0.405
		C31.599,10.077,31.752,9.314,32.57,8.764z"/>
	<path fill-rule="evenodd" clip-rule="evenodd" fill="#FEF1EF" d="M36.135,8.702c-0.732,0-1.467,0.013-2.198-0.014
		c-0.109-0.004-0.301-0.192-0.299-0.291c0.005-0.187,0.102-0.518,0.196-0.532c0.573-0.082,1.16-0.146,1.733-0.097
		c0.238,0.02,0.453,0.332,0.678,0.51C36.208,8.42,36.172,8.561,36.135,8.702z"/>
	<path fill-rule="evenodd" clip-rule="evenodd" fill="#FEF0EE" d="M37.194,12.079c0.136,0.32,0.338,0.651,0.287,0.696
		c-0.547,0.48-1.127,0.925-1.72,1.348c-0.052,0.038-0.3-0.11-0.38-0.225c-0.08-0.115-0.137-0.39-0.079-0.435
		C35.876,13.014,36.475,12.597,37.194,12.079z"/>
	<path fill-rule="evenodd" clip-rule="evenodd" fill="#FDE4E2" d="M35.922,39.604c0.021,0.62-0.32,1.005-0.934,1.055
		c-0.578,0.047-1.232-0.435-1.289-0.949c-0.046-0.421,0.646-1.197,1.081-1.213C35.352,38.478,35.903,39.012,35.922,39.604z
		 M34.873,39.277c-0.12,0.145-0.272,0.247-0.269,0.343c0.005,0.11,0.147,0.216,0.23,0.322c0.124-0.116,0.248-0.231,0.372-0.348
		C35.11,39.502,35.013,39.41,34.873,39.277z"/>
	<path fill-rule="evenodd" clip-rule="evenodd" fill="#FDE1DD" d="M32.404,40.685c0.67,0.477,1.254,0.854,1.784,1.298
		c0.13,0.107,0.146,0.444,0.09,0.642c-0.026,0.092-0.417,0.202-0.523,0.13c-0.564-0.387-1.117-0.803-1.607-1.277
		C32.063,41.395,32.303,40.979,32.404,40.685z"/>
	<path fill-rule="evenodd" clip-rule="evenodd" fill="#FDE5E3" d="M38.339,39.429c-0.251,0.245-0.407,0.521-0.595,0.544
		c-0.158,0.021-0.422-0.215-0.519-0.4c-0.221-0.422-0.409-0.871-0.523-1.331c-0.049-0.195,0.085-0.472,0.217-0.652
		c0.042-0.06,0.438,0.008,0.505,0.118C37.75,38.244,38.021,38.815,38.339,39.429z"/>
	<path fill-rule="evenodd" clip-rule="evenodd" fill="#FEF1EF" d="M34.588,36.401c0.341,0,0.448,0.006,0.555-0.001
		c0.46-0.032,1,0.059,1.013,0.54c0.017,0.64-0.61,0.404-0.995,0.433c-0.372,0.027-0.754,0.041-1.12-0.012
		c-0.158-0.023-0.429-0.271-0.407-0.344c0.065-0.216,0.212-0.478,0.399-0.565C34.256,36.348,34.555,36.403,34.588,36.401z"/>
	<path fill-rule="evenodd" clip-rule="evenodd" fill="#FEF0EE" d="M32.601,37.415c0.348,0.844,0.097,2.28-0.404,2.51
		c-0.109,0.051-0.509-0.192-0.523-0.327C31.582,38.761,31.747,37.991,32.601,37.415z"/>
	<path fill-rule="evenodd" clip-rule="evenodd" fill="#FEF0EE" d="M35.742,42.855c-0.174-0.153-0.336-0.236-0.396-0.366
		c-0.057-0.121-0.065-0.365,0.011-0.43c0.321-0.271,0.7-0.472,1.023-0.74c0.337-0.28,0.703-0.663,1.052-0.195
		c0.103,0.138-0.249,0.734-0.517,0.994C36.592,42.435,36.138,42.617,35.742,42.855z"/>
	<path fill-rule="evenodd" clip-rule="evenodd" fill="#FDE7E5" d="M25.514,26.559c-0.521,0.018-1.005-0.459-1.043-1.029
		c-0.049-0.737,0.313-1.171,0.991-1.186c0.65-0.014,0.989,0.303,1.038,0.972C26.548,25.964,26.091,26.54,25.514,26.559z
		 M25.87,25.395c-0.132-0.145-0.222-0.244-0.312-0.343c-0.12,0.121-0.239,0.242-0.358,0.364c0.104,0.084,0.204,0.231,0.311,0.236
		C25.612,25.656,25.719,25.51,25.87,25.395z"/>
	<path fill-rule="evenodd" clip-rule="evenodd" fill="#FDE5E3" d="M25.271,22.08c0.348,0,0.458-0.013,0.563,0.002
		c0.428,0.063,0.963,0.139,0.92,0.671c-0.05,0.634-0.546,0.416-0.972,0.34c-0.299-0.053-0.632,0.107-0.941,0.079
		c-0.216-0.02-0.417-0.198-0.625-0.306c0.12-0.208,0.192-0.503,0.372-0.606C24.851,22.11,25.193,22.098,25.271,22.08z"/>
	<path fill-rule="evenodd" clip-rule="evenodd" fill="#FEF1EF" d="M28.886,25.143c-0.239,0.294-0.425,0.524-0.611,0.754
		c-0.166-0.195-0.384-0.368-0.484-0.592c-0.172-0.384-0.306-0.794-0.383-1.207c-0.039-0.207,0.083-0.443,0.133-0.665
		c0.232,0.07,0.582,0.07,0.677,0.226C28.487,24.101,28.654,24.607,28.886,25.143z"/>
	<path fill-rule="evenodd" clip-rule="evenodd" fill="#FEF1EF" d="M25.129,28.193c-0.215,0.12-0.53,0.399-0.632,0.337
		c-0.572-0.357-1.108-0.78-1.616-1.227c-0.076-0.067,0.023-0.398,0.117-0.565c0.04-0.069,0.319-0.091,0.416-0.025
		c0.529,0.358,1.038,0.746,1.544,1.137C25.031,27.906,25.051,28.03,25.129,28.193z"/>
	<path fill-rule="evenodd" clip-rule="evenodd" fill="#FEF3F1" d="M28.157,26.972c-0.105,0.803-1.313,1.721-1.919,1.52
		c-0.147-0.048-0.32-0.54-0.273-0.579c0.533-0.443,1.093-0.86,1.682-1.225C27.735,26.634,28.013,26.887,28.157,26.972z"/>
	<path fill-rule="evenodd" clip-rule="evenodd" fill="#FFF7F6" d="M22.236,24.802c0.044-0.117,0.088-0.396,0.239-0.592
		c0.233-0.301,0.635-0.819,0.8-0.762c0.566,0.195,0.235,0.638,0.094,1.021c-0.106,0.288-0.071,0.633-0.195,0.908
		c-0.092,0.203-0.34,0.335-0.519,0.499c-0.14-0.204-0.293-0.401-0.411-0.617C22.199,25.177,22.236,25.05,22.236,24.802z"/>
	<path fill-rule="evenodd" clip-rule="evenodd" fill="#FEF5F4" d="M16.08,11.983c-0.66,0.016-0.997-0.287-1.032-0.929
		c-0.035-0.646,0.283-1.035,0.889-1.086c0.695-0.06,1.132,0.337,1.127,1.023C17.059,11.636,16.73,11.968,16.08,11.983z
		 M16.432,10.889c-0.165-0.086-0.293-0.21-0.398-0.193c-0.105,0.017-0.187,0.175-0.279,0.271c0.135,0.104,0.27,0.209,0.405,0.314
		C16.238,11.167,16.318,11.053,16.432,10.889z"/>
	<path fill-rule="evenodd" clip-rule="evenodd" fill="#FDE5E3" d="M19.46,10.568c-0.215,0.309-0.375,0.538-0.534,0.767
		c-0.201-0.191-0.477-0.348-0.587-0.583c-0.2-0.427-0.331-0.895-0.429-1.359c-0.032-0.152,0.081-0.43,0.207-0.495
		c0.134-0.069,0.467-0.017,0.534,0.092C18.946,9.477,19.179,10.003,19.46,10.568z"/>
	<path fill-rule="evenodd" clip-rule="evenodd" fill="#FDE7E5" d="M18.696,12.524c-0.037,0.789-1.267,1.748-1.879,1.583
		c-0.137-0.037-0.288-0.186-0.342-0.32c-0.046-0.114-0.013-0.349,0.073-0.412c0.516-0.383,1.041-0.76,1.601-1.071
		C18.266,12.239,18.542,12.458,18.696,12.524z"/>
	<path fill-rule="evenodd" clip-rule="evenodd" fill="#FDE4E2" d="M13.651,12.043c0.49,0.352,0.882,0.542,1.143,0.845
		c0.272,0.314,1.188,0.276,0.769,0.952c-0.423,0.681-0.942,0.072-1.351-0.194c-0.299-0.195-0.575-0.474-0.754-0.779
		C13.376,12.726,13.55,12.435,13.651,12.043z"/>
	<path fill-rule="evenodd" clip-rule="evenodd" fill="#FFFBFA" d="M14.778,8.606c-0.017-0.85,0.518-0.893,1.07-0.866
		c0.577,0.029,1.313-0.226,1.526,0.821C16.477,8.805,15.639,8.745,14.778,8.606z"/>
	<path fill-rule="evenodd" clip-rule="evenodd" fill="#FEEEEC" d="M14.294,9.091c-0.261,0.789-0.475,1.477-0.728,2.15
		c-0.028,0.075-0.293,0.114-0.427,0.081c-0.127-0.031-0.287-0.158-0.328-0.278c-0.199-0.592,0.261-1.769,0.848-2.083
		C13.804,8.884,14.073,9.04,14.294,9.091z"/>
	<path fill-rule="evenodd" clip-rule="evenodd" fill="#FEF5F4" d="M17.065,39.576c0.036,0.635-0.292,1.025-0.901,1.075
		c-0.723,0.06-1.119-0.298-1.116-1.008c0.002-0.645,0.336-0.992,0.968-1.01C16.647,38.616,17.03,38.961,17.065,39.576z
		 M16.434,39.557c-0.166-0.086-0.294-0.209-0.4-0.191c-0.105,0.017-0.188,0.175-0.28,0.271c0.134,0.104,0.269,0.209,0.404,0.313
		C16.238,39.835,16.318,39.722,16.434,39.557z"/>
	<path fill-rule="evenodd" clip-rule="evenodd" fill="#FDE3E0" d="M18.229,40.868c0.174,0.108,0.359,0.161,0.417,0.277
		c0.063,0.127,0.075,0.395-0.005,0.46c-0.53,0.429-1.08,0.837-1.655,1.201c-0.074,0.047-0.403-0.163-0.484-0.32
		c-0.063-0.12,0.022-0.42,0.141-0.513C17.148,41.581,17.69,41.237,18.229,40.868z"/>
	<path fill-rule="evenodd" clip-rule="evenodd" fill="#FDE4E2" d="M13.68,40.811c0.192,0.035,0.307,0.024,0.376,0.075
		c0.514,0.377,1.029,0.756,1.518,1.164c0.08,0.066,0.088,0.306,0.035,0.422c-0.06,0.131-0.217,0.285-0.35,0.304
		c-0.525,0.072-1.773-0.805-1.834-1.318C13.401,41.249,13.593,41.016,13.68,40.811z"/>
	<path fill-rule="evenodd" clip-rule="evenodd" fill="#FEEEEC" d="M14.213,37.819c-0.199,0.784-0.316,1.357-0.505,1.905
		c-0.048,0.139-0.336,0.283-0.5,0.268c-0.149-0.015-0.376-0.227-0.398-0.377c-0.118-0.797,0.222-1.458,0.739-2.031
		c0.07-0.077,0.313-0.085,0.418-0.024C14.119,37.646,14.219,37.825,14.213,37.819z"/>
	<path fill-rule="evenodd" clip-rule="evenodd" fill="#FDE5E3" d="M18.235,37.331c0.918,0.647,1.151,1.413,1.042,2.3
		c-0.018,0.141-0.242,0.306-0.405,0.362c-0.107,0.037-0.398-0.104-0.396-0.157C18.509,39.036,17.608,38.351,18.235,37.331z"/>
	<path fill-rule="evenodd" clip-rule="evenodd" fill="#FFF9F9" d="M16.117,37.383c-0.265,0-0.543,0.051-0.79-0.016
		c-0.204-0.055-0.372-0.245-0.555-0.376c0.166-0.183,0.313-0.498,0.5-0.523c0.517-0.072,1.056-0.07,1.572,0.004
		c0.179,0.026,0.314,0.352,0.469,0.54c-0.187,0.122-0.359,0.29-0.564,0.354c-0.192,0.061-0.419,0.014-0.631,0.014
		C16.117,37.38,16.117,37.382,16.117,37.383z"/>
	<path fill-rule="evenodd" clip-rule="evenodd" fill="#EF3A38" d="M34.869,11.363c-0.115-0.152-0.259-0.258-0.256-0.36
		c0.003-0.104,0.15-0.204,0.234-0.306c0.12,0.118,0.241,0.237,0.361,0.355C35.111,11.141,35.013,11.231,34.869,11.363z"/>
	<path fill-rule="evenodd" clip-rule="evenodd" fill="#EF3A38" d="M34.873,39.277c0.14,0.133,0.237,0.225,0.334,0.317
		c-0.124,0.116-0.248,0.231-0.372,0.348c-0.083-0.106-0.226-0.212-0.23-0.322C34.601,39.524,34.753,39.422,34.873,39.277z"/>
	<path fill-rule="evenodd" clip-rule="evenodd" fill="#EF3A38" d="M25.87,25.395c-0.151,0.115-0.258,0.261-0.359,0.256
		c-0.107-0.004-0.208-0.151-0.311-0.236c0.119-0.122,0.239-0.243,0.358-0.364C25.648,25.151,25.738,25.25,25.87,25.395z"/>
	<path fill-rule="evenodd" clip-rule="evenodd" fill="#EF3834" d="M16.432,10.889c-0.114,0.165-0.194,0.278-0.273,0.392
		c-0.135-0.104-0.27-0.209-0.405-0.314c0.092-0.096,0.174-0.254,0.279-0.271C16.139,10.679,16.267,10.802,16.432,10.889z"/>
	<path fill-rule="evenodd" clip-rule="evenodd" fill="#EF3834" d="M16.434,39.557c-0.116,0.165-0.196,0.278-0.276,0.393
		c-0.135-0.104-0.27-0.209-0.404-0.313c0.092-0.096,0.174-0.254,0.28-0.271C16.139,39.348,16.268,39.471,16.434,39.557z"/>
</g>
</svg>
