<?xml version="1.0" encoding="utf-8"?>
<!-- Generator: Adobe Illustrator 16.0.0, SVG Export Plug-In . SVG Version: 6.00 Build 0)  -->
<!DOCTYPE svg PUBLIC "-//W3C//DTD SVG 1.1//EN" "http://www.w3.org/Graphics/SVG/1.1/DTD/svg11.dtd">
<svg version="1.1" id="Layer_1" xmlns="http://www.w3.org/2000/svg" xmlns:xlink="http://www.w3.org/1999/xlink" x="0px" y="0px"
	 width="50px" height="50px" viewBox="0 0 50 50" enable-background="new 0 0 50 50" xml:space="preserve">
<g>
	<path fill-rule="evenodd" clip-rule="evenodd" fill="#EC5856" d="M17.017,41.575c-0.347-1.181-0.628-2.146-0.914-3.112
		c-0.101-0.341-0.316-0.688-0.286-1.016c0.034-0.361,0.218-0.786,0.481-1.016c0.117-0.103,0.682,0.123,0.882,0.345
		c0.294,0.326,0.483,0.767,0.646,1.187c0.457,1.175,0.878,2.363,1.291,3.483c0.978-0.063,1.835-0.127,2.693-0.169
		c1.22-0.061,1.25-0.083,1.271-1.358c0.005-0.303,0-0.605,0-0.936c-0.785-0.366-1.402,0.095-2.159,0.218
		c0,0.354,0.002,0.652,0,0.951c-0.004,0.396-0.265,0.583-0.595,0.497c-0.238-0.063-0.495-0.278-0.617-0.496
		c-0.143-0.254-0.174-0.582-0.209-0.884c-0.261-2.275-0.55-4.548-0.746-6.829c-0.101-1.179,0.105-1.385,1.274-1.353
		c3.189,0.088,6.267-0.585,9.345-1.276c0.099-0.022,0.185-0.096,0.282-0.12c2.666-0.658,3.059-0.36,2.966,2.3
		c-0.083,2.401-0.196,4.802-0.284,7.202c-0.014,0.346,0.035,0.692,0.049,0.911c1.464,0.086,2.826,0.095,4.169,0.262
		c1.828,0.229,3.138,2.58,2.403,4.304c-0.482,1.13-1.038,2.136-2.588,2.241c-1.396,0.095-2.773,0.551-4.145,0.905
		c-2.861,0.741-5.324-0.039-7.615-1.964c-0.872,0.706-1.94,0.721-3.019,0.662c-0.589-0.031-1.035-0.003-1.323,0.703
		c-0.286,0.703-0.561,0.648-1.161,0.171c-0.735-0.584-0.96-1.412-1.19-2.243c-0.407-1.474-0.426-1.465-1.862-1.69
		c-0.996-0.157-1.978-0.412-2.963-0.633c-0.196-0.044-0.384-0.126-0.571-0.2c-0.44-0.173-0.919-0.378-0.815-0.948
		c0.125-0.686,0.717-0.433,1.13-0.404c1.067,0.073,2.129,0.204,3.195,0.303C16.279,41.595,16.529,41.575,17.017,41.575z
		 M32.364,41.766c0,0.698-0.022,1.401,0.008,2.103c0.021,0.471-0.104,0.81-0.595,0.897c-1.107,0.198-2.225,0.629-3.282-0.224
		c-0.191-0.154-0.593-0.177-0.846-0.097c-0.498,0.155-0.96,0.426-1.528,0.69c1.404,1.278,2.781,1.803,4.525,0.999
		c0.712-0.327,1.561-0.346,2.336-0.549c0.629-0.165,1.27-0.333,1.852-0.612c0.656-0.315,0.875-0.975,0.877-1.66
		c0.002-0.689-0.454-1.096-1.045-1.356C33.958,41.645,33.233,41.483,32.364,41.766z M25.926,33.552c0.705,0,1.312,0.037,1.914-0.01
		c0.604-0.047,1.171-0.978,1.025-1.598c-0.111-0.476-0.52-0.63-1.272-0.467c-0.536,0.117-1.069,0.248-1.667,0.387
		C25.926,32.36,25.926,32.858,25.926,33.552z M26.204,38.555c0,0.646-0.008,1.104,0.005,1.564c0.004,0.144,0.061,0.285,0.09,0.413
		c1.879,0.353,2.669,0.349,2.092-2.039c-0.437,0-0.891-0.006-1.344,0.003C26.803,38.5,26.559,38.528,26.204,38.555z M23.276,35.387
		c-0.707,0.056-1.338,0.009-1.898,0.188c-0.286,0.091-0.577,0.572-0.613,0.904c-0.025,0.232,0.33,0.668,0.594,0.745
		C22.767,37.637,23.377,37.089,23.276,35.387z M23.345,33.899c0-0.656,0-1.182,0-1.749c-0.945,0.104-1.815,0.199-2.667,0.292
		c-0.027,1.483-0.027,1.48,1.251,1.458C22.373,33.893,22.817,33.899,23.345,33.899z M26.207,36.779
		c0.646-0.049,1.197-0.077,1.747-0.135c0.61-0.063,0.665-0.51,0.662-0.999c-0.003-0.491-0.298-0.567-0.702-0.556
		c-0.547,0.016-1.096,0.004-1.707,0.004C26.207,35.723,26.207,36.21,26.207,36.779z M20.423,44.838
		c0.907-0.189,1.649-0.316,2.37-0.521c0.135-0.038,0.285-0.417,0.24-0.591c-0.048-0.188-0.319-0.457-0.487-0.453
		c-0.702,0.018-1.4,0.132-2.102,0.195c-0.414,0.038-0.522,0.32-0.438,0.632C20.083,44.379,20.295,44.622,20.423,44.838z
		 M28.383,42.232c-0.686,0.123-1.191,0.16-1.648,0.331c-0.131,0.049-0.119,0.482-0.174,0.739c0.533,0.019,1.082,0.108,1.591,0.006
		C28.285,43.281,28.299,42.658,28.383,42.232z"/>
	<path fill-rule="evenodd" clip-rule="evenodd" fill="#111010" d="M10.487,17.927c0.171-0.849,0.698-1.224,1.257-1.609
		c2.02-1.394,4.044-2.783,6.012-4.247c0.816-0.607,1.549-1.351,2.221-2.12c0.631-0.722,0.919-1.539,0.34-2.521
		c-0.761-1.291,0.24-2.55,1.128-3.122c0.413-0.265,0.788-0.219,1.08,0.125c1.135,1.337,2.634,1.292,4.069,0.892
		c1.308-0.364,2.519-1.068,3.782-1.596c1.354-0.565,2.705-1.14,4.084-1.637c1.406-0.507,2.707,0.149,3.993,0.57
		c0.712,0.233,0.892,1.035,0.59,1.825c-0.294,0.772-1.059,1.281-1.765,1.137c-0.296-0.061-0.573-0.207-0.861-0.307
		c-1.285-0.444-2.58-0.641-3.904-0.161c-0.095,0.034-0.205,0.023-0.303,0.05c-2.224,0.621-4.603,1.067-4.5,4.098
		c1.074-0.101,2.295-0.718,3.025-1.667c0.391-0.507,0.834-0.743,1.459-0.498c0.51,0.201,0.773,0.517,0.784,1.13
		c0.038,1.995,0.146,3.988,0.231,6.088c1.17,0.214,2.508,0.449,3.842,0.709c0.396,0.077,0.792,0.194,1.167,0.344
		c1.188,0.477,1.436,0.885,1.226,1.94c-0.146,0.737-0.695,1.19-1.75,1.088c-1.514-0.147-3.012-0.47-4.516-0.725
		c-0.3-0.051-0.594-0.179-0.893-0.187c-0.836-0.022-1.813,0.576-2.369-0.582c-1.274-0.092-2.551-0.269-3.822-0.246
		c-0.744,0.014-1.493,0.309-2.218,0.545c-0.737,0.24-1.276,0.665-1.621,1.457c-0.563,1.292-1.123,1.357-2.23,0.475
		c-0.16-0.128-0.311-0.27-0.453-0.417c-0.9-0.936-0.958-1.255-0.337-2.411c0.708-1.319,0.707-1.318,0.703-2.202
		c-2.238,1.626-4.757,2.574-7.2,3.673C12.046,18.131,11.324,18.422,10.487,17.927z M30.422,10.531
		c-4.628,1.085-3.658,0.617-4.641,4.21c-0.021,0.076-0.002,0.163-0.002,0.385c1.569-0.216,3.099-0.427,4.644-0.641
		C30.422,13.065,30.422,11.805,30.422,10.531z M22.422,10.849c1.959,0.399,2.418,0.132,2.817-1.55
		c0.094-0.394,0.192-0.787,0.269-1.184c0.105-0.541-0.042-1.012-0.462-1.376c-0.434-0.376-0.896-0.417-1.399-0.084
		c0.01,0.214,0.028,0.416,0.028,0.617c-0.001,0.921,0.322,1.925-0.867,2.486C22.566,9.872,22.548,10.463,22.422,10.849z
		 M24.13,12.531c-0.859-0.055-1.495-0.064-2.12-0.146c-0.486-0.064-0.741,0.201-0.645,0.568c0.272,1.036,0.647,2.045,0.981,3.064
		c0.108,0,0.215,0,0.323-0.001C23.145,14.881,23.621,13.747,24.13,12.531z"/>
	<path fill-rule="evenodd" clip-rule="evenodd" fill="#ED5A58" d="M23.542,27.897c-0.226-0.319-0.335-0.538-0.502-0.696
		c-0.4-0.385-0.41-0.832-0.181-1.264c0.382-0.719,0.807-1.417,1.244-2.105c0.24-0.377,0.609-0.593,1.05-0.352
		c0.426,0.233,0.695,0.543,0.42,1.11c-0.427,0.881-0.208,1.774,0.082,2.65c1.167,0.18,1.169,0.18,1.493-0.787
		c0.194-0.577,0.297-1.203,0.591-1.721c0.399-0.704,0.089-1.127-0.357-1.606c-1.389-1.49-1.382-1.497,0.021-2.894
		c1.23-1.226,1.285-1.215,2.133,0.316c0.295,0.534,0.617,1.054,0.911,1.589c0.534,0.974,0.485,1.126-0.202,2.026
		c-0.474,0.621-1.195,1.166-0.918,2.181c2.42-0.707,4.851-1.135,7.347-1.103c0.951,0.013,1.631,0.315,1.689,0.753
		c0.068,0.505-0.692,1.058-1.615,1.101c-3.624,0.169-7.138,0.928-10.63,1.858c-2.972,0.792-5.992,1.16-9.073,0.653
		c-0.651-0.107-1.333-0.016-1.998-0.066c-0.877-0.067-1.71-0.279-2.352-0.951c-0.638-0.668-0.509-1.186,0.397-1.418
		c0.338-0.088,0.716-0.099,1.064-0.055c1.967,0.244,3.927,0.566,5.899,0.761C21.149,27.986,22.261,27.897,23.542,27.897z"/>
</g>
</svg>
