<?xml version="1.0" encoding="utf-8"?>
<!-- Generator: Adobe Illustrator 16.0.0, SVG Export Plug-In . SVG Version: 6.00 Build 0)  -->
<!DOCTYPE svg PUBLIC "-//W3C//DTD SVG 1.1//EN" "http://www.w3.org/Graphics/SVG/1.1/DTD/svg11.dtd">
<svg version="1.1" id="Layer_1" xmlns="http://www.w3.org/2000/svg" xmlns:xlink="http://www.w3.org/1999/xlink" x="0px" y="0px"
	 width="50px" height="50px" viewBox="0 0 50 50" enable-background="new 0 0 50 50" xml:space="preserve">
<g>
	<path fill-rule="evenodd" clip-rule="evenodd" fill="#226A36" d="M40.472,29.518c-0.252,0.481-0.371,0.96-0.676,1.232
		c-0.492,0.44-0.709,0.899-0.626,1.547c0.046,0.361,0.039,0.736,0.001,1.099c-0.072,0.691,0.104,1.192,0.731,1.616
		c1.237,0.836,1.415,2.627,0.021,3.578c-0.697,0.477-0.782,1.041-0.749,1.751c0.021,0.457,0.005,0.916,0.004,1.375
		c0,0.988-0.141,1.937,0.92,2.665c0.741,0.51,0.625,1.341-0.009,2.047c-0.727,0.81-1.656,1.176-2.712,0.896
		c-0.784-0.207-1.497-0.198-2.275,0.026c-0.891,0.258-1.727-0.084-2.433-0.621c-0.896-0.682-0.936-2.031,0.022-2.701
		c0.653-0.457,0.72-0.958,0.703-1.615c-0.021-0.87-0.02-1.741,0.001-2.611c0.01-0.407-0.101-0.713-0.478-0.899
		c-0.122-0.061-0.242-0.13-0.349-0.214c-1.226-0.974-1.41-2.657-0.07-3.613c0.812-0.579,0.983-1.202,0.895-2.062
		c-0.028-0.272-0.021-0.551-0.001-0.824c0.036-0.487-0.123-0.819-0.505-1.18c-1.295-1.224-1.032-2.462,0.635-3.154
		c0.704-0.293,1.444-0.501,2.17-0.743c0.085-0.028,0.184-0.046,0.271-0.034c1.302,0.183,2.6,0.434,3.694,1.192
		C40.02,28.521,40.184,29.058,40.472,29.518z M35.426,29.887c0.059,0.849,0.131,1.696,0.17,2.546
		c0.027,0.591-0.029,1.188,0.034,1.772c0.022,0.203,0.295,0.531,0.454,0.532c0.261,0.002,0.552-0.183,0.771-0.36
		c0.106-0.086,0.098-0.334,0.113-0.51c0.113-1.3-0.215-2.619,0.254-3.911c0.14-0.383-0.49-0.938-0.949-0.967
		C35.711,28.954,35.336,29.311,35.426,29.887z M36.972,42.239c0-0.686-0.002-1.371,0.001-2.057c0.002-0.497-0.116-0.925-0.692-1.002
		c-0.415-0.057-0.664,0.287-0.674,0.965c-0.019,1.142-0.006,2.284-0.005,3.427c0,0.41-0.064,0.838,0.027,1.228
		c0.061,0.256,0.331,0.619,0.538,0.642c0.219,0.022,0.544-0.259,0.691-0.49c0.131-0.205,0.104-0.524,0.109-0.793
		C36.98,43.519,36.972,42.879,36.972,42.239z M36.614,35.245c-0.945,0.012-1.515,0.149-1.789,0.768
		c-0.072,0.163-0.009,0.441,0.093,0.604c0.061,0.098,0.381,0.161,0.474,0.092c0.606-0.455,1.161-0.288,1.761,0.018
		c0.136,0.069,0.487-0.059,0.582-0.2c0.094-0.142,0.07-0.521-0.045-0.611C37.284,35.601,36.816,35.366,36.614,35.245z M37.81,38.157
		c-0.065-0.539-0.67-0.947-1.44-0.975c-0.842-0.029-1.491,0.348-1.606,0.934c-0.068,0.35,0.253,0.709,0.547,0.534
		c0.664-0.394,1.239-0.293,1.895,0.007C37.498,38.792,37.828,38.595,37.81,38.157z"/>
	<path fill-rule="evenodd" clip-rule="evenodd" fill="#246B37" d="M18.557,36.752c0.031,0.938-0.474,1.539-1.111,1.998
		c-0.47,0.338-0.642,0.703-0.606,1.262c0.043,0.685,0.042,1.376,0.002,2.061c-0.049,0.849,0.049,1.538,0.807,2.155
		c0.838,0.682,0.752,1.614-0.038,2.367c-0.742,0.707-1.662,1.005-2.647,0.731c-0.691-0.191-1.339-0.258-2.006-0.024
		c-0.914,0.318-1.725-0.001-2.466-0.455c-1.026-0.63-1.161-2.099-0.168-2.787c0.702-0.486,0.78-1.026,0.749-1.729
		c-0.022-0.503-0.03-1.01,0.001-1.512c0.058-0.936-0.03-1.67-0.957-2.324c-1.188-0.839-1.346-2.386,0.024-3.36
		c1.446-1.028,0.801-2.349,0.854-3.578c0.009-0.223-0.397-0.461-0.609-0.694c-0.99-1.082-0.817-2.256,0.525-2.886
		c0.85-0.399,1.783-0.635,2.694-0.884c0.289-0.079,0.639-0.008,0.944,0.066c0.612,0.15,1.221,0.325,1.814,0.537
		c0.339,0.12,0.687,0.285,0.958,0.516c0.888,0.75,0.967,1.939,0.203,2.499c-0.673,0.493-0.701,1.112-0.675,1.811
		c0.014,0.366,0.032,0.736-0.004,1.1c-0.055,0.554,0.14,0.91,0.591,1.271C18.395,35.659,18.563,36.051,18.557,36.752z
		 M13.164,29.883c0.036,1.213,0.073,2.426,0.109,3.639c0.007,0.228,0.007,0.455,0.021,0.682c0.022,0.371,0.208,0.651,0.592,0.555
		c0.262-0.066,0.511-0.285,0.7-0.495c0.097-0.108,0.05-0.347,0.066-0.526c0.107-1.257-0.214-2.532,0.241-3.782
		c0.147-0.405-0.448-0.935-0.937-0.966C13.391,28.952,13.017,29.304,13.164,29.883z M13.274,42.304c0,0.772,0.005,1.546-0.002,2.318
		c-0.003,0.402,0.126,0.771,0.53,0.839c0.509,0.087,0.8-0.363,0.81-0.739c0.042-1.633,0.022-3.268-0.036-4.899
		c-0.012-0.332-0.248-0.717-0.729-0.639c-0.442,0.071-0.568,0.408-0.572,0.802C13.268,40.758,13.273,41.53,13.274,42.304z
		 M13.943,36.938c-0.522,0.337-1.01,0.618-1.447,0.964c-0.096,0.076-0.082,0.434,0.013,0.571c0.095,0.137,0.442,0.276,0.527,0.212
		c0.593-0.445,1.125-0.463,1.724,0.003c0.105,0.081,0.509-0.094,0.665-0.257c0.095-0.098,0.056-0.501-0.06-0.592
		C14.957,37.519,14.489,37.272,13.943,36.938z M13.921,35.025c-0.488,0.314-0.982,0.597-1.424,0.945
		c-0.097,0.076-0.083,0.438,0.014,0.575c0.095,0.136,0.455,0.268,0.533,0.202c0.598-0.495,1.15-0.382,1.76-0.025
		c0.128,0.075,0.543-0.06,0.586-0.183c0.074-0.209,0.046-0.595-0.097-0.711C14.921,35.526,14.462,35.33,13.921,35.025z"/>
	<path fill-rule="evenodd" clip-rule="evenodd" fill="#226A37" d="M26.363,24.391c-0.975-0.374-2.095-0.06-3.216-0.046
		c-0.523,0.007-1.097-0.126-1.563-0.363c-0.938-0.474-1.598-1.717-0.371-2.808c0.57-0.506,0.706-0.974,0.687-1.638
		c-0.026-0.915-0.021-1.831,0-2.746c0.01-0.402-0.131-0.628-0.462-0.886c-1.686-1.309-1.7-2.713-0.045-4.004
		c0.369-0.288,0.531-0.574,0.507-1.026c-0.027-0.502-0.017-1.006-0.003-1.51c0.014-0.559-0.071-0.997-0.547-1.442
		c-1.018-0.951-0.799-2.268,0.496-2.895c0.837-0.405,1.783-0.659,2.707-0.792c1.254-0.181,2.418,0.388,3.491,0.921
		c1.185,0.589,1.275,1.966,0.225,2.82c-0.516,0.42-0.614,0.833-0.594,1.396c0.016,0.411,0.035,0.827-0.005,1.234
		c-0.055,0.559,0.099,0.983,0.61,1.254c0.12,0.063,0.245,0.133,0.34,0.229c1.223,1.224,1.256,2.502-0.122,3.614
		c-0.615,0.498-0.896,0.942-0.828,1.693c0.045,0.5,0.037,1.008,0.002,1.509c-0.067,0.94,0.069,1.687,0.903,2.381
		c1.086,0.903,0.388,2.653-1.108,3.005C27.157,24.367,26.829,24.353,26.363,24.391z M25.461,19.48c-0.001,0-0.002,0-0.004,0
		c0-0.864,0-1.727,0-2.59c0-0.384-0.195-0.648-0.572-0.566c-0.265,0.057-0.522,0.268-0.718,0.472
		c-0.099,0.103-0.07,0.344-0.071,0.522c-0.005,1.363-0.005,2.727,0,4.09c0,0.179-0.007,0.376,0.063,0.532
		c0.148,0.331,0.335,0.634,0.799,0.536c0.382-0.082,0.512-0.31,0.507-0.677C25.454,21.025,25.461,20.252,25.461,19.48z
		 M25.731,7.163c0.074-0.625-0.198-0.993-0.776-1.051c-0.611-0.062-1.262,0.406-1.091,0.905c0.431,1.262,0.106,2.538,0.243,3.796
		c0.032,0.298,0.151,0.621,0.328,0.859c0.289,0.39,0.822,0.284,0.958-0.187c0.087-0.298,0.055-0.63,0.076-0.948
		C25.544,9.412,25.268,8.258,25.731,7.163z M24.833,12.029c-0.515,0.341-0.97,0.604-1.372,0.932
		c-0.117,0.096-0.176,0.472-0.093,0.558c0.158,0.166,0.537,0.365,0.649,0.29c0.571-0.383,1.068-0.625,1.643,0.004
		c0.065,0.073,0.539-0.076,0.651-0.24c0.102-0.149,0.058-0.568-0.077-0.677C25.834,12.572,25.358,12.342,24.833,12.029z
		 M26.456,15.162c-0.049-0.083-0.121-0.249-0.231-0.381c-0.723-0.862-1.942-0.864-2.698,0.024c-0.135,0.16-0.211,0.497-0.138,0.68
		c0.137,0.34,0.523,0.432,0.79,0.203c0.497-0.427,0.875-0.424,1.39,0.002C25.908,15.972,26.471,15.634,26.456,15.162z"/>
	<path fill-rule="evenodd" clip-rule="evenodd" fill="#F2F8F1" d="M35.426,29.887c-0.09-0.576,0.285-0.933,0.848-0.897
		c0.459,0.028,1.089,0.584,0.949,0.967c-0.469,1.292-0.141,2.611-0.254,3.911c-0.016,0.176-0.007,0.424-0.113,0.51
		c-0.22,0.178-0.511,0.362-0.771,0.36c-0.159-0.001-0.432-0.329-0.454-0.532c-0.063-0.585-0.007-1.182-0.034-1.772
		C35.557,31.583,35.484,30.735,35.426,29.887z"/>
	<path fill-rule="evenodd" clip-rule="evenodd" fill="#F2F8F1" d="M36.972,42.239c0,0.64,0.009,1.279-0.004,1.919
		c-0.005,0.269,0.021,0.588-0.109,0.793c-0.147,0.231-0.473,0.513-0.691,0.49c-0.207-0.022-0.478-0.386-0.538-0.642
		c-0.092-0.39-0.027-0.817-0.027-1.228c-0.001-1.143-0.014-2.285,0.005-3.427c0.01-0.678,0.259-1.021,0.674-0.965
		c0.576,0.077,0.694,0.505,0.692,1.002C36.97,40.868,36.972,41.554,36.972,42.239z"/>
	<path fill-rule="evenodd" clip-rule="evenodd" fill="#F9FCF8" d="M36.614,35.245c0.202,0.121,0.67,0.355,1.075,0.67
		c0.115,0.09,0.139,0.47,0.045,0.611c-0.095,0.142-0.446,0.27-0.582,0.2c-0.6-0.306-1.154-0.473-1.761-0.018
		c-0.093,0.069-0.413,0.006-0.474-0.092c-0.102-0.163-0.165-0.441-0.093-0.604C35.1,35.395,35.669,35.257,36.614,35.245z"/>
	<path fill-rule="evenodd" clip-rule="evenodd" fill="#F9FCF8" d="M37.81,38.157c0.019,0.438-0.312,0.635-0.605,0.5
		c-0.655-0.3-1.23-0.4-1.895-0.007c-0.294,0.175-0.615-0.185-0.547-0.534c0.115-0.586,0.765-0.963,1.606-0.934
		C37.14,37.21,37.744,37.618,37.81,38.157z"/>
	<path fill-rule="evenodd" clip-rule="evenodd" fill="#EDF5EC" d="M13.164,29.883c-0.147-0.579,0.227-0.931,0.792-0.895
		c0.489,0.031,1.084,0.561,0.937,0.966c-0.455,1.25-0.133,2.525-0.241,3.782c-0.016,0.18,0.031,0.418-0.066,0.526
		c-0.189,0.21-0.438,0.429-0.7,0.495c-0.384,0.097-0.569-0.184-0.592-0.555c-0.014-0.227-0.014-0.454-0.021-0.682
		C13.236,32.309,13.2,31.096,13.164,29.883z"/>
	<path fill-rule="evenodd" clip-rule="evenodd" fill="#ECF5EB" d="M13.274,42.304c0-0.773-0.006-1.546,0.001-2.318
		c0.004-0.394,0.13-0.73,0.572-0.802c0.481-0.078,0.717,0.307,0.729,0.639c0.058,1.632,0.079,3.267,0.036,4.899
		c-0.01,0.376-0.301,0.826-0.81,0.739c-0.404-0.068-0.534-0.437-0.53-0.839C13.279,43.85,13.274,43.076,13.274,42.304z"/>
	<path fill-rule="evenodd" clip-rule="evenodd" fill="#F0F6EF" d="M13.943,36.938c0.546,0.335,1.014,0.581,1.422,0.901
		c0.116,0.091,0.155,0.494,0.06,0.592c-0.156,0.163-0.56,0.338-0.665,0.257c-0.6-0.466-1.131-0.448-1.724-0.003
		c-0.085,0.064-0.433-0.075-0.527-0.212c-0.095-0.138-0.109-0.495-0.013-0.571C12.933,37.556,13.421,37.274,13.943,36.938z"/>
	<path fill-rule="evenodd" clip-rule="evenodd" fill="#F2F8F1" d="M13.921,35.025c0.541,0.305,1,0.501,1.373,0.804
		c0.144,0.116,0.171,0.502,0.097,0.711c-0.043,0.123-0.458,0.258-0.586,0.183c-0.61-0.356-1.162-0.47-1.76,0.025
		c-0.079,0.065-0.438-0.066-0.533-0.202c-0.097-0.137-0.111-0.499-0.014-0.575C12.939,35.622,13.434,35.34,13.921,35.025z"/>
	<path fill-rule="evenodd" clip-rule="evenodd" fill="#EFF7EE" d="M25.461,19.48c0,0.772-0.007,1.545,0.003,2.317
		c0.005,0.368-0.125,0.596-0.507,0.677c-0.464,0.099-0.651-0.205-0.799-0.536c-0.069-0.156-0.062-0.354-0.063-0.532
		c-0.004-1.363-0.004-2.727,0-4.09c0-0.178-0.028-0.419,0.071-0.522c0.196-0.204,0.453-0.415,0.718-0.472
		c0.377-0.082,0.572,0.183,0.572,0.566c0,0.863,0,1.727,0,2.59C25.458,19.48,25.46,19.48,25.461,19.48z"/>
	<path fill-rule="evenodd" clip-rule="evenodd" fill="#F1F8F0" d="M25.731,7.163c-0.463,1.096-0.187,2.249-0.263,3.375
		c-0.021,0.317,0.011,0.65-0.076,0.948c-0.136,0.47-0.669,0.577-0.958,0.187c-0.177-0.239-0.296-0.562-0.328-0.859
		c-0.136-1.258,0.188-2.535-0.243-3.796c-0.171-0.499,0.479-0.966,1.091-0.905C25.533,6.169,25.805,6.537,25.731,7.163z"/>
	<path fill-rule="evenodd" clip-rule="evenodd" fill="#F1F8F0" d="M24.833,12.029c0.524,0.313,1.001,0.543,1.401,0.867
		c0.135,0.108,0.179,0.527,0.077,0.677c-0.112,0.164-0.585,0.313-0.651,0.24c-0.574-0.629-1.072-0.387-1.643-0.004
		c-0.112,0.075-0.491-0.124-0.649-0.29c-0.083-0.086-0.024-0.462,0.093-0.558C23.863,12.632,24.319,12.37,24.833,12.029z"/>
	<path fill-rule="evenodd" clip-rule="evenodd" fill="#F1F8F0" d="M26.456,15.162c0.015,0.473-0.548,0.81-0.888,0.529
		c-0.516-0.426-0.893-0.43-1.39-0.002c-0.266,0.229-0.652,0.137-0.79-0.203c-0.074-0.184,0.002-0.521,0.138-0.68
		c0.756-0.888,1.975-0.887,2.698-0.024C26.335,14.913,26.407,15.079,26.456,15.162z"/>
</g>
</svg>
