<?xml version="1.0" encoding="utf-8"?>
<!-- Generator: Adobe Illustrator 16.0.0, SVG Export Plug-In . SVG Version: 6.00 Build 0)  -->
<!DOCTYPE svg PUBLIC "-//W3C//DTD SVG 1.1//EN" "http://www.w3.org/Graphics/SVG/1.1/DTD/svg11.dtd">
<svg version="1.1" id="Layer_1" xmlns="http://www.w3.org/2000/svg" xmlns:xlink="http://www.w3.org/1999/xlink" x="0px" y="0px"
	 width="50px" height="50px" viewBox="0 0 50 50" enable-background="new 0 0 50 50" xml:space="preserve">
<g>
	<path fill-rule="evenodd" clip-rule="evenodd" fill="#3C4FA2" d="M27.36,27.175c-0.959,0.629-1.692,1.177-2.487,1.615
		c-1.272,0.702-2.045,1.574-1.887,3.186c0.101,1.026-0.311,2.019-1.375,2.576c-1.088-0.401-0.615-1.714-1.438-2.46
		c-1.36,1.372-2.649,2.827-4.101,4.095c-1.532,1.337-3.185,2.546-4.855,3.71c-0.828,0.578-1.674,0.286-2.566-0.609
		c-0.901-0.905-1.089-1.661-0.501-2.582c0.549-0.858,1.189-1.659,1.814-2.466c2.11-2.726,3.242-5.875,4.018-9.182
		c0.073-0.311,0.178-0.613,0.254-0.924c0.258-1.059,0.188-1.102-0.744-1.805c-0.854-0.645-1.686-1.34-2.42-2.115
		c-0.62-0.654-0.365-1.249,0.543-1.282c0.793-0.029,1.676-0.024,2.374,0.29c1.03,0.464,1.582,0.054,2.07-0.714
		c0.104,0.066,0.18,0.086,0.19,0.125c0.249,0.922,0.677,1.633,1.663,2.005c0.566,0.214,0.433,0.878,0.13,1.259
		c-0.428,0.537-0.946,1.035-1.513,1.42c-0.409,0.278-0.535,0.564-0.619,1.025c-0.393,2.152-0.808,4.301-1.297,6.433
		c-0.235,1.027-0.651,2.014-1.082,3.309c0.504-0.35,0.813-0.562,1.12-0.779c1.753-1.241,3.499-2.493,5.261-3.721
		c0.552-0.385,0.9-0.766,0.886-1.543c-0.054-2.969-0.015-5.939-0.002-8.91c0.003-0.657-0.042-1.258-0.523-1.802
		c-0.833-0.943-0.851-2.189-0.959-3.339c-0.13-1.375,0.938-2.164,2.308-1.843c1.193,0.279,2.407,0.505,3.43,1.268
		c0.542,0.404,0.927,0.845,0.954,1.574c0.027,0.709-0.349,1.054-0.898,1.379c-0.766,0.454-0.943,1.261-1.076,2.07
		c-0.086,0.528-0.21,1.053-0.25,1.584c-0.176,2.353-0.329,4.708-0.5,7.223c1.405-0.874,2.639-1.617,3.838-2.411
		c0.228-0.15,0.426-0.492,0.458-0.767c0.147-1.281,0.25-2.568,0.335-3.855c0.124-1.879,0.188-3.763,0.339-5.641
		c0.085-1.072-0.335-1.84-1.093-2.549c-1.607-1.502-1.637-1.873-0.291-3.598c0.528-0.677,1.146-1.295,1.786-1.87
		c0.678-0.61,1.362-0.611,2.018-0.041c1.332,1.16,2.132,2.678,2.718,4.306c0.209,0.58,0.076,1.171-0.488,1.584
		c-0.216,0.158-0.379,0.388-0.591,0.552c-1.372,1.063-2.003,2.383-1.924,4.188c0.079,1.814-0.171,3.642-0.295,5.772
		c1.595-0.856,2.949-1.542,4.249-2.318c0.238-0.142,0.339-0.643,0.364-0.988c0.05-0.698-0.018-1.403,0.002-2.105
		c0.026-0.94,0.063-0.981,1.049-0.977c1.747,0.008,3.221,0.777,4.506,1.858c0.682,0.574,1.204,1.352,1.739,2.081
		c0.312,0.425,0.228,0.817-0.375,0.952c-0.366,0.082-0.729,0.271-1.089,0.265c-2.269-0.036-4.284,0.847-6.298,1.709
		c-1.08,0.462-2.096,1.071-3.163,1.564c-0.704,0.325-1.066,0.818-1.076,1.588c-0.018,1.563-0.068,3.124-0.052,4.686
		c0.007,0.641,0.156,1.279,0.237,1.919c0.173,1.367,0.396,1.593,1.794,1.816c1.057,0.169,2.159,0.161,3.232,0.092
		c2.411-0.156,4.816-0.397,7.225-0.609c0.603-0.053,1.296-0.092,1.604,0.459c0.283,0.508,0.108,1.132-0.246,1.672
		c-0.433,0.661-0.983,1.111-1.741,1.341c-3.847,1.164-7.781,1.566-11.777,1.26c-0.711-0.055-1.449-0.399-2.067-0.783
		c-0.408-0.253-0.792-0.778-0.895-1.246c-0.42-1.905-0.413-3.847-0.256-5.788C27.165,30.029,27.251,28.694,27.36,27.175z"/>
</g>
</svg>
