<?xml version="1.0" encoding="utf-8"?>
<!-- Generator: Adobe Illustrator 16.0.0, SVG Export Plug-In . SVG Version: 6.00 Build 0)  -->
<!DOCTYPE svg PUBLIC "-//W3C//DTD SVG 1.1//EN" "http://www.w3.org/Graphics/SVG/1.1/DTD/svg11.dtd">
<svg version="1.1" id="Layer_1" xmlns="http://www.w3.org/2000/svg" xmlns:xlink="http://www.w3.org/1999/xlink" x="0px" y="0px"
	 width="50px" height="50px" viewBox="0 0 50 50" enable-background="new 0 0 50 50" xml:space="preserve">
<g>
	<path fill-rule="evenodd" clip-rule="evenodd" fill="#EC5856" d="M16.815,40.83c-0.398-1.285-0.706-2.264-1.002-3.246
		c-0.1-0.328-0.272-0.68-0.227-0.994c0.043-0.299,0.272-0.652,0.527-0.811c0.147-0.09,0.599,0.086,0.748,0.273
		c0.298,0.375,0.524,0.822,0.704,1.271c0.454,1.133,0.866,2.283,1.251,3.309c1.031-0.055,1.916-0.096,2.801-0.148
		c0.928-0.055,0.996-0.123,1.034-1.059c0.016-0.389,0.002-0.779,0.002-1.35c-0.723,0.123-1.329,0.227-2.005,0.342
		c-0.033,0.359-0.015,0.707-0.112,1.021c-0.057,0.184-0.308,0.445-0.452,0.434c-0.239-0.02-0.558-0.178-0.671-0.375
		c-0.164-0.285-0.208-0.656-0.247-0.996c-0.248-2.156-0.521-4.313-0.702-6.475c-0.105-1.26,0.078-1.441,1.278-1.416
		c3.139,0.066,6.174-0.545,9.192-1.313c0.094-0.025,0.178-0.098,0.271-0.117c2.408-0.514,2.781-0.217,2.7,2.203
		c-0.081,2.428-0.188,4.854-0.282,7.281c-0.01,0.242-0.002,0.484-0.002,0.857c0.365-0.027,0.645-0.012,0.906-0.074
		c1.248-0.289,2.479-0.045,3.668,0.236c1.509,0.355,2.475,2.627,1.83,4.135c-0.478,1.117-1.052,2.025-2.534,2.141
		c-1.401,0.107-2.771,0.615-4.157,0.93c-2.416,0.549-4.619,0.037-6.555-1.477c-0.473-0.371-0.788-0.318-1.295-0.166
		c-0.694,0.205-1.441,0.264-2.17,0.311c-0.595,0.039-1.114-0.049-1.404,0.732c-0.25,0.67-0.521,0.596-1.14,0.094
		c-0.8-0.65-1.044-1.57-1.163-2.482c-0.106-0.82-0.52-1.059-1.228-1.186c-1.157-0.209-2.304-0.477-3.451-0.738
		c-0.285-0.066-0.611-0.139-0.813-0.324c-0.227-0.207-0.474-0.553-0.46-0.826c0.022-0.463,0.48-0.396,0.817-0.371
		c0.592,0.045,1.181,0.125,1.771,0.176C15.02,40.699,15.797,40.752,16.815,40.83z M31.649,40.674c0,0.967-0.048,1.609,0.014,2.24
		c0.061,0.625-0.261,0.994-0.771,1.031c-1.016,0.072-2.096,0.574-3.039-0.33c-0.151-0.145-0.568-0.107-0.823-0.027
		c-0.464,0.146-0.896,0.387-1.411,0.619c1.225,1.152,2.479,1.834,4.14,1.053c0.802-0.377,1.646-0.568,2.553-0.617
		c0.608-0.033,1.261-0.271,1.789-0.592c1.156-0.701,1.072-2.307-0.15-2.84C33.305,40.93,32.561,40.877,31.649,40.674z
		 M25.395,33.016c0.593,0,1.037,0.014,1.478-0.004c0.942-0.035,1.256-0.311,1.386-1.176c0.088-0.59-0.245-0.979-0.842-0.891
		c-0.669,0.098-1.326,0.277-2.022,0.428C25.395,31.887,25.395,32.367,25.395,33.016z M25.708,39.898
		c0.536,0,0.927,0.018,1.315-0.004c0.805-0.045,0.904-0.154,0.961-0.971c0.075-1.105,0.04-1.148-1.107-1.131
		c-0.379,0.004-0.759,0.053-1.169,0.086C25.708,38.555,25.708,39.135,25.708,39.898z M22.842,34.779
		c-0.684,0.055-1.297,0.01-1.84,0.184c-0.277,0.088-0.559,0.555-0.594,0.877c-0.024,0.225,0.32,0.646,0.576,0.723
		C22.349,36.961,22.941,36.43,22.842,34.779z M22.909,33.344c0-0.662,0-1.172,0-1.688c-0.893,0.084-1.701,0.158-2.491,0.232
		c-0.196,1.467-0.196,1.465,0.995,1.455C21.854,33.34,22.296,33.344,22.909,33.344z M25.593,34.498
		c0.041,0.684,0.071,1.18,0.097,1.615c0.634-0.043,1.12-0.086,1.607-0.105c0.593-0.025,0.707-0.402,0.724-0.896
		c0.02-0.559-0.299-0.639-0.752-0.617C26.785,34.516,26.299,34.498,25.593,34.498z M20.102,43.939
		c0.834-0.178,1.506-0.295,2.158-0.482c0.161-0.045,0.396-0.371,0.356-0.473c-0.088-0.223-0.33-0.541-0.509-0.543
		c-0.679,0-1.359,0.111-2.039,0.178c-0.412,0.041-0.474,0.355-0.391,0.637C19.753,43.521,19.974,43.744,20.102,43.939z
		 M27.873,41.371c-0.766,0.156-1.199,0.215-1.613,0.344c-0.132,0.041-0.252,0.248-0.297,0.402c-0.031,0.109,0.065,0.365,0.122,0.371
		c0.478,0.045,0.985,0.143,1.425,0.016C27.688,42.453,27.72,41.889,27.873,41.371z"/>
	<path fill-rule="evenodd" clip-rule="evenodd" fill="#131312" d="M12.193,17.109c0.275-0.633,0.779-0.689,1.23-0.88
		c1.453-0.614,2.911-1.227,4.312-1.949c1.437-0.74,2.599-1.785,3.201-3.372c0.258-0.679,0.41-1.226-0.36-1.638
		c-0.126-0.068-0.226-0.195-0.323-0.307c-0.612-0.703-0.503-1.181,0.356-1.557c0.173-0.076,0.355-0.13,0.658-0.239
		c-0.201-0.853-0.395-1.658-0.578-2.465c-0.157-0.69-0.049-0.96,0.656-1.006c0.661-0.043,1.345,0.114,2.005,0.25
		c0.674,0.138,1.137,0.54,1.296,1.257c0.119,0.537,0.537,0.378,0.81,0.208c0.235-0.146,0.352-0.471,0.562-0.674
		c0.115-0.111,0.324-0.2,0.474-0.18c0.261,0.036,0.554,0.297,0.757,0.231c1.352-0.444,2.701-0.908,4.014-1.457
		c0.585-0.244,1.102-0.813,1.768-0.417c0.744,0.441,0.73,1.238,0.691,1.996c-0.05,0.932-0.268,1.115-1.31,1.213
		c-1.817,0.171-3.634,0.359-5.573,0.553c0,1.9-0.107,3.688,0.027,5.456c0.161,2.11,1.389,3.228,3.414,3.798
		c1.305,0.368,1.947-0.178,1.994-1.575c0.034-1.044-0.053-2.091-0.016-3.135c0.023-0.67,0.174-1.336,0.275-2.071
		c0.664,0.316,0.77,0.778,0.896,1.272c0.256,1.001,0.534,2.001,0.892,2.97c0.335,0.91,0.847,1.623,1.996,1.722
		c0.862,0.074,1.201,0.747,1.035,1.619c-0.186,0.972-0.807,1.613-1.701,1.895c-0.698,0.22-1.458,0.324-2.192,0.329
		c-1.684,0.013-3.358,0.063-5.049-0.238c-1.816-0.323-2.833-1.382-3.268-3.01c-0.316-1.182-0.461-2.412-0.219-3.684
		c0.305-1.599,0.425-3.233,0.631-4.897c-0.441-0.165-0.827-0.249-0.905,0.45c-0.083,0.738-0.148,1.484-0.318,2.204
		c-0.544,2.314-1.893,4.049-4.081,4.966c-1.948,0.816-3.978,1.436-5.976,2.128c-0.465,0.161-0.943,0.294-1.426,0.382
		C12.658,17.293,12.439,17.17,12.193,17.109z"/>
	<path fill-rule="evenodd" clip-rule="evenodd" fill="#ED5A58" d="M28.618,26.047c2.445-0.727,4.808-1.133,7.232-1.101
		c0.904,0.012,1.585,0.326,1.626,0.748c0.048,0.492-0.692,1.007-1.597,1.05c-3.613,0.17-7.099,0.99-10.588,1.889
		c-2.728,0.701-5.524,1.057-8.363,0.555c-0.678-0.121-1.393-0.02-2.085-0.076c-0.958-0.078-1.857-0.34-2.469-1.16
		c-0.278-0.371-0.292-0.691,0.208-0.961c0.722-0.387,1.433-0.209,2.172-0.127c2.451,0.273,4.906,0.514,7.362,0.75
		c0.27,0.025,0.549-0.053,1.004-0.102c-0.243-0.322-0.361-0.525-0.522-0.684c-0.382-0.377-0.376-0.811-0.152-1.228
		c0.375-0.695,0.785-1.372,1.21-2.038c0.236-0.37,0.603-0.553,1.024-0.317c0.42,0.235,0.633,0.561,0.385,1.089
		c-0.327,0.696-0.344,1.436-0.021,2.142c0.104,0.227,0.339,0.555,0.511,0.553c0.303-0.004,0.783-0.148,0.875-0.367
		c0.382-0.902,0.692-1.843,0.919-2.795c0.059-0.244-0.248-0.611-0.451-0.872c-0.391-0.502-0.826-0.969-1.244-1.45
		c0.471-0.561,0.938-1.124,1.414-1.681c0.129-0.151,0.271-0.293,0.426-0.418c0.4-0.326,0.736-0.228,0.98,0.198
		c0.49,0.856,0.954,1.727,1.453,2.577c0.359,0.612,0.258,1.097-0.24,1.592c-0.347,0.344-0.646,0.757-0.877,1.188
		C28.666,25.275,28.687,25.638,28.618,26.047z"/>
</g>
</svg>
