<?xml version="1.0" encoding="utf-8"?>
<!-- Generator: Adobe Illustrator 16.0.0, SVG Export Plug-In . SVG Version: 6.00 Build 0)  -->
<!DOCTYPE svg PUBLIC "-//W3C//DTD SVG 1.1//EN" "http://www.w3.org/Graphics/SVG/1.1/DTD/svg11.dtd">
<svg version="1.1" id="Layer_1" xmlns="http://www.w3.org/2000/svg" xmlns:xlink="http://www.w3.org/1999/xlink" x="0px" y="0px"
	 width="50px" height="50px" viewBox="0 0 50 50" enable-background="new 0 0 50 50" xml:space="preserve">
<g>
	<path fill-rule="evenodd" clip-rule="evenodd" fill="#226A36" d="M37.295,47.178c-0.219-0.041-0.441-0.11-0.667-0.119
		c-0.675-0.023-1.377-0.143-2.02-0.001c-0.83,0.182-1.546,0.034-2.245-0.344c-1.283-0.694-1.477-2.149-0.32-3.024
		c0.525-0.398,0.682-0.782,0.652-1.372c-0.029-0.598-0.03-1.2-0.001-1.799c0.046-0.935-0.024-1.662-0.96-2.337
		c-1.185-0.854-1.288-2.459,0.022-3.405c0.876-0.632,0.992-1.311,0.936-2.204c-0.021-0.322-0.022-0.647,0.001-0.969
		c0.03-0.403-0.14-0.636-0.446-0.914c-1.376-1.25-1.113-2.561,0.632-3.258c0.715-0.286,1.457-0.501,2.192-0.729
		c0.171-0.053,0.382-0.075,0.548-0.026c1.043,0.309,2.14,0.521,3.103,0.998c1.16,0.574,1.308,1.849,0.371,2.745
		c-0.455,0.436-0.62,0.854-0.581,1.437c0.027,0.414,0.032,0.833-0.001,1.245c-0.054,0.641,0.08,1.118,0.679,1.514
		c1.336,0.886,1.463,2.715,0.035,3.703c-0.622,0.431-0.771,0.948-0.717,1.638c0.043,0.55,0.035,1.108,0.003,1.66
		c-0.055,0.938,0.006,1.735,0.88,2.422c0.78,0.612,0.661,1.41-0.004,2.18C38.835,46.856,38.086,47.036,37.295,47.178z
		 M34.802,29.567c0.038,1.221,0.076,2.44,0.113,3.661c0.007,0.229-0.062,0.491,0.028,0.679c0.1,0.208,0.325,0.46,0.523,0.488
		c0.212,0.029,0.536-0.124,0.665-0.304c0.142-0.196,0.136-0.512,0.161-0.778c0.116-1.216-0.214-2.452,0.244-3.663
		c0.173-0.459-0.473-1.05-1.006-1.049C34.946,28.603,34.623,28.952,34.802,29.567z M34.917,42.033c0,0.782,0.011,1.564-0.005,2.346
		c-0.009,0.425,0.147,0.751,0.563,0.818c0.544,0.087,0.778-0.389,0.791-0.764c0.054-1.608,0.043-3.22,0.012-4.829
		c-0.009-0.449-0.289-0.803-0.806-0.732c-0.438,0.06-0.562,0.404-0.558,0.814C34.922,40.469,34.916,41.251,34.917,42.033z
		 M35.735,34.766c-0.708,0.119-1.274,0.264-1.582,0.862c-0.084,0.164-0.047,0.445,0.039,0.622c0.051,0.102,0.372,0.195,0.464,0.133
		c0.604-0.409,1.164-0.378,1.775-0.004c0.129,0.079,0.545-0.034,0.59-0.151c0.08-0.209,0.072-0.597-0.065-0.715
		C36.597,35.207,36.148,35.007,35.735,34.766z M35.669,36.699c-0.719,0.144-1.264,0.322-1.549,0.936
		c-0.065,0.143-0.059,0.386,0.024,0.511c0.079,0.118,0.357,0.243,0.45,0.191c0.647-0.364,1.254-0.403,1.908,0.001
		c0.114,0.07,0.487-0.075,0.574-0.221c0.089-0.147,0.05-0.524-0.072-0.617C36.593,37.189,36.119,36.96,35.669,36.699z"/>
	<path fill-rule="evenodd" clip-rule="evenodd" fill="#246B37" d="M17.753,36.431c0.058,0.884-0.426,1.516-1.083,1.961
		c-0.545,0.369-0.676,0.802-0.643,1.396c0.033,0.598,0.021,1.199,0.004,1.799c-0.025,0.922-0.049,1.743,0.864,2.43
		c0.811,0.61,0.687,1.526-0.058,2.276c-0.735,0.74-1.65,1.055-2.653,0.784c-0.739-0.199-1.419-0.26-2.152-0.013
		c-0.797,0.269-1.537,0-2.23-0.403c-1.211-0.706-1.396-2.123-0.271-2.947c0.585-0.429,0.724-0.86,0.689-1.492
		c-0.031-0.552-0.044-1.11,0.001-1.66c0.083-1.008-0.103-1.75-1.028-2.451c-1.234-0.936-1.087-2.33,0.121-3.426
		c0.322-0.292,0.813-0.606,0.855-0.957c0.106-0.857,0.044-1.746-0.057-2.61c-0.029-0.25-0.429-0.45-0.642-0.688
		c-0.898-1.008-0.781-2.126,0.424-2.73c0.921-0.463,1.956-0.706,2.95-1.016c0.208-0.065,0.472-0.044,0.685,0.021
		c0.782,0.236,1.569,0.469,2.326,0.774c1.496,0.604,1.803,1.878,0.694,3.015c-0.397,0.407-0.563,0.796-0.521,1.334
		c0.029,0.367,0.026,0.739,0.001,1.107c-0.047,0.721,0.067,1.294,0.753,1.77C17.549,35.232,17.737,35.771,17.753,36.431z
		 M13.107,28.6c-0.673-0.034-1.123,0.448-0.898,1.182c0.32,1.041,0.169,2.082,0.222,3.122c0.017,0.319-0.041,0.656,0.042,0.955
		c0.06,0.215,0.301,0.535,0.457,0.533c0.262-0.004,0.621-0.164,0.753-0.375c0.151-0.241,0.114-0.609,0.135-0.923
		c0.077-1.133,0.132-2.268,0.22-3.398C14.083,29.135,13.677,28.629,13.107,28.6z M12.434,41.902c0.003,0,0.006,0,0.01,0
		c0,0.869-0.04,1.742,0.025,2.606c0.018,0.244,0.329,0.635,0.531,0.651c0.223,0.019,0.542-0.271,0.695-0.508
		c0.133-0.205,0.116-0.521,0.123-0.79c0.016-0.595,0.008-1.19,0.004-1.785c-0.005-0.823,0.041-1.652-0.054-2.465
		c-0.032-0.273-0.395-0.674-0.658-0.721c-0.519-0.09-0.668,0.363-0.674,0.813C12.427,40.437,12.434,41.17,12.434,41.902z
		 M13.084,36.642c-0.467,0.287-0.968,0.56-1.417,0.898c-0.104,0.078-0.106,0.427-0.023,0.581c0.119,0.224,0.345,0.448,0.652,0.212
		c0.484-0.373,0.936-0.47,1.482-0.053c0.154,0.117,0.542-0.072,0.822-0.121c-0.065-0.283-0.038-0.674-0.215-0.826
		C14.057,37.051,13.609,36.907,13.084,36.642z M13.085,34.68c-0.492,0.317-0.988,0.603-1.433,0.953
		c-0.097,0.077-0.081,0.442,0.016,0.58c0.096,0.135,0.458,0.266,0.538,0.199c0.604-0.502,1.159-0.378,1.772-0.023
		c0.129,0.075,0.547-0.063,0.59-0.187c0.073-0.211,0.044-0.599-0.101-0.716C14.092,35.182,13.63,34.985,13.085,34.68z"/>
	<path fill-rule="evenodd" clip-rule="evenodd" fill="#246B37" d="M10.213,17.929c0-0.369-0.022-0.74,0.005-1.108
		c0.046-0.64-0.12-1.098-0.693-1.514c-1.593-1.157-1.483-2.75-0.107-3.766c0.643-0.475,0.882-0.991,0.801-1.743
		c-0.039-0.365-0.022-0.739-0.003-1.107c0.025-0.484-0.098-0.82-0.514-1.175c-1.261-1.079-1.017-2.475,0.517-3.129
		c0.708-0.302,1.454-0.589,2.209-0.69c0.606-0.082,1.255,0.105,1.878,0.211c0.403,0.069,0.795,0.202,1.189,0.314
		c1.417,0.404,2.536,1.928,0.961,3.31c-0.373,0.328-0.44,0.66-0.424,1.086c0.012,0.323,0.02,0.647-0.001,0.97
		c-0.054,0.85,0.036,1.5,0.889,2.097c1.246,0.871,1.151,2.59-0.131,3.53c-0.617,0.452-0.816,0.887-0.764,1.583
		c0.045,0.597,0.017,1.2,0.007,1.8c-0.013,0.87,0.04,1.582,0.833,2.291c1.191,1.064,0.349,2.436-1.025,2.956
		c-0.291,0.11-0.659,0.158-0.956,0.087c-1.5-0.357-3.021,0.229-4.495-0.086c-1.591-0.341-2.107-2.132-0.902-3.155
		c0.625-0.531,0.771-1.075,0.728-1.792C10.197,18.577,10.213,18.252,10.213,17.929z M13.823,18.885c0-0.641,0.006-1.283-0.003-1.924
		c-0.003-0.225,0.03-0.513-0.09-0.659c-0.175-0.212-0.458-0.404-0.725-0.457c-0.399-0.079-0.556,0.222-0.557,0.591
		c-0.003,1.648,0,3.297-0.007,4.945c-0.002,0.379,0.16,0.593,0.533,0.667c0.471,0.093,0.661-0.221,0.787-0.566
		c0.075-0.205,0.058-0.448,0.06-0.675C13.828,20.167,13.823,19.526,13.823,18.885z M14.076,6.416
		c-0.026-0.503-0.601-0.93-1.18-0.846c-0.558,0.081-0.898,0.485-0.695,1.103c0.341,1.041,0.181,2.087,0.23,3.131
		c0.013,0.274-0.002,0.551,0.008,0.826c0.015,0.41,0.205,0.778,0.624,0.735c0.246-0.025,0.474-0.359,0.675-0.586
		c0.077-0.086,0.068-0.259,0.079-0.394C13.918,9.073,13.593,7.733,14.076,6.416z M12.28,15.29c0.478-0.955,1.156-0.19,1.852-0.008
		c0.297,0.078,0.634-0.361,0.555-0.633c-0.124-0.428-0.982-0.982-1.552-1.002c-0.638-0.022-1.353,0.405-1.55,0.927
		C11.429,14.985,11.662,15.329,12.28,15.29z M13.063,12.793c0.261,0.178,0.468,0.419,0.706,0.455
		c0.262,0.039,0.583-0.064,0.811-0.21c0.067-0.042-0.022-0.511-0.167-0.664c-0.241-0.253-0.561-0.472-0.889-0.593
		c-0.673-0.248-1.267,0.056-1.725,0.508c-0.169,0.167-0.102,0.574-0.142,0.872c0.28,0.017,0.571,0.087,0.837,0.032
		C12.691,13.151,12.854,12.948,13.063,12.793z"/>
	<path fill-rule="evenodd" clip-rule="evenodd" fill="#ED5A58" d="M24.185,14.983c1.014,0.374,2.151,0.632,3.116,1.19
		c1.14,0.661,1.264,1.782,0.333,2.625c-0.64,0.58-0.783,1.182-0.722,1.947c0.025,0.321,0.018,0.646,0.001,0.968
		c-0.025,0.489,0.052,0.859,0.571,1.126c0.388,0.199,0.741,0.573,0.969,0.954c0.634,1.061,0.472,2.047-0.677,2.887
		c-0.749,0.549-0.929,1.138-0.869,1.961c0.044,0.597,0.031,1.2,0.003,1.799c-0.033,0.716,0.063,1.256,0.779,1.722
		c0.865,0.563,1.062,2.193-0.387,2.969c-0.688,0.369-1.439,0.492-2.259,0.319c-0.598-0.127-1.26-0.115-1.864-0.004
		c-0.965,0.177-1.83,0.078-2.594-0.547c-1.043-0.854-1.1-1.925-0.04-2.768c0.466-0.371,0.616-0.715,0.583-1.255
		c-0.033-0.552-0.02-1.106-0.005-1.66c0.031-1.107,0.03-2.084-1.051-2.912c-1.042-0.799-0.962-2.138,0.101-2.979
		c0.839-0.665,1.061-1.382,0.953-2.342c-0.036-0.319-0.02-0.646-0.002-0.968c0.024-0.439-0.115-0.749-0.459-1.074
		c-1.11-1.049-0.931-2.343,0.444-2.958C22.058,15.562,23.091,15.332,24.185,14.983z M24.819,17.983
		c0.191-0.664-0.222-1.083-0.823-1.015c-0.547,0.062-1.116,0.677-0.918,1.145c0.399,0.946,0.151,1.909,0.227,2.859
		c0.029,0.367-0.012,0.739,0.014,1.107c0.035,0.486,0.306,0.743,0.809,0.745c0.515,0.002,0.584-0.333,0.593-0.736
		C24.75,20.719,24.786,19.351,24.819,17.983z M24.721,30.41c-0.002,0-0.005,0-0.008,0c0-0.828,0.042-1.66-0.026-2.483
		c-0.02-0.242-0.313-0.553-0.554-0.649c-0.139-0.057-0.47,0.213-0.63,0.406c-0.13,0.156-0.183,0.417-0.185,0.633
		c-0.015,1.474-0.011,2.947-0.006,4.421c0.001,0.466,0.191,0.824,0.703,0.842c0.536,0.018,0.702-0.353,0.705-0.82
		C24.725,31.976,24.721,31.193,24.721,30.41z M23.922,23.3c-0.544-0.055-1.088,0.171-1.373,0.771
		c-0.083,0.174,0.047,0.521,0.189,0.704c0.085,0.109,0.47,0.147,0.57,0.055c0.538-0.497,1.016-0.514,1.579-0.03
		c0.119,0.103,0.557,0.034,0.664-0.101c0.115-0.146,0.089-0.496-0.003-0.699C25.256,23.356,24.651,23.296,23.922,23.3z
		 M24.033,25.244c-0.547-0.056-1.121,0.099-1.437,0.693c-0.098,0.183-0.039,0.525,0.073,0.726c0.143,0.26,0.432,0.353,0.691,0.093
		c0.533-0.536,1.026-0.467,1.561,0.019c0.101,0.091,0.496,0.044,0.569-0.064c0.12-0.18,0.18-0.496,0.104-0.692
		C25.34,25.366,24.758,25.236,24.033,25.244z"/>
	<path fill-rule="evenodd" clip-rule="evenodd" fill="#216A36" d="M37.008,23.938c-0.885-0.313-2.008-0.112-3.138-0.004
		c-0.697,0.066-1.357-0.108-1.908-0.612c-0.892-0.817-0.996-1.881-0.032-2.601c0.714-0.533,0.813-1.12,0.764-1.873
		c-0.024-0.367-0.02-0.738-0.001-1.106c0.056-1.117,0.006-2.069-1.103-2.866c-1.076-0.774-1.045-2.313,0.078-3.072
		c1.518-1.026,0.893-2.421,0.99-3.701c0.014-0.183-0.326-0.4-0.515-0.588c-1.169-1.165-0.932-2.524,0.584-3.149
		c0.671-0.277,1.367-0.557,2.077-0.656c0.611-0.085,1.264,0.052,1.888,0.15c0.445,0.07,0.875,0.238,1.313,0.363
		c0.937,0.269,1.601,1.014,1.651,1.804c0.036,0.55-0.112,1.039-0.558,1.338C38.552,7.731,38.48,8.223,38.512,8.8
		c0.023,0.414,0.031,0.832-0.001,1.245c-0.051,0.638,0.111,1.047,0.705,1.466c1.387,0.977,1.4,2.68,0.018,3.712
		c-0.621,0.464-0.749,0.922-0.726,1.592c0.033,0.921-0.018,1.846,0.024,2.766c0.013,0.28,0.136,0.647,0.34,0.809
		c0.688,0.545,1.276,1.105,0.913,2.075c-0.385,1.03-1.206,1.444-2.26,1.473C37.433,23.94,37.341,23.938,37.008,23.938z
		 M34.92,18.944c-0.001,0-0.003,0-0.005,0c0,0.739,0.013,1.478-0.004,2.216c-0.011,0.457,0.06,0.873,0.601,0.896
		c0.484,0.021,0.761-0.338,0.769-0.779c0.029-1.569,0.012-3.14,0.009-4.709c0-0.089-0.003-0.22-0.058-0.26
		c-0.238-0.174-0.48-0.41-0.75-0.458c-0.387-0.069-0.564,0.215-0.563,0.601C34.923,17.282,34.92,18.113,34.92,18.944z M35.615,5.558
		c-0.68-0.029-1.148,0.369-0.947,0.993c0.361,1.124,0.194,2.252,0.247,3.378c0.015,0.319-0.061,0.665,0.04,0.952
		c0.074,0.212,0.343,0.425,0.567,0.492c0.141,0.042,0.442-0.145,0.528-0.306c0.143-0.266,0.206-0.59,0.237-0.896
		c0.123-1.214-0.209-2.45,0.245-3.661C36.692,6.086,36.124,5.579,35.615,5.558z M37.305,14.907
		c-0.245-0.369-0.357-0.625-0.544-0.802c-0.673-0.638-1.873-0.613-2.454,0.086c-0.169,0.204-0.186,0.579-0.166,0.869
		c0.007,0.092,0.453,0.283,0.536,0.219c0.622-0.478,1.185-0.464,1.82-0.012C36.606,15.344,36.97,15.063,37.305,14.907z
		 M35.627,11.538c-0.551,0.297-1.031,0.468-1.382,0.785c-0.161,0.145-0.122,0.586-0.055,0.864c0.019,0.078,0.548,0.169,0.688,0.058
		c0.518-0.407,0.932-0.396,1.43,0.034c0.112,0.098,0.567-0.014,0.689-0.168c0.11-0.141,0.079-0.577-0.055-0.694
		C36.557,12.077,36.087,11.833,35.627,11.538z"/>
	<path fill-rule="evenodd" clip-rule="evenodd" fill="#F2F8F1" d="M34.802,29.567c-0.179-0.615,0.145-0.965,0.729-0.966
		c0.533-0.001,1.179,0.59,1.006,1.049c-0.458,1.211-0.128,2.447-0.244,3.663c-0.025,0.267-0.02,0.582-0.161,0.778
		c-0.129,0.18-0.453,0.333-0.665,0.304c-0.198-0.028-0.424-0.28-0.523-0.488c-0.09-0.188-0.021-0.449-0.028-0.679
		C34.878,32.008,34.84,30.788,34.802,29.567z"/>
	<path fill-rule="evenodd" clip-rule="evenodd" fill="#F2F8F1" d="M34.916,42.033c0-0.782,0.006-1.564-0.002-2.347
		c-0.004-0.41,0.119-0.755,0.558-0.814c0.517-0.07,0.797,0.283,0.806,0.732c0.031,1.609,0.042,3.221-0.012,4.829
		c-0.013,0.375-0.247,0.851-0.791,0.764c-0.415-0.067-0.571-0.394-0.563-0.818C34.928,43.598,34.917,42.815,34.916,42.033z"/>
	<path fill-rule="evenodd" clip-rule="evenodd" fill="#F9FCF8" d="M35.735,34.766c0.413,0.241,0.861,0.441,1.221,0.747
		c0.138,0.118,0.146,0.506,0.065,0.715c-0.045,0.117-0.461,0.23-0.59,0.151c-0.611-0.374-1.171-0.405-1.775,0.004
		c-0.092,0.063-0.413-0.031-0.464-0.133c-0.086-0.177-0.123-0.458-0.039-0.622C34.461,35.029,35.027,34.885,35.735,34.766z"/>
	<path fill-rule="evenodd" clip-rule="evenodd" fill="#F9FCF8" d="M35.669,36.699c0.45,0.261,0.924,0.49,1.336,0.801
		c0.122,0.093,0.161,0.47,0.072,0.617c-0.087,0.146-0.46,0.291-0.574,0.221c-0.654-0.404-1.261-0.365-1.908-0.001
		c-0.093,0.052-0.371-0.073-0.45-0.191c-0.083-0.125-0.09-0.368-0.024-0.511C34.405,37.021,34.95,36.843,35.669,36.699z"/>
	<path fill-rule="evenodd" clip-rule="evenodd" fill="#EDF5EC" d="M13.107,28.6c0.57,0.029,0.976,0.535,0.932,1.096
		c-0.088,1.131-0.143,2.266-0.22,3.398c-0.021,0.313,0.016,0.682-0.135,0.923c-0.133,0.211-0.492,0.371-0.753,0.375
		c-0.156,0.002-0.396-0.318-0.457-0.533c-0.083-0.299-0.026-0.636-0.042-0.955c-0.053-1.04,0.098-2.081-0.222-3.122
		C11.984,29.048,12.435,28.565,13.107,28.6z"/>
	<path fill-rule="evenodd" clip-rule="evenodd" fill="#ECF5EB" d="M12.434,41.902c0-0.732-0.007-1.466,0.002-2.197
		c0.006-0.45,0.155-0.903,0.674-0.813c0.263,0.047,0.626,0.447,0.658,0.721c0.094,0.813,0.049,1.642,0.054,2.465
		c0.003,0.595,0.011,1.19-0.004,1.785c-0.007,0.269,0.01,0.585-0.123,0.79c-0.153,0.236-0.472,0.526-0.695,0.508
		c-0.202-0.017-0.513-0.407-0.531-0.651c-0.065-0.864-0.025-1.737-0.025-2.606C12.44,41.902,12.437,41.902,12.434,41.902z"/>
	<path fill-rule="evenodd" clip-rule="evenodd" fill="#F0F6EF" d="M13.084,36.642c0.524,0.266,0.973,0.409,1.301,0.691
		c0.177,0.152,0.15,0.543,0.215,0.826c-0.28,0.049-0.668,0.238-0.822,0.121c-0.546-0.417-0.998-0.32-1.482,0.053
		c-0.308,0.236-0.533,0.012-0.652-0.212c-0.083-0.154-0.08-0.503,0.023-0.581C12.117,37.201,12.618,36.929,13.084,36.642z"/>
	<path fill-rule="evenodd" clip-rule="evenodd" fill="#F2F8F1" d="M13.085,34.68c0.545,0.306,1.007,0.502,1.382,0.807
		c0.145,0.117,0.174,0.505,0.101,0.716c-0.042,0.124-0.46,0.262-0.59,0.187c-0.613-0.354-1.169-0.479-1.772,0.023
		c-0.08,0.066-0.442-0.064-0.538-0.199c-0.097-0.138-0.113-0.503-0.016-0.58C12.097,35.282,12.593,34.997,13.085,34.68z"/>
	<path fill-rule="evenodd" clip-rule="evenodd" fill="#EBF4EA" d="M13.823,18.885c0,0.641,0.004,1.282-0.002,1.923
		c-0.002,0.227,0.015,0.47-0.06,0.675c-0.126,0.345-0.316,0.659-0.787,0.566c-0.374-0.074-0.535-0.288-0.533-0.667
		c0.007-1.648,0.004-3.297,0.007-4.945c0.001-0.369,0.158-0.67,0.557-0.591c0.266,0.053,0.549,0.245,0.725,0.457
		c0.12,0.146,0.086,0.434,0.09,0.659C13.83,17.603,13.823,18.244,13.823,18.885z"/>
	<path fill-rule="evenodd" clip-rule="evenodd" fill="#EFF6EE" d="M14.076,6.416c-0.483,1.317-0.158,2.657-0.259,3.969
		c-0.01,0.135-0.001,0.307-0.079,0.394c-0.201,0.227-0.43,0.561-0.675,0.586c-0.418,0.043-0.608-0.325-0.624-0.735
		c-0.01-0.275,0.005-0.551-0.008-0.826c-0.05-1.044,0.111-2.09-0.23-3.131c-0.203-0.618,0.137-1.022,0.695-1.103
		C13.475,5.486,14.05,5.913,14.076,6.416z"/>
	<path fill-rule="evenodd" clip-rule="evenodd" fill="#F2F8F1" d="M12.28,15.29c-0.618,0.04-0.851-0.305-0.695-0.716
		c0.197-0.522,0.912-0.949,1.55-0.927c0.57,0.02,1.428,0.574,1.552,1.002c0.079,0.272-0.257,0.711-0.555,0.633
		C13.436,15.099,12.758,14.334,12.28,15.29z"/>
	<path fill-rule="evenodd" clip-rule="evenodd" fill="#F5FAF4" d="M13.063,12.793c-0.21,0.155-0.373,0.358-0.569,0.4
		c-0.266,0.055-0.557-0.015-0.837-0.032c0.041-0.298-0.027-0.705,0.142-0.872c0.458-0.453,1.052-0.756,1.725-0.508
		c0.328,0.121,0.648,0.34,0.889,0.593c0.145,0.153,0.234,0.621,0.167,0.664c-0.228,0.146-0.549,0.249-0.811,0.21
		C13.532,13.212,13.325,12.971,13.063,12.793z"/>
	<path fill-rule="evenodd" clip-rule="evenodd" fill="#FEF4F3" d="M24.819,17.983c-0.033,1.368-0.069,2.736-0.099,4.104
		c-0.009,0.403-0.078,0.739-0.593,0.736c-0.503-0.002-0.774-0.258-0.809-0.745c-0.026-0.368,0.015-0.74-0.014-1.107
		c-0.076-0.95,0.172-1.913-0.227-2.859c-0.198-0.468,0.371-1.083,0.918-1.145C24.598,16.9,25.01,17.32,24.819,17.983z"/>
	<path fill-rule="evenodd" clip-rule="evenodd" fill="#FEF4F3" d="M24.721,30.41c0,0.783,0.004,1.565-0.001,2.349
		c-0.003,0.468-0.169,0.838-0.705,0.82c-0.511-0.018-0.701-0.376-0.703-0.842c-0.005-1.474-0.009-2.947,0.006-4.421
		c0.002-0.216,0.055-0.477,0.185-0.633c0.16-0.193,0.491-0.463,0.63-0.406c0.241,0.097,0.534,0.407,0.554,0.649
		c0.068,0.823,0.026,1.655,0.026,2.483C24.715,30.41,24.718,30.41,24.721,30.41z"/>
	<path fill-rule="evenodd" clip-rule="evenodd" fill="#FEEFED" d="M23.922,23.3c0.729-0.004,1.334,0.057,1.626,0.7
		c0.092,0.203,0.119,0.553,0.003,0.699c-0.107,0.135-0.545,0.204-0.664,0.101c-0.563-0.484-1.041-0.467-1.579,0.03
		c-0.1,0.093-0.485,0.055-0.57-0.055c-0.142-0.182-0.272-0.529-0.189-0.704C22.833,23.471,23.377,23.245,23.922,23.3z"/>
	<path fill-rule="evenodd" clip-rule="evenodd" fill="#FEF1EF" d="M24.033,25.244c0.725-0.008,1.307,0.122,1.562,0.773
		c0.076,0.196,0.016,0.513-0.104,0.692c-0.073,0.108-0.469,0.155-0.569,0.064c-0.535-0.485-1.028-0.555-1.561-0.019
		c-0.259,0.26-0.548,0.167-0.691-0.093c-0.111-0.201-0.17-0.543-0.073-0.726C22.912,25.343,23.485,25.188,24.033,25.244z"/>
	<path fill-rule="evenodd" clip-rule="evenodd" fill="#F2F8F1" d="M34.92,18.944c0-0.831,0.003-1.662-0.001-2.493
		c-0.002-0.385,0.176-0.669,0.563-0.601c0.27,0.048,0.512,0.284,0.75,0.458c0.055,0.04,0.058,0.171,0.058,0.26
		c0.003,1.569,0.021,3.14-0.009,4.709c-0.008,0.441-0.284,0.801-0.769,0.779c-0.541-0.023-0.611-0.439-0.601-0.896
		c0.017-0.738,0.004-1.478,0.004-2.216C34.917,18.944,34.919,18.944,34.92,18.944z"/>
	<path fill-rule="evenodd" clip-rule="evenodd" fill="#F5FAF4" d="M35.615,5.558c0.509,0.021,1.077,0.529,0.918,0.953
		c-0.454,1.21-0.122,2.446-0.245,3.661c-0.031,0.306-0.095,0.63-0.237,0.896c-0.086,0.161-0.388,0.348-0.528,0.306
		c-0.225-0.067-0.493-0.279-0.567-0.492c-0.101-0.287-0.025-0.633-0.04-0.952c-0.053-1.126,0.114-2.255-0.247-3.378
		C34.467,5.927,34.936,5.529,35.615,5.558z"/>
	<path fill-rule="evenodd" clip-rule="evenodd" fill="#F1F8F0" d="M37.305,14.907c-0.335,0.157-0.698,0.438-0.808,0.36
		c-0.636-0.452-1.198-0.465-1.82,0.012c-0.083,0.064-0.529-0.127-0.536-0.219c-0.02-0.29-0.003-0.665,0.166-0.869
		c0.581-0.7,1.781-0.725,2.454-0.086C36.947,14.282,37.06,14.538,37.305,14.907z"/>
	<path fill-rule="evenodd" clip-rule="evenodd" fill="#F2F8F1" d="M35.627,11.538c0.46,0.296,0.93,0.54,1.316,0.878
		c0.134,0.118,0.165,0.554,0.055,0.694c-0.122,0.154-0.577,0.266-0.689,0.168c-0.498-0.43-0.912-0.441-1.43-0.034
		c-0.141,0.111-0.67,0.02-0.688-0.058c-0.067-0.278-0.106-0.719,0.055-0.864C34.596,12.006,35.076,11.834,35.627,11.538z"/>
</g>
</svg>
