<?xml version="1.0" encoding="utf-8"?>
<!-- Generator: Adobe Illustrator 16.0.0, SVG Export Plug-In . SVG Version: 6.00 Build 0)  -->
<!DOCTYPE svg PUBLIC "-//W3C//DTD SVG 1.1//EN" "http://www.w3.org/Graphics/SVG/1.1/DTD/svg11.dtd">
<svg version="1.1" id="Layer_1" xmlns="http://www.w3.org/2000/svg" xmlns:xlink="http://www.w3.org/1999/xlink" x="0px" y="0px"
	 width="50px" height="50px" viewBox="0 0 50 50" enable-background="new 0 0 50 50" xml:space="preserve">
<g>
	<path fill-rule="evenodd" clip-rule="evenodd" fill="#141514" d="M14.235,35.249c-3.056-3.168-2.681-7.951,0.235-10.585
		c2.683-2.423,7.274-2.963,10.816,0.955c1.829-1.979,4.048-3.161,6.812-2.833c1.719,0.204,3.185,0.997,4.417,2.256
		c2.229,2.279,3.107,6.517-0.075,10.222c3.646,4.382,1.948,8.937-0.688,10.967c-2.956,2.276-7.241,2.337-10.429-1.364
		c-1.617,1.893-3.658,3.045-6.17,2.95c-1.871-0.069-3.54-0.784-4.927-2.146C11.963,43.45,10.873,39.067,14.235,35.249z
		 M17.26,35.253c-0.36,0.236-0.687,0.442-1.005,0.662c-2.45,1.696-2.902,4.679-1.877,6.996c0.943,2.134,3.897,3.895,6.746,2.875
		c2.074-0.741,3.734-2.517,3.823-5.152c0.061-1.807-0.675-3.379-2.185-4.498c-0.416-0.309-0.837-0.609-1.288-0.937
		c2.614-1.371,3.926-3.769,3.384-6.076c-0.628-2.673-2.599-4.418-4.965-4.59c-3.021-0.219-5.299,1.7-5.845,4.039
		C13.546,30.718,13.695,33.28,17.26,35.253z M33.354,35.262c2.855-1.756,3.96-4.075,3.243-6.692
		c-0.627-2.285-2.811-3.909-5.129-4.045c-2.583-0.151-4.818,1.674-5.562,3.87c-0.417,1.232-0.318,2.442,0.134,3.631
		c0.559,1.473,1.645,2.479,3.059,3.187c-3.706,2.713-4.515,6.089-2.152,8.813c2.283,2.633,5.801,2.751,8.263,0.347
		c1.245-1.215,1.623-2.771,1.489-4.494C36.526,37.661,35.119,36.349,33.354,35.262z M25.299,34.479c-0.83,0.78-0.83,0.78,0.078,1.6
		C26.081,35.207,26.081,35.207,25.299,34.479z"/>
	<path fill-rule="evenodd" clip-rule="evenodd" fill="#141414" d="M25.243,14.818c-3.375,3.841-8.164,3.489-10.992,0.744
		c-2.915-2.829-2.771-7.618-0.09-10.295c2.57-2.567,7.276-3.542,11.196,0.747c1.544-1.91,3.558-2.992,6.013-2.959
		c1.997,0.027,3.72,0.835,5.149,2.292c2.521,2.568,2.8,7.125-0.011,10.094C33.523,18.594,29.258,18.396,25.243,14.818z
		 M19.351,15.879c3.076,0.002,5.731-2.544,5.604-5.526c-0.151-3.541-2.904-5.571-5.634-5.548c-2.977,0.025-5.506,2.473-5.463,5.499
		C13.903,13.495,16.19,15.876,19.351,15.879z M36.739,10.376c0.1-3.333-2.726-5.61-5.529-5.572
		c-2.809,0.038-5.464,2.141-5.555,5.621c-0.077,2.932,2.556,5.445,5.527,5.454C34.381,15.888,36.739,13.552,36.739,10.376z"/>
	<path fill-rule="evenodd" clip-rule="evenodd" fill="#F4EDEC" d="M17.26,35.253c-3.565-1.973-3.714-4.535-3.212-6.682
		c0.546-2.339,2.824-4.258,5.845-4.039c2.366,0.172,4.337,1.917,4.965,4.59c0.542,2.308-0.77,4.705-3.384,6.076
		c0.45,0.327,0.872,0.628,1.288,0.937c1.51,1.119,2.246,2.691,2.185,4.498c-0.088,2.636-1.749,4.411-3.823,5.152
		c-2.849,1.02-5.803-0.741-6.746-2.875c-1.024-2.317-0.573-5.3,1.877-6.996C16.573,35.695,16.9,35.489,17.26,35.253z M14.779,40.496
		c-0.245,2.909,2.593,4.765,4.628,4.724c2.591-0.051,4.759-2.292,4.685-4.755c-0.072-2.361-1.924-4.6-4.78-4.619
		C17.094,35.831,14.533,37.946,14.779,40.496z M14.779,30.085c0.011,2.741,1.952,4.641,4.67,4.647
		c2.443,0.006,4.617-2.137,4.651-4.627c0.031-2.23-1.937-4.848-4.844-4.701C16.615,25.539,14.768,27.364,14.779,30.085z"/>
	<path fill-rule="evenodd" clip-rule="evenodd" fill="#F4EDED" d="M33.354,35.262c1.765,1.087,3.172,2.399,3.345,4.616
		c0.134,1.724-0.244,3.279-1.489,4.494c-2.462,2.404-5.979,2.286-8.263-0.347c-2.363-2.725-1.554-6.101,2.152-8.813
		c-1.414-0.707-2.5-1.714-3.059-3.187c-0.452-1.188-0.55-2.398-0.134-3.631c0.743-2.196,2.979-4.021,5.562-3.87
		c2.318,0.136,4.502,1.76,5.129,4.045C37.314,31.187,36.21,33.506,33.354,35.262z M35.825,40.497
		c0.238-2.556-2.318-4.669-4.534-4.651c-2.878,0.022-4.713,2.276-4.782,4.62c-0.073,2.468,2.096,4.747,4.689,4.74
		C33.89,45.199,35.826,43.248,35.825,40.497z M35.825,30.075c0.007-2.723-1.84-4.539-4.488-4.671
		c-2.872-0.143-4.87,2.434-4.835,4.713c0.038,2.497,2.212,4.624,4.664,4.615C33.878,34.724,35.817,32.814,35.825,30.075z"/>
	<path fill-rule="evenodd" clip-rule="evenodd" fill="#E2E0DF" d="M25.299,34.479c0.782,0.729,0.782,0.729,0.078,1.6
		C24.469,35.259,24.469,35.259,25.299,34.479z"/>
	<path fill-rule="evenodd" clip-rule="evenodd" fill="#EAE9ED" d="M19.351,15.879c-3.161-0.002-5.448-2.384-5.493-5.576
		c-0.043-3.026,2.486-5.473,5.463-5.499c2.73-0.023,5.483,2.007,5.634,5.548C25.083,13.334,22.427,15.881,19.351,15.879z
		 M19.301,15.014c2.657,0.2,4.761-2.16,4.795-4.605c0.038-2.661-2.411-4.806-4.714-4.73c-2.689,0.088-4.658,2.022-4.682,4.718
		C14.676,13.224,17.184,15.216,19.301,15.014z"/>
	<path fill-rule="evenodd" clip-rule="evenodd" fill="#EAE9ED" d="M36.739,10.376c0,3.175-2.358,5.511-5.557,5.502
		c-2.972-0.008-5.604-2.522-5.527-5.454c0.09-3.48,2.746-5.583,5.555-5.621C34.014,4.767,36.839,7.043,36.739,10.376z
		 M31.266,15.014c2.059,0.186,4.518-1.473,4.701-4.534c0.156-2.625-2.076-4.723-4.761-4.801c-2.274-0.066-4.727,2.021-4.697,4.719
		C26.536,12.959,28.747,15.208,31.266,15.014z"/>
	<path fill-rule="evenodd" clip-rule="evenodd" fill="#ED5958" d="M14.779,40.496c-0.246-2.55,2.315-4.665,4.533-4.65
		c2.856,0.02,4.708,2.258,4.78,4.619c0.075,2.463-2.093,4.704-4.685,4.755C17.372,45.261,14.534,43.405,14.779,40.496z
		 M19.361,39.511c-0.561-0.006-0.913,0.316-0.952,0.874c-0.04,0.564,0.504,1.203,1.024,1.203c0.434,0,1.003-0.613,1.021-1.099
		C20.469,40.059,19.865,39.517,19.361,39.511z M19.529,37.395c-0.414,0.036-0.668-0.018-0.794,0.086
		c-0.229,0.187-0.382,0.468-0.567,0.709c0.243,0.103,0.479,0.258,0.732,0.296c0.366,0.054,0.745,0.044,1.116,0.018
		c0.161-0.011,0.399-0.093,0.448-0.208c0.062-0.146,0.028-0.459-0.074-0.521C20.073,37.578,19.704,37.467,19.529,37.395z
		 M17.749,38.773c-0.579-0.346-0.908-0.076-1.122,0.451c-0.214,0.529-0.621,1.077-0.032,1.599c0.093,0.083,0.523-0.004,0.559-0.101
		C17.385,40.098,17.551,39.449,17.749,38.773z M19.077,43.095c-0.106-0.233-0.13-0.407-0.229-0.485
		c-0.419-0.331-0.847-0.657-1.304-0.933c-0.124-0.075-0.426-0.028-0.522,0.077c-0.102,0.11-0.14,0.46-0.058,0.528
		c0.482,0.4,0.993,0.774,1.531,1.094C18.593,43.435,18.863,43.204,19.077,43.095z M22.357,39.885
		c-0.118-0.253-0.314-0.734-0.574-1.18c-0.05-0.085-0.363-0.068-0.526-0.014c-0.087,0.029-0.185,0.257-0.157,0.364
		c0.142,0.556,0.299,1.111,0.505,1.645c0.047,0.121,0.307,0.196,0.476,0.215c0.066,0.007,0.185-0.193,0.225-0.316
		C22.35,40.464,22.332,40.31,22.357,39.885z M22.007,42.167c-0.298-0.471-0.516-0.71-0.917-0.394
		c-0.343,0.271-0.722,0.5-1.043,0.794c-0.14,0.128-0.174,0.371-0.255,0.562c0.209,0.074,0.498,0.274,0.615,0.201
		C20.969,42.98,21.485,42.557,22.007,42.167z"/>
	<path fill-rule="evenodd" clip-rule="evenodd" fill="#ED5857" d="M14.779,30.085c-0.011-2.721,1.836-4.546,4.477-4.68
		c2.908-0.147,4.875,2.47,4.844,4.701c-0.035,2.49-2.208,4.633-4.651,4.627C16.731,34.726,14.79,32.826,14.779,30.085z
		 M18.408,30.103c0.009,0.504,0.547,1.034,1.035,1.02c0.459-0.013,1.06-0.656,1.027-1.099c-0.035-0.473-0.625-0.99-1.125-0.988
		C18.725,29.039,18.395,29.414,18.408,30.103z M19.339,26.929c-0.223,0.045-0.537,0.048-0.786,0.177
		c-0.183,0.094-0.282,0.352-0.418,0.537c0.227,0.146,0.438,0.368,0.686,0.422c0.304,0.067,0.644,0.023,0.96-0.026
		c0.248-0.039,0.615-0.096,0.696-0.26c0.203-0.41-0.158-0.622-0.483-0.759C19.818,26.946,19.606,26.963,19.339,26.929z
		 M17.015,30.532c0.24-0.645,0.474-1.226,0.665-1.82c0.046-0.145-0.007-0.366-0.099-0.49c-0.06-0.081-0.361-0.116-0.4-0.062
		c-0.302,0.422-0.641,0.842-0.819,1.317C16.205,29.896,16.279,30.367,17.015,30.532z M18.718,32.908
		c0.062-0.06,0.208-0.138,0.246-0.252c0.042-0.124,0.038-0.349-0.041-0.414c-0.448-0.371-0.917-0.72-1.399-1.048
		c-0.1-0.067-0.354-0.072-0.413-0.002c-0.111,0.133-0.212,0.36-0.175,0.514C17.075,32.291,18.078,32.97,18.718,32.908z
		 M22.132,30.587c0.378-0.905,0.223-1.627-0.275-2.281c-0.087-0.115-0.378-0.175-0.52-0.119c-0.122,0.048-0.253,0.315-0.225,0.454
		c0.105,0.514,0.243,1.028,0.438,1.514C21.62,30.325,21.89,30.415,22.132,30.587z M22.005,31.486
		c-0.275-0.104-0.614-0.346-0.747-0.262c-0.567,0.359-1.074,0.814-1.616,1.246C20.583,33.131,20.72,33.074,22.005,31.486z"/>
	<path fill-rule="evenodd" clip-rule="evenodd" fill="#ED5958" d="M35.825,40.497c0.001,2.751-1.936,4.702-4.627,4.709
		c-2.594,0.007-4.763-2.272-4.689-4.74c0.069-2.344,1.904-4.598,4.782-4.62C33.507,35.828,36.063,37.941,35.825,40.497z
		 M31.238,41.583c0.536-0.053,1.023-0.703,0.951-1.269c-0.068-0.542-0.454-0.847-1.018-0.805c-0.518,0.039-1.07,0.609-1.015,1.047
		C30.226,41.083,30.797,41.626,31.238,41.583z M31.018,37.399c-0.152,0.06-0.505,0.127-0.758,0.323
		c-0.133,0.102-0.126,0.433-0.104,0.652c0.006,0.054,0.316,0.104,0.487,0.109c0.329,0.01,0.691-0.105,0.98-0.003
		c0.447,0.158,0.763-0.043,0.797-0.359c0.021-0.199-0.372-0.482-0.628-0.655C31.65,37.371,31.407,37.426,31.018,37.399z
		 M32.015,43.458c0.717-0.291,1.373-0.544,1.644-1.263c0.052-0.138-0.057-0.381-0.164-0.517c-0.057-0.072-0.312-0.076-0.41-0.012
		c-0.483,0.322-0.955,0.667-1.406,1.033c-0.08,0.065-0.103,0.306-0.047,0.409C31.71,43.255,31.886,43.348,32.015,43.458z
		 M28.27,39.896c0,0.357-0.025,0.464,0.006,0.551c0.062,0.169,0.156,0.326,0.236,0.488c0.193-0.11,0.493-0.178,0.558-0.339
		c0.194-0.485,0.322-1.003,0.419-1.519c0.024-0.127-0.14-0.383-0.265-0.42c-0.147-0.045-0.447,0.03-0.507,0.145
		C28.5,39.22,28.355,39.676,28.27,39.896z M32.762,38.744c0.147,0.37,0.261,0.634,0.357,0.904c0.115,0.321,0.186,0.662,0.336,0.964
		c0.07,0.141,0.314,0.313,0.427,0.282c0.155-0.043,0.328-0.247,0.374-0.414c0.145-0.529-0.275-1.569-0.756-1.813
		C33.334,38.584,33.064,38.706,32.762,38.744z M30.851,43.113c0.008-0.128,0.028-0.193,0.009-0.207
		c-0.572-0.429-1.145-0.86-1.735-1.263c-0.046-0.031-0.268,0.116-0.336,0.226c-0.057,0.089-0.061,0.309,0.004,0.362
		c0.482,0.401,0.971,0.803,1.501,1.136C30.395,43.431,30.685,43.194,30.851,43.113z"/>
	<path fill-rule="evenodd" clip-rule="evenodd" fill="#ED5958" d="M35.825,30.075c-0.008,2.739-1.947,4.648-4.659,4.657
		c-2.452,0.009-4.626-2.118-4.664-4.615c-0.035-2.279,1.963-4.855,4.835-4.713C33.985,25.536,35.832,27.353,35.825,30.075z
		 M31.303,29.036c-0.509-0.023-1.133,0.486-1.148,0.938c-0.018,0.483,0.523,1.117,0.977,1.145c0.498,0.03,1.038-0.469,1.06-0.979
		C32.22,29.454,31.906,29.063,31.303,29.036z M31.181,27.946c0.503,0.067,0.712,0.156,0.869,0.1c0.164-0.059,0.362-0.24,0.393-0.397
		c0.026-0.138-0.12-0.382-0.259-0.465c-0.594-0.354-1.23-0.366-1.818-0.009c-0.158,0.096-0.289,0.425-0.245,0.601
		c0.036,0.144,0.351,0.3,0.542,0.301C30.934,28.076,31.206,27.939,31.181,27.946z M33.594,30.479c0.117-0.022,0.31-0.001,0.38-0.083
		c0.51-0.599,0.186-1.954-0.534-2.236c-0.119-0.048-0.35-0.029-0.413,0.051c-0.095,0.121-0.158,0.346-0.111,0.485
		C33.112,29.287,33.354,29.863,33.594,30.479z M33.616,30.988c-0.651,0.416-1.113,0.765-1.624,1.019
		c-0.33,0.165-0.516,0.401-0.343,0.668c0.1,0.155,0.548,0.245,0.733,0.152c0.43-0.214,0.839-0.516,1.166-0.866
		C33.687,31.813,33.595,31.452,33.616,30.988z M29.177,31.085c-0.176,0.133-0.327,0.198-0.393,0.313
		c-0.054,0.096-0.061,0.294,0.003,0.368c0.257,0.299,0.53,0.592,0.834,0.841c0.35,0.287,0.804,0.604,1.136,0.066
		c0.35-0.563-0.318-0.547-0.574-0.758C29.85,31.638,29.516,31.363,29.177,31.085z M28.45,30.626
		c1.051-0.534,0.623-1.528,1.034-2.147c0.024-0.037-0.132-0.268-0.233-0.294c-0.119-0.03-0.307,0.026-0.4,0.114
		C28.189,28.913,28.138,29.655,28.45,30.626z"/>
	<path fill-rule="evenodd" clip-rule="evenodd" fill="#1C1B50" d="M19.301,15.014c-2.118,0.202-4.625-1.79-4.601-4.618
		c0.023-2.695,1.993-4.63,4.682-4.718c2.304-0.076,4.752,2.069,4.714,4.73C24.062,12.854,21.958,15.214,19.301,15.014z
		 M20.366,10.418c0.031-0.48-0.513-1.101-0.961-1.098c-0.464,0.003-0.998,0.579-0.998,1.076c0,0.533,0.364,0.946,0.873,0.99
		C19.821,11.434,20.331,10.98,20.366,10.418z M19.351,8.32c1.011-0.003,1.187-0.066,1.17-0.418
		c-0.016-0.341-0.686-0.636-1.332-0.581c-0.046,0.004-0.093,0.033-0.136,0.055c-0.32,0.164-0.926-0.02-0.906,0.545
		c0.02,0.559,0.513,0.468,0.908,0.421C19.154,8.332,19.252,8.327,19.351,8.32z M20.044,13.199c0.754,0.017,1.624-0.589,1.781-1.208
		c0.034-0.135-0.077-0.347-0.185-0.463c-0.067-0.073-0.296-0.092-0.383-0.034c-0.479,0.328-0.943,0.677-1.394,1.042
		c-0.092,0.074-0.183,0.284-0.142,0.36C19.801,13.042,19.975,13.138,20.044,13.199z M16.748,10.805
		c0.163-0.066,0.305-0.082,0.326-0.141c0.224-0.62,0.441-1.244,0.624-1.877c0.021-0.076-0.155-0.255-0.275-0.31
		c-0.106-0.049-0.295-0.04-0.389,0.026c-0.46,0.324-0.862,1.512-0.658,1.981C16.438,10.631,16.639,10.717,16.748,10.805z
		 M19.078,12.928c-0.139-0.207-0.194-0.35-0.297-0.432c-0.414-0.327-0.837-0.644-1.271-0.944c-0.103-0.071-0.344-0.121-0.381-0.073
		c-0.108,0.139-0.228,0.352-0.195,0.504c0.124,0.581,1.054,1.237,1.659,1.188C18.746,13.159,18.891,13.025,19.078,12.928z
		 M22.091,10.868c0.343-0.563,0.31-1.071,0.109-1.5c-0.169-0.362-0.651-0.942-0.792-0.889c-0.606,0.228-0.24,0.665-0.065,1.062
		c0.116,0.263,0.073,0.597,0.195,0.856C21.623,10.578,21.866,10.685,22.091,10.868z"/>
	<path fill-rule="evenodd" clip-rule="evenodd" fill="#1C1B50" d="M31.266,15.014c-2.519,0.194-4.729-2.055-4.757-4.616
		c-0.029-2.698,2.423-4.786,4.697-4.719c2.685,0.079,4.917,2.176,4.761,4.801C35.783,13.541,33.324,15.199,31.266,15.014z
		 M32.193,10.455c0.026-0.529-0.436-1.088-0.935-1.13c-0.448-0.038-1.033,0.55-1.035,1.041c-0.002,0.536,0.51,1.037,1.047,1.023
		C31.797,11.375,32.166,11.001,32.193,10.455z M30.901,12.935c-0.029-0.144-0.022-0.208-0.051-0.231
		c-0.532-0.428-1.063-0.86-1.615-1.263c-0.057-0.042-0.274,0.068-0.363,0.161c-0.079,0.083-0.143,0.255-0.112,0.359
		c0.184,0.632,1.086,1.285,1.704,1.219C30.627,13.165,30.774,13.01,30.901,12.935z M31.183,8.329
		c0.412-0.124,1.246,0.408,1.222-0.456c-0.016-0.566-0.833-0.591-1.328-0.497c-0.348,0.066-1.054-0.122-0.985,0.575
		C30.159,8.656,30.756,8.285,31.183,8.329z M34.412,10.195c-0.244-0.557-0.423-1.056-0.684-1.507
		c-0.08-0.139-0.384-0.148-0.586-0.217c-0.056,0.198-0.188,0.41-0.151,0.589c0.085,0.419,0.225,0.834,0.395,1.228
		c0.082,0.189,0.283,0.328,0.431,0.489C33.999,10.599,34.182,10.42,34.412,10.195z M31.999,13.213
		c0.818-0.07,1.252-0.553,1.625-1.084c0.079-0.113,0.021-0.406-0.079-0.53c-0.066-0.083-0.36-0.077-0.484,0
		c-0.416,0.257-0.814,0.547-1.189,0.861c-0.129,0.108-0.252,0.338-0.225,0.483C31.67,13.067,31.911,13.151,31.999,13.213z
		 M28.396,10.74c0.093,0.009,0.157,0.037,0.189,0.016c0.46-0.304,1.055-1.687,0.86-2.113c-0.042-0.092-0.474-0.146-0.562-0.057
		C28.284,9.197,28.139,9.933,28.396,10.74z"/>
	<path fill-rule="evenodd" clip-rule="evenodd" fill="#FDE7E4" d="M19.361,39.511c0.503,0.006,1.108,0.548,1.093,0.979
		c-0.017,0.485-0.586,1.099-1.021,1.099c-0.521,0-1.064-0.639-1.024-1.203C18.449,39.827,18.8,39.505,19.361,39.511z M19.425,40.037
		c-0.185,0.159-0.372,0.29-0.358,0.315c0.098,0.187,0.235,0.353,0.36,0.524c0.07-0.102,0.201-0.207,0.196-0.306
		C19.616,40.418,19.517,40.269,19.425,40.037z"/>
	<path fill-rule="evenodd" clip-rule="evenodd" fill="#FEEAE7" d="M19.529,37.395c0.175,0.072,0.544,0.184,0.861,0.379
		c0.102,0.063,0.135,0.376,0.074,0.521c-0.049,0.115-0.288,0.197-0.448,0.208c-0.371,0.026-0.75,0.036-1.116-0.018
		c-0.253-0.038-0.489-0.193-0.732-0.296c0.185-0.241,0.338-0.522,0.567-0.709C18.861,37.377,19.115,37.431,19.529,37.395z"/>
	<path fill-rule="evenodd" clip-rule="evenodd" fill="#FEEDEB" d="M17.749,38.773c-0.197,0.676-0.363,1.324-0.595,1.949
		c-0.036,0.097-0.466,0.184-0.559,0.101c-0.588-0.521-0.182-1.069,0.032-1.599C16.84,38.697,17.17,38.428,17.749,38.773z"/>
	<path fill-rule="evenodd" clip-rule="evenodd" fill="#FEEDEB" d="M19.077,43.095c-0.213,0.109-0.484,0.34-0.583,0.281
		c-0.538-0.319-1.049-0.693-1.531-1.094c-0.082-0.068-0.043-0.418,0.058-0.528c0.096-0.105,0.399-0.152,0.522-0.077
		c0.457,0.275,0.884,0.602,1.304,0.933C18.947,42.688,18.971,42.861,19.077,43.095z"/>
	<path fill-rule="evenodd" clip-rule="evenodd" fill="#FEEAE7" d="M22.357,39.885c-0.026,0.425-0.008,0.579-0.052,0.714
		c-0.041,0.123-0.159,0.323-0.225,0.316c-0.169-0.019-0.429-0.094-0.476-0.215c-0.206-0.533-0.363-1.089-0.505-1.645
		c-0.027-0.107,0.07-0.335,0.157-0.364c0.164-0.055,0.477-0.071,0.526,0.014C22.043,39.15,22.24,39.632,22.357,39.885z"/>
	<path fill-rule="evenodd" clip-rule="evenodd" fill="#FFF7F6" d="M22.007,42.167c-0.522,0.39-1.038,0.813-1.6,1.163
		c-0.118,0.073-0.406-0.127-0.615-0.201c0.082-0.19,0.116-0.434,0.255-0.562c0.321-0.294,0.7-0.523,1.043-0.794
		C21.491,41.457,21.708,41.696,22.007,42.167z"/>
	<path fill-rule="evenodd" clip-rule="evenodd" fill="#FDE7E4" d="M18.408,30.103c-0.013-0.688,0.317-1.063,0.937-1.067
		c0.501-0.002,1.09,0.516,1.125,0.988c0.033,0.442-0.568,1.086-1.027,1.099C18.955,31.137,18.417,30.606,18.408,30.103z
		 M19.284,29.561c-0.119,0.208-0.265,0.384-0.234,0.426c0.125,0.163,0.304,0.285,0.463,0.422c0.074-0.149,0.232-0.323,0.2-0.443
		C19.673,29.822,19.469,29.724,19.284,29.561z"/>
	<path fill-rule="evenodd" clip-rule="evenodd" fill="#FDE4E2" d="M19.339,26.929c0.268,0.034,0.479,0.018,0.654,0.091
		c0.326,0.137,0.687,0.349,0.483,0.759c-0.081,0.164-0.449,0.221-0.696,0.26c-0.316,0.05-0.656,0.094-0.96,0.026
		c-0.248-0.054-0.459-0.275-0.686-0.422c0.136-0.186,0.235-0.443,0.418-0.537C18.802,26.977,19.116,26.974,19.339,26.929z"/>
	<path fill-rule="evenodd" clip-rule="evenodd" fill="#FEEAE7" d="M17.015,30.532c-0.736-0.165-0.811-0.636-0.654-1.055
		c0.178-0.476,0.517-0.896,0.819-1.317c0.04-0.055,0.34-0.02,0.4,0.062c0.092,0.124,0.145,0.346,0.099,0.49
		C17.489,29.307,17.255,29.888,17.015,30.532z"/>
	<path fill-rule="evenodd" clip-rule="evenodd" fill="#FEEEEC" d="M18.718,32.908c-0.64,0.062-1.643-0.617-1.782-1.202
		c-0.037-0.153,0.064-0.381,0.175-0.514c0.059-0.07,0.313-0.065,0.413,0.002c0.482,0.328,0.951,0.677,1.399,1.048
		c0.079,0.065,0.083,0.29,0.041,0.414C18.925,32.771,18.779,32.849,18.718,32.908z"/>
	<path fill-rule="evenodd" clip-rule="evenodd" fill="#FEF0EE" d="M22.132,30.587c-0.242-0.172-0.512-0.262-0.581-0.433
		c-0.195-0.485-0.333-1-0.438-1.514c-0.028-0.139,0.104-0.406,0.225-0.454c0.141-0.056,0.432,0.004,0.52,0.119
		C22.355,28.96,22.51,29.682,22.132,30.587z"/>
	<path fill-rule="evenodd" clip-rule="evenodd" fill="#FEF2F0" d="M22.005,31.486c-1.286,1.588-1.422,1.645-2.363,0.984
		c0.542-0.432,1.049-0.887,1.616-1.246C21.391,31.141,21.73,31.383,22.005,31.486z"/>
	<path fill-rule="evenodd" clip-rule="evenodd" fill="#FDE5E3" d="M31.238,41.583c-0.441,0.043-1.013-0.5-1.081-1.026
		c-0.056-0.438,0.497-1.008,1.015-1.047c0.563-0.042,0.949,0.263,1.018,0.805C32.262,40.88,31.774,41.53,31.238,41.583z
		 M31.318,40.821c0.099-0.187,0.221-0.313,0.199-0.406c-0.022-0.097-0.185-0.161-0.286-0.239c-0.074,0.104-0.209,0.209-0.207,0.312
		C31.026,40.58,31.177,40.67,31.318,40.821z"/>
	<path fill-rule="evenodd" clip-rule="evenodd" fill="#FDE5E3" d="M31.018,37.399c0.39,0.026,0.633-0.028,0.774,0.067
		c0.256,0.173,0.648,0.456,0.628,0.655c-0.034,0.316-0.35,0.518-0.797,0.359c-0.289-0.103-0.651,0.013-0.98,0.003
		c-0.171-0.005-0.481-0.056-0.487-0.109c-0.021-0.22-0.028-0.551,0.104-0.652C30.513,37.526,30.865,37.459,31.018,37.399z"/>
	<path fill-rule="evenodd" clip-rule="evenodd" fill="#FEEEEC" d="M32.015,43.458c-0.129-0.11-0.305-0.203-0.384-0.349
		c-0.056-0.104-0.033-0.344,0.047-0.409c0.451-0.366,0.923-0.711,1.406-1.033c0.099-0.064,0.354-0.061,0.41,0.012
		c0.107,0.136,0.216,0.379,0.164,0.517C33.388,42.914,32.731,43.167,32.015,43.458z"/>
	<path fill-rule="evenodd" clip-rule="evenodd" fill="#FEF0EE" d="M28.27,39.896c0.086-0.22,0.23-0.676,0.447-1.094
		c0.06-0.114,0.359-0.189,0.507-0.145c0.125,0.037,0.289,0.293,0.265,0.42c-0.097,0.516-0.225,1.033-0.419,1.519
		c-0.064,0.161-0.364,0.229-0.558,0.339c-0.08-0.162-0.175-0.319-0.236-0.488C28.244,40.359,28.27,40.253,28.27,39.896z"/>
	<path fill-rule="evenodd" clip-rule="evenodd" fill="#FEEDEB" d="M32.762,38.744c0.303-0.038,0.572-0.16,0.738-0.076
		c0.48,0.243,0.9,1.283,0.756,1.813c-0.046,0.167-0.219,0.371-0.374,0.414c-0.112,0.031-0.356-0.142-0.427-0.282
		c-0.15-0.302-0.221-0.643-0.336-0.964C33.022,39.378,32.909,39.114,32.762,38.744z"/>
	<path fill-rule="evenodd" clip-rule="evenodd" fill="#FFF7F6" d="M30.851,43.113c-0.166,0.081-0.456,0.317-0.558,0.254
		c-0.53-0.333-1.019-0.734-1.501-1.136c-0.064-0.054-0.061-0.273-0.004-0.362c0.068-0.109,0.29-0.257,0.336-0.226
		c0.591,0.402,1.163,0.834,1.735,1.263C30.879,42.92,30.858,42.985,30.851,43.113z"/>
	<path fill-rule="evenodd" clip-rule="evenodd" fill="#FDE7E4" d="M31.303,29.036c0.604,0.027,0.917,0.418,0.888,1.103
		c-0.021,0.511-0.562,1.01-1.06,0.979c-0.453-0.027-0.994-0.661-0.977-1.145C30.17,29.522,30.794,29.013,31.303,29.036z
		 M31.179,30.52c0.159-0.203,0.336-0.335,0.356-0.486c0.013-0.1-0.2-0.229-0.312-0.346c-0.086,0.142-0.209,0.274-0.244,0.428
		C30.959,30.205,31.078,30.328,31.179,30.52z"/>
	<path fill-rule="evenodd" clip-rule="evenodd" fill="#FDE4E2" d="M31.181,27.946c0.025-0.007-0.247,0.13-0.519,0.13
		c-0.191-0.001-0.506-0.157-0.542-0.301c-0.044-0.176,0.087-0.505,0.245-0.601c0.588-0.357,1.225-0.346,1.818,0.009
		c0.139,0.083,0.285,0.327,0.259,0.465c-0.03,0.157-0.229,0.339-0.393,0.397C31.893,28.103,31.684,28.014,31.181,27.946z"/>
	<path fill-rule="evenodd" clip-rule="evenodd" fill="#FEEDEB" d="M33.594,30.479c-0.239-0.616-0.481-1.192-0.679-1.783
		c-0.047-0.14,0.017-0.364,0.111-0.485c0.063-0.08,0.294-0.099,0.413-0.051c0.72,0.282,1.044,1.638,0.534,2.236
		C33.903,30.479,33.711,30.457,33.594,30.479z"/>
	<path fill-rule="evenodd" clip-rule="evenodd" fill="#FEEEEC" d="M33.616,30.988c-0.021,0.464,0.07,0.825-0.067,0.973
		c-0.327,0.351-0.736,0.652-1.166,0.866c-0.186,0.093-0.634,0.003-0.733-0.152c-0.173-0.267,0.013-0.503,0.343-0.668
		C32.503,31.753,32.965,31.404,33.616,30.988z"/>
	<path fill-rule="evenodd" clip-rule="evenodd" fill="#FEF2F0" d="M29.177,31.085c0.339,0.278,0.673,0.553,1.006,0.83
		c0.256,0.211,0.924,0.195,0.574,0.758c-0.332,0.537-0.786,0.221-1.136-0.066c-0.304-0.249-0.577-0.542-0.834-0.841
		c-0.063-0.074-0.057-0.272-0.003-0.368C28.85,31.283,29.001,31.218,29.177,31.085z"/>
	<path fill-rule="evenodd" clip-rule="evenodd" fill="#FEF2F0" d="M28.45,30.626c-0.313-0.971-0.261-1.713,0.4-2.327
		c0.094-0.088,0.281-0.145,0.4-0.114c0.102,0.026,0.258,0.257,0.233,0.294C29.073,29.098,29.501,30.092,28.45,30.626z"/>
	<path fill-rule="evenodd" clip-rule="evenodd" fill="#DFDEEA" d="M20.366,10.418c-0.036,0.562-0.545,1.016-1.087,0.968
		c-0.509-0.044-0.873-0.457-0.873-0.99c0-0.497,0.534-1.072,0.998-1.076C19.854,9.318,20.397,9.938,20.366,10.418z M19.408,9.82
		c-0.167,0.203-0.346,0.326-0.364,0.468c-0.019,0.148,0.118,0.316,0.187,0.476c0.181-0.129,0.398-0.231,0.52-0.401
		C19.79,10.309,19.572,10.072,19.408,9.82z"/>
	<path fill-rule="evenodd" clip-rule="evenodd" fill="#DDDDE9" d="M19.351,8.32c-0.099,0.007-0.197,0.012-0.295,0.023
		c-0.395,0.047-0.888,0.138-0.908-0.421c-0.021-0.564,0.585-0.381,0.906-0.545c0.043-0.022,0.09-0.051,0.136-0.055
		c0.646-0.055,1.316,0.239,1.332,0.581C20.538,8.254,20.361,8.317,19.351,8.32z"/>
	<path fill-rule="evenodd" clip-rule="evenodd" fill="#CDCBDD" d="M20.044,13.199c-0.07-0.061-0.244-0.157-0.323-0.304
		c-0.041-0.076,0.05-0.286,0.142-0.36c0.451-0.364,0.916-0.714,1.394-1.042c0.086-0.059,0.315-0.039,0.383,0.034
		c0.108,0.117,0.219,0.329,0.185,0.463C21.668,12.609,20.798,13.215,20.044,13.199z"/>
	<path fill-rule="evenodd" clip-rule="evenodd" fill="#DFDEEA" d="M16.748,10.805c-0.108-0.088-0.309-0.174-0.373-0.32
		c-0.204-0.469,0.198-1.657,0.658-1.981c0.094-0.066,0.283-0.075,0.389-0.026c0.12,0.055,0.296,0.234,0.275,0.31
		c-0.183,0.633-0.399,1.257-0.624,1.877C17.052,10.723,16.91,10.739,16.748,10.805z"/>
	<path fill-rule="evenodd" clip-rule="evenodd" fill="#EAE9F1" d="M19.078,12.928c-0.187,0.098-0.332,0.231-0.486,0.244
		c-0.605,0.049-1.535-0.607-1.659-1.188c-0.033-0.152,0.087-0.365,0.195-0.504c0.038-0.048,0.278,0.002,0.381,0.073
		c0.434,0.3,0.857,0.617,1.271,0.944C18.884,12.578,18.939,12.721,19.078,12.928z"/>
	<path fill-rule="evenodd" clip-rule="evenodd" fill="#EFEFF7" d="M22.091,10.868c-0.225-0.184-0.468-0.291-0.553-0.472
		c-0.122-0.259-0.079-0.593-0.195-0.856c-0.175-0.397-0.541-0.834,0.065-1.062c0.142-0.053,0.624,0.527,0.792,0.889
		C22.4,9.797,22.434,10.305,22.091,10.868z"/>
	<path fill-rule="evenodd" clip-rule="evenodd" fill="#DDDDE9" d="M32.193,10.455c-0.027,0.547-0.396,0.92-0.923,0.934
		c-0.537,0.014-1.049-0.487-1.047-1.023c0.002-0.49,0.587-1.078,1.035-1.041C31.758,9.367,32.22,9.926,32.193,10.455z
		 M31.721,10.484c-0.189-0.236-0.298-0.372-0.406-0.506c-0.125,0.112-0.339,0.214-0.351,0.337c-0.014,0.138,0.124,0.353,0.256,0.42
		C31.301,10.777,31.491,10.606,31.721,10.484z"/>
	<path fill-rule="evenodd" clip-rule="evenodd" fill="#D7D6E5" d="M30.901,12.935c-0.127,0.075-0.274,0.229-0.438,0.246
		c-0.618,0.065-1.521-0.587-1.704-1.219c-0.03-0.104,0.033-0.276,0.112-0.359c0.089-0.093,0.307-0.203,0.363-0.161
		c0.552,0.403,1.083,0.834,1.615,1.263C30.879,12.727,30.872,12.792,30.901,12.935z"/>
	<path fill-rule="evenodd" clip-rule="evenodd" fill="#DDDDE9" d="M31.183,8.329c-0.427-0.043-1.023,0.327-1.092-0.377
		c-0.068-0.697,0.638-0.509,0.985-0.575c0.495-0.095,1.313-0.069,1.328,0.497C32.429,8.737,31.595,8.205,31.183,8.329z"/>
	<path fill-rule="evenodd" clip-rule="evenodd" fill="#DFDEEA" d="M34.412,10.195c-0.23,0.225-0.413,0.404-0.596,0.583
		c-0.147-0.162-0.349-0.3-0.431-0.489c-0.17-0.394-0.31-0.809-0.395-1.228c-0.037-0.179,0.096-0.392,0.151-0.589
		c0.202,0.069,0.506,0.078,0.586,0.217C33.989,9.14,34.168,9.639,34.412,10.195z"/>
	<path fill-rule="evenodd" clip-rule="evenodd" fill="#EAE9F1" d="M31.999,13.213c-0.088-0.062-0.329-0.146-0.353-0.271
		c-0.027-0.145,0.096-0.375,0.225-0.483c0.375-0.314,0.773-0.604,1.189-0.861c0.124-0.077,0.418-0.083,0.484,0
		c0.101,0.125,0.158,0.417,0.079,0.53C33.251,12.66,32.817,13.143,31.999,13.213z"/>
	<path fill-rule="evenodd" clip-rule="evenodd" fill="#EFEFF7" d="M28.396,10.74c-0.257-0.808-0.111-1.543,0.488-2.154
		c0.088-0.09,0.52-0.036,0.562,0.057c0.194,0.426-0.4,1.81-0.86,2.113C28.553,10.777,28.488,10.75,28.396,10.74z"/>
	<path fill-rule="evenodd" clip-rule="evenodd" fill="#EF6866" d="M19.425,40.037c0.092,0.231,0.191,0.381,0.198,0.534
		c0.004,0.099-0.126,0.204-0.196,0.306c-0.125-0.172-0.263-0.338-0.36-0.524C19.053,40.327,19.24,40.196,19.425,40.037z"/>
	<path fill-rule="evenodd" clip-rule="evenodd" fill="#F07370" d="M19.284,29.561c0.185,0.163,0.389,0.262,0.428,0.404
		c0.033,0.12-0.126,0.294-0.2,0.443c-0.159-0.137-0.338-0.259-0.463-0.422C19.019,29.944,19.166,29.769,19.284,29.561z"/>
	<path fill-rule="evenodd" clip-rule="evenodd" fill="#ED5C5B" d="M31.318,40.821c-0.142-0.151-0.292-0.241-0.294-0.334
		c-0.002-0.103,0.133-0.208,0.207-0.312c0.102,0.078,0.264,0.143,0.286,0.239C31.539,40.508,31.417,40.635,31.318,40.821z"/>
	<path fill-rule="evenodd" clip-rule="evenodd" fill="#EF6866" d="M31.179,30.52c-0.101-0.191-0.22-0.314-0.199-0.404
		c0.035-0.153,0.158-0.286,0.244-0.428c0.111,0.116,0.324,0.246,0.312,0.346C31.515,30.185,31.338,30.316,31.179,30.52z"/>
	<path fill-rule="evenodd" clip-rule="evenodd" fill="#474675" d="M19.408,9.82c0.165,0.252,0.382,0.489,0.343,0.543
		c-0.122,0.17-0.339,0.272-0.52,0.401c-0.069-0.16-0.206-0.328-0.187-0.476C19.062,10.146,19.241,10.023,19.408,9.82z"/>
	<path fill-rule="evenodd" clip-rule="evenodd" fill="#3B3A6B" d="M31.721,10.484c-0.229,0.122-0.42,0.293-0.501,0.251
		c-0.132-0.067-0.27-0.283-0.256-0.42c0.012-0.123,0.226-0.226,0.351-0.337C31.423,10.112,31.531,10.248,31.721,10.484z"/>
</g>
</svg>
