<?xml version="1.0" encoding="utf-8"?>
<!-- Generator: Adobe Illustrator 16.0.0, SVG Export Plug-In . SVG Version: 6.00 Build 0)  -->
<!DOCTYPE svg PUBLIC "-//W3C//DTD SVG 1.1//EN" "http://www.w3.org/Graphics/SVG/1.1/DTD/svg11.dtd">
<svg version="1.1" id="Layer_1" xmlns="http://www.w3.org/2000/svg" xmlns:xlink="http://www.w3.org/1999/xlink" x="0px" y="0px"
	 width="50px" height="50px" viewBox="0 0 50 50" enable-background="new 0 0 50 50" xml:space="preserve">
<g>
	<path fill-rule="evenodd" clip-rule="evenodd" fill="#151615" d="M29.923,44.836c-2.785,2.533-6.609,2.64-9.57,0
		c-1.586,1.52-3.514,2.151-5.687,1.891c-1.525-0.184-2.853-0.882-3.908-2.002c-2.438-2.589-2.314-6.513-0.242-8.927
		c2.04-2.376,6.111-3.587,9.826-0.461c3.534-2.784,6.888-2.225,9.582,0.04c1.811-1.588,3.934-2.282,6.345-1.741
		c1.558,0.349,2.82,1.228,3.777,2.498c1.945,2.583,1.732,6.468-0.721,8.801C36.924,47.219,33.007,47.617,29.923,44.836z
		 M20.358,38.267c-1.333-2.436-3.443-3.623-5.532-3.168c-2.495,0.543-4.058,2.2-4.223,4.479c-0.184,2.545,1.028,4.463,3.326,5.306
		c1.02,0.374,2.075,0.374,3.077,0.11c1.546-0.407,2.59-1.514,3.345-2.94c2.194,4.049,7.231,4.274,9.586,0.056
		c2.016,3.352,4.269,3.355,6.239,2.838c2.05-0.539,3.586-2.335,3.606-4.88c0.02-2.271-1.608-4.208-3.698-4.835
		c-2.131-0.639-4.872,0.292-6.153,2.989C27.705,33.764,22.255,34.198,20.358,38.267z"/>
	<path fill-rule="evenodd" clip-rule="evenodd" fill="#151615" d="M29.916,14.905c-2.732,2.291-6.087,2.787-9.571,0.031
		c-3.78,3.169-7.887,1.903-9.915-0.562c-2.063-2.507-2.056-6.419,0.421-8.918c2.448-2.47,6.547-2.758,9.5-0.019
		c1.567-1.379,3.385-2.126,5.53-1.908c1.549,0.158,2.828,0.872,4.042,1.908c1.632-1.514,3.593-2.192,5.811-1.878
		c1.514,0.214,2.837,0.926,3.877,2.066c2.367,2.597,2.188,6.585,0.094,8.935C37.619,16.9,33.557,17.98,29.916,14.905z
		 M29.934,12.056c1.271,2.678,3.998,3.63,6.155,2.985c2.083-0.624,3.717-2.575,3.694-4.839c-0.026-2.552-1.561-4.339-3.611-4.876
		c-1.964-0.515-4.215-0.522-6.272,2.898c-1.028-1.886-2.464-3.072-4.72-3.107c-2.307-0.036-3.704,1.277-4.832,3.095
		c-1.854-3.236-4.018-3.378-6.043-2.948c-2.059,0.437-3.731,2.426-3.75,4.753c-0.021,2.493,1.433,4.237,3.479,4.985
		c1.263,0.461,2.489,0.274,3.692-0.252c1.232-0.539,2.027-1.514,2.635-2.737C22.216,16.021,27.647,16.563,29.934,12.056z"/>
	<path fill-rule="evenodd" clip-rule="evenodd" fill="#141514" d="M20.342,20.44c3.061-2.625,6.727-2.507,9.592,0.019
		c3.408-3.044,7.59-2.13,9.752,0.244c2.305,2.531,2.125,6.725-0.101,9.051c-2.281,2.386-6.512,3.056-9.674,0.099
		c-1.296,1.307-2.907,1.995-4.725,2.002c-1.82,0.008-3.452-0.652-4.757-1.934c-3.928,3.263-8.01,1.853-9.905-0.434
		c-2.205-2.66-2.109-6.516,0.379-9.022C13.363,17.988,17.516,17.759,20.342,20.44z M29.921,27.017
		c1.324,2.7,3.927,3.823,6.354,3.004c2.455-0.828,3.598-2.729,3.524-4.95c-0.083-2.502-1.447-4.102-3.737-4.795
		c-2.467-0.746-4.637,0.426-6.136,3.108c-0.977-1.961-2.419-3.193-4.731-3.233c-2.301-0.039-3.741,1.228-4.849,3.09
		c-1.617-3.13-4.042-3.448-6.142-2.922c-2.091,0.524-3.66,2.55-3.631,4.999c0.025,2.112,1.779,4.386,4.018,4.818
		c2.357,0.456,4.391-0.523,5.749-3.021C22.824,31.739,28.203,30.897,29.921,27.017z"/>
	<path fill-rule="evenodd" clip-rule="evenodd" fill="#EAE9ED" d="M20.358,38.267c1.896-4.068,7.347-4.503,9.572-0.045
		c1.281-2.697,4.022-3.628,6.153-2.989c2.09,0.627,3.718,2.563,3.698,4.835c-0.021,2.545-1.557,4.341-3.606,4.88
		c-1.971,0.518-4.224,0.514-6.239-2.838c-2.354,4.219-7.392,3.993-9.586-0.056c-0.755,1.427-1.798,2.533-3.345,2.94
		c-1.002,0.264-2.057,0.264-3.077-0.11c-2.298-0.843-3.51-2.761-3.326-5.306c0.165-2.279,1.728-3.937,4.223-4.479
		C16.916,34.644,19.025,35.831,20.358,38.267z M15.625,44.374c2.761,0.032,4.347-2.256,4.285-4.281
		c-0.086-2.808-2.315-4.371-4.336-4.271c-2.705,0.135-4.25,1.86-4.285,4.308C11.254,42.574,13.21,44.434,15.625,44.374z
		 M34.64,44.374c2.438,0.063,4.269-1.758,4.395-4.214c0.116-2.276-1.974-4.32-4.285-4.354c-2.309-0.034-4.443,1.958-4.384,4.256
		C30.427,42.433,32.096,44.378,34.64,44.374z M25.156,44.374c2.517,0.027,4.215-1.835,4.325-4.262
		c0.103-2.278-2.029-4.389-4.331-4.288c-2.791,0.122-4.262,1.919-4.31,4.287C20.791,42.514,22.707,44.42,25.156,44.374z"/>
	<path fill-rule="evenodd" clip-rule="evenodd" fill="#EAE9ED" d="M29.934,12.056c-2.286,4.507-7.718,3.965-9.572-0.044
		c-0.608,1.224-1.403,2.199-2.635,2.737c-1.203,0.526-2.429,0.713-3.692,0.252c-2.047-0.748-3.5-2.492-3.479-4.985
		c0.019-2.327,1.691-4.316,3.75-4.753c2.025-0.43,4.189-0.288,6.043,2.948c1.128-1.818,2.524-3.131,4.832-3.095
		c2.256,0.035,3.691,1.222,4.72,3.107c2.058-3.42,4.309-3.413,6.272-2.898c2.051,0.537,3.585,2.324,3.611,4.876
		c0.022,2.264-1.611,4.215-3.694,4.839C33.932,15.686,31.204,14.733,29.934,12.056z M25.155,5.899
		c-2.481-0.073-4.381,1.93-4.319,4.261c0.075,2.814,2.095,4.255,4.311,4.298c2.32,0.045,4.393-1.986,4.336-4.298
		C29.43,7.964,27.808,5.858,25.155,5.899z M34.609,14.468c2.634-0.113,4.37-1.777,4.398-4.354c0.026-2.356-1.87-4.207-4.227-4.225
		c-2.641-0.021-4.442,1.914-4.392,4.317C30.445,12.876,32.441,14.365,34.609,14.468z M15.66,5.9
		c-2.245-0.073-4.217,1.524-4.397,4.212c-0.149,2.234,1.955,4.319,4.275,4.356c2.315,0.037,4.375-1.924,4.387-4.256
		C19.935,8.253,18.468,5.887,15.66,5.9z"/>
	<path fill-rule="evenodd" clip-rule="evenodd" fill="#F2EBEB" d="M29.921,27.017c-1.718,3.881-7.097,4.723-9.581,0.099
		c-1.358,2.497-3.392,3.477-5.749,3.021c-2.239-0.433-3.993-2.706-4.018-4.818c-0.029-2.449,1.54-4.475,3.631-4.999
		c2.1-0.526,4.525-0.208,6.142,2.922c1.108-1.862,2.547-3.129,4.849-3.09c2.312,0.04,3.754,1.271,4.731,3.233
		c1.499-2.683,3.669-3.854,6.136-3.108c2.29,0.693,3.654,2.293,3.737,4.795c0.073,2.222-1.069,4.122-3.524,4.95
		C33.848,30.84,31.245,29.717,29.921,27.017z M25.135,20.84c-2.671,0.286-4.108,1.75-4.322,4.338
		c-0.18,2.186,2.063,4.333,4.327,4.331c2.266-0.002,4.506-2.15,4.32-4.335C29.24,22.571,27.797,21.123,25.135,20.84z M39.068,25.156
		c-0.104-1.947-1.613-4.256-4.404-4.21c-2.272,0.038-4.198,1.869-4.271,4.221c-0.07,2.285,2.068,4.445,4.33,4.317
		C37.407,29.33,38.816,27.661,39.068,25.156z M15.78,20.985c-2.5-0.042-4.233,1.618-4.376,3.99c-0.179,2.951,2.271,4.525,4.172,4.51
		c2.457-0.021,4.351-1.896,4.351-4.256C19.926,23.009,18.19,20.874,15.78,20.985z"/>
	<path fill-rule="evenodd" clip-rule="evenodd" fill="#1E1E51" d="M15.625,44.374c-2.415,0.06-4.372-1.8-4.336-4.244
		c0.035-2.447,1.581-4.173,4.285-4.308c2.021-0.101,4.25,1.463,4.336,4.271C19.972,42.118,18.387,44.406,15.625,44.374z
		 M16.451,40.068c-0.019-0.433-0.439-0.874-0.842-0.885c-0.447-0.011-0.888,0.49-0.871,0.99c0.019,0.541,0.298,0.818,0.833,0.827
		C16.133,41.01,16.476,40.647,16.451,40.068z M16.227,42.771c0.59-0.085,1.574-0.626,1.613-1.221
		c0.007-0.106-0.046-0.254-0.124-0.319c-0.086-0.071-0.278-0.138-0.346-0.092c-0.477,0.323-0.942,0.667-1.391,1.027
		c-0.067,0.054-0.079,0.253-0.035,0.348C15.995,42.623,16.135,42.691,16.227,42.771z M14.054,38.648
		c-0.022-0.032-0.076-0.201-0.171-0.228c-0.142-0.04-0.422-0.028-0.453,0.044c-0.225,0.523-0.42,1.063-0.578,1.61
		c-0.025,0.087,0.172,0.318,0.296,0.346c0.138,0.029,0.414-0.062,0.45-0.164C13.777,39.756,13.896,39.233,14.054,38.648z
		 M18.421,39.901c-0.196-0.468-0.362-0.926-0.585-1.354c-0.061-0.116-0.327-0.229-0.442-0.186c-0.111,0.041-0.227,0.296-0.203,0.434
		c0.075,0.439,0.179,0.882,0.345,1.294c0.063,0.158,0.323,0.326,0.49,0.323C18.144,40.41,18.256,40.128,18.421,39.901z
		 M15.31,37.434c-0.029,0.004-0.311,0.001-0.553,0.098c-0.121,0.048-0.242,0.287-0.227,0.425c0.012,0.11,0.221,0.269,0.356,0.284
		c0.355,0.04,0.719,0.018,1.079,0.012c0.298-0.004,0.696,0.109,0.685-0.386c-0.009-0.445-0.377-0.424-0.695-0.432
		C15.82,37.431,15.685,37.434,15.31,37.434z M13.6,41.05c-0.084,0.241-0.258,0.539-0.198,0.599c0.371,0.364,0.775,0.706,1.213,0.983
		c0.13,0.082,0.406-0.066,0.614-0.108c-0.086-0.183-0.13-0.409-0.268-0.536c-0.292-0.271-0.628-0.492-0.953-0.726
		C13.91,41.191,13.792,41.148,13.6,41.05z"/>
	<path fill-rule="evenodd" clip-rule="evenodd" fill="#1D1D51" d="M34.64,44.374c-2.544,0.004-4.213-1.941-4.274-4.313
		c-0.06-2.298,2.075-4.29,4.384-4.256c2.312,0.034,4.401,2.078,4.285,4.354C38.908,42.616,37.078,44.437,34.64,44.374z
		 M35.548,40.138c-0.003-0.502-0.47-0.997-0.901-0.956c-0.396,0.038-0.786,0.498-0.797,0.936c-0.015,0.577,0.337,0.919,0.909,0.886
		C35.284,40.972,35.551,40.68,35.548,40.138z M34.386,42.521c-0.018-0.144,0.005-0.271-0.043-0.309
		c-0.489-0.386-0.983-0.766-1.493-1.121c-0.054-0.037-0.254,0.067-0.328,0.154c-0.066,0.077-0.094,0.234-0.067,0.337
		c0.139,0.527,0.961,1.173,1.515,1.165C34.115,42.746,34.26,42.594,34.386,42.521z M35.512,42.888
		c0.462-0.375,0.92-0.719,1.335-1.107c0.077-0.072,0.035-0.37-0.054-0.484c-0.067-0.087-0.341-0.118-0.447-0.053
		c-0.421,0.262-0.819,0.561-1.207,0.87c-0.082,0.065-0.147,0.272-0.104,0.348C35.111,42.6,35.277,42.688,35.512,42.888z
		 M37.574,39.861c-0.229-0.488-0.413-0.931-0.649-1.343c-0.063-0.109-0.377-0.216-0.42-0.171c-0.125,0.126-0.254,0.346-0.227,0.502
		c0.065,0.383,0.185,0.767,0.35,1.117c0.091,0.194,0.318,0.323,0.485,0.481C37.254,40.27,37.394,40.091,37.574,39.861z
		 M32.901,38.244c-0.192,0.115-0.33,0.157-0.407,0.25c-0.39,0.467-0.609,1.002-0.509,1.615c0.021,0.128,0.199,0.311,0.316,0.32
		c0.142,0.012,0.387-0.1,0.431-0.217c0.17-0.455,0.308-0.929,0.395-1.406C33.155,38.65,32.993,38.46,32.901,38.244z M34.613,38.253
		c0.384-0.126,1.09,0.325,1.128-0.328c0.045-0.771-0.727-0.46-1.157-0.485c-0.357-0.021-0.965-0.177-0.942,0.446
		C33.666,38.547,34.267,38.15,34.613,38.253z"/>
	<path fill-rule="evenodd" clip-rule="evenodd" fill="#1D1D51" d="M25.156,44.374c-2.449,0.046-4.365-1.86-4.316-4.263
		c0.048-2.368,1.519-4.165,4.31-4.287c2.302-0.101,4.434,2.01,4.331,4.288C29.371,42.539,27.673,44.401,25.156,44.374z
		 M25.993,40.168c0.014-0.511-0.427-1.007-0.876-0.987c-0.385,0.017-0.8,0.475-0.821,0.906c-0.029,0.59,0.295,0.931,0.874,0.916
		C25.697,40.989,25.979,40.704,25.993,40.168z M27.326,40.875c-0.686,0.48-1.058,0.724-1.41,0.993
		c-0.225,0.171-0.658,0.277-0.392,0.694c0.223,0.35,0.588,0.157,0.834,0.043c0.316-0.148,0.637-0.376,0.836-0.654
		C27.333,41.759,27.271,41.422,27.326,40.875z M23.05,40.928c-0.029,0.413-0.154,0.773-0.043,0.873
		c0.385,0.35,0.841,0.626,1.295,0.887c0.096,0.056,0.298-0.073,0.452-0.118c-0.056-0.186-0.055-0.44-0.179-0.544
		C24.166,41.683,23.71,41.395,23.05,40.928z M28.011,39.872c-0.235-0.502-0.419-0.95-0.658-1.368
		c-0.059-0.104-0.295-0.105-0.449-0.153c-0.057,0.185-0.183,0.38-0.155,0.551c0.064,0.391,0.173,0.783,0.328,1.146
		c0.071,0.167,0.295,0.27,0.448,0.402C27.671,40.275,27.817,40.101,28.011,39.872z M22.332,39.863
		c0.107,0.175,0.191,0.502,0.363,0.558c0.413,0.133,0.535-0.167,0.544-0.543c0.004-0.174,0.061-0.354,0.128-0.518
		c0.143-0.353,0.532-0.812-0.043-0.999c-0.485-0.157-0.592,0.431-0.757,0.781C22.474,39.343,22.427,39.564,22.332,39.863z
		 M25.058,38.236c0.171,0.008,0.308,0.021,0.443,0.018c0.298-0.009,0.705,0.119,0.713-0.371c0.008-0.447-0.364-0.442-0.688-0.451
		c-0.136-0.004-0.277-0.032-0.408-0.007c-0.396,0.074-1.077-0.202-1.031,0.504C24.128,38.563,24.747,38.14,25.058,38.236z"/>
	<path fill-rule="evenodd" clip-rule="evenodd" fill="#1E1E52" d="M25.155,5.899c2.652-0.041,4.274,2.064,4.328,4.26
		c0.057,2.313-2.017,4.343-4.336,4.298c-2.216-0.042-4.236-1.483-4.311-4.298C20.774,7.829,22.674,5.827,25.155,5.899z
		 M25.114,9.271c-0.536,0.017-0.802,0.291-0.814,0.838c-0.011,0.505,0.438,1.01,0.873,0.983c0.462-0.029,0.854-0.53,0.817-1.043
		C25.95,9.522,25.65,9.255,25.114,9.271z M26.199,8.211c0.014-0.137,0.027-0.273,0.041-0.41c-0.465-0.562-1.107-0.512-1.748-0.333
		c-0.17,0.047-0.287,0.288-0.428,0.44c0.202,0.101,0.397,0.272,0.605,0.29C25.177,8.24,25.689,8.211,26.199,8.211z M25.824,12.804
		c0.528,0.016,1.459-0.699,1.535-1.182c0.018-0.112-0.051-0.285-0.139-0.353c-0.077-0.06-0.269-0.06-0.356-0.003
		c-0.415,0.265-0.824,0.544-1.206,0.854c-0.096,0.078-0.131,0.299-0.104,0.436C25.574,12.658,25.739,12.732,25.824,12.804z
		 M24.919,12.4c-0.522-0.409-0.964-0.778-1.436-1.105c-0.106-0.074-0.387-0.065-0.456,0.017c-0.092,0.108-0.132,0.419-0.06,0.479
		c0.438,0.362,0.903,0.699,1.393,0.986C24.435,12.821,24.685,12.564,24.919,12.4z M22.404,9.528c0,0.284-0.031,0.391,0.006,0.463
		c0.097,0.187,0.224,0.358,0.338,0.536c0.155-0.131,0.385-0.233,0.45-0.4c0.161-0.413,0.262-0.853,0.35-1.289
		c0.021-0.102-0.075-0.284-0.168-0.336c-0.091-0.051-0.315-0.028-0.366,0.043C22.761,8.907,22.546,9.293,22.404,9.528z
		 M27.868,9.495c-0.133-0.217-0.347-0.6-0.6-0.956c-0.051-0.072-0.276-0.093-0.367-0.042s-0.181,0.237-0.157,0.338
		c0.105,0.475,0.229,0.949,0.396,1.406c0.044,0.121,0.284,0.271,0.391,0.243c0.136-0.036,0.258-0.225,0.327-0.375
		C27.909,9.998,27.868,9.843,27.868,9.495z"/>
	<path fill-rule="evenodd" clip-rule="evenodd" fill="#1E1E52" d="M34.609,14.468c-2.168-0.103-4.164-1.592-4.22-4.262
		c-0.051-2.403,1.751-4.339,4.392-4.317c2.356,0.019,4.253,1.869,4.227,4.225C38.979,12.691,37.243,14.355,34.609,14.468z
		 M34.663,9.271c-0.523,0.02-0.804,0.314-0.811,0.848c-0.007,0.504,0.45,1.004,0.89,0.974c0.454-0.032,0.842-0.542,0.801-1.053
		C35.501,9.515,35.198,9.251,34.663,9.271z M36.711,11.148c-0.507,0.311-1.031,0.611-1.526,0.954
		c-0.094,0.065-0.119,0.305-0.09,0.446c0.021,0.099,0.23,0.26,0.283,0.235c0.429-0.198,0.862-0.401,1.25-0.667
		C36.956,11.892,37.055,11.56,36.711,11.148z M34.369,12.488c-0.038-0.109-0.042-0.219-0.098-0.261
		c-0.461-0.35-0.926-0.698-1.413-1.008c-0.036-0.023-0.382,0.257-0.375,0.384c0.027,0.467,0.987,1.231,1.478,1.189
		C34.107,12.779,34.239,12.59,34.369,12.488z M34.535,8.188c0.191,0,0.281,0.008,0.369-0.001c0.309-0.036,0.833,0.272,0.843-0.278
		c0.008-0.462-0.497-0.537-0.907-0.542c-0.222-0.003-0.472-0.04-0.657,0.048c-0.213,0.102-0.368,0.324-0.549,0.493
		c0.202,0.1,0.396,0.222,0.608,0.292C34.359,8.24,34.505,8.19,34.535,8.188z M37.567,9.828c-0.257-0.456-0.481-0.882-0.742-1.286
		c-0.046-0.071-0.273-0.095-0.366-0.045s-0.189,0.234-0.168,0.333c0.086,0.39,0.188,0.783,0.347,1.147
		c0.089,0.206,0.301,0.357,0.458,0.533C37.236,10.308,37.376,10.104,37.567,9.828z M31.911,9.871
		c0.112,0.197,0.196,0.557,0.365,0.603c0.392,0.106,0.487-0.231,0.519-0.563c0.018-0.176,0.033-0.365,0.107-0.521
		c0.152-0.322,0.416-0.724-0.052-0.887c-0.427-0.148-0.568,0.33-0.701,0.663C32.066,9.371,32.006,9.586,31.911,9.871z"/>
	<path fill-rule="evenodd" clip-rule="evenodd" fill="#1E1D51" d="M15.66,5.9c2.808-0.013,4.275,2.354,4.265,4.313
		c-0.012,2.332-2.072,4.293-4.387,4.256c-2.32-0.037-4.425-2.122-4.275-4.356C11.442,7.424,13.415,5.827,15.66,5.9z M16.443,10.092
		c-0.031-0.533-0.326-0.817-0.852-0.82c-0.579-0.002-0.896,0.347-0.854,0.941c0.031,0.442,0.449,0.874,0.851,0.877
		C16.087,11.095,16.474,10.643,16.443,10.092z M15.745,12.447c0.331,0.145,0.627,0.379,0.752,0.31
		c0.455-0.254,0.866-0.596,1.262-0.94c0.076-0.066,0.069-0.344-0.007-0.438c-0.079-0.1-0.345-0.182-0.429-0.125
		C16.818,11.6,16.341,11.988,15.745,12.447z M13.554,11.126c-0.364,0.51-0.147,0.861,0.206,1.093
		c0.358,0.236,0.78,0.382,1.187,0.531c0.054,0.02,0.228-0.158,0.267-0.271c0.034-0.099-0.004-0.295-0.08-0.346
		C14.623,11.787,14.094,11.466,13.554,11.126z M13.232,10.576c0.077-0.052,0.191-0.085,0.221-0.155
		c0.221-0.526,0.437-1.054,0.62-1.593c0.026-0.076-0.111-0.256-0.214-0.313C13.76,8.46,13.58,8.455,13.484,8.51
		c-0.485,0.285-0.813,1.331-0.57,1.815C12.97,10.435,13.124,10.494,13.232,10.576z M14.307,8.192c0.672,0,1.146-0.006,1.621,0.002
		c0.292,0.005,0.716,0.169,0.679-0.313c-0.014-0.185-0.417-0.448-0.67-0.483C15.39,7.324,14.78,7.253,14.307,8.192z M18.318,9.711
		c-0.038-0.147-0.036-0.407-0.161-0.568c-0.203-0.26-0.578-0.689-0.723-0.634c-0.461,0.176-0.192,0.543-0.052,0.873
		c0.12,0.283,0.12,0.614,0.217,0.909c0.036,0.109,0.241,0.268,0.298,0.242c0.149-0.066,0.29-0.203,0.376-0.346
		C18.333,10.083,18.302,9.922,18.318,9.711z"/>
	<path fill-rule="evenodd" clip-rule="evenodd" fill="#ED5B59" d="M25.135,20.84c2.662,0.283,4.105,1.731,4.325,4.333
		c0.186,2.185-2.055,4.333-4.32,4.335c-2.263,0.002-4.507-2.145-4.327-4.331C21.026,22.59,22.464,21.125,25.135,20.84z
		 M25.296,26.176c0.184-0.238,0.542-0.526,0.658-0.892c0.176-0.555-0.199-0.947-0.776-0.968c-0.556-0.02-0.851,0.234-0.885,0.762
		C24.262,25.561,24.681,26.124,25.296,26.176z M23.163,26.178c-0.084,0.183-0.249,0.366-0.224,0.52
		c0.074,0.461,0.917,1.136,1.398,1.126c0.144-0.002,0.314-0.156,0.415-0.286c0.056-0.072,0.04-0.304-0.024-0.349
		C24.25,26.857,23.754,26.554,23.163,26.178z M25.879,27.962c0.46-0.322,0.928-0.59,1.31-0.948c0.124-0.117,0.023-0.473,0.025-0.719
		c-0.197,0.061-0.411,0.092-0.589,0.188c-0.355,0.192-0.701,0.408-1.03,0.643c-0.086,0.062-0.161,0.257-0.125,0.342
		C25.535,27.622,25.687,27.74,25.879,27.962z M24.044,23.171c0.74,0,1.433,0,2.182,0c-0.055-0.666-0.451-0.777-0.94-0.767
		C24.764,22.416,24.163,22.292,24.044,23.171z M22.412,24.534c0,0.378-0.043,0.536,0.011,0.646c0.074,0.151,0.204,0.343,0.343,0.375
		c0.106,0.025,0.34-0.144,0.384-0.273c0.158-0.461,0.273-0.939,0.37-1.418c0.021-0.1-0.074-0.285-0.166-0.331
		c-0.094-0.047-0.315-0.017-0.367,0.058C22.737,23.952,22.527,24.34,22.412,24.534z M27.9,24.626
		c-0.146-0.271-0.31-0.638-0.537-0.962c-0.073-0.104-0.314-0.131-0.473-0.118c-0.06,0.005-0.166,0.234-0.144,0.337
		c0.104,0.478,0.225,0.954,0.389,1.413c0.042,0.12,0.255,0.223,0.401,0.244c0.081,0.011,0.232-0.149,0.274-0.261
		C27.872,25.116,27.864,24.927,27.9,24.626z"/>
	<path fill-rule="evenodd" clip-rule="evenodd" fill="#ED5A59" d="M39.068,25.156c-0.252,2.505-1.661,4.174-4.346,4.328
		c-2.262,0.128-4.4-2.032-4.33-4.317c0.073-2.352,1.999-4.183,4.271-4.221C37.455,20.899,38.965,23.208,39.068,25.156z
		 M34.703,26.158c0.394,0.023,0.837-0.416,0.864-0.856c0.04-0.642-0.231-0.971-0.813-0.987c-0.561-0.016-0.852,0.241-0.881,0.779
		C33.847,25.584,34.274,26.133,34.703,26.158z M32.384,25.668c0.148-0.166,0.311-0.277,0.373-0.429
		c0.168-0.408,0.312-0.828,0.427-1.254c0.036-0.134-0.007-0.386-0.094-0.432c-0.13-0.068-0.367-0.061-0.494,0.018
		c-0.445,0.275-0.751,1.173-0.578,1.68C32.068,25.4,32.239,25.509,32.384,25.668z M37.064,26.637
		c-0.045-0.076-0.071-0.191-0.138-0.222c-0.146-0.069-0.359-0.181-0.463-0.124c-0.433,0.236-0.847,0.513-1.239,0.812
		c-0.103,0.078-0.152,0.297-0.135,0.438c0.014,0.103,0.165,0.236,0.279,0.269C35.773,27.924,36.98,27.071,37.064,26.637z
		 M34.437,27.464c-0.078-0.166-0.093-0.273-0.153-0.315c-0.434-0.298-0.871-0.593-1.322-0.863c-0.083-0.051-0.311-0.024-0.341,0.035
		c-0.074,0.142-0.153,0.415-0.086,0.475c0.418,0.371,0.858,0.727,1.335,1.014C33.959,27.863,34.249,27.583,34.437,27.464z
		 M37.505,24.631c-0.169-0.276-0.397-0.68-0.662-1.059c-0.05-0.071-0.271-0.093-0.36-0.043c-0.089,0.049-0.175,0.233-0.151,0.333
		c0.116,0.506,0.257,1.008,0.419,1.501c0.033,0.099,0.203,0.215,0.305,0.211c0.108-0.004,0.255-0.122,0.306-0.228
		C37.433,25.194,37.435,25.008,37.505,24.631z M34.615,23.223c0.087,0,0.135,0.011,0.177-0.001c0.333-0.1,0.956,0.331,0.949-0.339
		c-0.005-0.483-0.562-0.491-0.98-0.479c-0.182,0.005-0.393-0.045-0.538,0.031c-0.219,0.114-0.529,0.299-0.554,0.486
		c-0.051,0.392,0.314,0.331,0.579,0.323C34.385,23.24,34.521,23.229,34.615,23.223z"/>
	<path fill-rule="evenodd" clip-rule="evenodd" fill="#ED5A58" d="M15.78,20.985c2.41-0.112,4.146,2.024,4.146,4.244
		c0,2.36-1.894,4.236-4.351,4.256c-1.9,0.016-4.351-1.559-4.172-4.51C11.547,22.604,13.279,20.943,15.78,20.985z M16.604,25.197
		c0.017-0.41-0.532-0.89-1.014-0.887c-0.546,0.003-0.832,0.281-0.849,0.822c-0.015,0.482,0.448,1.034,0.866,1.033
		C15.932,26.165,16.59,25.525,16.604,25.197z M15.334,27.618c-0.071-0.224-0.072-0.393-0.156-0.461
		c-0.382-0.311-0.775-0.613-1.192-0.873c-0.117-0.073-0.445-0.041-0.479,0.033c-0.08,0.176-0.132,0.508-0.034,0.594
		c0.397,0.351,0.841,0.658,1.303,0.918C14.884,27.89,15.131,27.701,15.334,27.618z M14.149,23.664
		c-0.494-0.393-0.825-0.131-0.996,0.27c-0.2,0.468-0.596,0.958-0.152,1.506c0.203,0.25,0.448,0.16,0.537-0.047
		C13.777,24.828,13.951,24.236,14.149,23.664z M16.425,27.979c0.488-0.419,0.986-0.837,1.465-1.275
		c0.036-0.032-0.036-0.247-0.112-0.319c-0.085-0.08-0.281-0.169-0.345-0.127c-0.481,0.315-0.949,0.654-1.403,1.009
		c-0.061,0.048-0.065,0.241-0.021,0.33C16.063,27.706,16.196,27.776,16.425,27.979z M18.391,24.825
		c-0.141-0.371-0.271-0.792-0.467-1.178c-0.053-0.105-0.328-0.177-0.465-0.138c-0.116,0.033-0.276,0.271-0.251,0.38
		c0.119,0.511,0.278,1.016,0.473,1.502c0.025,0.063,0.381,0.074,0.506-0.008C18.3,25.31,18.308,25.075,18.391,24.825z
		 M16.785,23.169c-0.87-1.057-1.718-1.02-2.313,0C15.215,23.169,15.91,23.169,16.785,23.169z"/>
	<path fill-rule="evenodd" clip-rule="evenodd" fill="#E5E4EE" d="M16.451,40.068c0.025,0.579-0.318,0.941-0.881,0.933
		c-0.534-0.009-0.813-0.286-0.833-0.827c-0.017-0.5,0.424-1.001,0.871-0.99C16.012,39.194,16.433,39.636,16.451,40.068z
		 M15.646,39.822c-0.143,0.11-0.235,0.182-0.329,0.254c0.092,0.113,0.184,0.228,0.276,0.341c0.078-0.084,0.205-0.161,0.22-0.257
		C15.828,40.072,15.723,39.966,15.646,39.822z"/>
	<path fill-rule="evenodd" clip-rule="evenodd" fill="#D9D8E6" d="M16.227,42.771c-0.092-0.079-0.232-0.147-0.282-0.257
		c-0.043-0.095-0.032-0.294,0.035-0.348c0.449-0.36,0.914-0.704,1.391-1.027c0.068-0.046,0.26,0.021,0.346,0.092
		c0.078,0.065,0.131,0.213,0.124,0.319C17.801,42.145,16.817,42.686,16.227,42.771z"/>
	<path fill-rule="evenodd" clip-rule="evenodd" fill="#E3E2ED" d="M14.054,38.648c-0.159,0.585-0.277,1.107-0.456,1.608
		c-0.036,0.103-0.312,0.193-0.45,0.164c-0.124-0.027-0.321-0.259-0.296-0.346c0.157-0.547,0.353-1.087,0.578-1.61
		c0.031-0.072,0.311-0.084,0.453-0.044C13.978,38.447,14.032,38.616,14.054,38.648z"/>
	<path fill-rule="evenodd" clip-rule="evenodd" fill="#E5E4EE" d="M18.421,39.901c-0.165,0.227-0.277,0.509-0.396,0.512
		c-0.167,0.003-0.427-0.165-0.49-0.323c-0.166-0.412-0.27-0.854-0.345-1.294c-0.023-0.138,0.092-0.393,0.203-0.434
		c0.115-0.043,0.381,0.069,0.442,0.186C18.059,38.976,18.225,39.434,18.421,39.901z"/>
	<path fill-rule="evenodd" clip-rule="evenodd" fill="#E9E8F1" d="M15.31,37.434c0.375,0,0.51-0.003,0.646,0.001
		c0.317,0.008,0.686-0.014,0.695,0.432c0.011,0.495-0.387,0.382-0.685,0.386c-0.36,0.006-0.724,0.028-1.079-0.012
		c-0.135-0.016-0.344-0.174-0.356-0.284c-0.015-0.138,0.106-0.377,0.227-0.425C14.999,37.435,15.281,37.438,15.31,37.434z"/>
	<path fill-rule="evenodd" clip-rule="evenodd" fill="#E5E4EE" d="M13.6,41.05c0.193,0.099,0.311,0.142,0.408,0.212
		c0.325,0.233,0.662,0.455,0.953,0.726c0.137,0.127,0.182,0.354,0.268,0.536c-0.208,0.042-0.484,0.19-0.614,0.108
		c-0.438-0.277-0.842-0.619-1.213-0.983C13.341,41.589,13.515,41.291,13.6,41.05z"/>
	<path fill-rule="evenodd" clip-rule="evenodd" fill="#E1E0EC" d="M35.548,40.138c0.003,0.542-0.264,0.834-0.789,0.865
		c-0.572,0.033-0.924-0.309-0.909-0.886c0.011-0.438,0.401-0.897,0.797-0.936C35.078,39.141,35.545,39.636,35.548,40.138z
		 M35.021,40.207c-0.104-0.138-0.175-0.229-0.245-0.321c-0.108,0.095-0.218,0.189-0.326,0.283c0.081,0.081,0.154,0.215,0.245,0.228
		C34.78,40.408,34.884,40.293,35.021,40.207z"/>
	<path fill-rule="evenodd" clip-rule="evenodd" fill="#CFCDDE" d="M34.386,42.521c-0.126,0.072-0.271,0.225-0.417,0.227
		c-0.554,0.008-1.376-0.638-1.515-1.165c-0.026-0.103,0.001-0.26,0.067-0.337c0.074-0.087,0.274-0.191,0.328-0.154
		c0.51,0.355,1.004,0.735,1.493,1.121C34.391,42.251,34.368,42.378,34.386,42.521z"/>
	<path fill-rule="evenodd" clip-rule="evenodd" fill="#E9E8F1" d="M35.512,42.888c-0.234-0.199-0.4-0.288-0.478-0.427
		c-0.043-0.075,0.022-0.282,0.104-0.348c0.388-0.31,0.786-0.608,1.207-0.87c0.106-0.065,0.38-0.034,0.447,0.053
		c0.089,0.114,0.131,0.412,0.054,0.484C36.432,42.169,35.974,42.513,35.512,42.888z"/>
	<path fill-rule="evenodd" clip-rule="evenodd" fill="#D9D8E6" d="M37.574,39.861c-0.181,0.229-0.32,0.408-0.461,0.587
		c-0.167-0.158-0.395-0.287-0.485-0.481c-0.165-0.351-0.284-0.734-0.35-1.117c-0.027-0.156,0.102-0.376,0.227-0.502
		c0.043-0.045,0.357,0.062,0.42,0.171C37.161,38.931,37.345,39.373,37.574,39.861z"/>
	<path fill-rule="evenodd" clip-rule="evenodd" fill="#DFDFEA" d="M32.901,38.244c0.092,0.216,0.254,0.406,0.226,0.563
		c-0.087,0.478-0.225,0.951-0.395,1.406c-0.044,0.117-0.289,0.229-0.431,0.217c-0.117-0.01-0.295-0.192-0.316-0.32
		c-0.101-0.613,0.119-1.148,0.509-1.615C32.571,38.401,32.709,38.359,32.901,38.244z"/>
	<path fill-rule="evenodd" clip-rule="evenodd" fill="#E3E2ED" d="M34.613,38.253c-0.347-0.103-0.947,0.294-0.972-0.367
		c-0.022-0.623,0.585-0.468,0.942-0.446c0.431,0.025,1.202-0.285,1.157,0.485C35.703,38.578,34.997,38.127,34.613,38.253z"/>
	<path fill-rule="evenodd" clip-rule="evenodd" fill="#E1E0EC" d="M25.993,40.168c-0.014,0.536-0.296,0.821-0.824,0.835
		c-0.578,0.015-0.903-0.326-0.874-0.916c0.021-0.432,0.436-0.89,0.821-0.906C25.566,39.161,26.007,39.657,25.993,40.168z
		 M25.128,39.81c-0.108,0.14-0.252,0.279-0.232,0.309c0.077,0.117,0.207,0.199,0.317,0.295c0.059-0.104,0.166-0.208,0.162-0.309
		C25.372,40.019,25.242,39.938,25.128,39.81z"/>
	<path fill-rule="evenodd" clip-rule="evenodd" fill="#D9D8E6" d="M27.326,40.875c-0.055,0.547,0.007,0.884-0.132,1.076
		c-0.199,0.278-0.52,0.506-0.836,0.654c-0.246,0.114-0.611,0.307-0.834-0.043c-0.266-0.417,0.167-0.523,0.392-0.694
		C26.269,41.599,26.641,41.355,27.326,40.875z"/>
	<path fill-rule="evenodd" clip-rule="evenodd" fill="#D9D8E6" d="M23.05,40.928c0.661,0.467,1.116,0.755,1.525,1.098
		c0.124,0.104,0.123,0.358,0.179,0.544c-0.153,0.045-0.355,0.174-0.452,0.118c-0.454-0.261-0.911-0.537-1.295-0.887
		C22.896,41.701,23.021,41.341,23.05,40.928z"/>
	<path fill-rule="evenodd" clip-rule="evenodd" fill="#DFDFEA" d="M28.011,39.872c-0.193,0.229-0.34,0.403-0.486,0.578
		c-0.153-0.133-0.377-0.235-0.448-0.402c-0.155-0.363-0.264-0.756-0.328-1.146c-0.027-0.171,0.099-0.366,0.155-0.551
		c0.154,0.048,0.391,0.05,0.449,0.153C27.592,38.922,27.775,39.37,28.011,39.872z"/>
	<path fill-rule="evenodd" clip-rule="evenodd" fill="#D9D8E6" d="M22.332,39.863c0.095-0.299,0.142-0.521,0.236-0.721
		c0.165-0.351,0.271-0.938,0.757-0.781c0.575,0.188,0.186,0.646,0.043,0.999c-0.067,0.164-0.124,0.344-0.128,0.518
		c-0.009,0.376-0.131,0.676-0.544,0.543C22.523,40.365,22.438,40.038,22.332,39.863z"/>
	<path fill-rule="evenodd" clip-rule="evenodd" fill="#E3E2ED" d="M25.058,38.236c-0.312-0.097-0.93,0.326-0.971-0.308
		c-0.045-0.706,0.635-0.43,1.031-0.504c0.131-0.025,0.272,0.003,0.408,0.007c0.324,0.009,0.696,0.004,0.688,0.451
		c-0.009,0.49-0.415,0.362-0.713,0.371C25.366,38.258,25.229,38.244,25.058,38.236z"/>
	<path fill-rule="evenodd" clip-rule="evenodd" fill="#E1E0EC" d="M25.114,9.271c0.536-0.017,0.836,0.25,0.875,0.778
		c0.037,0.514-0.355,1.015-0.817,1.043c-0.435,0.027-0.884-0.479-0.873-0.983C24.312,9.562,24.578,9.288,25.114,9.271z
		 M25.127,9.777c-0.107,0.139-0.25,0.277-0.23,0.309c0.076,0.117,0.206,0.199,0.315,0.293c0.058-0.1,0.166-0.203,0.16-0.299
		C25.367,9.991,25.24,9.909,25.127,9.777z"/>
	<path fill-rule="evenodd" clip-rule="evenodd" fill="#EDECF3" d="M26.199,8.211c-0.51,0-1.022,0.029-1.529-0.014
		c-0.208-0.018-0.404-0.188-0.605-0.29c0.141-0.152,0.257-0.393,0.428-0.44c0.641-0.179,1.283-0.229,1.748,0.333
		C26.227,7.938,26.213,8.074,26.199,8.211z"/>
	<path fill-rule="evenodd" clip-rule="evenodd" fill="#EBEBF2" d="M25.824,12.804c-0.084-0.072-0.25-0.146-0.271-0.249
		c-0.027-0.137,0.009-0.358,0.104-0.436c0.382-0.31,0.791-0.588,1.206-0.854c0.088-0.056,0.279-0.056,0.356,0.003
		c0.088,0.068,0.156,0.24,0.139,0.353C27.283,12.105,26.352,12.82,25.824,12.804z"/>
	<path fill-rule="evenodd" clip-rule="evenodd" fill="#E9E8F1" d="M24.919,12.4c-0.234,0.164-0.484,0.42-0.558,0.377
		c-0.49-0.288-0.954-0.624-1.393-0.986c-0.073-0.06-0.032-0.372,0.06-0.479c0.069-0.082,0.349-0.09,0.456-0.017
		C23.955,11.623,24.397,11.992,24.919,12.4z"/>
	<path fill-rule="evenodd" clip-rule="evenodd" fill="#F2F1F7" d="M22.404,9.528c0.142-0.235,0.357-0.622,0.609-0.982
		c0.05-0.071,0.274-0.094,0.366-0.043c0.094,0.052,0.189,0.234,0.168,0.336c-0.088,0.436-0.189,0.875-0.35,1.289
		c-0.064,0.167-0.295,0.269-0.45,0.4c-0.114-0.178-0.241-0.349-0.338-0.536C22.373,9.919,22.404,9.812,22.404,9.528z"/>
	<path fill-rule="evenodd" clip-rule="evenodd" fill="#F2F1F7" d="M27.868,9.495c0,0.348,0.041,0.503-0.011,0.615
		c-0.069,0.15-0.191,0.339-0.327,0.375c-0.106,0.028-0.347-0.122-0.391-0.243c-0.166-0.457-0.29-0.931-0.396-1.406
		c-0.023-0.102,0.066-0.287,0.157-0.338s0.316-0.03,0.367,0.042C27.521,8.896,27.735,9.278,27.868,9.495z"/>
	<path fill-rule="evenodd" clip-rule="evenodd" fill="#E1E0EC" d="M34.663,9.271c0.535-0.021,0.838,0.244,0.88,0.769
		c0.041,0.511-0.347,1.021-0.801,1.053c-0.439,0.031-0.896-0.47-0.89-0.974C33.859,9.585,34.14,9.292,34.663,9.271z M35.03,10.154
		c-0.113-0.124-0.189-0.208-0.267-0.293c-0.104,0.103-0.206,0.206-0.31,0.309c0.088,0.072,0.175,0.197,0.265,0.2
		C34.807,10.373,34.899,10.251,35.03,10.154z"/>
	<path fill-rule="evenodd" clip-rule="evenodd" fill="#E5E4EE" d="M36.711,11.148c0.344,0.412,0.245,0.744-0.083,0.968
		c-0.388,0.266-0.821,0.469-1.25,0.667c-0.053,0.024-0.263-0.136-0.283-0.235c-0.029-0.141-0.004-0.381,0.09-0.446
		C35.68,11.759,36.204,11.459,36.711,11.148z"/>
	<path fill-rule="evenodd" clip-rule="evenodd" fill="#E9E8F1" d="M34.369,12.488c-0.13,0.102-0.262,0.291-0.408,0.304
		c-0.49,0.042-1.45-0.722-1.478-1.189c-0.007-0.127,0.339-0.407,0.375-0.384c0.487,0.311,0.952,0.658,1.413,1.008
		C34.327,12.269,34.331,12.378,34.369,12.488z"/>
	<path fill-rule="evenodd" clip-rule="evenodd" fill="#EDECF3" d="M34.535,8.188c-0.03,0.002-0.176,0.051-0.293,0.013
		c-0.212-0.07-0.406-0.192-0.608-0.292c0.181-0.169,0.336-0.392,0.549-0.493c0.186-0.088,0.436-0.051,0.657-0.048
		c0.41,0.005,0.915,0.079,0.907,0.542c-0.01,0.55-0.534,0.242-0.843,0.278C34.816,8.197,34.727,8.188,34.535,8.188z"/>
	<path fill-rule="evenodd" clip-rule="evenodd" fill="#F2F1F7" d="M37.567,9.828c-0.191,0.276-0.331,0.479-0.472,0.683
		c-0.157-0.176-0.369-0.328-0.458-0.533c-0.158-0.365-0.261-0.758-0.347-1.147c-0.021-0.099,0.075-0.283,0.168-0.333
		s0.32-0.026,0.366,0.045C37.086,8.946,37.311,9.373,37.567,9.828z"/>
	<path fill-rule="evenodd" clip-rule="evenodd" fill="#F2F1F7" d="M31.911,9.871c0.095-0.285,0.155-0.5,0.238-0.705
		c0.133-0.333,0.274-0.811,0.701-0.663c0.468,0.163,0.204,0.565,0.052,0.887c-0.074,0.156-0.09,0.345-0.107,0.521
		c-0.031,0.332-0.127,0.669-0.519,0.563C32.107,10.427,32.023,10.068,31.911,9.871z"/>
	<path fill-rule="evenodd" clip-rule="evenodd" fill="#E5E4EE" d="M16.443,10.092c0.031,0.551-0.355,1.003-0.855,0.999
		c-0.402-0.003-0.82-0.435-0.851-0.877c-0.042-0.594,0.275-0.943,0.854-0.941C16.117,9.275,16.412,9.559,16.443,10.092z
		 M15.667,10.458c0.069-0.145,0.171-0.257,0.154-0.348c-0.018-0.094-0.15-0.167-0.233-0.248c-0.089,0.118-0.177,0.237-0.266,0.354
		C15.422,10.287,15.522,10.356,15.667,10.458z"/>
	<path fill-rule="evenodd" clip-rule="evenodd" fill="#EBEBF2" d="M15.745,12.447c0.596-0.459,1.073-0.847,1.578-1.194
		c0.084-0.057,0.35,0.025,0.429,0.125c0.076,0.094,0.083,0.372,0.007,0.438c-0.396,0.345-0.807,0.687-1.262,0.94
		C16.372,12.826,16.076,12.591,15.745,12.447z"/>
	<path fill-rule="evenodd" clip-rule="evenodd" fill="#E1E0EC" d="M13.554,11.126c0.54,0.34,1.069,0.66,1.579,1.007
		c0.076,0.051,0.114,0.248,0.08,0.346c-0.039,0.113-0.213,0.291-0.267,0.271c-0.407-0.149-0.828-0.295-1.187-0.531
		C13.407,11.987,13.19,11.637,13.554,11.126z"/>
	<path fill-rule="evenodd" clip-rule="evenodd" fill="#E5E4EE" d="M13.232,10.576c-0.108-0.082-0.262-0.141-0.317-0.25
		C12.671,9.841,13,8.795,13.484,8.51c0.096-0.056,0.276-0.05,0.374,0.004c0.103,0.057,0.24,0.237,0.214,0.313
		c-0.184,0.539-0.399,1.067-0.62,1.593C13.423,10.49,13.309,10.524,13.232,10.576z"/>
	<path fill-rule="evenodd" clip-rule="evenodd" fill="#EDECF3" d="M14.307,8.192c0.473-0.938,1.083-0.868,1.629-0.793
		c0.252,0.035,0.656,0.298,0.67,0.483c0.038,0.482-0.387,0.318-0.679,0.313C15.454,8.186,14.979,8.192,14.307,8.192z"/>
	<path fill-rule="evenodd" clip-rule="evenodd" fill="#E9E8F1" d="M18.318,9.711c-0.016,0.211,0.016,0.372-0.046,0.476
		c-0.086,0.144-0.227,0.28-0.376,0.346c-0.057,0.025-0.262-0.133-0.298-0.242c-0.097-0.295-0.097-0.626-0.217-0.909
		c-0.14-0.33-0.409-0.697,0.052-0.873c0.145-0.055,0.521,0.375,0.723,0.634C18.282,9.304,18.28,9.563,18.318,9.711z"/>
	<path fill-rule="evenodd" clip-rule="evenodd" fill="#FEF0EE" d="M25.296,26.176c-0.615-0.052-1.034-0.615-1.003-1.099
		c0.034-0.527,0.329-0.782,0.885-0.762c0.578,0.021,0.953,0.413,0.776,0.968C25.838,25.649,25.479,25.938,25.296,26.176z
		 M25.746,25.037c-0.314-0.078-0.449-0.148-0.571-0.131c-0.099,0.014-0.245,0.122-0.258,0.207c-0.012,0.079,0.107,0.237,0.193,0.258
		C25.192,25.39,25.306,25.277,25.746,25.037z"/>
	<path fill-rule="evenodd" clip-rule="evenodd" fill="#FEEFED" d="M23.163,26.178c0.592,0.376,1.088,0.68,1.564,1.011
		c0.064,0.045,0.081,0.276,0.024,0.349c-0.101,0.13-0.271,0.284-0.415,0.286c-0.48,0.01-1.324-0.665-1.398-1.126
		C22.914,26.544,23.078,26.36,23.163,26.178z"/>
	<path fill-rule="evenodd" clip-rule="evenodd" fill="#FEF0EE" d="M25.879,27.962c-0.192-0.222-0.344-0.34-0.409-0.495
		c-0.036-0.085,0.04-0.28,0.125-0.342c0.329-0.234,0.674-0.45,1.03-0.643c0.178-0.096,0.392-0.127,0.589-0.188
		c-0.002,0.246,0.099,0.602-0.025,0.719C26.807,27.372,26.339,27.64,25.879,27.962z"/>
	<path fill-rule="evenodd" clip-rule="evenodd" fill="#FFF7F6" d="M24.044,23.171c0.119-0.879,0.72-0.755,1.242-0.767
		c0.489-0.011,0.885,0.101,0.94,0.767C25.477,23.171,24.784,23.171,24.044,23.171z"/>
	<path fill-rule="evenodd" clip-rule="evenodd" fill="#FFF7F6" d="M22.412,24.534c0.115-0.194,0.326-0.582,0.575-0.943
		c0.051-0.075,0.272-0.105,0.367-0.058c0.092,0.046,0.186,0.23,0.166,0.331c-0.097,0.479-0.212,0.957-0.37,1.418
		c-0.044,0.129-0.278,0.298-0.384,0.273c-0.139-0.032-0.269-0.223-0.343-0.375C22.369,25.07,22.412,24.913,22.412,24.534z"/>
	<path fill-rule="evenodd" clip-rule="evenodd" fill="#FFF7F6" d="M27.9,24.626c-0.036,0.3-0.028,0.489-0.089,0.652
		c-0.042,0.112-0.193,0.272-0.274,0.261c-0.146-0.021-0.359-0.124-0.401-0.244c-0.164-0.459-0.285-0.936-0.389-1.413
		c-0.022-0.103,0.084-0.332,0.144-0.337c0.158-0.013,0.399,0.014,0.473,0.118C27.591,23.988,27.755,24.356,27.9,24.626z"/>
	<path fill-rule="evenodd" clip-rule="evenodd" fill="#FEEFED" d="M34.703,26.158c-0.429-0.025-0.856-0.574-0.83-1.065
		c0.029-0.538,0.32-0.794,0.881-0.779c0.582,0.017,0.854,0.346,0.813,0.987C35.54,25.743,35.097,26.182,34.703,26.158z
		 M34.116,25.25c0.307,0.083,0.438,0.155,0.561,0.14c0.099-0.012,0.248-0.124,0.257-0.204c0.009-0.085-0.108-0.238-0.196-0.261
		C34.657,24.903,34.542,25.017,34.116,25.25z"/>
	<path fill-rule="evenodd" clip-rule="evenodd" fill="#FEF0EE" d="M32.384,25.668c-0.145-0.159-0.315-0.268-0.366-0.417
		c-0.173-0.506,0.133-1.405,0.578-1.68c0.127-0.079,0.364-0.086,0.494-0.018c0.087,0.045,0.13,0.298,0.094,0.432
		c-0.115,0.426-0.259,0.846-0.427,1.254C32.694,25.392,32.532,25.503,32.384,25.668z"/>
	<path fill-rule="evenodd" clip-rule="evenodd" fill="#FEECEB" d="M37.064,26.638c-0.084,0.434-1.291,1.286-1.695,1.172
		c-0.114-0.032-0.266-0.166-0.279-0.269c-0.018-0.142,0.032-0.36,0.135-0.438c0.393-0.299,0.807-0.575,1.239-0.812
		c0.104-0.057,0.316,0.055,0.463,0.124C36.993,26.445,37.02,26.561,37.064,26.638z"/>
	<path fill-rule="evenodd" clip-rule="evenodd" fill="#FEEFED" d="M34.437,27.464c-0.188,0.119-0.478,0.399-0.567,0.345
		c-0.477-0.287-0.917-0.643-1.335-1.014c-0.067-0.06,0.012-0.333,0.086-0.475c0.03-0.06,0.258-0.086,0.341-0.035
		c0.451,0.271,0.889,0.565,1.322,0.863C34.344,27.19,34.358,27.298,34.437,27.464z"/>
	<path fill-rule="evenodd" clip-rule="evenodd" fill="#FEF2F1" d="M37.505,24.631c-0.07,0.377-0.072,0.563-0.145,0.716
		c-0.051,0.106-0.197,0.223-0.306,0.228c-0.102,0.004-0.271-0.112-0.305-0.211c-0.162-0.493-0.303-0.996-0.419-1.501
		c-0.023-0.1,0.063-0.284,0.151-0.333c0.089-0.05,0.311-0.027,0.36,0.043C37.107,23.951,37.336,24.354,37.505,24.631z"/>
	<path fill-rule="evenodd" clip-rule="evenodd" fill="#FFF7F6" d="M34.615,23.223c-0.095,0.006-0.23,0.017-0.367,0.021
		c-0.265,0.008-0.63,0.069-0.579-0.323c0.024-0.187,0.335-0.372,0.554-0.486c0.146-0.076,0.356-0.026,0.538-0.031
		c0.419-0.012,0.976-0.004,0.98,0.479c0.007,0.67-0.616,0.239-0.949,0.339C34.75,23.233,34.702,23.223,34.615,23.223z"/>
	<path fill-rule="evenodd" clip-rule="evenodd" fill="#FDE9E7" d="M16.604,25.197c-0.014,0.329-0.671,0.968-0.997,0.968
		c-0.418,0.001-0.881-0.551-0.866-1.033c0.017-0.541,0.303-0.818,0.849-0.822C16.071,24.307,16.621,24.787,16.604,25.197z
		 M15.509,24.608c-0.095,0.264-0.179,0.388-0.168,0.501c0.01,0.098,0.119,0.243,0.204,0.259c0.077,0.015,0.238-0.105,0.257-0.19
		C15.821,25.094,15.709,24.981,15.509,24.608z"/>
	<path fill-rule="evenodd" clip-rule="evenodd" fill="#FDE9E7" d="M15.334,27.618c-0.203,0.083-0.451,0.271-0.558,0.211
		c-0.462-0.26-0.906-0.567-1.303-0.918c-0.098-0.086-0.045-0.418,0.034-0.594c0.033-0.074,0.361-0.106,0.479-0.033
		c0.417,0.26,0.81,0.563,1.192,0.873C15.262,27.226,15.263,27.395,15.334,27.618z"/>
	<path fill-rule="evenodd" clip-rule="evenodd" fill="#FEECEB" d="M14.149,23.664c-0.198,0.573-0.372,1.164-0.611,1.728
		c-0.088,0.208-0.334,0.297-0.537,0.047c-0.444-0.548-0.048-1.038,0.152-1.506C13.324,23.533,13.655,23.271,14.149,23.664z"/>
	<path fill-rule="evenodd" clip-rule="evenodd" fill="#FEF0EE" d="M16.425,27.979c-0.229-0.202-0.362-0.272-0.417-0.383
		c-0.044-0.089-0.039-0.282,0.021-0.33c0.455-0.354,0.922-0.693,1.403-1.009c0.064-0.042,0.26,0.047,0.345,0.127
		c0.077,0.072,0.148,0.287,0.112,0.319C17.411,27.142,16.913,27.56,16.425,27.979z"/>
	<path fill-rule="evenodd" clip-rule="evenodd" fill="#FEECEB" d="M18.391,24.825c-0.083,0.25-0.09,0.484-0.204,0.559
		c-0.125,0.082-0.481,0.071-0.506,0.008c-0.195-0.487-0.354-0.992-0.473-1.502c-0.025-0.109,0.135-0.347,0.251-0.38
		c0.137-0.039,0.412,0.033,0.465,0.138C18.12,24.034,18.25,24.454,18.391,24.825z"/>
	<path fill-rule="evenodd" clip-rule="evenodd" fill="#FFF7F6" d="M16.785,23.169c-0.875,0-1.57,0-2.313,0
		C15.067,22.149,15.916,22.113,16.785,23.169z"/>
	<path fill-rule="evenodd" clip-rule="evenodd" fill="#18154B" d="M15.646,39.822c0.077,0.144,0.182,0.25,0.167,0.338
		c-0.015,0.096-0.142,0.173-0.22,0.257c-0.092-0.113-0.184-0.228-0.276-0.341C15.411,40.004,15.503,39.933,15.646,39.822z"/>
	<path fill-rule="evenodd" clip-rule="evenodd" fill="#18154B" d="M35.021,40.207c-0.138,0.086-0.241,0.201-0.326,0.189
		c-0.091-0.013-0.164-0.146-0.245-0.228c0.108-0.094,0.218-0.188,0.326-0.283C34.847,39.978,34.917,40.069,35.021,40.207z"/>
	<path fill-rule="evenodd" clip-rule="evenodd" fill="#18154B" d="M25.128,39.81c0.113,0.128,0.244,0.209,0.247,0.295
		c0.004,0.101-0.103,0.205-0.162,0.309c-0.11-0.096-0.24-0.178-0.317-0.295C24.876,40.089,25.021,39.949,25.128,39.81z"/>
	<path fill-rule="evenodd" clip-rule="evenodd" fill="#18154B" d="M25.127,9.777c0.113,0.131,0.239,0.213,0.245,0.303
		c0.006,0.096-0.102,0.199-0.16,0.299c-0.11-0.095-0.24-0.176-0.315-0.293C24.877,10.054,25.021,9.917,25.127,9.777z"/>
	<path fill-rule="evenodd" clip-rule="evenodd" fill="#18154B" d="M35.03,10.154c-0.131,0.097-0.224,0.219-0.312,0.216
		c-0.09-0.003-0.177-0.128-0.265-0.2c0.104-0.103,0.206-0.206,0.31-0.309C34.841,9.945,34.917,10.03,35.03,10.154z"/>
	<path fill-rule="evenodd" clip-rule="evenodd" fill="#18154B" d="M15.667,10.458c-0.145-0.102-0.245-0.171-0.345-0.242
		c0.089-0.118,0.177-0.236,0.266-0.354c0.083,0.082,0.215,0.154,0.233,0.248C15.838,10.201,15.736,10.313,15.667,10.458z"/>
	<path fill-rule="evenodd" clip-rule="evenodd" fill="#EC5655" d="M25.746,25.037c-0.44,0.241-0.554,0.354-0.636,0.334
		c-0.086-0.021-0.205-0.179-0.193-0.258c0.013-0.084,0.159-0.193,0.258-0.207C25.297,24.889,25.431,24.958,25.746,25.037z"/>
	<path fill-rule="evenodd" clip-rule="evenodd" fill="#EC5655" d="M34.116,25.25c0.426-0.233,0.541-0.347,0.621-0.325
		c0.088,0.023,0.205,0.176,0.196,0.261c-0.009,0.08-0.158,0.191-0.257,0.204C34.555,25.405,34.423,25.332,34.116,25.25z"/>
	<path fill-rule="evenodd" clip-rule="evenodd" fill="#ED5A58" d="M15.509,24.608c0.2,0.373,0.312,0.485,0.293,0.57
		c-0.019,0.084-0.18,0.205-0.257,0.19c-0.085-0.017-0.194-0.161-0.204-0.259C15.33,24.996,15.414,24.873,15.509,24.608z"/>
</g>
</svg>
