<?xml version="1.0" encoding="utf-8"?>
<!-- Generator: Adobe Illustrator 16.0.0, SVG Export Plug-In . SVG Version: 6.00 Build 0)  -->
<!DOCTYPE svg PUBLIC "-//W3C//DTD SVG 1.1//EN" "http://www.w3.org/Graphics/SVG/1.1/DTD/svg11.dtd">
<svg version="1.1" id="Layer_1" xmlns="http://www.w3.org/2000/svg" xmlns:xlink="http://www.w3.org/1999/xlink" x="0px" y="0px"
	 width="50px" height="50px" viewBox="0 0 50 50" enable-background="new 0 0 50 50" xml:space="preserve">
<g>
	<path fill-rule="evenodd" clip-rule="evenodd" fill="#EC5856" d="M23.77,45.018c-1.322,0.176-2.329,0.353-3.342,0.43
		c-0.633,0.049-1.182-0.036-1.471,0.785c-0.221,0.629-0.55,0.583-1.087,0.183c-0.916-0.685-1.173-1.704-1.345-2.721
		c-0.124-0.734-0.369-1.05-1.155-1.162c-1.273-0.181-2.521-0.551-3.775-0.855c-0.248-0.06-0.479-0.192-0.72-0.282
		c-0.438-0.163-0.733-0.455-0.627-0.938c0.105-0.482,0.539-0.41,0.893-0.379c1.192,0.103,2.383,0.23,3.575,0.333
		c0.248,0.021,0.502-0.024,0.911-0.049c-0.306-1.085-0.578-2.062-0.856-3.037c-0.1-0.349-0.212-0.693-0.321-1.039
		c-0.17-0.537,0.086-0.973,0.518-1.134c0.228-0.085,0.703,0.167,0.903,0.404c0.289,0.344,0.459,0.8,0.627,1.229
		c0.47,1.197,0.912,2.404,1.32,3.486c1.035-0.061,1.915-0.117,2.797-0.161c1.163-0.06,1.209-0.102,1.237-1.287
		c0.009-0.356,0.001-0.714,0.001-1.258c-0.768,0.134-1.405,0.244-2.121,0.369c-0.032,0.382-0.009,0.751-0.111,1.081
		c-0.059,0.191-0.331,0.461-0.484,0.446c-0.251-0.024-0.581-0.194-0.7-0.404c-0.172-0.302-0.22-0.691-0.261-1.05
		c-0.26-2.271-0.546-4.542-0.736-6.82c-0.109-1.319,0.084-1.502,1.357-1.482c3.305,0.051,6.501-0.608,9.683-1.387
		c0.101-0.024,0.188-0.1,0.288-0.12c2.536-0.533,2.918-0.228,2.831,2.336c-0.085,2.505-0.199,5.008-0.297,7.512
		c-0.013,0.306-0.002,0.612-0.002,1.063c0.396-0.037,0.688-0.033,0.966-0.096c1.313-0.295,2.61-0.045,3.862,0.257
		c1.596,0.384,2.593,2.763,1.912,4.359c-0.505,1.182-1.118,2.133-2.676,2.244c-1.426,0.101-2.825,0.593-4.23,0.935
		c-2.788,0.678-5.247,0.034-7.418-1.811C23.639,44.934,23.53,44.912,23.77,45.018z M31.323,40.38c0,0.873,0.004,1.538-0.001,2.203
		c-0.006,0.851-0.198,1.239-1.008,1.23c-1.013-0.012-2.17,0.618-3.053-0.472c-0.102-0.126-0.518-0.088-0.744-0.006
		c-0.504,0.184-0.982,0.442-1.562,0.714c1.433,1.308,2.841,1.843,4.625,1.019c0.727-0.336,1.591-0.369,2.39-0.553
		c0.551-0.127,1.127-0.206,1.637-0.431c0.791-0.349,1.085-1.072,1.149-1.898c0.067-0.867-0.566-1.21-1.205-1.415
		C32.892,40.559,32.175,40.521,31.323,40.38z M24.763,32.216c0.739,0,1.411,0.043,2.073-0.014c0.514-0.043,1.036-1.018,0.922-1.591
		c-0.097-0.488-0.544-0.678-1.272-0.518c-0.593,0.131-1.18,0.285-1.722,0.418C24.763,31.103,24.763,31.61,24.763,32.216z
		 M25.105,39.372c2.416,0.266,2.639,0.044,2.168-2.035c-0.718,0-1.43,0-2.168,0C25.105,38.084,25.105,38.734,25.105,39.372z
		 M22.05,34.097c-0.721,0.057-1.366,0.009-1.938,0.191c-0.292,0.094-0.589,0.584-0.626,0.924c-0.027,0.237,0.336,0.682,0.605,0.761
		C21.526,36.395,22.153,35.833,22.05,34.097z M22.15,30.785c-0.77,0.073-1.38,0.172-1.99,0.178
		c-0.571,0.004-0.852,0.168-0.838,0.794c0.013,0.582,0.224,0.872,0.819,0.845c0.655-0.031,1.311-0.058,2.009-0.088
		C22.15,31.884,22.15,31.384,22.15,30.785z M25.043,35.507c0.632-0.044,1.187-0.082,1.744-0.122
		c0.628-0.044,0.713-0.472,0.717-0.983c0.006-0.614-0.386-0.626-0.833-0.603c-0.55,0.028-1.101,0.038-1.723,0.058
		C24.986,34.526,25.016,35.031,25.043,35.507z M20.298,42.337c-0.332,0-0.643,0.005-0.954-0.002
		c-0.434-0.009-0.706,0.145-0.649,0.632c0.05,0.425,0.131,0.81,0.725,0.68c0.649-0.143,1.301-0.281,1.959-0.374
		c0.421-0.059,0.563-0.316,0.429-0.628c-0.089-0.206-0.39-0.407-0.621-0.443C20.9,42.157,20.586,42.285,20.298,42.337z
		 M27.277,41.061c-0.703,0.142-1.159,0.205-1.596,0.336c-0.145,0.043-0.284,0.241-0.341,0.399c-0.041,0.112,0.055,0.396,0.099,0.397
		c0.544,0.026,1.101,0.071,1.626-0.032C27.184,42.138,27.189,41.556,27.277,41.061z"/>
	<path fill-rule="evenodd" clip-rule="evenodd" fill="#ED5A58" d="M22.203,26.462c-0.911-1.482-0.913-1.483,0.006-3.044
		c0.238-0.403,0.478-0.807,0.743-1.192c0.278-0.405,0.716-0.496,1.114-0.296c0.385,0.194,0.513,0.536,0.378,1.04
		c-0.21,0.785-0.498,1.614-0.068,2.418c0.123,0.229,0.386,0.552,0.57,0.542c0.318-0.016,0.806-0.183,0.904-0.418
		c0.395-0.953,0.718-1.945,0.95-2.95c0.059-0.252-0.288-0.63-0.503-0.908c-0.409-0.529-1.253-1.082-1.192-1.525
		c0.083-0.604,0.84-1.117,1.317-1.661c0.173-0.196,0.359-0.385,0.564-0.546c0.349-0.274,0.695-0.252,0.929,0.144
		c0.58,0.985,1.156,1.974,1.695,2.982c0.273,0.512,0.167,0.997-0.277,1.413c-0.614,0.574-0.995,1.283-1.303,2.284
		c0.604-0.083,1.002-0.097,1.378-0.195c2.126-0.55,4.283-0.848,6.481-0.809c0.838,0.015,1.513,0.355,1.565,0.772
		c0.058,0.458-0.697,1.028-1.499,1.121c-1.704,0.196-3.424,0.297-5.106,0.604c-2.084,0.381-4.13,0.961-6.203,1.402
		c-2.908,0.619-5.827,1.091-8.818,0.566c-0.715-0.125-1.467-0.021-2.198-0.08c-1.009-0.081-1.952-0.361-2.605-1.217
		c-0.358-0.468-0.26-0.914,0.364-1.05c0.687-0.15,1.43-0.144,2.137-0.081c2.588,0.231,5.172,0.519,7.759,0.769
		C21.57,26.575,21.863,26.496,22.203,26.462z"/>
	<path fill-rule="evenodd" clip-rule="evenodd" fill="#101010" d="M21.899,3.807c0.589-1.152,1.692-1.517,2.717-1.991
		c0.418-0.193,0.728-0.001,0.957,0.298C26.015,2.69,26.466,3.27,26.819,3.9c0.634,1.127,1.137,2.331,1.813,3.429
		c0.395,0.641,0.938,1.252,1.552,1.684c2.127,1.495,4.348,2.856,6.461,4.369c0.922,0.66,1.696,1.539,2.475,2.377
		c0.198,0.215,0.305,0.718,0.192,0.975c-0.199,0.458-0.652,0.37-1.087,0.207c-1.064-0.4-2.179-0.685-3.21-1.155
		c-1.74-0.793-3.416-1.723-5.146-2.541c-1.661-0.785-2.896-2.016-3.903-3.51c-0.232-0.344-0.46-0.697-0.638-1.071
		c-0.444-0.934-0.737-1.966-1.319-2.801C23.461,5.077,22.624,4.493,21.899,3.807z"/>
	<path fill-rule="evenodd" clip-rule="evenodd" fill="#111110" d="M10.911,16.765c-0.174-0.133-0.568-0.286-0.685-0.558
		c-0.203-0.47,0.171-0.8,0.582-0.942c0.732-0.253,1.491-0.427,2.232-0.654c0.987-0.303,1.978-0.597,2.95-0.944
		c1.565-0.559,2.855-1.461,3.622-3.005c0.271-0.546,0.533-1.239,1.332-1.086c0.983,0.189,1.984,0.531,2.421,1.507
		c0.354,0.789-0.049,1.587-0.687,2.086c-0.727,0.568-1.525,1.149-2.387,1.419c-2.021,0.63-4.093,1.101-6.155,1.59
		C13.128,16.417,12.097,16.553,10.911,16.765z"/>
</g>
</svg>
