<?xml version="1.0" encoding="utf-8"?>
<!-- Generator: Adobe Illustrator 16.0.0, SVG Export Plug-In . SVG Version: 6.00 Build 0)  -->
<!DOCTYPE svg PUBLIC "-//W3C//DTD SVG 1.1//EN" "http://www.w3.org/Graphics/SVG/1.1/DTD/svg11.dtd">
<svg version="1.1" id="Layer_1" xmlns="http://www.w3.org/2000/svg" xmlns:xlink="http://www.w3.org/1999/xlink" x="0px" y="0px"
	 width="50px" height="50px" viewBox="0 0 50 50" enable-background="new 0 0 50 50" xml:space="preserve">
<g>
	<path fill-rule="evenodd" clip-rule="evenodd" fill="#EC5856" d="M31.48,39.672c1.464,0.088,2.749,0.097,4.016,0.256
		c2.022,0.256,3.201,2.495,2.373,4.375c-0.482,1.096-1.062,1.929-2.478,2.032c-1.315,0.096-2.614,0.518-3.903,0.861
		c-2.844,0.759-5.301,0.002-7.567-1.899c-0.872,0.718-1.923,0.71-2.976,0.645c-0.601-0.037-0.997,0.059-1.269,0.725
		c-0.271,0.663-0.544,0.597-1.151,0.108c-0.81-0.652-1.052-1.583-1.178-2.5c-0.112-0.819-0.506-1.076-1.23-1.203
		c-1.167-0.205-2.323-0.483-3.48-0.746c-0.238-0.054-0.458-0.183-0.69-0.267c-0.417-0.15-0.726-0.416-0.625-0.884
		c0.123-0.57,0.619-0.394,0.987-0.368c0.595,0.041,1.185,0.159,1.779,0.207c0.736,0.059,1.476,0.078,2.401,0.124
		c-0.305-1.101-0.563-2.032-0.823-2.964c-0.08-0.286-0.127-0.59-0.255-0.854c-0.273-0.567-0.054-1.028,0.41-1.253
		c0.51-0.248,0.823,0.25,1.076,0.603c0.197,0.273,0.29,0.626,0.412,0.95c0.436,1.151,0.866,2.306,1.257,3.35
		c1.031-0.054,1.923-0.098,2.815-0.149c0.944-0.056,1.012-0.122,1.052-1.059c0.017-0.394,0.002-0.787,0.002-1.368
		c-0.722,0.121-1.333,0.223-2.015,0.337c-0.035,0.357-0.02,0.709-0.118,1.025c-0.058,0.188-0.304,0.456-0.449,0.446
		c-0.242-0.017-0.556-0.172-0.685-0.37c-0.15-0.231-0.155-0.569-0.189-0.865c-0.268-2.271-0.568-4.541-0.773-6.817
		c-0.101-1.117,0.117-1.312,1.284-1.287c3.166,0.067,6.228-0.549,9.27-1.319c0.144-0.037,0.278-0.115,0.423-0.141
		c2.482-0.443,2.668-0.292,2.584,2.231c-0.082,2.447-0.191,4.895-0.285,7.342C31.473,39.22,31.48,39.464,31.48,39.672z
		 M25.483,44.553c1.54,1.528,2.394,1.756,4.27,1.022c0.795-0.312,1.581-0.498,2.437-0.563c0.616-0.047,1.272-0.277,1.803-0.603
		c1.158-0.71,1.043-2.289-0.166-2.883c-0.723-0.354-1.477-0.524-2.316-0.201c0,0.668-0.053,1.316,0.014,1.953
		c0.068,0.645-0.275,0.999-0.787,1.032c-1.025,0.067-2.119,0.58-3.067-0.344c-0.147-0.145-0.573-0.095-0.832-0.013
		C26.375,44.104,25.942,44.345,25.483,44.553z M25.229,31.626c0,0.58,0,1.066,0,1.639c0.711,0,1.355,0.042,1.99-0.014
		c0.498-0.044,0.99-0.979,0.873-1.531c-0.099-0.467-0.516-0.638-1.227-0.482C26.34,31.352,25.819,31.485,25.229,31.626z
		 M25.517,40.13c2.366,0.217,2.599-0.023,2.096-1.953c-0.695,0-1.373,0-2.096,0C25.517,38.858,25.517,39.443,25.517,40.13z
		 M22.888,35.066c-0.904,0.054-1.517-0.003-2.064,0.159c-0.292,0.087-0.602,0.53-0.657,0.854c-0.039,0.231,0.313,0.741,0.525,0.762
		c0.572,0.054,1.244,0.058,1.716-0.206C22.697,36.475,22.689,35.784,22.888,35.066z M22.71,31.918
		c-0.814,0.063-1.447,0.139-2.082,0.155c-0.569,0.015-0.606,0.358-0.605,0.793c0,0.468,0.151,0.774,0.669,0.763
		c0.673-0.016,1.347-0.043,2.018-0.066C22.71,32.916,22.71,32.437,22.71,31.918z M25.393,34.783
		c0.045,0.707,0.077,1.191,0.106,1.646c0.56-0.046,1.046-0.074,1.531-0.129c0.654-0.074,0.832-0.313,0.821-0.959
		c-0.011-0.598-0.397-0.574-0.815-0.562C26.549,34.794,26.063,34.783,25.393,34.783z M19.869,44.304
		c0.842-0.182,1.519-0.3,2.176-0.488c0.161-0.046,0.395-0.379,0.354-0.481c-0.091-0.223-0.337-0.54-0.52-0.541
		c-0.685-0.001-1.378,0.07-2.05,0.207c-0.172,0.034-0.402,0.422-0.379,0.62C19.48,43.878,19.739,44.108,19.869,44.304z
		 M27.701,41.713c-0.772,0.156-1.211,0.217-1.627,0.346c-0.134,0.041-0.254,0.251-0.299,0.407c-0.032,0.109,0.065,0.368,0.123,0.373
		c0.481,0.045,0.993,0.144,1.437,0.016C27.514,42.803,27.546,42.233,27.701,41.713z"/>
	<path fill-rule="evenodd" clip-rule="evenodd" fill="#ED5A58" d="M22.846,27.772c-0.931-1.392-0.932-1.392-0.118-2.79
		c0.25-0.43,0.483-0.872,0.765-1.28c0.26-0.376,0.647-0.499,1.046-0.236c0.337,0.222,0.556,0.488,0.36,0.988
		c-0.271,0.691-0.459,1.432-0.068,2.159c0.127,0.235,0.324,0.645,0.448,0.63c0.354-0.042,0.882-0.175,0.994-0.426
		c0.383-0.855,0.637-1.771,0.887-2.677c0.053-0.192-0.07-0.478-0.198-0.662c-0.198-0.285-0.464-0.524-0.71-0.774
		c-0.999-1.015-0.999-1.012-0.059-1.982c1.892-1.956,1.672-1.673,2.803,0.311c0.123,0.216,0.244,0.434,0.371,0.646
		c0.816,1.359,0.786,1.337-0.182,2.708c-0.352,0.497-0.951,0.964-0.656,1.727c1.434-0.243,2.864-0.525,4.307-0.716
		c1.084-0.143,2.184-0.181,3.278-0.24c0.237-0.012,0.503,0.04,0.719,0.142c0.597,0.282,0.689,0.958,0.132,1.276
		c-0.411,0.234-0.928,0.323-1.409,0.39c-1.429,0.194-2.876,0.27-4.29,0.533c-1.993,0.371-3.967,0.853-5.943,1.315
		c-2.878,0.673-5.764,1.101-8.726,0.605c-0.637-0.106-1.303-0.026-1.954-0.063c-0.975-0.054-1.873-0.313-2.521-1.113
		c-0.382-0.472-0.331-0.832,0.232-1.034c0.452-0.162,0.975-0.268,1.445-0.214c1.925,0.221,3.837,0.56,5.763,0.758
		C20.598,27.86,21.652,27.772,22.846,27.772z"/>
	<path fill-rule="evenodd" clip-rule="evenodd" fill="#101010" d="M15.273,19.187c-0.582-0.075-1.089-0.083-1.561-0.217
		c-0.51-0.144-0.926-0.539-0.824-1.089c0.094-0.504,0.506-0.836,1.085-0.872c0.797-0.049,1.594-0.109,2.388-0.188
		c3.731-0.369,7.292-1.53,10.921-2.369c1.502-0.347,3-0.708,4.51-1.021c0.434-0.089,0.915-0.114,1.345-0.025
		c1.409,0.291,2.81,0.623,4.201,0.989c0.729,0.192,0.975,0.825,1.039,1.498c0.037,0.389,0,0.806-0.104,1.183
		c-0.295,1.066-0.636,1.31-1.731,1.124c-0.679-0.115-1.374-0.304-1.986-0.61c-3.19-1.597-6.437-1.431-9.749-0.468
		c-1.905,0.553-3.826,1.061-5.762,1.494C17.784,18.897,16.484,19.009,15.273,19.187z"/>
	<path fill-rule="evenodd" clip-rule="evenodd" fill="#131313" d="M19.714,8.326c-0.644-0.088-1.244-0.135-1.828-0.259
		c-0.838-0.177-1.185-0.546-1.142-1.109c0.05-0.666,0.53-1.087,1.311-1.108c2.969-0.08,5.838-0.69,8.634-1.653
		c1.361-0.469,2.694-1.018,4.04-1.531C31.1,2.525,31.46,2.336,31.844,2.25c1.24-0.276,1.825,0.452,1.53,1.707
		c-0.25,1.062-0.861,1.621-1.878,1.866c-2.754,0.665-5.494,1.383-8.257,2.006C22.074,8.092,20.868,8.169,19.714,8.326z"/>
	<path fill-rule="evenodd" clip-rule="evenodd" fill="#121211" d="M19.692,13.443c-0.765-0.055-1.273-0.044-1.761-0.138
		c-0.792-0.153-1.012-0.5-0.966-1.23c0.045-0.719,0.505-0.949,1.107-0.951c4.33-0.007,8.303-1.411,12.207-3.09
		c0.184-0.079,0.376-0.135,0.566-0.193c0.75-0.226,1.205,0.087,1.141,0.826c-0.044,0.495-0.074,1.027-0.284,1.459
		c-0.173,0.358-0.555,0.762-0.92,0.857c-2.831,0.745-5.675,1.444-8.527,2.104C21.335,13.299,20.379,13.352,19.692,13.443z"/>
</g>
</svg>
