<?xml version="1.0" encoding="utf-8"?>
<!-- Generator: Adobe Illustrator 16.0.0, SVG Export Plug-In . SVG Version: 6.00 Build 0)  -->
<!DOCTYPE svg PUBLIC "-//W3C//DTD SVG 1.1//EN" "http://www.w3.org/Graphics/SVG/1.1/DTD/svg11.dtd">
<svg version="1.1" id="Layer_1" xmlns="http://www.w3.org/2000/svg" xmlns:xlink="http://www.w3.org/1999/xlink" x="0px" y="0px"
	 width="50px" height="50px" viewBox="0 0 50 50" enable-background="new 0 0 50 50" xml:space="preserve">
<g>
	<path fill-rule="evenodd" clip-rule="evenodd" fill="#141514" d="M34.497,47.691c-3.652,0.26-8.045-2.813-8.074-7.967
		c-0.024-4.408,3.299-8.049,8.161-8.105c4.411-0.053,7.876,3.633,7.969,8.105C42.635,43.678,39.115,47.889,34.497,47.691z
		 M40.567,39.703c0.001-3.414-2.77-6.33-6.1-6.184c-4.061,0.176-6.143,3.213-6.127,6.213c0.016,3.207,2.539,6.053,6.239,6.061
		C38.121,45.803,40.862,42.479,40.567,39.703z"/>
	<path fill-rule="evenodd" clip-rule="evenodd" fill="#151515" d="M34.479,2.595c4.958-0.16,8.067,4.271,8.096,7.938
		c0.033,4.063-3.47,8.06-7.975,8.108c-4.096,0.044-8.193-3.175-8.182-8.065C26.432,5.752,30.433,2.424,34.479,2.595z M40.568,10.6
		c0.264-2.701-2.135-6.104-6.122-6.177c-3.315-0.06-6.172,2.929-6.132,6.243c0.04,3.329,2.958,6.16,6.288,6.098
		C37.9,16.702,40.568,13.946,40.568,10.6z"/>
	<path fill-rule="evenodd" clip-rule="evenodd" fill="#151515" d="M15.45,47.691c-4.36,0.201-8.029-3.65-8.071-7.947
		c-0.035-3.471,2.583-8.039,7.958-8.107c4.593-0.059,8.081,3.354,8.166,8.076C23.583,44.152,19.938,47.688,15.45,47.691z
		 M15.365,45.771c3.308,0.076,6.194-2.301,6.202-6.064c0.007-3.529-2.384-6.061-5.982-6.152c-3.483-0.088-6.261,2.279-6.275,6.182
		C9.297,43.549,12.421,45.855,15.365,45.771z"/>
	<path fill-rule="evenodd" clip-rule="evenodd" fill="#151515" d="M7.43,10.57c-0.255-3.98,3.375-8.02,7.992-8.018
		c3.791,0.002,8.031,2.9,8.066,7.996c0.037,5.308-4.456,8.142-8.127,8.099C11.111,18.596,7.23,14.975,7.43,10.57z M15.478,16.767
		c3.966-0.309,6.188-2.952,6.081-6.258c-0.132-4.052-2.963-6.134-6.258-6.042C11.667,4.57,9.33,7.042,9.313,10.603
		C9.294,14.213,11.964,16.587,15.478,16.767z"/>
	<path fill-rule="evenodd" clip-rule="evenodd" fill="#E9E8EC" d="M40.567,39.703c0.295,2.775-2.446,6.1-5.987,6.09
		c-3.7-0.008-6.224-2.854-6.239-6.061c-0.016-3,2.066-6.037,6.127-6.213C37.798,33.373,40.568,36.289,40.567,39.703z M39.624,39.713
		c0.14-2.922-2.279-5.262-5.104-5.246c-3.168,0.018-5.246,2.602-5.224,5.186c0.024,2.865,2.337,5.361,5.147,5.275
		C37.74,44.826,39.764,42.244,39.624,39.713z"/>
	<path fill-rule="evenodd" clip-rule="evenodd" fill="#EAE9EC" d="M40.568,10.6c0,3.346-2.668,6.102-5.966,6.164
		c-3.33,0.062-6.248-2.769-6.288-6.098c-0.04-3.314,2.816-6.303,6.132-6.243C38.434,4.495,40.832,7.898,40.568,10.6z M39.625,10.641
		c0.154-2.831-2.155-5.288-5.134-5.261c-3.15,0.028-5.232,2.538-5.193,5.251c0.041,2.849,2.438,5.338,5.257,5.208
		C37.717,15.691,39.757,13.159,39.625,10.641z"/>
	<path fill-rule="evenodd" clip-rule="evenodd" fill="#E8E7EA" d="M15.365,45.771c-2.944,0.084-6.068-2.223-6.055-6.035
		c0.014-3.902,2.792-6.27,6.275-6.182c3.598,0.092,5.989,2.623,5.982,6.152C21.559,43.471,18.672,45.848,15.365,45.771z
		 M10.167,39.633c0.266,2.969,1.946,5.199,5.214,5.248c2.971,0.045,5.176-1.85,5.247-5.139c0.063-2.908-1.862-5.203-5.147-5.246
		C12.443,34.457,10.532,36.398,10.167,39.633z"/>
	<path fill-rule="evenodd" clip-rule="evenodd" fill="#E7E6EA" d="M15.478,16.767c-3.514-0.18-6.184-2.554-6.166-6.164
		c0.018-3.561,2.354-6.033,5.989-6.136c3.295-0.092,6.126,1.99,6.258,6.042C21.666,13.814,19.444,16.458,15.478,16.767z
		 M20.689,10.586c-0.296-3.13-2.173-5.205-5.271-5.186c-3.248,0.02-5.194,2.194-5.181,5.206c0.014,3.159,2.107,5.193,5.208,5.183
		C18.456,15.779,20.369,13.905,20.689,10.586z"/>
	<path fill-rule="evenodd" clip-rule="evenodd" fill="#1D1D51" d="M39.624,39.713c0.14,2.531-1.884,5.113-5.18,5.215
		c-2.811,0.086-5.123-2.41-5.147-5.275c-0.022-2.584,2.056-5.168,5.224-5.186C37.345,34.451,39.764,36.791,39.624,39.713z
		 M34.535,38.596c-0.498-0.031-1.179,0.574-1.195,1.064c-0.016,0.43,0.545,1.006,1.033,1.063c0.698,0.082,1.176-0.293,1.219-0.953
		C35.633,39.137,35.181,38.635,34.535,38.596z M38.033,39.492c-0.321-0.629-0.591-1.209-0.917-1.756
		c-0.066-0.109-0.462-0.178-0.507-0.117c-0.134,0.18-0.27,0.459-0.222,0.652c0.113,0.467,0.303,0.922,0.522,1.35
		c0.097,0.188,0.36,0.428,0.517,0.406C37.62,40.002,37.782,39.73,38.033,39.492z M33.995,42.539
		c-0.021-0.184-0.007-0.264-0.037-0.287c-0.586-0.455-1.17-0.912-1.775-1.34c-0.057-0.041-0.295,0.084-0.371,0.189
		c-0.08,0.107-0.139,0.371-0.083,0.418c0.566,0.471,1.146,0.93,1.758,1.336C33.562,42.904,33.853,42.631,33.995,42.539z
		 M34.473,37.393c0.07,0,0.126,0.008,0.178,0c0.434-0.07,1.169,0.266,1.167-0.443c-0.002-0.551-0.68-0.576-1.185-0.547
		c-0.055,0.004-0.11-0.006-0.163,0.002c-0.479,0.07-1.271-0.229-1.195,0.617C33.341,37.762,34.076,37.254,34.473,37.393z
		 M35.33,42.875c0.522,0.025,1.767-0.875,1.864-1.404c0.025-0.133-0.39-0.494-0.438-0.467c-0.601,0.344-1.179,0.73-1.738,1.139
		c-0.077,0.057-0.076,0.313-0.02,0.434C35.059,42.707,35.227,42.789,35.33,42.875z M31.221,39.535
		c0.083,0.115,0.224,0.309,0.362,0.5c0.195-0.152,0.457-0.268,0.569-0.467c0.125-0.225,0.081-0.537,0.171-0.791
		c0.156-0.436,0.623-0.961-0.135-1.162c-0.186-0.051-0.61,0.604-0.84,0.986C31.22,38.813,31.269,39.131,31.221,39.535z"/>
	<path fill-rule="evenodd" clip-rule="evenodd" fill="#1D1D51" d="M39.625,10.641c0.132,2.518-1.908,5.05-5.07,5.197
		c-2.818,0.13-5.216-2.359-5.257-5.208c-0.039-2.713,2.043-5.223,5.193-5.251C37.47,5.353,39.779,7.81,39.625,10.641z
		 M35.592,10.569c-0.018-0.668-0.488-1.059-1.21-1.005c-0.566,0.042-1.063,0.552-1.04,1.069c0.025,0.571,0.629,1.044,1.269,0.994
		C35.281,11.574,35.609,11.221,35.592,10.569z M34.09,13.508c-0.046-0.147-0.045-0.279-0.108-0.329
		c-0.579-0.461-1.162-0.917-1.764-1.347c-0.065-0.046-0.295,0.051-0.38,0.144c-0.093,0.103-0.192,0.328-0.142,0.414
		c0.422,0.729,1.06,1.208,1.876,1.398C33.719,13.822,33.923,13.604,34.09,13.508z M37.341,11.072
		c0.193-0.193,0.506-0.362,0.504-0.528c-0.004-0.773-0.204-1.502-0.865-2c-0.089-0.067-0.326-0.077-0.39-0.012
		c-0.134,0.137-0.31,0.374-0.271,0.514c0.158,0.566,0.379,1.116,0.605,1.659C36.977,10.828,37.143,10.903,37.341,11.072z
		 M34.414,8.3c0.176,0,0.339,0.008,0.5-0.001c0.354-0.021,0.893,0.131,0.898-0.389c0.007-0.516-0.495-0.62-0.957-0.607
		c-0.108,0.003-0.219-0.014-0.324,0.002c-0.482,0.074-1.272-0.255-1.266,0.563C33.271,8.618,34.019,8.175,34.414,8.3z
		 M31.224,10.299c0.076,0.139,0.213,0.391,0.35,0.642c0.216-0.2,0.473-0.372,0.633-0.609c0.111-0.165,0.049-0.437,0.133-0.631
		c0.193-0.444,0.585-0.968-0.141-1.173c-0.184-0.052-0.6,0.601-0.852,0.97C31.237,9.657,31.274,9.918,31.224,10.299z M37.246,12.176
		c-0.109-0.072-0.334-0.298-0.406-0.257c-0.643,0.364-1.265,0.766-1.863,1.198c-0.032,0.023,0.148,0.54,0.313,0.602
		C35.789,13.905,37.124,12.887,37.246,12.176z"/>
	<path fill-rule="evenodd" clip-rule="evenodd" fill="#1E1E51" d="M10.167,39.633c0.365-3.234,2.276-5.176,5.314-5.137
		c3.285,0.043,5.21,2.338,5.147,5.246c-0.071,3.289-2.276,5.184-5.247,5.139C12.113,44.832,10.433,42.602,10.167,39.633z
		 M16.451,39.625c-0.036-0.625-0.424-0.973-1.064-0.955c-0.642,0.02-0.975,0.369-0.976,1.025c-0.001,0.725,0.389,1.076,1.128,1.018
		C16.153,40.664,16.486,40.266,16.451,39.625z M18.93,39.377c-0.331-0.633-0.608-1.199-0.925-1.74
		c-0.052-0.088-0.337-0.148-0.414-0.09c-0.144,0.109-0.323,0.338-0.295,0.477c0.104,0.521,0.254,1.039,0.454,1.531
		c0.084,0.207,0.403,0.518,0.5,0.48C18.48,39.947,18.64,39.678,18.93,39.377z M13.214,40.855c-0.129,0.084-0.334,0.143-0.379,0.264
		c-0.068,0.184-0.115,0.521-0.017,0.598c0.538,0.422,1.116,0.793,1.7,1.148c0.067,0.041,0.301-0.098,0.387-0.207
		c0.085-0.109,0.157-0.379,0.105-0.422C14.43,41.762,13.824,41.316,13.214,40.855z M11.94,39.324
		c0.215,0.262,0.418,0.51,0.621,0.756c0.18-0.213,0.412-0.4,0.526-0.645c0.179-0.383,0.32-0.795,0.393-1.211
		c0.035-0.201-0.123-0.436-0.194-0.656c-0.184,0.061-0.458,0.064-0.537,0.191C12.469,38.209,12.255,38.699,11.94,39.324z
		 M17.764,40.846c-0.736,0.531-1.349,0.963-1.93,1.432c-0.024,0.02,0.209,0.543,0.378,0.58c0.541,0.121,1.767-0.754,1.861-1.309
		C18.103,41.367,17.904,41.148,17.764,40.846z M15.485,37.398c0.216,0,0.446,0.049,0.643-0.012c0.209-0.066,0.385-0.236,0.577-0.361
		c-0.157-0.191-0.294-0.523-0.475-0.549c-0.526-0.074-1.076-0.076-1.602-0.002c-0.192,0.025-0.344,0.346-0.515,0.531
		c0.188,0.131,0.359,0.324,0.567,0.379C14.933,37.451,15.216,37.4,15.485,37.398z"/>
	<path fill-rule="evenodd" clip-rule="evenodd" fill="#1E1E52" d="M20.689,10.586c-0.32,3.319-2.233,5.193-5.244,5.203
		c-3.1,0.01-5.194-2.023-5.208-5.183C10.224,7.594,12.17,5.42,15.418,5.4C18.516,5.381,20.394,7.456,20.689,10.586z M16.449,10.564
		c-0.02-0.642-0.378-0.985-1.028-0.985c-0.705,0.001-1.073,0.419-1.01,1.147c0.056,0.637,0.411,0.926,1.091,0.888
		C16.136,11.579,16.469,11.209,16.449,10.564z M18.715,9.822c-0.135-0.252-0.387-0.776-0.701-1.259
		c-0.061-0.094-0.378-0.077-0.549-0.022c-0.095,0.031-0.208,0.266-0.18,0.375c0.159,0.618,0.332,1.235,0.564,1.828
		c0.048,0.124,0.364,0.19,0.557,0.192c0.103,0.001,0.252-0.177,0.298-0.304C18.755,10.487,18.715,10.309,18.715,9.822z
		 M13.079,11.745c-0.143,0.24-0.32,0.4-0.32,0.561c0.001,0.61,1.27,1.593,1.885,1.43c0.165-0.043,0.378-0.566,0.347-0.591
		C14.407,12.676,13.79,12.25,13.079,11.745z M17.906,11.782c-0.698,0.437-1.331,0.818-1.943,1.23
		c-0.096,0.065-0.158,0.293-0.121,0.409c0.043,0.134,0.248,0.343,0.323,0.32c0.447-0.134,0.907-0.274,1.304-0.511
		C17.882,12.985,18.273,12.648,17.906,11.782z M16.821,8.219c-0.341-1.207-1.164-0.852-1.784-0.899
		c-0.542-0.042-0.954,0.156-0.898,0.899C14.982,8.219,15.82,8.219,16.821,8.219z M13.559,8.804
		c-0.027-0.037-0.091-0.206-0.209-0.264c-0.108-0.053-0.323-0.04-0.409,0.036c-0.594,0.521-0.925,1.176-0.815,1.979
		c0.021,0.155,0.233,0.374,0.383,0.396c0.167,0.025,0.482-0.097,0.527-0.227C13.241,10.128,13.375,9.507,13.559,8.804z"/>
	<path fill-rule="evenodd" clip-rule="evenodd" fill="#DAD9E7" d="M34.535,38.596c0.646,0.039,1.098,0.541,1.057,1.174
		c-0.043,0.66-0.521,1.035-1.219,0.953c-0.488-0.057-1.049-0.633-1.033-1.063C33.356,39.17,34.037,38.564,34.535,38.596z
		 M34.979,39.746c-0.157-0.148-0.25-0.307-0.361-0.32c-0.121-0.016-0.258,0.104-0.389,0.164c0.111,0.141,0.204,0.309,0.346,0.404
		C34.621,40.023,34.795,39.861,34.979,39.746z"/>
	<path fill-rule="evenodd" clip-rule="evenodd" fill="#DCDCE9" d="M38.033,39.492c-0.251,0.238-0.413,0.51-0.606,0.535
		c-0.156,0.021-0.42-0.219-0.517-0.406c-0.22-0.428-0.409-0.883-0.522-1.35c-0.048-0.193,0.088-0.473,0.222-0.652
		c0.045-0.061,0.44,0.008,0.507,0.117C37.442,38.283,37.712,38.863,38.033,39.492z"/>
	<path fill-rule="evenodd" clip-rule="evenodd" fill="#E7E6EF" d="M33.995,42.539c-0.143,0.092-0.434,0.365-0.509,0.316
		c-0.612-0.406-1.191-0.865-1.758-1.336c-0.056-0.047,0.003-0.311,0.083-0.418c0.076-0.105,0.314-0.23,0.371-0.189
		c0.605,0.428,1.189,0.885,1.775,1.34C33.988,42.275,33.974,42.355,33.995,42.539z"/>
	<path fill-rule="evenodd" clip-rule="evenodd" fill="#EBEAF2" d="M34.473,37.393c-0.396-0.139-1.132,0.369-1.198-0.371
		c-0.076-0.846,0.716-0.547,1.195-0.617c0.053-0.008,0.108,0.002,0.163-0.002c0.505-0.029,1.183-0.004,1.185,0.547
		c0.002,0.709-0.733,0.373-1.167,0.443C34.599,37.4,34.543,37.393,34.473,37.393z"/>
	<path fill-rule="evenodd" clip-rule="evenodd" fill="#EAE9F1" d="M35.33,42.875c-0.104-0.086-0.271-0.168-0.332-0.299
		c-0.057-0.121-0.058-0.377,0.02-0.434c0.56-0.408,1.138-0.795,1.738-1.139c0.049-0.027,0.464,0.334,0.438,0.467
		C37.097,42,35.853,42.9,35.33,42.875z"/>
	<path fill-rule="evenodd" clip-rule="evenodd" fill="#EBEAF2" d="M31.221,39.535c0.048-0.404-0.001-0.723,0.128-0.934
		c0.229-0.383,0.654-1.037,0.84-0.986c0.758,0.201,0.291,0.727,0.135,1.162c-0.09,0.254-0.046,0.566-0.171,0.791
		c-0.112,0.199-0.374,0.314-0.569,0.467C31.444,39.844,31.304,39.65,31.221,39.535z"/>
	<path fill-rule="evenodd" clip-rule="evenodd" fill="#DAD9E7" d="M35.592,10.569c0.018,0.652-0.311,1.005-0.981,1.058
		c-0.64,0.05-1.243-0.422-1.269-0.994c-0.022-0.517,0.474-1.026,1.04-1.069C35.104,9.51,35.574,9.901,35.592,10.569z M34.979,10.648
		c-0.159-0.148-0.252-0.306-0.362-0.319c-0.121-0.014-0.258,0.105-0.388,0.166c0.111,0.139,0.203,0.307,0.344,0.4
		C34.621,10.925,34.795,10.765,34.979,10.648z"/>
	<path fill-rule="evenodd" clip-rule="evenodd" fill="#DCDBE8" d="M34.09,13.508c-0.167,0.096-0.371,0.314-0.518,0.281
		c-0.816-0.191-1.454-0.669-1.876-1.398c-0.051-0.086,0.049-0.311,0.142-0.414c0.085-0.093,0.314-0.19,0.38-0.144
		c0.602,0.429,1.185,0.885,1.764,1.347C34.045,13.229,34.044,13.36,34.09,13.508z"/>
	<path fill-rule="evenodd" clip-rule="evenodd" fill="#DCDCE9" d="M37.341,11.072c-0.198-0.169-0.364-0.244-0.416-0.367
		c-0.227-0.543-0.447-1.093-0.605-1.659c-0.039-0.141,0.137-0.377,0.271-0.514c0.063-0.065,0.301-0.056,0.39,0.012
		c0.661,0.498,0.861,1.228,0.865,2C37.847,10.71,37.534,10.879,37.341,11.072z"/>
	<path fill-rule="evenodd" clip-rule="evenodd" fill="#EBEAF2" d="M34.414,8.3c-0.396-0.125-1.143,0.317-1.148-0.432
		c-0.007-0.818,0.783-0.49,1.266-0.563c0.105-0.016,0.216,0,0.324-0.002c0.462-0.013,0.964,0.092,0.957,0.607
		c-0.006,0.52-0.545,0.367-0.898,0.389C34.753,8.309,34.59,8.3,34.414,8.3z"/>
	<path fill-rule="evenodd" clip-rule="evenodd" fill="#EAE9F1" d="M31.224,10.299c0.051-0.38,0.014-0.642,0.123-0.802
		c0.252-0.369,0.668-1.021,0.852-0.97c0.726,0.205,0.334,0.729,0.141,1.173c-0.084,0.195-0.021,0.466-0.133,0.631
		c-0.16,0.238-0.417,0.409-0.633,0.609C31.437,10.689,31.3,10.438,31.224,10.299z"/>
	<path fill-rule="evenodd" clip-rule="evenodd" fill="#EAE9F1" d="M37.246,12.176c-0.122,0.711-1.457,1.729-1.956,1.542
		c-0.165-0.062-0.346-0.578-0.313-0.602c0.599-0.432,1.221-0.834,1.863-1.198C36.912,11.878,37.137,12.104,37.246,12.176z"/>
	<path fill-rule="evenodd" clip-rule="evenodd" fill="#F0EFF7" d="M16.451,39.625c0.035,0.641-0.298,1.039-0.912,1.088
		c-0.739,0.059-1.129-0.293-1.128-1.018c0.001-0.656,0.334-1.006,0.976-1.025C16.026,38.652,16.415,39,16.451,39.625z
		 M15.496,39.309c-0.169,0.129-0.282,0.215-0.395,0.299c0.113,0.137,0.227,0.273,0.34,0.41c0.096-0.1,0.252-0.191,0.268-0.303
		C15.725,39.607,15.593,39.48,15.496,39.309z"/>
	<path fill-rule="evenodd" clip-rule="evenodd" fill="#DCDBE8" d="M18.93,39.377c-0.29,0.301-0.45,0.57-0.68,0.658
		c-0.097,0.037-0.416-0.273-0.5-0.48c-0.2-0.492-0.351-1.01-0.454-1.531c-0.028-0.139,0.151-0.367,0.295-0.477
		c0.077-0.059,0.362,0.002,0.414,0.09C18.322,38.178,18.6,38.744,18.93,39.377z"/>
	<path fill-rule="evenodd" clip-rule="evenodd" fill="#DBDAE7" d="M13.214,40.855c0.61,0.461,1.215,0.906,1.796,1.381
		c0.051,0.043-0.021,0.313-0.105,0.422c-0.086,0.109-0.319,0.248-0.387,0.207c-0.584-0.355-1.162-0.727-1.7-1.148
		c-0.098-0.076-0.051-0.414,0.017-0.598C12.88,40.998,13.085,40.939,13.214,40.855z"/>
	<path fill-rule="evenodd" clip-rule="evenodd" fill="#E7E6EF" d="M11.94,39.324c0.314-0.625,0.528-1.115,0.809-1.564
		c0.079-0.127,0.353-0.131,0.537-0.191c0.071,0.221,0.229,0.455,0.194,0.656c-0.072,0.416-0.214,0.828-0.393,1.211
		c-0.114,0.244-0.347,0.432-0.526,0.645C12.358,39.834,12.155,39.586,11.94,39.324z"/>
	<path fill-rule="evenodd" clip-rule="evenodd" fill="#DFDEEA" d="M17.764,40.846c0.14,0.303,0.339,0.521,0.309,0.703
		c-0.094,0.555-1.32,1.43-1.861,1.309c-0.169-0.037-0.402-0.561-0.378-0.58C16.415,41.809,17.028,41.377,17.764,40.846z"/>
	<path fill-rule="evenodd" clip-rule="evenodd" fill="#F5F5FA" d="M15.485,37.4c-0.27,0-0.553,0.051-0.805-0.016
		c-0.208-0.055-0.379-0.248-0.567-0.379c0.17-0.186,0.322-0.506,0.515-0.531c0.526-0.074,1.076-0.072,1.602,0.002
		c0.181,0.025,0.317,0.357,0.475,0.549c-0.191,0.125-0.368,0.295-0.577,0.361C15.932,37.447,15.701,37.398,15.485,37.4z"/>
	<path fill-rule="evenodd" clip-rule="evenodd" fill="#F0F0F7" d="M16.449,10.564c0.02,0.646-0.313,1.015-0.946,1.05
		c-0.681,0.038-1.036-0.25-1.091-0.888c-0.063-0.728,0.305-1.146,1.01-1.147C16.071,9.579,16.429,9.922,16.449,10.564z
		 M15.513,11.002c0.091-0.172,0.22-0.305,0.204-0.417c-0.015-0.107-0.18-0.193-0.279-0.289c-0.11,0.14-0.22,0.279-0.33,0.419
		C15.226,10.799,15.343,10.882,15.513,11.002z"/>
	<path fill-rule="evenodd" clip-rule="evenodd" fill="#DBDAE7" d="M18.715,9.822c0,0.487,0.04,0.665-0.012,0.81
		c-0.046,0.127-0.195,0.305-0.298,0.304c-0.193-0.002-0.508-0.068-0.557-0.192c-0.232-0.593-0.405-1.21-0.564-1.828
		c-0.028-0.109,0.085-0.344,0.18-0.375c0.171-0.055,0.488-0.072,0.549,0.022C18.328,9.046,18.58,9.569,18.715,9.822z"/>
	<path fill-rule="evenodd" clip-rule="evenodd" fill="#DBDAE7" d="M13.079,11.745c0.71,0.505,1.328,0.932,1.912,1.399
		c0.031,0.025-0.182,0.547-0.347,0.591c-0.615,0.163-1.883-0.82-1.885-1.43C12.759,12.145,12.936,11.985,13.079,11.745z"/>
	<path fill-rule="evenodd" clip-rule="evenodd" fill="#E6E5EE" d="M17.906,11.782c0.368,0.867-0.023,1.204-0.436,1.449
		c-0.397,0.237-0.857,0.377-1.304,0.511c-0.075,0.022-0.28-0.186-0.323-0.32c-0.038-0.116,0.025-0.344,0.121-0.409
		C16.575,12.6,17.208,12.218,17.906,11.782z"/>
	<path fill-rule="evenodd" clip-rule="evenodd" fill="#F6F6FB" d="M16.821,8.219c-1,0-1.838,0-2.683,0
		c-0.056-0.744,0.356-0.941,0.898-0.899C15.657,7.368,16.479,7.013,16.821,8.219z"/>
	<path fill-rule="evenodd" clip-rule="evenodd" fill="#E7E6EF" d="M13.559,8.804c-0.184,0.703-0.317,1.324-0.523,1.921
		c-0.044,0.13-0.359,0.252-0.527,0.227c-0.149-0.023-0.361-0.242-0.383-0.396c-0.11-0.804,0.221-1.458,0.815-1.979
		c0.086-0.076,0.301-0.088,0.409-0.036C13.468,8.599,13.532,8.768,13.559,8.804z"/>
	<path fill-rule="evenodd" clip-rule="evenodd" fill="#1A174E" d="M34.979,39.746c-0.185,0.115-0.358,0.277-0.404,0.248
		c-0.142-0.096-0.234-0.264-0.346-0.404c0.131-0.061,0.268-0.18,0.389-0.164C34.729,39.439,34.822,39.598,34.979,39.746z"/>
	<path fill-rule="evenodd" clip-rule="evenodd" fill="#1A174E" d="M34.979,10.648c-0.185,0.117-0.358,0.277-0.406,0.247
		c-0.141-0.093-0.232-0.261-0.344-0.4c0.13-0.061,0.267-0.18,0.388-0.166C34.728,10.342,34.82,10.5,34.979,10.648z"/>
	<path fill-rule="evenodd" clip-rule="evenodd" fill="#16154A" d="M15.496,39.309c0.097,0.172,0.229,0.299,0.213,0.406
		c-0.016,0.111-0.172,0.203-0.268,0.303c-0.113-0.137-0.227-0.273-0.34-0.41C15.214,39.523,15.327,39.438,15.496,39.309z"/>
	<path fill-rule="evenodd" clip-rule="evenodd" fill="#16154A" d="M15.513,11.002c-0.17-0.12-0.287-0.203-0.404-0.286
		c0.109-0.14,0.22-0.279,0.33-0.419c0.099,0.095,0.264,0.182,0.279,0.289C15.733,10.698,15.604,10.83,15.513,11.002z"/>
</g>
</svg>
