<?xml version="1.0" encoding="utf-8"?>
<!-- Generator: Adobe Illustrator 16.0.0, SVG Export Plug-In . SVG Version: 6.00 Build 0)  -->
<!DOCTYPE svg PUBLIC "-//W3C//DTD SVG 1.1//EN" "http://www.w3.org/Graphics/SVG/1.1/DTD/svg11.dtd">
<svg version="1.1" id="Layer_1" xmlns="http://www.w3.org/2000/svg" xmlns:xlink="http://www.w3.org/1999/xlink" x="0px" y="0px"
	 width="50px" height="50px" viewBox="0 0 50 50" enable-background="new 0 0 50 50" xml:space="preserve">
<g>
	<path fill-rule="evenodd" clip-rule="evenodd" fill="#151515" d="M33.592,25.682c0.234,4.073-3.163,8.123-7.999,8.078
		c-4.868-0.045-7.939-4.123-7.918-8.038c0.024-4.628,4.004-7.894,7.795-7.988C29.612,17.631,33.753,21.16,33.592,25.682z
		 M25.664,19.722c-2.605-0.268-6.037,2.009-6.131,6.068c-0.075,3.199,2.822,6.126,6.029,6.069c3.211-0.057,6.085-2.107,6.177-6.052
		C31.831,21.788,28.296,19.463,25.664,19.722z"/>
	<path fill-rule="evenodd" clip-rule="evenodd" fill="#141514" d="M34.995,48.013c-3.565,0.23-7.953-2.838-7.928-7.985
		c0.023-4.752,3.95-7.933,8.022-7.93c4.948,0.004,8.093,4.335,8.003,8.104C42.992,44.418,39.359,48.256,34.995,48.013z
		 M41.107,40.253c0.3-2.897-2.094-6.314-6.052-6.278c-3.754,0.034-5.964,2.796-6.082,5.975c-0.112,3.036,2.274,6.146,6.024,6.166
		C38.405,46.132,41.075,43.595,41.107,40.253z"/>
	<path fill-rule="evenodd" clip-rule="evenodd" fill="#151515" d="M35.087,19.138c-3.694,0.245-7.979-2.84-8.021-7.895
		c-0.038-4.76,3.916-8.055,8.097-8.021c4.809,0.039,7.975,4.272,7.93,8.012C43.042,15.5,39.401,19.338,35.087,19.138z
		 M41.107,11.188c0.257-2.676-2.131-6.058-6.089-6.116c-3.296-0.049-6.178,2.924-6.056,6.208c0.112,3.021,2.181,5.955,6.237,6.013
		C38.483,17.339,41.11,14.515,41.107,11.188z"/>
	<path fill-rule="evenodd" clip-rule="evenodd" fill="#151515" d="M24.102,40.1c0.158,4.547-3.899,7.965-7.934,7.961
		c-4.215-0.004-8.031-3.584-7.998-8.102c0.024-3.382,2.699-7.932,8.056-7.882C21.292,32.124,24.305,36.343,24.102,40.1z
		 M16.138,46.108c3.303,0.059,6.143-2.364,6.111-6.062c-0.031-3.6-2.503-6.001-5.981-6.064c-3.288-0.061-6.077,2.085-6.184,6.02
		C9.982,43.725,13.036,46.203,16.138,46.108z"/>
	<path fill-rule="evenodd" clip-rule="evenodd" fill="#151515" d="M16.209,3.256c4.208-0.186,7.96,3.605,7.933,7.999
		c-0.028,4.487-3.957,7.981-8.042,7.931c-4.211-0.051-7.936-3.629-7.927-8.038C8.182,7.157,11.584,3.063,16.209,3.256z
		 M16.191,17.322c3.906-0.294,6.143-2.879,6.05-6.196c-0.111-3.964-2.863-6.087-6.195-6.011c-3.557,0.082-5.927,2.492-5.958,6.075
		C10.055,14.743,12.678,17.134,16.191,17.322z"/>
	<path fill-rule="evenodd" clip-rule="evenodd" fill="#F3ECEB" d="M25.664,19.722c2.632-0.259,6.167,2.065,6.075,6.085
		c-0.092,3.945-2.966,5.996-6.177,6.052c-3.207,0.057-6.104-2.87-6.029-6.069C19.627,21.731,23.059,19.454,25.664,19.722z
		 M25.762,20.693c-2.772-0.262-5.261,2.062-5.277,5.003c-0.017,3.012,2.335,5.188,5.144,5.206c2.814,0.019,5.257-2.304,5.22-5.156
		C30.812,22.957,28.454,20.501,25.762,20.693z"/>
	<path fill-rule="evenodd" clip-rule="evenodd" fill="#E9E8EC" d="M41.107,40.253c-0.032,3.342-2.702,5.879-6.109,5.862
		c-3.75-0.02-6.137-3.13-6.024-6.166c0.118-3.179,2.328-5.94,6.082-5.975C39.014,33.938,41.407,37.355,41.107,40.253z
		 M40.171,40.098c0.139-2.898-2.257-5.223-5.063-5.209c-3.139,0.015-5.208,2.576-5.187,5.146c0.024,2.843,2.315,5.32,5.107,5.236
		C38.298,45.173,40.308,42.611,40.171,40.098z"/>
	<path fill-rule="evenodd" clip-rule="evenodd" fill="#EAE9EC" d="M41.107,11.188c0.003,3.328-2.624,6.152-5.907,6.105
		c-4.057-0.058-6.125-2.992-6.237-6.013c-0.122-3.284,2.76-6.257,6.056-6.208C38.977,5.13,41.364,8.511,41.107,11.188z
		 M40.172,11.249c0.154-2.811-2.127-5.228-5.089-5.23c-2.699-0.002-5.085,2.034-5.15,5.043c-0.063,2.937,2.329,5.463,5.201,5.338
		C38.271,16.263,40.301,13.746,40.172,11.249z"/>
	<path fill-rule="evenodd" clip-rule="evenodd" fill="#E8E7EA" d="M16.138,46.108c-3.103,0.095-6.156-2.384-6.054-6.106
		c0.107-3.935,2.896-6.08,6.184-6.02c3.478,0.063,5.95,2.465,5.981,6.064C22.281,43.744,19.441,46.167,16.138,46.108z
		 M16.069,45.294c2.883-0.25,5.137-1.805,5.249-5.13c0.094-2.767-1.697-5.034-5.072-5.281c-2.702-0.198-5.333,2.302-5.273,5.093
		C11.033,42.8,12.713,44.907,16.069,45.294z"/>
	<path fill-rule="evenodd" clip-rule="evenodd" fill="#E7E6EA" d="M16.191,17.322c-3.513-0.188-6.136-2.579-6.104-6.132
		c0.032-3.583,2.402-5.993,5.958-6.075c3.333-0.077,6.084,2.047,6.195,6.011C22.334,14.443,20.097,17.028,16.191,17.322z
		 M16.074,16.422c2.701,0.083,5.347-2.374,5.273-5.134c-0.079-2.917-1.841-5.04-5.104-5.285c-2.693-0.203-5.339,2.32-5.27,5.103
		C11.044,13.983,12.755,16.032,16.074,16.422z"/>
	<path fill-rule="evenodd" clip-rule="evenodd" fill="#ED5A58" d="M25.762,20.693c2.692-0.192,5.05,2.264,5.086,5.053
		c0.037,2.853-2.405,5.175-5.22,5.156c-2.808-0.018-5.161-2.193-5.144-5.206C20.501,22.755,22.99,20.431,25.762,20.693z
		 M25.675,26.913c0.56-0.014,1.028-0.58,1.001-1.21c-0.032-0.724-0.426-1.088-1.119-1.036c-0.611,0.047-0.914,0.398-0.924,1.072
		C24.624,26.39,25.101,26.927,25.675,26.913z M25.729,23.384c-0.035,0,0.082-0.026,0.18,0.005c0.411,0.128,0.95,0.323,1.016-0.276
		c0.068-0.622-0.521-0.716-1.035-0.735c-0.054-0.002-0.108-0.002-0.163-0.003c-0.896-0.019-1.5,0.304-1.354,0.762
		C24.607,23.87,25.168,23.338,25.729,23.384z M26.176,28.94c0.994-0.029,2.023-0.822,2.129-1.43
		c0.023-0.135-0.046-0.342-0.147-0.426c-0.09-0.075-0.32-0.087-0.425-0.022c-0.546,0.335-1.081,0.691-1.596,1.072
		c-0.094,0.069-0.124,0.296-0.099,0.435C26.075,28.775,26.188,28.969,26.176,28.94z M29.051,25.349
		c-0.24-0.482-0.459-1.025-0.771-1.508c-0.186-0.288-0.841-0.105-0.765,0.164c0.208,0.74,0.537,1.445,0.838,2.156
		c0.006,0.014,0.307-0.034,0.379-0.125C28.858,25.877,28.912,25.663,29.051,25.349z M23.23,26.861
		c-0.108,0.282-0.28,0.51-0.223,0.625c0.159,0.325,0.366,0.657,0.637,0.891c0.692,0.596,1.357,0.688,1.504,0.248
		c0.222-0.664-0.483-0.692-0.8-0.974C24.04,27.379,23.675,27.17,23.23,26.861z M23.466,23.713c-0.123,0-0.183-0.016-0.229,0.002
		c-0.663,0.264-1.109,1.629-0.699,2.265c0.067,0.104,0.587,0.085,0.608,0.024c0.223-0.65,0.399-1.318,0.552-1.989
		C23.718,23.929,23.531,23.794,23.466,23.713z"/>
	<path fill-rule="evenodd" clip-rule="evenodd" fill="#1D1D51" d="M40.171,40.098c0.137,2.514-1.873,5.075-5.143,5.174
		c-2.792,0.084-5.083-2.394-5.107-5.236c-0.021-2.57,2.048-5.132,5.187-5.146C37.914,34.875,40.31,37.199,40.171,40.098z
		 M36.17,40.046c-0.018-0.603-0.561-1.126-1.145-1.102c-0.454,0.019-1.138,0.777-1.088,1.206c0.062,0.529,0.699,0.999,1.288,0.948
		C35.846,41.046,36.187,40.666,36.17,40.046z M37.272,37.844c-0.14,0.223-0.416,0.466-0.377,0.637
		c0.094,0.409,0.372,0.771,0.508,1.175c0.127,0.379,0.012,1.003,0.703,0.736c0.54-0.207,0.377-0.707,0.211-1.104
		c-0.164-0.392-0.378-0.765-0.604-1.125C37.635,38.036,37.457,37.973,37.272,37.844z M34.584,42.899
		c-0.021-0.182-0.007-0.261-0.037-0.283c-0.581-0.452-1.161-0.905-1.762-1.329c-0.057-0.04-0.292,0.083-0.368,0.187
		c-0.079,0.106-0.138,0.368-0.082,0.414c0.562,0.468,1.137,0.923,1.744,1.326C34.154,43.264,34.442,42.991,34.584,42.899z
		 M35.47,37.805c0.114-0.042,0.654-0.088,0.904-0.38c0.251-0.293-0.362-0.624-1.371-0.615c-0.162,0.002-0.351-0.05-0.479,0.016
		c-0.255,0.131-0.477,0.327-0.712,0.497c0.223,0.161,0.427,0.366,0.675,0.468C34.671,37.865,34.911,37.805,35.47,37.805z
		 M37.794,41.568c-0.177-0.055-0.458-0.241-0.593-0.165c-0.554,0.31-1.072,0.688-1.579,1.072c-0.085,0.064-0.107,0.307-0.059,0.427
		c0.053,0.13,0.211,0.281,0.343,0.303C36.476,43.299,37.749,42.272,37.794,41.568z M31.717,39.715
		c0.187,0.295,0.315,0.498,0.444,0.701c0.199-0.142,0.5-0.241,0.58-0.433c0.206-0.489,0.345-1.014,0.438-1.536
		c0.023-0.136-0.198-0.354-0.355-0.464c-0.066-0.047-0.332,0.051-0.382,0.146C32.18,38.643,31.958,39.175,31.717,39.715z"/>
	<path fill-rule="evenodd" clip-rule="evenodd" fill="#1D1D51" d="M40.172,11.249c0.129,2.497-1.9,5.015-5.038,5.151
		c-2.872,0.125-5.265-2.402-5.201-5.338c0.065-3.01,2.451-5.046,5.15-5.043C38.045,6.021,40.326,8.438,40.172,11.249z
		 M36.169,11.119c-0.044-0.65-0.541-1.021-1.252-0.938c-0.504,0.06-1.028,0.651-0.98,1.105c0.061,0.57,0.671,1.004,1.311,0.932
		C35.865,12.148,36.211,11.736,36.169,11.119z M32.578,12.367c-0.086,0.212-0.307,0.575-0.246,0.629
		c0.542,0.49,1.12,0.943,1.722,1.358c0.085,0.059,0.417-0.1,0.509-0.24c0.072-0.11,0.013-0.423-0.098-0.515
		c-0.487-0.403-1.013-0.763-1.53-1.129C32.86,12.418,32.752,12.416,32.578,12.367z M38.575,10.988
		c-0.283-0.582-0.505-1.124-0.81-1.614c-0.092-0.149-0.41-0.159-0.625-0.232c-0.063,0.223-0.219,0.469-0.171,0.665
		c0.114,0.462,0.293,0.917,0.512,1.342c0.094,0.181,0.375,0.407,0.53,0.38C38.202,11.496,38.351,11.219,38.575,10.988z
		 M35.033,8.917c0.131,0,0.239,0.012,0.345-0.002c0.386-0.051,1.015,0.207,1.014-0.425c0-0.469-0.53-0.597-0.996-0.563
		c-0.107,0.008-0.217-0.012-0.322,0.003c-0.478,0.067-1.264-0.236-1.206,0.6C33.917,9.26,34.649,8.779,35.033,8.917z M35.936,14.403
		c0.325-0.159,0.685-0.27,0.96-0.486c0.404-0.316,1.16-0.7,0.82-1.205c-0.447-0.662-0.89,0.095-1.297,0.375
		c-0.265,0.181-0.563,0.316-0.806,0.521c-0.083,0.069-0.094,0.306-0.045,0.429C35.621,14.169,35.782,14.258,35.936,14.403z
		 M31.747,10.815c0.17,0.262,0.321,0.496,0.473,0.729c0.202-0.213,0.462-0.396,0.593-0.646c0.172-0.325,0.295-0.698,0.337-1.063
		c0.025-0.218-0.143-0.459-0.224-0.689c-0.215,0.088-0.534,0.117-0.623,0.275C32.072,9.832,31.943,10.299,31.747,10.815z"/>
	<path fill-rule="evenodd" clip-rule="evenodd" fill="#1E1E51" d="M16.069,45.294c-3.356-0.387-5.036-2.494-5.096-5.318
		c-0.059-2.791,2.571-5.291,5.273-5.093c3.375,0.247,5.166,2.515,5.072,5.281C21.206,43.489,18.953,45.044,16.069,45.294z
		 M17.167,40.149c0.035-0.633-0.304-1.039-0.91-1.09c-0.628-0.053-1.046,0.278-1.109,0.878c-0.077,0.733,0.263,1.134,0.977,1.149
		C16.785,41.102,17.132,40.79,17.167,40.149z M19.586,39.695c-0.285-0.576-0.516-1.106-0.811-1.597
		c-0.068-0.112-0.396-0.171-0.534-0.105c-0.122,0.058-0.229,0.339-0.198,0.492c0.094,0.465,0.215,0.935,0.411,1.363
		c0.109,0.237,0.388,0.396,0.591,0.592C19.208,40.217,19.37,39.993,19.586,39.695z M15.878,42.773
		c-0.181-0.202-0.268-0.333-0.385-0.424c-0.421-0.326-0.839-0.66-1.289-0.942c-0.131-0.083-0.433-0.078-0.531,0.017
		c-0.121,0.115-0.187,0.388-0.143,0.557c0.127,0.484,1.244,1.3,1.746,1.249C15.477,43.209,15.653,42.952,15.878,42.773z
		 M14.297,38.302c-0.022-0.033-0.08-0.229-0.187-0.26c-0.17-0.049-0.503-0.044-0.539,0.038c-0.269,0.621-0.503,1.261-0.692,1.911
		c-0.032,0.108,0.191,0.39,0.336,0.425c0.163,0.039,0.496-0.066,0.538-0.186C13.965,39.635,14.104,39.015,14.297,38.302z
		 M17.104,43.353c0.528-0.39,1.096-0.775,1.616-1.219c0.102-0.086,0.079-0.536,0.004-0.568c-0.205-0.09-0.517-0.137-0.698-0.037
		c-0.469,0.257-0.908,0.58-1.317,0.926c-0.108,0.091-0.122,0.372-0.078,0.539C16.663,43.11,16.866,43.181,17.104,43.353z
		 M14.753,37.712c0.999,0,1.825,0,2.688,0c-0.365-0.852-0.367-0.903-0.923-0.881C15.899,36.856,15.093,36.538,14.753,37.712z"/>
	<path fill-rule="evenodd" clip-rule="evenodd" fill="#1E1E52" d="M16.074,16.422c-3.319-0.39-5.03-2.439-5.101-5.316
		c-0.069-2.783,2.577-5.305,5.27-5.103c3.263,0.245,5.026,2.367,5.104,5.285C21.421,14.048,18.775,16.504,16.074,16.422z
		 M16.092,12.208c0.653,0.03,1.031-0.286,1.077-0.902c0.047-0.637-0.279-1.052-0.879-1.116c-0.696-0.075-1.132,0.307-1.142,0.999
		C15.139,11.855,15.437,12.177,16.092,12.208z M19.592,10.872c-0.281-0.594-0.503-1.127-0.79-1.623
		c-0.07-0.121-0.48-0.207-0.52-0.153c-0.126,0.174-0.234,0.434-0.201,0.637c0.066,0.413,0.19,0.828,0.368,1.207
		c0.114,0.244,0.367,0.423,0.557,0.631C19.182,11.36,19.357,11.151,19.592,10.872z M13.863,12.324
		c-0.153,0.282-0.369,0.492-0.348,0.674c0.065,0.542,1.28,1.451,1.822,1.346c0.171-0.033,0.417-0.549,0.396-0.567
		C15.166,13.299,14.567,12.857,13.863,12.324z M18.916,12.737c-0.291-0.07-0.556-0.227-0.697-0.151
		c-0.469,0.252-0.912,0.565-1.324,0.904c-0.156,0.128-0.203,0.39-0.3,0.591c0.222,0.067,0.498,0.252,0.657,0.18
		c0.479-0.216,0.93-0.509,1.354-0.824C18.748,13.33,18.776,13.069,18.916,12.737z M13.294,11.624c0.18-0.073,0.34-0.089,0.362-0.154
		c0.237-0.681,0.458-1.369,0.645-2.064c0.006-0.024-0.452-0.283-0.579-0.215c-0.582,0.309-1.051,1.518-0.833,2.089
		C12.949,11.435,13.176,11.527,13.294,11.624z M14.704,8.843c1.034,0,1.866,0,2.689,0c0.096-0.623-0.187-0.916-0.693-0.887
		C16.035,7.993,15.18,7.609,14.704,8.843z"/>
	<path fill-rule="evenodd" clip-rule="evenodd" fill="#FDE8E6" d="M25.675,26.913c-0.574,0.014-1.051-0.523-1.042-1.173
		c0.01-0.674,0.313-1.025,0.924-1.072c0.693-0.053,1.087,0.312,1.119,1.036C26.703,26.333,26.234,26.899,25.675,26.913z
		 M26.325,25.577c-0.331-0.108-0.483-0.206-0.623-0.189c-0.117,0.013-0.291,0.147-0.307,0.248c-0.015,0.097,0.125,0.287,0.228,0.312
		C25.72,25.972,25.857,25.835,26.325,25.577z"/>
	<path fill-rule="evenodd" clip-rule="evenodd" fill="#FEECEA" d="M25.729,23.384c-0.561-0.045-1.122,0.486-1.355-0.248
		c-0.146-0.458,0.458-0.781,1.354-0.762c0.054,0.001,0.108,0.001,0.163,0.003c0.515,0.019,1.104,0.113,1.035,0.735
		c-0.065,0.599-0.604,0.405-1.016,0.276C25.811,23.358,25.694,23.384,25.729,23.384z"/>
	<path fill-rule="evenodd" clip-rule="evenodd" fill="#FEF2F0" d="M26.176,28.94c0.012,0.028-0.101-0.165-0.138-0.371
		c-0.025-0.139,0.005-0.365,0.099-0.435c0.515-0.381,1.05-0.737,1.596-1.072c0.104-0.064,0.335-0.053,0.425,0.022
		c0.102,0.084,0.171,0.291,0.147,0.426C28.199,28.118,27.17,28.911,26.176,28.94z"/>
	<path fill-rule="evenodd" clip-rule="evenodd" fill="#FEF0EE" d="M29.051,25.349c-0.139,0.314-0.192,0.529-0.318,0.687
		c-0.072,0.091-0.373,0.139-0.379,0.125c-0.301-0.71-0.63-1.416-0.838-2.156c-0.076-0.27,0.579-0.452,0.765-0.164
		C28.592,24.324,28.811,24.867,29.051,25.349z"/>
	<path fill-rule="evenodd" clip-rule="evenodd" fill="#FEF5F4" d="M23.23,26.861c0.445,0.309,0.81,0.518,1.118,0.79
		c0.316,0.281,1.021,0.31,0.8,0.974c-0.147,0.44-0.812,0.348-1.504-0.248c-0.271-0.233-0.478-0.565-0.637-0.891
		C22.95,27.371,23.122,27.144,23.23,26.861z"/>
	<path fill-rule="evenodd" clip-rule="evenodd" fill="#FFF9F9" d="M23.466,23.713c0.065,0.081,0.252,0.215,0.232,0.303
		c-0.153,0.671-0.329,1.338-0.552,1.989c-0.021,0.062-0.542,0.08-0.608-0.024c-0.41-0.636,0.037-2.001,0.699-2.265
		C23.283,23.697,23.343,23.713,23.466,23.713z"/>
	<path fill-rule="evenodd" clip-rule="evenodd" fill="#DAD9E7" d="M36.17,40.046c0.017,0.62-0.324,1-0.944,1.053
		c-0.589,0.051-1.227-0.419-1.288-0.948c-0.05-0.429,0.634-1.188,1.088-1.206C35.609,38.92,36.152,39.443,36.17,40.046z
		 M35.545,40.007c-0.183-0.094-0.313-0.217-0.431-0.205c-0.106,0.011-0.198,0.168-0.297,0.26c0.142,0.107,0.271,0.24,0.431,0.306
		C35.284,40.382,35.416,40.168,35.545,40.007z"/>
	<path fill-rule="evenodd" clip-rule="evenodd" fill="#DCDCE9" d="M37.272,37.844c0.185,0.129,0.362,0.192,0.441,0.318
		c0.226,0.36,0.439,0.733,0.604,1.125c0.166,0.397,0.329,0.897-0.211,1.104c-0.691,0.267-0.576-0.357-0.703-0.736
		c-0.136-0.403-0.414-0.766-0.508-1.175C36.856,38.31,37.133,38.066,37.272,37.844z"/>
	<path fill-rule="evenodd" clip-rule="evenodd" fill="#E7E6EF" d="M34.584,42.899c-0.142,0.092-0.43,0.364-0.505,0.314
		c-0.607-0.403-1.183-0.858-1.744-1.326c-0.056-0.046,0.003-0.308,0.082-0.414c0.076-0.104,0.312-0.227,0.368-0.187
		c0.601,0.424,1.181,0.877,1.762,1.329C34.577,42.639,34.563,42.718,34.584,42.899z"/>
	<path fill-rule="evenodd" clip-rule="evenodd" fill="#EAE9F1" d="M35.47,37.805c-0.559,0-0.799,0.061-0.982-0.015
		c-0.248-0.102-0.452-0.307-0.675-0.468c0.235-0.17,0.457-0.366,0.712-0.497c0.128-0.065,0.316-0.014,0.479-0.016
		c1.009-0.009,1.622,0.322,1.371,0.615C36.124,37.717,35.584,37.763,35.47,37.805z"/>
	<path fill-rule="evenodd" clip-rule="evenodd" fill="#EAE9F1" d="M37.794,41.568c-0.045,0.704-1.318,1.73-1.888,1.637
		c-0.132-0.021-0.29-0.173-0.343-0.303c-0.049-0.12-0.026-0.362,0.059-0.427c0.507-0.385,1.025-0.763,1.579-1.072
		C37.336,41.327,37.617,41.514,37.794,41.568z"/>
	<path fill-rule="evenodd" clip-rule="evenodd" fill="#EAE9F1" d="M31.717,39.715c0.241-0.54,0.463-1.072,0.725-1.585
		c0.05-0.096,0.315-0.193,0.382-0.146c0.157,0.11,0.379,0.328,0.355,0.464c-0.093,0.522-0.231,1.047-0.438,1.536
		c-0.08,0.191-0.381,0.291-0.58,0.433C32.032,40.213,31.903,40.01,31.717,39.715z"/>
	<path fill-rule="evenodd" clip-rule="evenodd" fill="#DAD9E7" d="M36.169,11.119c0.042,0.617-0.304,1.029-0.922,1.1
		c-0.64,0.072-1.25-0.362-1.311-0.932c-0.048-0.454,0.477-1.045,0.98-1.105C35.628,10.097,36.125,10.469,36.169,11.119z
		 M35.099,10.825c-0.125,0.146-0.286,0.251-0.282,0.35c0.005,0.114,0.156,0.222,0.244,0.332c0.13-0.118,0.26-0.237,0.39-0.355
		C35.348,11.056,35.245,10.96,35.099,10.825z"/>
	<path fill-rule="evenodd" clip-rule="evenodd" fill="#DCDBE8" d="M32.578,12.367c0.174,0.048,0.282,0.051,0.356,0.104
		c0.518,0.366,1.043,0.726,1.53,1.129c0.11,0.091,0.17,0.405,0.098,0.515c-0.092,0.141-0.424,0.299-0.509,0.24
		c-0.602-0.416-1.18-0.869-1.722-1.358C32.271,12.942,32.492,12.579,32.578,12.367z"/>
	<path fill-rule="evenodd" clip-rule="evenodd" fill="#DCDCE9" d="M38.575,10.988c-0.225,0.231-0.373,0.507-0.563,0.54
		c-0.155,0.027-0.437-0.199-0.53-0.38c-0.219-0.424-0.397-0.879-0.512-1.342c-0.048-0.195,0.107-0.441,0.171-0.665
		c0.215,0.073,0.533,0.083,0.625,0.232C38.07,9.865,38.292,10.406,38.575,10.988z"/>
	<path fill-rule="evenodd" clip-rule="evenodd" fill="#EAE9F1" d="M35.033,8.917c-0.384-0.138-1.116,0.342-1.166-0.387
		c-0.058-0.835,0.729-0.532,1.206-0.6c0.105-0.015,0.215,0.005,0.322-0.003c0.466-0.035,0.996,0.094,0.996,0.563
		c0.001,0.632-0.628,0.374-1.014,0.425C35.272,8.929,35.164,8.917,35.033,8.917z"/>
	<path fill-rule="evenodd" clip-rule="evenodd" fill="#EAE9F1" d="M35.936,14.403c-0.153-0.145-0.314-0.234-0.367-0.366
		c-0.049-0.124-0.038-0.36,0.045-0.429c0.243-0.204,0.541-0.339,0.806-0.521c0.407-0.28,0.85-1.037,1.297-0.375
		c0.34,0.505-0.416,0.889-0.82,1.205C36.62,14.133,36.261,14.244,35.936,14.403z"/>
	<path fill-rule="evenodd" clip-rule="evenodd" fill="#EAE9F1" d="M31.747,10.815c0.196-0.516,0.325-0.983,0.556-1.393
		c0.089-0.159,0.408-0.188,0.623-0.275c0.081,0.23,0.249,0.471,0.224,0.689c-0.042,0.364-0.165,0.737-0.337,1.063
		c-0.131,0.25-0.391,0.433-0.593,0.646C32.068,11.311,31.917,11.077,31.747,10.815z"/>
	<path fill-rule="evenodd" clip-rule="evenodd" fill="#F0F0F7" d="M17.167,40.149c-0.035,0.641-0.381,0.952-1.042,0.938
		c-0.714-0.016-1.054-0.416-0.977-1.149c0.063-0.6,0.481-0.931,1.109-0.878C16.863,39.11,17.202,39.517,17.167,40.149z
		 M16.263,40.707c0.092-0.262,0.186-0.408,0.18-0.55c-0.005-0.128-0.12-0.252-0.186-0.378c-0.14,0.107-0.301,0.198-0.406,0.333
		C15.827,40.145,15.994,40.324,16.263,40.707z"/>
	<path fill-rule="evenodd" clip-rule="evenodd" fill="#DCDBE8" d="M19.586,39.695c-0.216,0.298-0.378,0.521-0.541,0.745
		c-0.203-0.195-0.482-0.354-0.591-0.592c-0.196-0.429-0.317-0.898-0.411-1.363c-0.031-0.153,0.076-0.435,0.198-0.492
		c0.138-0.065,0.466-0.007,0.534,0.105C19.07,38.589,19.301,39.119,19.586,39.695z"/>
	<path fill-rule="evenodd" clip-rule="evenodd" fill="#DBDAE7" d="M15.878,42.773c-0.225,0.179-0.401,0.436-0.602,0.456
		c-0.502,0.051-1.619-0.765-1.746-1.249c-0.044-0.169,0.022-0.441,0.143-0.557c0.099-0.095,0.4-0.1,0.531-0.017
		c0.449,0.282,0.868,0.616,1.289,0.942C15.61,42.44,15.697,42.571,15.878,42.773z"/>
	<path fill-rule="evenodd" clip-rule="evenodd" fill="#E7E6EF" d="M14.297,38.302c-0.192,0.713-0.332,1.333-0.543,1.929
		c-0.042,0.119-0.375,0.225-0.538,0.186c-0.145-0.035-0.368-0.316-0.336-0.425c0.188-0.65,0.423-1.29,0.692-1.911
		c0.036-0.082,0.369-0.087,0.539-0.038C14.217,38.072,14.275,38.269,14.297,38.302z"/>
	<path fill-rule="evenodd" clip-rule="evenodd" fill="#DFDEEA" d="M17.104,43.353c-0.238-0.172-0.441-0.242-0.473-0.359
		c-0.044-0.167-0.031-0.448,0.078-0.539c0.41-0.346,0.849-0.669,1.317-0.926c0.181-0.1,0.493-0.053,0.698,0.037
		c0.075,0.032,0.098,0.482-0.004,0.568C18.2,42.577,17.632,42.963,17.104,43.353z"/>
	<path fill-rule="evenodd" clip-rule="evenodd" fill="#F6F6FB" d="M14.753,37.712c0.34-1.174,1.146-0.855,1.764-0.881
		c0.556-0.022,0.558,0.029,0.923,0.881C16.578,37.712,15.752,37.712,14.753,37.712z"/>
	<path fill-rule="evenodd" clip-rule="evenodd" fill="#F0F0F7" d="M16.092,12.208c-0.655-0.031-0.953-0.353-0.944-1.02
		c0.009-0.692,0.445-1.074,1.142-0.999c0.601,0.064,0.927,0.479,0.879,1.116C17.123,11.921,16.745,12.238,16.092,12.208z
		 M16.847,11.031c-0.307-0.066-0.469-0.138-0.623-0.123c-0.132,0.013-0.255,0.125-0.382,0.192c0.108,0.14,0.201,0.3,0.336,0.405
		C16.209,11.529,16.388,11.361,16.847,11.031z"/>
	<path fill-rule="evenodd" clip-rule="evenodd" fill="#DBDAE7" d="M19.592,10.872c-0.234,0.279-0.41,0.489-0.585,0.698
		c-0.19-0.208-0.443-0.387-0.557-0.631c-0.178-0.378-0.301-0.794-0.368-1.207c-0.033-0.203,0.075-0.462,0.201-0.637
		c0.039-0.054,0.45,0.033,0.52,0.153C19.089,9.744,19.311,10.277,19.592,10.872z"/>
	<path fill-rule="evenodd" clip-rule="evenodd" fill="#DBDAE7" d="M13.863,12.324c0.705,0.533,1.303,0.975,1.87,1.454
		c0.021,0.018-0.225,0.534-0.396,0.567c-0.542,0.105-1.757-0.804-1.822-1.346C13.494,12.816,13.71,12.606,13.863,12.324z"/>
	<path fill-rule="evenodd" clip-rule="evenodd" fill="#E7E6EF" d="M18.916,12.737c-0.14,0.332-0.167,0.593-0.311,0.699
		c-0.423,0.315-0.875,0.608-1.354,0.824c-0.159,0.072-0.435-0.113-0.657-0.18c0.097-0.201,0.144-0.462,0.3-0.591
		c0.413-0.338,0.855-0.651,1.324-0.904C18.359,12.51,18.625,12.667,18.916,12.737z"/>
	<path fill-rule="evenodd" clip-rule="evenodd" fill="#E7E6EF" d="M13.294,11.624c-0.118-0.096-0.346-0.188-0.405-0.344
		c-0.218-0.572,0.251-1.78,0.833-2.089c0.127-0.067,0.585,0.191,0.579,0.215c-0.187,0.696-0.408,1.383-0.645,2.064
		C13.635,11.534,13.475,11.551,13.294,11.624z"/>
	<path fill-rule="evenodd" clip-rule="evenodd" fill="#F6F6FB" d="M14.704,8.843c0.477-1.234,1.331-0.851,1.997-0.887
		c0.506-0.028,0.789,0.265,0.693,0.887C16.569,8.843,15.738,8.843,14.704,8.843z"/>
	<path fill-rule="evenodd" clip-rule="evenodd" fill="#ED5A58" d="M26.325,25.577c-0.468,0.258-0.605,0.395-0.702,0.371
		c-0.103-0.025-0.243-0.215-0.228-0.312c0.016-0.101,0.19-0.235,0.307-0.248C25.842,25.372,25.994,25.469,26.325,25.577z"/>
	<path fill-rule="evenodd" clip-rule="evenodd" fill="#1A174E" d="M35.545,40.007c-0.129,0.161-0.261,0.375-0.297,0.36
		c-0.159-0.065-0.289-0.198-0.431-0.306c0.099-0.092,0.19-0.249,0.297-0.26C35.231,39.79,35.362,39.913,35.545,40.007z"/>
	<path fill-rule="evenodd" clip-rule="evenodd" fill="#1A174E" d="M35.099,10.825c0.146,0.136,0.249,0.231,0.352,0.327
		c-0.13,0.119-0.26,0.237-0.39,0.355c-0.088-0.11-0.239-0.218-0.244-0.332C34.813,11.076,34.974,10.97,35.099,10.825z"/>
	<path fill-rule="evenodd" clip-rule="evenodd" fill="#16154A" d="M16.263,40.707c-0.27-0.383-0.437-0.563-0.412-0.595
		c0.104-0.135,0.266-0.226,0.406-0.333c0.066,0.126,0.181,0.25,0.186,0.378C16.449,40.299,16.355,40.445,16.263,40.707z"/>
	<path fill-rule="evenodd" clip-rule="evenodd" fill="#16154A" d="M16.847,11.031c-0.458,0.33-0.638,0.498-0.668,0.474
		c-0.135-0.105-0.228-0.265-0.336-0.405c0.127-0.068,0.25-0.18,0.382-0.192C16.378,10.893,16.54,10.965,16.847,11.031z"/>
</g>
</svg>
