<?xml version="1.0" encoding="utf-8"?>
<!-- Generator: Adobe Illustrator 16.0.0, SVG Export Plug-In . SVG Version: 6.00 Build 0)  -->
<!DOCTYPE svg PUBLIC "-//W3C//DTD SVG 1.1//EN" "http://www.w3.org/Graphics/SVG/1.1/DTD/svg11.dtd">
<svg version="1.1" id="Layer_1" xmlns="http://www.w3.org/2000/svg" xmlns:xlink="http://www.w3.org/1999/xlink" x="0px" y="0px"
	 width="50px" height="50px" viewBox="0 0 50 50" enable-background="new 0 0 50 50" xml:space="preserve">
<g>
	<path fill-rule="evenodd" clip-rule="evenodd" fill="#236A36" d="M19.404,17.934c-0.791,0.176-1.575,0.417-2.375,0.502
		c-0.476,0.051-0.978-0.145-1.88-0.301c0.776-0.697,1.186-1.206,1.713-1.515c2.204-1.288,3.932-3.079,5.594-4.975
		c0.857-0.977,1.799-1.918,2.846-2.679c1.262-0.917,2.444-0.311,2.631,1.246c0.077,0.645,0.176,1.382-0.056,1.945
		c-0.317,0.771-0.087,1.224,0.406,1.72c0.188,0.191,0.325,0.433,0.521,0.701c0.768-0.741,1.073-1.727,1.414-2.662
		c0.517-1.417,0.916-2.877,1.375-4.316c0.148-0.462,0.292-0.931,0.504-1.365c0.246-0.506,0.718-0.612,1.024-0.169
		c0.614,0.888,1.145,1.839,1.649,2.795c0.085,0.16-0.051,0.588-0.216,0.703c-1.331,0.925-1.805,2.411-2.529,3.734
		c-0.155,0.285-0.298,0.578-0.439,0.871c-1.345,2.781-1.344,2.781,0.888,5.429c0.809-1.198,1.613-2.354,2.381-3.536
		c0.595-0.916,0.845-0.971,1.619-0.26c0.774,0.712,1.343,1.547,1.637,2.578c-0.955,0.307-1.916,0.49-2.748,0.92
		c-0.801,0.413-1.469,1.083-2.177,1.625c0.419,0.625,0.771,1.109,1.081,1.62c1.491,2.453,3.354,4.561,5.732,6.186
		c0.97,0.663,1.688,1.528,2.256,2.542c0.505,0.898,1.037,1.78,1.546,2.677c0.267,0.47,0.564,0.932,0.753,1.434
		c0.441,1.176-0.119,1.835-1.349,1.578c-0.409-0.085-0.816-0.289-1.166-0.524c-2.116-1.428-4.235-2.852-6.304-4.346
		c-0.44-0.317-0.771-0.875-0.993-1.391c-0.979-2.282-1.898-4.591-2.845-6.888c-0.124-0.299-0.279-0.585-0.412-0.862
		c-0.12-0.034-0.22-0.097-0.308-0.082c-0.487,0.083-1.032,0.703-1.438-0.007c-0.313-0.55,0.28-0.857,0.592-1.192
		c0.316-0.341,0.292-0.658,0.092-1.035c-1.149-2.16-2.254-4.35-4.331-6.025c-2.401,3.175-4.783,6.325-7.321,9.681
		c0.578-0.135,0.978-0.207,1.364-0.324c0.516-0.156,1.015-0.46,1.533-0.489c0.418-0.023,0.999,0.146,1.247,0.446
		c0.37,0.447-0.187,0.778-0.491,1.042c-0.365,0.316-0.797,0.561-1.216,0.81c-0.921,0.548-0.925,0.542-0.477,1.818
		c1.292-0.527,2.592-1.027,3.858-1.603c0.223-0.101,0.378-0.506,0.432-0.795c0.236-1.278,0.448-2.561,0.618-3.849
		c0.071-0.537-0.005-1.092,0.017-1.637c0.022-0.568-0.239-1.31,0.569-1.521c0.724-0.188,1.04,0.507,1.358,0.942
		c0.767,1.049,1.069,2.162,0.459,3.482c-0.791,1.71-1.412,3.498-2.179,5.437c0.5,0,0.902,0.058,1.281-0.011
		c1.169-0.212,2.324-0.496,3.493-0.704c0.903-0.16,1.774,0.117,1.888,0.524c0.113,0.412-0.488,1.241-1.259,1.544
		c-0.844,0.33-1.733,0.547-2.624,0.82c0,0.948-0.014,1.868,0.006,2.787c0.01,0.461,0.28,0.689,0.751,0.647
		c1.463-0.131,2.937-0.195,4.387-0.413c1.371-0.205,3.101,0.785,3.347,2.107c0.032,0.171-0.214,0.534-0.385,0.573
		c-0.417,0.095-0.866,0.062-1.303,0.063c-2.119,0.003-4.239,0.002-6.537,0.002c0,0.78,0.015,1.531-0.003,2.282
		c-0.033,1.334-0.553,2.385-1.721,3.126c-1.804,1.146-3.754,1.908-5.815,2.42c-0.156,0.039-0.363,0.093-0.481,0.025
		c-0.357-0.204-0.793-0.402-0.976-0.728c-0.1-0.178,0.172-0.697,0.412-0.908c0.694-0.608,1.479-1.112,2.189-1.704
		c1.39-1.156,2.672-2.404,3.164-4.386c-1.359-0.244-2.678-0.15-3.997,0.022c-0.556,0.073-0.763,0.458-0.964,0.961
		c-0.603,1.503-1.275,2.979-1.957,4.45c-0.201,0.433-0.455,0.884-0.801,1.198c-1.146,1.043-2.221,1.059-3.546,0.187
		c-1.357-0.893-2.279-2.172-3.171-3.48c-0.457-0.671-0.814-1.231-1.863-1.261c-1.446-0.039-2.042-0.904-2.176-2.522
		c0.222,0.055,0.448,0.051,0.596,0.156c1.162,0.829,2.443,0.946,3.708,0.432c2.3-0.935,4.563-1.964,6.821-2.997
		c0.229-0.105,0.407-0.491,0.459-0.774c0.077-0.417,0.02-0.859,0.02-1.509c-1.157,0.746-2.128,1.406-3.134,2.007
		c-0.552,0.329-1.157,0.571-1.749,0.828c-0.944,0.409-1.542-0.031-2.049-0.864c2.348-0.871,4.077-2.631,6.179-3.795
		c0.702-0.389,0.461-1.025,0.319-1.578c-0.138-0.538-0.599-0.477-1.061-0.478c-0.751-0.003-1.314,0.216-1.861,0.775
		c-2.331,2.383-4.872,4.52-7.745,6.236c-0.495,0.295-0.956,0.743-1.679,0.459C5.918,34,6.321,33.682,6.655,33.371
		c0.76-0.706,1.536-1.396,2.332-2.061c2.492-2.077,4.464-4.619,6.569-7.236c-0.731-0.95-1.469-1.868-2.158-2.821
		c-0.411-0.568-0.776-1.176-1.095-1.8c-0.099-0.194-0.074-0.592,0.063-0.728c0.148-0.147,0.556-0.213,0.739-0.112
		c0.507,0.281,1.019,0.608,1.415,1.025c0.78,0.82,1.482,1.712,2.306,2.679c1.037-1.427,1.984-2.73,2.931-4.033
		c0.083-0.19,0.166-0.38,0.249-0.57C19.805,17.787,19.604,17.86,19.404,17.934z M23.965,28.512c-1.367,0.516-2.65,0.868-3.74,1.862
		c1.193,0.999,1.64,2.216,1.572,3.717c1.576-0.126,3.014-0.24,4.477-0.356c0-1.093,0-2.037,0-3.208
		c-0.92,0.291-1.684,0.532-2.631,0.831C23.752,30.396,23.852,29.516,23.965,28.512z M11.517,38.156
		c1.171,0.831,2.27,1.451,3.511,1.887c0.872,0.307,1.343,0.027,1.781-0.604c0.898-1.297,1.323-2.766,1.685-4.476
		C16.083,36.066,13.858,37.085,11.517,38.156z"/>
	<path fill-rule="evenodd" clip-rule="evenodd" fill="#1F6935" d="M35.354,44.512c-0.306,0-0.632,0.003-0.958-0.001
		c-0.499-0.007-0.821-0.225-0.896-0.748c-0.022-0.159-0.091-0.311-0.124-0.469c-0.332-1.575-0.973-2.962-2.281-3.991
		c-0.184-0.146-0.312-0.578-0.231-0.788c0.093-0.239,0.445-0.532,0.688-0.537c2.795-0.053,5.404,0.586,7.39,2.66
		c1.354,1.413,0.95,2.289-0.465,3.113C37.798,44.146,36.413,44.659,35.354,44.512z"/>
	<path fill-rule="evenodd" clip-rule="evenodd" fill="#B4D2A9" d="M19.404,17.934c0.2-0.073,0.4-0.146,0.601-0.219
		c-0.083,0.19-0.166,0.38-0.249,0.57C19.639,18.167,19.522,18.05,19.404,17.934z"/>
</g>
</svg>
