<?xml version="1.0" encoding="utf-8"?>
<!-- Generator: Adobe Illustrator 16.0.0, SVG Export Plug-In . SVG Version: 6.00 Build 0)  -->
<!DOCTYPE svg PUBLIC "-//W3C//DTD SVG 1.1//EN" "http://www.w3.org/Graphics/SVG/1.1/DTD/svg11.dtd">
<svg version="1.1" id="Layer_1" xmlns="http://www.w3.org/2000/svg" xmlns:xlink="http://www.w3.org/1999/xlink" x="0px" y="0px"
	 width="50px" height="50px" viewBox="0 0 50 50" enable-background="new 0 0 50 50" xml:space="preserve">
<g>
	<path fill-rule="evenodd" clip-rule="evenodd" fill="#226A36" d="M36.613,26.517c1.154,0.407,2.264,0.665,3.238,1.178
		c1.05,0.552,1.163,1.792,0.28,2.618c-0.499,0.466-0.627,0.932-0.584,1.544c0.028,0.405,0.036,0.818-0.002,1.223
		c-0.055,0.598,0.127,1.006,0.654,1.356c1.319,0.878,1.451,2.668,0.064,3.642c-0.597,0.42-0.787,0.91-0.722,1.602
		c0.051,0.539,0.023,1.087,0.008,1.631c-0.026,0.905-0.049,1.713,0.845,2.389c0.788,0.595,0.697,1.393,0.022,2.135
		c-0.727,0.798-1.623,1.054-2.702,0.867c-0.647-0.111-1.357-0.181-1.98-0.027c-0.824,0.201-1.527,0.015-2.21-0.326
		c-1.286-0.642-1.495-2.11-0.346-2.96c0.585-0.434,0.677-0.872,0.652-1.48c-0.023-0.589-0.034-1.181,0.001-1.768
		c0.054-0.888-0.098-1.531-0.93-2.164c-1.238-0.94-1.229-2.542,0.186-3.543c0.627-0.444,0.803-0.884,0.743-1.559
		c-0.028-0.314-0.024-0.636-0.001-0.951c0.044-0.609-0.074-1.053-0.618-1.503c-0.996-0.825-0.914-2.068,0.206-2.687
		C34.417,27.183,35.563,26.903,36.613,26.517z M36.649,28.539c-0.61-0.019-1.075,0.429-0.88,1.052
		c0.391,1.241,0.181,2.492,0.241,3.738c0.022,0.46-0.031,0.95,0.647,0.938c0.619-0.013,0.703-0.447,0.712-0.932
		c0.003-0.135-0.009-0.271,0.003-0.405c0.09-1.107-0.186-2.229,0.229-3.331C37.776,29.137,37.179,28.556,36.649,28.539z
		 M37.371,41.751c-0.004,0-0.009,0-0.013,0c0-0.814,0.028-1.629-0.012-2.44c-0.02-0.381-0.256-0.693-0.695-0.684
		c-0.443,0.01-0.631,0.306-0.633,0.718c-0.004,1.628-0.021,3.256,0.028,4.882c0.007,0.22,0.331,0.518,0.572,0.606
		c0.135,0.05,0.468-0.214,0.589-0.412c0.13-0.211,0.148-0.51,0.156-0.771C37.385,43.018,37.371,42.384,37.371,41.751z
		 M37.014,34.729c-0.934,0.014-1.497,0.148-1.768,0.763c-0.071,0.161-0.008,0.437,0.093,0.598c0.061,0.097,0.378,0.159,0.47,0.09
		c0.601-0.45,1.149-0.284,1.742,0.018c0.135,0.068,0.483-0.058,0.576-0.199c0.093-0.14,0.069-0.517-0.046-0.605
		C37.68,35.08,37.216,34.849,37.014,34.729z M38.204,37.804c-0.009-0.703-0.665-1.154-1.503-1.162
		c-0.828-0.009-1.521,0.423-1.501,1.003c0.006,0.168,0.421,0.49,0.461,0.463c0.685-0.46,1.329-0.292,2.014-0.002
		C37.801,38.158,38.063,37.89,38.204,37.804z"/>
	<path fill-rule="evenodd" clip-rule="evenodd" fill="#246B37" d="M14.6,26.547c1.064,0.373,2.167,0.638,3.151,1.137
		c1.012,0.513,1.202,1.757,0.399,2.512c-0.608,0.572-0.771,1.165-0.698,1.919c0.022,0.225,0.018,0.454,0.001,0.68
		c-0.053,0.708,0.105,1.232,0.731,1.742c1.364,1.111,1.346,2.425-0.01,3.528c-0.556,0.453-0.796,0.889-0.73,1.583
		c0.055,0.584,0.022,1.179,0.008,1.768c-0.021,0.864-0.018,1.619,0.833,2.259c0.801,0.602,0.697,1.508-0.029,2.236
		c-0.716,0.718-1.594,1.059-2.596,0.771c-0.724-0.208-1.405-0.244-2.123-0.002c-0.787,0.266-1.51,0.007-2.193-0.386
		c-1.195-0.688-1.388-2.083-0.293-2.893c0.566-0.419,0.727-0.834,0.69-1.461c-0.032-0.542-0.037-1.09,0-1.632
		c0.067-0.979-0.075-1.723-0.997-2.417c-1.188-0.894-1.102-2.297,0.101-3.368c0.319-0.285,0.804-0.594,0.847-0.938
		c0.106-0.843,0.034-1.715-0.047-2.568c-0.02-0.208-0.356-0.381-0.54-0.578c-1.042-1.117-0.862-2.316,0.536-2.936
		C12.572,27.091,13.585,26.867,14.6,26.547z M13.792,29.501c0.042,1.201,0.083,2.402,0.125,3.603
		c0.008,0.225-0.045,0.481,0.046,0.665c0.1,0.201,0.322,0.445,0.514,0.467c0.207,0.023,0.54-0.133,0.639-0.311
		c0.141-0.253,0.136-0.596,0.163-0.902c0.103-1.155-0.176-2.324,0.22-3.477c0.165-0.48-0.434-1.018-0.985-1.008
		C13.947,28.549,13.627,28.904,13.792,29.501z M13.92,41.641c-0.001,0-0.002,0-0.003,0c0,0.765,0.002,1.529-0.001,2.294
		c-0.001,0.434,0.081,0.871,0.583,0.908c0.484,0.035,0.654-0.403,0.771-0.794c0.05-0.166,0.012-0.357,0.012-0.538
		c0-1.17,0.005-2.34-0.003-3.509c-0.002-0.267,0.027-0.572-0.09-0.788c-0.13-0.241-0.392-0.529-0.632-0.565
		c-0.436-0.067-0.62,0.306-0.63,0.697C13.906,40.11,13.92,40.875,13.92,41.641z M14.602,36.425c-0.494,0.297-0.988,0.56-1.432,0.889
		c-0.104,0.077-0.125,0.465-0.032,0.562c0.141,0.146,0.506,0.292,0.621,0.213c0.559-0.386,1.038-0.399,1.589,0.023
		c0.118,0.091,0.561-0.035,0.663-0.188c0.104-0.155,0.059-0.575-0.078-0.691C15.571,36.929,15.124,36.729,14.602,36.425z
		 M14.553,34.492c-0.515,0.35-0.993,0.641-1.419,0.994c-0.087,0.073-0.033,0.408,0.054,0.569c0.065,0.12,0.375,0.258,0.426,0.215
		c0.614-0.533,1.209-0.427,1.86-0.068c0.125,0.068,0.481-0.077,0.577-0.225c0.088-0.136,0.048-0.507-0.071-0.599
		C15.571,35.063,15.104,34.823,14.553,34.492z"/>
	<path fill-rule="evenodd" clip-rule="evenodd" fill="#246B37" d="M16.224,23.978c-0.294-0.03-0.691,0.017-1.006-0.123
		c-0.466-0.207-0.858-0.06-1.305,0.007c-0.981,0.147-1.982,0.279-2.847-0.458c-0.864-0.737-1.01-1.855-0.125-2.563
		c0.708-0.568,0.863-1.193,0.801-1.998c-0.031-0.406-0.023-0.817-0.002-1.225c0.05-0.97-0.049-1.718-0.998-2.433
		c-1.057-0.796-1.375-2.137,0.057-3.224c1.376-1.045,0.798-2.345,0.907-3.568c0.015-0.174-0.325-0.389-0.516-0.569
		c-1.139-1.08-0.97-2.361,0.47-3.017c0.766-0.348,1.593-0.619,2.42-0.76c1.3-0.223,2.491,0.368,3.596,0.904
		c1.148,0.556,1.288,1.835,0.361,2.706c-0.506,0.476-0.625,0.938-0.583,1.547c0.019,0.271,0.024,0.546-0.001,0.816
		c-0.071,0.759,0.085,1.301,0.803,1.814c1.28,0.916,1.237,2.616-0.082,3.567c-0.626,0.452-0.76,0.906-0.723,1.568
		c0.03,0.543,0.022,1.089,0.002,1.633c-0.033,0.906,0.032,1.649,0.84,2.38c1.158,1.047,0.287,2.406-1.056,2.892
		C16.948,23.979,16.608,23.943,16.224,23.978z M13.937,18.952c-0.007,0-0.013,0-0.02,0c0,0.765,0.003,1.531-0.001,2.296
		c-0.003,0.437,0.065,0.838,0.604,0.866c0.508,0.026,0.653-0.367,0.754-0.768c0.021-0.085,0.009-0.179,0.009-0.27
		c0-1.396,0.004-2.791-0.005-4.187c-0.001-0.173-0.009-0.416-0.115-0.504c-0.214-0.177-0.497-0.357-0.754-0.364
		c-0.153-0.003-0.439,0.315-0.451,0.502C13.908,17.33,13.937,18.142,13.937,18.952z M14.578,5.893
		c-0.63-0.026-1.09,0.399-0.898,1.024c0.368,1.202,0.173,2.412,0.24,3.617c0.012,0.223-0.014,0.473,0.079,0.66
		c0.088,0.178,0.298,0.384,0.475,0.405c0.172,0.021,0.447-0.133,0.539-0.291c0.149-0.256,0.23-0.574,0.26-0.874
		c0.122-1.197-0.197-2.414,0.237-3.607C15.656,6.422,15.071,5.913,14.578,5.893z M16.142,15.1c-0.012-0.199-0.006-0.246-0.02-0.288
		c-0.137-0.435-0.963-0.959-1.53-0.972c-0.654-0.016-1.322,0.392-1.514,0.924c-0.146,0.405,0.146,0.849,0.493,0.679
		c0.665-0.326,1.245-0.536,1.913-0.01C15.572,15.503,15.954,15.2,16.142,15.1z M14.57,11.753c-0.518,0.324-0.99,0.558-1.373,0.895
		c-0.126,0.111-0.113,0.554,0.009,0.72c0.097,0.133,0.546,0.189,0.678,0.083c0.441-0.359,0.821-0.527,1.264-0.038
		c0.055,0.061,0.17,0.132,0.23,0.112c0.235-0.076,0.509-0.139,0.666-0.304c0.08-0.084,0.01-0.46-0.111-0.558
		C15.533,12.34,15.079,12.084,14.57,11.753z"/>
	<path fill-rule="evenodd" clip-rule="evenodd" fill="#226A37" d="M27.039,23.974c-0.293-0.024-0.631,0.012-0.922-0.09
		c-0.538-0.188-1.019-0.13-1.573-0.007c-0.784,0.174-1.614,0.194-2.374-0.255c-1.159-0.686-1.397-1.903-0.393-2.787
		c0.554-0.488,0.711-0.964,0.683-1.637c-0.039-0.906-0.023-1.815-0.004-2.723c0.009-0.395-0.125-0.625-0.454-0.881
		c-1.676-1.305-1.688-2.677-0.039-3.967c0.37-0.289,0.511-0.581,0.493-1.023c-0.023-0.589-0.03-1.182,0.002-1.77
		c0.025-0.449-0.153-0.731-0.468-1.05c-1.104-1.116-0.867-2.38,0.563-3.017c0.69-0.307,1.42-0.592,2.159-0.699
		c0.596-0.086,1.237,0.084,1.851,0.186c0.396,0.065,0.79,0.183,1.164,0.33c0.371,0.146,0.765,0.299,1.064,0.55
		c0.855,0.716,0.979,1.779,0.114,2.458c-0.696,0.547-0.776,1.133-0.737,1.87c0.017,0.317,0.025,0.637-0.003,0.953
		c-0.043,0.496,0.076,0.894,0.546,1.135c0.039,0.021,0.066,0.063,0.104,0.088c1.438,0.995,1.745,2.72-0.12,3.97
		c-0.456,0.306-0.538,0.669-0.529,1.149c0.018,0.907,0.037,1.817-0.007,2.723c-0.024,0.514,0.153,0.836,0.577,1.099
		c0.758,0.469,1.002,1.215,0.731,2.004c-0.281,0.823-0.964,1.279-1.861,1.346C27.425,23.941,27.244,23.957,27.039,23.974z
		 M25.98,19.121c-0.001,0-0.003,0-0.004,0c0-0.854,0.026-1.71-0.02-2.562c-0.011-0.195-0.273-0.528-0.424-0.531
		c-0.26-0.005-0.572,0.149-0.771,0.334c-0.129,0.121-0.128,0.415-0.129,0.632c-0.011,1.349-0.008,2.698-0.003,4.047
		c0,0.177-0.004,0.372,0.065,0.526c0.146,0.329,0.337,0.621,0.795,0.521c0.381-0.083,0.499-0.316,0.494-0.676
		C25.974,20.65,25.98,19.885,25.98,19.121z M25.312,11.646c0.578-0.12,0.659-0.48,0.68-0.925c0.063-1.296-0.166-2.6,0.24-3.891
		c0.176-0.558-0.247-0.922-0.854-0.937c-0.598-0.015-1.158,0.483-0.966,0.998c0.414,1.114,0.088,2.244,0.224,3.354
		c0.047,0.386,0.166,0.771,0.309,1.133C24.997,11.512,25.215,11.58,25.312,11.646z M24.263,13.566
		c0.165-0.011,0.223,0.003,0.251-0.02c0.576-0.466,1.135-0.568,1.737-0.014c0.071,0.065,0.479-0.068,0.542-0.2
		c0.091-0.188,0.096-0.523-0.019-0.685c-0.686-0.977-2.158-0.926-2.83,0.081c-0.082,0.123-0.131,0.354-0.07,0.467
		C23.967,13.369,24.169,13.483,24.263,13.566z M26.959,14.839c-0.055-0.088-0.126-0.255-0.242-0.38
		c-0.629-0.678-1.733-0.991-2.668,0.062c-0.131,0.148-0.196,0.531-0.099,0.662c0.121,0.163,0.576,0.313,0.656,0.234
		c0.576-0.569,1.052-0.375,1.621,0.021C26.516,15.639,26.998,15.247,26.959,14.839z"/>
	<path fill-rule="evenodd" clip-rule="evenodd" fill="#236B37" d="M22.451,40.689c0-0.317-0.005-0.635,0.001-0.952
		c0.012-0.683-0.044-1.21-0.731-1.725c-1.339-1.002-1.333-2.355-0.048-3.422c0.647-0.537,0.871-1.079,0.784-1.855
		c-0.04-0.358-0.021-0.726-0.003-1.087c0.023-0.47-0.081-0.826-0.448-1.198c-1.159-1.174-0.863-2.422,0.679-3.034
		c0.704-0.28,1.429-0.683,2.153-0.7c1.483-0.037,2.962,0.264,4.103,1.308c0.756,0.691,0.763,1.575-0.018,2.252
		c-0.678,0.587-0.811,1.229-0.756,2.021c0.025,0.361-0.045,0.734,0.021,1.085c0.052,0.28,0.211,0.56,0.385,0.791
		c0.127,0.17,0.373,0.245,0.538,0.394c1.226,1.104,1.165,2.578-0.064,3.473c-0.737,0.536-0.954,1.088-0.883,1.91
		c0.046,0.54,0.031,1.088,0.003,1.631c-0.04,0.79,0.056,1.404,0.834,1.937c0.901,0.618,0.741,2.078-0.198,2.672
		c-0.729,0.461-1.538,0.791-2.437,0.482c-0.715-0.245-1.397-0.17-2.123,0.015c-1.047,0.267-1.971-0.075-2.679-0.897
		c-0.597-0.693-0.688-1.492,0.012-2.044c0.895-0.706,0.93-1.555,0.877-2.511C22.442,41.053,22.451,40.871,22.451,40.689z
		 M26.25,29.65c0.059-0.784-0.39-1.227-1.046-1.104c-0.53,0.098-0.875,0.644-0.79,1.195c0.088,0.568,0.174,1.14,0.204,1.713
		c0.035,0.674-0.014,1.352,0.017,2.026c0.02,0.43,0.184,0.784,0.719,0.79c0.586,0.007,0.611-0.387,0.637-0.817
		C26.068,32.164,25.758,30.846,26.25,29.65z M25.984,41.822c0.001,0,0.002,0,0.003,0c0-0.766-0.002-1.531,0.001-2.296
		c0.001-0.436-0.068-0.843-0.594-0.896c-0.544-0.054-0.732,0.408-0.744,0.783c-0.047,1.529-0.021,3.062-0.017,4.592
		c0,0.087,0.018,0.186,0.062,0.259c0.185,0.304,0.374,0.722,0.793,0.561c0.223-0.086,0.453-0.452,0.474-0.709
		C26.024,43.355,25.984,42.587,25.984,41.822z M26.967,35.7c-0.102-0.177-0.18-0.404-0.331-0.561
		c-0.658-0.678-2.071-0.59-2.635,0.186c-0.123,0.169-0.162,0.548-0.055,0.694c0.11,0.15,0.543,0.263,0.669,0.169
		c0.561-0.417,1.035-0.396,1.589,0.016C26.453,36.39,26.976,36.017,26.967,35.7z M26.957,37.586
		c-0.101-0.171-0.182-0.397-0.335-0.552c-0.659-0.666-2.091-0.559-2.635,0.219c-0.118,0.169-0.141,0.553-0.028,0.694
		c0.117,0.146,0.543,0.24,0.677,0.143c0.566-0.418,1.039-0.37,1.587,0.037C26.473,38.312,26.98,37.916,26.957,37.586z"/>
	<path fill-rule="evenodd" clip-rule="evenodd" fill="#216A36" d="M33.81,9.799c0.045-0.91,0.008-1.585-0.72-2.249
		c-1.024-0.937-0.643-2.052,0.368-2.584c1.047-0.551,2.213-1.111,3.453-0.92c0.957,0.146,1.936,0.426,2.795,0.863
		c1.192,0.606,1.328,1.85,0.364,2.796c-0.401,0.395-0.563,0.767-0.524,1.299c0.034,0.451,0.022,0.907,0.003,1.359
		c-0.024,0.563,0.084,0.947,0.633,1.333c1.441,1.013,1.458,2.669,0.031,3.737c-0.565,0.423-0.703,0.826-0.669,1.446
		c0.038,0.678,0.027,1.36,0.004,2.039c-0.026,0.777-0.021,1.455,0.805,1.954c0.462,0.28,0.723,0.913,0.488,1.569
		c-0.283,0.792-0.86,1.253-1.647,1.451c-0.302,0.077-0.656,0.138-0.942,0.054c-1.381-0.407-2.771,0.203-4.132-0.064
		c-0.771-0.151-1.413-0.646-1.613-1.47c-0.192-0.791,0.126-1.446,0.812-1.853c0.414-0.246,0.528-0.541,0.518-0.987
		c-0.024-0.951-0.027-1.904,0-2.854c0.015-0.494-0.074-0.887-0.552-1.13c-0.157-0.08-0.283-0.224-0.419-0.344
		c-1.01-0.895-1.181-2.375-0.01-3.275C33.666,11.346,34.05,10.689,33.81,9.799z M36.02,19.035c-0.002,0-0.004,0-0.005,0
		c0,0.726,0.009,1.452-0.004,2.178c-0.007,0.438,0.032,0.832,0.577,0.899c0.396,0.049,0.719-0.327,0.782-0.895
		c0.01-0.089,0.002-0.181,0.002-0.272c0-1.271,0.002-2.542-0.003-3.813c-0.001-0.224,0.047-0.511-0.069-0.657
		c-0.171-0.216-0.452-0.418-0.717-0.47c-0.375-0.073-0.565,0.195-0.564,0.579C36.021,17.4,36.02,18.217,36.02,19.035z M36.61,5.896
		c-0.652,0.02-1.062,0.432-0.832,1.062c0.388,1.061,0.158,2.127,0.234,3.187c0.022,0.313-0.055,0.65,0.036,0.937
		c0.068,0.215,0.317,0.485,0.517,0.514c0.19,0.027,0.507-0.178,0.613-0.368c0.142-0.254,0.156-0.589,0.188-0.894
		c0.115-1.149-0.187-2.315,0.234-3.464C37.788,6.356,37.221,5.877,36.61,5.896z M36.719,11.786
		c-0.494,0.265-0.995,0.456-1.382,0.782c-0.148,0.125-0.09,0.574-0.013,0.843c0.021,0.073,0.537,0.132,0.682,0.017
		c0.461-0.367,0.836-0.393,1.284,0.005c0.277,0.247,0.663,0.186,0.792-0.134c0.087-0.217-0.008-0.637-0.179-0.8
		C37.599,12.21,37.173,12.048,36.719,11.786z M36.749,13.657c-0.551,0.312-1.047,0.514-1.427,0.848
		c-0.143,0.125-0.056,0.567,0.016,0.841c0.018,0.067,0.476,0.139,0.577,0.044c0.54-0.504,0.999-0.353,1.53,0.016
		c0.119,0.083,0.503-0.08,0.66-0.235c0.094-0.091,0.061-0.481-0.053-0.58C37.671,14.254,37.228,13.99,36.749,13.657z"/>
	<path fill-rule="evenodd" clip-rule="evenodd" fill="#F2F8F1" d="M36.649,28.539c0.529,0.017,1.127,0.598,0.953,1.06
		c-0.415,1.102-0.14,2.224-0.229,3.331c-0.012,0.135,0,0.271-0.003,0.405c-0.009,0.484-0.093,0.919-0.712,0.932
		c-0.679,0.013-0.625-0.478-0.647-0.938c-0.061-1.246,0.149-2.497-0.241-3.738C35.574,28.968,36.039,28.521,36.649,28.539z"/>
	<path fill-rule="evenodd" clip-rule="evenodd" fill="#F2F8F1" d="M37.371,41.751c0,0.633,0.014,1.267-0.007,1.898
		c-0.008,0.262-0.026,0.561-0.156,0.771c-0.121,0.198-0.454,0.462-0.589,0.412c-0.241-0.089-0.565-0.387-0.572-0.606
		c-0.049-1.626-0.032-3.254-0.028-4.882c0.002-0.412,0.189-0.708,0.633-0.718c0.439-0.01,0.676,0.303,0.695,0.684
		c0.04,0.812,0.012,1.626,0.012,2.44C37.362,41.751,37.367,41.751,37.371,41.751z"/>
	<path fill-rule="evenodd" clip-rule="evenodd" fill="#F9FCF8" d="M37.014,34.729c0.202,0.12,0.666,0.352,1.067,0.663
		c0.115,0.089,0.139,0.466,0.046,0.605c-0.093,0.142-0.441,0.268-0.576,0.199c-0.593-0.302-1.142-0.468-1.742-0.018
		c-0.092,0.069-0.409,0.007-0.47-0.09c-0.101-0.161-0.164-0.437-0.093-0.598C35.517,34.877,36.08,34.742,37.014,34.729z"/>
	<path fill-rule="evenodd" clip-rule="evenodd" fill="#F9FCF8" d="M38.204,37.804c-0.142,0.086-0.403,0.354-0.529,0.302
		c-0.685-0.29-1.329-0.458-2.014,0.002c-0.04,0.027-0.455-0.295-0.461-0.463c-0.021-0.58,0.673-1.012,1.501-1.003
		C37.539,36.649,38.195,37.101,38.204,37.804z"/>
	<path fill-rule="evenodd" clip-rule="evenodd" fill="#EDF5EC" d="M13.792,29.501c-0.165-0.597,0.155-0.952,0.721-0.963
		c0.551-0.01,1.15,0.527,0.985,1.008c-0.396,1.152-0.117,2.321-0.22,3.477c-0.027,0.307-0.022,0.649-0.163,0.902
		c-0.099,0.178-0.432,0.334-0.639,0.311c-0.192-0.021-0.414-0.266-0.514-0.467c-0.091-0.184-0.038-0.44-0.046-0.665
		C13.875,31.903,13.833,30.702,13.792,29.501z"/>
	<path fill-rule="evenodd" clip-rule="evenodd" fill="#ECF5EB" d="M13.92,41.641c0-0.766-0.014-1.53,0.006-2.295
		c0.011-0.392,0.195-0.765,0.63-0.697c0.24,0.036,0.502,0.324,0.632,0.565c0.118,0.216,0.088,0.521,0.09,0.788
		c0.008,1.169,0.003,2.339,0.003,3.509c0,0.181,0.038,0.372-0.012,0.538c-0.117,0.391-0.287,0.829-0.771,0.794
		c-0.502-0.037-0.584-0.475-0.583-0.908c0.003-0.765,0.001-1.529,0.001-2.294C13.918,41.641,13.919,41.641,13.92,41.641z"/>
	<path fill-rule="evenodd" clip-rule="evenodd" fill="#F0F6EF" d="M14.602,36.425c0.522,0.304,0.969,0.504,1.331,0.807
		c0.137,0.116,0.182,0.536,0.078,0.691c-0.103,0.153-0.545,0.279-0.663,0.188c-0.551-0.423-1.03-0.409-1.589-0.023
		c-0.114,0.079-0.479-0.066-0.621-0.213c-0.094-0.097-0.072-0.484,0.032-0.562C13.614,36.984,14.108,36.722,14.602,36.425z"/>
	<path fill-rule="evenodd" clip-rule="evenodd" fill="#F2F8F1" d="M14.553,34.492c0.55,0.331,1.018,0.57,1.426,0.887
		c0.119,0.092,0.16,0.463,0.071,0.599c-0.096,0.147-0.452,0.293-0.577,0.225c-0.651-0.358-1.246-0.465-1.86,0.068
		c-0.051,0.043-0.361-0.095-0.426-0.215c-0.087-0.161-0.141-0.496-0.054-0.569C13.561,35.133,14.039,34.842,14.553,34.492z"/>
	<path fill-rule="evenodd" clip-rule="evenodd" fill="#EBF4EA" d="M13.937,18.952c0-0.81-0.029-1.622,0.021-2.429
		c0.012-0.187,0.297-0.505,0.451-0.502c0.258,0.006,0.54,0.187,0.754,0.364c0.106,0.088,0.114,0.331,0.115,0.504
		c0.009,1.396,0.005,2.792,0.005,4.187c0,0.09,0.013,0.185-0.009,0.27c-0.102,0.401-0.246,0.794-0.754,0.768
		c-0.539-0.028-0.607-0.429-0.604-0.866c0.004-0.765,0.001-1.531,0.001-2.296C13.923,18.952,13.93,18.952,13.937,18.952z"/>
	<path fill-rule="evenodd" clip-rule="evenodd" fill="#EFF6EE" d="M14.578,5.893c0.493,0.021,1.078,0.53,0.931,0.935
		c-0.434,1.193-0.115,2.41-0.237,3.607c-0.03,0.3-0.111,0.617-0.26,0.874c-0.092,0.158-0.367,0.312-0.539,0.291
		c-0.177-0.021-0.387-0.227-0.475-0.405c-0.093-0.188-0.066-0.437-0.079-0.66c-0.067-1.205,0.128-2.415-0.24-3.617
		C13.488,6.292,13.948,5.866,14.578,5.893z"/>
	<path fill-rule="evenodd" clip-rule="evenodd" fill="#F2F8F1" d="M16.142,15.1c-0.188,0.1-0.57,0.403-0.659,0.333
		c-0.668-0.526-1.248-0.316-1.913,0.01c-0.346,0.169-0.639-0.274-0.493-0.679c0.192-0.532,0.86-0.94,1.514-0.924
		c0.567,0.013,1.394,0.537,1.53,0.972C16.136,14.854,16.13,14.901,16.142,15.1z"/>
	<path fill-rule="evenodd" clip-rule="evenodd" fill="#F5FAF4" d="M14.57,11.753c0.508,0.331,0.962,0.586,1.363,0.91
		c0.121,0.098,0.191,0.474,0.111,0.558c-0.156,0.166-0.431,0.228-0.666,0.304c-0.06,0.02-0.175-0.051-0.23-0.112
		c-0.443-0.489-0.822-0.322-1.264,0.038c-0.132,0.107-0.582,0.051-0.678-0.083c-0.122-0.166-0.135-0.608-0.009-0.72
		C13.58,12.312,14.053,12.077,14.57,11.753z"/>
	<path fill-rule="evenodd" clip-rule="evenodd" fill="#EFF7EE" d="M25.98,19.121c0,0.765-0.006,1.529,0.003,2.293
		c0.004,0.359-0.113,0.592-0.494,0.676c-0.458,0.1-0.648-0.192-0.795-0.521c-0.069-0.155-0.064-0.35-0.065-0.526
		c-0.005-1.349-0.008-2.698,0.003-4.047c0.001-0.217,0-0.511,0.129-0.632c0.199-0.186,0.51-0.34,0.771-0.334
		c0.151,0.002,0.413,0.335,0.424,0.531c0.046,0.852,0.02,1.707,0.02,2.562C25.977,19.121,25.979,19.121,25.98,19.121z"/>
	<path fill-rule="evenodd" clip-rule="evenodd" fill="#F1F8F0" d="M25.312,11.646c-0.097-0.066-0.314-0.135-0.367-0.268
		c-0.143-0.362-0.261-0.747-0.309-1.133c-0.136-1.11,0.19-2.24-0.224-3.354c-0.192-0.515,0.368-1.013,0.966-0.998
		c0.607,0.015,1.029,0.379,0.854,0.937c-0.405,1.291-0.177,2.595-0.24,3.891C25.97,11.166,25.89,11.526,25.312,11.646z"/>
	<path fill-rule="evenodd" clip-rule="evenodd" fill="#F1F8F0" d="M24.263,13.566c-0.093-0.083-0.295-0.197-0.388-0.371
		c-0.061-0.113-0.012-0.344,0.07-0.467c0.672-1.007,2.144-1.058,2.83-0.081c0.114,0.162,0.109,0.497,0.019,0.685
		c-0.063,0.132-0.471,0.265-0.542,0.2c-0.602-0.555-1.161-0.453-1.737,0.014C24.486,13.569,24.428,13.555,24.263,13.566z"/>
	<path fill-rule="evenodd" clip-rule="evenodd" fill="#F1F8F0" d="M26.959,14.839c0.039,0.408-0.443,0.799-0.732,0.599
		c-0.569-0.396-1.045-0.589-1.621-0.021c-0.08,0.079-0.535-0.071-0.656-0.234c-0.097-0.131-0.032-0.514,0.099-0.662
		c0.935-1.053,2.039-0.74,2.668-0.062C26.833,14.584,26.904,14.751,26.959,14.839z"/>
	<path fill-rule="evenodd" clip-rule="evenodd" fill="#EEF6ED" d="M26.25,29.65c-0.492,1.195-0.182,2.514-0.259,3.804
		c-0.026,0.431-0.05,0.824-0.637,0.817c-0.536-0.006-0.7-0.36-0.719-0.79c-0.031-0.675,0.018-1.353-0.017-2.026
		c-0.03-0.573-0.116-1.145-0.204-1.713c-0.085-0.552,0.26-1.098,0.79-1.195C25.86,28.424,26.309,28.866,26.25,29.65z"/>
	<path fill-rule="evenodd" clip-rule="evenodd" fill="#EFF7EF" d="M25.984,41.822c0,0.765,0.041,1.533-0.022,2.294
		c-0.021,0.257-0.25,0.623-0.474,0.709c-0.419,0.161-0.608-0.257-0.793-0.561c-0.044-0.073-0.062-0.172-0.062-0.259
		c-0.004-1.53-0.03-3.063,0.017-4.592c0.011-0.375,0.2-0.837,0.744-0.783c0.525,0.053,0.595,0.46,0.594,0.896
		c-0.003,0.765-0.001,1.53-0.001,2.296C25.986,41.822,25.985,41.822,25.984,41.822z"/>
	<path fill-rule="evenodd" clip-rule="evenodd" fill="#EFF6ED" d="M26.967,35.7c0.009,0.316-0.514,0.689-0.763,0.504
		c-0.554-0.411-1.028-0.433-1.589-0.016c-0.126,0.094-0.559-0.019-0.669-0.169c-0.107-0.146-0.068-0.525,0.055-0.694
		c0.563-0.775,1.977-0.863,2.635-0.186C26.787,35.296,26.865,35.523,26.967,35.7z"/>
	<path fill-rule="evenodd" clip-rule="evenodd" fill="#ECF4EA" d="M26.957,37.586c0.023,0.33-0.484,0.726-0.734,0.541
		c-0.549-0.407-1.021-0.455-1.587-0.037c-0.133,0.098-0.56,0.003-0.677-0.143c-0.113-0.142-0.09-0.525,0.028-0.694
		c0.544-0.777,1.977-0.885,2.635-0.219C26.775,37.188,26.856,37.415,26.957,37.586z"/>
	<path fill-rule="evenodd" clip-rule="evenodd" fill="#F2F8F1" d="M36.02,19.035c0-0.817,0.001-1.634-0.001-2.451
		c-0.001-0.384,0.189-0.652,0.564-0.579c0.265,0.052,0.546,0.254,0.717,0.47c0.116,0.146,0.068,0.433,0.069,0.657
		c0.005,1.271,0.003,2.542,0.003,3.813c0,0.091,0.008,0.183-0.002,0.272c-0.063,0.568-0.386,0.944-0.782,0.895
		c-0.545-0.067-0.584-0.461-0.577-0.899c0.013-0.726,0.004-1.452,0.004-2.178C36.016,19.035,36.018,19.035,36.02,19.035z"/>
	<path fill-rule="evenodd" clip-rule="evenodd" fill="#F5FAF4" d="M36.61,5.896c0.61-0.019,1.178,0.461,0.99,0.974
		c-0.421,1.149-0.119,2.315-0.234,3.464c-0.031,0.304-0.046,0.64-0.188,0.894c-0.106,0.19-0.423,0.395-0.613,0.368
		c-0.199-0.029-0.448-0.299-0.517-0.514c-0.091-0.287-0.014-0.624-0.036-0.937c-0.076-1.06,0.153-2.126-0.234-3.187
		C35.549,6.327,35.958,5.915,36.61,5.896z"/>
	<path fill-rule="evenodd" clip-rule="evenodd" fill="#F2F8F1" d="M36.719,11.786c0.454,0.262,0.88,0.424,1.185,0.714
		c0.171,0.163,0.266,0.583,0.179,0.8c-0.129,0.319-0.515,0.38-0.792,0.134c-0.448-0.398-0.823-0.373-1.284-0.005
		c-0.145,0.115-0.661,0.056-0.682-0.017c-0.077-0.27-0.136-0.718,0.013-0.843C35.724,12.242,36.225,12.051,36.719,11.786z"/>
	<path fill-rule="evenodd" clip-rule="evenodd" fill="#F1F8F0" d="M36.749,13.657c0.479,0.333,0.922,0.598,1.304,0.933
		c0.113,0.099,0.146,0.489,0.053,0.58c-0.157,0.155-0.541,0.318-0.66,0.235c-0.531-0.369-0.99-0.521-1.53-0.016
		c-0.102,0.095-0.56,0.023-0.577-0.044c-0.071-0.274-0.158-0.716-0.016-0.841C35.702,14.17,36.198,13.968,36.749,13.657z"/>
</g>
</svg>
