<?xml version="1.0" encoding="utf-8"?>
<!-- Generator: Adobe Illustrator 16.0.0, SVG Export Plug-In . SVG Version: 6.00 Build 0)  -->
<!DOCTYPE svg PUBLIC "-//W3C//DTD SVG 1.1//EN" "http://www.w3.org/Graphics/SVG/1.1/DTD/svg11.dtd">
<svg version="1.1" id="Layer_1" xmlns="http://www.w3.org/2000/svg" xmlns:xlink="http://www.w3.org/1999/xlink" x="0px" y="0px"
	 width="50px" height="50px" viewBox="0 0 50 50" enable-background="new 0 0 50 50" xml:space="preserve">
<g>
	<path fill-rule="evenodd" clip-rule="evenodd" fill="#151515" d="M25.023,5.839c4.262-0.116,8.906,3.355,8.929,8.902
		c0.022,5.341-4.271,9.011-8.976,9c-4.585-0.01-8.891-3.552-8.93-8.92C16.007,9.335,20.604,5.712,25.023,5.839z M32.625,14.737
		c0.095-4.24-3.521-7.715-7.765-7.63c-4.179,0.084-7.504,3.529-7.51,7.657c-0.005,4.083,3.247,7.74,7.725,7.695
		C29.518,22.415,32.75,18.774,32.625,14.737z"/>
	<path fill-rule="evenodd" clip-rule="evenodd" fill="#151515" d="M25.006,26.261c4.419-0.113,9.008,3.527,8.946,9.012
		c-0.061,5.414-4.418,8.898-8.958,8.893c-4.565-0.005-8.896-3.518-8.947-8.905C15.995,29.788,20.575,26.144,25.006,26.261z
		 M17.376,35.146c-0.138,4.011,3.067,7.675,7.534,7.735c4.443,0.06,7.737-3.563,7.738-7.682c0.001-4.155-3.333-7.58-7.496-7.67
		C20.901,27.438,17.281,30.923,17.376,35.146z"/>
	<path fill-rule="evenodd" clip-rule="evenodd" fill="#F0EFF2" d="M32.625,14.737c0.125,4.037-3.107,7.677-7.549,7.722
		c-4.478,0.045-7.73-3.611-7.725-7.695c0.005-4.128,3.331-7.573,7.51-7.657C29.104,7.022,32.72,10.497,32.625,14.737z
		 M24.945,21.505c3.416,0.175,6.769-2.508,6.812-6.644c0.041-3.98-3.098-6.686-6.576-6.778c-3.596-0.095-6.904,2.59-6.939,6.669
		C18.207,18.874,21.542,21.635,24.945,21.505z"/>
	<path fill-rule="evenodd" clip-rule="evenodd" fill="#F0EFF2" d="M17.376,35.146c-0.095-4.224,3.525-7.708,7.776-7.616
		c4.163,0.09,7.497,3.515,7.496,7.67c-0.001,4.118-3.295,7.741-7.738,7.682C20.443,42.821,17.238,39.157,17.376,35.146z
		 M25.055,41.927c3.4,0.132,6.738-2.625,6.702-6.752c-0.037-4.09-3.333-6.701-6.812-6.672c-3.53,0.031-6.744,2.758-6.703,6.781
		C18.285,39.414,21.635,42.102,25.055,41.927z"/>
	<path fill-rule="evenodd" clip-rule="evenodd" fill="#1E1D51" d="M24.945,21.505c-3.403,0.13-6.738-2.631-6.703-6.752
		c0.035-4.079,3.343-6.765,6.939-6.669c3.478,0.093,6.617,2.798,6.576,6.778C31.714,18.997,28.361,21.68,24.945,21.505z
		 M24.976,16.686c1.04,0.005,1.927-0.825,1.966-1.841c0.035-0.954-0.889-1.912-1.876-1.945c-1.076-0.036-2.051,0.884-2.034,1.92
		C23.047,15.83,23.934,16.68,24.976,16.686z M29.017,13.249c-0.448,0.179-0.832,0.308-1.188,0.491
		c-0.092,0.047-0.164,0.295-0.121,0.399c0.05,0.122,0.242,0.271,0.361,0.262c0.282-0.02,0.554-0.152,0.836-0.193
		c0.447-0.064,0.914,0.295,0.873,0.661c-0.055,0.485-0.402,0.603-0.814,0.559c-0.24-0.026-0.483-0.21-0.705-0.179
		c-0.204,0.029-0.424,0.224-0.547,0.406c-0.048,0.071,0.111,0.376,0.246,0.458c0.746,0.451,1.507,0.415,2.235-0.051
		c0.812-0.519,0.917-1.621,0.156-2.224C29.985,13.551,29.479,13.445,29.017,13.249z M21.21,11.098
		c0.017,0.711,0.316,1.295,0.896,1.688c0.189,0.129,0.506,0.068,0.766,0.094c-0.037-0.256-0.024-0.532-0.125-0.76
		c-0.076-0.172-0.332-0.256-0.442-0.422c-0.204-0.308-0.1-0.885,0.145-1.015c0.299-0.159,0.756,0.017,0.929,0.396
		c0.083,0.182,0.022,0.45,0.137,0.59c0.157,0.192,0.418,0.3,0.634,0.445c0.111-0.202,0.348-0.432,0.311-0.602
		c-0.152-0.69-0.382-1.344-1.105-1.704C22.25,9.258,21.21,9.865,21.21,11.098z M20.976,13.328c-0.399,0.041-0.657,0.034-0.896,0.096
		c-0.865,0.224-1.388,1.231-1.028,1.946c0.508,1.01,1.994,1.35,2.909,0.651c0.114-0.087,0.251-0.315,0.211-0.399
		c-0.08-0.167-0.258-0.358-0.427-0.393c-0.174-0.036-0.379,0.126-0.579,0.159c-0.415,0.068-0.857,0.143-1.092-0.337
		c-0.057-0.117-0.036-0.338,0.042-0.442c0.265-0.352,0.584-0.603,1.066-0.331c0.137,0.078,0.325,0.151,0.466,0.119
		c0.181-0.041,0.405-0.155,0.482-0.304c0.046-0.09-0.112-0.383-0.246-0.45C21.559,13.482,21.195,13.4,20.976,13.328z M28.568,18.731
		c-0.006-0.854-0.393-1.536-1.094-1.87c-0.136-0.064-0.42-0.019-0.513,0.085c-0.093,0.104-0.101,0.386-0.022,0.518
		c0.164,0.281,0.424,0.504,0.616,0.771c0.245,0.34,0.096,0.696-0.185,0.854c-0.168,0.095-0.563-0.021-0.736-0.176
		c-0.193-0.174-0.311-0.49-0.354-0.762c-0.059-0.374-0.265-0.582-0.57-0.438c-0.172,0.082-0.294,0.45-0.292,0.688
		c0.006,0.575,0.344,1.004,0.76,1.382c0.48,0.435,1.012,0.574,1.614,0.328C28.43,19.851,28.6,19.318,28.568,18.731z M22.677,20.216
		c0.896,0.105,1.965-1.093,1.807-2.131c-0.021-0.134-0.155-0.349-0.245-0.353c-0.179-0.008-0.453,0.052-0.526,0.178
		c-0.141,0.239-0.146,0.554-0.248,0.822c-0.152,0.396-0.585,0.576-0.912,0.411c-0.339-0.17-0.451-0.621-0.2-0.969
		c0.169-0.234,0.45-0.395,0.587-0.641c0.079-0.14,0.033-0.434-0.073-0.564c-0.075-0.092-0.385-0.095-0.521-0.017
		c-0.615,0.351-0.97,0.926-1.096,1.602C21.087,19.426,21.813,20.238,22.677,20.216z M27.164,9.586
		c-1.023,0.02-2.042,1.138-1.868,2.087c0.031,0.17,0.223,0.4,0.376,0.432c0.143,0.03,0.407-0.128,0.484-0.274
		c0.148-0.282,0.164-0.631,0.304-0.918c0.184-0.374,0.58-0.363,0.871-0.226c0.141,0.066,0.234,0.445,0.187,0.643
		c-0.061,0.25-0.313,0.448-0.437,0.692c-0.117,0.234-0.323,0.596-0.234,0.729c0.238,0.352,0.587,0.159,0.861-0.052
		c0.694-0.529,0.946-1.249,0.807-2.089C28.402,9.933,27.889,9.572,27.164,9.586z"/>
	<path fill-rule="evenodd" clip-rule="evenodd" fill="#1E1D51" d="M25.055,41.927c-3.42,0.175-6.77-2.513-6.813-6.643
		c-0.042-4.023,3.172-6.75,6.703-6.781c3.479-0.029,6.774,2.582,6.812,6.672C31.793,39.302,28.455,42.059,25.055,41.927z
		 M24.976,37.108c1.04,0.005,1.927-0.825,1.966-1.842c0.035-0.953-0.889-1.911-1.876-1.944c-1.076-0.037-2.051,0.884-2.034,1.92
		C23.047,36.252,23.934,37.103,24.976,37.108z M27.605,36.344c0.359,0.161,0.712,0.393,1.098,0.478c0.965,0.211,2-0.447,2.113-1.285
		c0.096-0.701-0.25-1.318-0.907-1.617c-0.579-0.266-1.778-0.118-2.122,0.275c-0.074,0.083-0.159,0.248-0.124,0.313
		c0.071,0.134,0.229,0.321,0.339,0.313c0.322-0.023,0.635-0.156,0.957-0.198c0.354-0.046,0.803,0.307,0.824,0.603
		c0.027,0.37-0.282,0.645-0.753,0.628c-0.2-0.007-0.401-0.079-0.596-0.142C27.947,35.554,27.754,35.827,27.605,36.344z
		 M21.212,31.453c-0.013,0.768,0.323,1.37,0.937,1.798c0.209,0.145,0.554,0.332,0.742,0c0.09-0.16,0.007-0.472-0.092-0.667
		c-0.085-0.17-0.416-0.254-0.441-0.408c-0.055-0.337-0.086-0.749,0.063-1.027c0.152-0.284,0.813-0.018,0.989,0.402
		c0.078,0.185,0.015,0.445,0.122,0.598c0.125,0.179,0.365,0.276,0.556,0.409c0.129-0.229,0.404-0.488,0.362-0.681
		c-0.149-0.692-0.418-1.339-1.143-1.679C22.248,29.7,21.248,30.286,21.212,31.453z M20.72,35.943
		c-0.219-0.194-0.561-0.372-0.691-0.648c-0.128-0.274,0.471-0.73,0.86-0.691c0.118,0.012,0.225,0.1,0.343,0.132
		c0.157,0.044,0.34,0.128,0.476,0.084c0.177-0.059,0.353-0.201,0.459-0.355c0.036-0.053-0.11-0.291-0.224-0.375
		c-0.576-0.429-1.797-0.416-2.362,0.001c-0.829,0.612-0.863,1.538-0.082,2.222c0.72,0.63,1.647,0.709,2.41,0.169
		c0.138-0.099,0.294-0.434,0.248-0.483c-0.149-0.165-0.383-0.33-0.593-0.342C21.338,35.643,21.103,35.803,20.72,35.943z
		 M28.56,39.105c0.083-0.838-0.394-1.393-1.065-1.81c-0.121-0.076-0.416-0.042-0.515,0.057c-0.099,0.098-0.128,0.387-0.055,0.514
		c0.185,0.317,0.517,0.562,0.647,0.891c0.08,0.202-0.023,0.578-0.183,0.75c-0.237,0.26-0.571,0.128-0.745-0.141
		c-0.174-0.268-0.297-0.582-0.377-0.893c-0.08-0.318-0.296-0.456-0.534-0.346c-0.177,0.081-0.384,0.382-0.36,0.554
		c0.082,0.58,0.308,1.104,0.785,1.513c0.492,0.421,1.016,0.585,1.613,0.352C28.401,40.3,28.609,39.776,28.56,39.105z M22.647,40.639
		c0.998-0.007,1.859-0.928,1.849-1.977c-0.002-0.255,0-0.569-0.349-0.527c-0.202,0.025-0.442,0.206-0.553,0.387
		c-0.123,0.198-0.07,0.5-0.176,0.716c-0.164,0.331-0.463,0.483-0.838,0.34c-0.346-0.134-0.482-0.617-0.245-0.959
		c0.14-0.202,0.42-0.318,0.524-0.529c0.096-0.194,0.13-0.511,0.034-0.689c-0.152-0.283-0.472-0.166-0.625,0.021
		c-0.362,0.443-0.79,0.889-0.978,1.409C20.975,39.707,21.738,40.646,22.647,40.639z M28.53,31.438
		c-0.021-1.077-0.657-1.599-1.707-1.397c-0.778,0.149-1.644,1.266-1.529,2.024c0.026,0.174,0.241,0.462,0.34,0.451
		c0.204-0.023,0.441-0.176,0.566-0.349c0.106-0.147,0.04-0.409,0.111-0.598c0.127-0.329,0.356-0.573,0.752-0.516
		c0.15,0.022,0.41,0.112,0.412,0.179c0.012,0.318,0.012,0.662-0.104,0.951c-0.08,0.205-0.379,0.315-0.52,0.512
		c-0.081,0.113-0.111,0.398-0.041,0.455c0.137,0.111,0.38,0.197,0.543,0.154C28.011,33.131,28.547,32.243,28.53,31.438z"/>
	<path fill-rule="evenodd" clip-rule="evenodd" fill="#ECECF2" d="M24.976,16.686c-1.042-0.006-1.929-0.856-1.945-1.866
		c-0.017-1.037,0.958-1.957,2.034-1.92c0.988,0.033,1.912,0.992,1.876,1.945C26.902,15.861,26.016,16.691,24.976,16.686z
		 M25.821,14.744c-0.023-0.532-0.353-0.848-0.864-0.829c-0.439,0.015-0.881,0.453-0.884,0.875c-0.003,0.486,0.486,0.921,0.993,0.882
		C25.565,15.633,25.846,15.289,25.821,14.744z"/>
	<path fill-rule="evenodd" clip-rule="evenodd" fill="#EAE9F1" d="M29.017,13.249c0.462,0.196,0.969,0.302,1.332,0.59
		c0.761,0.603,0.655,1.705-0.156,2.224c-0.729,0.466-1.489,0.502-2.235,0.051c-0.135-0.082-0.294-0.387-0.246-0.458
		c0.123-0.183,0.343-0.377,0.547-0.406c0.222-0.032,0.465,0.153,0.705,0.179c0.412,0.044,0.76-0.074,0.814-0.559
		c0.041-0.366-0.426-0.725-0.873-0.661c-0.282,0.041-0.554,0.173-0.836,0.193c-0.119,0.008-0.312-0.14-0.361-0.262
		c-0.043-0.104,0.029-0.352,0.121-0.399C28.185,13.557,28.568,13.428,29.017,13.249z"/>
	<path fill-rule="evenodd" clip-rule="evenodd" fill="#EFEEF4" d="M21.21,11.098c0-1.233,1.04-1.839,2.146-1.289
		c0.723,0.36,0.953,1.013,1.105,1.704c0.037,0.169-0.2,0.399-0.311,0.602c-0.216-0.145-0.477-0.252-0.634-0.445
		c-0.114-0.14-0.054-0.409-0.137-0.59c-0.173-0.379-0.629-0.556-0.929-0.396c-0.245,0.13-0.349,0.707-0.145,1.015
		c0.11,0.167,0.366,0.25,0.442,0.422c0.1,0.228,0.088,0.504,0.125,0.76c-0.259-0.026-0.576,0.035-0.766-0.094
		C21.527,12.393,21.228,11.809,21.21,11.098z"/>
	<path fill-rule="evenodd" clip-rule="evenodd" fill="#ECEBF2" d="M20.976,13.328c0.219,0.072,0.583,0.154,0.908,0.316
		c0.134,0.066,0.292,0.359,0.246,0.45c-0.077,0.149-0.301,0.263-0.482,0.304c-0.141,0.032-0.329-0.041-0.466-0.119
		c-0.482-0.272-0.801-0.021-1.066,0.331c-0.078,0.104-0.098,0.325-0.042,0.442c0.234,0.479,0.677,0.405,1.092,0.337
		c0.199-0.033,0.405-0.195,0.579-0.159c0.168,0.035,0.347,0.226,0.427,0.393c0.04,0.083-0.097,0.312-0.211,0.399
		c-0.915,0.699-2.4,0.359-2.909-0.651c-0.36-0.715,0.164-1.722,1.028-1.946C20.319,13.362,20.577,13.369,20.976,13.328z"/>
	<path fill-rule="evenodd" clip-rule="evenodd" fill="#ECECF2" d="M28.568,18.731c0.031,0.587-0.139,1.12-0.774,1.38
		c-0.603,0.247-1.134,0.107-1.614-0.328c-0.416-0.378-0.754-0.807-0.76-1.382c-0.002-0.238,0.12-0.607,0.292-0.688
		c0.306-0.144,0.512,0.063,0.57,0.438c0.043,0.271,0.16,0.588,0.354,0.762c0.173,0.155,0.568,0.271,0.736,0.176
		c0.28-0.158,0.43-0.514,0.185-0.854c-0.192-0.267-0.452-0.489-0.616-0.771c-0.078-0.132-0.07-0.414,0.022-0.518
		c0.093-0.104,0.377-0.149,0.513-0.085C28.176,17.195,28.563,17.876,28.568,18.731z"/>
	<path fill-rule="evenodd" clip-rule="evenodd" fill="#EFEEF5" d="M22.677,20.216c-0.863,0.021-1.589-0.79-1.427-1.663
		c0.126-0.676,0.481-1.251,1.096-1.602c0.136-0.078,0.446-0.075,0.521,0.017c0.106,0.13,0.152,0.424,0.073,0.564
		c-0.138,0.246-0.418,0.407-0.587,0.641c-0.251,0.349-0.14,0.799,0.2,0.969c0.327,0.165,0.76-0.016,0.912-0.411
		c0.103-0.268,0.107-0.583,0.248-0.822c0.074-0.126,0.347-0.187,0.526-0.178c0.09,0.004,0.225,0.219,0.245,0.353
		C24.642,19.124,23.573,20.321,22.677,20.216z"/>
	<path fill-rule="evenodd" clip-rule="evenodd" fill="#EFEEF5" d="M27.164,9.586c0.725-0.014,1.238,0.347,1.352,1.023
		c0.14,0.84-0.112,1.56-0.807,2.089c-0.274,0.21-0.623,0.404-0.861,0.052c-0.089-0.132,0.117-0.495,0.234-0.729
		c0.124-0.244,0.376-0.441,0.437-0.692c0.048-0.198-0.046-0.577-0.187-0.643c-0.291-0.137-0.688-0.147-0.871,0.226
		c-0.14,0.287-0.155,0.637-0.304,0.918c-0.077,0.146-0.342,0.304-0.484,0.274c-0.153-0.032-0.346-0.262-0.376-0.432
		C25.122,10.724,26.141,9.605,27.164,9.586z"/>
	<path fill-rule="evenodd" clip-rule="evenodd" fill="#ECECF2" d="M24.976,37.108c-1.042-0.006-1.929-0.856-1.945-1.866
		c-0.017-1.036,0.958-1.957,2.034-1.92c0.988,0.033,1.912,0.991,1.876,1.944C26.902,36.283,26.016,37.113,24.976,37.108z
		 M24.968,34.337c-0.446,0.011-0.878,0.433-0.887,0.866c-0.01,0.486,0.469,0.924,0.974,0.89c0.503-0.033,0.787-0.371,0.768-0.916
		C25.805,34.641,25.482,34.325,24.968,34.337z"/>
	<path fill-rule="evenodd" clip-rule="evenodd" fill="#EAE9F1" d="M27.605,36.344c0.148-0.517,0.342-0.79,0.829-0.633
		c0.194,0.063,0.396,0.135,0.596,0.142c0.471,0.017,0.78-0.258,0.753-0.628c-0.021-0.296-0.471-0.648-0.824-0.603
		c-0.322,0.042-0.635,0.175-0.957,0.198c-0.11,0.008-0.268-0.18-0.339-0.313c-0.035-0.064,0.05-0.229,0.124-0.313
		c0.344-0.394,1.543-0.541,2.122-0.275c0.657,0.299,1.003,0.916,0.907,1.617c-0.113,0.838-1.148,1.496-2.113,1.285
		C28.317,36.736,27.965,36.505,27.605,36.344z"/>
	<path fill-rule="evenodd" clip-rule="evenodd" fill="#EFEEF4" d="M21.212,31.453c0.036-1.167,1.036-1.753,2.096-1.255
		c0.725,0.34,0.994,0.986,1.143,1.679c0.042,0.192-0.233,0.452-0.362,0.681c-0.19-0.133-0.431-0.23-0.556-0.409
		c-0.107-0.152-0.044-0.413-0.122-0.598c-0.176-0.42-0.837-0.687-0.989-0.402c-0.15,0.278-0.118,0.69-0.063,1.027
		c0.025,0.154,0.355,0.238,0.441,0.408c0.099,0.195,0.182,0.507,0.092,0.667c-0.188,0.332-0.533,0.145-0.742,0
		C21.535,32.823,21.199,32.221,21.212,31.453z"/>
	<path fill-rule="evenodd" clip-rule="evenodd" fill="#ECEBF2" d="M20.72,35.943c0.382-0.141,0.618-0.301,0.843-0.288
		c0.21,0.012,0.444,0.177,0.593,0.342c0.046,0.05-0.11,0.385-0.248,0.483c-0.763,0.54-1.69,0.461-2.41-0.169
		c-0.781-0.684-0.748-1.609,0.082-2.222c0.565-0.417,1.786-0.43,2.362-0.001c0.114,0.084,0.26,0.322,0.224,0.375
		c-0.106,0.154-0.282,0.297-0.459,0.355c-0.136,0.044-0.318-0.04-0.476-0.084c-0.118-0.032-0.225-0.12-0.343-0.132
		c-0.389-0.039-0.988,0.417-0.86,0.691C20.16,35.571,20.501,35.749,20.72,35.943z"/>
	<path fill-rule="evenodd" clip-rule="evenodd" fill="#ECECF2" d="M28.56,39.105c0.05,0.671-0.158,1.194-0.788,1.44
		c-0.598,0.233-1.121,0.069-1.613-0.352c-0.477-0.409-0.703-0.933-0.785-1.513c-0.024-0.172,0.183-0.473,0.36-0.554
		c0.238-0.11,0.454,0.027,0.534,0.346c0.08,0.311,0.203,0.625,0.377,0.893c0.174,0.269,0.508,0.4,0.745,0.141
		c0.159-0.172,0.263-0.548,0.183-0.75c-0.131-0.329-0.463-0.573-0.647-0.891c-0.073-0.127-0.044-0.416,0.055-0.514
		c0.099-0.099,0.394-0.133,0.515-0.057C28.166,37.713,28.643,38.268,28.56,39.105z"/>
	<path fill-rule="evenodd" clip-rule="evenodd" fill="#EFEEF5" d="M22.647,40.639c-0.909,0.007-1.672-0.932-1.357-1.809
		c0.188-0.521,0.615-0.966,0.978-1.409c0.153-0.188,0.473-0.305,0.625-0.021c0.096,0.179,0.062,0.495-0.034,0.689
		c-0.104,0.211-0.384,0.327-0.524,0.529c-0.237,0.342-0.101,0.825,0.245,0.959c0.375,0.144,0.674-0.009,0.838-0.34
		c0.106-0.216,0.054-0.518,0.176-0.716c0.111-0.181,0.351-0.361,0.553-0.387c0.348-0.042,0.346,0.272,0.349,0.527
		C24.506,39.711,23.645,40.632,22.647,40.639z"/>
	<path fill-rule="evenodd" clip-rule="evenodd" fill="#EFEEF5" d="M28.53,31.438c0.017,0.806-0.52,1.693-1.175,1.867
		c-0.163,0.043-0.406-0.043-0.543-0.154c-0.07-0.057-0.04-0.342,0.041-0.455c0.141-0.196,0.439-0.307,0.52-0.512
		c0.115-0.289,0.115-0.633,0.104-0.951c-0.002-0.066-0.262-0.156-0.412-0.179c-0.396-0.058-0.625,0.187-0.752,0.516
		c-0.071,0.188-0.005,0.45-0.111,0.598c-0.125,0.173-0.362,0.325-0.566,0.349c-0.1,0.011-0.314-0.277-0.34-0.451
		c-0.115-0.759,0.75-1.875,1.529-2.024C27.873,29.839,28.51,30.36,28.53,31.438z"/>
	<path fill-rule="evenodd" clip-rule="evenodd" fill="#1E1D52" d="M25.821,14.744c0.024,0.545-0.256,0.889-0.756,0.928
		c-0.507,0.039-0.996-0.396-0.993-0.882c0.003-0.422,0.445-0.86,0.884-0.875C25.469,13.896,25.798,14.211,25.821,14.744z"/>
	<path fill-rule="evenodd" clip-rule="evenodd" fill="#1E1D52" d="M24.968,34.337c0.514-0.012,0.836,0.304,0.854,0.84
		c0.02,0.545-0.265,0.883-0.768,0.916c-0.505,0.034-0.984-0.403-0.974-0.89C24.09,34.77,24.522,34.348,24.968,34.337z"/>
</g>
</svg>
