<?xml version="1.0" encoding="utf-8"?>
<!-- Generator: Adobe Illustrator 16.0.0, SVG Export Plug-In . SVG Version: 6.00 Build 0)  -->
<!DOCTYPE svg PUBLIC "-//W3C//DTD SVG 1.1//EN" "http://www.w3.org/Graphics/SVG/1.1/DTD/svg11.dtd">
<svg version="1.1" id="Layer_1" xmlns="http://www.w3.org/2000/svg" xmlns:xlink="http://www.w3.org/1999/xlink" x="0px" y="0px"
	 width="50px" height="50px" viewBox="0 0 50 50" enable-background="new 0 0 50 50" xml:space="preserve">
<g>
	<path fill-rule="evenodd" clip-rule="evenodd" fill="#206936" d="M36.725,4.012c0.901,0.256,1.865,0.42,2.732,0.803
		c1.122,0.495,1.201,1.739,0.262,2.577c-0.882,0.787-0.942,0.936-0.014,1.624c1.039,0.77,1.093,2.355-0.044,3.032
		c-0.451,0.269-0.559,0.631-0.609,1.138c-0.061,0.597,0.394,0.681,0.69,0.905c0.571,0.43,0.913,0.963,0.695,1.663
		c-0.201,0.649-0.69,1.077-1.392,1.185c-0.356,0.055-0.719,0.091-1.079,0.095c-0.825,0.01-1.651,0.007-2.477-0.015
		c-0.451-0.012-0.922-0.004-1.346-0.132c-0.594-0.18-1.05-0.595-1.195-1.231c-0.154-0.675,0.164-1.199,0.718-1.517
		c0.499-0.286,0.718-0.61,0.674-1.201c-0.032-0.441-0.254-0.656-0.572-0.868c-1.161-0.778-1.176-2.221,0.034-3.12
		c0.75-0.558,0.72-0.892,0.046-1.477c-1.307-1.136-1.089-2.28,0.562-2.828C35.145,4.399,35.904,4.233,36.725,4.012z M37.391,7.315
		c0-0.414-0.008-0.827,0.002-1.241c0.012-0.476-0.144-0.82-0.675-0.836c-0.527-0.017-0.726,0.292-0.723,0.786
		c0.006,0.781,0.021,1.563-0.005,2.343c-0.016,0.495,0.125,0.799,0.673,0.8c0.507,0.001,0.764-0.216,0.731-0.75
		C37.372,8.051,37.391,7.682,37.391,7.315z M37.39,13.687c0-0.417,0.005-0.834-0.001-1.252c-0.008-0.522-0.384-0.57-0.771-0.565
		c-0.36,0.005-0.626,0.133-0.622,0.567c0.008,0.788,0.023,1.577-0.008,2.364c-0.021,0.524,0.178,0.791,0.7,0.787
		c0.514-0.004,0.749-0.26,0.708-0.788C37.368,14.43,37.392,14.057,37.39,13.687z M36.755,9.742
		c-0.347,0.277-0.714,0.424-0.759,0.639c-0.088,0.418,0.218,0.68,0.656,0.692c0.42,0.013,0.773-0.175,0.725-0.621
		C37.353,10.233,37.034,10.046,36.755,9.742z"/>
	<path fill-rule="evenodd" clip-rule="evenodd" fill="#206936" d="M36.726,19.049c0.901,0.256,1.864,0.422,2.732,0.805
		c1.123,0.496,1.203,1.738,0.262,2.576c-0.883,0.786-0.943,0.935-0.016,1.623c1.046,0.776,1.088,2.362-0.043,3.032
		c-0.453,0.269-0.557,0.632-0.609,1.137c-0.063,0.599,0.393,0.682,0.689,0.905c0.572,0.43,0.914,0.962,0.696,1.663
		c-0.201,0.65-0.689,1.084-1.391,1.183c-0.399,0.056-0.808,0.052-1.212,0.06c-0.781,0.016-1.563,0.036-2.344,0.023
		c-0.451-0.007-0.922-0.004-1.346-0.132c-0.595-0.18-1.05-0.595-1.196-1.23c-0.155-0.675,0.164-1.201,0.718-1.519
		c0.501-0.286,0.718-0.609,0.674-1.2c-0.032-0.44-0.254-0.653-0.571-0.869c-1.182-0.801-1.158-2.236,0.032-3.12
		c0.752-0.558,0.721-0.892,0.047-1.477c-1.307-1.134-1.088-2.282,0.562-2.828C35.145,19.438,35.904,19.271,36.726,19.049z
		 M37.391,22.356c0-0.414-0.008-0.828,0.002-1.241c0.012-0.475-0.141-0.823-0.672-0.84c-0.521-0.017-0.728,0.29-0.725,0.782
		c0.005,0.827,0.018,1.655-0.003,2.481c-0.013,0.486,0.237,0.66,0.666,0.662c0.402,0.001,0.734-0.102,0.73-0.604
		C37.387,23.183,37.389,22.77,37.391,22.356z M35.998,28.738c0,0.417,0.015,0.835-0.004,1.251c-0.023,0.514,0.304,0.637,0.705,0.632
		c0.406-0.004,0.708-0.152,0.696-0.655c-0.02-0.787-0.023-1.576,0.001-2.363c0.018-0.581-0.313-0.706-0.789-0.696
		c-0.476,0.01-0.639,0.271-0.614,0.72C36.013,27.995,35.997,28.367,35.998,28.738z M36.688,26.123
		c0.356-0.028,0.692-0.161,0.71-0.625c0.016-0.439-0.306-0.504-0.66-0.503c-0.329,0.001-0.704-0.021-0.755,0.406
		C35.929,25.842,36.209,26.07,36.688,26.123z"/>
	<path fill-rule="evenodd" clip-rule="evenodd" fill="#1F6936" d="M36.713,46.751c-0.556,0-1.112,0.025-1.666-0.009
		c-0.359-0.022-0.728-0.09-1.068-0.206c-1.17-0.402-1.491-1.873-0.385-2.608c0.425-0.282,0.853-0.508,0.748-1.168
		c-0.061-0.384-0.113-0.65-0.473-0.897c-0.364-0.25-0.748-0.628-0.878-1.029c-0.242-0.745-0.015-1.416,0.628-1.973
		c0.982-0.851,0.957-0.924,0.076-1.769c-1.05-1.006-0.837-2.066,0.537-2.667c1.643-0.718,3.285-0.726,4.93-0.002
		c1.378,0.605,1.593,1.651,0.543,2.666c-0.886,0.856-0.883,0.912,0.086,1.769c0.979,0.866,0.976,1.93-0.011,2.838
		c-0.229,0.21-0.598,0.394-0.651,0.644c-0.109,0.519-0.172,1.038,0.479,1.431c0.835,0.503,1.103,1.213,0.813,1.843
		c-0.332,0.721-0.946,1.115-1.764,1.126c-0.648,0.008-1.296,0.002-1.944,0.002C36.713,46.743,36.713,46.747,36.713,46.751z
		 M36.002,36.862c0.001,0,0.002,0,0.002,0c0,0.509-0.068,1.03,0.031,1.519c0.044,0.217,0.427,0.506,0.655,0.506
		c0.232-0.002,0.647-0.305,0.663-0.5c0.071-0.919,0.048-1.846,0.026-2.77c-0.011-0.467-0.331-0.616-0.758-0.598
		c-0.386,0.016-0.604,0.211-0.617,0.596C35.991,36.03,36.002,36.447,36.002,36.862z M36.001,43.354c0,0.459-0.011,0.919,0.004,1.377
		c0.013,0.38,0.229,0.579,0.61,0.6c0.426,0.022,0.751-0.127,0.765-0.586c0.025-0.872,0.013-1.746,0.003-2.619
		c-0.005-0.498-0.432-0.624-0.76-0.591c-0.225,0.022-0.534,0.344-0.596,0.585C35.928,42.508,36,42.94,36.001,43.354z M36.71,39.536
		c-0.312,0.242-0.632,0.369-0.723,0.59c-0.144,0.344,0.328,0.764,0.758,0.703c0.38-0.054,0.742-0.25,0.646-0.682
		C37.343,39.935,37.003,39.787,36.71,39.536z"/>
	<path fill-rule="evenodd" clip-rule="evenodd" fill="#216936" d="M17.103,21.284c0.071,0.483-0.3,0.818-0.681,1.177
		c-0.691,0.65-0.664,0.957,0.072,1.597c1.161,1.011,1.165,1.989,0.012,3.018c-0.793,0.709-0.787,1.375,0.033,2.04
		c0.486,0.393,0.928,0.829,0.778,1.509c-0.15,0.678-0.63,1.241-1.289,1.302c-1.671,0.153-3.363,0.199-5.033-0.001
		c-0.661-0.079-1.149-0.597-1.246-1.316c-0.085-0.641,0.183-1.098,0.733-1.492c0.798-0.572,0.804-1.405,0.021-2.004
		c-1.016-0.777-1.181-2.116-0.021-3.021c0.78-0.609,0.801-0.997,0.022-1.61c-1.185-0.935-0.706-2.275,0.568-2.789
		c1.623-0.654,3.2-0.663,4.809-0.003C16.57,19.972,17.08,20.365,17.103,21.284z M14.262,22.242c0-0.37,0.022-0.742-0.005-1.109
		c-0.048-0.641-0.298-0.886-0.821-0.875c-0.529,0.012-0.739,0.346-0.753,0.806c-0.024,0.785-0.02,1.571,0,2.356
		c0.011,0.464,0.207,0.794,0.746,0.793c0.55-0.001,0.78-0.218,0.829-0.863C14.284,22.982,14.262,22.611,14.262,22.242z
		 M12.711,28.667c-0.006,0-0.012,0-0.018,0c0,0.46-0.039,0.924,0.011,1.377c0.046,0.427,0.404,0.666,0.781,0.617
		c0.259-0.033,0.675-0.311,0.692-0.507c0.079-0.909,0.086-1.833,0.017-2.743c-0.016-0.213-0.412-0.529-0.664-0.562
		c-0.349-0.046-0.757,0.131-0.808,0.582C12.675,27.839,12.711,28.255,12.711,28.667z M14.274,25.532
		c-0.162-0.536-0.578-0.623-0.982-0.51c-0.244,0.068-0.425,0.362-0.635,0.555c0.281,0.18,0.543,0.454,0.848,0.516
		C13.884,26.169,14.184,25.926,14.274,25.532z"/>
	<path fill-rule="evenodd" clip-rule="evenodd" fill="#216936" d="M13.477,3.997c0.908,0.261,1.869,0.428,2.732,0.813
		c1.087,0.486,1.199,1.632,0.35,2.489c-0.097,0.098-0.235,0.155-0.327,0.255c-0.44,0.477-0.401,0.915,0.113,1.356
		c0.105,0.09,0.226,0.164,0.326,0.259c0.932,0.891,0.92,1.838-0.03,2.742c-0.966,0.918-0.995,1.438-0.023,2.212
		c1.323,1.055,0.646,2.506-0.549,2.734c-1.645,0.314-3.354,0.177-5.024,0.035c-0.647-0.055-1.153-0.577-1.285-1.282
		c-0.12-0.645,0.148-1.107,0.687-1.511c0.848-0.635,0.826-1.371-0.015-2.088c-1.071-0.915-0.974-2.105,0.016-2.932
		c0.829-0.692,0.801-0.91-0.001-1.714c-0.939-0.942-0.839-2.043,0.341-2.577C11.608,4.416,12.529,4.266,13.477,3.997z M14.261,7.271
		c0-0.416,0.015-0.833-0.003-1.248c-0.021-0.473-0.241-0.778-0.756-0.801c-0.52-0.023-0.791,0.267-0.811,0.738
		c-0.034,0.83-0.032,1.664-0.002,2.495c0.017,0.483,0.291,0.752,0.812,0.723c0.512-0.029,0.743-0.313,0.758-0.797
		C14.27,8.01,14.26,7.64,14.261,7.271z M14.257,13.848c0,0,0.001,0,0.002,0c0-0.415,0.015-0.829-0.004-1.242
		c-0.022-0.473-0.293-0.795-0.757-0.8c-0.451-0.005-0.8,0.253-0.813,0.756c-0.021,0.782-0.029,1.565,0.004,2.346
		c0.021,0.492,0.403,0.79,0.828,0.718c0.277-0.047,0.602-0.397,0.712-0.685C14.353,14.621,14.257,14.216,14.257,13.848z
		 M13.339,11.152c0.524-0.143,0.948-0.222,0.906-0.684c-0.039-0.436-0.423-0.521-0.823-0.512c-0.409,0.009-0.798,0.158-0.725,0.579
		C12.741,10.789,13.148,10.981,13.339,11.152z"/>
	<path fill-rule="evenodd" clip-rule="evenodd" fill="#ED5958" d="M25.226,4.016c0.875,0.258,1.793,0.419,2.613,0.797
		c1.117,0.515,1.23,1.586,0.376,2.481c-0.064,0.067-0.143,0.12-0.206,0.187c-0.597,0.629-0.572,0.917,0.124,1.526
		c1.17,1.022,1.182,2.004,0.036,3.021c-0.801,0.712-0.799,1.352,0.047,2.052c0.492,0.407,0.881,0.889,0.74,1.529
		c-0.16,0.729-0.7,1.18-1.448,1.311c-0.353,0.062-0.717,0.068-1.075,0.074c-0.875,0.014-1.753,0.052-2.625,0.004
		c-0.529-0.029-1.096-0.104-1.564-0.329c-1.059-0.508-1.204-1.742-0.273-2.439c0.443-0.333,0.731-0.594,0.733-1.192
		c0.002-0.545-0.275-0.781-0.644-1.088c-0.978-0.812-1.105-1.917,0.076-2.925c0.756-0.646,0.751-0.898,0.054-1.618
		c-1.082-1.118-0.843-2.217,0.608-2.735c0.561-0.2,1.133-0.376,1.709-0.526c0.217-0.057,0.46-0.009,0.692-0.009
		C25.207,4.096,25.216,4.056,25.226,4.016z M25.949,7.18c-0.001,0-0.002,0-0.002,0c0-0.414,0.027-0.83-0.007-1.24
		c-0.04-0.482-0.323-0.723-0.825-0.715c-0.507,0.008-0.777,0.264-0.789,0.75c-0.021,0.827-0.023,1.655,0.002,2.482
		c0.015,0.501,0.337,0.724,0.823,0.717c0.493-0.007,0.773-0.258,0.794-0.752C25.963,8.008,25.949,7.593,25.949,7.18z M24.317,13.6
		c0,0.418-0.099,0.869,0.029,1.243c0.118,0.343,0.481,0.601,0.736,0.896c0.29-0.26,0.787-0.491,0.828-0.786
		c0.114-0.819,0.102-1.672,0.004-2.495c-0.033-0.276-0.522-0.739-0.717-0.699c-0.329,0.068-0.695,0.418-0.848,0.743
		C24.206,12.805,24.318,13.229,24.317,13.6z M25.128,9.962c-0.405-0.012-0.792,0.099-0.784,0.557
		c0.008,0.445,0.395,0.56,0.797,0.558c0.405-0.001,0.785-0.133,0.784-0.575C25.924,10.044,25.528,9.949,25.128,9.962z"/>
	<path fill-rule="evenodd" clip-rule="evenodd" fill="#ED5958" d="M25.487,19.131c0.598,0.175,1.517,0.337,2.338,0.712
		c1.125,0.514,1.25,1.584,0.397,2.479c-0.095,0.1-0.225,0.167-0.316,0.269c-0.457,0.512-0.424,0.903,0.104,1.366
		c1.331,1.166,1.347,2.057,0.054,3.186c-0.645,0.563-0.649,1.424-0.013,1.949c0.937,0.773,1.09,1.119,0.797,1.794
		c-0.339,0.778-1.314,1.274-2.262,1.219c-0.917-0.054-1.837-0.029-2.755-0.066c-0.448-0.019-0.92-0.022-1.336-0.166
		c-1.254-0.433-1.521-1.931-0.452-2.694c0.934-0.668,0.896-1.361,0.02-2.162c-1.077-0.982-1.047-1.911,0.093-2.889
		c0.726-0.623,0.735-0.956,0.047-1.667c-1.132-1.17-0.858-2.242,0.711-2.772c0.521-0.176,1.043-0.356,1.574-0.5
		C24.706,19.126,24.949,19.156,25.487,19.131z M25.947,22.262c0,0,0.001,0,0.002,0c0-0.414,0.018-0.828-0.005-1.24
		c-0.026-0.48-0.277-0.75-0.785-0.76c-0.495-0.01-0.81,0.215-0.83,0.705c-0.032,0.826-0.02,1.654-0.008,2.481
		c0.007,0.499,0.292,0.75,0.783,0.763c0.486,0.013,0.798-0.212,0.835-0.708C25.971,23.091,25.947,22.676,25.947,22.262z
		 M24.318,28.678c0,0.417-0.026,0.837,0.007,1.252c0.037,0.475,0.4,0.851,0.79,0.8c0.307-0.041,0.752-0.472,0.798-0.779
		c0.115-0.771,0.114-1.582,0.002-2.354c-0.046-0.314-0.5-0.569-0.767-0.851c-0.277,0.273-0.654,0.501-0.801,0.832
		C24.21,27.888,24.317,28.307,24.318,28.678z M25.962,25.532c-0.17-0.546-0.597-0.618-1.001-0.504
		c-0.244,0.069-0.603,0.375-0.596,0.563c0.015,0.43,0.416,0.532,0.815,0.523C25.597,26.105,25.866,25.922,25.962,25.532z"/>
	<path fill-rule="evenodd" clip-rule="evenodd" fill="#216A36" d="M13.538,46.723c-0.74,0-1.485,0.06-2.218-0.014
		c-1.154-0.115-1.88-1.18-1.473-2.134c0.134-0.314,0.432-0.577,0.7-0.812c0.606-0.529,0.68-1.312,0.133-1.859
		c-0.096-0.098-0.233-0.153-0.332-0.249c-0.974-0.95-0.949-1.934,0.068-2.845c0.83-0.743,0.839-0.949,0.071-1.668
		c-1.012-0.949-0.892-2.074,0.374-2.658c1.806-0.834,3.659-0.781,5.443,0.085c0.976,0.473,1.084,1.654,0.303,2.436
		c-0.065,0.065-0.141,0.119-0.209,0.183c-0.625,0.576-0.628,0.952-0.013,1.505c1.314,1.181,1.314,2.068-0.002,3.175
		c-0.64,0.538-0.622,1.325,0.04,1.87c0.543,0.447,1.103,0.896,0.859,1.729c-0.224,0.76-0.951,1.239-1.94,1.275
		c-0.6,0.021-1.202,0.004-1.804,0.004C13.538,46.737,13.538,46.73,13.538,46.723z M12.688,36.871c0.005,0,0.01,0,0.015,0
		c0,0.508-0.071,1.03,0.032,1.517c0.046,0.22,0.413,0.447,0.678,0.528c0.417,0.126,0.787-0.136,0.814-0.535
		c0.063-0.921,0.055-1.85,0.009-2.772c-0.02-0.409-0.331-0.606-0.777-0.611c-0.461-0.006-0.708,0.222-0.759,0.627
		C12.648,36.033,12.688,36.455,12.688,36.871z M14.254,43.427c0.002,0,0.005,0,0.007,0c0-0.323-0.022-0.648,0.005-0.97
		c0.048-0.581-0.299-0.856-0.779-0.962c-0.371-0.082-0.775,0.386-0.802,0.948c-0.036,0.737-0.029,1.479,0.008,2.216
		c0.02,0.396,0.226,0.672,0.698,0.692c0.508,0.021,0.807-0.188,0.855-0.679C14.286,44.262,14.254,43.843,14.254,43.427z
		 M13.243,39.699c-0.123,0.114-0.357,0.334-0.593,0.555c0.272,0.196,0.544,0.545,0.818,0.547c0.267,0.001,0.721-0.319,0.764-0.559
		C14.321,39.749,13.84,39.744,13.243,39.699z"/>
	<path fill-rule="evenodd" clip-rule="evenodd" fill="#ED5958" d="M25.135,46.728c-0.648-0.001-1.3,0.037-1.945-0.016
		c-0.349-0.028-0.741-0.134-1.018-0.337c-0.908-0.665-1.211-1.576-0.124-2.504c0.902-0.77,0.897-1.351,0.021-2.182
		c-1.071-1.015-1.046-1.917,0.08-2.916c0.751-0.666,0.744-0.955-0.04-1.679c-0.934-0.862-0.793-2.013,0.368-2.568
		c1.708-0.816,3.455-0.844,5.189-0.063c1.315,0.593,1.478,1.739,0.403,2.707c-0.631,0.568-0.674,1.023-0.046,1.504
		c1.342,1.027,1.258,2.308,0.004,3.155c-0.676,0.456-0.605,1.396,0.065,1.924c0.57,0.45,1.082,0.964,0.801,1.73
		c-0.29,0.791-0.931,1.237-1.813,1.243C26.433,46.731,25.784,46.729,25.135,46.728z M25.949,36.94c0,0,0.001,0,0.002,0
		c0-0.367,0.023-0.737-0.005-1.104c-0.05-0.631-0.29-0.847-0.841-0.837c-0.504,0.009-0.773,0.267-0.781,0.759
		c-0.014,0.827-0.023,1.656,0.007,2.483c0.019,0.497,0.336,0.704,0.833,0.696c0.516-0.008,0.758-0.275,0.782-0.757
		C25.965,37.77,25.949,37.354,25.949,36.94z M25.95,43.597c0-0.413,0.098-0.858-0.028-1.229c-0.116-0.342-0.419-0.687-0.734-0.876
		c-0.275-0.166-0.832,0.383-0.859,0.865c-0.04,0.73-0.04,1.468-0.003,2.198c0.031,0.599,0.319,0.813,0.876,0.793
		c0.519-0.02,0.727-0.318,0.746-0.79C25.961,44.238,25.951,43.917,25.95,43.597z M25.116,39.393
		c-0.337,0.339-0.682,0.538-0.782,0.823c-0.12,0.34,0.392,0.741,0.848,0.622c0.294-0.076,0.526-0.392,0.786-0.6
		C25.707,39.979,25.446,39.721,25.116,39.393z"/>
	<path fill-rule="evenodd" clip-rule="evenodd" fill="#FAFDFA" d="M37.391,7.315c0,0.367-0.019,0.736,0.004,1.102
		c0.032,0.534-0.225,0.751-0.731,0.75c-0.548-0.001-0.688-0.305-0.673-0.8c0.025-0.78,0.011-1.562,0.005-2.343
		c-0.003-0.493,0.195-0.802,0.723-0.786c0.531,0.017,0.687,0.36,0.675,0.836C37.383,6.488,37.391,6.901,37.391,7.315z"/>
	<path fill-rule="evenodd" clip-rule="evenodd" fill="#F8FBF8" d="M37.391,13.687c0.001,0.371-0.022,0.743,0.006,1.112
		c0.041,0.528-0.194,0.784-0.708,0.788c-0.522,0.004-0.722-0.262-0.7-0.787c0.031-0.787,0.016-1.576,0.008-2.364
		c-0.004-0.434,0.262-0.562,0.622-0.567c0.387-0.005,0.763,0.043,0.771,0.565C37.395,12.852,37.39,13.269,37.391,13.687z"/>
	<path fill-rule="evenodd" clip-rule="evenodd" fill="#F0F7EF" d="M36.755,9.742c0.279,0.304,0.598,0.491,0.622,0.71
		c0.049,0.446-0.305,0.634-0.725,0.621c-0.438-0.012-0.744-0.273-0.656-0.692C36.041,10.166,36.408,10.019,36.755,9.742z"/>
	<path fill-rule="evenodd" clip-rule="evenodd" fill="#FAFDFA" d="M37.39,22.356c-0.001,0.414-0.003,0.827,0,1.241
		c0.004,0.502-0.328,0.605-0.73,0.604c-0.429-0.002-0.679-0.176-0.666-0.662c0.021-0.826,0.008-1.654,0.003-2.481
		c-0.003-0.493,0.204-0.799,0.725-0.782c0.531,0.017,0.684,0.365,0.672,0.84C37.383,21.528,37.391,21.942,37.39,22.356z"/>
	<path fill-rule="evenodd" clip-rule="evenodd" fill="#F8FBF8" d="M35.997,28.738c0-0.371,0.016-0.743-0.004-1.112
		c-0.024-0.449,0.139-0.71,0.614-0.72c0.477-0.01,0.807,0.115,0.789,0.696c-0.024,0.787-0.021,1.576-0.001,2.363
		c0.012,0.503-0.29,0.651-0.696,0.655c-0.401,0.005-0.729-0.118-0.705-0.632C36.013,29.573,35.998,29.155,35.997,28.738z"/>
	<path fill-rule="evenodd" clip-rule="evenodd" fill="#F0F7EF" d="M36.688,26.123c-0.479-0.053-0.759-0.281-0.705-0.722
		c0.051-0.426,0.426-0.404,0.755-0.406c0.354-0.001,0.676,0.063,0.66,0.503C37.38,25.962,37.044,26.095,36.688,26.123z"/>
	<path fill-rule="evenodd" clip-rule="evenodd" fill="#FCFDFB" d="M36.002,36.862c0-0.415-0.011-0.832,0.003-1.247
		c0.014-0.385,0.231-0.58,0.617-0.596c0.427-0.019,0.747,0.131,0.758,0.598c0.021,0.924,0.045,1.851-0.026,2.77
		c-0.016,0.195-0.431,0.498-0.663,0.5c-0.229,0-0.611-0.289-0.655-0.506c-0.1-0.488-0.031-1.01-0.031-1.519
		C36.004,36.862,36.003,36.862,36.002,36.862z"/>
	<path fill-rule="evenodd" clip-rule="evenodd" fill="#F9FCF9" d="M36.001,43.354C36,42.94,35.928,42.508,36.027,42.12
		c0.062-0.241,0.371-0.563,0.596-0.585c0.328-0.033,0.755,0.093,0.76,0.591c0.01,0.873,0.022,1.747-0.003,2.619
		c-0.014,0.459-0.339,0.608-0.765,0.586c-0.382-0.021-0.598-0.22-0.61-0.6C35.99,44.273,36.001,43.813,36.001,43.354z"/>
	<path fill-rule="evenodd" clip-rule="evenodd" fill="#EDF6EC" d="M36.71,39.536c0.293,0.251,0.633,0.398,0.681,0.611
		c0.097,0.432-0.266,0.628-0.646,0.682c-0.43,0.061-0.901-0.359-0.758-0.703C36.078,39.905,36.398,39.778,36.71,39.536z"/>
	<path fill-rule="evenodd" clip-rule="evenodd" fill="#E2EEE0" d="M14.262,22.242c0,0.369,0.022,0.741-0.005,1.108
		c-0.049,0.646-0.279,0.862-0.829,0.863c-0.539,0.001-0.735-0.329-0.746-0.793c-0.02-0.785-0.024-1.572,0-2.356
		c0.014-0.46,0.224-0.794,0.753-0.806c0.523-0.012,0.773,0.233,0.821,0.875C14.284,21.5,14.262,21.872,14.262,22.242z"/>
	<path fill-rule="evenodd" clip-rule="evenodd" fill="#E3EFE1" d="M12.711,28.667c0-0.412-0.036-0.828,0.01-1.235
		c0.051-0.451,0.459-0.628,0.808-0.582c0.252,0.032,0.648,0.349,0.664,0.562c0.069,0.91,0.063,1.834-0.017,2.743
		c-0.017,0.196-0.433,0.474-0.692,0.507c-0.377,0.049-0.734-0.19-0.781-0.617c-0.049-0.453-0.011-0.917-0.011-1.377
		C12.699,28.667,12.705,28.667,12.711,28.667z"/>
	<path fill-rule="evenodd" clip-rule="evenodd" fill="#EFF7EE" d="M14.274,25.532c-0.091,0.394-0.39,0.637-0.77,0.561
		c-0.305-0.062-0.567-0.335-0.848-0.516c0.209-0.192,0.391-0.486,0.635-0.555C13.696,24.909,14.112,24.996,14.274,25.532z"/>
	<path fill-rule="evenodd" clip-rule="evenodd" fill="#E2EEE0" d="M14.261,7.271c0,0.37,0.009,0.74-0.002,1.109
		c-0.016,0.484-0.246,0.768-0.758,0.797c-0.521,0.029-0.795-0.24-0.812-0.723c-0.029-0.831-0.032-1.665,0.002-2.495
		c0.02-0.472,0.292-0.761,0.811-0.738c0.516,0.023,0.735,0.329,0.756,0.801C14.276,6.438,14.261,6.854,14.261,7.271z"/>
	<path fill-rule="evenodd" clip-rule="evenodd" fill="#E3EFE1" d="M14.257,13.848c0,0.368,0.095,0.773-0.028,1.094
		c-0.111,0.288-0.436,0.638-0.712,0.685c-0.425,0.072-0.807-0.226-0.828-0.718c-0.033-0.781-0.024-1.564-0.004-2.346
		c0.013-0.503,0.362-0.762,0.813-0.756c0.464,0.005,0.735,0.327,0.757,0.8c0.019,0.413,0.004,0.828,0.004,1.242
		C14.259,13.848,14.258,13.848,14.257,13.848z"/>
	<path fill-rule="evenodd" clip-rule="evenodd" fill="#EEF7ED" d="M13.339,11.152c-0.19-0.171-0.598-0.363-0.642-0.618
		c-0.073-0.42,0.316-0.57,0.725-0.579c0.4-0.009,0.784,0.077,0.823,0.512C14.287,10.931,13.863,11.01,13.339,11.152z"/>
	<path fill-rule="evenodd" clip-rule="evenodd" fill="#FEEDEB" d="M25.949,7.18c0,0.414,0.014,0.828-0.004,1.241
		c-0.021,0.495-0.302,0.746-0.794,0.752c-0.486,0.007-0.808-0.216-0.823-0.717c-0.025-0.827-0.023-1.655-0.002-2.482
		c0.012-0.486,0.282-0.742,0.789-0.75c0.502-0.008,0.785,0.233,0.825,0.715c0.035,0.411,0.007,0.827,0.007,1.24
		C25.947,7.18,25.948,7.18,25.949,7.18z"/>
	<path fill-rule="evenodd" clip-rule="evenodd" fill="#FEEAE8" d="M24.318,13.6c0-0.371-0.112-0.795,0.031-1.099
		c0.153-0.325,0.519-0.675,0.848-0.743c0.194-0.041,0.684,0.423,0.717,0.699c0.098,0.823,0.11,1.676-0.004,2.495
		c-0.041,0.295-0.539,0.526-0.828,0.786c-0.255-0.295-0.618-0.553-0.736-0.896C24.218,14.469,24.317,14.018,24.318,13.6z"/>
	<path fill-rule="evenodd" clip-rule="evenodd" fill="#FFF7F7" d="M25.128,9.961c0.4-0.013,0.796,0.083,0.797,0.54
		c0.001,0.442-0.378,0.574-0.784,0.575c-0.402,0.002-0.789-0.113-0.797-0.558C24.336,10.061,24.724,9.95,25.128,9.961z"/>
	<path fill-rule="evenodd" clip-rule="evenodd" fill="#FEEDEB" d="M25.947,22.262c0,0.414,0.024,0.829-0.006,1.24
		c-0.037,0.497-0.349,0.722-0.835,0.708c-0.492-0.014-0.776-0.265-0.783-0.763c-0.012-0.827-0.024-1.655,0.008-2.481
		c0.02-0.49,0.334-0.715,0.83-0.705c0.508,0.01,0.759,0.28,0.785,0.76c0.022,0.412,0.005,0.827,0.005,1.24
		C25.949,22.262,25.948,22.262,25.947,22.262z"/>
	<path fill-rule="evenodd" clip-rule="evenodd" fill="#FEEAE8" d="M24.318,28.678c0-0.371-0.108-0.79,0.029-1.101
		c0.146-0.331,0.524-0.559,0.801-0.832c0.268,0.281,0.721,0.536,0.767,0.851c0.112,0.772,0.113,1.583-0.002,2.354
		c-0.046,0.308-0.491,0.738-0.798,0.779c-0.39,0.051-0.753-0.325-0.79-0.8C24.292,29.515,24.318,29.095,24.318,28.678z"/>
	<path fill-rule="evenodd" clip-rule="evenodd" fill="#FFF8F7" d="M25.962,25.532c-0.096,0.39-0.365,0.573-0.782,0.582
		c-0.399,0.009-0.8-0.093-0.815-0.523c-0.007-0.188,0.352-0.494,0.596-0.563C25.365,24.915,25.792,24.986,25.962,25.532z"/>
	<path fill-rule="evenodd" clip-rule="evenodd" fill="#E4EFE2" d="M12.688,36.871c0-0.416-0.04-0.838,0.011-1.247
		c0.05-0.405,0.297-0.633,0.759-0.627c0.446,0.005,0.757,0.202,0.777,0.611c0.046,0.923,0.054,1.852-0.009,2.772
		c-0.027,0.399-0.397,0.661-0.814,0.535c-0.265-0.081-0.631-0.309-0.678-0.528c-0.103-0.486-0.032-1.009-0.032-1.517
		C12.698,36.871,12.693,36.871,12.688,36.871z"/>
	<path fill-rule="evenodd" clip-rule="evenodd" fill="#E3EFE0" d="M14.254,43.427c0,0.416,0.032,0.835-0.008,1.246
		c-0.048,0.49-0.347,0.7-0.855,0.679c-0.472-0.021-0.678-0.296-0.698-0.692c-0.037-0.737-0.044-1.479-0.008-2.216
		c0.027-0.563,0.432-1.03,0.802-0.948c0.479,0.105,0.827,0.381,0.779,0.962c-0.027,0.321-0.005,0.646-0.005,0.97
		C14.259,43.427,14.256,43.427,14.254,43.427z"/>
	<path fill-rule="evenodd" clip-rule="evenodd" fill="#E6F0E3" d="M13.243,39.699c0.597,0.045,1.078,0.05,0.989,0.543
		c-0.043,0.239-0.497,0.56-0.764,0.559c-0.273-0.002-0.545-0.351-0.818-0.547C12.886,40.033,13.121,39.813,13.243,39.699z"/>
	<path fill-rule="evenodd" clip-rule="evenodd" fill="#FEEEEC" d="M25.949,36.94c0,0.414,0.016,0.829-0.004,1.241
		c-0.024,0.481-0.266,0.749-0.782,0.757c-0.496,0.008-0.814-0.199-0.833-0.696c-0.03-0.827-0.021-1.656-0.007-2.483
		c0.008-0.492,0.277-0.75,0.781-0.759c0.552-0.01,0.792,0.206,0.841,0.837c0.029,0.366,0.005,0.736,0.005,1.104
		C25.95,36.94,25.95,36.94,25.949,36.94z"/>
	<path fill-rule="evenodd" clip-rule="evenodd" fill="#FEEDEC" d="M25.951,43.597c0,0.32,0.011,0.642-0.002,0.962
		c-0.02,0.472-0.227,0.771-0.746,0.79c-0.557,0.02-0.845-0.194-0.876-0.793c-0.037-0.73-0.037-1.468,0.003-2.198
		c0.027-0.482,0.583-1.031,0.859-0.865c0.314,0.189,0.618,0.534,0.734,0.876C26.048,42.738,25.95,43.184,25.951,43.597z"/>
	<path fill-rule="evenodd" clip-rule="evenodd" fill="#FDE8E6" d="M25.116,39.393c0.33,0.328,0.59,0.587,0.851,0.846
		c-0.26,0.208-0.492,0.523-0.786,0.6c-0.456,0.119-0.968-0.282-0.848-0.622C24.435,39.931,24.779,39.731,25.116,39.393z"/>
</g>
</svg>
