<?xml version="1.0" encoding="utf-8"?>
<!-- Generator: Adobe Illustrator 16.0.0, SVG Export Plug-In . SVG Version: 6.00 Build 0)  -->
<!DOCTYPE svg PUBLIC "-//W3C//DTD SVG 1.1//EN" "http://www.w3.org/Graphics/SVG/1.1/DTD/svg11.dtd">
<svg version="1.1" id="Layer_1" xmlns="http://www.w3.org/2000/svg" xmlns:xlink="http://www.w3.org/1999/xlink" x="0px" y="0px"
	 width="50px" height="50px" viewBox="0 0 50 50" enable-background="new 0 0 50 50" xml:space="preserve">
<g>
	<path fill-rule="evenodd" clip-rule="evenodd" fill="#EC5856" d="M17.151,41.071c-0.399-1.289-0.708-2.271-1.006-3.256
		c-0.1-0.33-0.273-0.682-0.227-0.997c0.043-0.301,0.273-0.654,0.528-0.813c0.147-0.091,0.601,0.085,0.75,0.272
		c0.298,0.377,0.525,0.826,0.706,1.276c0.456,1.137,0.869,2.291,1.255,3.319c1.034-0.055,1.922-0.096,2.811-0.147
		c0.932-0.056,1-0.124,1.038-1.063c0.016-0.39,0.002-0.782,0.002-1.354c-0.724,0.123-1.331,0.227-2.011,0.343
		c-0.033,0.359-0.015,0.711-0.113,1.025c-0.057,0.184-0.309,0.445-0.454,0.434c-0.241-0.02-0.56-0.177-0.674-0.375
		c-0.164-0.287-0.208-0.658-0.248-1c-0.249-2.164-0.523-4.326-0.705-6.496c-0.105-1.264,0.078-1.446,1.282-1.42
		c3.15,0.065,6.196-0.548,9.222-1.317c0.095-0.024,0.179-0.099,0.273-0.118c2.416-0.514,2.791-0.217,2.71,2.212
		c-0.083,2.436-0.19,4.87-0.284,7.305c-0.009,0.242-0.002,0.486-0.002,0.86c0.367-0.027,0.647-0.013,0.91-0.073
		c1.251-0.29,2.485-0.047,3.679,0.235c1.515,0.357,2.483,2.637,1.837,4.148c-0.479,1.12-1.056,2.033-2.543,2.146
		c-1.405,0.109-2.779,0.619-4.17,0.935c-2.425,0.55-4.636,0.037-6.578-1.481c-0.475-0.371-0.791-0.319-1.3-0.167
		c-0.696,0.206-1.446,0.264-2.178,0.313c-0.597,0.039-1.118-0.05-1.409,0.734c-0.25,0.672-0.523,0.599-1.144,0.095
		c-0.803-0.653-1.047-1.577-1.167-2.491c-0.107-0.824-0.522-1.062-1.231-1.189c-1.161-0.209-2.312-0.479-3.463-0.742
		c-0.285-0.064-0.613-0.139-0.814-0.324c-0.228-0.209-0.476-0.555-0.462-0.829c0.023-0.464,0.482-0.397,0.82-0.372
		c0.594,0.046,1.185,0.126,1.778,0.177C15.35,40.942,16.129,40.995,17.151,41.071z M32.031,41.193c0,0.699,0.004,1.294,0,1.889
		c-0.006,0.814-0.182,1.175-0.952,1.177c-0.966,0.003-2.055,0.551-2.905-0.44c-0.105-0.124-0.492-0.096-0.706-0.019
		c-0.485,0.176-0.944,0.424-1.444,0.658c1.69,1.546,2.366,1.669,4.32,0.997c0.731-0.252,1.522-0.33,2.273-0.533
		c0.658-0.178,1.371-0.304,1.93-0.657c1.14-0.722,0.968-2.285-0.255-2.86C33.611,41.082,32.901,40.951,32.031,41.193z
		 M25.761,33.228c0.635,0,1.129-0.033,1.62,0.008c0.777,0.064,1.047-0.4,1.198-1.037c0.188-0.788-0.132-1.168-0.929-1.035
		c-0.622,0.104-1.233,0.272-1.889,0.422C25.761,32.091,25.761,32.574,25.761,33.228z M26.086,40.091
		c2.417,0.104,2.439,0.082,2.13-1.972c-0.714,0-1.426,0-2.13,0C26.086,38.821,26.086,39.404,26.086,40.091z M23.205,35.005
		c-0.688,0.052-1.301,0.005-1.845,0.177c-0.281,0.089-0.569,0.553-0.608,0.876c-0.027,0.226,0.316,0.652,0.573,0.731
		C22.673,37.201,23.292,36.652,23.205,35.005z M23.28,31.871c-0.81,0.063-1.439,0.138-2.071,0.155
		c-0.567,0.014-0.603,0.355-0.603,0.788c0,0.465,0.15,0.77,0.666,0.759c0.67-0.016,1.34-0.044,2.008-0.065
		C23.28,32.863,23.28,32.387,23.28,31.871z M26.031,36.357c0.643-0.048,1.18-0.078,1.713-0.132c0.596-0.061,0.65-0.492,0.647-0.969
		c-0.002-0.476-0.284-0.563-0.68-0.543c-0.345,0.02-0.692,0.033-1.035,0.014c-0.489-0.027-0.751,0.14-0.697,0.671
		C26.01,35.689,26.012,35.983,26.031,36.357z M20.528,44.187c0.893-0.195,1.52-0.302,2.123-0.484
		c0.153-0.047,0.364-0.398,0.316-0.505c-0.095-0.212-0.349-0.486-0.544-0.491c-0.583-0.016-1.168,0.118-1.754,0.134
		c-0.5,0.015-0.747,0.196-0.659,0.711C20.086,43.988,20.257,44.306,20.528,44.187z M28.163,41.659
		c-0.668,0.121-1.161,0.159-1.604,0.325c-0.126,0.047-0.111,0.47-0.16,0.722c0.518,0.015,1.052,0.1,1.546-0.002
		C28.073,42.678,28.084,42.07,28.163,41.659z"/>
	<path fill-rule="evenodd" clip-rule="evenodd" fill="#0F0F0F" d="M38.689,9.619c-0.117,0.475-0.191,0.967-0.362,1.422
		c-0.456,1.216-0.807,1.365-2.007,0.904c-1.06-0.408-2.152-0.754-3.159-1.266c-2.051-1.042-4.13-1.172-6.298-0.48
		c-2.617,0.835-5.321,1.184-8.051,1.294c-1.24,0.05-2.487-0.094-3.731-0.152c-0.098-0.004-0.21-0.002-0.291-0.047
		c-0.456-0.256-1.166-0.36-1.062-1.059c0.094-0.623,0.753-0.553,1.209-0.574c0.54-0.024,1.088,0.152,1.63,0.135
		c1.79-0.057,3.577-0.174,5.365-0.241c0.457-0.017,0.739-0.114,0.823-0.629c0.07-0.429,0.051-0.694-0.351-1.002
		c-1.495-1.147-1.64-3.385-0.361-4.688c0.78-0.794,1.201-0.804,1.996-0.042C25.705,4.79,25.731,4.965,24.619,7
		c-0.119,0.217-0.336,0.425-0.347,0.646c-0.019,0.374-0.011,0.826,0.186,1.104c0.122,0.172,0.651,0.192,0.932,0.093
		c1.766-0.623,3.516-1.287,5.263-1.963c0.615-0.238,1.183-0.374,1.862-0.161c1.694,0.53,3.416,0.969,5.122,1.463
		C38.327,8.382,38.792,8.776,38.689,9.619z"/>
	<path fill-rule="evenodd" clip-rule="evenodd" fill="#ED5A58" d="M29.001,26.246c2.472-0.749,4.853-1.14,7.297-1.109
		c0.914,0.012,1.566,0.347,1.567,0.792c0.001,0.452-0.702,0.973-1.486,1.006c-3.627,0.154-7.13,0.955-10.628,1.868
		c-2.79,0.726-5.638,1.082-8.535,0.583c-0.632-0.109-1.296-0.024-1.944-0.063c-0.91-0.056-1.765-0.273-2.413-0.983
		c-0.552-0.604-0.44-1.068,0.363-1.295c0.372-0.104,0.792-0.127,1.177-0.08c2.013,0.244,4.017,0.562,6.033,0.774
		c0.93,0.099,1.879,0.017,2.929,0.017c-0.095-0.234-0.116-0.449-0.234-0.551c-0.619-0.533-0.563-1.085-0.149-1.713
		c0.381-0.579,0.693-1.203,1.072-1.783c0.248-0.379,0.64-0.512,1.038-0.255c0.328,0.212,0.575,0.466,0.377,0.977
		c-0.264,0.685-0.426,1.401-0.099,2.156c0.139,0.322,0.108,0.702,0.603,0.672c0.412-0.026,0.793-0.079,0.937-0.568
		c0.237-0.804,0.451-1.619,0.761-2.395c0.17-0.422,0.008-0.672-0.226-0.93c-0.334-0.37-0.679-0.733-1.053-1.063
		c-0.5-0.441-0.435-0.819,0.024-1.242c0.477-0.439,0.915-0.919,1.381-1.373c0.342-0.332,0.717-0.411,0.993,0.049
		c0.561,0.934,1.104,1.878,1.615,2.839c0.259,0.487,0.145,0.939-0.267,1.347C29.539,24.515,28.984,25.15,29.001,26.246z"/>
	<path fill-rule="evenodd" clip-rule="evenodd" fill="#101010" d="M20.855,15.309c-0.1-0.443-0.24-0.818-0.25-1.197
		c-0.007-0.265,0.116-0.568,0.271-0.794c0.164-0.239,0.406-0.457,0.661-0.597c0.631-0.347,1.289-0.643,1.936-0.959
		c0.613,0.703,1.369,1.329,1.802,2.129c0.494,0.914-0.746,3.064-1.805,3.363c-2.42,0.682-4.835,1.395-7.277,1.988
		c-1.195,0.291-2.447,0.358-3.677,0.491c-0.282,0.031-0.602-0.026-0.864-0.138c-0.424-0.18-0.492-0.771-0.079-0.948
		c0.717-0.308,1.48-0.56,2.249-0.69C16.34,17.528,18.636,16.56,20.855,15.309z"/>
	<path fill-rule="evenodd" clip-rule="evenodd" fill="#111110" d="M26.339,12.94c1.134-0.234,1.986,0.247,2.859,0.521
		c1.627,0.511,3.079,1.362,4.233,2.627c1.231,1.349,1.229,2.007,0.061,3.805C30.594,18.138,28.06,16.05,26.339,12.94z"/>
</g>
</svg>
