<?xml version="1.0" encoding="utf-8"?>
<!-- Generator: Adobe Illustrator 16.0.0, SVG Export Plug-In . SVG Version: 6.00 Build 0)  -->
<!DOCTYPE svg PUBLIC "-//W3C//DTD SVG 1.1//EN" "http://www.w3.org/Graphics/SVG/1.1/DTD/svg11.dtd">
<svg version="1.1" id="Layer_1" xmlns="http://www.w3.org/2000/svg" xmlns:xlink="http://www.w3.org/1999/xlink" x="0px" y="0px"
	 width="50px" height="50px" viewBox="0 0 50 50" enable-background="new 0 0 50 50" xml:space="preserve">
<g>
	<path fill-rule="evenodd" clip-rule="evenodd" fill="#3852A3" d="M20.401,23.321c-0.306-2.366-0.592-4.61-0.221-7.145
		c1.042,0.641,1.221,1.277,1.264,2.028c0.043,0.733,0.095,1.477,0.266,2.188c0.268,1.11,0.846,1.322,1.662,0.603
		c1.708-1.506,3.362-3.072,5.059-4.591c0.36-0.323,0.772-0.634,1.217-0.806c0.908-0.351,1.13-0.564,1.125-1.412
		c-0.005-0.796-0.472-1.498-1.202-1.654c-2.416-0.518-4.868-0.486-7.303-0.25c-2.193,0.213-4.372,0.583-6.551,0.918
		c-1.84,0.283-3.669,0.641-5.512,0.911c-0.48,0.07-1.027,0.04-1.473-0.131c-0.294-0.112-0.587-0.528-0.661-0.857
		c-0.141-0.632,0.484-0.728,0.875-0.817c1.374-0.316,2.767-0.547,4.149-0.824c6.52-1.307,13.113-2.25,19.544-3.999
		c0.601-0.164,1.393-0.076,1.962,0.185c1.433,0.656,2.807,1.448,4.169,2.246c0.878,0.514,1.738,1.081,2.527,1.72
		c0.764,0.618,0.777,1.285-0.065,1.772c-0.75,0.434-1.671,0.67-2.543,0.775c-1.633,0.196-3.287,0.212-4.928,0.352
		c-0.428,0.037-0.867,0.203-1.253,0.403c-0.449,0.234-0.659,0.682-0.418,1.156c0.271,0.535,0.545,1.11,0.098,1.573
		c-0.415,0.427-1.015,0.915-1.55,0.937C29.29,18.658,29.064,19.456,29,20.59c1.035,0.418,1.997-0.157,2.918-0.362
		c1.778-0.397,3.335-0.256,4.813,0.863c1.355,1.026,2.799,1.935,4.148,2.967c0.761,0.582,1.45,1.253,1.483,2.363
		c0.026,0.867-0.336,1.464-0.855,2.128c-2.981,3.806-5.365,7.966-7.05,12.505c-0.249,0.673-0.276,1.435-0.355,2.161
		c-0.136,1.24-0.561,1.771-1.806,1.775c-1.817,0.009-3.635-0.12-5.452-0.197c-0.283-0.012-0.564-0.071-0.847-0.086
		c-2.612-0.134-5.225-0.251-7.835-0.404c-0.559-0.032-1.13-0.132-1.661-0.308c-1.086-0.359-1.244-0.771-0.664-1.804
		c0.328-0.584,0.168-1.109-0.038-1.622c-1.153-2.876-2.295-5.757-3.521-8.603c-0.713-1.656-1.609-3.234-2.356-4.878
		c-0.418-0.921-0.733-1.893-1.034-2.859c-0.231-0.744-0.189-1.582,0.467-2.023c0.667-0.449,1.465-0.124,2.044,0.366
		c0.736,0.623,1.414,1.324,2.059,2.044c0.38,0.424,0.719,0.661,1.316,0.466C16.591,24.491,18.421,23.938,20.401,23.321z
		 M26.573,41.218c1.71-0.098,2.643-0.807,3.123-2.209c0.308-0.901,0.815-1.733,1.177-2.619c1.21-2.967,2.371-5.954,3.608-8.909
		c0.248-0.592,0.215-1.049-0.036-1.598c-1.015-2.215-1.783-2.607-4.222-2.092c-0.275,0.059-0.566,0.062-0.831,0.15
		c-0.428,0.142-0.781,0.298-0.839,0.897c-0.147,1.516-0.413,3.02-0.612,4.531c-0.323,2.462-0.648,4.925-0.94,7.391
		C26.829,38.204,26.721,39.657,26.573,41.218z M26.969,24.583c-1.609,0.445-2.994,0.845-4.388,1.207
		c-0.57,0.148-0.472,0.562-0.443,0.942c0.124,1.64,0.251,3.28,0.4,4.918c0.19,2.086,0.396,4.169,0.608,6.253
		c0.125,1.223,0.274,2.442,0.413,3.661c0.759-0.025,1.499,0.192,1.623-0.731c0.25-1.85,0.462-3.704,0.691-5.556
		c0.319-2.579,0.658-5.156,0.952-7.738C26.926,26.65,26.916,25.75,26.969,24.583z M21.922,41.582
		c-0.435-5.134-0.855-10.087-1.292-15.248c-1.842,0.455-3.543,0.875-5.293,1.308c2.086,4.577,3.406,9.223,4.556,13.94
		C20.52,41.582,21.076,41.582,21.922,41.582z M27.493,19.707c-0.656,0.524-1.273,0.999-1.867,1.501
		c-0.23,0.195-0.407,0.452-0.716,0.804c0.596-0.132,1.027-0.2,1.44-0.326C27.609,21.303,27.606,21.294,27.493,19.707z"/>
</g>
</svg>
