<?xml version="1.0" encoding="utf-8"?>
<!-- Generator: Adobe Illustrator 16.0.0, SVG Export Plug-In . SVG Version: 6.00 Build 0)  -->
<!DOCTYPE svg PUBLIC "-//W3C//DTD SVG 1.1//EN" "http://www.w3.org/Graphics/SVG/1.1/DTD/svg11.dtd">
<svg version="1.1" id="Layer_1" xmlns="http://www.w3.org/2000/svg" xmlns:xlink="http://www.w3.org/1999/xlink" x="0px" y="0px"
	 width="50px" height="50px" viewBox="0 0 50 50" enable-background="new 0 0 50 50" xml:space="preserve">
<g>
	<path fill-rule="evenodd" clip-rule="evenodd" fill="#266D38" d="M19.855,26.094c-1.11,0.107-2.152-0.208-3.213-0.468
		c-0.846-0.206-1.516-0.623-2.044-1.274c-0.399-0.493-0.832-0.794-1.508-0.77c-0.343,0.012-0.694-0.187-1.041-0.291
		c0.137-0.081,0.274-0.163,0.411-0.243c0.139-0.082,0.277-0.163,0.416-0.245c0.061-0.084,0.121-0.168,0.181-0.253
		c-0.587-0.233-1.175-0.467-1.787-0.709c0.058-0.074,0.104-0.171,0.134-0.167c1.154,0.171,2.128-0.267,3.087-0.909
		c-0.364-0.542-0.731-1.089-1.153-1.718c0.799-0.365,1.481-0.112,2.361,0.171c-0.206-0.695-0.364-1.228-0.552-1.86
		c0.455-0.083,0.916-0.167,1.434-0.261c-0.353-1.001-1.334-0.752-1.94-1.148c0.646-1.043,0.571-1.312-0.508-1.87
		c-0.235-0.122-0.458-0.266-0.694-0.404c1.148-1.171,1.693-1.416,1.407-2.871c0.601,0,1.186,0,1.769,0
		c0.077-0.687,0.145-1.287,0.239-2.123c0.64,0.707,1.139,1.259,1.762,1.948c0.079-0.341,0.16-0.54,0.162-0.739
		c0.005-0.405-0.032-0.811-0.056-1.301c0.288-0.026,0.505-0.048,0.723-0.065c0.839-0.066,1.153-0.495,0.879-1.244
		c-0.107-0.293-0.288-0.559-0.435-0.835c0.487-0.313,1.112,0.151,1.561-0.411c0.411-0.514,0.389-0.979,0.183-1.528
		c-0.016-0.042,0.261-0.288,0.358-0.264c1.564,0.393,1.825,0.396,2.883-0.083c0.009,0.657-0.101,1.402,0.582,1.734
		c0.637,0.31,1.345,0.446,2.113,0.038c0.049-0.376,0.107-0.816,0.184-1.397c0.311,0.231,0.525,0.378,0.727,0.543
		c0.612,0.501,1.052,0.412,1.468-0.314c0.132-0.229,0.249-0.465,0.44-0.826c0.182,0.266,0.309,0.434,0.416,0.613
		c0.477,0.796,0.877,0.911,1.639,0.45c0.189-0.115,0.362-0.258,0.619-0.442c0.248,0.575,0.243,1.032-0.007,1.499
		c-0.26,0.484-0.045,0.764,0.407,0.961c0.372,0.162,0.73,0.356,1.169,0.573c-0.3,0.238-0.525,0.481-0.801,0.627
		c-1.203,0.635-1.224,0.796-0.141,1.582c-0.063,0.326-0.674,0.443-0.352,0.912c0.298,0.431,0.627,0.487,1.206,0.214
		c0.124-0.059,0.23-0.156,0.353-0.222c0.116-0.063,0.243-0.107,0.498-0.218c-0.103,0.748-0.191,1.402-0.289,2.117
		c0.604,0.198,1.154,0.379,1.87,0.614c-0.322,0.32-0.534,0.597-0.807,0.79c-0.927,0.655-0.946,0.707-0.265,1.552
		c0.116,0.144,0.235,0.285,0.465,0.563c-0.403,0.105-0.757,0.129-1.029,0.29c-0.197,0.116-0.288,0.414-0.426,0.63
		c0.199,0.055,0.4,0.162,0.596,0.152c0.219-0.011,0.432-0.127,0.778-0.241c-0.1,0.715-0.195,1.399-0.289,2.074
		c0.718,0.337,1.32-0.481,1.938,0.015c0.109,0.664-0.514,0.931-0.769,1.412c0.043,0.854,0.964,1.02,1.366,1.712
		c-1.239,0.365-2.109,1.062-1.98,2.606c-0.876-0.931-1.351-0.085-1.927,0.235c-0.674,0.192-1.347,0.383-2.02,0.575
		c-0.712,0.004-1.424,0.009-2.135,0.013c-0.324,0.023-0.742-0.251-0.904,0.285c-0.63-0.009-1.261-0.018-1.892-0.026
		c-0.279-0.228-0.558-0.458-0.838-0.685c-1.087-0.884-2.315-1.379-3.732-1.275c-0.438,0.032-0.869,0.173-1.304,0.265
		c-0.006-0.174-0.013-0.349-0.02-0.523c0.328-0.142,0.752-0.198,0.966-0.44c0.822-0.927,0.609-2.452-0.716-2.914
		c-0.247-0.086-0.713-0.195-0.794,0.259c-0.036,0.201,0.164,0.474,0.316,0.668c0.103,0.131,0.352,0.145,0.459,0.275
		c0.133,0.159,0.288,0.408,0.248,0.573c-0.045,0.183-0.278,0.406-0.467,0.45c-0.444,0.104-0.801,0.016-0.867-0.58
		c-0.021-0.194-0.392-0.531-0.517-0.497c-0.371,0.103-0.524,0.453-0.375,0.836c0.146,0.377,0.346,0.735,0.522,1.101
		c-0.793-0.208-1.587-0.417-2.38-0.625c0.3-0.609,0.964,0.045,1.367-0.439c0-0.516,0-1.09,0-1.583
		c-1.034-0.356-1.992-0.686-2.95-1.016c-0.029,0.059-0.058,0.118-0.087,0.177c0.539,0.367,1.078,0.734,1.717,1.169
		c-0.515,0.032-0.929,0.021-1.327,0.093c-0.391,0.071-0.766,0.227-1.241,0.375c0.507,0.313,1.14-0.142,1.436,0.5
		c-0.425,0.163-0.796,0.305-1.312,0.502c0.592,0.333,0.963,0.212,1.37,0.097c0.205-0.058,0.477,0.123,0.719,0.195
		c0.455,0.414,0.91,0.827,1.552,1.411c-0.922-0.139-1.613-0.243-2.582-0.389c0.398,0.324,0.563,0.47,0.74,0.6
		C18.338,24.989,19.098,25.541,19.855,26.094z M18.715,16.655c-0.049-0.253-0.047-0.696-0.157-0.726
		c-0.54-0.146-1.059-0.616-1.821-0.248c0.705,0.453,1.27,0.872,2.007,0.945c0.083,0.246,0.113,0.533,0.265,0.725
		c0.124,0.157,0.458,0.149,0.579,0.307c0.149,0.194,0.28,0.517,0.219,0.725c-0.059,0.199-0.354,0.396-0.583,0.462
		c-0.324,0.093-0.477-0.14-0.531-0.463c-0.029-0.17-0.114-0.389-0.246-0.47c-0.172-0.105-0.426-0.152-0.621-0.111
		c-0.099,0.021-0.2,0.289-0.206,0.447c-0.023,0.746,0.455,1.387,1.194,1.653c0.606,0.218,1.4-0.071,1.798-0.656
		c0.484-0.711,0.465-1.481-0.143-2.136c-0.269-0.29-0.647-0.52-1.02-0.653C19.255,16.385,18.964,16.58,18.715,16.655z
		 M30.699,23.619c0.146-0.37,0.285-0.743,0.441-1.108c0.22-0.515,0.241-0.98-0.408-1.429c-0.191,0.351-0.44,0.669-0.544,1.029
		c-0.157,0.549-0.59,0.479-0.866,0.335c-0.185-0.096-0.299-0.547-0.251-0.804c0.038-0.207,0.392-0.338,0.558-0.542
		c0.126-0.154,0.264-0.379,0.244-0.555c-0.043-0.377-0.38-0.347-0.646-0.288c-0.212,0.047-0.434,0.144-0.601,0.281
		c-0.608,0.498-0.828,1.199-0.612,1.837c0.299,0.885,0.798,1.237,1.748,1.231c0.321-0.002,0.643-0.011,0.964-0.016
		c-0.081,0.156-0.161,0.312-0.272,0.526c1.279,0.121,2.519,0.483,4.104,0.183c-0.792-0.349-1.313-0.579-1.833-0.808
		c0.016-0.06,0.03-0.119,0.046-0.178c0.676,0,1.353,0,2.029,0c0.007-0.045,0.014-0.089,0.021-0.134
		c-0.515-0.18-1.028-0.361-1.586-0.557c0.507-0.688,1.588-0.239,2.019-1.217c-1.21,0.223-2.298,0.423-3.365,0.62
		C31.629,22.687,31.448,23.366,30.699,23.619z M33.228,16.998c0.451-0.151,0.901-0.303,1.414-0.475
		c-0.571-0.322-0.928-0.651-0.721-1.289c0.02-0.058-0.191-0.273-0.238-0.256c-0.68,0.242-1.349,0.511-2.021,0.773
		c0.101,0.18,0.201,0.359,0.319,0.57c-0.231,0.021-0.479-0.009-0.682,0.071c-0.86,0.336-1.39,1.477-1.081,2.272
		c0.323,0.835,1.536,1.404,2.279,0.973c0.363-0.211,0.599-0.661,0.862-1.024c0.295-0.408,0.094-0.784-0.136-1.145
		C33.226,17.312,33.227,17.155,33.228,16.998z M19.842,13.577l-0.002-0.002c-0.102-0.188,0.439-0.393-0.075-0.618
		c-0.488-0.213-0.887-0.628-1.341-0.93c-0.105-0.07-0.278-0.04-0.496-0.065c0.205,0.287,0.339,0.474,0.559,0.78
		c-0.546-0.03-0.99-0.055-1.599-0.088c0.396,0.339,0.661,0.565,1.004,0.859c-0.721,0.04-1.298,0.072-2.18,0.121
		c0.882,0.23,1.45,0.375,2.015,0.532c0.028,0.008,0.028,0.115,0.041,0.176c-0.234,0.054-0.448,0.104-0.904,0.21
		c0.971,0.145,1.696,0.253,2.422,0.362c0.09,0.026,0.179,0.051,0.269,0.077c0.272,0.308,0.504,0.669,0.825,0.912
		c0.888,0.672,1.552,0.502,2.274-0.297c0.521-0.577,0.353-1.886-0.238-2.397c-0.456-0.394-0.83-0.326-1.134,0.216
		c0.235,0.278,0.5,0.54,0.7,0.844c0.193,0.295-0.006,0.769-0.357,0.92c-0.357,0.153-0.653,0.015-0.815-0.304
		c-0.097-0.19-0.132-0.446-0.101-0.658C20.82,13.448,20.31,13.551,19.842,13.577z M31.062,13.358
		c-0.121,0.188-0.288,0.358-0.341,0.558c-0.057,0.214,0.073,0.497-0.019,0.677c-0.127,0.248-0.354,0.534-0.599,0.608
		c-0.284,0.087-0.609-0.417-0.508-0.807c0.061-0.234,0.295-0.418,0.41-0.646c0.076-0.149,0.166-0.414,0.099-0.487
		c-0.132-0.142-0.365-0.236-0.565-0.254c-0.158-0.014-0.361,0.077-0.491,0.186c-0.728,0.609-0.803,1.909-0.078,2.578
		c0.709,0.655,1.396,0.881,2.267-0.011C32.075,14.902,32.044,14.224,31.062,13.358z M25.738,23.622c0.652,0,1.458-0.505,1.589-1.106
		c0.139-0.638,0.14-1.312-0.453-1.772c-0.139-0.107-0.451-0.155-0.575-0.07c-0.146,0.098-0.236,0.372-0.233,0.567
		c0.005,0.213,0.188,0.417,0.218,0.634c0.063,0.476-0.163,0.676-0.635,0.66c-0.438-0.015-0.569-0.269-0.5-0.639
		c0.048-0.26,0.211-0.5,0.251-0.76c0.024-0.157-0.046-0.436-0.15-0.48c-0.179-0.076-0.472-0.091-0.62,0.011
		c-0.468,0.32-0.684,1.185-0.497,1.733C24.433,23.274,24.89,23.623,25.738,23.622z M24.288,18.127
		c-0.281,0.348-0.427,0.855-0.96,0.657c-0.399-0.148-0.46-0.536-0.411-0.934c0.017-0.136,0.038-0.291-0.011-0.41
		c-0.043-0.106-0.177-0.24-0.277-0.246c-0.166-0.009-0.398,0.021-0.494,0.129c-0.362,0.411-0.316,1.224,0.056,1.779
		c0.345,0.515,1.179,0.929,1.642,0.813c0.688-0.171,1.208-0.738,1.312-1.434c0.131-0.874-0.203-1.63-0.932-1.965
		c-0.142-0.065-0.421,0.042-0.567,0.159c-0.095,0.076-0.136,0.355-0.07,0.467C23.78,17.492,24.048,17.805,24.288,18.127z
		 M28.285,17.686c0.073,0.163,0.164,0.282,0.138,0.321c-0.171,0.258-0.332,0.549-0.573,0.721c-0.104,0.074-0.528-0.065-0.569-0.188
		c-0.089-0.261-0.07-0.586-0.004-0.864c0.049-0.202,0.322-0.359,0.349-0.555c0.024-0.185-0.108-0.425-0.243-0.579
		c-0.057-0.064-0.318-0.011-0.448,0.06c-0.846,0.461-1.098,1.598-0.565,2.472c0.41,0.674,1.46,0.897,2.203,0.468
		c0.718-0.415,1.036-1.569,0.607-2.292c-0.082-0.138-0.317-0.313-0.424-0.281c-0.195,0.061-0.375,0.241-0.505,0.415
		C28.193,17.458,28.277,17.638,28.285,17.686z M22.783,9.458c-0.743,0.374-0.778,1.01-0.709,1.674
		c0.066,0.638,0.728,1.277,1.35,1.337c0.93,0.091,1.412-0.188,1.721-0.999c0.255-0.67,0.086-1.692-0.398-1.97
		c-0.179-0.103-0.505-0.025-0.728,0.063c-0.068,0.027-0.052,0.367-0.011,0.548c0.039,0.172,0.215,0.319,0.235,0.487
		c0.024,0.207,0.018,0.494-0.105,0.618c-0.131,0.132-0.436,0.197-0.625,0.145c-0.361-0.1-0.688-0.344-0.472-0.786
		C23.249,10.146,23.301,9.796,22.783,9.458z M29.595,10.635c-0.054-0.136-0.155-0.489-0.335-0.794
		C29.193,9.73,28.923,9.664,28.775,9.7c-0.125,0.031-0.291,0.24-0.29,0.367c0.004,0.267,0.177,0.54,0.148,0.795
		c-0.026,0.244-0.171,0.534-0.359,0.681c-0.123,0.095-0.5,0.049-0.614-0.073c-0.164-0.175-0.275-0.481-0.261-0.723
		c0.019-0.302,0.226-0.589,0.271-0.896c0.02-0.127-0.14-0.319-0.268-0.415c-0.062-0.045-0.265,0.035-0.361,0.112
		c-0.705,0.565-0.895,1.328-0.53,2.063c0.384,0.776,1.128,1.245,1.741,1.097C29.071,12.512,29.624,11.755,29.595,10.635z
		 M27.371,14.322c-0.043-0.115-0.113-0.488-0.314-0.766c-0.115-0.16-0.468-0.265-0.67-0.215c-0.247,0.062-0.46,0.297-0.203,0.622
		c0.081,0.103,0.085,0.263,0.153,0.379c0.213,0.363-0.042,0.623-0.25,0.806c-0.119,0.105-0.492,0.092-0.614-0.018
		c-0.175-0.158-0.302-0.453-0.306-0.692c-0.004-0.25,0.205-0.497,0.235-0.755c0.017-0.139-0.116-0.391-0.232-0.426
		c-0.155-0.047-0.415,0.007-0.533,0.119c-0.628,0.599-0.725,1.261-0.335,1.969c0.404,0.734,1.177,1.15,1.797,0.966
		C26.898,16.075,27.367,15.434,27.371,14.322z M31.386,10.8c-0.09,0.012-0.179,0.023-0.269,0.035
		c-0.122,0.598-0.244,1.196-0.377,1.854c1.284,0.049,1.391,0.973,1.44,1.864c0.465-0.244,0.853-0.495,1.275-0.657
		c0.374-0.144-0.014-0.863,0.626-0.765c0.031,0.005,0.093-0.188,0.146-0.304c-0.426-0.061-0.8-0.114-1.222-0.173
		c0.196-0.272,0.333-0.463,0.516-0.718c-0.256,0-0.368-0.035-0.426,0.006c-0.439,0.312-0.787,0.536-0.621-0.332
		c0.055-0.285-0.071-0.329-0.355-0.141c-0.163,0.108-0.299,0.255-0.478,0.412C31.541,11.455,31.464,11.127,31.386,10.8z
		 M27.722,8.212c0.6,0.202,1.21,0.383,1.801,0.614c0.568,0.221,1.116,0.493,1.695,0.753c0.167-0.499-0.25-0.704-0.358-1.019
		c-0.099-0.288,0.057-0.66,0.076-0.996c0.003-0.043-0.156-0.079-0.2-0.145c-0.156-0.235-0.296-0.482-0.435-0.713
		c-0.172,0.221-0.366,0.47-0.595,0.763c-0.074-0.323-0.133-0.58-0.198-0.868c-0.203,0.293-0.381,0.551-0.571,0.828
		c-0.143-0.219-0.254-0.391-0.4-0.614C28.244,7.316,28.005,7.727,27.722,8.212z M22.054,9.171c1.027-0.649,1.99-0.665,3.208-0.258
		c-0.662-0.571-0.365-1.32-0.945-1.639c-0.454-0.25-0.907-0.5-1.352-0.745c-0.042,0.146-0.103,0.358-0.169,0.589
		c-0.118-0.173-0.219-0.322-0.348-0.513C22.318,7.458,22.202,8.21,22.054,9.171z M21.394,12.112c-0.3-0.838-0.579-1.618-0.917-2.562
		c-0.486,1.021-0.316,1.944-0.308,2.921C20.634,12.335,21.01,12.224,21.394,12.112z M33.265,20.73
		c0.561-0.072,1.003-0.146,1.448-0.181c0.456-0.034,0.894-0.079,1.16-0.445c-0.687-0.177-1.36-0.352-2.06-0.532
		C33.509,19.854,33.131,20.128,33.265,20.73z"/>
	<path fill-rule="evenodd" clip-rule="evenodd" fill="#1B1C1B" d="M29.572,25.879c0.162-0.536,0.58-0.262,0.904-0.285
		c-0.363,0.445-0.48,0.882,0.05,1.292c0.601,0.465,1.417,0.461,2.024,0c0.546-0.414,0.355-0.855,0.061-1.305
		c0.673-0.191,1.346-0.383,2.02-0.575c-0.455,0.681-0.905,1.365-1.366,2.041c-0.26,0.38-0.586,0.724-0.789,1.13
		c-0.102,0.203-0.07,0.55,0.038,0.762c0.146,0.287,0.43,0.263,0.711,0.085c0.465-0.292,0.952-0.549,1.424-0.829
		c0.197-0.116,0.366-0.302,0.575-0.367c0.134-0.042,0.318,0.077,0.48,0.125c-0.039,0.126-0.041,0.296-0.126,0.369
		c-0.243,0.209-0.528,0.368-0.782,0.565c-0.183,0.142-0.344,0.312-0.509,0.474c-1.35,1.321-1.328,1.718,0.156,3.073
		c0.819-0.201,1.412-0.945,2.422-0.832c-0.336,0.319-0.674,0.637-1.007,0.957c-0.965,0.929-1.03,1.382-0.247,2.506
		c0.816,1.17,1.611,2.37,2.867,3.146c0.11,0.068,0.182,0.199,0.335,0.374c-1.626,0.289-3.147-0.196-4.68-0.187
		c-1.519,0.009-3.035,0.146-4.553,0.226c-0.449-0.07-0.899-0.142-1.349-0.213c-1.544-0.209-3.088-0.43-4.653-0.301
		c-0.258,0.021-0.508,0.131-0.761,0.2c-0.443,0.05-0.887,0.1-1.331,0.149c-1.576,0.31-3.158,0.581-4.773,0.473
		c-0.722-0.049-1.444-0.275-2.157-0.238c-1.169,0.062-2.331,0.271-3.552,0.426c-0.286-1.203,0.357-2.256,0.4-3.444
		c-0.519,0.072-1.031,0.145-1.544,0.217c-0.025-0.07-0.051-0.142-0.076-0.212c0.466-0.255,0.944-0.492,1.395-0.771
		c0.301-0.187,0.694-0.375,0.823-0.663c0.815-1.827,2.017-3.367,3.561-4.838c-0.678-0.46-1.268-0.861-2.103-1.429
		c0.291-0.173,0.652-0.27,0.748-0.483c0.073-0.164-0.19-0.478-0.304-0.725c0.039-0.048,0.08-0.094,0.122-0.138
		c0.499,0.475,0.987,0.961,1.498,1.423c0.78,0.704,0.91,0.687,1.796,0.172c0.792-0.459,1.622-0.85,2.425-1.289
		c0.271-0.148,0.511-0.354,0.765-0.533c0.173-0.898,0.449-1.739,1.296-2.249c0.435-0.092,0.865-0.233,1.304-0.265
		c1.417-0.104,2.645,0.392,3.732,1.275c0.28,0.228,0.559,0.457,0.838,0.685c0.116,0.232,0.2,0.487,0.353,0.693
		c0.433,0.586,0.78,0.605,1.279,0.041C29.468,26.411,29.489,26.118,29.572,25.879z M34.078,36.126
		c-0.053,0.115-0.099,0.233-0.157,0.346c-0.424,0.801-0.266,1.246,0.548,1.537c0.552,0.196,1.231,0.029,1.623-0.416
		c0.282-0.32,0.317-0.689-0.022-0.962c-0.27-0.215-0.608-0.391-0.943-0.465c-0.346-0.076-0.723-0.009-1.086-0.004
		c0.204-0.214,0.41-0.425,0.611-0.641c0.325-0.35,0.21-0.669-0.098-0.941c-0.646-0.571-1.67-0.527-2.209,0.078
		c-0.33,0.372-0.318,0.761,0.066,1.065C32.899,36.11,33.475,36.19,34.078,36.126z M28.175,32.233
		c-0.643,0.351-1.312,0.733-1.998,1.083c-0.488,0.249-0.993,0.467-1.503,0.667c-0.124,0.049-0.344,0.03-0.437-0.052
		c-0.289-0.256,0.032-0.397,0.174-0.497c0.936-0.66,1.91-1.268,2.829-1.95c1.241-0.921,1.577-2.266,0.897-3.628
		c-0.263-0.526-0.655-0.997-1.032-1.457c-1.141-1.395-2.619-1.953-4.399-1.674c-0.263,0.042-0.524,0.15-0.763,0.273
		c-1.014,0.522-0.999,2.451,0.045,3.072c0.772,0.46,1.639,0.771,2.482,1.101c0.489,0.19,1.015,0.284,1.763,0.486
		c-0.464,0.332-0.735,0.547-1.025,0.73c-2.17,1.37-4.369,2.699-6.507,4.118c-0.874,0.581-1.76,1.217-2.3,2.163
		c-0.216,0.378-0.509,0.922-0.383,1.237c0.195,0.489,0.835,0.498,1.348,0.429c1.589-0.214,3.175-0.451,4.763-0.68
		c1.394-0.201,2.73-0.567,4.209-0.179c1.963,0.515,4.017,0.42,6.139,0.28C31.018,35.883,29.617,34.086,28.175,32.233z M32.141,33.92
		c0.709,0.001,1.313-0.399,1.356-0.9c0.039-0.442-0.465-0.912-1.127-1.016c-0.538-0.085-1.01,0.112-1.333,0.524
		c-0.131,0.167-0.155,0.496-0.097,0.717C31.1,33.85,31.598,33.945,32.141,33.92z M18.134,31.133c0.689-0.01,1.391-0.46,1.395-0.896
		c0.005-0.543-0.892-1.14-1.563-1.04c-0.622,0.093-1.195,0.577-1.176,0.994C16.811,30.691,17.454,31.142,18.134,31.133z
		 M31.13,29.739c-0.69,0.007-1.273,0.469-1.255,0.995c0.018,0.509,0.641,0.962,1.307,0.951c0.688-0.011,1.237-0.464,1.242-1.023
		C32.429,30.118,31.886,29.73,31.13,29.739z M11.685,36.824c0.314,0.308,0.524,0.606,0.811,0.775
		c0.661,0.394,1.377,0.251,1.857-0.301c0.244-0.279,0.269-0.569,0.035-0.87c-0.43-0.552-1.2-0.737-1.849-0.376
		C12.242,36.217,12.02,36.514,11.685,36.824z M14.23,33.606c-0.271,0.014-0.41,0.016-0.547,0.028
		c-0.457,0.043-0.784,0.239-0.848,0.734c-0.065,0.501,0.165,0.737,0.742,0.97c0.468,0.189,0.909,0.077,1.298-0.088
		c0.23-0.098,0.402-0.459,0.492-0.736c0.122-0.378-0.186-0.595-0.479-0.73C14.646,33.673,14.369,33.642,14.23,33.606z
		 M15.625,31.376c-0.175,0.091-0.572,0.214-0.856,0.465c-0.385,0.341-0.286,0.92,0.187,1.138c0.529,0.245,1.096,0.441,1.673,0.083
		c0.34-0.21,0.532-0.492,0.482-0.911c-0.051-0.428-0.325-0.639-0.709-0.725C16.225,31.387,16.036,31.4,15.625,31.376z
		 M24.073,30.319c-1.25-1.133-1.609-0.935-2.395-0.455c-0.257,0.157-0.575,0.493-0.317,0.931c0.308,0.524,0.775,0.715,1.236,0.451
		C23.067,30.979,23.515,30.672,24.073,30.319z M29.665,27.486c-0.131,0.067-0.653,0.166-0.77,0.439
		c-0.125,0.292,0.083,0.77,0.243,1.121c0.063,0.137,0.39,0.175,0.604,0.215c0.725,0.133,1.438-0.229,1.519-0.75
		C31.348,27.958,30.735,27.486,29.665,27.486z M21.013,32.159c-1.251-0.885-1.73-0.913-2.42-0.257
		c-0.359,0.341-0.342,0.719-0.072,1.062c0.269,0.341,0.604,0.556,1.056,0.2C20.003,32.828,20.465,32.539,21.013,32.159z
		 M21.93,28.984c-0.42-0.501-0.685-0.872-1.009-1.181c-0.166-0.157-0.442-0.289-0.662-0.278c-0.396,0.02-0.692,0.29-0.676,0.705
		c0.009,0.232,0.136,0.532,0.313,0.674C20.484,29.38,21.132,29.252,21.93,28.984z M16.663,35.157
		c0.696-0.371,1.303-0.769,1.779-1.432C16.583,33.559,16.362,33.726,16.663,35.157z M28.411,31.543
		c1.089-0.717,1.105-0.789,0.517-1.538C28.778,30.45,28.644,30.851,28.411,31.543z"/>
	<path fill-rule="evenodd" clip-rule="evenodd" fill="#EC5E5C" d="M21.488,38.46c0.444-0.05,0.887-0.1,1.331-0.149
		c-0.075,0.714-0.15,1.427-0.234,2.22c0.676,0.157,1.281,0.298,2.088,0.485c-0.833,0.335-1.511,0.606-2.221,0.892
		c-0.105,0.506-0.232,1.076-0.344,1.65c-0.113,0.58,0.031,0.767,0.684,0.95c0.291,0.082,0.579,0.179,0.868,0.371
		c-1.149,0.252-2.221,0.611-3.242,1.138c-0.298,0.153-0.68,0.142-1.095,0.032c0.248-0.209,0.495-0.418,0.843-0.712
		c-0.874,0-1.648,0-2.423,0c-0.007-0.059-0.014-0.117-0.021-0.177c0.683-0.172,1.365-0.344,2.139-0.539
		c-0.3-0.209-0.546-0.381-0.884-0.616c0.345-0.022,0.603-0.049,0.861-0.054c1.039-0.021,1.02-0.054,1.136-1.078
		c0.087-0.772-0.117-1.321-0.764-1.76c-0.344-0.233-0.615-0.576-0.815-1.028c0.375,0.1,0.752,0.191,1.124,0.301
		c0.812,0.239,0.946,0.158,0.987-0.679C21.525,39.293,21.495,38.876,21.488,38.46z"/>
	<path fill-rule="evenodd" clip-rule="evenodd" fill="#EB5958" d="M28.232,38.411c0.449,0.071,0.899,0.143,1.349,0.213
		c0.007,0.139,0.024,0.278,0.018,0.417c-0.063,1.306,0.322,1.428,1.351,1.284c0.134-0.019,0.274,0.011,0.41,0.027
		c0.044,0.005,0.084,0.037,0.249,0.116c-0.563,0.396-1.073,0.754-1.729,1.215c0,0.205-0.006,0.564,0.001,0.924
		c0.021,1.274,0.084,1.346,1.364,1.604c0.133,0.027,0.269,0.05,0.4,0.083c0.033,0.008,0.057,0.051,0.092,0.083
		c-0.955,0.34-1.852,0.759-2.574,1.507c-0.242,0.252-0.606,0.395-0.932,0.552c-0.055,0.027-0.194-0.123-0.294-0.191
		c0.493-0.698-0.432-0.659-0.545-1.055c0.155-0.079,0.313-0.159,0.67-0.34c-0.585-0.197-1.023-0.345-1.781-0.6
		c0.996,0,1.676,0,2.47,0c0-0.461-0.018-0.817,0.003-1.172c0.048-0.835-0.289-1.374-1.11-1.642
		c-0.376-0.123-0.708-0.381-1.034-0.773c0.592-0.027,1.184-0.056,1.886-0.088C28.428,39.813,28.653,39.09,28.232,38.411z"/>
	<path fill-rule="evenodd" clip-rule="evenodd" fill="#DE544F" d="M21.807,24.157c-0.848,0.51-1.123,1.351-1.296,2.249
		c-0.218-0.104-0.437-0.208-0.655-0.313c-0.757-0.553-1.517-1.104-2.271-1.661c-0.177-0.13-0.342-0.276-0.74-0.6
		c0.968,0.146,1.66,0.25,2.582,0.389c-0.642-0.583-1.097-0.997-1.552-1.411c0.103-0.023,0.205-0.047,0.308-0.07
		c0.793,0.208,1.587,0.417,2.38,0.625c0.409,0.089,0.817,0.179,1.226,0.269C21.793,23.809,21.8,23.983,21.807,24.157z"/>
	<path fill-rule="evenodd" clip-rule="evenodd" fill="#3B8344" d="M12.876,22.803c-0.139,0.082-0.277,0.163-0.416,0.245
		c-0.137,0.081-0.274,0.162-0.411,0.243c-0.608-0.11-1.217-0.22-1.826-0.33C11.097,22.733,11.986,22.75,12.876,22.803z"/>
	<path fill-rule="evenodd" clip-rule="evenodd" fill="#1B1C1B" d="M13.905,26.771c-0.121-0.091-0.241-0.181-0.362-0.271
		c0.038-0.021,0.086-0.067,0.11-0.057c0.128,0.056,0.25,0.125,0.374,0.19C13.984,26.678,13.944,26.724,13.905,26.771z"/>
	<path fill-rule="evenodd" clip-rule="evenodd" fill="#F5FAF4" d="M19.285,14.913c-0.726-0.108-1.451-0.217-2.422-0.362
		c0.456-0.106,0.67-0.156,0.904-0.21c-0.013-0.061-0.013-0.168-0.041-0.176c-0.565-0.157-1.133-0.302-2.015-0.532
		c0.882-0.049,1.458-0.081,2.18-0.121c-0.343-0.294-0.607-0.52-1.004-0.859c0.608,0.034,1.052,0.058,1.599,0.088
		c-0.22-0.306-0.354-0.493-0.559-0.78c0.218,0.025,0.391-0.005,0.496,0.065c0.455,0.302,0.853,0.716,1.341,0.93
		c0.514,0.225-0.027,0.43,0.075,0.618c-0.07,0.033-0.14,0.066-0.209,0.1c0.037,0.037,0.075,0.075,0.112,0.112
		c0.033-0.069,0.066-0.139,0.1-0.209c0.468-0.025,0.978-0.128,0.865,0.649c-0.031,0.212,0.004,0.468,0.101,0.658
		c0.162,0.319,0.458,0.458,0.815,0.304c0.351-0.151,0.55-0.625,0.357-0.92c-0.199-0.305-0.465-0.566-0.7-0.844
		c0.304-0.542,0.678-0.61,1.134-0.216c0.59,0.511,0.759,1.821,0.238,2.397c-0.722,0.799-1.387,0.969-2.274,0.297
		c-0.321-0.243-0.552-0.604-0.825-0.912c0.083-0.154,0.196-0.3,0.239-0.465c0.025-0.097-0.062-0.222-0.099-0.335
		c-0.132,0.062-0.334,0.093-0.38,0.193C19.246,14.534,19.29,14.734,19.285,14.913z"/>
	<path fill-rule="evenodd" clip-rule="evenodd" fill="#F4F9F3" d="M33.225,17.468c0.229,0.36,0.431,0.736,0.136,1.145
		c-0.264,0.363-0.499,0.813-0.862,1.024c-0.743,0.432-1.956-0.137-2.279-0.973c-0.309-0.795,0.221-1.936,1.081-2.272
		c0.203-0.08,0.45-0.05,0.682-0.071c-0.118-0.211-0.219-0.39-0.319-0.57c0.672-0.262,1.341-0.531,2.021-0.773
		c0.047-0.017,0.258,0.199,0.238,0.256c-0.207,0.637,0.149,0.967,0.721,1.289c-0.513,0.172-0.963,0.324-1.414,0.475
		c-0.633-0.029-1.276-0.006-1.724,0.501c-0.175,0.198-0.268,0.572-0.216,0.83c0.038,0.195,0.37,0.466,0.562,0.458
		c0.189-0.008,0.395-0.304,0.537-0.512c0.094-0.137,0.031-0.413,0.141-0.5C32.719,17.622,32.987,17.565,33.225,17.468z"/>
	<path fill-rule="evenodd" clip-rule="evenodd" fill="#EBF4E9" d="M31.062,13.358c0.982,0.866,1.014,1.544,0.175,2.403
		c-0.871,0.892-1.558,0.666-2.267,0.011c-0.725-0.669-0.649-1.969,0.078-2.578c0.13-0.108,0.333-0.2,0.491-0.186
		c0.2,0.018,0.434,0.112,0.565,0.254c0.067,0.073-0.022,0.338-0.099,0.487c-0.115,0.227-0.35,0.411-0.41,0.646
		c-0.102,0.389,0.224,0.894,0.508,0.807c0.244-0.075,0.472-0.361,0.599-0.608c0.092-0.18-0.038-0.463,0.019-0.677
		C30.773,13.716,30.94,13.546,31.062,13.358z"/>
	<path fill-rule="evenodd" clip-rule="evenodd" fill="#E8F3E7" d="M30.699,23.619c0.749-0.252,0.93-0.932,1.19-1.592
		c1.067-0.196,2.155-0.397,3.365-0.62c-0.431,0.978-1.512,0.529-2.019,1.217c0.558,0.195,1.071,0.376,1.586,0.557
		c-0.008,0.045-0.015,0.089-0.021,0.134c-0.677,0-1.354,0-2.029,0c-0.016,0.059-0.03,0.118-0.046,0.178
		c0.521,0.229,1.041,0.458,1.833,0.808c-1.586,0.3-2.825-0.062-4.104-0.183c0.111-0.215,0.191-0.371,0.272-0.526L30.699,23.619z"/>
	<path fill-rule="evenodd" clip-rule="evenodd" fill="#EDF5EC" d="M25.738,23.622c-0.848,0.001-1.305-0.348-1.605-1.223
		c-0.188-0.548,0.028-1.413,0.497-1.733c0.148-0.102,0.441-0.086,0.62-0.011c0.104,0.044,0.174,0.323,0.15,0.48
		c-0.04,0.26-0.203,0.5-0.251,0.76c-0.068,0.371,0.063,0.624,0.5,0.639c0.472,0.016,0.698-0.184,0.635-0.66
		c-0.029-0.218-0.213-0.421-0.218-0.634c-0.003-0.195,0.088-0.469,0.233-0.567c0.124-0.084,0.437-0.037,0.575,0.07
		c0.593,0.46,0.592,1.134,0.453,1.772C27.196,23.117,26.39,23.622,25.738,23.622z"/>
	<path fill-rule="evenodd" clip-rule="evenodd" fill="#EDF5EC" d="M18.715,16.655c0.249-0.075,0.541-0.27,0.737-0.2
		c0.373,0.133,0.751,0.363,1.02,0.653c0.608,0.654,0.627,1.425,0.143,2.136c-0.398,0.585-1.192,0.875-1.798,0.656
		c-0.739-0.266-1.217-0.907-1.194-1.653c0.005-0.159,0.107-0.427,0.206-0.447c0.195-0.041,0.449,0.005,0.621,0.111
		c0.131,0.081,0.217,0.3,0.246,0.47c0.054,0.324,0.207,0.556,0.531,0.463c0.229-0.065,0.523-0.263,0.583-0.462
		c0.062-0.208-0.07-0.53-0.219-0.725c-0.121-0.158-0.455-0.15-0.579-0.307c-0.151-0.191-0.182-0.479-0.265-0.725L18.715,16.655z"/>
	<path fill-rule="evenodd" clip-rule="evenodd" fill="#EDF5EC" d="M24.288,18.127c-0.24-0.322-0.507-0.635-0.712-0.984
		c-0.065-0.111-0.024-0.391,0.07-0.467c0.146-0.116,0.425-0.224,0.567-0.159c0.729,0.335,1.063,1.091,0.932,1.965
		c-0.104,0.696-0.624,1.263-1.312,1.434c-0.463,0.115-1.296-0.298-1.642-0.813c-0.372-0.555-0.417-1.368-0.056-1.779
		c0.096-0.109,0.328-0.138,0.494-0.129c0.1,0.006,0.233,0.139,0.277,0.246c0.049,0.119,0.028,0.274,0.011,0.41
		c-0.049,0.398,0.011,0.786,0.411,0.934C23.861,18.982,24.007,18.476,24.288,18.127z"/>
	<path fill-rule="evenodd" clip-rule="evenodd" fill="#F1F8F0" d="M30.727,23.591c-0.321,0.005-0.643,0.014-0.964,0.016
		c-0.95,0.006-1.449-0.347-1.748-1.231c-0.216-0.639,0.004-1.34,0.612-1.837c0.167-0.137,0.389-0.234,0.601-0.281
		c0.266-0.059,0.603-0.089,0.646,0.288c0.02,0.176-0.118,0.401-0.244,0.555c-0.166,0.204-0.52,0.335-0.558,0.542
		c-0.048,0.256,0.066,0.708,0.251,0.804c0.276,0.143,0.709,0.213,0.866-0.335c0.104-0.36,0.353-0.678,0.544-1.029
		c0.649,0.449,0.628,0.915,0.408,1.429c-0.156,0.365-0.295,0.738-0.441,1.108L30.727,23.591z"/>
	<path fill-rule="evenodd" clip-rule="evenodd" fill="#EDF5EC" d="M28.285,17.686c-0.008-0.048-0.092-0.228-0.035-0.302
		c0.13-0.173,0.31-0.354,0.505-0.415c0.106-0.033,0.342,0.143,0.424,0.281c0.429,0.723,0.11,1.877-0.607,2.292
		c-0.743,0.429-1.793,0.206-2.203-0.468c-0.533-0.875-0.28-2.011,0.565-2.472c0.13-0.071,0.392-0.125,0.448-0.06
		c0.135,0.154,0.268,0.395,0.243,0.579c-0.026,0.196-0.3,0.353-0.349,0.555c-0.066,0.277-0.085,0.603,0.004,0.864
		c0.041,0.123,0.465,0.262,0.569,0.188c0.241-0.172,0.402-0.463,0.573-0.721C28.449,17.967,28.358,17.849,28.285,17.686z"/>
	<path fill-rule="evenodd" clip-rule="evenodd" fill="#F0F6EE" d="M22.783,9.458c0.519,0.339,0.466,0.689,0.257,1.118
		c-0.215,0.442,0.111,0.687,0.472,0.786c0.189,0.052,0.494-0.013,0.625-0.145c0.123-0.124,0.129-0.412,0.105-0.618
		c-0.02-0.168-0.196-0.315-0.235-0.487c-0.042-0.182-0.058-0.521,0.011-0.548c0.223-0.087,0.548-0.166,0.728-0.063
		c0.484,0.278,0.653,1.3,0.398,1.97c-0.309,0.811-0.791,1.09-1.721,0.999c-0.622-0.06-1.283-0.699-1.35-1.337
		C22.004,10.468,22.04,9.831,22.783,9.458z"/>
	<path fill-rule="evenodd" clip-rule="evenodd" fill="#F1F7F0" d="M29.595,10.635c0.029,1.12-0.523,1.876-1.342,2.073
		c-0.613,0.147-1.357-0.321-1.741-1.097c-0.364-0.735-0.175-1.498,0.53-2.063c0.097-0.077,0.3-0.157,0.361-0.112
		c0.128,0.096,0.287,0.288,0.268,0.415c-0.046,0.306-0.253,0.593-0.271,0.896c-0.015,0.242,0.097,0.548,0.261,0.723
		c0.114,0.122,0.491,0.168,0.614,0.073c0.188-0.147,0.333-0.437,0.359-0.681c0.028-0.255-0.145-0.528-0.148-0.795
		C28.484,9.94,28.65,9.731,28.775,9.7c0.147-0.036,0.418,0.03,0.484,0.141C29.439,10.146,29.541,10.499,29.595,10.635z"/>
	<path fill-rule="evenodd" clip-rule="evenodd" fill="#F1F7F0" d="M27.371,14.322c-0.004,1.111-0.473,1.753-1.271,1.99
		c-0.62,0.184-1.393-0.232-1.797-0.966c-0.39-0.708-0.293-1.37,0.335-1.969c0.118-0.112,0.378-0.167,0.533-0.119
		c0.116,0.036,0.249,0.288,0.232,0.426c-0.031,0.258-0.24,0.506-0.235,0.755c0.004,0.239,0.131,0.534,0.306,0.692
		c0.122,0.11,0.495,0.123,0.614,0.018c0.208-0.184,0.463-0.443,0.25-0.806c-0.068-0.116-0.072-0.276-0.153-0.379
		c-0.257-0.325-0.044-0.561,0.203-0.622c0.202-0.05,0.555,0.055,0.67,0.215C27.258,13.834,27.328,14.208,27.371,14.322z"/>
	<path fill-rule="evenodd" clip-rule="evenodd" fill="#F1F7EF" d="M18.181,22.741c-0.103,0.023-0.205,0.047-0.308,0.07
		c-0.242-0.073-0.515-0.253-0.719-0.195c-0.407,0.116-0.778,0.236-1.37-0.097c0.515-0.197,0.886-0.339,1.312-0.502
		c-0.295-0.642-0.928-0.187-1.436-0.5c0.475-0.148,0.85-0.305,1.241-0.375c0.398-0.073,0.813-0.061,1.327-0.093
		c-0.639-0.435-1.178-0.802-1.717-1.169c0.029-0.059,0.058-0.118,0.087-0.177c0.958,0.33,1.917,0.66,2.95,1.016
		c0,0.493,0,1.067,0,1.583C19.145,22.786,18.481,22.132,18.181,22.741z"/>
	<path fill-rule="evenodd" clip-rule="evenodd" fill="#F2F8F1" d="M21.787,23.634c-0.409-0.089-0.817-0.179-1.226-0.269
		c-0.176-0.366-0.375-0.724-0.522-1.101c-0.148-0.383,0.005-0.733,0.375-0.836c0.125-0.035,0.496,0.303,0.517,0.497
		c0.066,0.596,0.423,0.685,0.867,0.58c0.189-0.044,0.422-0.268,0.467-0.45c0.041-0.165-0.114-0.415-0.248-0.573
		c-0.107-0.13-0.356-0.144-0.459-0.275c-0.152-0.194-0.353-0.467-0.316-0.668c0.082-0.455,0.547-0.346,0.794-0.259
		c1.326,0.462,1.538,1.987,0.716,2.914C22.539,23.436,22.115,23.493,21.787,23.634z"/>
	<path fill-rule="evenodd" clip-rule="evenodd" fill="#ECF5EB" d="M31.386,10.8c0.078,0.328,0.155,0.655,0.257,1.081
		c0.179-0.156,0.314-0.304,0.478-0.412c0.284-0.188,0.41-0.145,0.355,0.141c-0.166,0.867,0.182,0.643,0.621,0.332
		c0.058-0.041,0.17-0.006,0.426-0.006c-0.183,0.255-0.319,0.445-0.516,0.718c0.422,0.06,0.796,0.113,1.222,0.173
		c-0.054,0.115-0.115,0.309-0.146,0.304c-0.64-0.098-0.252,0.622-0.626,0.765c-0.423,0.162-0.811,0.413-1.275,0.657
		c-0.05-0.891-0.156-1.814-1.44-1.864c0.133-0.657,0.255-1.255,0.377-1.854C31.207,10.823,31.296,10.812,31.386,10.8z"/>
	<path fill-rule="evenodd" clip-rule="evenodd" fill="#ECF5EB" d="M27.722,8.212c0.283-0.486,0.522-0.896,0.814-1.397
		c0.146,0.224,0.258,0.395,0.4,0.614c0.19-0.276,0.368-0.534,0.571-0.828c0.065,0.289,0.124,0.545,0.198,0.868
		c0.229-0.293,0.423-0.542,0.595-0.763c0.139,0.231,0.278,0.478,0.435,0.713c0.044,0.066,0.203,0.102,0.2,0.145
		c-0.02,0.336-0.175,0.708-0.076,0.996c0.108,0.315,0.525,0.52,0.358,1.019c-0.579-0.26-1.127-0.532-1.695-0.753
		C28.932,8.596,28.321,8.414,27.722,8.212z"/>
	<path fill-rule="evenodd" clip-rule="evenodd" fill="#F2F8F1" d="M22.054,9.171c0.148-0.96,0.264-1.713,0.395-2.566
		c0.129,0.191,0.23,0.339,0.348,0.513c0.066-0.231,0.127-0.443,0.169-0.589c0.445,0.245,0.898,0.496,1.352,0.745
		c0.58,0.319,0.283,1.068,0.945,1.639C24.044,8.506,23.082,8.522,22.054,9.171z"/>
	<path fill-rule="evenodd" clip-rule="evenodd" fill="#EBECE9" d="M32.611,25.581c0.295,0.45,0.485,0.891-0.061,1.305
		c-0.607,0.461-1.424,0.465-2.024,0c-0.53-0.41-0.413-0.847-0.05-1.292C31.188,25.589,31.899,25.585,32.611,25.581z"/>
	<path fill-rule="evenodd" clip-rule="evenodd" fill="#D8E8D5" d="M21.394,12.112c-0.384,0.112-0.76,0.223-1.225,0.359
		c-0.008-0.977-0.179-1.9,0.308-2.921C20.815,10.494,21.094,11.273,21.394,12.112z"/>
	<path fill-rule="evenodd" clip-rule="evenodd" fill="#30763E" d="M33.225,17.468c-0.237,0.098-0.506,0.154-0.697,0.308
		c-0.109,0.087-0.047,0.363-0.141,0.5c-0.143,0.208-0.348,0.503-0.537,0.512c-0.191,0.008-0.523-0.263-0.562-0.458
		c-0.052-0.258,0.041-0.632,0.216-0.83c0.447-0.507,1.091-0.53,1.724-0.501C33.227,17.155,33.226,17.312,33.225,17.468z"/>
	<path fill-rule="evenodd" clip-rule="evenodd" fill="#E8F3E7" d="M33.265,20.73c-0.134-0.602,0.244-0.876,0.549-1.158
		c0.699,0.181,1.373,0.355,2.06,0.532c-0.267,0.366-0.704,0.411-1.16,0.445C34.268,20.583,33.825,20.658,33.265,20.73z"/>
	<path fill-rule="evenodd" clip-rule="evenodd" fill="#F1F0F0" d="M29.572,25.879c-0.083,0.239-0.104,0.532-0.26,0.708
		c-0.499,0.564-0.847,0.545-1.279-0.041c-0.152-0.206-0.236-0.461-0.353-0.693C28.312,25.861,28.942,25.87,29.572,25.879z"/>
	<path fill-rule="evenodd" clip-rule="evenodd" fill="#DCECDA" d="M18.745,16.626c-0.737-0.073-1.303-0.492-2.007-0.945
		c0.762-0.369,1.281,0.102,1.821,0.248c0.11,0.03,0.108,0.473,0.157,0.726L18.745,16.626z"/>
	<path fill-rule="evenodd" clip-rule="evenodd" fill="#F1F8F0" d="M19.285,14.913c0.004-0.179-0.039-0.379,0.029-0.53
		c0.045-0.101,0.248-0.131,0.38-0.193c0.037,0.113,0.124,0.238,0.099,0.335c-0.042,0.165-0.155,0.311-0.239,0.465
		C19.464,14.964,19.375,14.939,19.285,14.913z"/>
	<path fill-rule="evenodd" clip-rule="evenodd" fill="#F8F7F7" d="M28.175,32.233c1.442,1.853,2.843,3.649,4.302,5.523
		c-2.122,0.14-4.176,0.234-6.139-0.28c-1.479-0.389-2.815-0.022-4.209,0.179c-1.587,0.229-3.173,0.466-4.763,0.68
		c-0.513,0.069-1.152,0.061-1.348-0.429c-0.126-0.315,0.167-0.859,0.383-1.237c0.54-0.946,1.427-1.582,2.3-2.163
		c2.138-1.419,4.336-2.748,6.507-4.118c0.291-0.184,0.561-0.398,1.025-0.73c-0.748-0.202-1.274-0.296-1.763-0.486
		c-0.843-0.329-1.71-0.641-2.482-1.101c-1.044-0.621-1.06-2.55-0.045-3.072c0.239-0.123,0.5-0.231,0.763-0.273
		c1.78-0.279,3.258,0.279,4.399,1.674c0.377,0.46,0.77,0.931,1.032,1.457c0.68,1.362,0.344,2.707-0.897,3.628
		c-0.919,0.683-1.894,1.29-2.829,1.95c-0.142,0.1-0.463,0.241-0.174,0.497c0.092,0.082,0.313,0.101,0.437,0.052
		c0.51-0.2,1.015-0.418,1.503-0.667C26.863,32.967,27.532,32.584,28.175,32.233z M24.292,25.104
		c-0.319,0.376-0.495,0.572-0.657,0.777c-0.252,0.32,0.004,0.574,0.22,0.634c0.178,0.05,0.599-0.141,0.616-0.265
		C24.513,25.942,24.386,25.611,24.292,25.104z"/>
	<path fill-rule="evenodd" clip-rule="evenodd" fill="#ECEBEA" d="M32.141,33.92c-0.543,0.025-1.041-0.07-1.2-0.675
		c-0.059-0.221-0.034-0.55,0.097-0.717c0.323-0.412,0.795-0.609,1.333-0.524c0.662,0.104,1.166,0.573,1.127,1.016
		C33.454,33.521,32.85,33.921,32.141,33.92z"/>
	<path fill-rule="evenodd" clip-rule="evenodd" fill="#ECEBEA" d="M18.134,31.133c-0.68,0.009-1.323-0.441-1.345-0.942
		c-0.019-0.417,0.555-0.901,1.176-0.994c0.672-0.1,1.569,0.497,1.563,1.04C19.524,30.673,18.823,31.123,18.134,31.133z"/>
	<path fill-rule="evenodd" clip-rule="evenodd" fill="#ECEBEA" d="M34.078,36.126c-0.604,0.064-1.179-0.016-1.667-0.402
		c-0.385-0.305-0.396-0.693-0.066-1.065c0.539-0.605,1.563-0.649,2.209-0.078c0.308,0.272,0.423,0.592,0.098,0.941
		c-0.201,0.216-0.407,0.427-0.611,0.641L34.078,36.126z"/>
	<path fill-rule="evenodd" clip-rule="evenodd" fill="#EEECEC" d="M34.04,36.162c0.363-0.005,0.74-0.072,1.086,0.004
		c0.335,0.074,0.674,0.25,0.943,0.465c0.34,0.272,0.305,0.642,0.022,0.962c-0.392,0.445-1.071,0.612-1.623,0.416
		c-0.813-0.291-0.972-0.736-0.548-1.537c0.059-0.112,0.104-0.23,0.157-0.346L34.04,36.162z"/>
	<path fill-rule="evenodd" clip-rule="evenodd" fill="#F1F0F0" d="M31.13,29.739c0.756-0.009,1.299,0.379,1.294,0.923
		c-0.005,0.56-0.555,1.013-1.242,1.023c-0.666,0.011-1.289-0.442-1.307-0.951C29.856,30.208,30.439,29.746,31.13,29.739z"/>
	<path fill-rule="evenodd" clip-rule="evenodd" fill="#F1F0F0" d="M11.685,36.824c0.335-0.311,0.558-0.607,0.854-0.771
		c0.648-0.361,1.419-0.176,1.849,0.376c0.234,0.301,0.209,0.591-0.035,0.87c-0.48,0.552-1.196,0.694-1.857,0.301
		C12.208,37.431,11.999,37.132,11.685,36.824z"/>
	<path fill-rule="evenodd" clip-rule="evenodd" fill="#F1F0F0" d="M14.23,33.606c0.138,0.035,0.416,0.066,0.657,0.178
		c0.293,0.136,0.601,0.353,0.479,0.73c-0.09,0.277-0.261,0.639-0.492,0.736c-0.39,0.165-0.831,0.277-1.298,0.088
		c-0.577-0.232-0.807-0.469-0.742-0.97c0.064-0.495,0.392-0.691,0.848-0.734C13.82,33.622,13.959,33.62,14.23,33.606z"/>
	<path fill-rule="evenodd" clip-rule="evenodd" fill="#F1F0F0" d="M15.625,31.376c0.411,0.024,0.599,0.011,0.776,0.05
		c0.385,0.086,0.658,0.297,0.709,0.725c0.05,0.419-0.142,0.701-0.482,0.911c-0.577,0.358-1.144,0.162-1.673-0.083
		c-0.472-0.218-0.572-0.797-0.187-1.138C15.053,31.59,15.451,31.467,15.625,31.376z"/>
	<path fill-rule="evenodd" clip-rule="evenodd" fill="#E4E3E3" d="M24.073,30.319c-0.558,0.353-1.006,0.659-1.476,0.927
		c-0.461,0.264-0.928,0.073-1.236-0.451c-0.258-0.438,0.06-0.773,0.317-0.931C22.464,29.385,22.822,29.187,24.073,30.319z"/>
	<path fill-rule="evenodd" clip-rule="evenodd" fill="#F1F0F0" d="M29.665,27.486c1.07,0,1.683,0.472,1.597,1.025
		c-0.08,0.521-0.794,0.883-1.519,0.75c-0.215-0.04-0.542-0.078-0.604-0.215c-0.16-0.352-0.368-0.829-0.243-1.121
		C29.012,27.652,29.534,27.554,29.665,27.486z"/>
	<path fill-rule="evenodd" clip-rule="evenodd" fill="#E6E5E4" d="M21.013,32.159c-0.548,0.38-1.01,0.669-1.436,1.005
		c-0.451,0.355-0.787,0.141-1.056-0.2c-0.271-0.343-0.287-0.721,0.072-1.062C19.283,31.246,19.762,31.274,21.013,32.159z"/>
	<path fill-rule="evenodd" clip-rule="evenodd" fill="#EEECEC" d="M21.93,28.984c-0.798,0.268-1.446,0.396-2.034-0.08
		c-0.177-0.142-0.304-0.441-0.313-0.674c-0.016-0.415,0.28-0.686,0.676-0.705c0.219-0.011,0.496,0.121,0.662,0.278
		C21.246,28.112,21.51,28.483,21.93,28.984z"/>
	<path fill-rule="evenodd" clip-rule="evenodd" fill="#EEECEC" d="M16.663,35.157c-0.301-1.432-0.08-1.599,1.779-1.432
		C17.966,34.389,17.359,34.786,16.663,35.157z"/>
	<path fill-rule="evenodd" clip-rule="evenodd" fill="#BFBEBE" d="M28.411,31.543c0.232-0.692,0.367-1.093,0.517-1.538
		C29.517,30.754,29.5,30.826,28.411,31.543z"/>
	<path fill-rule="evenodd" clip-rule="evenodd" fill="#F1F8F0" d="M19.842,13.577c-0.033,0.07-0.066,0.14-0.1,0.209
		c-0.038-0.037-0.075-0.075-0.112-0.112c0.07-0.033,0.14-0.066,0.209-0.1L19.842,13.577z"/>
	<path fill-rule="evenodd" clip-rule="evenodd" fill="#444545" d="M24.292,25.104c0.093,0.506,0.221,0.838,0.179,1.146
		c-0.017,0.124-0.438,0.314-0.616,0.265c-0.216-0.061-0.472-0.314-0.22-0.634C23.798,25.676,23.973,25.481,24.292,25.104z"/>
</g>
</svg>
