<?xml version="1.0" encoding="utf-8"?>
<!-- Generator: Adobe Illustrator 16.0.0, SVG Export Plug-In . SVG Version: 6.00 Build 0)  -->
<!DOCTYPE svg PUBLIC "-//W3C//DTD SVG 1.1//EN" "http://www.w3.org/Graphics/SVG/1.1/DTD/svg11.dtd">
<svg version="1.1" id="Layer_1" xmlns="http://www.w3.org/2000/svg" xmlns:xlink="http://www.w3.org/1999/xlink" x="0px" y="0px"
	 width="50px" height="50px" viewBox="0 0 50 50" enable-background="new 0 0 50 50" xml:space="preserve">
<g>
	<path fill-rule="evenodd" clip-rule="evenodd" fill="#216936" d="M30.613,39.412c-0.566,0.76-0.908,1.416-1.43,1.864
		c-0.504,0.434-1.159,0.519-1.911,0.396c-1.063-0.174-2.184-0.178-3.257-0.054c-1.565,0.181-2.413-0.176-3.046-1.571
		c-0.074-0.162-0.11-0.341-0.201-0.635c-0.823,0-1.681-0.024-2.538,0.008c-0.772,0.028-0.94,0.22-0.972,0.982
		c-0.017,0.41,0.015,0.821-0.007,1.231c-0.038,0.696,0.058,1.249,0.645,1.806c0.954,0.905,0.665,2.18-0.586,2.776
		c-0.8,0.382-1.682,0.668-2.558,0.802c-1.297,0.198-2.508-0.354-3.61-0.924c-1.195-0.618-1.276-1.933-0.223-2.821
		c0.497-0.419,0.624-0.822,0.597-1.389c-0.02-0.409-0.038-0.824,0.004-1.23c0.06-0.566-0.146-0.966-0.617-1.261
		c-0.153-0.096-0.292-0.219-0.42-0.348c-1.279-1.289-0.919-2.552,0.174-3.395c0.683-0.525,0.908-1.03,0.863-1.811
		c-0.039-0.682-0.043-1.37,0.002-2.052c0.043-0.646-0.112-1.141-0.681-1.508c-0.664-0.429-0.786-1.104-0.628-1.811
		c0.178-0.795,0.82-1.325,1.53-1.371c1.748-0.113,3.51-0.059,5.261,0.009c0.419,0.016,0.945,0.419,1.207,0.794
		c0.855,1.229,2.142,1.945,3.229,2.895c0.187,0.163,0.474,0.253,0.728,0.292c1.815,0.275,2.13,0.521,2.708,2.233
		c0.192,0.009,0.413,0.022,0.634,0.028c0.225,0.005,0.45,0.001,0.693,0.001c0.149-0.353,0.278-0.679,0.426-0.996
		c0.357-0.772,0.991-1.221,1.815-1.215c0.808,0.007,1.381-0.366,1.927-0.855c0.948-0.85,1.887-1.708,2.822-2.571
		c0.449-0.416,0.953-0.744,1.575-0.689c1.436,0.125,2.866,0.067,4.301,0.015c0.339-0.012,0.721,0.124,1.022,0.297
		c1.302,0.741,1.439,2.066,0.241,2.978c-0.488,0.371-0.578,0.737-0.561,1.256c0.021,0.593,0.024,1.188,0.001,1.779
		c-0.04,1.001,0.03,1.826,0.994,2.562c1.142,0.871,0.95,2.513-0.296,3.371c-0.592,0.408-0.751,0.813-0.701,1.446
		c0.035,0.453,0.027,0.913,0.001,1.367c-0.028,0.483,0.117,0.83,0.477,1.194c1.121,1.138,0.785,2.52-0.721,3.103
		c-0.627,0.243-1.266,0.508-1.923,0.605c-0.564,0.084-1.169-0.016-1.743-0.108c-0.485-0.079-0.958-0.253-1.429-0.407
		c-0.256-0.083-0.522-0.177-0.741-0.327c-0.937-0.644-1.456-1.728-0.353-2.733c0.607-0.553,0.728-1.068,0.689-1.766
		c-0.02-0.363,0.003-0.729-0.005-1.095c-0.019-0.923-0.167-1.101-1.098-1.14C32.107,39.385,31.285,39.412,30.613,39.412z
		 M15.075,31.951c0-0.775,0.028-1.553-0.01-2.325c-0.022-0.441-0.297-0.854-0.751-0.794c-0.264,0.035-0.672,0.446-0.681,0.698
		c-0.051,1.593-0.027,3.188,0.019,4.781c0.01,0.337,0.123,0.714,0.645,0.716c0.542,0.002,0.749-0.308,0.769-0.752
		C15.101,33.502,15.076,32.726,15.075,31.951z M25.36,39.937c0.644,0.031,0.976-0.165,0.933-0.694
		c-0.081-0.977,0.293-1.627,1.093-2.107c0.111-0.066,0.255-0.193,0.259-0.298c0.011-0.246,0.027-0.564-0.11-0.723
		c-0.139-0.161-0.455-0.197-0.702-0.227c-0.102-0.013-0.225,0.134-0.337,0.211c-0.935,0.644-0.935,0.644-1.908-0.018
		c-0.075-0.051-0.147-0.105-0.223-0.154c-0.344-0.222-0.645-0.075-0.811,0.208c-0.113,0.192-0.156,0.532-0.059,0.716
		c0.139,0.265,0.404,0.498,0.669,0.652c0.488,0.284,0.695,0.654,0.642,1.22c-0.024,0.258,0.027,0.552,0.139,0.784
		C25.042,39.71,25.271,39.85,25.36,39.937z M15.329,44.329c-0.428-1.222-0.192-2.415-0.248-3.587
		c-0.041-0.856-0.362-1.417-0.809-1.356c-0.4,0.054-0.629,0.548-0.675,1.341c-0.068,1.173,0.175,2.355-0.229,3.522
		c-0.15,0.433,0.432,0.906,0.958,0.907C14.844,45.157,15.328,44.721,15.329,44.329z M35.874,44.251
		c0.125,0.22,0.225,0.634,0.475,0.77c0.273,0.147,0.758,0.159,1.018,0.006c0.249-0.147,0.529-0.658,0.447-0.88
		c-0.429-1.157-0.121-2.336-0.227-3.496c-0.024-0.268,0.035-0.597-0.1-0.787c-0.156-0.219-0.479-0.416-0.738-0.43
		c-0.165-0.009-0.42,0.31-0.502,0.53c-0.089,0.24-0.008,0.538-0.03,0.809C36.129,41.885,36.463,43.031,35.874,44.251z
		 M36.223,31.896c0.001,0,0.002,0,0.002,0c0,0.818-0.001,1.638,0.001,2.456c0.001,0.369,0.176,0.6,0.551,0.653
		c0.447,0.064,0.689-0.186,0.787-0.574c0.054-0.215,0.022-0.452,0.022-0.68c0.001-1.138,0.004-2.274-0.002-3.412
		c-0.001-0.316,0.034-0.653-0.062-0.942c-0.112-0.341-0.379-0.605-0.807-0.515c-0.367,0.077-0.505,0.32-0.497,0.693
		C36.233,30.349,36.223,31.122,36.223,31.896z M16.734,29.764c-0.185,0.171-0.486,0.32-0.531,0.525
		c-0.055,0.252,0.012,0.659,0.188,0.812c1.131,0.971,2.306,1.893,3.47,2.827c0.359,0.288,0.702,0.397,1.028-0.069
		c0.267-0.383,0.113-0.718-0.158-0.945c-1.179-0.987-2.385-1.94-3.584-2.902C17.044,29.929,16.92,29.874,16.734,29.764z
		 M30.825,34.167c0.071-0.038,0.242-0.101,0.377-0.208c1.204-0.963,2.41-1.925,3.597-2.91c0.317-0.264,0.361-0.595,0.037-0.939
		c-0.309-0.327-0.579-0.362-0.932-0.065c-1.112,0.935-2.242,1.85-3.358,2.779c-0.135,0.112-0.264,0.258-0.338,0.414
		C30.025,33.626,30.323,34.146,30.825,34.167z M20.378,36.904c-0.004-0.091,0.008-0.186-0.015-0.271
		c-0.123-0.463-1.612-1.671-2.07-1.633c-0.197,0.018-0.449,0.149-0.551,0.309c-0.099,0.155-0.133,0.52-0.033,0.608
		c0.606,0.536,1.229,1.065,1.908,1.504C19.946,37.634,20.347,37.305,20.378,36.904z M31.495,37.602
		c0.673-0.615,1.338-1.196,1.957-1.823c0.072-0.074-0.042-0.482-0.18-0.578c-0.191-0.134-0.57-0.246-0.723-0.146
		c-0.6,0.398-1.17,0.854-1.688,1.355c-0.131,0.127-0.097,0.522-0.012,0.746C30.913,37.317,31.186,37.398,31.495,37.602z
		 M35.866,35.465c-0.167,0.112-0.421,0.206-0.42,0.297c0.003,0.293,0.009,0.659,0.177,0.863c0.569,0.693,1.719,0.716,2.438,0.113
		c0.302-0.254,0.499-0.583,0.294-0.945c-0.227-0.402-0.616-0.338-0.92-0.082c-0.372,0.313-0.715,0.285-1.09,0.047
		C36.199,35.665,36.051,35.577,35.866,35.465z M35.385,37.922c0.005,0.074-0.003,0.168,0.021,0.253
		c0.133,0.501,0.83,0.925,1.505,0.92c0.671-0.005,1.363-0.445,1.496-0.953c0.12-0.456-0.302-0.891-0.693-0.638
		c-0.611,0.396-1.086,0.404-1.682-0.008C35.77,37.315,35.409,37.463,35.385,37.922z M13.162,35.544
		c-0.062,0.059-0.254,0.156-0.289,0.293c-0.046,0.187-0.041,0.45,0.062,0.599c0.659,0.959,2.035,0.972,2.791,0.025
		c0.116-0.146,0.211-0.484,0.133-0.571c-0.155-0.172-0.541-0.386-0.648-0.313c-0.587,0.4-1.115,0.479-1.67-0.027
		C13.491,35.505,13.365,35.544,13.162,35.544z M15.939,37.982c0.012-0.327-0.494-0.693-0.793-0.482c-0.551,0.387-1,0.497-1.55,0.011
		c-0.101-0.089-0.552,0.04-0.669,0.197c-0.11,0.146-0.081,0.601,0.044,0.683c0.435,0.288,0.918,0.587,1.419,0.671
		C15.018,39.167,15.923,38.443,15.939,37.982z M23.208,34.542c-0.045-0.446-0.638-0.76-1.002-0.489
		c-0.358,0.265-0.712,0.567-0.969,0.924c-0.27,0.376,0.041,1.025,0.442,1.071C22.151,36.102,23.255,35.014,23.208,34.542z
		 M30.094,35.244c-0.355-0.397-0.667-0.77-1.003-1.117c-0.248-0.255-0.546-0.335-0.847-0.075c-0.329,0.283-0.368,0.644-0.118,0.971
		c0.245,0.319,0.544,0.611,0.865,0.855c0.143,0.109,0.457,0.163,0.587,0.079C29.774,35.83,29.878,35.56,30.094,35.244z"/>
	<path fill-rule="evenodd" clip-rule="evenodd" fill="#216936" d="M26.261,18.044c-0.525,0-0.933,0-1.364,0
		c-0.14,0.336-0.26,0.667-0.412,0.981c-0.366,0.759-0.989,1.226-1.82,1.211c-0.757-0.014-1.329,0.3-1.813,0.775
		c-0.901,0.885-2.045,1.487-2.771,2.599c-0.266,0.407-1.009,0.707-1.532,0.702c-1.484-0.012-2.967,0.007-4.451,0.015
		c-0.337,0.001-0.708-0.16-1.006-0.342c-1.149-0.7-1.329-1.967-0.296-2.817c0.626-0.516,0.75-1.061,0.724-1.772
		c-0.028-0.774-0.029-1.551,0.002-2.326c0.02-0.509-0.169-0.823-0.581-1.135c-1.619-1.229-1.711-2.561-0.199-3.806
		c0.604-0.498,0.858-0.994,0.777-1.734c-0.035-0.315-0.018-0.638-0.003-0.957c0.023-0.514-0.072-0.89-0.527-1.284
		c-1.237-1.071-0.968-2.454,0.551-3.098c0.701-0.297,1.433-0.576,2.178-0.694c0.555-0.088,1.158,0.068,1.731,0.168
		c0.44,0.076,0.868,0.23,1.299,0.357c1.403,0.413,2.457,1.956,0.952,3.307c-0.232,0.209-0.39,0.593-0.423,0.912
		c-0.065,0.632-0.038,1.276-0.015,1.914c0.026,0.688,0.209,0.9,0.884,0.929c0.86,0.038,1.723,0.009,2.576,0.009
		c0.167-0.389,0.283-0.729,0.453-1.039c0.533-0.975,1.493-1.331,2.627-1.208c1.078,0.116,2.188,0.177,3.258,0.051
		c1.694-0.199,2.524,0.197,3.145,1.786c0.047,0.12,0.101,0.237,0.176,0.412c0.825,0,1.642,0.021,2.457-0.005
		c1.037-0.033,1.172-0.183,1.188-1.188c0.008-0.456-0.011-0.913,0.005-1.368c0.018-0.514-0.055-0.903-0.533-1.284
		c-1.365-1.086-0.652-2.637,0.613-3.092c0.675-0.243,1.355-0.476,2.048-0.661c0.3-0.08,0.653-0.102,0.949-0.024
		c0.951,0.25,1.945,0.441,2.813,0.875c1.202,0.601,1.353,1.864,0.396,2.81c-0.396,0.393-0.595,0.757-0.545,1.303
		c0.038,0.407,0.025,0.821,0.004,1.231c-0.035,0.66,0.073,1.121,0.729,1.572c1.332,0.915,1.35,2.567,0.047,3.574
		c-0.633,0.489-0.825,0.966-0.78,1.686c0.039,0.636,0.027,1.277,0.003,1.915c-0.03,0.784,0.061,1.383,0.798,1.97
		c1.104,0.878,0.488,2.797-1.014,2.974c-1.77,0.209-3.586,0.083-5.378,0.001c-0.382-0.018-0.772-0.439-1.11-0.732
		c-1.03-0.894-2.021-1.833-3.063-2.713c-0.294-0.248-0.708-0.496-1.069-0.499C27.424,20.292,26.603,19.512,26.261,18.044z
		 M13.634,19.389c-0.012,0-0.024,0-0.036,0c0,0.775-0.016,1.551,0.006,2.326c0.013,0.45,0.248,0.84,0.714,0.848
		c0.464,0.008,0.74-0.381,0.748-0.821c0.027-1.55,0.026-3.102-0.001-4.652c-0.008-0.445-0.237-0.751-0.776-0.744
		c-0.519,0.007-0.618,0.384-0.64,0.724C13.6,17.84,13.634,18.616,13.634,19.389z M27.736,14.709
		c-0.124-0.153-0.275-0.446-0.515-0.612c-0.635-0.438-1.055-0.948-0.896-1.774c0.017-0.085,0.006-0.184-0.018-0.269
		c-0.104-0.374-0.278-0.628-0.738-0.64c-0.486-0.013-0.716,0.292-0.696,0.644c0.058,1.005-0.329,1.717-1.188,2.202
		c-0.038,0.021-0.063,0.063-0.094,0.097c-0.237,0.259-0.34,0.536-0.092,0.844c0.252,0.312,0.545,0.483,0.928,0.204
		c0.182-0.133,0.359-0.274,0.532-0.419c0.456-0.383,0.88-0.389,1.3,0.066c0.15,0.163,0.335,0.314,0.532,0.413
		C27.201,15.672,27.746,15.299,27.736,14.709z M15.332,7.011c0.004-0.337-0.473-0.782-0.98-0.792
		c-0.524-0.01-1.124,0.441-0.984,0.867c0.406,1.248,0.156,2.512,0.232,3.766c0.032,0.523,0.12,1.016,0.73,1.132
		c0.395,0.076,0.698-0.382,0.746-1.098C15.16,9.634,14.891,8.359,15.332,7.011z M35.952,7.259c0.518,1.164,0.175,2.488,0.268,3.781
		c0.01,0.136-0.047,0.312,0.02,0.4c0.15,0.202,0.343,0.477,0.548,0.504c0.204,0.028,0.521-0.157,0.648-0.345
		c0.136-0.2,0.123-0.51,0.148-0.774c0.118-1.204-0.208-2.424,0.246-3.627c0.188-0.499-0.407-0.995-1.005-0.978
		C36.204,6.239,35.916,6.546,35.952,7.259z M36.223,19.352c0,0.819,0.012,1.638-0.005,2.457c-0.008,0.379,0.163,0.696,0.502,0.663
		c0.288-0.027,0.564-0.302,0.813-0.507c0.075-0.062,0.052-0.258,0.052-0.393c0.003-1.456,0.005-2.913,0-4.369
		c-0.001-0.457-0.164-0.824-0.681-0.84c-0.527-0.016-0.692,0.322-0.685,0.804C36.229,17.895,36.222,18.623,36.223,19.352z
		 M16.75,21.545c0.045,0,0.107,0.019,0.133-0.003c1.352-1.122,2.709-2.238,4.031-3.393c0.103-0.089,0.019-0.506-0.099-0.694
		c-0.09-0.144-0.472-0.292-0.555-0.227c-1.372,1.091-2.738,2.193-4.054,3.351C15.911,20.84,16.341,21.545,16.75,21.545z
		 M30.73,17.127c-0.19,0.183-0.46,0.329-0.534,0.543c-0.069,0.204-0.022,0.58,0.123,0.705c1.203,1.027,2.445,2.009,3.667,3.015
		c0.325,0.268,0.563,0.157,0.821-0.096c0.32-0.315,0.355-0.659,0.023-0.938c-1.177-0.988-2.377-1.948-3.573-2.913
		C31.122,17.333,30.956,17.261,30.73,17.127z M20.385,14.642c-0.003-0.634-0.504-0.929-0.975-0.626
		c-0.532,0.343-1.012,0.77-1.5,1.177c-0.315,0.263-0.445,0.585-0.135,0.944c0.287,0.333,0.638,0.344,0.97,0.097
		c0.474-0.352,0.937-0.721,1.374-1.117C20.271,14.98,20.333,14.742,20.385,14.642z M38.42,13.371
		c-0.041-0.568-0.752-1.085-1.503-1.093c-0.752-0.008-1.455,0.472-1.531,1.046c-0.057,0.427,0.298,0.779,0.639,0.555
		c0.596-0.391,1.075-0.424,1.683-0.011C38.05,14.101,38.448,13.766,38.42,13.371z M38.419,15.289
		c-0.045-0.566-0.759-1.084-1.503-1.092c-0.75-0.007-1.451,0.473-1.529,1.048c-0.058,0.426,0.296,0.773,0.64,0.549
		c0.597-0.39,1.077-0.409,1.683-0.009C38.057,16.016,38.45,15.683,38.419,15.289z M33.486,15.73
		c-0.02-0.071-0.013-0.248-0.097-0.319c-0.58-0.501-1.159-1.009-1.789-1.442c-0.137-0.094-0.565,0.035-0.699,0.195
		c-0.135,0.162-0.189,0.612-0.074,0.725c0.547,0.531,1.134,1.036,1.769,1.456C32.948,16.577,33.457,16.206,33.486,15.73z
		 M15.94,15.338c-0.022-0.084-0.029-0.176-0.068-0.252c-0.544-1.055-2.27-1.146-2.945-0.138c-0.099,0.148-0.14,0.483-0.048,0.579
		c0.156,0.163,0.537,0.35,0.651,0.272c0.554-0.375,1.019-0.415,1.596-0.015C15.429,15.993,15.931,15.65,15.94,15.338z
		 M14.412,13.424c0.25,0.167,0.459,0.399,0.7,0.44c0.223,0.038,0.568-0.063,0.694-0.229c0.098-0.129,0.02-0.52-0.116-0.676
		c-0.662-0.763-1.592-0.992-2.618-0.111c-0.223,0.191-0.464,0.452-0.192,0.818c0.241,0.324,0.521,0.314,0.83,0.159
		C13.949,13.705,14.175,13.56,14.412,13.424z M23.5,16.856c-0.564-0.563-0.938-0.993-1.375-1.341
		c-0.152-0.121-0.584-0.139-0.677-0.027c-0.169,0.203-0.334,0.644-0.229,0.796c0.298,0.429,0.688,0.848,1.138,1.092
		C22.539,17.475,22.972,17.111,23.5,16.856z M28.539,17.465c0.622,0.063,1.614-1.157,1.37-1.723
		c-0.126-0.291-0.405-0.607-0.741-0.357c-0.427,0.318-0.826,0.712-1.123,1.151C27.803,16.894,28.139,17.423,28.539,17.465z"/>
	<path fill-rule="evenodd" clip-rule="evenodd" fill="#E8F1E6" d="M15.076,31.951c0,0.774,0.025,1.551-0.01,2.324
		c-0.021,0.444-0.227,0.754-0.769,0.752c-0.522-0.002-0.635-0.379-0.645-0.716c-0.046-1.593-0.07-3.188-0.019-4.781
		c0.008-0.252,0.417-0.663,0.681-0.698c0.454-0.061,0.729,0.353,0.751,0.794C15.103,30.398,15.075,31.176,15.076,31.951z"/>
	<path fill-rule="evenodd" clip-rule="evenodd" fill="#EBF4EA" d="M25.36,39.937c-0.089-0.087-0.318-0.227-0.416-0.43
		c-0.112-0.232-0.163-0.526-0.139-0.784c0.053-0.565-0.154-0.936-0.642-1.22c-0.265-0.154-0.53-0.388-0.669-0.652
		c-0.097-0.184-0.054-0.523,0.059-0.716c0.166-0.283,0.467-0.43,0.811-0.208c0.076,0.049,0.148,0.104,0.223,0.154
		c0.973,0.661,0.973,0.661,1.908,0.018c0.112-0.077,0.235-0.224,0.337-0.211c0.247,0.029,0.563,0.065,0.702,0.227
		c0.138,0.158,0.121,0.477,0.11,0.723c-0.004,0.104-0.147,0.231-0.259,0.298c-0.8,0.48-1.174,1.131-1.093,2.107
		C26.336,39.771,26.004,39.968,25.36,39.937z"/>
	<path fill-rule="evenodd" clip-rule="evenodd" fill="#ECF3EA" d="M15.329,44.329c-0.001,0.392-0.485,0.828-1.003,0.827
		c-0.526-0.001-1.108-0.475-0.958-0.907c0.404-1.167,0.161-2.35,0.229-3.522c0.046-0.793,0.275-1.287,0.675-1.341
		c0.447-0.061,0.768,0.5,0.809,1.356C15.137,41.914,14.901,43.107,15.329,44.329z"/>
	<path fill-rule="evenodd" clip-rule="evenodd" fill="#F6FAF4" d="M35.874,44.251c0.589-1.22,0.255-2.366,0.343-3.479
		c0.022-0.271-0.059-0.568,0.03-0.809c0.082-0.221,0.337-0.539,0.502-0.53c0.26,0.014,0.582,0.211,0.738,0.43
		c0.135,0.19,0.075,0.52,0.1,0.787c0.105,1.16-0.202,2.339,0.227,3.496c0.082,0.222-0.198,0.732-0.447,0.88
		c-0.26,0.153-0.744,0.142-1.018-0.006C36.099,44.885,35.999,44.471,35.874,44.251z"/>
	<path fill-rule="evenodd" clip-rule="evenodd" fill="#F8FBF6" d="M36.223,31.896c0-0.773,0.011-1.547-0.004-2.32
		c-0.008-0.373,0.13-0.616,0.497-0.693c0.428-0.091,0.694,0.174,0.807,0.515c0.096,0.289,0.061,0.626,0.062,0.942
		c0.006,1.138,0.003,2.274,0.002,3.412c0,0.228,0.031,0.465-0.022,0.68c-0.098,0.389-0.34,0.639-0.787,0.574
		c-0.375-0.054-0.55-0.284-0.551-0.653c-0.002-0.818-0.001-1.638-0.001-2.456C36.225,31.896,36.224,31.896,36.223,31.896z"/>
	<path fill-rule="evenodd" clip-rule="evenodd" fill="#F3F8F2" d="M16.734,29.764c0.186,0.11,0.31,0.165,0.412,0.247
		c1.199,0.962,2.406,1.915,3.584,2.902c0.271,0.228,0.425,0.563,0.158,0.945c-0.326,0.467-0.669,0.357-1.028,0.069
		c-1.164-0.935-2.338-1.856-3.47-2.827c-0.176-0.152-0.243-0.56-0.188-0.812C16.248,30.084,16.55,29.935,16.734,29.764z"/>
	<path fill-rule="evenodd" clip-rule="evenodd" fill="#F4F9F4" d="M30.825,34.167c-0.502-0.021-0.8-0.541-0.617-0.93
		c0.074-0.156,0.203-0.302,0.338-0.414c1.116-0.93,2.246-1.845,3.358-2.779c0.353-0.297,0.623-0.262,0.932,0.065
		c0.324,0.345,0.28,0.676-0.037,0.939c-1.187,0.985-2.393,1.947-3.597,2.91C31.067,34.066,30.896,34.129,30.825,34.167z"/>
	<path fill-rule="evenodd" clip-rule="evenodd" fill="#F4F9F3" d="M20.377,36.904c-0.03,0.4-0.431,0.729-0.76,0.518
		c-0.678-0.438-1.302-0.968-1.908-1.504c-0.1-0.089-0.066-0.453,0.033-0.608c0.102-0.159,0.354-0.291,0.551-0.309
		c0.458-0.038,1.947,1.17,2.07,1.633C20.386,36.719,20.374,36.813,20.377,36.904z"/>
	<path fill-rule="evenodd" clip-rule="evenodd" fill="#F5FAF4" d="M31.495,37.602c-0.31-0.203-0.582-0.284-0.645-0.445
		c-0.085-0.224-0.119-0.619,0.012-0.746c0.518-0.501,1.088-0.957,1.688-1.355c0.152-0.101,0.531,0.012,0.723,0.146
		c0.138,0.096,0.252,0.504,0.18,0.578C32.833,36.405,32.168,36.986,31.495,37.602z"/>
	<path fill-rule="evenodd" clip-rule="evenodd" fill="#EBF3E9" d="M35.866,35.465c0.185,0.112,0.333,0.2,0.479,0.293
		c0.375,0.238,0.718,0.266,1.09-0.047c0.304-0.256,0.693-0.32,0.92,0.082c0.205,0.362,0.008,0.691-0.294,0.945
		c-0.719,0.603-1.868,0.58-2.438-0.113c-0.168-0.204-0.174-0.57-0.177-0.863C35.445,35.671,35.699,35.577,35.866,35.465z"/>
	<path fill-rule="evenodd" clip-rule="evenodd" fill="#EBF4EA" d="M35.385,37.922c0.024-0.459,0.385-0.606,0.646-0.426
		c0.596,0.412,1.07,0.404,1.682,0.008c0.392-0.253,0.813,0.182,0.693,0.638c-0.133,0.508-0.825,0.948-1.496,0.953
		c-0.675,0.005-1.372-0.419-1.505-0.92C35.382,38.09,35.39,37.996,35.385,37.922z"/>
	<path fill-rule="evenodd" clip-rule="evenodd" fill="#F0F7EF" d="M13.162,35.544c0.203,0,0.329-0.039,0.379,0.006
		c0.555,0.506,1.083,0.428,1.67,0.027c0.107-0.073,0.493,0.141,0.648,0.313c0.078,0.087-0.017,0.426-0.133,0.571
		c-0.756,0.946-2.131,0.934-2.791-0.025c-0.102-0.148-0.108-0.412-0.062-0.599C12.908,35.7,13.1,35.603,13.162,35.544z"/>
	<path fill-rule="evenodd" clip-rule="evenodd" fill="#F0F7EF" d="M15.939,37.982c-0.016,0.461-0.921,1.185-1.55,1.079
		c-0.5-0.084-0.984-0.383-1.419-0.671c-0.125-0.082-0.154-0.536-0.044-0.683c0.118-0.157,0.568-0.286,0.669-0.197
		c0.55,0.486,0.999,0.376,1.55-0.011C15.445,37.289,15.951,37.655,15.939,37.982z"/>
	<path fill-rule="evenodd" clip-rule="evenodd" fill="#F0F6EF" d="M23.208,34.542c0.048,0.472-1.056,1.56-1.529,1.506
		c-0.401-0.046-0.712-0.695-0.442-1.071c0.257-0.356,0.611-0.659,0.969-0.924C22.57,33.782,23.163,34.096,23.208,34.542z"/>
	<path fill-rule="evenodd" clip-rule="evenodd" fill="#F1F7F0" d="M30.094,35.244c-0.216,0.315-0.319,0.586-0.516,0.713
		c-0.13,0.084-0.444,0.03-0.587-0.079c-0.321-0.244-0.62-0.536-0.865-0.855c-0.25-0.327-0.211-0.688,0.118-0.971
		c0.301-0.26,0.599-0.18,0.847,0.075C29.427,34.475,29.738,34.847,30.094,35.244z"/>
	<path fill-rule="evenodd" clip-rule="evenodd" fill="#E7F0E5" d="M13.634,19.389c0-0.773-0.034-1.549,0.016-2.319
		c0.021-0.34,0.121-0.717,0.64-0.724c0.539-0.007,0.768,0.299,0.776,0.744c0.027,1.551,0.028,3.102,0.001,4.652
		c-0.008,0.439-0.284,0.829-0.748,0.821c-0.466-0.008-0.701-0.397-0.714-0.848c-0.022-0.775-0.006-1.551-0.006-2.326
		C13.61,19.389,13.622,19.389,13.634,19.389z"/>
	<path fill-rule="evenodd" clip-rule="evenodd" fill="#EBF4EA" d="M27.736,14.709c0.01,0.59-0.535,0.962-0.943,0.758
		c-0.197-0.099-0.382-0.25-0.532-0.413c-0.42-0.455-0.845-0.45-1.3-0.066c-0.173,0.145-0.35,0.286-0.532,0.419
		c-0.383,0.279-0.676,0.108-0.928-0.204c-0.249-0.308-0.145-0.585,0.092-0.844c0.031-0.034,0.056-0.076,0.094-0.097
		c0.858-0.485,1.245-1.197,1.188-2.202c-0.02-0.352,0.21-0.657,0.696-0.644c0.46,0.012,0.635,0.266,0.738,0.64
		c0.023,0.085,0.034,0.183,0.018,0.269c-0.158,0.826,0.262,1.336,0.896,1.774C27.461,14.263,27.612,14.557,27.736,14.709z"/>
	<path fill-rule="evenodd" clip-rule="evenodd" fill="#ECF3EA" d="M15.332,7.011c-0.441,1.349-0.172,2.623-0.256,3.874
		c-0.048,0.716-0.352,1.174-0.746,1.098c-0.61-0.116-0.698-0.609-0.73-1.132c-0.076-1.253,0.174-2.518-0.232-3.766
		c-0.139-0.426,0.46-0.877,0.984-0.867C14.858,6.229,15.335,6.674,15.332,7.011z"/>
	<path fill-rule="evenodd" clip-rule="evenodd" fill="#F6FAF5" d="M35.952,7.259c-0.036-0.713,0.252-1.02,0.873-1.038
		c0.598-0.017,1.193,0.479,1.005,0.978c-0.454,1.203-0.128,2.423-0.246,3.627c-0.025,0.264-0.013,0.574-0.148,0.774
		c-0.127,0.188-0.444,0.373-0.648,0.345c-0.205-0.027-0.397-0.303-0.548-0.504c-0.066-0.089-0.01-0.265-0.02-0.4
		C36.127,9.747,36.47,8.422,35.952,7.259z"/>
	<path fill-rule="evenodd" clip-rule="evenodd" fill="#F8FBF6" d="M36.222,19.352c0-0.729,0.008-1.457-0.003-2.185
		c-0.008-0.482,0.157-0.82,0.685-0.804c0.517,0.016,0.68,0.383,0.681,0.84c0.005,1.456,0.003,2.913,0,4.369
		c0,0.135,0.023,0.331-0.052,0.393c-0.248,0.205-0.524,0.48-0.813,0.507c-0.339,0.033-0.51-0.284-0.502-0.663
		C36.234,20.99,36.223,20.17,36.222,19.352z"/>
	<path fill-rule="evenodd" clip-rule="evenodd" fill="#F3F8F2" d="M16.75,21.545c-0.409,0-0.839-0.706-0.543-0.966
		c1.316-1.158,2.682-2.259,4.054-3.351c0.083-0.066,0.465,0.083,0.555,0.227c0.118,0.188,0.202,0.605,0.099,0.694
		c-1.322,1.155-2.68,2.271-4.031,3.393C16.857,21.564,16.795,21.545,16.75,21.545z"/>
	<path fill-rule="evenodd" clip-rule="evenodd" fill="#F3F9F2" d="M30.73,17.127c0.226,0.133,0.392,0.206,0.527,0.316
		c1.196,0.965,2.396,1.925,3.573,2.913c0.332,0.278,0.297,0.623-0.023,0.938c-0.258,0.253-0.496,0.364-0.821,0.096
		c-1.222-1.006-2.464-1.988-3.667-3.015c-0.146-0.125-0.192-0.501-0.123-0.705C30.271,17.457,30.54,17.311,30.73,17.127z"/>
	<path fill-rule="evenodd" clip-rule="evenodd" fill="#F4F9F3" d="M20.385,14.642c-0.053,0.1-0.114,0.338-0.266,0.476
		c-0.437,0.396-0.9,0.765-1.374,1.117c-0.333,0.247-0.683,0.235-0.97-0.097c-0.31-0.359-0.18-0.681,0.135-0.944
		c0.488-0.407,0.968-0.834,1.5-1.177C19.881,13.713,20.382,14.007,20.385,14.642z"/>
	<path fill-rule="evenodd" clip-rule="evenodd" fill="#EBF3E9" d="M38.42,13.371c0.028,0.395-0.37,0.73-0.713,0.498
		c-0.607-0.413-1.087-0.38-1.683,0.011c-0.341,0.224-0.695-0.128-0.639-0.555c0.076-0.574,0.779-1.055,1.531-1.046
		C37.668,12.285,38.379,12.802,38.42,13.371z"/>
	<path fill-rule="evenodd" clip-rule="evenodd" fill="#EDF5EB" d="M38.419,15.289c0.031,0.394-0.362,0.727-0.71,0.497
		c-0.605-0.4-1.086-0.381-1.683,0.009c-0.344,0.224-0.697-0.124-0.64-0.549c0.078-0.575,0.779-1.056,1.529-1.048
		C37.66,14.205,38.374,14.723,38.419,15.289z"/>
	<path fill-rule="evenodd" clip-rule="evenodd" fill="#F7FBF7" d="M33.486,15.73c-0.029,0.476-0.538,0.847-0.891,0.614
		c-0.635-0.42-1.222-0.925-1.769-1.456c-0.115-0.112-0.061-0.563,0.074-0.725c0.134-0.16,0.563-0.289,0.699-0.195
		c0.63,0.433,1.209,0.941,1.789,1.442C33.474,15.483,33.467,15.659,33.486,15.73z"/>
	<path fill-rule="evenodd" clip-rule="evenodd" fill="#EDF5EC" d="M15.94,15.338c-0.01,0.313-0.512,0.655-0.813,0.446
		c-0.577-0.4-1.042-0.36-1.596,0.015c-0.114,0.078-0.495-0.11-0.651-0.272c-0.092-0.096-0.051-0.431,0.048-0.579
		c0.676-1.007,2.401-0.917,2.945,0.138C15.912,15.162,15.918,15.253,15.94,15.338z"/>
	<path fill-rule="evenodd" clip-rule="evenodd" fill="#F0F7EF" d="M14.412,13.424c-0.236,0.136-0.463,0.281-0.702,0.4
		c-0.31,0.155-0.589,0.165-0.83-0.159c-0.272-0.366-0.031-0.626,0.192-0.818c1.026-0.881,1.956-0.652,2.618,0.111
		c0.136,0.157,0.214,0.547,0.116,0.676c-0.125,0.166-0.471,0.268-0.694,0.229C14.871,13.824,14.662,13.591,14.412,13.424z"/>
	<path fill-rule="evenodd" clip-rule="evenodd" fill="#F0F6EE" d="M23.5,16.856c-0.528,0.254-0.961,0.619-1.144,0.52
		c-0.45-0.244-0.84-0.663-1.138-1.092c-0.106-0.152,0.059-0.594,0.229-0.796c0.093-0.112,0.525-0.094,0.677,0.027
		C22.563,15.864,22.937,16.293,23.5,16.856z"/>
	<path fill-rule="evenodd" clip-rule="evenodd" fill="#EFF6ED" d="M28.539,17.465c-0.4-0.042-0.736-0.571-0.494-0.929
		c0.297-0.439,0.696-0.833,1.123-1.151c0.336-0.25,0.615,0.067,0.741,0.357C30.153,16.308,29.161,17.528,28.539,17.465z"/>
</g>
</svg>
