<?xml version="1.0" encoding="utf-8"?>
<!-- Generator: Adobe Illustrator 16.0.0, SVG Export Plug-In . SVG Version: 6.00 Build 0)  -->
<!DOCTYPE svg PUBLIC "-//W3C//DTD SVG 1.1//EN" "http://www.w3.org/Graphics/SVG/1.1/DTD/svg11.dtd">
<svg version="1.1" id="Layer_1" xmlns="http://www.w3.org/2000/svg" xmlns:xlink="http://www.w3.org/1999/xlink" x="0px" y="0px"
	 width="50px" height="50px" viewBox="0 0 50 50" enable-background="new 0 0 50 50" xml:space="preserve">
<g>
	<path fill-rule="evenodd" clip-rule="evenodd" fill="#141414" d="M18.413,16.352c-2.573,0.763-4.955,0.371-7.01-1.418
		c-1.258-1.095-2.061-2.491-2.261-4.148c-0.528-4.361,2.314-7.401,6.101-8.024c3.508-0.577,6.898,2.101,7.77,6.17
		c2.072-0.444,4.115-0.532,6.016,0.646c1.882,1.167,2.966,2.867,3.368,5.181c2.339-0.615,4.576-0.479,6.571,1.034
		c1.292,0.979,2.146,2.231,2.588,3.8c0.912,3.23-0.361,5.899-4.049,8.364c1.198,3.314,0.271,6.03-1.521,7.838
		c1.697,1.78,2.385,3.95,1.959,6.368c-0.304,1.73-1.229,3.202-2.668,4.237c-2.953,2.126-6.852,1.988-9.849-1.405
		c-1.496,1.797-3.414,2.853-5.759,2.813c-1.74-0.028-3.3-0.67-4.633-1.876c-2.247-2.033-3.521-6.296-0.183-10.149
		c-1.628-1.64-2.251-3.677-1.982-5.945c0.209-1.761,1.104-3.198,2.458-4.353c2.304-1.963,6.451-2.775,10.022,1.005
		c0.91-0.655,1.81-1.324,2.731-1.958c0.307-0.21,0.278-0.455,0.206-0.732c-0.141-0.538-0.293-1.074-0.439-1.607
		C22.972,23.39,19.377,20.936,18.413,16.352z M20.579,12.98c-0.048,0.272-0.06,0.556-0.149,0.813
		c-0.387,1.109-0.435,2.245-0.071,3.339c0.625,1.882,1.906,3.138,3.876,3.58c2.076,0.466,3.819-0.161,5.25-1.711
		c0.271-0.294,0.547-0.586,0.819-0.879c-0.126,0.438-0.207,0.894-0.386,1.309c-0.598,1.392-0.554,2.777,0.096,4.111
		c0.34,0.699,0.853,1.315,1.288,1.967c-2.797,0.186-4.606,1.57-5.323,3.896c-0.407,1.323-0.214,2.537,0.332,3.721
		c0.555,1.202,1.551,2.022,2.802,2.679c-0.396,0.253-0.675,0.419-0.94,0.604c-2.035,1.416-2.87,3.644-2.149,5.968
		c0.845,2.725,3.502,4.021,5.699,3.744c2.142-0.27,4.073-2.004,4.542-3.982c0.537-2.261-0.377-4.485-2.379-5.81
		c-0.257-0.17-0.493-0.371-0.774-0.585c3.694-1.979,4.266-5.461,1.531-8.988c0.259-0.019,0.498-0.015,0.729-0.055
		c3.675-0.643,5.443-3.634,4.493-6.877c-1.168-3.985-5.993-4.831-8.603-2.331c-0.281,0.269-0.653,0.442-0.984,0.66
		c0.048-0.27,0.062-0.552,0.15-0.808c0.4-1.148,0.444-2.319,0.04-3.448c-0.725-2.02-2.142-3.252-4.32-3.559
		c-1.995-0.281-3.577,0.429-4.871,1.91c-0.23,0.263-0.482,0.508-0.724,0.761c0.109-0.393,0.197-0.793,0.332-1.177
		c0.377-1.082,0.574-2.124,0.302-3.317c-0.643-2.827-3.73-4.642-6.269-3.981c-3.364,0.875-4.819,3.785-3.926,6.767
		c1.2,4.009,6.028,4.811,8.604,2.332C19.867,13.371,20.009,12.825,20.579,12.98z M21.719,35.802
		c2.528-1.369,3.796-3.656,3.306-5.814c-0.552-2.429-2.447-4.259-4.574-4.417c-2.709-0.201-4.788,1.099-5.652,3.54
		c-0.462,1.306-0.392,2.61,0.128,3.872c0.53,1.285,1.533,2.158,2.801,2.786c-3.499,2.539-4.269,6.021-1.894,8.595
		c2.147,2.326,5.439,2.402,7.693,0.168c1.066-1.057,1.632-2.354,1.574-3.821C25.011,38.44,23.749,36.854,21.719,35.802z
		 M25.388,36.667c0.76-0.888,0.76-0.888,0.02-1.605C24.75,35.774,24.75,35.774,25.388,36.667z"/>
	<path fill-rule="evenodd" clip-rule="evenodd" fill="#F1ECED" d="M30.277,18.153c0.331-0.218,0.703-0.391,0.984-0.66
		c2.609-2.5,7.435-1.654,8.603,2.331c0.95,3.243-0.818,6.234-4.493,6.877c-0.231,0.04-0.471,0.036-0.729,0.055
		c2.734,3.527,2.163,7.009-1.531,8.988c0.281,0.214,0.518,0.415,0.774,0.585c2.002,1.324,2.916,3.549,2.379,5.81
		c-0.469,1.979-2.4,3.713-4.542,3.982c-2.197,0.277-4.854-1.02-5.699-3.744c-0.721-2.324,0.114-4.552,2.149-5.968
		c0.266-0.185,0.544-0.351,0.94-0.604c-1.251-0.656-2.247-1.477-2.802-2.679c-0.546-1.184-0.739-2.397-0.332-3.721
		c0.716-2.326,2.526-3.711,5.323-3.896c-0.436-0.653-0.948-1.269-1.288-1.968c-0.649-1.334-0.693-2.719-0.096-4.111
		c0.179-0.415,0.26-0.871,0.386-1.309L30.277,18.153z M34.861,16.954c-2.402-0.187-4.526,1.927-4.557,4.404
		c-0.031,2.589,2.29,4.576,4.485,4.515c2.504-0.069,4.636-1.98,4.567-4.435C39.276,18.53,36.979,16.794,34.861,16.954z
		 M35.483,40.863c0.014-2.603-1.743-4.365-4.275-4.471c-2.978-0.124-4.632,2.389-4.626,4.475c0.006,2.353,2.037,4.418,4.433,4.433
		C33.6,45.315,35.471,43.472,35.483,40.863z M35.482,30.81c-0.003-2.58-1.787-4.303-4.324-4.424
		c-2.177-0.104-4.527,1.767-4.577,4.409c-0.046,2.438,2.13,4.542,4.495,4.507C33.659,35.262,35.486,33.444,35.482,30.81z"/>
	<path fill-rule="evenodd" clip-rule="evenodd" fill="#F4EEED" d="M21.719,35.802c2.03,1.053,3.292,2.639,3.382,4.908
		c0.058,1.467-0.508,2.765-1.574,3.821c-2.254,2.234-5.545,2.158-7.693-0.168c-2.375-2.574-1.605-6.056,1.894-8.595
		c-1.268-0.628-2.271-1.501-2.801-2.786c-0.52-1.262-0.59-2.566-0.128-3.872c0.864-2.44,2.943-3.74,5.652-3.54
		c2.126,0.158,4.022,1.988,4.574,4.417C25.516,32.146,24.247,34.433,21.719,35.802z M15.38,30.769
		c-0.014,2.646,1.797,4.473,4.365,4.535c2.302,0.057,4.539-1.977,4.537-4.469c-0.001-2.411-1.982-4.29-4.392-4.452
		C17.458,26.22,15.142,28.51,15.38,30.769z M15.379,40.853c-0.218,2.666,2.392,4.45,4.327,4.464c2.408,0.017,4.566-2.03,4.573-4.447
		c0.005-2.087-1.659-4.521-4.618-4.507C17.692,36.371,15.135,38.271,15.379,40.853z"/>
	<path fill-rule="evenodd" clip-rule="evenodd" fill="#EBEAEE" d="M20.579,12.98c-0.569-0.155-0.712,0.391-0.984,0.653
		c-2.576,2.479-7.403,1.677-8.604-2.332c-0.893-2.982,0.562-5.892,3.926-6.767c2.539-0.66,5.626,1.155,6.269,3.981
		c0.271,1.193,0.075,2.235-0.302,3.317c-0.134,0.384-0.223,0.784-0.332,1.177L20.579,12.98z M15.981,14.164
		c2.213,0.23,4.568-1.821,4.563-4.395C20.54,6.983,18.157,5.2,16.073,5.253c-2.496,0.063-4.63,1.963-4.569,4.417
		C11.577,12.631,13.942,14.338,15.981,14.164z"/>
	<path fill-rule="evenodd" clip-rule="evenodd" fill="#E8E7E9" d="M20.552,13.009c0.242-0.253,0.494-0.498,0.724-0.761
		c1.294-1.481,2.876-2.191,4.871-1.91c2.179,0.307,3.596,1.539,4.32,3.559c0.404,1.128,0.36,2.3-0.04,3.448
		c-0.089,0.256-0.103,0.538-0.15,0.808l0.026-0.03c-0.272,0.292-0.548,0.584-0.819,0.879c-1.431,1.55-3.174,2.177-5.25,1.711
		c-1.97-0.442-3.251-1.698-3.876-3.58c-0.363-1.095-0.315-2.23,0.071-3.339c0.089-0.257,0.102-0.541,0.149-0.813L20.552,13.009z
		 M29.986,15.501c-0.313-2.725-1.905-4.456-4.58-4.435c-2.733,0.021-4.476,1.813-4.472,4.484c0.005,2.93,2.067,4.595,4.59,4.509
		C28.402,19.961,29.77,18.017,29.986,15.501z"/>
	<path fill-rule="evenodd" clip-rule="evenodd" fill="#1D1C50" d="M34.861,16.954c2.117-0.16,4.415,1.576,4.496,4.484
		c0.068,2.455-2.063,4.366-4.567,4.435c-2.195,0.061-4.517-1.926-4.485-4.515C30.335,18.88,32.459,16.767,34.861,16.954z
		 M35.73,21.325c-0.018-0.568-0.452-0.96-0.997-0.902c-0.455,0.049-0.857,0.489-0.865,0.949c-0.008,0.411,0.57,1.017,0.965,1.011
		C35.28,22.377,35.747,21.826,35.73,21.325z M34.885,19.288c0.245,0.08,0.448,0.22,0.597,0.176c0.192-0.057,0.362-0.244,0.49-0.414
		c0.024-0.032-0.171-0.292-0.308-0.371c-0.522-0.298-1.082-0.364-1.611-0.04c-0.155,0.096-0.216,0.348-0.319,0.528
		c0.177,0.09,0.351,0.244,0.532,0.254C34.487,19.436,34.716,19.329,34.885,19.288z M35.448,24.501
		c0.74-0.631,1.233-1.025,1.684-1.464c0.069-0.068-0.004-0.387-0.108-0.497c-0.071-0.074-0.346-0.037-0.473,0.042
		c-0.434,0.267-0.85,0.563-1.252,0.875c-0.085,0.065-0.125,0.252-0.106,0.371C35.221,24.007,35.319,24.175,35.448,24.501z
		 M37.847,21.186c-0.231-0.508-0.407-0.982-0.666-1.406c-0.073-0.119-0.389-0.091-0.593-0.13c-0.019,0.198-0.086,0.405-0.046,0.59
		c0.075,0.356,0.187,0.71,0.332,1.043c0.086,0.195,0.269,0.347,0.408,0.519C37.453,21.615,37.624,21.429,37.847,21.186z
		 M34.527,23.757c-0.059-0.083-0.078-0.13-0.114-0.157c-0.507-0.388-1.01-0.781-1.532-1.147c-0.049-0.035-0.253,0.083-0.328,0.176
		c-0.065,0.082-0.109,0.262-0.063,0.339c0.348,0.578,0.83,1.019,1.507,1.141C34.148,24.137,34.35,23.882,34.527,23.757z
		 M31.86,21.081c0.187,0.325,0.293,0.511,0.4,0.697c0.191-0.162,0.472-0.288,0.557-0.494c0.174-0.42,0.258-0.882,0.342-1.333
		c0.021-0.105-0.077-0.297-0.172-0.342c-0.1-0.047-0.336-0.011-0.382,0.066C32.332,20.14,32.096,20.627,31.86,21.081z"/>
	<path fill-rule="evenodd" clip-rule="evenodd" fill="#ED5957" d="M35.483,40.863c-0.013,2.608-1.884,4.452-4.469,4.437
		c-2.396-0.015-4.427-2.08-4.433-4.433c-0.006-2.086,1.648-4.599,4.626-4.475C33.74,36.498,35.497,38.261,35.483,40.863z
		 M31.071,39.861c-0.483,0.022-1.042,0.562-1.01,0.973c0.038,0.481,0.589,1.033,1.008,1.011c0.504-0.027,0.994-0.643,0.94-1.181
		C31.958,40.141,31.603,39.837,31.071,39.861z M30.893,37.846c-0.147,0.058-0.484,0.122-0.728,0.31
		c-0.126,0.098-0.12,0.415-0.099,0.625c0.006,0.053,0.303,0.1,0.467,0.105c0.314,0.01,0.66-0.099,0.938,0
		c0.43,0.153,0.729-0.046,0.762-0.348c0.021-0.19-0.355-0.462-0.601-0.627C31.496,37.819,31.264,37.871,30.893,37.846z
		 M32.619,39.138c0.195,0.628,0.354,1.199,0.556,1.755c0.052,0.142,0.244,0.338,0.354,0.328c0.148-0.015,0.345-0.178,0.407-0.324
		c0.253-0.591-0.196-1.647-0.801-1.874C33.001,38.972,32.802,39.093,32.619,39.138z M28.156,40.424
		c0.149,0.336,0.253,0.569,0.357,0.803c0.205-0.199,0.483-0.364,0.598-0.606c0.173-0.366,0.247-0.783,0.326-1.186
		c0.021-0.108-0.066-0.322-0.148-0.349c-0.156-0.05-0.453-0.063-0.501,0.019C28.542,39.53,28.356,39.99,28.156,40.424z
		 M33.375,41.726c-0.622,0.396-1.066,0.729-1.556,0.971c-0.318,0.156-0.49,0.382-0.322,0.636c0.097,0.147,0.521,0.231,0.697,0.144
		c0.41-0.205,0.8-0.494,1.113-0.828C33.438,42.507,33.353,42.164,33.375,41.726z M28.585,42.364c0.441,0.381,0.87,0.813,1.367,1.142
		c0.14,0.092,0.479-0.117,0.727-0.189c-0.077-0.184-0.107-0.418-0.24-0.541c-0.307-0.283-0.666-0.509-0.998-0.765
		C29.056,41.714,28.845,41.947,28.585,42.364z"/>
	<path fill-rule="evenodd" clip-rule="evenodd" fill="#ED5957" d="M35.482,30.81c0.004,2.635-1.823,4.452-4.406,4.492
		c-2.365,0.035-4.541-2.069-4.495-4.507c0.05-2.643,2.4-4.514,4.577-4.409C33.695,26.507,35.479,28.229,35.482,30.81z
		 M31.165,29.855c-0.482-0.023-1.083,0.466-1.099,0.896c-0.017,0.466,0.494,1.068,0.931,1.096c0.481,0.029,0.992-0.44,1.014-0.933
		C32.04,30.264,31.736,29.884,31.165,29.855z M31.248,28.765c0.188,0.094,0.299,0.193,0.352,0.168
		c0.232-0.11,0.448-0.256,0.67-0.389c-0.14-0.158-0.252-0.36-0.423-0.466c-0.521-0.32-1.081-0.329-1.589,0.008
		c-0.147,0.098-0.269,0.409-0.224,0.574c0.038,0.138,0.336,0.281,0.519,0.282C30.812,28.943,31.071,28.814,31.248,28.765z
		 M32.633,29.141c0.194,0.66,0.365,1.278,0.567,1.885c0.033,0.099,0.21,0.207,0.319,0.206c0.116-0.001,0.27-0.102,0.34-0.205
		c0.353-0.514,0.063-0.98-0.145-1.446C33.527,29.162,33.284,28.841,32.633,29.141z M33.412,32.07
		c-0.086-0.043-0.288-0.212-0.365-0.167c-0.521,0.304-1.025,0.643-1.514,0.998c-0.079,0.058-0.116,0.299-0.062,0.382
		c0.086,0.13,0.289,0.298,0.403,0.272c0.311-0.069,0.634-0.186,0.892-0.369C33.099,32.95,33.504,32.717,33.412,32.07z
		 M29.151,29.004c-0.133,0.051-0.234,0.064-0.304,0.119c-0.491,0.384-0.768,1.381-0.504,1.938c0.044,0.093,0.431,0.134,0.436,0.118
		c0.231-0.642,0.445-1.291,0.633-1.947C29.426,29.182,29.231,29.072,29.151,29.004z M30.773,33.165
		c-1.515-1.373-1.515-1.373-2.128-0.88C29.807,33.711,29.947,33.77,30.773,33.165z"/>
	<path fill-rule="evenodd" clip-rule="evenodd" fill="#ED5957" d="M15.38,30.769c-0.238-2.259,2.078-4.549,4.51-4.386
		c2.409,0.162,4.39,2.041,4.392,4.452c0.002,2.492-2.235,4.525-4.537,4.469C17.177,35.241,15.366,33.415,15.38,30.769z
		 M19.779,31.846c0.436,0.021,1.037-0.549,1.042-0.989c0.005-0.434-0.548-0.976-1.025-1.001c-0.574-0.032-0.938,0.338-0.95,0.966
		C18.836,31.351,19.264,31.821,19.779,31.846z M20.187,28.788c0.032,0.084,0.064,0.168,0.097,0.253
		c0.194-0.142,0.546-0.286,0.544-0.424c-0.003-0.219-0.229-0.604-0.389-0.618c-0.488-0.044-0.996,0.021-1.481,0.117
		c-0.142,0.029-0.233,0.308-0.348,0.471c0.184,0.123,0.362,0.339,0.551,0.348C19.5,28.951,19.844,28.844,20.187,28.788z
		 M18.211,29.18c-0.566-0.404-0.854-0.072-1.063,0.41c-0.218,0.504-0.583,1.03-0.039,1.533c0.087,0.08,0.505-0.002,0.539-0.095
		C17.87,30.431,18.028,29.809,18.211,29.18z M19.492,33.215c-0.125-0.203-0.169-0.355-0.271-0.427
		c-0.418-0.297-0.848-0.58-1.289-0.842c-0.096-0.058-0.338-0.053-0.371,0.005c-0.086,0.148-0.179,0.385-0.116,0.511
		c0.312,0.627,0.86,0.986,1.538,1.093C19.125,33.577,19.31,33.343,19.492,33.215z M22.414,31.372
		c0.316-0.922,0.262-1.625-0.366-2.213c-0.09-0.084-0.266-0.139-0.38-0.113c-0.098,0.022-0.255,0.234-0.234,0.268
		C21.81,29.914,21.428,30.85,22.414,31.372z M22.26,32.347c-0.258-0.388-0.458-0.644-0.845-0.319
		c-0.286,0.239-0.612,0.435-0.879,0.693c-0.163,0.158-0.396,0.471-0.339,0.589c0.172,0.357,0.546,0.373,0.841,0.14
		C21.472,33.106,21.862,32.709,22.26,32.347z"/>
	<path fill-rule="evenodd" clip-rule="evenodd" fill="#ED5957" d="M15.379,40.853c-0.244-2.582,2.313-4.481,4.282-4.49
		c2.959-0.014,4.624,2.42,4.618,4.507c-0.006,2.417-2.165,4.464-4.573,4.447C17.771,45.303,15.161,43.519,15.379,40.853z
		 M19.862,41.848c0.419-0.023,0.945-0.633,0.936-1.084c-0.008-0.421-0.597-0.913-1.077-0.901c-0.581,0.014-0.926,0.414-0.874,1.013
		C18.89,41.354,19.43,41.871,19.862,41.848z M19.919,37.841c-0.396,0.034-0.606,0.004-0.767,0.078
		c-0.278,0.13-0.713,0.244-0.512,0.672c0.081,0.171,0.432,0.263,0.674,0.299c0.349,0.052,0.711,0.04,1.065,0.016
		c0.154-0.012,0.383-0.089,0.43-0.199c0.06-0.139,0.028-0.438-0.069-0.499C20.439,38.019,20.087,37.91,19.919,37.841z
		 M18.192,39.244c-0.071-0.041-0.258-0.241-0.417-0.221c-0.707,0.088-1.202,1.499-0.714,2.047c0.088,0.099,0.526,0.076,0.55,0.014
		C17.825,40.525,17.98,39.946,18.192,39.244z M19.486,43.235c-0.108-0.204-0.143-0.358-0.239-0.435
		c-0.392-0.309-0.79-0.614-1.215-0.873c-0.118-0.071-0.397-0.037-0.495,0.059c-0.102,0.099-0.155,0.374-0.09,0.498
		c0.321,0.606,0.868,0.953,1.527,1.075C19.117,43.586,19.306,43.355,19.486,43.235z M22.6,40.514
		c-0.021-0.232,0.031-0.508-0.078-0.688c-0.196-0.325-0.243-0.973-0.802-0.787c-0.617,0.206-0.222,0.64-0.069,1.012
		c0.103,0.25,0.045,0.57,0.162,0.809c0.083,0.168,0.338,0.25,0.516,0.371c0.09-0.146,0.194-0.283,0.264-0.438
		C22.627,40.715,22.598,40.608,22.6,40.514z M20.018,43.138c0.907,0.638,1.024,0.588,2.195-0.857c-0.19-0.29-0.386-0.581-0.78-0.275
		C20.992,42.348,20.56,42.702,20.018,43.138z"/>
	<path fill-rule="evenodd" clip-rule="evenodd" fill="#1C1B4F" d="M15.981,14.164c-2.039,0.175-4.404-1.532-4.478-4.493
		c-0.061-2.455,2.074-4.354,4.569-4.417c2.084-0.053,4.466,1.73,4.471,4.516C20.549,12.343,18.194,14.394,15.981,14.164z
		 M15.125,9.763c0.017,0.581,0.442,0.992,0.977,0.946c0.443-0.039,0.864-0.492,0.881-0.948C17,9.283,16.487,8.719,16.046,8.729
		C15.556,8.742,15.11,9.243,15.125,9.763z M16.108,7.774c0.146,0.018,0.354,0.1,0.519,0.048c0.19-0.06,0.431-0.21,0.482-0.374
		c0.036-0.114-0.176-0.377-0.337-0.469c-0.537-0.305-1.102-0.255-1.631,0.031c-0.135,0.073-0.287,0.288-0.271,0.418
		c0.017,0.141,0.206,0.344,0.347,0.37C15.49,7.847,15.781,7.79,16.108,7.774z M13.14,9.098c0,0.341-0.042,0.5,0.01,0.615
		c0.068,0.15,0.233,0.387,0.318,0.372c0.183-0.033,0.427-0.167,0.494-0.324c0.181-0.418,0.311-0.864,0.396-1.312
		c0.032-0.165-0.081-0.402-0.205-0.531c-0.055-0.057-0.383,0.024-0.452,0.13C13.455,8.433,13.267,8.853,13.14,9.098z M18.414,11.017
		c-0.158-0.072-0.433-0.288-0.53-0.226c-0.512,0.325-0.989,0.709-1.448,1.106c-0.061,0.053-0.008,0.38,0.088,0.45
		C17.102,12.772,18.446,11.629,18.414,11.017z M13.936,10.677c-0.513,0.623-0.08,0.925,0.251,1.243
		c0.342,0.329,0.713,0.617,1.237,0.467c0.08-0.023,0.211-0.114,0.204-0.152c-0.03-0.166-0.055-0.384-0.168-0.474
		C14.996,11.396,14.5,11.072,13.936,10.677z M18.667,10.214c0.286-0.668,0.271-1.209-0.07-1.704
		c-0.169-0.245-0.517-0.644-0.638-0.597c-0.495,0.191-0.238,0.571-0.101,0.921c0.118,0.302,0.116,0.653,0.251,0.943
		C18.187,9.947,18.432,10.039,18.667,10.214z"/>
	<path fill-rule="evenodd" clip-rule="evenodd" fill="#212053" d="M29.986,15.501c-0.217,2.516-1.584,4.46-4.461,4.559
		c-2.523,0.086-4.585-1.579-4.59-4.509c-0.004-2.672,1.739-4.463,4.472-4.484C28.081,11.045,29.674,12.776,29.986,15.501z
		 M26.307,15.526c-0.019-0.568-0.304-0.841-0.878-0.84c-0.618,0-0.929,0.352-0.872,0.983c0.049,0.542,0.369,0.802,0.946,0.767
		C26.055,16.403,26.326,16.096,26.307,15.526z M23.426,16.553c-0.129,0.245-0.311,0.426-0.291,0.582
		c0.057,0.458,1.122,1.255,1.58,1.167c0.146-0.028,0.356-0.476,0.336-0.493C24.56,17.396,24.042,17.016,23.426,16.553z
		 M26.557,13.559c-0.003-0.629-0.267-0.866-0.693-0.834c-0.489,0.037-0.974,0.151-1.453,0.267c-0.057,0.014-0.113,0.264-0.075,0.371
		c0.031,0.09,0.199,0.185,0.309,0.188C25.275,13.567,25.907,13.559,26.557,13.559z M27.824,16.864
		c-0.268-0.041-0.5-0.154-0.633-0.083c-0.446,0.242-0.87,0.533-1.271,0.846c-0.094,0.074-0.131,0.353-0.066,0.459
		c0.071,0.117,0.341,0.241,0.437,0.191c0.45-0.23,0.886-0.499,1.293-0.799C27.704,17.391,27.717,17.155,27.824,16.864z
		 M22.858,15.944c0.198-0.088,0.399-0.117,0.424-0.199c0.175-0.561,0.315-1.132,0.438-1.707c0.002-0.01-0.436-0.198-0.516-0.128
		c-0.481,0.416-0.695,0.974-0.613,1.611C22.61,15.667,22.76,15.795,22.858,15.944z M28.411,15.346
		c-0.229-0.489-0.417-0.951-0.666-1.378c-0.063-0.108-0.322-0.102-0.491-0.148c-0.043,0.168-0.147,0.348-0.118,0.503
		c0.075,0.402,0.174,0.809,0.335,1.182c0.07,0.161,0.325,0.344,0.483,0.333C28.096,15.828,28.22,15.565,28.411,15.346z"/>
	<path fill-rule="evenodd" clip-rule="evenodd" fill="#E1E0EB" d="M35.73,21.325c0.017,0.501-0.45,1.052-0.897,1.059
		c-0.395,0.006-0.973-0.6-0.965-1.011c0.008-0.46,0.41-0.9,0.865-0.949C35.278,20.365,35.713,20.757,35.73,21.325z M35.284,21.355
		c-0.196-0.149-0.35-0.34-0.438-0.313c-0.13,0.039-0.296,0.232-0.296,0.359c0.001,0.123,0.192,0.245,0.3,0.367
		C34.969,21.655,35.087,21.543,35.284,21.355z"/>
	<path fill-rule="evenodd" clip-rule="evenodd" fill="#E1E0EB" d="M34.885,19.288c-0.169,0.041-0.397,0.147-0.619,0.134
		c-0.182-0.011-0.355-0.164-0.532-0.254c0.104-0.18,0.164-0.433,0.319-0.528c0.529-0.324,1.089-0.258,1.611,0.04
		c0.137,0.079,0.332,0.339,0.308,0.371c-0.128,0.17-0.298,0.357-0.49,0.414C35.333,19.508,35.13,19.368,34.885,19.288z"/>
	<path fill-rule="evenodd" clip-rule="evenodd" fill="#E8E7F0" d="M35.448,24.501c-0.129-0.326-0.228-0.494-0.256-0.673
		c-0.019-0.119,0.021-0.306,0.106-0.371c0.402-0.312,0.818-0.608,1.252-0.875c0.127-0.079,0.401-0.116,0.473-0.042
		c0.104,0.11,0.178,0.429,0.108,0.497C36.682,23.476,36.188,23.87,35.448,24.501z"/>
	<path fill-rule="evenodd" clip-rule="evenodd" fill="#E8E7F0" d="M37.847,21.186c-0.223,0.243-0.394,0.429-0.564,0.616
		c-0.14-0.172-0.322-0.324-0.408-0.519c-0.146-0.333-0.257-0.687-0.332-1.043c-0.04-0.185,0.027-0.393,0.046-0.59
		c0.204,0.04,0.52,0.011,0.593,0.13C37.439,20.204,37.615,20.678,37.847,21.186z"/>
	<path fill-rule="evenodd" clip-rule="evenodd" fill="#EFEFF5" d="M34.527,23.757c-0.178,0.125-0.379,0.379-0.53,0.352
		c-0.677-0.122-1.159-0.563-1.507-1.141c-0.047-0.077-0.003-0.258,0.063-0.339c0.075-0.093,0.279-0.211,0.328-0.176
		c0.522,0.366,1.025,0.759,1.532,1.147C34.449,23.627,34.469,23.675,34.527,23.757z"/>
	<path fill-rule="evenodd" clip-rule="evenodd" fill="#EFEFF5" d="M31.86,21.081c0.235-0.454,0.472-0.94,0.745-1.405
		c0.046-0.077,0.282-0.114,0.382-0.066c0.095,0.044,0.192,0.236,0.172,0.342c-0.084,0.451-0.168,0.912-0.342,1.333
		c-0.085,0.206-0.365,0.332-0.557,0.494C32.153,21.592,32.047,21.406,31.86,21.081z"/>
	<path fill-rule="evenodd" clip-rule="evenodd" fill="#FDE7E5" d="M31.071,39.861c0.531-0.024,0.887,0.279,0.938,0.803
		c0.054,0.538-0.437,1.153-0.94,1.181c-0.419,0.022-0.97-0.529-1.008-1.011C30.029,40.423,30.588,39.884,31.071,39.861z
		 M31.684,40.912c-0.336-0.282-0.474-0.442-0.51-0.422c-0.132,0.074-0.287,0.194-0.317,0.325c-0.021,0.086,0.156,0.31,0.246,0.311
		C31.27,41.127,31.438,41.011,31.684,40.912z"/>
	<path fill-rule="evenodd" clip-rule="evenodd" fill="#FDE3E2" d="M30.893,37.846c0.371,0.025,0.604-0.026,0.739,0.065
		c0.245,0.165,0.621,0.437,0.601,0.627c-0.032,0.302-0.332,0.501-0.762,0.348c-0.277-0.099-0.623,0.01-0.938,0
		c-0.164-0.006-0.461-0.053-0.467-0.105c-0.021-0.21-0.027-0.527,0.099-0.625C30.408,37.968,30.745,37.903,30.893,37.846z"/>
	<path fill-rule="evenodd" clip-rule="evenodd" fill="#FEEDEB" d="M32.619,39.138c0.183-0.045,0.382-0.166,0.517-0.115
		c0.604,0.227,1.054,1.283,0.801,1.874c-0.063,0.146-0.259,0.31-0.407,0.324c-0.11,0.01-0.303-0.187-0.354-0.328
		C32.974,40.337,32.814,39.766,32.619,39.138z"/>
	<path fill-rule="evenodd" clip-rule="evenodd" fill="#FEF1EF" d="M28.156,40.424c0.2-0.434,0.386-0.894,0.632-1.319
		c0.048-0.082,0.345-0.068,0.501-0.019c0.082,0.026,0.17,0.24,0.148,0.349c-0.079,0.402-0.153,0.819-0.326,1.186
		c-0.114,0.242-0.393,0.407-0.598,0.606C28.409,40.993,28.306,40.76,28.156,40.424z"/>
	<path fill-rule="evenodd" clip-rule="evenodd" fill="#FEEEED" d="M33.375,41.726c-0.022,0.438,0.063,0.781-0.067,0.922
		c-0.313,0.334-0.703,0.623-1.113,0.828c-0.176,0.088-0.601,0.004-0.697-0.144c-0.168-0.254,0.004-0.479,0.322-0.636
		C32.309,42.455,32.753,42.121,33.375,41.726z"/>
	<path fill-rule="evenodd" clip-rule="evenodd" fill="#FEF2F1" d="M28.585,42.364c0.26-0.417,0.471-0.65,0.855-0.354
		c0.332,0.256,0.691,0.481,0.998,0.765c0.133,0.123,0.163,0.357,0.24,0.541c-0.248,0.072-0.587,0.281-0.727,0.189
		C29.455,43.177,29.026,42.745,28.585,42.364z"/>
	<path fill-rule="evenodd" clip-rule="evenodd" fill="#FDE7E5" d="M31.165,29.855c0.571,0.028,0.875,0.408,0.846,1.059
		c-0.021,0.492-0.532,0.962-1.014,0.933c-0.437-0.027-0.947-0.63-0.931-1.096C30.082,30.321,30.683,29.832,31.165,29.855z
		 M31.046,31.279c0.153-0.196,0.321-0.323,0.34-0.468c0.013-0.097-0.191-0.221-0.298-0.332c-0.082,0.137-0.199,0.265-0.233,0.412
		C30.835,30.978,30.949,31.095,31.046,31.279z"/>
	<path fill-rule="evenodd" clip-rule="evenodd" fill="#FDE3E2" d="M31.248,28.765c-0.177,0.05-0.437,0.179-0.695,0.178
		c-0.183-0.001-0.48-0.145-0.519-0.282c-0.045-0.165,0.076-0.477,0.224-0.574c0.508-0.337,1.068-0.328,1.589-0.008
		c0.171,0.105,0.283,0.308,0.423,0.466c-0.222,0.133-0.438,0.278-0.67,0.389C31.547,28.958,31.436,28.858,31.248,28.765z"/>
	<path fill-rule="evenodd" clip-rule="evenodd" fill="#FDE9E7" d="M32.633,29.141c0.651-0.3,0.895,0.021,1.082,0.439
		c0.208,0.466,0.497,0.933,0.145,1.446c-0.07,0.104-0.224,0.204-0.34,0.205c-0.109,0.001-0.286-0.107-0.319-0.206
		C32.998,30.419,32.827,29.801,32.633,29.141z"/>
	<path fill-rule="evenodd" clip-rule="evenodd" fill="#FEEEED" d="M33.412,32.07c0.092,0.646-0.313,0.88-0.646,1.116
		c-0.258,0.184-0.581,0.3-0.892,0.369c-0.114,0.025-0.317-0.143-0.403-0.272c-0.055-0.083-0.018-0.324,0.062-0.382
		c0.488-0.355,0.992-0.694,1.514-0.998C33.124,31.858,33.326,32.027,33.412,32.07z"/>
	<path fill-rule="evenodd" clip-rule="evenodd" fill="#FEF2F1" d="M29.151,29.004c0.08,0.068,0.274,0.178,0.261,0.229
		c-0.188,0.656-0.401,1.306-0.633,1.947c-0.005,0.016-0.392-0.025-0.436-0.118c-0.264-0.558,0.013-1.555,0.504-1.938
		C28.917,29.068,29.019,29.055,29.151,29.004z"/>
	<path fill-rule="evenodd" clip-rule="evenodd" fill="#FEF2F1" d="M30.773,33.165c-0.826,0.604-0.967,0.546-2.128-0.88
		C29.259,31.792,29.259,31.792,30.773,33.165z"/>
	<path fill-rule="evenodd" clip-rule="evenodd" fill="#FDE7E5" d="M19.779,31.846c-0.516-0.024-0.943-0.495-0.933-1.024
		c0.012-0.628,0.376-0.998,0.95-0.966c0.477,0.025,1.03,0.567,1.025,1.001C20.816,31.297,20.215,31.867,19.779,31.846z
		 M19.759,30.338c-0.152,0.189-0.316,0.335-0.293,0.375c0.101,0.179,0.254,0.326,0.389,0.484c0.097-0.099,0.293-0.231,0.273-0.29
		C20.063,30.725,19.918,30.57,19.759,30.338z"/>
	<path fill-rule="evenodd" clip-rule="evenodd" fill="#FDE3E2" d="M20.187,28.788c-0.342,0.056-0.687,0.163-1.025,0.146
		c-0.189-0.009-0.367-0.225-0.551-0.348c0.115-0.163,0.207-0.441,0.348-0.471c0.485-0.097,0.993-0.161,1.481-0.117
		c0.159,0.015,0.386,0.399,0.389,0.618c0.002,0.138-0.351,0.282-0.544,0.424C20.251,28.956,20.219,28.872,20.187,28.788z"/>
	<path fill-rule="evenodd" clip-rule="evenodd" fill="#FEEDEB" d="M18.211,29.18c-0.183,0.629-0.341,1.251-0.563,1.849
		c-0.034,0.093-0.452,0.175-0.539,0.095c-0.544-0.503-0.179-1.029,0.039-1.533C17.357,29.107,17.645,28.775,18.211,29.18z"/>
	<path fill-rule="evenodd" clip-rule="evenodd" fill="#FEEEED" d="M19.492,33.215c-0.183,0.128-0.367,0.362-0.51,0.34
		c-0.678-0.106-1.226-0.466-1.538-1.093c-0.063-0.126,0.03-0.362,0.116-0.511c0.033-0.058,0.275-0.063,0.371-0.005
		c0.441,0.262,0.871,0.545,1.289,0.842C19.323,32.859,19.367,33.012,19.492,33.215z"/>
	<path fill-rule="evenodd" clip-rule="evenodd" fill="#FEF1EF" d="M22.414,31.372c-0.986-0.522-0.604-1.458-0.98-2.059
		c-0.021-0.033,0.136-0.245,0.234-0.268c0.115-0.025,0.291,0.029,0.38,0.113C22.676,29.747,22.729,30.45,22.414,31.372z"/>
	<path fill-rule="evenodd" clip-rule="evenodd" fill="#FEF2F1" d="M22.26,32.347c-0.397,0.362-0.788,0.76-1.222,1.103
		c-0.295,0.233-0.669,0.218-0.841-0.14c-0.057-0.118,0.176-0.431,0.339-0.589c0.267-0.259,0.593-0.454,0.879-0.693
		C21.801,31.703,22.002,31.959,22.26,32.347z"/>
	<path fill-rule="evenodd" clip-rule="evenodd" fill="#FDE7E5" d="M19.862,41.848c-0.433,0.023-0.972-0.494-1.015-0.973
		c-0.053-0.599,0.292-0.999,0.874-1.013c0.48-0.012,1.068,0.48,1.077,0.901C20.807,41.215,20.281,41.824,19.862,41.848z
		 M19.825,40.369c-0.178,0.153-0.356,0.276-0.343,0.302c0.09,0.178,0.219,0.335,0.336,0.499c0.067-0.096,0.191-0.194,0.188-0.288
		C20.001,40.735,19.91,40.593,19.825,40.369z"/>
	<path fill-rule="evenodd" clip-rule="evenodd" fill="#FDE7E5" d="M19.919,37.841c0.167,0.069,0.52,0.178,0.822,0.366
		c0.098,0.061,0.129,0.36,0.069,0.499c-0.047,0.11-0.276,0.188-0.43,0.199c-0.354,0.024-0.717,0.036-1.065-0.016
		c-0.242-0.036-0.594-0.128-0.674-0.299c-0.201-0.428,0.233-0.542,0.512-0.672C19.313,37.845,19.524,37.875,19.919,37.841z"/>
	<path fill-rule="evenodd" clip-rule="evenodd" fill="#FDE9E7" d="M18.192,39.244c-0.212,0.702-0.368,1.281-0.581,1.84
		c-0.024,0.063-0.462,0.085-0.55-0.014c-0.487-0.548,0.007-1.959,0.714-2.047C17.935,39.003,18.122,39.203,18.192,39.244z"/>
	<path fill-rule="evenodd" clip-rule="evenodd" fill="#FEEDEB" d="M19.486,43.235c-0.18,0.12-0.37,0.351-0.512,0.324
		c-0.659-0.122-1.206-0.469-1.527-1.075c-0.065-0.124-0.012-0.399,0.09-0.498c0.098-0.096,0.377-0.13,0.495-0.059
		c0.425,0.259,0.823,0.564,1.215,0.873C19.343,42.877,19.378,43.031,19.486,43.235z"/>
	<path fill-rule="evenodd" clip-rule="evenodd" fill="#FEEDEB" d="M22.599,40.515c0,0.094,0.028,0.2-0.006,0.278
		c-0.069,0.154-0.174,0.292-0.264,0.438c-0.178-0.121-0.433-0.203-0.516-0.371c-0.117-0.238-0.059-0.559-0.162-0.809
		c-0.153-0.372-0.548-0.806,0.069-1.012c0.559-0.186,0.605,0.462,0.802,0.787C22.63,40.006,22.579,40.281,22.599,40.515z"/>
	<path fill-rule="evenodd" clip-rule="evenodd" fill="#FEF2F1" d="M20.018,43.138c0.542-0.436,0.974-0.79,1.415-1.133
		c0.394-0.306,0.59-0.015,0.78,0.276C21.042,43.726,20.925,43.775,20.018,43.138z"/>
	<path fill-rule="evenodd" clip-rule="evenodd" fill="#E1E0EB" d="M15.125,9.763c-0.015-0.521,0.431-1.021,0.921-1.034
		C16.487,8.719,17,9.283,16.983,9.761c-0.017,0.457-0.438,0.91-0.881,0.948C15.567,10.755,15.142,10.344,15.125,9.763z
		 M16.006,10.323c0.168-0.315,0.317-0.467,0.302-0.6c-0.016-0.136-0.193-0.253-0.3-0.378c-0.102,0.132-0.268,0.254-0.288,0.397
		C15.704,9.868,15.848,10.018,16.006,10.323z"/>
	<path fill-rule="evenodd" clip-rule="evenodd" fill="#D1CFE0" d="M16.108,7.774c-0.327,0.016-0.619,0.073-0.891,0.024
		c-0.141-0.025-0.33-0.229-0.347-0.37c-0.016-0.13,0.137-0.345,0.271-0.418c0.529-0.286,1.094-0.336,1.631-0.031
		c0.161,0.091,0.373,0.354,0.337,0.469c-0.051,0.164-0.292,0.314-0.482,0.374C16.462,7.874,16.254,7.792,16.108,7.774z"/>
	<path fill-rule="evenodd" clip-rule="evenodd" fill="#DBDAE7" d="M13.14,9.098c0.127-0.245,0.315-0.666,0.562-1.049
		c0.068-0.106,0.397-0.187,0.452-0.13c0.125,0.129,0.237,0.366,0.205,0.531c-0.085,0.448-0.216,0.894-0.396,1.312
		c-0.067,0.157-0.311,0.291-0.494,0.324c-0.084,0.015-0.25-0.222-0.318-0.372C13.097,9.598,13.14,9.439,13.14,9.098z"/>
	<path fill-rule="evenodd" clip-rule="evenodd" fill="#DBDAE7" d="M18.414,11.017c0.033,0.612-1.312,1.755-1.891,1.331
		c-0.096-0.07-0.149-0.397-0.088-0.45c0.459-0.397,0.937-0.781,1.448-1.106C17.981,10.729,18.255,10.945,18.414,11.017z"/>
	<path fill-rule="evenodd" clip-rule="evenodd" fill="#E8E7F0" d="M13.936,10.677c0.564,0.395,1.06,0.719,1.524,1.084
		c0.113,0.089,0.138,0.308,0.168,0.474c0.007,0.039-0.124,0.129-0.204,0.152c-0.524,0.15-0.895-0.138-1.237-0.467
		C13.856,11.603,13.423,11.3,13.936,10.677z"/>
	<path fill-rule="evenodd" clip-rule="evenodd" fill="#EFEFF5" d="M18.667,10.214c-0.235-0.175-0.479-0.267-0.559-0.436
		c-0.135-0.29-0.133-0.642-0.251-0.943c-0.137-0.35-0.394-0.729,0.101-0.921c0.121-0.047,0.469,0.352,0.638,0.597
		C18.937,9.005,18.953,9.546,18.667,10.214z"/>
	<path fill-rule="evenodd" clip-rule="evenodd" fill="#F2F1F9" d="M26.307,15.526c0.02,0.57-0.252,0.876-0.805,0.91
		c-0.577,0.035-0.897-0.225-0.946-0.767c-0.057-0.632,0.254-0.983,0.872-0.983C26.003,14.685,26.288,14.958,26.307,15.526z
		 M25.415,15.212c-0.114,0.141-0.266,0.291-0.249,0.315c0.089,0.12,0.222,0.207,0.34,0.305c0.063-0.105,0.181-0.214,0.174-0.315
		C25.674,15.425,25.534,15.342,25.415,15.212z"/>
	<path fill-rule="evenodd" clip-rule="evenodd" fill="#E5E4EE" d="M23.426,16.553c0.616,0.463,1.134,0.843,1.625,1.255
		c0.02,0.017-0.191,0.465-0.336,0.493c-0.458,0.088-1.523-0.709-1.58-1.167C23.115,16.979,23.296,16.797,23.426,16.553z"/>
	<path fill-rule="evenodd" clip-rule="evenodd" fill="#F5F4FA" d="M26.557,13.559c-0.649,0-1.281,0.009-1.912-0.009
		c-0.11-0.003-0.277-0.097-0.309-0.188c-0.038-0.107,0.018-0.357,0.075-0.371c0.479-0.116,0.964-0.23,1.453-0.267
		C26.29,12.692,26.554,12.929,26.557,13.559z"/>
	<path fill-rule="evenodd" clip-rule="evenodd" fill="#E8E7F0" d="M27.824,16.864c-0.107,0.291-0.12,0.526-0.24,0.615
		c-0.407,0.3-0.843,0.569-1.293,0.799c-0.096,0.049-0.365-0.075-0.437-0.191c-0.065-0.106-0.027-0.385,0.066-0.459
		c0.4-0.313,0.824-0.604,1.271-0.846C27.324,16.71,27.557,16.823,27.824,16.864z"/>
	<path fill-rule="evenodd" clip-rule="evenodd" fill="#F5F4FA" d="M22.858,15.944c-0.098-0.149-0.248-0.278-0.267-0.423
		c-0.082-0.637,0.132-1.195,0.613-1.611c0.081-0.07,0.519,0.119,0.516,0.128c-0.123,0.574-0.264,1.146-0.438,1.707
		C23.257,15.828,23.056,15.856,22.858,15.944z"/>
	<path fill-rule="evenodd" clip-rule="evenodd" fill="#F5F4FA" d="M28.411,15.346c-0.191,0.22-0.315,0.482-0.457,0.492
		c-0.158,0.011-0.413-0.172-0.483-0.333c-0.161-0.373-0.26-0.779-0.335-1.182c-0.029-0.155,0.075-0.334,0.118-0.503
		c0.169,0.046,0.428,0.04,0.491,0.148C27.994,14.395,28.182,14.857,28.411,15.346z"/>
	<path fill-rule="evenodd" clip-rule="evenodd" fill="#36366A" d="M35.284,21.355c-0.197,0.188-0.315,0.3-0.434,0.413
		c-0.107-0.123-0.299-0.245-0.3-0.367c0-0.127,0.166-0.32,0.296-0.359C34.935,21.016,35.088,21.206,35.284,21.355z"/>
	<path fill-rule="evenodd" clip-rule="evenodd" fill="#EF6966" d="M31.684,40.912c-0.246,0.099-0.414,0.215-0.581,0.214
		c-0.09-0.001-0.267-0.225-0.246-0.311c0.03-0.131,0.186-0.251,0.317-0.325C31.21,40.47,31.348,40.63,31.684,40.912z"/>
	<path fill-rule="evenodd" clip-rule="evenodd" fill="#EF6966" d="M31.046,31.279c-0.097-0.185-0.211-0.302-0.191-0.388
		c0.034-0.147,0.151-0.275,0.233-0.412c0.106,0.111,0.311,0.235,0.298,0.332C31.367,30.956,31.199,31.083,31.046,31.279z"/>
	<path fill-rule="evenodd" clip-rule="evenodd" fill="#F0736F" d="M19.759,30.338c0.16,0.232,0.305,0.387,0.369,0.569
		c0.02,0.059-0.176,0.191-0.273,0.29c-0.135-0.158-0.289-0.306-0.389-0.484C19.443,30.673,19.606,30.527,19.759,30.338z"/>
	<path fill-rule="evenodd" clip-rule="evenodd" fill="#EF6966" d="M19.825,40.369c0.085,0.224,0.177,0.366,0.182,0.513
		c0.003,0.094-0.122,0.192-0.188,0.288c-0.117-0.164-0.247-0.321-0.336-0.499C19.469,40.646,19.647,40.522,19.825,40.369z"/>
	<path fill-rule="evenodd" clip-rule="evenodd" fill="#36366A" d="M16.006,10.323c-0.159-0.305-0.303-0.455-0.285-0.581
		c0.02-0.143,0.186-0.265,0.288-0.397c0.107,0.125,0.284,0.243,0.3,0.378C16.324,9.856,16.175,10.008,16.006,10.323z"/>
	<path fill-rule="evenodd" clip-rule="evenodd" fill="#16144A" d="M25.415,15.212c0.12,0.13,0.26,0.213,0.265,0.305
		c0.007,0.101-0.111,0.209-0.174,0.315c-0.118-0.098-0.251-0.185-0.34-0.305C25.148,15.503,25.301,15.353,25.415,15.212z"/>
</g>
</svg>
