<?xml version="1.0" encoding="utf-8"?>
<!-- Generator: Adobe Illustrator 16.0.0, SVG Export Plug-In . SVG Version: 6.00 Build 0)  -->
<!DOCTYPE svg PUBLIC "-//W3C//DTD SVG 1.1//EN" "http://www.w3.org/Graphics/SVG/1.1/DTD/svg11.dtd">
<svg version="1.1" id="Layer_1" xmlns="http://www.w3.org/2000/svg" xmlns:xlink="http://www.w3.org/1999/xlink" x="0px" y="0px"
	 width="50px" height="50px" viewBox="0 0 50 50" enable-background="new 0 0 50 50" xml:space="preserve">
<g>
	<path fill-rule="evenodd" clip-rule="evenodd" fill="#EC5756" d="M16.613,27.223c0.212-2.219-0.412-4.08-1.428-5.807
		c-0.456-0.775-1.135-1.419-1.716-2.121c-0.676-0.817-0.986-1.741-0.71-2.784c0.179-0.676,0.478-0.715,1.016-0.202
		c0.768,0.732,1.64,1.032,2.706,0.755c1.967-0.51,3.946-0.974,5.917-1.472c0.482-0.122,0.725-0.398,0.708-0.971
		c-0.044-1.555-0.015-3.112-0.008-4.668c0.004-0.899-0.359-1.552-1.167-1.994c-0.87-0.477-1.041-1.08-0.497-1.882
		c0.297-0.439,0.742-0.785,1.149-1.14c0.272-0.237,0.603-0.406,0.893-0.623c0.293-0.219,0.569-0.459,0.992-0.804
		c0.749,0.565,1.555,1.128,2.306,1.757c0.56,0.469,1.036,1.036,1.572,1.533c0.631,0.585,0.688,1.268,0.339,1.989
		c-0.235,0.486-0.471,1.029-0.859,1.374c-1.311,1.16-1.229,2.73-1.519,4.399c1.394-0.343,2.64-0.635,3.878-0.958
		c1.092-0.286,2.171-0.623,3.263-0.908c0.691-0.181,1.319-0.157,1.854,0.479c1.022,1.217,2.105,2.384,3.249,3.668
		c-0.537,0.188-0.925,0.271-1.255,0.456c-0.289,0.162-0.608,0.392-0.751,0.674c-1,1.982-2.005,3.964-2.908,5.991
		c-0.397,0.891-0.562,1.887-0.862,2.946c-2.207,0-4.517,0-6.949,0c0,0.442,0,0.796,0,1.149c0.002,3.296-0.009,6.592,0.016,9.888
		c0.006,0.861,0.155,1.722,0.182,2.584c0.055,1.778,0.049,3.548-0.93,5.149c-0.231,0.378-0.355,0.822-0.566,1.325
		c-0.884-0.519-0.939-1.425-1.15-2.197c-0.463-1.695-0.316-3.442-0.287-5.173c0.063-3.745,0.154-7.491,0.23-11.237
		c0.009-0.448,0.001-0.897,0.001-1.517C21.007,26.998,18.804,27.11,16.613,27.223z M25.758,24.45c1.274,0,2.285-0.072,3.28,0.021
		c0.896,0.084,1.302-0.32,1.6-1.074c0.811-2.055,1.645-4.101,2.499-6.138c0.217-0.517,0.049-0.799-0.425-0.913
		c-0.391-0.093-0.818-0.169-1.207-0.111c-1.606,0.241-3.203,0.536-4.804,0.81c-0.43,0.073-0.61,0.325-0.61,0.76
		c-0.001,0.592-0.033,1.185-0.063,1.777C25.943,21.16,25.853,22.737,25.758,24.45z M23.044,17.958
		c-1.691,0.439-3.3,0.855-4.908,1.276c-0.696,0.182-0.782,0.407-0.441,1.046c0.401,0.752,0.763,1.526,1.188,2.264
		c0.397,0.688,0.137,1.812,0.969,2.104c0.728,0.256,1.62,0.066,2.438,0.037c0.937-0.034,1.027-0.104,1-1.031
		C23.237,21.797,23.133,19.944,23.044,17.958z"/>
</g>
</svg>
