<?xml version="1.0" encoding="utf-8"?>
<!-- Generator: Adobe Illustrator 16.0.0, SVG Export Plug-In . SVG Version: 6.00 Build 0)  -->
<!DOCTYPE svg PUBLIC "-//W3C//DTD SVG 1.1//EN" "http://www.w3.org/Graphics/SVG/1.1/DTD/svg11.dtd">
<svg version="1.1" id="Layer_1" xmlns="http://www.w3.org/2000/svg" xmlns:xlink="http://www.w3.org/1999/xlink" x="0px" y="0px"
	 width="50px" height="50px" viewBox="0 0 50 50" enable-background="new 0 0 50 50" xml:space="preserve">
<g>
	<path fill-rule="evenodd" clip-rule="evenodd" fill="#202120" d="M25.51,7.783c9.748,0.066,17.584,7.7,17.58,17.541
		c-0.004,9.763-7.723,17.47-17.446,17.504C15.822,42.864,8.073,35.063,8.065,25.31C8.057,15.694,15.695,7.928,25.51,7.783z
		 M25.547,8.867C16.78,8.772,9.026,15.825,9.085,25.38c0.062,9.815,8.046,16.446,16.586,16.412
		c8.992-0.036,16.377-7.503,16.385-16.465C42.063,16.293,34.578,8.707,25.547,8.867z"/>
	<path fill-rule="evenodd" clip-rule="evenodd" fill="#E0DFE5" d="M25.547,8.867c9.031-0.16,16.516,7.426,16.51,16.46
		c-0.008,8.962-7.393,16.429-16.385,16.465C17.131,41.826,9.147,35.195,9.085,25.38C9.026,15.825,16.78,8.772,25.547,8.867z
		 M41.393,25.468c0.289-8.681-7.07-15.919-15.627-16.012C17.058,9.36,9.744,16.584,9.713,25.241
		c-0.032,8.781,7.301,15.888,15.754,15.938C34.172,41.231,41.539,33.991,41.393,25.468z"/>
	<path fill-rule="evenodd" clip-rule="evenodd" fill="#201F52" d="M41.393,25.468c0.146,8.523-7.221,15.764-15.926,15.712
		c-8.453-0.051-15.786-7.157-15.754-15.938C9.744,16.584,17.058,9.36,25.766,9.456C34.322,9.549,41.682,16.787,41.393,25.468z
		 M36.875,19.086c-0.938,0.656-1.877,1.312-2.895,2.022c0.232,0.241,0.508,0.632,0.588,0.596c1.473-0.678,2.947-1.397,3.871-2.806
		c0.199-0.303,0.244-0.945,0.053-1.2c-0.203-0.269-0.818-0.436-1.176-0.345c-1.561,0.402-3.029,1.042-4.279,2.097
		c0.295,0.484,0.559,0.728,1.104,0.43c0.768-0.419,1.582-0.754,2.375-1.125C36.635,18.865,36.756,18.976,36.875,19.086z
		 M25.535,33.729c4.656,0.135,8.467-3.786,8.477-8.353c0.012-4.259-3.135-8.447-8.342-8.517c-4.748-0.065-8.527,3.438-8.552,8.454
		C17.092,30.361,21.134,33.792,25.535,33.729z M38.861,23.151c-0.359,0.128-0.711,0.292-1.078,0.376
		c-0.666,0.151-1.344,0.236-2.012,0.382c-0.385,0.084-0.783,0.191-0.688,0.754c0.096,0.554,0.535,0.401,0.809,0.339
		c1.088-0.251,2.174-0.524,3.232-0.879c0.648-0.217,1.299-0.583,1.287-1.411c-0.006-0.527-0.801-0.976-1.795-0.946
		c-1.123,0.032-2.244,0.18-3.361,0.308c-0.314,0.035-0.674,0.072-0.568,0.607c0.109,0.542,0.369,0.604,0.838,0.468
		C36.617,22.83,37.734,22.834,38.861,23.151z M23.985,15.724c1.237,0.038,1.237,0.037,1.255-0.792
		c0.017-0.838,0.01-1.677,0.071-2.512c0.019-0.257,0.229-0.501,0.353-0.75c0.063,0.027,0.127,0.055,0.189,0.083
		c0.107,1.307,0.213,2.615,0.328,4.015c0.186,0.014,0.496,0.036,1.018,0.074c-0.145-1.509-0.246-2.868-0.42-4.217
		c-0.088-0.684-0.293-1.385-1.17-1.45c-0.502-0.038-1.054,0.598-1.188,1.493C24.226,12.97,24.134,14.287,23.985,15.724z
		 M38.904,27.435c-0.037,0.142-0.074,0.284-0.111,0.425c-1.111-0.138-2.225-0.264-3.332-0.423c-0.398-0.058-0.596,0.002-0.754,0.437
		c-0.209,0.578,0.229,0.608,0.5,0.657c0.869,0.157,1.748,0.308,2.631,0.335c0.619,0.021,1.283-0.063,1.863-0.275
		c0.912-0.334,1.018-0.915,0.283-1.523c-1.305-1.079-2.916-1.31-4.537-1.437c-0.111-0.008-0.313,0.211-0.34,0.35
		c-0.029,0.157,0.045,0.451,0.154,0.497c0.357,0.153,0.752,0.225,1.133,0.321C37.23,27.013,38.068,27.224,38.904,27.435z
		 M30.215,16.944c0.279-0.816,0.57-1.586,0.809-2.374c0.18-0.604,0.348-1.223,0.422-1.847c0.07-0.597-0.039-1.213-0.629-1.541
		c-0.654-0.362-1.01,0.199-1.344,0.584c-1.061,1.225-1.576,2.698-1.955,4.241c0.57,0.164,0.91,0.232,1.139-0.382
		c0.396-1.074,0.691-2.225,1.729-3.238c-0.08,0.591-0.086,0.982-0.189,1.344c-0.205,0.699-0.471,1.378-0.697,2.07
		C29.326,16.324,29.344,16.775,30.215,16.944z M27.191,34.914c-0.846-0.169-1.309-0.199-1.262,0.665
		c0.045,0.834-0.01,1.674-0.07,2.508c-0.016,0.23-0.213,0.45-0.327,0.673c-0.068-0.017-0.136-0.033-0.204-0.05
		c-0.094-1.251-0.187-2.502-0.286-3.839c-0.248-0.017-0.557-0.037-0.938-0.063c-0.006,1.55-0.17,2.986,0.341,4.344
		c0.172,0.459,0.601,0.89,1.021,1.166c0.311,0.206,0.922-0.411,1.178-1.108c0.066-0.179,0.109-0.372,0.131-0.562
		C26.916,37.438,27.049,36.227,27.191,34.914z M23.722,15.975c-0.096-0.38-0.12-0.683-0.245-0.938
		c-0.556-1.135-1.099-2.279-1.736-3.367c-0.234-0.398-0.703-0.751-1.253-0.555c-0.561,0.201-0.576,0.73-0.595,1.233
		C19.84,13.75,20.25,15.042,20.81,16.3c0.281,0.629,0.282,0.628,1.096,0.149c-0.405-1.322-1.039-2.593-0.9-4.049
		c0.609,1.019,1.146,2.058,1.521,3.152C22.766,16.252,23.128,16.172,23.722,15.975z M13.904,18.764
		c0.074-0.104,0.149-0.208,0.223-0.312c0.225,0.063,0.466,0.094,0.671,0.197c0.743,0.37,1.489,0.739,2.205,1.159
		c0.588,0.345,0.892,0.142,1.138-0.488c-1.175-0.827-2.42-1.475-3.764-1.927c-0.272-0.09-0.583-0.101-0.875-0.09
		c-0.949,0.032-1.306,0.701-0.794,1.504c0.183,0.288,0.436,0.536,0.682,0.777c0.955,0.934,2.087,1.596,3.349,2.195
		c0.147-0.288,0.271-0.532,0.399-0.783C16.054,20.247,14.979,19.505,13.904,18.764z M12.308,27.793
		c-0.015-0.125-0.03-0.251-0.044-0.379c0.69-0.201,1.377-0.416,2.072-0.6c0.474-0.125,0.97-0.172,1.431-0.332
		c0.146-0.051,0.265-0.344,0.284-0.538c0.01-0.106-0.215-0.344-0.327-0.341c-1.59,0.05-3.127,0.382-4.456,1.274
		c-0.869,0.585-0.694,1.36,0.311,1.726c1.575,0.573,3.097,0.069,4.622-0.265c0.107-0.024,0.264-0.268,0.236-0.361
		c-0.059-0.207-0.184-0.479-0.354-0.548c-0.202-0.083-0.48,0.017-0.724,0.041C14.342,27.576,13.325,27.686,12.308,27.793z
		 M16.272,23.12c0.114-0.39,0.579-0.926-0.167-1.028c-1.354-0.186-2.727-0.258-4.095-0.322c-0.583-0.027-1.083,0.293-1.24,0.863
		c-0.157,0.574,0.357,0.86,0.731,1.17c0.072,0.061,0.176,0.085,0.269,0.112c1.256,0.368,2.508,0.748,3.774,1.08
		c0.138,0.035,0.495-0.203,0.495-0.314c-0.001-0.252-0.093-0.606-0.275-0.728c-0.218-0.145-0.579-0.051-0.86-0.128
		c-0.904-0.247-1.92-0.222-2.583-1.21C13.604,22.779,14.886,22.942,16.272,23.12z M32.928,31.292
		c1.178,0.611,2.205,1.165,3.252,1.675c0.346,0.17,0.746,0.327,1.117,0.316c0.412-0.013,0.92-0.113,1.197-0.376
		c0.328-0.308,0.262-0.811-0.072-1.202c-0.127-0.148-0.184-0.374-0.33-0.482c-1.074-0.772-2.154-1.538-3.26-2.266
		c-0.111-0.074-0.506,0.065-0.576,0.203c-0.08,0.162-0.012,0.478,0.109,0.64c0.133,0.182,0.404,0.26,0.605,0.396
		c0.832,0.574,1.662,1.154,2.494,1.732c-0.334,0.186-0.592,0.207-0.791,0.112c-0.838-0.397-1.715-0.753-2.469-1.276
		C33.549,30.313,33.359,30.742,32.928,31.292z M13.896,32.246c-0.063-0.131-0.127-0.259-0.19-0.389
		c0.801-0.554,1.599-1.109,2.404-1.657c0.241-0.164,0.556-0.256,0.73-0.47c0.115-0.141,0.1-0.462,0.025-0.656
		c-0.04-0.105-0.379-0.216-0.496-0.155c-1.305,0.684-2.6,1.395-3.576,2.541c-0.353,0.415-0.472,0.951-0.166,1.364
		c0.28,0.378,0.746,0.515,1.314,0.374c1.353-0.334,2.553-0.974,3.733-1.668c0.163-0.097,0.289-0.254,0.446-0.397
		c-0.222-0.245-0.417-0.46-0.567-0.626C16.299,31.104,15.098,31.675,13.896,32.246z M18.334,31.629
		c-0.454,0.529-0.931,0.977-1.273,1.509c-0.522,0.818-1.034,1.662-1.396,2.558c-0.321,0.791,0.216,1.349,1.054,1.204
		c0.277-0.049,0.554-0.188,0.794-0.344c1.242-0.806,2.21-1.872,3.047-3.14c-0.317-0.221-0.546-0.383-0.775-0.542
		c-0.921,1.046-1.724,2.154-3.187,3.032c0.662-1.566,1.688-2.532,2.467-3.688C18.774,31.984,18.554,31.807,18.334,31.629z
		 M29.316,34.049c0.377,1.355,0.742,2.656,1.104,3.958c-1.059-0.717-1.355-1.81-1.719-2.842c-0.246-0.705-0.592-0.804-1.287-0.456
		c0.377,0.938,0.701,1.913,1.154,2.822c0.303,0.603,0.729,1.174,1.211,1.646c0.619,0.61,1.326,0.314,1.461-0.557
		c0.045-0.291,0.018-0.591,0.027-0.888c0.037-1.369-0.615-2.56-0.99-3.822c-0.021-0.074-0.143-0.117-0.252-0.202
		C29.828,33.803,29.613,33.906,29.316,34.049z M20.944,33.665c-0.334,0.951-0.687,1.857-0.966,2.786
		c-0.154,0.514-0.241,1.062-0.256,1.597c-0.015,0.545,0.107,1.1,0.72,1.325c0.554,0.203,0.941-0.126,1.251-0.511
		c0.905-1.124,1.477-2.419,1.808-3.815c0.033-0.142-0.167-0.457-0.306-0.488c-0.17-0.04-0.484,0.079-0.57,0.226
		c-0.219,0.376-0.334,0.813-0.514,1.213c-0.316,0.708-0.499,1.502-1.275,2.172c-0.003-1.322,0.398-2.32,0.785-3.317
		C21.833,34.311,21.807,33.896,20.944,33.665z M16.835,15.169c0.107-0.1,0.215-0.201,0.323-0.301
		c0.522,0.497,1.056,0.983,1.561,1.497c0.276,0.279,0.506,0.603,0.753,0.91c0.247,0.305,0.495,0.464,0.853,0.125
		c0.297-0.282,0.19-0.513-0.025-0.754c-0.558-0.626-1.074-1.298-1.689-1.858c-0.5-0.455-1.09-0.841-1.698-1.137
		c-0.67-0.327-1.305,0.125-1.289,0.85c0.005,0.239,0.081,0.489,0.175,0.712c0.543,1.279,1.355,2.377,2.307,3.38
		c0.244,0.258,0.474,0.294,0.743,0.012c0.265-0.279,0.215-0.512-0.025-0.761c-0.17-0.177-0.356-0.346-0.5-0.545
		C17.82,16.596,17.331,15.88,16.835,15.169z M34.189,14.626c0.105,0.097,0.211,0.193,0.318,0.29
		c-0.271,0.442-0.516,0.907-0.822,1.325c-0.436,0.592-0.908,1.156-1.377,1.722c-0.254,0.305-0.168,0.577,0.119,0.729
		c0.156,0.082,0.494,0.054,0.609-0.063c1.031-1.055,1.955-2.183,2.461-3.612c0.172-0.49,0.158-0.873-0.201-1.2
		c-0.367-0.336-0.826-0.205-1.232-0.061c-0.27,0.096-0.539,0.258-0.744,0.458c-0.943,0.923-1.861,1.871-2.766,2.786
		c0.389,0.565,0.668,0.853,1.137,0.33C32.51,16.417,33.354,15.527,34.189,14.626z M34.496,36c-0.352-0.261-0.549-0.377-0.709-0.534
		c-0.629-0.622-1.24-1.265-1.871-1.885c-0.283-0.276-0.5-0.879-1.035-0.368c-0.529,0.505,0.098,0.81,0.32,1.073
		c0.6,0.713,1.275,1.368,1.959,2.004c0.279,0.259,0.637,0.481,0.998,0.598c0.955,0.31,1.465-0.116,1.26-1.119
		c-0.326-1.604-1.389-2.776-2.514-3.882c-0.076-0.075-0.418-0.029-0.486,0.069c-0.113,0.156-0.201,0.454-0.125,0.597
		c0.184,0.341,0.461,0.635,0.719,0.932C33.617,34.181,34.133,34.924,34.496,36z"/>
	<path fill-rule="evenodd" clip-rule="evenodd" fill="#F2EAEE" d="M25.535,33.729c-4.401,0.063-8.443-3.367-8.417-8.416
		c0.025-5.016,3.804-8.519,8.552-8.454c5.207,0.07,8.354,4.258,8.342,8.517C34.002,29.942,30.191,33.863,25.535,33.729z
		 M33.271,25.356c-0.285-4.426-3.209-7.681-7.691-7.657c-4.57,0.025-7.617,3.15-7.619,7.651c-0.002,4.362,3.084,7.526,7.544,7.591
		C29.84,33.004,32.93,29.914,33.271,25.356z"/>
	<path fill-rule="evenodd" clip-rule="evenodd" fill="#E7E6EF" d="M38.861,23.151c-1.127-0.316-2.244-0.321-3.336,0
		c-0.469,0.136-0.729,0.074-0.838-0.468c-0.105-0.535,0.254-0.572,0.568-0.607c1.117-0.128,2.238-0.276,3.361-0.308
		c0.994-0.03,1.789,0.418,1.795,0.946c0.012,0.827-0.639,1.194-1.287,1.411c-1.059,0.354-2.145,0.627-3.232,0.879
		c-0.273,0.063-0.713,0.215-0.809-0.339c-0.096-0.563,0.303-0.67,0.688-0.754c0.668-0.146,1.346-0.231,2.012-0.382
		C38.15,23.443,38.502,23.279,38.861,23.151z"/>
	<path fill-rule="evenodd" clip-rule="evenodd" fill="#E9E8F1" d="M23.985,15.724c0.148-1.437,0.24-2.754,0.436-4.057
		c0.135-0.895,0.687-1.53,1.188-1.493c0.877,0.065,1.082,0.767,1.17,1.45c0.174,1.349,0.275,2.708,0.42,4.217
		c-0.521-0.038-0.832-0.061-1.018-0.074c-0.115-1.4-0.221-2.708-0.328-4.015c-0.063-0.028-0.127-0.056-0.189-0.083
		c-0.123,0.25-0.334,0.494-0.353,0.75c-0.062,0.834-0.055,1.674-0.071,2.512C25.223,15.761,25.223,15.762,23.985,15.724z"/>
	<path fill-rule="evenodd" clip-rule="evenodd" fill="#E7E6EF" d="M38.904,27.435c-0.836-0.211-1.674-0.422-2.51-0.637
		c-0.381-0.097-0.775-0.168-1.133-0.321c-0.109-0.046-0.184-0.34-0.154-0.497c0.027-0.139,0.229-0.357,0.34-0.35
		c1.621,0.127,3.232,0.357,4.537,1.437c0.734,0.608,0.629,1.189-0.283,1.523c-0.58,0.212-1.244,0.297-1.863,0.275
		c-0.883-0.027-1.762-0.178-2.631-0.335c-0.271-0.049-0.709-0.079-0.5-0.657c0.158-0.435,0.355-0.494,0.754-0.437
		c1.107,0.159,2.221,0.285,3.332,0.423C38.83,27.719,38.867,27.576,38.904,27.435z"/>
	<path fill-rule="evenodd" clip-rule="evenodd" fill="#E9E8F0" d="M30.215,16.944c-0.871-0.169-0.889-0.62-0.717-1.143
		c0.227-0.692,0.492-1.371,0.697-2.07c0.104-0.362,0.109-0.753,0.189-1.344c-1.037,1.013-1.332,2.164-1.729,3.238
		c-0.229,0.614-0.568,0.546-1.139,0.382c0.379-1.542,0.895-3.016,1.955-4.241c0.334-0.386,0.689-0.946,1.344-0.584
		c0.59,0.328,0.699,0.944,0.629,1.541c-0.074,0.624-0.242,1.243-0.422,1.847C30.785,15.358,30.494,16.128,30.215,16.944z"/>
	<path fill-rule="evenodd" clip-rule="evenodd" fill="#E9E8F0" d="M27.191,34.914c-0.143,1.313-0.275,2.523-0.416,3.733
		c-0.021,0.189-0.064,0.383-0.131,0.562c-0.256,0.697-0.867,1.314-1.178,1.108c-0.421-0.276-0.85-0.707-1.021-1.166
		c-0.511-1.357-0.347-2.794-0.341-4.344c0.381,0.026,0.689,0.047,0.938,0.063c0.1,1.337,0.192,2.588,0.286,3.839
		c0.068,0.017,0.136,0.033,0.204,0.05c0.114-0.223,0.312-0.442,0.327-0.673c0.061-0.834,0.115-1.674,0.07-2.508
		C25.883,34.715,26.346,34.745,27.191,34.914z"/>
	<path fill-rule="evenodd" clip-rule="evenodd" fill="#E9E8F1" d="M23.722,15.975c-0.593,0.197-0.956,0.277-1.195-0.422
		c-0.375-1.094-0.912-2.134-1.521-3.152c-0.138,1.456,0.496,2.727,0.9,4.049c-0.814,0.479-0.815,0.48-1.096-0.149
		c-0.56-1.258-0.97-2.55-0.917-3.953c0.019-0.503,0.034-1.033,0.595-1.233c0.551-0.196,1.02,0.157,1.253,0.555
		c0.637,1.088,1.18,2.232,1.736,3.367C23.602,15.292,23.626,15.594,23.722,15.975z"/>
	<path fill-rule="evenodd" clip-rule="evenodd" fill="#ECEBF2" d="M13.904,18.764c1.076,0.742,2.15,1.483,3.235,2.232
		c-0.128,0.251-0.252,0.496-0.399,0.783c-1.262-0.6-2.395-1.261-3.349-2.195c-0.246-0.241-0.499-0.489-0.682-0.777
		c-0.512-0.803-0.155-1.472,0.794-1.504c0.292-0.01,0.603,0,0.875,0.09c1.344,0.452,2.589,1.101,3.764,1.927
		c-0.246,0.63-0.549,0.833-1.138,0.488c-0.716-0.42-1.462-0.789-2.205-1.159c-0.206-0.103-0.447-0.133-0.671-0.197
		C14.053,18.555,13.978,18.659,13.904,18.764z"/>
	<path fill-rule="evenodd" clip-rule="evenodd" fill="#E7E6EF" d="M12.308,27.793c1.017-0.107,2.034-0.217,3.051-0.322
		c0.244-0.024,0.522-0.124,0.724-0.041c0.169,0.069,0.294,0.341,0.354,0.548c0.027,0.094-0.129,0.337-0.236,0.361
		c-1.525,0.334-3.047,0.838-4.622,0.265c-1.005-0.365-1.18-1.141-0.311-1.726c1.329-0.893,2.866-1.225,4.456-1.274
		c0.112-0.003,0.337,0.234,0.327,0.341c-0.02,0.194-0.138,0.487-0.284,0.538c-0.46,0.16-0.957,0.207-1.431,0.332
		c-0.695,0.184-1.381,0.398-2.072,0.6C12.278,27.542,12.293,27.668,12.308,27.793z"/>
	<path fill-rule="evenodd" clip-rule="evenodd" fill="#ECEBF2" d="M16.272,23.12c-1.386-0.178-2.668-0.341-3.951-0.505
		c0.663,0.988,1.679,0.963,2.583,1.21c0.281,0.077,0.643-0.016,0.86,0.128c0.182,0.122,0.273,0.476,0.275,0.728
		c0,0.111-0.357,0.349-0.495,0.314c-1.266-0.332-2.518-0.712-3.774-1.08c-0.093-0.027-0.197-0.052-0.269-0.112
		c-0.374-0.311-0.888-0.597-0.731-1.17c0.157-0.57,0.657-0.89,1.24-0.863c1.368,0.064,2.741,0.136,4.095,0.322
		C16.851,22.194,16.386,22.729,16.272,23.12z"/>
	<path fill-rule="evenodd" clip-rule="evenodd" fill="#EAEAF1" d="M36.516,18.755c-0.793,0.371-1.607,0.706-2.375,1.125
		c-0.545,0.298-0.809,0.055-1.104-0.43c1.25-1.055,2.719-1.695,4.279-2.097c0.357-0.091,0.973,0.076,1.176,0.345
		c0.191,0.254,0.146,0.897-0.053,1.2c-0.924,1.409-2.398,2.128-3.871,2.806c-0.08,0.037-0.355-0.354-0.588-0.596
		c1.018-0.71,1.957-1.366,2.895-2.022c0.182-0.157,0.363-0.313,0.545-0.47c-0.037-0.064-0.074-0.128-0.111-0.192
		C37.043,18.535,36.781,18.645,36.516,18.755z"/>
	<path fill-rule="evenodd" clip-rule="evenodd" fill="#E9E8F1" d="M32.928,31.292c0.432-0.55,0.621-0.979,1.277-0.527
		c0.754,0.523,1.631,0.879,2.469,1.276c0.199,0.095,0.457,0.073,0.791-0.112c-0.832-0.578-1.662-1.158-2.494-1.732
		c-0.201-0.137-0.473-0.215-0.605-0.396c-0.121-0.162-0.189-0.478-0.109-0.64c0.07-0.138,0.465-0.277,0.576-0.203
		c1.105,0.728,2.186,1.493,3.26,2.266c0.146,0.108,0.203,0.334,0.33,0.482c0.334,0.392,0.4,0.895,0.072,1.202
		c-0.277,0.263-0.785,0.363-1.197,0.376c-0.371,0.011-0.771-0.146-1.117-0.316C35.133,32.457,34.105,31.903,32.928,31.292z"/>
	<path fill-rule="evenodd" clip-rule="evenodd" fill="#EAEAF1" d="M13.896,32.246c1.202-0.571,2.403-1.143,3.657-1.739
		c0.15,0.166,0.346,0.381,0.567,0.626c-0.157,0.144-0.283,0.301-0.446,0.397c-1.181,0.694-2.38,1.334-3.733,1.668
		c-0.568,0.141-1.034,0.004-1.314-0.374c-0.306-0.413-0.187-0.949,0.166-1.364c0.976-1.146,2.271-1.857,3.576-2.541
		c0.116-0.061,0.456,0.05,0.496,0.155c0.074,0.194,0.09,0.516-0.025,0.656c-0.174,0.214-0.49,0.306-0.73,0.47
		c-0.805,0.548-1.603,1.104-2.404,1.657C13.769,31.987,13.833,32.115,13.896,32.246z"/>
	<path fill-rule="evenodd" clip-rule="evenodd" fill="#EEEDF4" d="M18.334,31.629c0.22,0.178,0.44,0.355,0.73,0.59
		c-0.779,1.155-1.805,2.121-2.467,3.688c1.463-0.878,2.266-1.986,3.187-3.032c0.229,0.159,0.458,0.321,0.775,0.542
		c-0.837,1.268-1.805,2.334-3.047,3.14c-0.24,0.155-0.517,0.295-0.794,0.344c-0.838,0.145-1.375-0.413-1.054-1.204
		c0.363-0.896,0.874-1.739,1.396-2.558C17.403,32.605,17.88,32.158,18.334,31.629z"/>
	<path fill-rule="evenodd" clip-rule="evenodd" fill="#E9E8F1" d="M29.316,34.049c0.297-0.143,0.512-0.246,0.709-0.34
		c0.109,0.085,0.23,0.128,0.252,0.202c0.375,1.263,1.027,2.453,0.99,3.822c-0.01,0.297,0.018,0.597-0.027,0.888
		c-0.135,0.871-0.842,1.167-1.461,0.557c-0.482-0.473-0.908-1.044-1.211-1.646c-0.453-0.909-0.777-1.884-1.154-2.822
		c0.695-0.348,1.041-0.249,1.287,0.456c0.363,1.032,0.66,2.125,1.719,2.842C30.059,36.705,29.693,35.404,29.316,34.049z"/>
	<path fill-rule="evenodd" clip-rule="evenodd" fill="#EAEAF1" d="M20.944,33.665c0.863,0.231,0.889,0.646,0.678,1.187
		c-0.387,0.997-0.789,1.995-0.785,3.317c0.776-0.67,0.958-1.464,1.275-2.172c0.18-0.4,0.294-0.837,0.514-1.213
		c0.086-0.146,0.4-0.266,0.57-0.226c0.139,0.031,0.339,0.347,0.306,0.488c-0.331,1.396-0.903,2.691-1.808,3.815
		c-0.31,0.385-0.697,0.714-1.251,0.511c-0.613-0.226-0.735-0.78-0.72-1.325c0.015-0.535,0.102-1.083,0.256-1.597
		C20.257,35.522,20.609,34.616,20.944,33.665z"/>
	<path fill-rule="evenodd" clip-rule="evenodd" fill="#ECEBF2" d="M16.835,15.169c0.495,0.711,0.984,1.426,1.489,2.129
		c0.143,0.199,0.329,0.368,0.5,0.545c0.24,0.249,0.29,0.482,0.025,0.761c-0.269,0.282-0.499,0.246-0.743-0.012
		c-0.952-1.002-1.764-2.101-2.307-3.38c-0.095-0.223-0.17-0.473-0.175-0.712c-0.016-0.726,0.618-1.177,1.289-0.85
		c0.608,0.296,1.198,0.682,1.698,1.137c0.616,0.56,1.132,1.232,1.689,1.858c0.216,0.242,0.323,0.472,0.025,0.754
		c-0.358,0.338-0.606,0.18-0.853-0.125c-0.247-0.307-0.477-0.631-0.753-0.91c-0.505-0.513-1.039-1-1.561-1.497
		C17.05,14.968,16.942,15.069,16.835,15.169z"/>
	<path fill-rule="evenodd" clip-rule="evenodd" fill="#EEEDF4" d="M34.189,14.626c-0.836,0.901-1.68,1.791-2.498,2.705
		c-0.469,0.523-0.748,0.236-1.137-0.33c0.904-0.916,1.822-1.863,2.766-2.786c0.205-0.2,0.475-0.363,0.744-0.458
		c0.406-0.144,0.865-0.275,1.232,0.061c0.359,0.327,0.373,0.71,0.201,1.2c-0.506,1.429-1.43,2.557-2.461,3.612
		c-0.115,0.117-0.453,0.145-0.609,0.063c-0.287-0.152-0.373-0.424-0.119-0.729c0.469-0.565,0.941-1.129,1.377-1.722
		c0.307-0.418,0.551-0.882,0.822-1.325C34.4,14.819,34.295,14.723,34.189,14.626z"/>
	<path fill-rule="evenodd" clip-rule="evenodd" fill="#F2F1F7" d="M34.496,36c-0.363-1.076-0.879-1.819-1.484-2.516
		c-0.258-0.297-0.535-0.591-0.719-0.932c-0.076-0.143,0.012-0.44,0.125-0.597c0.068-0.099,0.41-0.145,0.486-0.069
		c1.125,1.105,2.188,2.278,2.514,3.882c0.205,1.003-0.305,1.429-1.26,1.119c-0.361-0.116-0.719-0.339-0.998-0.598
		c-0.684-0.636-1.359-1.291-1.959-2.004c-0.223-0.264-0.85-0.568-0.32-1.073c0.535-0.511,0.752,0.092,1.035,0.368
		c0.631,0.62,1.242,1.263,1.871,1.885C33.947,35.623,34.145,35.739,34.496,36z"/>
	<path fill-rule="evenodd" clip-rule="evenodd" fill="#2C2D67" d="M36.516,18.755c0.266-0.11,0.527-0.22,0.793-0.331
		c0.037,0.064,0.074,0.128,0.111,0.192c-0.182,0.157-0.363,0.313-0.545,0.47C36.756,18.976,36.635,18.865,36.516,18.755z"/>
	<path fill-rule="evenodd" clip-rule="evenodd" fill="#ED5C5A" d="M33.271,25.356c-0.342,4.558-3.432,7.647-7.766,7.585
		c-4.46-0.064-7.546-3.229-7.544-7.591c0.002-4.5,3.049-7.626,7.619-7.651C30.063,17.675,32.986,20.93,33.271,25.356z
		 M25.842,29.532c0.396,1.91,1.506,2.479,3.178,1.628c0.174-0.089,0.322-0.229,0.486-0.338c1.549-1.018,2.076-2.884-0.035-4.06
		c-0.014-0.082-0.021-0.165-0.021-0.248c0.346-0.004,0.695,0.031,1.033-0.021c0.66-0.103,1.223-0.417,1.529-1.031
		c0.703-1.411-0.094-3.346-1.629-4.023c-0.332-0.403-0.672-0.377-1.018-0.016c-0.479,0.211-0.955,0.423-1.436,0.634
		c0.002-0.1-0.016-0.198-0.049-0.292c0.527-1.334,0.447-1.978-0.328-2.644c-0.896-0.772-2.649-0.853-3.72-0.169
		c-0.856,0.545-1.064,1.443-0.675,3.043c-0.406-0.189-0.778-0.362-1.151-0.534c-0.404-0.459-0.822-0.439-1.25-0.034
		c-1.473,0.495-1.757,1.687-1.749,3.03c0.007,1.235,0.608,1.901,1.822,2.044c0.292,0.035,0.59,0.014,0.885,0.017
		c0.01,0.086,0.006,0.17-0.011,0.252c-0.126,0.075-0.259,0.143-0.378,0.227c-1.223,0.867-1.426,1.632-0.614,2.841
		c0.341,0.509,0.849,0.969,1.38,1.273c1.536,0.88,2.817,0.224,3.236-1.578C25.498,29.532,25.67,29.532,25.842,29.532z"/>
	<path fill-rule="evenodd" clip-rule="evenodd" fill="#FFF6F5" d="M27.93,22.058c0.48-0.211,0.957-0.423,1.436-0.634
		c0.34,0.005,0.678,0.011,1.018,0.016c1.535,0.677,2.332,2.612,1.629,4.023c-0.307,0.614-0.869,0.929-1.529,1.031
		c-0.338,0.053-0.688,0.018-1.033,0.021c-0.182-0.496-0.611-0.25-0.938-0.313c-0.377,0.002-0.752,0.003-1.129,0.005l-0.008-0.012
		c-0.008-0.076-0.006-0.152,0.008-0.228c0.018-0.177,0.037-0.354,0.057-0.53c0.539,0.074,1.078,0.149,1.617,0.225
		c0.023-0.113,0.047-0.224,0.068-0.336c-0.387-0.108-0.775-0.217-1.162-0.325c0-0.063,0-0.125,0.002-0.188
		c0.197-0.029,0.395-0.058,0.594-0.087c0.094-0.067,0.188-0.135,0.281-0.203c0.285-0.05,0.582-0.065,0.852-0.158
		c0.297-0.104,0.572-0.272,0.844-0.431c0.027-0.017-0.02-0.25-0.043-0.25c-0.311-0.025-0.643-0.103-0.928-0.021
		c-0.73,0.211-1.441,0.494-2.16,0.748c0.01-0.173,0.02-0.348,0.029-0.523c0.377-0.055,0.73-0.134,0.656-0.785
		c-0.289,0.278-0.518,0.495-0.744,0.712c-0.096,0.089-0.195,0.178-0.291,0.267c-0.195-0.379-0.389-0.759-0.586-1.139
		c0.119-0.256,0.24-0.513,0.357-0.769c-0.078-0.035-0.158-0.07-0.236-0.106c-0.125,0.294-0.25,0.588-0.375,0.882
		c-0.063,0.056-0.121,0.12-0.191,0.165c-0.021,0.014-0.109-0.021-0.109-0.034c-0.006-0.775-0.006-1.551-0.002-2.326
		c0-0.35-0.148-0.588-0.512-0.467c-0.132,0.043-0.262,0.33-0.258,0.501c0.018,0.718,0.088,1.434,0.139,2.15
		c-0.113,0.007-0.229,0.014-0.343,0.021c-0.189-0.375-0.379-0.751-0.568-1.127c-0.096,0.049-0.193,0.098-0.289,0.148
		c0.193,0.322,0.385,0.644,0.578,0.967c-0.032,0.172-0.064,0.345-0.098,0.518c-0.124-0.061-0.248-0.122-0.371-0.183
		c-0.131-0.115-0.262-0.23-0.392-0.346c-0.087-0.185-0.166-0.373-0.269-0.547c-0.013-0.021-0.156,0.036-0.238,0.057
		c0.072,0.165,0.146,0.33,0.218,0.495c-0.169,0.095-0.354,0.171-0.506,0.289c-0.133,0.103-0.228,0.253-0.339,0.381
		c0.162,0.074,0.319,0.161,0.487,0.217c0.09,0.03,0.197,0.006,0.295,0.007c0.096,0.164,0.191,0.328,0.314,0.537
		c-0.181-0.014-0.331,0.005-0.456-0.041c-0.68-0.25-1.344-0.54-2.033-0.757c-0.185-0.059-0.435,0.09-0.655,0.144
		c0.152,0.218,0.268,0.482,0.467,0.641c0.126,0.099,0.392-0.003,0.57,0.058c0.525,0.179,1.038,0.395,1.556,0.596
		c-0.004,0.071-0.007,0.144-0.007,0.216c-0.1,0.039-0.198,0.078-0.298,0.117c-0.269,0-0.539,0-0.809,0c0,0.074,0,0.15,0,0.225
		c0.27,0,0.539,0,0.808,0c0.273,0.16,0.759-0.225,0.871,0.344c-0.314,0.051-0.743-0.203-0.875,0.331
		c-0.082,0.092-0.163,0.183-0.244,0.273c-0.214-0.467-0.431-0.456-0.649-0.001l0.019-0.017c-0.105,0.007-0.209,0.013-0.313,0.018
		c-0.295-0.003-0.593,0.019-0.885-0.017c-1.214-0.143-1.815-0.809-1.822-2.044c-0.008-1.343,0.276-2.535,1.749-3.03
		c0.417,0.011,0.833,0.022,1.25,0.034c0.373,0.172,0.745,0.345,1.151,0.534c-0.389-1.6-0.181-2.498,0.675-3.043
		c1.07-0.684,2.823-0.603,3.72,0.169c0.775,0.667,0.855,1.31,0.328,2.644C27.898,21.864,27.914,21.96,27.93,22.058z M27.475,22.417
		c-0.094,0.108-0.18,0.208-0.268,0.309c0.08,0.055,0.16,0.112,0.238,0.167c0.07-0.104,0.146-0.203,0.197-0.316
		C27.65,22.556,27.543,22.484,27.475,22.417z"/>
	<path fill-rule="evenodd" clip-rule="evenodd" fill="#FEF5F3" d="M22.658,26.518c0.081-0.091,0.162-0.182,0.244-0.273
		c0.288-0.009,0.578-0.019,0.865-0.026c-0.302,0.293-0.604,0.585-1.104,1.069c0.572-0.09,0.864-0.137,1.155-0.182
		c-0.466,0.612-0.94,1.219-1.391,1.843c-0.068,0.094-0.082,0.349-0.029,0.382c0.149,0.096,0.4,0.205,0.514,0.141
		c0.181-0.104,0.271-0.355,0.422-0.525c0.465-0.522,0.942-1.037,1.415-1.556c-0.025,0.299-0.051,0.599-0.076,0.898
		c-0.076,0.146-0.152,0.291-0.23,0.438c0.145-0.063,0.303-0.104,0.43-0.193c0.057-0.041,0.049-0.175,0.071-0.268
		c0.008-0.289,0.017-0.579,0.024-0.869c0.11-0.097,0.222-0.191,0.331-0.287c0.092-0.007,0.182,0.005,0.267,0.038
		c-0.079,0.794-0.159,1.589-0.237,2.385c-0.419,1.802-1.7,2.458-3.236,1.578c-0.532-0.305-1.039-0.765-1.38-1.273
		c-0.813-1.209-0.609-1.974,0.614-2.841c0.119-0.084,0.251-0.151,0.378-0.227c0.108-0.089,0.216-0.179,0.325-0.27l-0.019,0.017
		C22.225,26.517,22.442,26.517,22.658,26.518z"/>
	<path fill-rule="evenodd" clip-rule="evenodd" fill="#FEF5F3" d="M27.383,26.206c0.377-0.002,0.752-0.003,1.129-0.005
		c0.32,0.187,0.639,0.374,0.959,0.562c2.111,1.176,1.584,3.042,0.035,4.06c-0.164,0.108-0.313,0.249-0.486,0.338
		c-1.672,0.852-2.781,0.282-3.178-1.628c0.195-0.689-0.234-1.462,0.283-2.106l0.08-0.034c0.008,0.286,0.016,0.572,0.025,0.858
		c0.131,0.183,0.262,0.368,0.395,0.55c-0.002-0.248-0.002-0.496-0.016-0.744c-0.002-0.025-0.082-0.046-0.125-0.069
		c-0.02-0.194-0.037-0.389-0.057-0.583c0.023-0.043,0.039-0.096,0.074-0.125s0.121-0.057,0.127-0.047
		c0.455,0.677,0.875,1.377,1.369,2.021c0.111,0.143,0.479,0.089,0.729,0.125c-0.045-0.204-0.035-0.448-0.146-0.606
		c-0.477-0.667-0.986-1.311-1.486-1.962c0.365,0.089,0.729,0.179,1.094,0.269c0.021-0.084,0.043-0.166,0.066-0.249
		c-0.297-0.107-0.596-0.215-0.893-0.32C27.369,26.407,27.375,26.307,27.383,26.206z"/>
	<path fill-rule="evenodd" clip-rule="evenodd" fill="#F9BABB" d="M26.125,27.426c-0.518,0.645-0.088,1.417-0.283,2.106
		c-0.172,0-0.344,0-0.514,0c0.078-0.796,0.158-1.591,0.237-2.385c0.204-0.019,0.409-0.036,0.614-0.052
		C26.162,27.205,26.145,27.315,26.125,27.426z"/>
	<path fill-rule="evenodd" clip-rule="evenodd" fill="#FEF3F2" d="M22.007,21.461c-0.417-0.012-0.833-0.023-1.25-0.034
		C21.185,21.022,21.603,21.002,22.007,21.461z"/>
	<path fill-rule="evenodd" clip-rule="evenodd" fill="#F58B8A" d="M29.471,26.763c-0.32-0.188-0.639-0.375-0.959-0.562
		c0.326,0.063,0.756-0.183,0.938,0.313C29.449,26.598,29.457,26.681,29.471,26.763z"/>
	<path fill-rule="evenodd" clip-rule="evenodd" fill="#FEF3F2" d="M30.383,21.439c-0.34-0.005-0.678-0.01-1.018-0.016
		C29.711,21.062,30.051,21.036,30.383,21.439z"/>
	<path fill-rule="evenodd" clip-rule="evenodd" fill="#FEF3F2" d="M27.93,22.058c-0.016-0.098-0.031-0.194-0.049-0.292
		C27.914,21.86,27.932,21.958,27.93,22.058z"/>
	<path fill-rule="evenodd" clip-rule="evenodd" fill="#F58B8A" d="M22.028,26.5c-0.109,0.091-0.216,0.181-0.325,0.27
		c0.017-0.082,0.021-0.166,0.011-0.252C21.818,26.513,21.923,26.507,22.028,26.5z"/>
	<path fill-rule="evenodd" clip-rule="evenodd" fill="#EE6260" d="M26.125,27.426c0.02-0.11,0.037-0.221,0.055-0.33
		c-0.105-0.1-0.209-0.199-0.314-0.298c0.107-0.092,0.199-0.213,0.322-0.268c0.617-0.275,0.838-0.819,0.777-1.404
		c-0.072-0.712-0.652-1.095-1.287-1.236c-0.675-0.149-1.073,0.374-1.384,0.873c-0.141,0.228-0.127,0.55-0.184,0.831
		c-0.01,0.118-0.018,0.235-0.025,0.354c-0.103-0.012-0.205-0.024-0.309-0.035c-0.111-0.568-0.598-0.184-0.871-0.344
		c0.003-0.074,0.004-0.15,0.001-0.225c0.1-0.039,0.198-0.078,0.298-0.117c0.072-0.008,0.143-0.016,0.215-0.022
		c-0.069-0.064-0.138-0.129-0.208-0.193c-0.518-0.201-1.031-0.417-1.556-0.596c-0.179-0.061-0.444,0.042-0.57-0.058
		c-0.199-0.158-0.315-0.422-0.467-0.641c0.22-0.054,0.47-0.203,0.655-0.144c0.689,0.217,1.353,0.507,2.033,0.757
		c0.125,0.046,0.275,0.026,0.456,0.041c-0.123-0.208-0.219-0.373-0.314-0.537c0.094-0.089,0.187-0.179,0.28-0.268
		c0.099,0.069,0.197,0.139,0.295,0.208c0.033-0.079,0.066-0.159,0.098-0.239c0.014-0.086,0.037-0.171,0.07-0.253
		c0.123,0.061,0.247,0.123,0.371,0.183c0.033-0.173,0.065-0.346,0.098-0.518c0.094-0.001,0.187,0.002,0.279,0.012
		c0.114-0.007,0.229-0.014,0.343-0.021c-0.051-0.716-0.121-1.432-0.139-2.15c-0.004-0.172,0.126-0.458,0.258-0.501
		c0.363-0.121,0.512,0.118,0.512,0.467c-0.004,0.775-0.004,1.55,0.002,2.326c0,0.012,0.088,0.047,0.109,0.034
		c0.07-0.045,0.129-0.109,0.191-0.165c0.086-0.007,0.17-0.009,0.254-0.007c0.197,0.38,0.391,0.76,0.586,1.139
		c0.117,0.11,0.234,0.22,0.35,0.33c0.719-0.254,1.43-0.537,2.16-0.748c0.285-0.082,0.617-0.005,0.928,0.021
		c0.023,0.001,0.07,0.234,0.043,0.25c-0.271,0.159-0.547,0.328-0.844,0.431c-0.27,0.093-0.566,0.107-0.852,0.158
		c-0.094,0.067-0.188,0.135-0.281,0.203c-0.199,0.029-0.396,0.058-0.594,0.087c-0.094,0.067-0.188,0.136-0.279,0.204
		c-0.082,0.14-0.164,0.28-0.246,0.42c-0.02,0.176-0.039,0.354-0.057,0.53c-0.076,0.034-0.148,0.067-0.221,0.101
		c0.07,0.043,0.143,0.084,0.213,0.127l0.008,0.012c-0.008,0.101-0.014,0.201-0.021,0.303c-0.158,0.047-0.318,0.097-0.48,0.147
		c0.072,0.05,0.143,0.103,0.213,0.153c0.5,0.651,1.01,1.295,1.486,1.962c0.111,0.158,0.102,0.402,0.146,0.606
		c-0.25-0.036-0.617,0.018-0.729-0.125c-0.494-0.645-0.914-1.345-1.369-2.021c-0.006-0.01-0.092,0.018-0.127,0.047
		s-0.051,0.082-0.074,0.125c-0.074,0-0.15-0.004-0.223-0.012L26.125,27.426z"/>
	<path fill-rule="evenodd" clip-rule="evenodd" fill="#FEF3F2" d="M23.728,23.567c-0.094,0.089-0.187,0.179-0.28,0.268
		c-0.099-0.001-0.206,0.023-0.295-0.007c-0.167-0.057-0.325-0.144-0.487-0.217c0.111-0.128,0.206-0.278,0.339-0.381
		c0.152-0.118,0.336-0.194,0.506-0.289l0.146,0.01l0.144-0.014c0.13,0.116,0.261,0.231,0.392,0.346
		c-0.033,0.082-0.057,0.167-0.07,0.253C23.989,23.546,23.858,23.557,23.728,23.567z"/>
	<path fill-rule="evenodd" clip-rule="evenodd" fill="#F3817F" d="M27.439,25.437c0.082-0.14,0.164-0.28,0.246-0.42
		c0.09-0.004,0.184-0.01,0.277-0.017c0.387,0.108,0.775,0.217,1.162,0.325c-0.021,0.112-0.045,0.223-0.068,0.336
		C28.518,25.586,27.979,25.511,27.439,25.437z"/>
	<path fill-rule="evenodd" clip-rule="evenodd" fill="#F3817F" d="M24.938,22.96c-0.093-0.01-0.186-0.013-0.279-0.012
		c-0.193-0.323-0.385-0.645-0.578-0.967c0.096-0.05,0.193-0.099,0.289-0.148C24.56,22.209,24.749,22.584,24.938,22.96z"/>
	<path fill-rule="evenodd" clip-rule="evenodd" fill="#F27473" d="M26.469,22.942c-0.084-0.001-0.168,0-0.254,0.007
		c0.125-0.294,0.25-0.588,0.375-0.882c0.078,0.036,0.158,0.071,0.236,0.106C26.709,22.429,26.588,22.686,26.469,22.942z"/>
	<path fill-rule="evenodd" clip-rule="evenodd" fill="#F8ADAA" d="M23.776,25.913c0.104,0.011,0.206,0.023,0.309,0.035
		c-0.012,0.078-0.027,0.154-0.045,0.231c-0.09,0.019-0.181,0.03-0.273,0.038c-0.287,0.008-0.577,0.018-0.865,0.026
		C23.033,25.71,23.462,25.964,23.776,25.913z"/>
	<path fill-rule="evenodd" clip-rule="evenodd" fill="#F27473" d="M27.346,23.814c0.227-0.218,0.455-0.435,0.744-0.712
		c0.074,0.651-0.279,0.73-0.656,0.785L27.346,23.814z"/>
	<path fill-rule="evenodd" clip-rule="evenodd" fill="#ED5656" d="M22.907,25.345c0.003,0.074,0.002,0.15-0.001,0.225
		c-0.27,0-0.539,0-0.808,0c0-0.074,0-0.15,0-0.225C22.368,25.345,22.638,25.345,22.907,25.345z"/>
	<path fill-rule="evenodd" clip-rule="evenodd" fill="#F69798" d="M23.799,22.937l-0.144,0.014l-0.146-0.01
		c-0.072-0.165-0.146-0.33-0.218-0.495c0.083-0.021,0.226-0.078,0.238-0.057C23.633,22.563,23.712,22.752,23.799,22.937z"/>
	<path fill-rule="evenodd" clip-rule="evenodd" fill="#F59394" d="M27.475,22.417c0.068,0.066,0.176,0.139,0.168,0.16
		c-0.051,0.113-0.127,0.212-0.197,0.316c-0.078-0.056-0.158-0.112-0.238-0.167C27.295,22.626,27.381,22.525,27.475,22.417z"/>
	<path fill-rule="evenodd" clip-rule="evenodd" fill="#F58B8A" d="M22.658,26.518c-0.216-0.001-0.433-0.001-0.649-0.001
		C22.227,26.062,22.444,26.051,22.658,26.518z"/>
	<path fill-rule="evenodd" clip-rule="evenodd" fill="#F27473" d="M27.404,24.411c-0.115-0.11-0.232-0.219-0.35-0.33
		c0.096-0.089,0.195-0.178,0.291-0.267l0.088,0.073C27.424,24.063,27.414,24.237,27.404,24.411z"/>
	<path fill-rule="evenodd" clip-rule="evenodd" fill="#FEF3F2" d="M28.559,24.726c0.094-0.067,0.188-0.135,0.281-0.203
		C28.746,24.59,28.652,24.658,28.559,24.726z"/>
	<path fill-rule="evenodd" clip-rule="evenodd" fill="#FEF5F3" d="M27.375,26.194c-0.07-0.043-0.143-0.084-0.213-0.127
		c0.072-0.033,0.145-0.066,0.221-0.101C27.369,26.042,27.367,26.118,27.375,26.194z"/>
	<path fill-rule="evenodd" clip-rule="evenodd" fill="#FEF3F2" d="M27.963,25c-0.094,0.007-0.188,0.013-0.277,0.017
		c0.092-0.068,0.186-0.137,0.279-0.204C27.963,24.875,27.963,24.938,27.963,25z"/>
	<path fill-rule="evenodd" clip-rule="evenodd" fill="#FEF3F2" d="M23.212,25.012c0.07,0.064,0.139,0.129,0.208,0.193
		c-0.072,0.007-0.144,0.015-0.215,0.022C23.205,25.155,23.208,25.083,23.212,25.012z"/>
	<path fill-rule="evenodd" clip-rule="evenodd" fill="#F06C69" d="M24.04,26.18c0.018-0.077,0.033-0.153,0.045-0.231
		c0.008-0.119,0.016-0.236,0.025-0.354c0.398,0.399,0.798,0.801,1.197,1.2c-0.073,0.067-0.146,0.136-0.22,0.202
		c0.07,0.039,0.141,0.075,0.211,0.113c-0.109,0.096-0.221,0.19-0.331,0.287c-0.074,0.01-0.146,0.009-0.219-0.007
		c-0.473,0.519-0.949,1.033-1.415,1.556c-0.151,0.17-0.241,0.422-0.422,0.525c-0.114,0.064-0.364-0.045-0.514-0.141
		c-0.053-0.033-0.04-0.288,0.029-0.382c0.451-0.624,0.925-1.23,1.391-1.843l-0.018,0.013c0.09-0.102,0.179-0.203,0.269-0.306
		C24.637,26.575,23.964,26.395,24.04,26.18z"/>
	<path fill-rule="evenodd" clip-rule="evenodd" fill="#F58B8A" d="M24.04,26.18c-0.076,0.215,0.597,0.396,0.029,0.633
		c-0.09,0.103-0.179,0.204-0.269,0.306l0.018-0.013c-0.291,0.045-0.583,0.092-1.155,0.182c0.499-0.484,0.802-0.776,1.104-1.069
		C23.859,26.21,23.95,26.198,24.04,26.18z"/>
	<path fill-rule="evenodd" clip-rule="evenodd" fill="#ED5656" d="M25.299,27.109c-0.07-0.038-0.141-0.074-0.211-0.113
		c0.074-0.066,0.146-0.135,0.22-0.202c0.186,0.002,0.372,0.004,0.558,0.004c0.105,0.099,0.209,0.198,0.314,0.298
		c-0.205,0.016-0.41,0.033-0.614,0.052C25.48,27.114,25.391,27.103,25.299,27.109z"/>
	<path fill-rule="evenodd" clip-rule="evenodd" fill="#ED5C5A" d="M24.749,27.39c0.072,0.016,0.145,0.017,0.219,0.007
		c-0.008,0.29-0.017,0.58-0.024,0.869c-0.089,0.016-0.179,0.022-0.271,0.022C24.698,27.988,24.724,27.688,24.749,27.39z"/>
	<path fill-rule="evenodd" clip-rule="evenodd" fill="#F58B8A" d="M24.673,28.288c0.092,0,0.182-0.007,0.271-0.022
		c-0.022,0.093-0.015,0.227-0.071,0.268c-0.127,0.089-0.285,0.13-0.43,0.193C24.521,28.579,24.597,28.434,24.673,28.288z"/>
	<path fill-rule="evenodd" clip-rule="evenodd" fill="#F69798" d="M27.094,26.81c-0.07-0.051-0.141-0.104-0.213-0.153
		c0.162-0.051,0.322-0.101,0.48-0.147c0.297,0.105,0.596,0.213,0.893,0.32c-0.023,0.083-0.045,0.165-0.066,0.249
		C27.822,26.988,27.459,26.898,27.094,26.81z"/>
	<path fill-rule="evenodd" clip-rule="evenodd" fill="#F69798" d="M26.484,27.986c0.043,0.023,0.123,0.044,0.125,0.069
		c0.014,0.248,0.014,0.496,0.016,0.744c-0.133-0.182-0.264-0.367-0.395-0.55C26.314,28.162,26.398,28.074,26.484,27.986z"/>
	<path fill-rule="evenodd" clip-rule="evenodd" fill="#ED5C5A" d="M26.484,27.986c-0.086,0.088-0.17,0.176-0.254,0.264
		c-0.01-0.286-0.018-0.572-0.025-0.858c0.072,0.008,0.148,0.012,0.223,0.012C26.447,27.598,26.465,27.792,26.484,27.986z"/>
	<path fill-rule="evenodd" clip-rule="evenodd" fill="#FDE3E1" d="M25.865,26.798c-0.186,0-0.372-0.002-0.558-0.004
		c-0.399-0.399-0.799-0.801-1.197-1.2c0.057-0.28,0.043-0.603,0.184-0.831c0.311-0.5,0.709-1.022,1.384-0.873
		c0.635,0.141,1.215,0.523,1.287,1.236c0.061,0.585-0.16,1.129-0.777,1.404C26.064,26.585,25.973,26.706,25.865,26.798z
		 M25.622,26.45c0.356-0.51,0.794-0.863,0.759-1.16c-0.039-0.307-0.537-0.556-0.836-0.83c-0.273,0.297-0.749,0.587-0.764,0.896
		C24.768,25.655,25.232,25.974,25.622,26.45z"/>
	<path fill-rule="evenodd" clip-rule="evenodd" fill="#FFF6F5" d="M23.728,23.567c0.131-0.01,0.262-0.021,0.393-0.031
		c-0.031,0.08-0.064,0.16-0.098,0.239C23.925,23.706,23.826,23.636,23.728,23.567z"/>
	<path fill-rule="evenodd" clip-rule="evenodd" fill="#FEF5F3" d="M23.801,27.118c0.09-0.102,0.179-0.203,0.269-0.306
		C23.979,26.915,23.891,27.017,23.801,27.118z"/>
	<path fill-rule="evenodd" clip-rule="evenodd" fill="#ED5656" d="M25.622,26.45c-0.39-0.477-0.854-0.795-0.841-1.094
		c0.015-0.31,0.49-0.599,0.764-0.896c0.299,0.274,0.797,0.523,0.836,0.83C26.416,25.587,25.979,25.94,25.622,26.45z"/>
</g>
</svg>
