<?xml version="1.0" encoding="utf-8"?>
<!-- Generator: Adobe Illustrator 16.0.0, SVG Export Plug-In . SVG Version: 6.00 Build 0)  -->
<!DOCTYPE svg PUBLIC "-//W3C//DTD SVG 1.1//EN" "http://www.w3.org/Graphics/SVG/1.1/DTD/svg11.dtd">
<svg version="1.1" id="Layer_1" xmlns="http://www.w3.org/2000/svg" xmlns:xlink="http://www.w3.org/1999/xlink" x="0px" y="0px"
	 width="50px" height="50px" viewBox="0 0 50 50" enable-background="new 0 0 50 50" xml:space="preserve">
<g>
	<path fill-rule="evenodd" clip-rule="evenodd" fill="#141414" d="M25.295,44.448c-3.763,4.542-8.354,3.558-10.835,1.323
		c-2.504-2.256-3.46-6.764-0.102-10.404c-1.209-1.472-2.148-3.07-2.157-5.114c-0.009-2.046,0.704-3.733,2.146-5.233
		c-1.359-1.485-2.149-3.141-2.148-5.186c0.001-2.056,0.882-3.677,2.138-5.146c-3.035-4.102-2.76-8.206,0.626-10.849
		c2.764-2.158,7.361-2.189,10.315,1.807c1.606-2.084,3.625-3.349,6.344-3.256c1.822,0.063,3.365,0.766,4.648,1.992
		c2.185,2.087,3.441,6.292,0.016,10.236c2.824,4.2,2.837,7.045-0.019,10.347c1.229,1.469,2.125,3.081,2.111,5.132
		c-0.013,2.056-0.808,3.712-2.217,5.272c1.891,1.811,2.535,4.077,2.107,6.571c-0.289,1.687-1.188,3.106-2.597,4.182
		C32.369,48.645,28.621,48.055,25.295,44.448z M21.015,25.002c2.422-1.125,3.7-2.894,3.603-5.287c-0.1-2.422-1.425-4.18-3.837-4.995
		c3.577-1.623,4.25-4.522,3.645-6.692c-0.682-2.446-3.07-3.911-5.083-3.945c-2.458-0.042-4.641,1.645-5.293,3.885
		c-0.794,2.727,0.389,4.865,3.577,6.738c-2.193,0.917-3.608,2.424-3.708,4.919c-0.1,2.521,1.14,4.238,3.484,5.387
		c-2.666,1.299-3.801,3.28-3.417,6.034c0.303,2.176,1.714,3.44,3.633,4.248c0,0-0.022,0.044-0.058,0.065
		c-0.206,0.122-0.409,0.248-0.622,0.355c-2.172,1.089-3.065,2.86-3.025,5.268c0.043,2.655,2.967,5.865,6.931,4.682
		c1.74-0.52,3.629-2.063,3.777-4.916c0.111-2.157-0.951-3.866-2.881-4.953c-0.308-0.173-0.626-0.328-0.987-0.517
		c2.439-0.827,3.751-2.559,3.861-4.944C24.725,27.935,23.472,26.15,21.015,25.002z M29.777,35.27
		c-3.344,1.989-4.408,3.945-3.599,6.797c0.706,2.484,3.128,3.729,4.722,3.835c2.963,0.197,4.986-1.776,5.546-3.695
		c0.41-1.408,0.33-2.836-0.367-4.197c-0.685-1.335-1.884-2.055-3.173-2.715c1.999-0.78,3.351-2.065,3.673-4.151
		c0.43-2.781-0.681-4.841-3.423-6.139c2.348-1.132,3.562-2.81,3.508-5.281c-0.056-2.543-1.495-4.067-3.712-5.032
		c3.17-1.805,4.396-4.051,3.568-6.765c-0.716-2.346-2.95-3.792-5.034-3.841c-2.552-0.06-4.703,1.758-5.31,3.845
		c-0.621,2.14-0.161,5.013,3.605,6.799c-2.267,0.778-3.622,2.413-3.808,4.745c-0.203,2.528,1.116,4.349,3.422,5.462
		c-2.561,1.793-3.746,3.697-3.458,5.586C26.293,32.841,27.506,34.492,29.777,35.27z M25.288,36.793
		c0.432-0.496,0.838-0.962,1.244-1.427c-0.482-0.562-0.865-1.007-1.292-1.502c-0.44,0.594-0.793,1.07-1.15,1.551
		C24.488,35.873,24.828,36.265,25.288,36.793z M25.281,16.169c0.46-0.586,0.826-1.052,1.233-1.571
		c-0.422-0.475-0.811-0.913-1.237-1.394c-0.471,0.563-0.829,0.992-1.188,1.421C24.472,15.123,24.815,15.567,25.281,16.169z
		 M25.291,26.367c0.463-0.534,0.803-0.928,1.184-1.366c-0.409-0.464-0.773-0.877-1.196-1.356c-0.439,0.522-0.795,0.946-1.16,1.38
		C24.521,25.485,24.861,25.875,25.291,26.367z"/>
	<path fill-rule="evenodd" clip-rule="evenodd" fill="#EBE9ED" d="M21.015,25.002c2.457,1.148,3.709,2.933,3.599,5.332
		c-0.11,2.386-1.422,4.117-3.861,4.944c0.361,0.188,0.68,0.344,0.987,0.517c1.931,1.087,2.993,2.796,2.881,4.953
		c-0.148,2.854-2.037,4.396-3.777,4.916c-3.964,1.184-6.888-2.026-6.931-4.682c-0.04-2.407,0.854-4.179,3.025-5.268
		c0.213-0.107,0.417-0.233,0.622-0.355c0.035-0.021,0.057-0.065,0.058-0.065c-1.919-0.808-3.33-2.072-3.633-4.248
		c-0.384-2.754,0.751-4.735,3.417-6.034c-2.344-1.149-3.584-2.867-3.484-5.387c0.099-2.495,1.514-4.002,3.708-4.919
		c-3.188-1.873-4.371-4.011-3.577-6.738c0.652-2.24,2.835-3.927,5.293-3.885c2.013,0.035,4.401,1.5,5.083,3.945
		c0.604,2.17-0.068,5.069-3.645,6.692c2.412,0.814,3.737,2.572,3.837,4.995C24.715,22.108,23.437,23.876,21.015,25.002z
		 M19.297,4.95C17.051,4.798,14.83,6.5,14.648,9.409c-0.15,2.42,2.049,4.523,4.542,4.59c2.1,0.057,4.541-1.581,4.622-4.501
		C23.876,7.18,22.002,4.874,19.297,4.95z M19.247,15.38c-2.239-0.137-4.468,1.609-4.597,4.509c-0.109,2.448,2.084,4.49,4.592,4.538
		c2.1,0.041,4.531-1.638,4.57-4.55C23.843,17.535,21.948,15.279,19.247,15.38z M19.174,45.052c2.662,0.124,4.606-1.987,4.635-4.426
		c0.033-2.754-2.228-4.618-4.494-4.617c-2.53,0.001-4.702,1.961-4.66,4.461C14.704,43.346,16.937,45.162,19.174,45.052z
		 M19.293,34.622c2.708,0.074,4.58-2.221,4.519-4.545c-0.078-2.923-2.516-4.558-4.617-4.505c-2.492,0.063-4.693,2.167-4.545,4.587
		C14.827,33.075,17.052,34.77,19.293,34.622z"/>
	<path fill-rule="evenodd" clip-rule="evenodd" fill="#EBE9ED" d="M29.777,35.27c-2.271-0.777-3.484-2.429-3.839-4.748
		c-0.288-1.889,0.897-3.793,3.458-5.586c-2.307-1.113-3.625-2.934-3.422-5.462c0.186-2.332,1.542-3.966,3.808-4.745
		c-3.767-1.786-4.227-4.659-3.605-6.799c0.606-2.087,2.758-3.905,5.31-3.845c2.084,0.049,4.318,1.495,5.034,3.841
		c0.828,2.714-0.398,4.96-3.568,6.765c2.217,0.965,3.656,2.489,3.712,5.032c0.054,2.471-1.16,4.148-3.508,5.281
		c2.742,1.298,3.853,3.357,3.423,6.139c-0.322,2.086-1.674,3.371-3.673,4.151c1.289,0.66,2.488,1.38,3.173,2.715
		c0.697,1.361,0.777,2.789,0.367,4.197c-0.56,1.919-2.583,3.893-5.546,3.695c-1.594-0.105-4.016-1.351-4.722-3.835
		C25.369,39.215,26.434,37.259,29.777,35.27z M31.335,4.95c-2.7-0.103-4.597,2.156-4.568,4.495c0.036,2.88,2.439,4.591,4.567,4.552
		c2.509-0.045,4.697-2.082,4.594-4.535C35.806,6.573,33.582,4.813,31.335,4.95z M31.331,15.38c-2.704-0.101-4.597,2.166-4.564,4.498
		c0.04,2.891,2.452,4.589,4.571,4.549c2.507-0.047,4.697-2.088,4.59-4.539C35.802,16.997,33.577,15.242,31.331,15.38z
		 M31.338,45.052c2.243,0.135,4.47-1.621,4.59-4.516c0.102-2.454-2.089-4.49-4.598-4.532c-2.125-0.035-4.532,1.67-4.563,4.557
		C26.742,42.93,28.658,45.153,31.338,45.052z M31.363,34.621c2.238,0.128,4.469-1.649,4.563-4.54
		c0.081-2.478-2.099-4.479-4.621-4.505c-2.192-0.023-4.532,1.757-4.538,4.578C26.764,32.56,28.704,34.734,31.363,34.621z"/>
	<path fill-rule="evenodd" clip-rule="evenodd" fill="#1D1D51" d="M19.297,4.95c2.705-0.077,4.579,2.229,4.515,4.548
		c-0.081,2.92-2.522,4.558-4.622,4.501c-2.493-0.067-4.692-2.17-4.542-4.59C14.83,6.5,17.051,4.798,19.297,4.95z M20.216,9.52
		c0.037-0.525-0.396-1.012-0.925-1.042c-0.524-0.029-0.903,0.288-0.964,0.806c-0.059,0.503,0.349,1.089,0.809,1.164
		C19.522,10.51,20.187,9.939,20.216,9.52z M18.977,7.353c0.295,0,0.395-0.018,0.485,0.003c0.354,0.084,0.817,0.295,0.874-0.273
		c0.048-0.474-0.443-0.534-0.809-0.6c-0.185-0.034-0.387-0.039-0.568,0c-0.395,0.086-0.981,0.09-0.863,0.676
		c0.108,0.538,0.592,0.256,0.939,0.192C19.082,7.341,19.13,7.344,18.977,7.353z M17.619,7.959c-0.047-0.062-0.11-0.21-0.221-0.27
		c-0.105-0.057-0.289-0.072-0.39-0.017c-0.463,0.256-0.844,1.394-0.634,1.887c0.05,0.117,0.185,0.242,0.303,0.27
		c0.098,0.023,0.301-0.06,0.334-0.145C17.227,9.132,17.41,8.566,17.619,7.959z M19.457,11.845c0.28,0.15,0.587,0.425,0.706,0.359
		c0.485-0.27,0.935-0.62,1.347-0.996c0.094-0.085,0.028-0.408-0.049-0.584c-0.026-0.058-0.367-0.064-0.482,0.019
		C20.486,10.995,20.024,11.39,19.457,11.845z M18.943,11.906c-0.122-0.185-0.174-0.333-0.279-0.409
		c-0.271-0.195-0.559-0.37-0.853-0.53c-0.264-0.143-0.575-0.395-0.813-0.346c-0.299,0.062-0.135,0.689,0.344,1.05
		c0.299,0.225,0.641,0.427,0.995,0.533C18.489,12.25,18.721,12.023,18.943,11.906z M21.604,10.045
		c0.635-1.022,0.493-2.032-0.216-2.364c-0.089-0.042-0.464,0.242-0.447,0.304C21.116,8.634,21.344,9.269,21.604,10.045z"/>
	<path fill-rule="evenodd" clip-rule="evenodd" fill="#1D1D51" d="M19.247,15.38c2.701-0.101,4.597,2.155,4.565,4.498
		c-0.039,2.912-2.471,4.59-4.57,4.55c-2.507-0.048-4.701-2.09-4.592-4.538C14.778,16.99,17.007,15.243,19.247,15.38z M19.166,18.91
		c-0.531,0.036-0.854,0.406-0.842,0.963c0.011,0.514,0.557,1.06,1.005,1.006c0.367-0.044,0.886-0.637,0.882-1.006
		C20.204,19.321,19.718,18.872,19.166,18.91z M19.356,17.748c0.221,0.062,0.323,0.126,0.401,0.104
		c0.197-0.054,0.383-0.148,0.574-0.225c-0.139-0.207-0.269-0.582-0.418-0.59c-0.544-0.031-1.098,0.042-1.64,0.127
		c-0.085,0.013-0.214,0.326-0.17,0.442c0.055,0.145,0.273,0.325,0.414,0.319C18.836,17.912,19.152,17.795,19.356,17.748z
		 M16.694,20.301c0.09-0.041,0.219-0.057,0.243-0.116c0.24-0.586,0.473-1.176,0.675-1.776c0.023-0.07-0.136-0.252-0.248-0.304
		c-0.105-0.049-0.288-0.042-0.385,0.02c-0.477,0.307-0.822,1.416-0.592,1.9C16.442,20.141,16.592,20.212,16.694,20.301z
		 M17.079,20.85c-0.489,0.911,0.175,1.2,0.657,1.514c0.372,0.242,0.844,0.621,1.182-0.218C18.333,21.733,17.729,21.308,17.079,20.85
		z M19.925,22.661c0.521,0.043,1.75-0.867,1.723-1.309c-0.008-0.141-0.411-0.412-0.477-0.371c-0.515,0.317-0.999,0.688-1.474,1.065
		c-0.068,0.054-0.086,0.251-0.044,0.344C19.705,22.507,19.844,22.585,19.925,22.661z M22.198,19.636
		c-0.131-0.383-0.204-0.769-0.392-1.085c-0.126-0.213-0.466-0.501-0.623-0.456c-0.469,0.136-0.247,0.498-0.131,0.813
		c0.097,0.264,0.089,0.575,0.218,0.816c0.111,0.208,0.351,0.346,0.534,0.515C21.926,20.054,22.047,19.867,22.198,19.636z"/>
	<path fill-rule="evenodd" clip-rule="evenodd" fill="#1C1C50" d="M19.174,45.052c-2.237,0.11-4.47-1.706-4.519-4.582
		c-0.042-2.5,2.13-4.46,4.66-4.461c2.267-0.001,4.527,1.863,4.494,4.617C23.78,43.064,21.835,45.176,19.174,45.052z M20.229,40.517
		c-0.015-0.402-0.675-1.007-1.054-0.965c-0.466,0.052-0.892,0.616-0.849,1.127c0.045,0.546,0.383,0.854,0.924,0.844
		C19.781,41.512,20.247,41.033,20.229,40.517z M20.042,43.377c0.622-0.266,1.258-0.456,1.525-1.148
		c0.052-0.136,0.03-0.377-0.06-0.471c-0.091-0.095-0.358-0.145-0.464-0.079c-0.435,0.271-0.85,0.577-1.245,0.904
		c-0.121,0.1-0.239,0.326-0.206,0.455C19.626,43.166,19.852,43.243,20.042,43.377z M16.152,40.262
		c0.206,0.244,0.386,0.458,0.567,0.671c0.155-0.186,0.358-0.349,0.456-0.561c0.174-0.377,0.31-0.776,0.407-1.18
		c0.032-0.132-0.064-0.375-0.176-0.439c-0.115-0.067-0.415-0.04-0.471,0.048C16.665,39.229,16.45,39.69,16.152,40.262z
		 M19.359,38.604c0.275-0.182,0.91,0.342,0.974-0.355c0.072-0.787-0.655-0.511-1.041-0.54c-0.914-0.07-1.342,0.159-1.217,0.541
		C18.301,38.935,18.883,38.471,19.359,38.604z M21.964,41.107c0.284-1.037,0.111-1.744-0.477-2.325
		c-0.072-0.071-0.524,0.092-0.521,0.116C21.047,39.658,21.063,40.46,21.964,41.107z M18.965,43.002
		c-0.142-0.191-0.203-0.323-0.305-0.401c-0.292-0.227-0.601-0.434-0.906-0.644c-0.239-0.165-0.461-0.64-0.768-0.207
		c-0.11,0.155,0.046,0.614,0.215,0.829c0.316,0.404,0.717,0.775,1.308,0.684C18.659,43.239,18.791,43.105,18.965,43.002z"/>
	<path fill-rule="evenodd" clip-rule="evenodd" fill="#1C1C50" d="M19.293,34.622c-2.241,0.147-4.466-1.547-4.644-4.463
		c-0.148-2.42,2.054-4.523,4.545-4.587c2.101-0.053,4.539,1.582,4.617,4.505C23.873,32.401,22.001,34.696,19.293,34.622z
		 M19.192,29.122c-0.46,0.037-0.901,0.602-0.867,1.109c0.04,0.586,0.471,0.937,1.049,0.854c0.468-0.067,0.858-0.52,0.848-0.984
		C20.213,29.691,19.581,29.09,19.192,29.122z M21.677,31.532c-0.071-0.091-0.136-0.234-0.245-0.292
		c-0.102-0.054-0.288-0.067-0.375-0.008c-0.463,0.314-0.926,0.638-1.345,1.008c-0.088,0.079-0.054,0.497,0.031,0.538
		C20.36,33.078,21.638,32.251,21.677,31.532z M17.33,28.212c-0.139,0.017-0.19,0.012-0.231,0.028
		c-0.526,0.219-1.025,1.675-0.669,2.095c0.093,0.109,0.626,0.06,0.674-0.045c0.227-0.502,0.388-1.042,0.5-1.584
		C17.635,28.558,17.416,28.356,17.33,28.212z M18.993,28.124c0.423,0.03,0.673,0.103,0.89,0.046c0.18-0.048,0.431-0.233,0.448-0.381
		c0.016-0.141-0.2-0.378-0.368-0.453c-0.203-0.091-0.472-0.105-0.696-0.065c-0.423,0.077-1.141-0.2-1.168,0.445
		C18.067,28.459,18.772,28.09,18.993,28.124z M17.086,31.074c-0.08,0.243-0.257,0.521-0.187,0.618
		c0.269,0.37,0.57,0.769,0.955,0.986c0.25,0.141,0.666-0.015,1.008-0.037c-0.187-0.229-0.357-0.475-0.566-0.681
		c-0.231-0.229-0.495-0.428-0.752-0.628C17.438,31.252,17.311,31.2,17.086,31.074z M21.124,28.089
		c-0.442,0.897,0.185,1.493,0.274,2.168c0.012,0.093,0.327,0.227,0.467,0.194c0.109-0.025,0.226-0.276,0.234-0.433
		C22.138,29.27,21.939,28.618,21.124,28.089z"/>
	<path fill-rule="evenodd" clip-rule="evenodd" fill="#1D1C50" d="M31.335,4.95c2.247-0.137,4.471,1.623,4.593,4.512
		c0.104,2.453-2.085,4.489-4.594,4.535c-2.128,0.039-4.531-1.672-4.567-4.552C26.738,7.106,28.635,4.848,31.335,4.95z M32.255,9.482
		c0.034-0.621-0.313-1.003-0.909-1.003c-0.533,0-1,0.469-0.988,0.991c0.007,0.343,0.545,0.934,0.89,0.978
		C31.684,10.503,32.229,9.982,32.255,9.482z M31.283,7.335c0.143,0.012,0.303-0.014,0.423,0.044c0.36,0.175,0.719,0.12,0.776-0.251
		c0.026-0.169-0.383-0.429-0.623-0.607c-0.1-0.073-0.276-0.046-0.418-0.052c-0.754-0.033-1.329,0.261-1.218,0.65
		C30.416,7.789,30.918,7.307,31.283,7.335z M33.785,10.712c-0.25-0.051-0.482-0.179-0.606-0.11
		c-0.452,0.249-0.883,0.546-1.289,0.866c-0.116,0.091-0.221,0.407-0.165,0.467c0.137,0.147,0.436,0.336,0.551,0.277
		c0.455-0.236,0.882-0.541,1.283-0.864C33.68,11.251,33.685,11.012,33.785,10.712z M34.396,9.233
		c-0.234-0.509-0.414-0.986-0.678-1.412c-0.074-0.121-0.395-0.089-0.603-0.127c-0.017,0.201-0.081,0.412-0.04,0.601
		c0.076,0.36,0.186,0.719,0.334,1.055c0.088,0.197,0.277,0.348,0.421,0.52C34.002,9.677,34.174,9.484,34.396,9.233z M29.193,10.456
		c-0.09,0.208-0.291,0.469-0.229,0.566c0.194,0.314,0.454,0.608,0.747,0.837c0.596,0.468,1.051,0.49,1.19,0.097
		c0.197-0.553-0.38-0.511-0.614-0.729c-0.209-0.193-0.418-0.384-0.643-0.558C29.541,10.588,29.402,10.552,29.193,10.456z
		 M28.389,9.163C28.535,9.4,28.67,9.62,28.806,9.84c0.173-0.181,0.397-0.335,0.507-0.549c0.121-0.239,0.109-0.542,0.207-0.798
		c0.119-0.311,0.322-0.678-0.1-0.813c-0.16-0.051-0.519,0.294-0.681,0.532C28.563,8.466,28.512,8.807,28.389,9.163z"/>
	<path fill-rule="evenodd" clip-rule="evenodd" fill="#1D1C50" d="M31.331,15.38c2.246-0.138,4.471,1.617,4.597,4.508
		c0.107,2.451-2.083,4.492-4.59,4.539c-2.119,0.04-4.531-1.659-4.571-4.549C26.734,17.546,28.627,15.28,31.331,15.38z
		 M31.309,20.885c0.44,0.018,0.944-0.534,0.946-1.036c0.002-0.543-0.312-0.899-0.831-0.939c-0.545-0.043-0.996,0.356-1.037,0.918
		C30.354,20.262,30.882,20.868,31.309,20.885z M31.281,17.765c0.142,0.012,0.302-0.014,0.422,0.043
		c0.359,0.171,0.719,0.125,0.777-0.248c0.027-0.169-0.37-0.446-0.619-0.606c-0.141-0.09-0.369-0.058-0.559-0.056
		c-0.701,0.008-1.181,0.281-1.076,0.646C30.417,18.214,30.916,17.739,31.281,17.765z M33.488,20.892
		c-0.6,0.371-1.127,0.672-1.621,1.022c-0.111,0.079-0.15,0.329-0.136,0.492c0.009,0.094,0.235,0.266,0.294,0.241
		c0.463-0.202,0.932-0.408,1.353-0.684C33.73,21.731,33.848,21.373,33.488,20.892z M34.405,19.667
		c-0.259-0.526-0.481-1.028-0.761-1.497c-0.051-0.087-0.363-0.107-0.49-0.038c-0.105,0.059-0.191,0.31-0.158,0.444
		c0.111,0.446,0.248,0.893,0.439,1.31c0.074,0.162,0.355,0.37,0.48,0.335C34.089,20.171,34.202,19.914,34.405,19.667z
		 M30.982,22.335c-0.012-0.08-0.002-0.139-0.025-0.155c-0.552-0.413-1.106-0.822-1.678-1.208c-0.007-0.005-0.354,0.333-0.328,0.467
		c0.092,0.457,1.205,1.277,1.623,1.216C30.729,22.634,30.857,22.438,30.982,22.335z M28.39,19.581
		c0.142,0.239,0.274,0.462,0.405,0.684c0.177-0.175,0.406-0.323,0.516-0.534c0.122-0.238,0.168-0.53,0.188-0.803
		c0.02-0.283-0.033-0.571-0.055-0.857c-0.238,0.183-0.537,0.324-0.7,0.56C28.566,18.885,28.514,19.226,28.39,19.581z"/>
	<path fill-rule="evenodd" clip-rule="evenodd" fill="#1C1B50" d="M31.338,45.052c-2.68,0.102-4.596-2.122-4.57-4.491
		c0.03-2.887,2.438-4.592,4.563-4.557c2.509,0.042,4.699,2.078,4.598,4.532C35.808,43.431,33.581,45.187,31.338,45.052z
		 M32.254,40.673c0.039-0.512-0.391-1.074-0.855-1.12c-0.382-0.039-1.033,0.565-1.046,0.969c-0.017,0.52,0.449,0.994,0.982,1.001
		C31.881,41.529,32.211,41.224,32.254,40.673z M30.642,43.283c0.069-0.052,0.243-0.133,0.33-0.27
		c0.044-0.069-0.033-0.284-0.12-0.355c-0.432-0.357-0.874-0.707-1.342-1.017c-0.097-0.064-0.336,0.021-0.469,0.102
		c-0.08,0.049-0.134,0.238-0.108,0.342C29.082,42.683,29.892,43.276,30.642,43.283z M34.406,40.392
		c-0.236-0.544-0.408-1.026-0.658-1.464c-0.078-0.136-0.369-0.148-0.563-0.219c-0.057,0.19-0.188,0.396-0.153,0.569
		c0.079,0.405,0.212,0.807,0.375,1.188c0.078,0.182,0.339,0.466,0.407,0.438C34.023,40.817,34.18,40.603,34.406,40.392z
		 M31.355,38.604c0-0.007,0-0.013,0-0.02c0.283,0,0.574,0.044,0.842-0.019c0.134-0.031,0.266-0.242,0.313-0.398
		c0.025-0.086-0.124-0.322-0.2-0.325c-0.645-0.025-1.292-0.022-1.937,0.004c-0.062,0.003-0.18,0.245-0.153,0.343
		c0.043,0.153,0.166,0.368,0.292,0.396C30.781,38.646,31.074,38.604,31.355,38.604z M29.376,38.623
		c-0.133,0.057-0.178,0.069-0.216,0.094c-0.496,0.313-0.887,1.501-0.642,2.024c0.044,0.095,0.22,0.179,0.333,0.177
		c0.121-0.003,0.32-0.089,0.348-0.18c0.172-0.572,0.324-1.153,0.434-1.74C29.654,38.888,29.459,38.737,29.376,38.623z M33.436,41.53
		c-0.602,0.421-1.076,0.729-1.52,1.079c-0.121,0.095-0.146,0.312-0.215,0.473c0.164,0.067,0.338,0.207,0.493,0.188
		c0.716-0.087,1.206-0.514,1.478-1.163C33.719,41.994,33.549,41.793,33.436,41.53z"/>
	<path fill-rule="evenodd" clip-rule="evenodd" fill="#1C1B50" d="M31.363,34.621c-2.659,0.113-4.6-2.062-4.596-4.467
		c0.006-2.821,2.346-4.602,4.538-4.578c2.522,0.026,4.702,2.027,4.621,4.505C35.832,32.972,33.602,34.749,31.363,34.621z
		 M32.256,30.125c-0.013-0.495-0.541-1.042-0.975-1.008c-0.328,0.026-0.916,0.625-0.933,0.95c-0.026,0.515,0.435,1.005,0.962,1.024
		C31.903,31.114,32.271,30.738,32.256,30.125z M29.272,31.029c-0.147,0.227-0.372,0.411-0.355,0.572
		c0.07,0.676,1.2,1.406,1.827,1.194c0.111-0.037,0.246-0.377,0.219-0.4C30.438,31.943,29.889,31.518,29.272,31.029z M34.405,29.941
		c-0.238-0.538-0.413-1.019-0.667-1.453c-0.076-0.132-0.371-0.138-0.565-0.201c-0.05,0.193-0.169,0.399-0.135,0.576
		c0.08,0.405,0.207,0.808,0.37,1.188c0.078,0.181,0.284,0.305,0.432,0.454C34.013,30.333,34.186,30.16,34.405,29.941z
		 M31.313,28.141c0.26,0.017,0.514,0.09,0.726,0.026c0.187-0.056,0.328-0.265,0.489-0.406c-0.154-0.147-0.295-0.402-0.465-0.425
		c-0.463-0.061-0.943-0.06-1.407-0.004c-0.164,0.02-0.401,0.252-0.429,0.415c-0.062,0.374,0.229,0.456,0.545,0.437
		C30.96,28.172,31.148,28.154,31.313,28.141z M28.347,29.771c0.159,0.33,0.214,0.568,0.362,0.696
		c0.07,0.061,0.438-0.048,0.472-0.147c0.19-0.565,0.334-1.148,0.46-1.732c0.021-0.093-0.104-0.279-0.203-0.318
		c-0.1-0.039-0.32,0.013-0.366,0.094C28.803,28.834,28.571,29.325,28.347,29.771z M31.63,32.454
		c0.029,0.126,0.059,0.251,0.089,0.377c0.344-0.044,0.741,0.004,1.021-0.154c0.359-0.203,0.646-0.553,0.912-0.882
		c0.063-0.077-0.053-0.345-0.146-0.484c-0.045-0.065-0.273-0.093-0.348-0.04C32.639,31.65,32.137,32.057,31.63,32.454z"/>
	<path fill-rule="evenodd" clip-rule="evenodd" fill="#DEDDE9" d="M20.216,9.52c-0.029,0.419-0.694,0.99-1.081,0.928
		c-0.46-0.074-0.868-0.661-0.809-1.164c0.061-0.518,0.44-0.834,0.964-0.806C19.821,8.508,20.253,8.995,20.216,9.52z M19.601,9.465
		c-0.127-0.14-0.218-0.293-0.353-0.364c-0.056-0.03-0.204,0.117-0.311,0.183c0.118,0.171,0.236,0.341,0.354,0.512
		C19.375,9.706,19.459,9.616,19.601,9.465z"/>
	<path fill-rule="evenodd" clip-rule="evenodd" fill="#DFDEEA" d="M18.977,7.353c0.153-0.009,0.104-0.011,0.059-0.002
		c-0.347,0.064-0.831,0.346-0.939-0.192c-0.118-0.586,0.468-0.59,0.863-0.676c0.181-0.039,0.383-0.034,0.568,0
		c0.366,0.066,0.857,0.126,0.809,0.6c-0.057,0.568-0.52,0.357-0.874,0.273C19.372,7.334,19.272,7.353,18.977,7.353z"/>
	<path fill-rule="evenodd" clip-rule="evenodd" fill="#E6E5EF" d="M17.619,7.959c-0.209,0.607-0.392,1.173-0.608,1.726
		c-0.033,0.084-0.236,0.168-0.334,0.145c-0.118-0.028-0.253-0.153-0.303-0.27c-0.209-0.494,0.171-1.631,0.634-1.887
		c0.101-0.055,0.284-0.04,0.39,0.017C17.509,7.75,17.572,7.898,17.619,7.959z"/>
	<path fill-rule="evenodd" clip-rule="evenodd" fill="#EFEEF4" d="M19.457,11.845c0.567-0.455,1.029-0.851,1.521-1.203
		c0.116-0.083,0.457-0.077,0.482-0.019c0.077,0.176,0.143,0.499,0.049,0.584c-0.412,0.376-0.861,0.727-1.347,0.996
		C20.044,12.27,19.737,11.995,19.457,11.845z"/>
	<path fill-rule="evenodd" clip-rule="evenodd" fill="#ECECF3" d="M18.943,11.906c-0.222,0.117-0.454,0.344-0.605,0.298
		c-0.354-0.106-0.696-0.308-0.995-0.533c-0.479-0.361-0.643-0.988-0.344-1.05c0.238-0.049,0.548,0.203,0.813,0.346
		c0.294,0.16,0.582,0.335,0.853,0.53C18.769,11.572,18.821,11.721,18.943,11.906z"/>
	<path fill-rule="evenodd" clip-rule="evenodd" fill="#F1F0F7" d="M21.604,10.045c-0.26-0.776-0.488-1.411-0.664-2.06
		c-0.017-0.063,0.358-0.346,0.447-0.304C22.097,8.013,22.239,9.023,21.604,10.045z"/>
	<path fill-rule="evenodd" clip-rule="evenodd" fill="#DEDDE9" d="M19.166,18.91c0.552-0.038,1.038,0.411,1.045,0.962
		c0.004,0.369-0.515,0.962-0.882,1.006c-0.448,0.054-0.994-0.492-1.005-1.006C18.312,19.315,18.635,18.945,19.166,18.91z
		 M19.211,19.378c-0.146,0.216-0.295,0.371-0.27,0.409c0.113,0.167,0.275,0.301,0.42,0.446c0.055-0.125,0.169-0.261,0.149-0.373
		C19.485,19.717,19.352,19.593,19.211,19.378z"/>
	<path fill-rule="evenodd" clip-rule="evenodd" fill="#DFDEEA" d="M19.356,17.748c-0.204,0.048-0.52,0.165-0.84,0.177
		c-0.141,0.006-0.358-0.174-0.414-0.319c-0.044-0.116,0.084-0.429,0.17-0.442c0.542-0.085,1.096-0.158,1.64-0.127
		c0.15,0.009,0.279,0.383,0.418,0.59c-0.19,0.077-0.376,0.171-0.574,0.225C19.679,17.874,19.577,17.809,19.356,17.748z"/>
	<path fill-rule="evenodd" clip-rule="evenodd" fill="#E6E5EF" d="M16.694,20.301c-0.103-0.089-0.252-0.16-0.307-0.276
		c-0.23-0.485,0.115-1.594,0.592-1.9c0.097-0.062,0.28-0.069,0.385-0.02c0.111,0.052,0.271,0.234,0.248,0.304
		c-0.202,0.6-0.435,1.19-0.675,1.776C16.913,20.245,16.785,20.261,16.694,20.301z"/>
	<path fill-rule="evenodd" clip-rule="evenodd" fill="#ECECF3" d="M17.079,20.85c0.649,0.458,1.253,0.883,1.839,1.296
		c-0.338,0.839-0.81,0.46-1.182,0.218C17.254,22.05,16.59,21.761,17.079,20.85z"/>
	<path fill-rule="evenodd" clip-rule="evenodd" fill="#EFEEF4" d="M19.925,22.661c-0.081-0.076-0.22-0.153-0.272-0.271
		c-0.042-0.093-0.024-0.29,0.044-0.344c0.475-0.377,0.959-0.748,1.474-1.065c0.066-0.041,0.469,0.23,0.477,0.371
		C21.674,21.793,20.446,22.704,19.925,22.661z"/>
	<path fill-rule="evenodd" clip-rule="evenodd" fill="#F1F0F7" d="M22.198,19.636c-0.151,0.231-0.272,0.417-0.394,0.604
		c-0.183-0.169-0.423-0.308-0.534-0.515c-0.129-0.241-0.122-0.552-0.218-0.816c-0.116-0.316-0.337-0.678,0.131-0.813
		c0.157-0.046,0.497,0.243,0.623,0.456C21.995,18.868,22.067,19.253,22.198,19.636z"/>
	<path fill-rule="evenodd" clip-rule="evenodd" fill="#DEDDE9" d="M20.229,40.517c0.018,0.517-0.447,0.995-0.979,1.006
		c-0.541,0.01-0.879-0.298-0.924-0.844c-0.042-0.511,0.383-1.075,0.849-1.127C19.554,39.51,20.214,40.114,20.229,40.517z
		 M19.769,40.753c-0.305-0.359-0.385-0.454-0.466-0.549c-0.123,0.166-0.245,0.332-0.367,0.499c0.102,0.069,0.207,0.197,0.307,0.194
		C19.418,40.892,19.592,40.806,19.769,40.753z"/>
	<path fill-rule="evenodd" clip-rule="evenodd" fill="#D0CFE0" d="M20.042,43.377c-0.19-0.134-0.416-0.211-0.449-0.339
		c-0.034-0.129,0.084-0.355,0.206-0.455c0.395-0.327,0.81-0.634,1.245-0.904c0.106-0.065,0.373-0.016,0.464,0.079
		c0.09,0.094,0.112,0.335,0.06,0.471C21.3,42.921,20.664,43.111,20.042,43.377z"/>
	<path fill-rule="evenodd" clip-rule="evenodd" fill="#DFDEEA" d="M16.152,40.262c0.298-0.571,0.513-1.033,0.783-1.461
		c0.056-0.088,0.355-0.115,0.471-0.048c0.112,0.064,0.208,0.308,0.176,0.439c-0.097,0.403-0.233,0.803-0.407,1.18
		c-0.098,0.212-0.301,0.375-0.456,0.561C16.538,40.72,16.358,40.506,16.152,40.262z"/>
	<path fill-rule="evenodd" clip-rule="evenodd" fill="#DEDDE9" d="M19.359,38.604c-0.476-0.134-1.059,0.33-1.283-0.354
		c-0.125-0.382,0.303-0.611,1.217-0.541c0.386,0.029,1.112-0.247,1.041,0.54C20.269,38.946,19.635,38.423,19.359,38.604z"/>
	<path fill-rule="evenodd" clip-rule="evenodd" fill="#E7E6F0" d="M21.964,41.107c-0.901-0.647-0.917-1.449-0.998-2.209
		c-0.003-0.024,0.45-0.188,0.521-0.116C22.076,39.363,22.249,40.07,21.964,41.107z"/>
	<path fill-rule="evenodd" clip-rule="evenodd" fill="#E4E3EE" d="M18.965,43.002c-0.174,0.104-0.307,0.237-0.456,0.261
		c-0.59,0.092-0.991-0.279-1.308-0.684c-0.169-0.215-0.325-0.674-0.215-0.829c0.307-0.433,0.529,0.042,0.768,0.207
		c0.305,0.21,0.613,0.417,0.906,0.644C18.763,42.679,18.824,42.811,18.965,43.002z"/>
	<path fill-rule="evenodd" clip-rule="evenodd" fill="#DEDDE9" d="M19.192,29.122c0.389-0.032,1.021,0.569,1.03,0.979
		c0.01,0.465-0.38,0.917-0.848,0.984c-0.578,0.082-1.009-0.269-1.049-0.854C18.291,29.724,18.731,29.159,19.192,29.122z
		 M19.232,30.625c0.133-0.219,0.262-0.349,0.284-0.494c0.017-0.113-0.103-0.247-0.161-0.371c-0.142,0.154-0.301,0.297-0.412,0.471
		C18.92,30.267,19.076,30.417,19.232,30.625z"/>
	<path fill-rule="evenodd" clip-rule="evenodd" fill="#D0CFE0" d="M21.677,31.532c-0.039,0.719-1.316,1.546-1.934,1.246
		c-0.085-0.041-0.119-0.459-0.031-0.538c0.418-0.37,0.881-0.693,1.345-1.008c0.087-0.06,0.273-0.046,0.375,0.008
		C21.541,31.298,21.605,31.441,21.677,31.532z"/>
	<path fill-rule="evenodd" clip-rule="evenodd" fill="#DFDEEA" d="M17.33,28.212c0.085,0.145,0.305,0.346,0.273,0.494
		c-0.112,0.542-0.273,1.082-0.5,1.584c-0.047,0.104-0.581,0.154-0.674,0.045c-0.356-0.42,0.143-1.876,0.669-2.095
		C17.14,28.224,17.191,28.229,17.33,28.212z"/>
	<path fill-rule="evenodd" clip-rule="evenodd" fill="#DEDDE9" d="M18.993,28.124c-0.221-0.034-0.926,0.335-0.894-0.408
		c0.027-0.646,0.745-0.368,1.168-0.445c0.225-0.04,0.493-0.025,0.696,0.065c0.168,0.075,0.384,0.313,0.368,0.453
		c-0.017,0.147-0.268,0.333-0.448,0.381C19.667,28.227,19.417,28.154,18.993,28.124z"/>
	<path fill-rule="evenodd" clip-rule="evenodd" fill="#E4E3EE" d="M17.086,31.074c0.225,0.126,0.353,0.178,0.458,0.259
		c0.257,0.2,0.521,0.398,0.752,0.628c0.209,0.206,0.379,0.452,0.566,0.681c-0.342,0.022-0.758,0.178-1.008,0.037
		c-0.385-0.218-0.686-0.616-0.955-0.986C16.829,31.595,17.006,31.317,17.086,31.074z"/>
	<path fill-rule="evenodd" clip-rule="evenodd" fill="#E7E6F0" d="M21.124,28.089c0.815,0.529,1.015,1.181,0.976,1.93
		c-0.008,0.156-0.125,0.407-0.234,0.433c-0.141,0.032-0.455-0.102-0.467-0.194C21.309,29.582,20.682,28.986,21.124,28.089z"/>
	<path fill-rule="evenodd" clip-rule="evenodd" fill="#DEDDE9" d="M32.255,9.482c-0.026,0.5-0.571,1.021-1.008,0.966
		c-0.345-0.044-0.883-0.635-0.89-0.978c-0.012-0.522,0.455-0.991,0.988-0.991C31.941,8.479,32.289,8.861,32.255,9.482z M31.73,9.467
		c-0.115-0.168-0.188-0.275-0.262-0.382c-0.135,0.093-0.348,0.165-0.381,0.285c-0.031,0.116,0.125,0.282,0.197,0.427
		C31.425,9.693,31.564,9.591,31.73,9.467z"/>
	<path fill-rule="evenodd" clip-rule="evenodd" fill="#DFDEEA" d="M31.283,7.335c-0.365-0.028-0.867,0.454-1.06-0.217
		c-0.111-0.389,0.464-0.683,1.218-0.65c0.142,0.006,0.318-0.021,0.418,0.052c0.24,0.178,0.649,0.438,0.623,0.607
		c-0.058,0.371-0.416,0.426-0.776,0.251C31.586,7.321,31.426,7.347,31.283,7.335z"/>
	<path fill-rule="evenodd" clip-rule="evenodd" fill="#E1E0EB" d="M33.785,10.712c-0.101,0.3-0.105,0.539-0.227,0.636
		c-0.401,0.323-0.828,0.628-1.283,0.864c-0.115,0.059-0.414-0.13-0.551-0.277c-0.056-0.06,0.049-0.375,0.165-0.467
		c0.406-0.32,0.837-0.617,1.289-0.866C33.303,10.533,33.535,10.661,33.785,10.712z"/>
	<path fill-rule="evenodd" clip-rule="evenodd" fill="#E6E5EE" d="M34.396,9.233c-0.223,0.251-0.395,0.443-0.565,0.636
		c-0.144-0.172-0.333-0.323-0.421-0.52c-0.148-0.336-0.258-0.695-0.334-1.055c-0.041-0.188,0.023-0.4,0.04-0.601
		c0.208,0.038,0.528,0.006,0.603,0.127C33.982,8.247,34.162,8.725,34.396,9.233z"/>
	<path fill-rule="evenodd" clip-rule="evenodd" fill="#EEEEF4" d="M29.193,10.456c0.209,0.096,0.348,0.132,0.451,0.213
		c0.225,0.173,0.434,0.365,0.643,0.558c0.234,0.219,0.812,0.176,0.614,0.729c-0.14,0.393-0.595,0.371-1.19-0.097
		c-0.293-0.229-0.553-0.522-0.747-0.837C28.902,10.924,29.104,10.664,29.193,10.456z"/>
	<path fill-rule="evenodd" clip-rule="evenodd" fill="#F2F1F8" d="M28.389,9.163c0.123-0.356,0.175-0.697,0.351-0.953
		c0.162-0.237,0.521-0.583,0.681-0.532c0.422,0.136,0.219,0.502,0.1,0.813c-0.098,0.256-0.086,0.56-0.207,0.798
		c-0.109,0.214-0.334,0.369-0.507,0.549C28.67,9.62,28.535,9.4,28.389,9.163z"/>
	<path fill-rule="evenodd" clip-rule="evenodd" fill="#DEDDE9" d="M31.309,20.885c-0.427-0.017-0.955-0.623-0.922-1.057
		c0.041-0.562,0.492-0.961,1.037-0.918c0.52,0.041,0.833,0.396,0.831,0.939C32.253,20.351,31.749,20.902,31.309,20.885z
		 M31.243,20.401c0.201-0.261,0.374-0.39,0.389-0.536c0.011-0.102-0.192-0.226-0.302-0.341c-0.087,0.089-0.24,0.173-0.248,0.269
		C31.07,19.942,31.156,20.099,31.243,20.401z"/>
	<path fill-rule="evenodd" clip-rule="evenodd" fill="#DFDEEA" d="M31.281,17.765c-0.365-0.026-0.864,0.449-1.055-0.221
		c-0.104-0.364,0.375-0.638,1.076-0.646c0.189-0.002,0.418-0.034,0.559,0.056c0.249,0.16,0.646,0.437,0.619,0.606
		c-0.059,0.373-0.418,0.419-0.777,0.248C31.583,17.751,31.423,17.777,31.281,17.765z"/>
	<path fill-rule="evenodd" clip-rule="evenodd" fill="#E1E0EB" d="M33.488,20.892c0.359,0.481,0.242,0.839-0.11,1.071
		c-0.421,0.276-0.89,0.482-1.353,0.684c-0.059,0.025-0.285-0.147-0.294-0.241c-0.015-0.163,0.024-0.413,0.136-0.492
		C32.361,21.564,32.889,21.263,33.488,20.892z"/>
	<path fill-rule="evenodd" clip-rule="evenodd" fill="#E6E5EE" d="M34.405,19.667c-0.203,0.246-0.316,0.504-0.489,0.554
		c-0.125,0.035-0.406-0.173-0.48-0.335c-0.191-0.417-0.328-0.863-0.439-1.31c-0.033-0.134,0.053-0.385,0.158-0.444
		c0.127-0.069,0.439-0.05,0.49,0.038C33.924,18.64,34.146,19.142,34.405,19.667z"/>
	<path fill-rule="evenodd" clip-rule="evenodd" fill="#EEEEF4" d="M30.982,22.335c-0.125,0.103-0.254,0.298-0.408,0.32
		c-0.418,0.061-1.531-0.76-1.623-1.216c-0.026-0.134,0.321-0.472,0.328-0.467c0.571,0.385,1.126,0.795,1.678,1.208
		C30.98,22.197,30.971,22.255,30.982,22.335z"/>
	<path fill-rule="evenodd" clip-rule="evenodd" fill="#F2F1F8" d="M28.39,19.581c0.124-0.355,0.177-0.696,0.354-0.951
		c0.163-0.235,0.462-0.376,0.7-0.56c0.021,0.286,0.074,0.574,0.055,0.857c-0.02,0.273-0.065,0.565-0.188,0.803
		c-0.109,0.21-0.339,0.358-0.516,0.534C28.664,20.043,28.531,19.82,28.39,19.581z"/>
	<path fill-rule="evenodd" clip-rule="evenodd" fill="#DEDDE9" d="M32.254,40.673c-0.043,0.551-0.373,0.856-0.919,0.85
		c-0.533-0.007-0.999-0.481-0.982-1.001c0.013-0.403,0.664-1.008,1.046-0.969C31.863,39.599,32.293,40.161,32.254,40.673z
		 M31.727,40.523c-0.166-0.119-0.307-0.22-0.447-0.32c-0.07,0.146-0.221,0.314-0.188,0.433c0.031,0.117,0.247,0.185,0.382,0.273
		C31.545,40.801,31.615,40.693,31.727,40.523z"/>
	<path fill-rule="evenodd" clip-rule="evenodd" fill="#CCCBDD" d="M30.642,43.283c-0.75-0.007-1.56-0.601-1.709-1.198
		c-0.025-0.104,0.028-0.293,0.108-0.342c0.133-0.081,0.372-0.166,0.469-0.102c0.468,0.31,0.91,0.659,1.342,1.017
		c0.087,0.071,0.164,0.286,0.12,0.355C30.885,43.15,30.711,43.231,30.642,43.283z"/>
	<path fill-rule="evenodd" clip-rule="evenodd" fill="#DFDEEA" d="M34.406,40.392c-0.227,0.211-0.383,0.426-0.592,0.512
		c-0.068,0.028-0.329-0.256-0.407-0.438c-0.163-0.381-0.296-0.782-0.375-1.188c-0.034-0.173,0.097-0.379,0.153-0.569
		c0.193,0.07,0.484,0.083,0.563,0.219C33.998,39.365,34.17,39.848,34.406,40.392z"/>
	<path fill-rule="evenodd" clip-rule="evenodd" fill="#DDDCE9" d="M31.355,38.604c-0.281,0-0.574,0.042-0.843-0.019
		c-0.126-0.028-0.249-0.243-0.292-0.396c-0.026-0.098,0.092-0.34,0.153-0.343c0.645-0.026,1.292-0.029,1.937-0.004
		c0.076,0.003,0.226,0.239,0.2,0.325c-0.048,0.156-0.18,0.367-0.313,0.398c-0.268,0.063-0.559,0.019-0.842,0.019
		C31.355,38.591,31.355,38.597,31.355,38.604z"/>
	<path fill-rule="evenodd" clip-rule="evenodd" fill="#E7E6F0" d="M29.376,38.623c0.083,0.114,0.278,0.265,0.257,0.375
		c-0.109,0.587-0.262,1.168-0.434,1.74c-0.027,0.091-0.227,0.177-0.348,0.18c-0.113,0.002-0.289-0.082-0.333-0.177
		c-0.245-0.523,0.146-1.711,0.642-2.024C29.198,38.692,29.243,38.68,29.376,38.623z"/>
	<path fill-rule="evenodd" clip-rule="evenodd" fill="#EBEAF2" d="M33.436,41.53c0.113,0.263,0.283,0.464,0.236,0.576
		c-0.271,0.649-0.762,1.076-1.478,1.163c-0.155,0.02-0.329-0.12-0.493-0.188c0.068-0.161,0.094-0.378,0.215-0.473
		C32.359,42.26,32.834,41.951,33.436,41.53z"/>
	<path fill-rule="evenodd" clip-rule="evenodd" fill="#DEDDE9" d="M32.256,30.125c0.015,0.613-0.353,0.989-0.945,0.967
		c-0.527-0.02-0.988-0.51-0.962-1.024c0.017-0.325,0.604-0.924,0.933-0.95C31.715,29.083,32.243,29.63,32.256,30.125z
		 M31.754,30.277c-0.14-0.189-0.24-0.327-0.341-0.464c-0.118,0.089-0.343,0.19-0.334,0.263c0.018,0.145,0.145,0.298,0.269,0.394
		C31.39,30.502,31.557,30.374,31.754,30.277z"/>
	<path fill-rule="evenodd" clip-rule="evenodd" fill="#CCCBDD" d="M29.272,31.029c0.616,0.488,1.165,0.914,1.69,1.366
		c0.027,0.023-0.107,0.363-0.219,0.4c-0.627,0.212-1.757-0.519-1.827-1.194C28.9,31.44,29.125,31.256,29.272,31.029z"/>
	<path fill-rule="evenodd" clip-rule="evenodd" fill="#DFDEEA" d="M34.405,29.941c-0.22,0.219-0.393,0.392-0.565,0.563
		c-0.147-0.149-0.354-0.273-0.432-0.454c-0.163-0.38-0.29-0.782-0.37-1.188c-0.034-0.177,0.085-0.383,0.135-0.576
		c0.194,0.063,0.489,0.069,0.565,0.201C33.992,28.923,34.167,29.403,34.405,29.941z"/>
	<path fill-rule="evenodd" clip-rule="evenodd" fill="#DDDCE9" d="M31.313,28.141c-0.164,0.014-0.353,0.031-0.541,0.043
		c-0.316,0.02-0.606-0.063-0.545-0.437c0.027-0.163,0.265-0.396,0.429-0.415c0.464-0.056,0.944-0.057,1.407,0.004
		c0.17,0.022,0.311,0.277,0.465,0.425c-0.161,0.142-0.303,0.351-0.489,0.406C31.826,28.23,31.572,28.157,31.313,28.141z"/>
	<path fill-rule="evenodd" clip-rule="evenodd" fill="#E7E6F0" d="M28.347,29.771c0.225-0.445,0.456-0.937,0.725-1.408
		c0.046-0.081,0.267-0.133,0.366-0.094c0.099,0.039,0.225,0.226,0.203,0.318c-0.126,0.584-0.27,1.167-0.46,1.732
		c-0.034,0.1-0.401,0.208-0.472,0.147C28.561,30.339,28.506,30.101,28.347,29.771z"/>
	<path fill-rule="evenodd" clip-rule="evenodd" fill="#EBEAF2" d="M31.63,32.454c0.507-0.397,1.009-0.804,1.528-1.184
		c0.074-0.053,0.303-0.025,0.348,0.04c0.094,0.14,0.21,0.407,0.146,0.484c-0.266,0.329-0.553,0.679-0.912,0.882
		c-0.28,0.158-0.678,0.11-1.021,0.154C31.688,32.705,31.659,32.58,31.63,32.454z"/>
	<path fill-rule="evenodd" clip-rule="evenodd" fill="#302E5F" d="M19.601,9.465c-0.142,0.151-0.226,0.241-0.31,0.331
		c-0.118-0.171-0.236-0.341-0.354-0.512c0.106-0.066,0.255-0.212,0.311-0.183C19.383,9.172,19.474,9.325,19.601,9.465z"/>
	<path fill-rule="evenodd" clip-rule="evenodd" fill="#302E5F" d="M19.211,19.378c0.141,0.215,0.274,0.339,0.3,0.482
		c0.02,0.112-0.094,0.248-0.149,0.373c-0.145-0.146-0.307-0.279-0.42-0.446C18.916,19.75,19.064,19.594,19.211,19.378z"/>
	<path fill-rule="evenodd" clip-rule="evenodd" fill="#302F5F" d="M19.769,40.753c-0.177,0.053-0.35,0.139-0.526,0.145
		c-0.1,0.003-0.205-0.125-0.307-0.194c0.122-0.167,0.245-0.333,0.367-0.499C19.383,40.299,19.464,40.394,19.769,40.753z"/>
	<path fill-rule="evenodd" clip-rule="evenodd" fill="#302F5F" d="M19.232,30.625c-0.156-0.208-0.312-0.358-0.289-0.395
		c0.11-0.174,0.27-0.316,0.412-0.471c0.059,0.124,0.178,0.258,0.161,0.371C19.494,30.276,19.365,30.406,19.232,30.625z"/>
	<path fill-rule="evenodd" clip-rule="evenodd" fill="#302E5F" d="M31.73,9.467c-0.166,0.124-0.306,0.226-0.445,0.329
		c-0.072-0.145-0.229-0.311-0.197-0.427c0.033-0.12,0.246-0.191,0.381-0.285C31.542,9.192,31.615,9.299,31.73,9.467z"/>
	<path fill-rule="evenodd" clip-rule="evenodd" fill="#302E5F" d="M31.243,20.401c-0.087-0.302-0.173-0.459-0.161-0.608
		c0.008-0.096,0.161-0.18,0.248-0.269c0.109,0.115,0.313,0.239,0.302,0.341C31.617,20.011,31.444,20.14,31.243,20.401z"/>
	<path fill-rule="evenodd" clip-rule="evenodd" fill="#302F5F" d="M31.727,40.523c-0.111,0.17-0.182,0.277-0.254,0.386
		c-0.135-0.089-0.351-0.156-0.382-0.273c-0.032-0.118,0.118-0.286,0.188-0.433C31.42,40.304,31.561,40.404,31.727,40.523z"/>
	<path fill-rule="evenodd" clip-rule="evenodd" fill="#302F5F" d="M31.754,30.277c-0.197,0.097-0.364,0.225-0.406,0.192
		c-0.124-0.096-0.251-0.249-0.269-0.394c-0.009-0.072,0.216-0.174,0.334-0.263C31.514,29.95,31.614,30.088,31.754,30.277z"/>
</g>
</svg>
