<?xml version="1.0" encoding="utf-8"?>
<!-- Generator: Adobe Illustrator 16.0.0, SVG Export Plug-In . SVG Version: 6.00 Build 0)  -->
<!DOCTYPE svg PUBLIC "-//W3C//DTD SVG 1.1//EN" "http://www.w3.org/Graphics/SVG/1.1/DTD/svg11.dtd">
<svg version="1.1" id="Layer_1" xmlns="http://www.w3.org/2000/svg" xmlns:xlink="http://www.w3.org/1999/xlink" x="0px" y="0px"
	 width="50px" height="50px" viewBox="0 0 50 50" enable-background="new 0 0 50 50" xml:space="preserve">
<g>
	<path fill-rule="evenodd" clip-rule="evenodd" fill="#EF3F3A" d="M10.43,45.286c-0.082-0.677,0.183-1.19,0.696-1.451
		c0.615-0.313,0.698-0.77,0.667-1.358c-0.029-0.552-0.035-1.108,0-1.66c0.066-1.035-0.083-1.837-1.047-2.578
		c-1.204-0.925-1.123-2.453,0.085-3.291c0.873-0.605,0.996-1.281,0.973-2.196c-0.022-0.889-0.052-1.64-0.843-2.32
		c-0.839-0.723-0.688-1.948,0.285-2.449c1.034-0.534,2.209-1.073,3.328-1.085c1.12-0.013,2.312,0.492,3.351,1.014
		s1.182,1.78,0.331,2.553c-0.605,0.55-0.705,1.123-0.674,1.83c0.017,0.368,0.033,0.74-0.003,1.106
		c-0.055,0.556,0.071,0.997,0.597,1.274c0.119,0.063,0.213,0.176,0.312,0.272c1.153,1.137,1.192,2.444-0.108,3.422
		c-0.718,0.54-0.847,1.098-0.8,1.862c0.032,0.505,0.026,1.016,0.002,1.521c-0.044,0.933-0.022,1.746,0.876,2.428
		c0.762,0.577,0.663,1.456,0.015,2.182c-0.703,0.786-1.617,1.095-2.617,0.855c-0.787-0.188-1.511-0.244-2.295,0.001
		c-0.901,0.282-1.726-0.07-2.466-0.567C10.61,46.325,10.318,45.856,10.43,45.286z M15.708,29.599
		c-0.169-0.211-0.338-0.598-0.624-0.727c-0.281-0.127-0.725-0.088-1.017,0.05c-0.394,0.187-0.451,0.591-0.368,1.046
		c0.138,0.754,0.213,1.521,0.272,2.285c0.045,0.592-0.016,1.194,0.055,1.781c0.024,0.197,0.287,0.477,0.48,0.513
		c0.214,0.041,0.523-0.099,0.695-0.262c0.139-0.13,0.171-0.408,0.19-0.626C15.507,32.351,15.157,31.01,15.708,29.599z
		 M13.982,42.111c0,0-0.001,0-0.002,0c0,0.735,0,1.471,0,2.207c0,0.477,0.024,1.021,0.633,1.023c0.525,0.002,0.748-0.454,0.782-0.96
		c0.012-0.183,0.003-0.368,0.003-0.552c0-1.104,0.003-2.207-0.001-3.311c-0.001-0.274,0.026-0.563-0.05-0.818
		c-0.102-0.342-0.229-0.728-0.719-0.689c-0.462,0.037-0.628,0.356-0.638,0.754C13.968,40.547,13.982,41.329,13.982,42.111z
		 M13.605,36.672c0.04-0.009,0.092-0.004,0.119-0.028c0.611-0.543,1.174-0.532,1.835-0.008c0.273,0.218,0.814-0.397,0.682-0.753
		c-0.163-0.439-0.993-0.953-1.572-0.973s-1.343,0.45-1.55,0.954C12.998,36.16,13.297,36.659,13.605,36.672z M16.261,37.944
		c-0.037-0.072-0.092-0.251-0.203-0.384c-0.719-0.859-2.101-0.891-2.846,0.074c-0.174,0.225-0.276,0.48,0.004,0.722
		c0.21,0.182,0.406,0.385,0.696,0.122c0.493-0.447,0.948-0.374,1.474,0.009C15.761,38.76,16.25,38.47,16.261,37.944z"/>
	<path fill-rule="evenodd" clip-rule="evenodd" fill="#EF3F39" d="M16.218,24.079c-0.224-0.028-0.587-0.094-0.952-0.114
		c-0.392-0.021-0.788-0.025-1.178,0.01c-1.099,0.096-2.208,0.33-3.119-0.596c-0.731-0.744-0.861-1.802-0.054-2.416
		c0.836-0.635,0.937-1.385,0.877-2.286c-0.027-0.414-0.035-0.833,0.002-1.245c0.083-0.922-0.127-1.571-0.963-2.209
		c-1.029-0.787-1.505-2.208-0.065-3.287c1.396-1.045,0.938-2.345,0.997-3.606c0.01-0.207-0.25-0.46-0.437-0.637
		C10.06,6.5,10.266,5.122,11.846,4.482c0.673-0.272,1.368-0.559,2.077-0.653c0.61-0.081,1.26,0.078,1.884,0.18
		c0.446,0.073,0.891,0.198,1.317,0.353c1.384,0.502,2.425,1.835,0.919,3.25c-0.396,0.371-0.48,0.739-0.462,1.214
		c0.016,0.415,0.025,0.833-0.001,1.246c-0.043,0.679,0.091,1.149,0.745,1.606c1.358,0.952,1.394,2.613,0.057,3.613
		c-0.715,0.536-0.852,1.085-0.803,1.851c0.035,0.552,0.009,1.107,0.006,1.662c-0.003,0.817-0.006,1.499,0.797,2.163
		c1.162,0.963,0.406,2.735-1.19,3.055C16.921,24.075,16.638,24.056,16.218,24.079z M13.985,19.011c0.001,0,0.002,0,0.003,0
		c0,0.831-0.039,1.665,0.022,2.492c0.02,0.263,0.302,0.507,0.465,0.759c0.283-0.189,0.612-0.338,0.833-0.585
		c0.124-0.138,0.087-0.437,0.088-0.664c0.007-1.293,0.004-2.586,0.003-3.879c0-0.185,0.021-0.376-0.02-0.552
		c-0.091-0.396-0.318-0.642-0.768-0.643c-0.502-0.001-0.623,0.304-0.625,0.717C13.981,17.441,13.985,18.226,13.985,19.011z
		 M13.868,6.667c0.038,1.315,0.073,2.63,0.118,3.945c0.006,0.179,0.029,0.369,0.098,0.532c0.191,0.452,0.682,0.538,0.976,0.139
		c0.177-0.239,0.293-0.562,0.327-0.859c0.143-1.259-0.212-2.542,0.247-3.799c0.155-0.424-0.418-0.933-0.922-0.955
		C14.045,5.641,13.68,6.006,13.868,6.667z M16.245,12.868c-0.035-0.065-0.083-0.191-0.16-0.296c-0.712-0.958-2.055-1.013-2.82-0.085
		c-0.137,0.165-0.215,0.535-0.122,0.692c0.103,0.173,0.537,0.359,0.65,0.282c0.586-0.401,1.081-0.44,1.692-0.011
		C15.794,13.666,16.275,13.278,16.245,12.868z M14.733,13.596c-0.53,0.29-1.021,0.503-1.439,0.814
		c-0.155,0.115-0.239,0.484-0.183,0.69c0.102,0.376,0.517,0.476,0.772,0.276c0.561-0.437,1.018-0.393,1.565,0.009
		c0.119,0.087,0.563-0.072,0.68-0.241c0.098-0.141,0.021-0.553-0.123-0.685C15.654,14.14,15.217,13.914,14.733,13.596z"/>
	<path fill-rule="evenodd" clip-rule="evenodd" fill="#EF3E39" d="M25.756,15.121c0.998,0.373,2.174,0.654,3.18,1.232
		c1.067,0.614,1.185,1.748,0.313,2.535c-0.675,0.609-0.814,1.261-0.759,2.066c0.022,0.321,0.018,0.646,0.001,0.968
		c-0.022,0.443,0.034,0.829,0.518,1.015c0.125,0.048,0.237,0.139,0.343,0.226c1.136,0.947,1.532,2.545,0.036,3.618
		c-0.813,0.583-0.978,1.21-0.901,2.078c0.044,0.504,0.012,1.014,0.007,1.521c-0.006,0.774-0.027,1.437,0.814,1.992
		c0.944,0.623,0.791,2.038-0.153,2.713c-0.732,0.523-1.586,0.785-2.475,0.5c-0.691-0.222-1.318-0.218-2.011,0.002
		c-0.885,0.28-1.741,0.026-2.472-0.507c-1.082-0.79-1.184-1.961-0.116-2.759c0.562-0.419,0.618-0.83,0.614-1.388
		c-0.006-0.923-0.022-1.846,0.007-2.767c0.016-0.502-0.078-0.904-0.55-1.159c-0.119-0.064-0.215-0.174-0.314-0.27
		c-1.17-1.135-1.222-2.432,0.044-3.426c0.677-0.532,0.906-1.058,0.82-1.845c-0.044-0.411-0.036-0.832-0.001-1.244
		c0.042-0.502-0.155-0.831-0.51-1.19c-1.075-1.088-0.852-2.361,0.547-2.962C23.652,15.679,24.643,15.464,25.756,15.121z
		 M26.626,18.079c-0.139-0.228-0.269-0.67-0.559-0.843c-0.234-0.14-0.712-0.046-0.993,0.107c-0.365,0.199-0.549,0.554-0.398,1.054
		c0.142,0.47,0.178,0.98,0.2,1.476c0.031,0.736-0.018,1.476,0.017,2.212c0.03,0.644,0.293,0.892,0.812,0.878
		c0.616-0.016,0.568-0.471,0.592-0.885C26.371,20.803,26.096,19.504,26.626,18.079z M26.294,30.602c0.001,0,0.001,0,0.002,0
		c0-0.23,0.002-0.461,0-0.691c-0.007-0.645,0.025-1.293-0.046-1.931c-0.024-0.214-0.293-0.523-0.492-0.559
		c-0.198-0.035-0.475,0.188-0.664,0.356c-0.12,0.107-0.198,0.323-0.199,0.491c-0.014,1.566-0.024,3.133,0.002,4.698
		c0.007,0.457,0.258,0.797,0.783,0.757c0.462-0.034,0.605-0.37,0.61-0.772C26.301,32.168,26.294,31.385,26.294,30.602z
		 M27.31,26.422c-0.057-0.598-0.817-1.062-1.713-1.044c-0.829,0.017-1.548,0.492-1.562,1.032c-0.008,0.339,0.504,0.762,0.731,0.562
		c0.629-0.557,1.168-0.569,1.802-0.01C26.798,27.164,27.339,26.737,27.31,26.422z M27.299,24.531
		c-0.007-0.043-0.009-0.087-0.019-0.13c-0.122-0.542-0.732-0.938-1.488-0.966c-0.784-0.03-1.58,0.339-1.708,0.852
		c-0.043,0.175,0.056,0.458,0.19,0.585c0.124,0.117,0.476,0.193,0.566,0.111c0.581-0.532,1.086-0.506,1.677,0.006
		C26.777,25.215,27.296,24.869,27.299,24.531z"/>
	<path fill-rule="evenodd" clip-rule="evenodd" fill="#EF3D38" d="M38.605,24.086c-0.906-0.396-1.985-0.104-3.066-0.025
		c-0.757,0.055-1.459-0.096-2.04-0.649c-0.829-0.791-0.941-1.84-0.031-2.505c0.768-0.561,0.852-1.201,0.809-1.997
		c-0.021-0.415-0.026-0.833,0.001-1.248c0.067-1.031-0.052-1.864-1.032-2.592c-1.138-0.845-1.126-2.363,0.055-3.175
		c1.015-0.697,0.973-1.52,0.981-2.48c0.008-0.792-0.083-1.411-0.757-2.05c-1.052-0.997-0.62-2.183,0.395-2.627
		c1.505-0.659,3.082-1.547,4.835-0.56c0.305,0.172,0.72,0.134,1.058,0.262c1.542,0.583,1.897,1.984,0.756,3.131
		c-0.367,0.368-0.523,0.712-0.493,1.204c0.025,0.414,0.03,0.833-0.001,1.247c-0.055,0.732,0.131,1.227,0.808,1.709
		c1.279,0.912,1.282,2.545,0.02,3.535c-0.665,0.521-0.927,1.029-0.832,1.83c0.059,0.501,0.009,1.016,0.011,1.524
		c0.004,0.897-0.021,1.655,0.856,2.406c1.285,1.099,0.151,2.597-1.19,2.979C39.441,24.092,39.103,24.056,38.605,24.086z
		 M37.883,19.152c0-0.368,0.001-0.736,0-1.104c-0.002-0.46,0.021-0.922-0.014-1.379c-0.036-0.479-0.312-0.742-0.819-0.721
		c-0.509,0.021-0.568,0.369-0.569,0.763c-0.001,1.012-0.002,2.024-0.001,3.036c0,0.598,0.021,1.197,0.002,1.794
		c-0.013,0.409,0.234,0.654,0.554,0.643c0.258-0.01,0.559-0.229,0.742-0.44c0.123-0.144,0.098-0.434,0.102-0.66
		C37.891,20.44,37.883,19.796,37.883,19.152z M37.208,5.669c-0.727-0.034-1.204,0.426-0.96,1.124
		c0.35,0.997,0.164,1.994,0.229,2.989c0.022,0.366-0.063,0.758,0.04,1.096c0.076,0.254,0.365,0.601,0.577,0.613
		c0.227,0.013,0.523-0.28,0.692-0.511c0.117-0.16,0.075-0.438,0.096-0.666c0.109-1.222-0.214-2.463,0.239-3.68
		C38.284,6.198,37.726,5.694,37.208,5.669z M38.723,12.837c-0.019-0.056-0.039-0.196-0.107-0.307
		c-0.611-0.994-2.459-0.908-2.995,0.155c-0.078,0.154-0.042,0.462,0.068,0.59c0.117,0.137,0.47,0.264,0.574,0.19
		c0.607-0.431,1.146-0.302,1.763-0.004C38.421,13.65,38.762,13.324,38.723,12.837z M38.762,15.153
		c-0.042-0.309-0.019-0.473-0.087-0.577c-0.351-0.539-0.864-0.805-1.506-0.81c-0.707-0.004-1.345,0.377-1.536,0.942
		c-0.05,0.147-0.056,0.402,0.031,0.481c0.146,0.133,0.469,0.288,0.571,0.219c0.615-0.415,1.17-0.33,1.794-0.012
		C38.196,15.481,38.529,15.237,38.762,15.153z"/>
	<path fill-rule="evenodd" clip-rule="evenodd" fill="#EF3D38" d="M41.22,29.702c-0.08,0.136-0.205,0.583-0.5,0.797
		c-0.62,0.452-0.691,1.03-0.644,1.697c0.02,0.276,0.033,0.559-0.003,0.83c-0.106,0.798,0.131,1.364,0.817,1.876
		c1.416,1.055,1.094,2.733-0.05,3.508c-0.696,0.473-0.805,1.039-0.768,1.764c0.029,0.552,0.006,1.107,0.006,1.661
		c-0.001,0.864-0.066,1.654,0.827,2.31c0.835,0.61,0.738,1.525-0.009,2.271c-0.726,0.724-1.618,1.068-2.638,0.779
		c-0.736-0.208-1.436-0.229-2.166,0.006c-0.913,0.292-1.743-0.05-2.471-0.537c-1.004-0.672-1.034-2.052-0.007-2.803
		c0.536-0.392,0.692-0.774,0.663-1.367c-0.03-0.646-0.02-1.293-0.003-1.938c0.021-0.88-0.042-1.556-0.928-2.216
		c-1.293-0.965-1.264-2.44,0.085-3.501c0.685-0.538,0.936-1.034,0.846-1.828c-0.04-0.364-0.032-0.74,0-1.106
		c0.042-0.497-0.129-0.807-0.527-1.154c-1.164-1.015-0.959-2.425,0.467-3.079c0.86-0.395,1.815-0.588,2.737-0.841
		c0.211-0.058,0.471-0.032,0.685,0.033c0.783,0.24,1.568,0.481,2.331,0.78C40.829,27.98,41.246,28.62,41.22,29.702z M37.883,36.773
		c0.401-0.092,0.909-0.15,0.82-0.698c-0.05-0.31-0.325-0.644-0.592-0.842c-0.586-0.437-1.591-0.359-2.134,0.125
		c-0.298,0.266-0.61,0.582-0.299,1.034c0.28,0.406,0.615,0.264,0.938,0.051c0.564-0.371,1.002-0.293,1.29,0.35
		c-0.762,0.095-1.567,0.097-2.133,0.721c-0.198,0.22-0.396,0.573-0.063,0.831c0.169,0.131,0.522,0.219,0.681,0.13
		c0.522-0.294,0.969-0.453,1.493,0.017c0.119,0.107,0.57,0.049,0.678-0.086c0.132-0.165,0.161-0.541,0.06-0.734
		C38.446,37.335,38.137,37.068,37.883,36.773z M38.159,29.702c0.006-0.479-0.559-0.985-1.105-0.957
		c-0.625,0.032-1.03,0.474-0.813,1.145c0.37,1.136,0.169,2.276,0.236,3.414c0.014,0.229-0.049,0.482,0.029,0.684
		c0.086,0.221,0.29,0.547,0.45,0.551c0.269,0.008,0.571-0.166,0.804-0.339c0.108-0.08,0.104-0.336,0.119-0.514
		C37.989,32.37,37.638,31.023,38.159,29.702z M37.882,42.173c0-0.778,0.013-1.559-0.004-2.338c-0.01-0.459-0.219-0.813-0.726-0.817
		c-0.541-0.004-0.671,0.387-0.671,0.843c-0.003,1.559-0.001,3.117-0.001,4.676c-0.001,0.474,0.185,0.847,0.694,0.827
		c0.485-0.018,0.699-0.387,0.704-0.852C37.889,43.731,37.882,42.953,37.882,42.173z"/>
	<path fill-rule="evenodd" clip-rule="evenodd" fill="#EF3C38" d="M25.757,39.526c1.219,0.002,2.194,0.984,2.155,2.169
		c-0.038,1.134-0.987,2.04-2.143,2.044c-1.256,0.006-2.245-0.918-2.25-2.1C23.515,40.459,24.505,39.523,25.757,39.526z"/>
	<path fill-rule="evenodd" clip-rule="evenodd" fill="#FEEFED" d="M15.708,29.599c-0.551,1.411-0.202,2.752-0.316,4.061
		c-0.019,0.218-0.051,0.496-0.19,0.626c-0.172,0.163-0.481,0.303-0.695,0.262c-0.193-0.036-0.456-0.315-0.48-0.513
		c-0.071-0.587-0.01-1.189-0.055-1.781c-0.059-0.765-0.134-1.531-0.272-2.285c-0.083-0.455-0.026-0.859,0.368-1.046
		c0.292-0.138,0.735-0.177,1.017-0.05C15.37,29.001,15.539,29.388,15.708,29.599z"/>
	<path fill-rule="evenodd" clip-rule="evenodd" fill="#FEEFEE" d="M13.982,42.111c0-0.782-0.014-1.564,0.006-2.346
		c0.01-0.397,0.176-0.717,0.638-0.754c0.491-0.038,0.617,0.348,0.719,0.689c0.077,0.255,0.049,0.544,0.05,0.818
		c0.004,1.104,0.002,2.207,0.001,3.311c0,0.184,0.009,0.369-0.003,0.552c-0.034,0.506-0.257,0.962-0.782,0.96
		c-0.608-0.003-0.633-0.547-0.633-1.023c0-0.736,0-1.472,0-2.207C13.981,42.111,13.982,42.111,13.982,42.111z"/>
	<path fill-rule="evenodd" clip-rule="evenodd" fill="#FEEDEB" d="M13.605,36.672c-0.308-0.013-0.607-0.512-0.485-0.808
		c0.207-0.504,0.971-0.974,1.55-0.954s1.409,0.533,1.572,0.973c0.132,0.355-0.409,0.971-0.682,0.753
		c-0.661-0.524-1.224-0.535-1.835,0.008C13.697,36.668,13.645,36.663,13.605,36.672z"/>
	<path fill-rule="evenodd" clip-rule="evenodd" fill="#FEEDEB" d="M16.261,37.944c-0.01,0.525-0.5,0.815-0.875,0.543
		c-0.525-0.383-0.981-0.456-1.474-0.009c-0.29,0.263-0.486,0.06-0.696-0.122c-0.281-0.241-0.178-0.497-0.004-0.722
		c0.745-0.965,2.127-0.934,2.846-0.074C16.168,37.693,16.224,37.872,16.261,37.944z"/>
	<path fill-rule="evenodd" clip-rule="evenodd" fill="#FEEDEB" d="M13.985,19.011c0-0.785-0.003-1.57,0.001-2.355
		c0.002-0.413,0.124-0.718,0.625-0.717c0.45,0.001,0.677,0.248,0.768,0.643c0.041,0.176,0.02,0.368,0.02,0.552
		c0.001,1.293,0.004,2.586-0.003,3.879c-0.001,0.227,0.035,0.525-0.088,0.664c-0.22,0.247-0.549,0.396-0.833,0.585
		c-0.163-0.252-0.445-0.496-0.465-0.759c-0.061-0.827-0.022-1.661-0.022-2.492C13.987,19.011,13.986,19.011,13.985,19.011z"/>
	<path fill-rule="evenodd" clip-rule="evenodd" fill="#FEF0EE" d="M13.868,6.667c-0.188-0.661,0.178-1.026,0.843-0.998
		c0.504,0.021,1.078,0.53,0.922,0.955c-0.459,1.257-0.104,2.54-0.247,3.799c-0.034,0.297-0.15,0.62-0.327,0.859
		c-0.294,0.399-0.785,0.313-0.976-0.139c-0.068-0.163-0.092-0.353-0.098-0.532C13.941,9.297,13.906,7.982,13.868,6.667z"/>
	<path fill-rule="evenodd" clip-rule="evenodd" fill="#FEEFED" d="M16.245,12.868c0.03,0.41-0.451,0.798-0.76,0.581
		c-0.611-0.429-1.106-0.39-1.692,0.011c-0.113,0.077-0.547-0.109-0.65-0.282c-0.093-0.157-0.015-0.527,0.122-0.692
		c0.766-0.927,2.108-0.873,2.82,0.085C16.163,12.677,16.21,12.803,16.245,12.868z"/>
	<path fill-rule="evenodd" clip-rule="evenodd" fill="#FEEFED" d="M14.733,13.596c0.484,0.317,0.921,0.543,1.273,0.863
		c0.145,0.131,0.221,0.544,0.123,0.685c-0.118,0.168-0.562,0.328-0.68,0.241c-0.547-0.402-1.004-0.446-1.565-0.009
		c-0.256,0.2-0.671,0.101-0.772-0.276c-0.056-0.206,0.028-0.575,0.183-0.69C13.712,14.1,14.203,13.886,14.733,13.596z"/>
	<path fill-rule="evenodd" clip-rule="evenodd" fill="#FEF1EF" d="M26.626,18.079c-0.53,1.425-0.255,2.724-0.329,4
		c-0.024,0.415,0.023,0.87-0.592,0.885c-0.519,0.014-0.782-0.234-0.812-0.878c-0.035-0.736,0.015-1.476-0.017-2.212
		c-0.021-0.496-0.058-1.006-0.2-1.476c-0.151-0.5,0.034-0.855,0.398-1.054c0.281-0.153,0.758-0.247,0.993-0.107
		C26.357,17.409,26.487,17.851,26.626,18.079z"/>
	<path fill-rule="evenodd" clip-rule="evenodd" fill="#FEF2F0" d="M26.294,30.602c0,0.783,0.007,1.566-0.003,2.35
		c-0.005,0.402-0.148,0.738-0.61,0.772c-0.525,0.04-0.776-0.3-0.783-0.757c-0.026-1.565-0.016-3.132-0.002-4.698
		c0.001-0.168,0.08-0.384,0.199-0.491c0.188-0.169,0.466-0.392,0.664-0.356c0.198,0.035,0.467,0.345,0.492,0.559
		c0.071,0.638,0.039,1.286,0.046,1.931c0.002,0.23,0,0.461,0,0.691C26.295,30.602,26.295,30.602,26.294,30.602z"/>
	<path fill-rule="evenodd" clip-rule="evenodd" fill="#FEEDEA" d="M27.31,26.422c0.029,0.315-0.512,0.742-0.741,0.54
		c-0.634-0.56-1.172-0.547-1.802,0.01c-0.227,0.2-0.739-0.223-0.731-0.562c0.014-0.54,0.733-1.016,1.562-1.032
		C26.492,25.36,27.253,25.824,27.31,26.422z"/>
	<path fill-rule="evenodd" clip-rule="evenodd" fill="#FEF1EF" d="M27.299,24.531c-0.003,0.337-0.521,0.684-0.78,0.458
		c-0.591-0.512-1.096-0.538-1.677-0.006c-0.09,0.082-0.443,0.006-0.566-0.111c-0.134-0.127-0.233-0.41-0.19-0.585
		c0.127-0.513,0.923-0.882,1.708-0.852c0.756,0.029,1.366,0.424,1.488,0.966C27.29,24.444,27.292,24.488,27.299,24.531z"/>
	<path fill-rule="evenodd" clip-rule="evenodd" fill="#FEF5F4" d="M37.883,19.152c0,0.644,0.008,1.288-0.004,1.932
		c-0.004,0.226,0.021,0.516-0.102,0.66c-0.184,0.211-0.484,0.43-0.742,0.44c-0.319,0.011-0.566-0.234-0.554-0.643
		c0.02-0.597-0.002-1.196-0.002-1.794c-0.001-1.012,0-2.024,0.001-3.036c0.001-0.394,0.061-0.742,0.569-0.763
		c0.508-0.021,0.783,0.241,0.819,0.721c0.035,0.458,0.012,0.919,0.014,1.379C37.884,18.416,37.883,18.784,37.883,19.152z"/>
	<path fill-rule="evenodd" clip-rule="evenodd" fill="#FEF5F4" d="M37.208,5.669c0.518,0.024,1.076,0.529,0.913,0.965
		c-0.453,1.217-0.13,2.458-0.239,3.68c-0.021,0.227,0.021,0.506-0.096,0.666c-0.169,0.23-0.466,0.524-0.692,0.511
		c-0.212-0.013-0.501-0.359-0.577-0.613c-0.103-0.338-0.018-0.729-0.04-1.096c-0.064-0.995,0.121-1.992-0.229-2.989
		C36.004,6.096,36.481,5.635,37.208,5.669z"/>
	<path fill-rule="evenodd" clip-rule="evenodd" fill="#FEEBE8" d="M38.723,12.837c0.039,0.487-0.302,0.813-0.697,0.624
		c-0.617-0.298-1.155-0.427-1.763,0.004c-0.104,0.074-0.457-0.053-0.574-0.19c-0.11-0.127-0.146-0.436-0.068-0.59
		c0.536-1.063,2.384-1.149,2.995-0.155C38.684,12.641,38.704,12.781,38.723,12.837z"/>
	<path fill-rule="evenodd" clip-rule="evenodd" fill="#FEEBE8" d="M38.762,15.153c-0.232,0.084-0.565,0.328-0.732,0.243
		c-0.624-0.318-1.179-0.403-1.794,0.012c-0.103,0.069-0.425-0.085-0.571-0.219c-0.087-0.08-0.081-0.334-0.031-0.481
		c0.191-0.565,0.829-0.946,1.536-0.942c0.642,0.004,1.155,0.271,1.506,0.81C38.743,14.68,38.72,14.844,38.762,15.153z"/>
	<path fill-rule="evenodd" clip-rule="evenodd" fill="#FEF4F3" d="M38.159,29.702c-0.521,1.321-0.17,2.668-0.279,3.983
		c-0.015,0.178-0.011,0.434-0.119,0.514c-0.232,0.173-0.535,0.347-0.804,0.339c-0.16-0.004-0.364-0.33-0.45-0.551
		c-0.078-0.201-0.016-0.454-0.029-0.684c-0.067-1.138,0.134-2.278-0.236-3.414c-0.218-0.671,0.188-1.112,0.813-1.145
		C37.601,28.717,38.165,29.224,38.159,29.702z"/>
	<path fill-rule="evenodd" clip-rule="evenodd" fill="#FEF4F3" d="M37.882,42.173c0,0.78,0.007,1.559-0.003,2.339
		c-0.005,0.465-0.219,0.834-0.704,0.852c-0.51,0.02-0.695-0.354-0.694-0.827c0-1.559-0.002-3.117,0.001-4.676
		c0-0.456,0.13-0.847,0.671-0.843c0.507,0.004,0.716,0.358,0.726,0.817C37.895,40.614,37.882,41.395,37.882,42.173z"/>
	<path fill-rule="evenodd" clip-rule="evenodd" fill="#FEE9E6" d="M37.906,36.793c-0.288-0.643-0.726-0.721-1.29-0.35
		c-0.322,0.213-0.657,0.355-0.938-0.051c-0.312-0.452,0.001-0.769,0.299-1.034c0.543-0.484,1.548-0.562,2.134-0.125
		c0.267,0.198,0.542,0.532,0.592,0.842c0.089,0.548-0.419,0.606-0.82,0.698L37.906,36.793z"/>
	<path fill-rule="evenodd" clip-rule="evenodd" fill="#FEE9E6" d="M37.883,36.773c0.254,0.295,0.563,0.562,0.739,0.897
		c0.102,0.193,0.072,0.569-0.06,0.734c-0.107,0.135-0.559,0.193-0.678,0.086c-0.524-0.47-0.971-0.311-1.493-0.017
		c-0.158,0.089-0.512,0.001-0.681-0.13c-0.333-0.258-0.136-0.611,0.063-0.831c0.565-0.624,1.371-0.626,2.133-0.721L37.883,36.773z"
		/>
</g>
</svg>
