<?xml version="1.0" encoding="utf-8"?>
<!-- Generator: Adobe Illustrator 16.0.0, SVG Export Plug-In . SVG Version: 6.00 Build 0)  -->
<!DOCTYPE svg PUBLIC "-//W3C//DTD SVG 1.1//EN" "http://www.w3.org/Graphics/SVG/1.1/DTD/svg11.dtd">
<svg version="1.1" id="Layer_1" xmlns="http://www.w3.org/2000/svg" xmlns:xlink="http://www.w3.org/1999/xlink" x="0px" y="0px"
	 width="50px" height="50px" viewBox="0 0 50 50" enable-background="new 0 0 50 50" xml:space="preserve">
<g>
	<path fill-rule="evenodd" clip-rule="evenodd" fill="#246B37" d="M39.399,46.534c-0.31,0.525-0.495,1.147-0.911,1.48
		c-0.779,0.623-1.726,0.982-2.762,0.644c-0.734-0.24-1.429-0.225-2.169,0.004c-1.021,0.315-1.965,0.012-2.765-0.646
		c-1.012-0.832-1.111-1.936-0.106-2.776c0.676-0.564,0.802-1.157,0.768-1.924c-0.03-0.692-0.056-1.392,0.006-2.08
		c0.081-0.901-0.19-1.509-0.934-2.114c-1.288-1.048-1.346-2.545-0.035-3.545c1.545-1.179,0.771-2.687,0.899-4.066
		c0.019-0.196-0.341-0.464-0.569-0.64c-1.015-0.78-0.836-2.461,0.472-3.067c0.966-0.448,2.026-0.701,3.058-0.995
		c0.27-0.077,0.604-0.042,0.881,0.039c0.747,0.217,1.491,0.455,2.215,0.739c1.895,0.744,2.188,2.048,0.755,3.49
		c-0.348,0.35-0.541,0.666-0.513,1.15c0.025,0.444,0.042,0.896-0.003,1.336c-0.077,0.752,0.167,1.227,0.81,1.718
		c1.71,1.307,1.565,2.957-0.079,4.158c-0.568,0.415-0.768,0.802-0.73,1.447c0.038,0.691,0.035,1.389,0.002,2.08
		c-0.045,0.906-0.049,1.721,0.93,2.26C38.977,45.424,39.111,46.027,39.399,46.534z M34.8,35.139c0.288,0.045,0.471-0.249,0.499-0.71
		c0.095-1.507-0.159-3.029,0.279-4.527c0.073-0.25-0.245-0.783-0.516-0.918c-0.272-0.136-0.761-0.027-1.064,0.139
		c-0.325,0.178-0.512,0.511-0.392,0.994c0.15,0.607,0.181,1.25,0.209,1.881c0.033,0.735-0.009,1.474,0.015,2.209
		C33.846,34.673,33.989,35.081,34.8,35.139z M35.311,43.265c0.001,0,0.002,0,0.003,0c0-0.344,0-0.688,0-1.031
		c0-0.491,0.004-0.982-0.003-1.474c-0.006-0.423-0.126-0.804-0.602-0.88c-0.601-0.097-0.726,0.4-0.856,0.812
		c-0.071,0.224-0.029,0.485-0.029,0.73c-0.003,0.835-0.003,1.67-0.001,2.505c0.002,0.638-0.058,1.285,0.033,1.911
		c0.062,0.421,0.321,0.894,0.867,0.82c0.445-0.06,0.591-0.455,0.589-0.889C35.308,44.935,35.311,44.1,35.311,43.265z M34.792,37.492
		c-0.544,0.251-1.089,0.438-1.558,0.742c-0.257,0.166-0.52,0.525-0.192,0.871c0.229,0.241,0.529,0.47,0.876,0.162
		c0.535-0.475,1.021-0.368,1.568,0.015c0.136,0.096,0.579-0.025,0.695-0.183c0.12-0.165,0.12-0.616-0.011-0.729
		C35.785,38.037,35.309,37.809,34.792,37.492z M36.379,36.657c-0.037-0.09-0.069-0.182-0.112-0.268
		c-0.335-0.671-1.012-0.831-1.619-0.83c-0.61,0.001-1.295,0.188-1.604,0.852c-0.079,0.168-0.029,0.487,0.089,0.633
		c0.167,0.204,0.43,0.442,0.745,0.16c0.523-0.468,1.012-0.423,1.579-0.016C35.808,37.441,36.401,37.049,36.379,36.657z"/>
	<path fill-rule="evenodd" clip-rule="evenodd" fill="#236B37" d="M36.235,23.895c-0.994-0.45-2.158-0.03-3.319-0.048
		c-0.618-0.009-1.297-0.128-1.836-0.411c-1.212-0.635-1.438-2.043-0.413-2.933c0.702-0.609,0.842-1.249,0.788-2.068
		c-0.035-0.542-0.041-1.091,0.001-1.633c0.077-1.015-0.062-1.793-1.014-2.514c-1.275-0.966-1.164-2.732,0.177-3.675
		c0.748-0.526,0.873-1.091,0.833-1.856c-0.021-0.395-0.027-0.794,0.002-1.188c0.042-0.574-0.104-0.993-0.57-1.416
		C29.613,5,30.128,3.515,31.616,2.868c0.712-0.31,1.461-0.605,2.221-0.713c0.656-0.092,1.357,0.056,2.028,0.163
		c0.479,0.076,0.946,0.246,1.41,0.398c0.277,0.091,0.56,0.197,0.803,0.354c1.208,0.776,1.385,2.169,0.274,3.084
		c-0.543,0.448-0.701,0.878-0.663,1.5c0.023,0.395,0.036,0.795-0.003,1.188c-0.07,0.702,0.155,1.183,0.761,1.612
		c1.553,1.101,1.798,2.892-0.1,4.23c-0.512,0.36-0.703,0.761-0.664,1.364c0.043,0.641,0.041,1.289,0.003,1.93
		c-0.062,1.018,0.094,1.825,0.985,2.579c1.167,0.986,0.393,2.873-1.232,3.239C37.105,23.872,36.751,23.855,36.235,23.895z
		 M35.303,18.457c-0.002,0-0.004,0-0.006,0c0-0.884,0.003-1.769-0.001-2.653c-0.002-0.4-0.182-0.713-0.605-0.625
		c-0.285,0.059-0.587,0.268-0.773,0.498c-0.128,0.158-0.091,0.467-0.092,0.708c-0.008,1.376-0.007,2.751-0.001,4.128
		c0.001,0.242-0.013,0.503,0.067,0.723c0.137,0.372,0.346,0.698,0.85,0.597c0.407-0.082,0.567-0.32,0.563-0.721
		C35.297,20.226,35.303,19.341,35.303,18.457z M34.538,4.142c-0.551,0.03-1.139,0.578-0.964,1.052
		c0.463,1.257,0.123,2.539,0.26,3.797c0.04,0.375,0.139,0.764,0.311,1.094c0.086,0.165,0.417,0.319,0.601,0.285
		c0.194-0.036,0.39-0.278,0.501-0.477c0.088-0.156,0.056-0.383,0.064-0.579c0.064-1.367-0.127-2.739,0.268-4.103
		C35.774,4.535,35.257,4.104,34.538,4.142z M34.66,11.906c0.206,0.147,0.396,0.285,0.588,0.421c0.364,0.259,0.7,0.319,1.005-0.101
		c0.345-0.478-0.06-0.731-0.319-0.969c-0.836-0.766-1.957-0.696-2.706,0.173c-0.152,0.176-0.251,0.529-0.183,0.736
		c0.126,0.382,0.498,0.444,0.847,0.27C34.146,12.311,34.365,12.114,34.66,11.906z M32.929,13.993
		c-0.037,0.367,0.477,0.782,0.816,0.563c0.625-0.403,1.149-0.665,1.77-0.004c0.074,0.08,0.581-0.086,0.707-0.266
		c0.108-0.154,0.051-0.612-0.095-0.721c-0.41-0.308-0.881-0.614-1.371-0.719C34.063,12.696,32.982,13.454,32.929,13.993z"/>
	<path fill-rule="evenodd" clip-rule="evenodd" fill="#216A36" d="M18.004,23.877c-0.269-0.019-0.584,0.019-0.856-0.074
		c-0.677-0.231-1.32-0.097-2.004-0.024c-0.751,0.08-1.603,0.028-2.289-0.259c-1.517-0.633-1.786-2.12-0.552-3.157
		c0.594-0.5,0.711-0.975,0.687-1.638c-0.025-0.691-0.046-1.387,0.004-2.076c0.07-0.972-0.127-1.678-0.997-2.358
		c-1.307-1.023-1.142-2.768,0.26-3.779c0.559-0.403,0.786-0.787,0.735-1.438c-0.042-0.541-0.035-1.089-0.001-1.631
		c0.033-0.533-0.155-0.893-0.542-1.281c-1.145-1.151-0.911-2.515,0.568-3.203c0.83-0.386,1.733-0.693,2.634-0.831
		c1.463-0.224,2.856,0.34,4.042,1.057c1.287,0.778,1.284,1.927,0.289,2.837c-0.653,0.597-0.798,1.159-0.751,1.917
		c0.016,0.247,0.015,0.495,0,0.742c-0.045,0.759,0.056,1.339,0.813,1.855c1.525,1.04,1.687,2.835-0.127,4.124
		c-0.493,0.35-0.743,0.717-0.696,1.341c0.055,0.738,0.047,1.485,0.004,2.225c-0.054,0.917-0.017,1.709,0.942,2.251
		c0.693,0.391,0.708,1.216,0.489,1.871c-0.259,0.777-0.921,1.262-1.737,1.454C18.633,23.869,18.329,23.854,18.004,23.877z
		 M16.841,18.529c0-0.892-0.004-1.784,0.001-2.676c0.002-0.403-0.148-0.732-0.578-0.667c-0.291,0.044-0.634,0.24-0.798,0.476
		c-0.146,0.209-0.097,0.567-0.099,0.86c-0.008,1.239-0.008,2.478,0,3.716c0.002,0.343-0.031,0.711,0.078,1.024
		c0.126,0.364,0.377,0.677,0.879,0.556c0.422-0.103,0.527-0.372,0.521-0.762C16.833,20.214,16.842,19.371,16.841,18.529z
		 M17.141,5.174c-0.016-0.752-0.397-1.074-1.077-1.031c-0.581,0.038-1.146,0.572-0.95,1.065c0.485,1.213,0.129,2.448,0.251,3.664
		c0.029,0.293-0.058,0.659,0.087,0.865c0.2,0.282,0.571,0.443,0.868,0.655c0.174-0.269,0.474-0.525,0.5-0.808
		C16.959,8.077,16.583,6.533,17.141,5.174z M17.292,12.604c0.198-0.161,0.451-0.271,0.52-0.451c0.069-0.18,0.023-0.478-0.091-0.642
		c-0.734-1.052-2.362-1.002-3.1,0.09c-0.091,0.135-0.154,0.405-0.082,0.509c0.123,0.177,0.35,0.331,0.56,0.38
		c0.153,0.036,0.385-0.072,0.52-0.188c0.386-0.333,0.737-0.433,1.137-0.023C16.88,12.408,17.07,12.473,17.292,12.604z
		 M15.034,14.591c0.097-0.008,0.227,0.022,0.285-0.029c0.592-0.528,1.149-0.604,1.762,0c0.078,0.076,0.53-0.115,0.699-0.289
		c0.102-0.105,0.068-0.464-0.034-0.627c-0.708-1.126-2.511-1.059-3.187,0.102C14.362,14.087,14.625,14.554,15.034,14.591z"/>
	<path fill-rule="evenodd" clip-rule="evenodd" fill="#216A36" d="M12.984,33.337c0-0.464-0.025-0.764,0.005-1.058
		c0.06-0.583-0.141-0.984-0.58-1.411c-1.049-1.02-0.89-2.416,0.404-3.045c0.995-0.483,2.114-0.932,3.192-0.972
		c1.35-0.05,2.705,0.45,3.845,1.217c0.956,0.643,1.082,1.962,0.216,2.676c-0.764,0.629-0.893,1.313-0.837,2.171
		c0.025,0.395,0.03,0.794-0.002,1.188c-0.037,0.448,0.12,0.753,0.514,0.968c0.212,0.116,0.412,0.269,0.588,0.435
		c1.249,1.177,1.168,2.791-0.103,3.696c-0.863,0.615-1.096,1.265-1.004,2.215c0.057,0.588,0.043,1.189,0.003,1.78
		c-0.056,0.826,0.073,1.434,0.876,1.979c1.004,0.681,0.873,2.244-0.137,2.919c-0.788,0.527-1.678,0.897-2.65,0.576
		c-0.787-0.26-1.536-0.267-2.315-0.003c-0.869,0.294-1.674-0.005-2.39-0.447c-1.272-0.786-1.436-2.073-0.312-3.047
		c0.57-0.493,0.732-0.976,0.693-1.655c-0.037-0.642-0.047-1.29,0.001-1.93c0.077-1.025-0.098-1.825-1.002-2.557
		c-1.207-0.978-1.198-2.473,0.025-3.441C12.893,34.896,13.093,34.148,12.984,33.337z M17.233,29.838
		c-0.159-0.247-0.292-0.685-0.571-0.82c-0.286-0.139-0.772-0.088-1.067,0.072c-0.377,0.204-0.62,0.575-0.463,1.116
		c0.146,0.504,0.2,1.044,0.224,1.571c0.036,0.785,0,1.573,0.013,2.359c0.008,0.534,0.146,0.981,0.815,0.979
		c0.644-0.001,0.638-0.452,0.666-0.915C16.934,32.793,16.585,31.354,17.233,29.838z M16.844,43.391c0-0.889,0-1.776,0-2.665
		c0-0.438-0.147-0.802-0.627-0.846c-0.56-0.051-0.774,0.344-0.844,0.821c-0.036,0.242-0.008,0.493-0.009,0.739
		c0,0.987-0.002,1.974,0,2.961c0.001,0.493-0.079,1.011,0.048,1.47c0.088,0.316,0.445,0.748,0.725,0.782
		c0.521,0.063,0.719-0.381,0.71-0.895C16.834,44.97,16.844,44.18,16.844,43.391z M17.918,36.742
		c-0.086-0.191-0.132-0.399-0.253-0.546c-0.825-0.996-2.578-0.716-3.062,0.171c-0.096,0.176-0.118,0.55-0.01,0.645
		c0.182,0.159,0.6,0.313,0.736,0.214c0.604-0.435,1.124-0.467,1.732-0.01C17.327,37.414,17.916,37.033,17.918,36.742z
		 M16.249,37.479c-0.583,0.299-1.087,0.492-1.504,0.804c-0.171,0.128-0.29,0.661-0.196,0.743c0.207,0.183,0.668,0.36,0.838,0.251
		c0.567-0.368,1.058-0.48,1.592,0.001c0.308,0.278,0.604,0.088,0.727-0.149c0.105-0.203,0.112-0.642-0.021-0.752
		C17.251,38.022,16.735,37.771,16.249,37.479z"/>
	<path fill-rule="evenodd" clip-rule="evenodd" fill="#EDF6EC" d="M34.8,35.139c-0.811-0.058-0.954-0.466-0.97-0.933
		c-0.023-0.735,0.019-1.474-0.015-2.209c-0.028-0.631-0.059-1.273-0.209-1.881c-0.12-0.483,0.066-0.816,0.392-0.994
		c0.304-0.166,0.792-0.274,1.064-0.139c0.271,0.135,0.589,0.668,0.516,0.918c-0.438,1.498-0.185,3.021-0.279,4.527
		C35.271,34.89,35.088,35.184,34.8,35.139z"/>
	<path fill-rule="evenodd" clip-rule="evenodd" fill="#ECF5EB" d="M35.311,43.265c0,0.835-0.003,1.67,0.001,2.505
		c0.002,0.434-0.144,0.829-0.589,0.889c-0.546,0.073-0.806-0.399-0.867-0.82c-0.091-0.626-0.031-1.273-0.033-1.911
		c-0.002-0.835-0.002-1.67,0.001-2.505c0-0.245-0.042-0.507,0.029-0.73c0.131-0.411,0.256-0.908,0.856-0.812
		c0.476,0.076,0.596,0.457,0.602,0.88c0.007,0.491,0.003,0.982,0.003,1.474c0,0.344,0,0.688,0,1.031
		C35.313,43.265,35.312,43.265,35.311,43.265z"/>
	<path fill-rule="evenodd" clip-rule="evenodd" fill="#ECF4EA" d="M34.792,37.492c0.517,0.316,0.993,0.545,1.379,0.878
		c0.131,0.113,0.131,0.564,0.011,0.729c-0.116,0.157-0.56,0.278-0.695,0.183c-0.547-0.383-1.033-0.489-1.568-0.015
		c-0.347,0.308-0.647,0.079-0.876-0.162c-0.327-0.346-0.064-0.705,0.192-0.871C33.703,37.931,34.248,37.743,34.792,37.492z"/>
	<path fill-rule="evenodd" clip-rule="evenodd" fill="#F1F7EF" d="M36.379,36.657c0.022,0.392-0.571,0.784-0.922,0.531
		c-0.567-0.407-1.056-0.452-1.579,0.016c-0.315,0.282-0.578,0.044-0.745-0.16c-0.118-0.146-0.168-0.465-0.089-0.633
		c0.309-0.664,0.993-0.851,1.604-0.852c0.607-0.001,1.284,0.159,1.619,0.83C36.31,36.476,36.342,36.567,36.379,36.657z"/>
	<path fill-rule="evenodd" clip-rule="evenodd" fill="#EBF5EB" d="M35.303,18.457c0,0.884-0.006,1.769,0.002,2.653
		c0.004,0.401-0.156,0.639-0.563,0.721c-0.504,0.102-0.713-0.225-0.85-0.597c-0.08-0.22-0.066-0.48-0.067-0.723
		c-0.006-1.376-0.007-2.752,0.001-4.128c0.001-0.241-0.036-0.55,0.092-0.708c0.187-0.229,0.488-0.438,0.773-0.498
		c0.424-0.088,0.604,0.226,0.605,0.625c0.004,0.884,0.001,1.769,0.001,2.653C35.299,18.457,35.301,18.457,35.303,18.457z"/>
	<path fill-rule="evenodd" clip-rule="evenodd" fill="#EFF7EE" d="M34.538,4.142c0.719-0.039,1.236,0.393,1.04,1.07
		c-0.395,1.363-0.203,2.735-0.268,4.103c-0.009,0.196,0.023,0.423-0.064,0.579c-0.111,0.198-0.307,0.44-0.501,0.477
		c-0.184,0.035-0.515-0.12-0.601-0.285c-0.172-0.33-0.271-0.72-0.311-1.094c-0.137-1.259,0.203-2.541-0.26-3.797
		C33.399,4.72,33.987,4.172,34.538,4.142z"/>
	<path fill-rule="evenodd" clip-rule="evenodd" fill="#F1F8F0" d="M34.66,11.906c-0.295,0.208-0.515,0.404-0.769,0.531
		c-0.349,0.174-0.721,0.112-0.847-0.27c-0.068-0.208,0.03-0.56,0.183-0.736c0.749-0.869,1.87-0.938,2.706-0.173
		c0.26,0.238,0.664,0.491,0.319,0.969c-0.305,0.42-0.641,0.36-1.005,0.101C35.057,12.191,34.866,12.054,34.66,11.906z"/>
	<path fill-rule="evenodd" clip-rule="evenodd" fill="#F1F8F0" d="M32.929,13.993c0.054-0.539,1.135-1.296,1.827-1.147
		c0.49,0.105,0.961,0.412,1.371,0.719c0.146,0.109,0.203,0.567,0.095,0.721c-0.126,0.179-0.633,0.345-0.707,0.266
		c-0.62-0.661-1.145-0.399-1.77,0.004C33.405,14.774,32.892,14.359,32.929,13.993z"/>
	<path fill-rule="evenodd" clip-rule="evenodd" fill="#F0F7F0" d="M16.841,18.529c0,0.842-0.008,1.685,0.004,2.527
		c0.006,0.39-0.099,0.659-0.521,0.762c-0.502,0.122-0.753-0.192-0.879-0.556c-0.108-0.313-0.076-0.681-0.078-1.024
		c-0.007-1.239-0.008-2.478,0-3.716c0.002-0.292-0.046-0.651,0.099-0.86c0.164-0.236,0.507-0.432,0.798-0.476
		c0.429-0.065,0.58,0.265,0.578,0.667C16.836,16.745,16.841,17.637,16.841,18.529z"/>
	<path fill-rule="evenodd" clip-rule="evenodd" fill="#F4F9F3" d="M17.141,5.174c-0.558,1.359-0.181,2.902-0.32,4.411
		c-0.026,0.283-0.326,0.54-0.5,0.808c-0.297-0.212-0.668-0.373-0.868-0.655c-0.146-0.206-0.058-0.571-0.087-0.865
		c-0.123-1.216,0.233-2.451-0.251-3.664c-0.197-0.493,0.369-1.028,0.95-1.065C16.743,4.101,17.125,4.422,17.141,5.174z"/>
	<path fill-rule="evenodd" clip-rule="evenodd" fill="#F1F7EF" d="M17.292,12.604c-0.222-0.13-0.412-0.196-0.537-0.324
		c-0.4-0.409-0.751-0.31-1.137,0.023c-0.135,0.116-0.366,0.223-0.52,0.188c-0.21-0.049-0.438-0.203-0.56-0.38
		c-0.072-0.104-0.01-0.375,0.082-0.509c0.738-1.092,2.366-1.142,3.1-0.09c0.114,0.164,0.16,0.462,0.091,0.642
		C17.742,12.333,17.489,12.442,17.292,12.604z"/>
	<path fill-rule="evenodd" clip-rule="evenodd" fill="#F1F7EF" d="M15.034,14.59c-0.409-0.036-0.672-0.503-0.475-0.843
		c0.676-1.16,2.479-1.228,3.187-0.102c0.103,0.163,0.136,0.521,0.034,0.627c-0.169,0.174-0.622,0.365-0.699,0.289
		c-0.613-0.604-1.17-0.528-1.762,0C15.261,14.613,15.131,14.583,15.034,14.59z"/>
	<path fill-rule="evenodd" clip-rule="evenodd" fill="#F1F8F0" d="M17.233,29.838c-0.647,1.517-0.299,2.955-0.384,4.363
		c-0.028,0.463-0.021,0.914-0.666,0.915c-0.669,0.002-0.807-0.445-0.815-0.979c-0.012-0.786,0.023-1.574-0.013-2.359
		c-0.024-0.527-0.078-1.067-0.224-1.571c-0.157-0.541,0.086-0.912,0.463-1.116c0.295-0.16,0.782-0.211,1.067-0.072
		C16.941,29.153,17.074,29.591,17.233,29.838z"/>
	<path fill-rule="evenodd" clip-rule="evenodd" fill="#F0F7EF" d="M16.844,43.391c0,0.789-0.01,1.579,0.003,2.368
		c0.009,0.514-0.189,0.958-0.71,0.895c-0.279-0.034-0.637-0.466-0.725-0.782c-0.127-0.459-0.047-0.977-0.048-1.47
		c-0.002-0.987,0-1.974,0-2.961c0-0.246-0.027-0.497,0.009-0.739c0.07-0.478,0.285-0.872,0.844-0.821
		c0.479,0.044,0.627,0.407,0.627,0.846C16.844,41.614,16.844,42.502,16.844,43.391z"/>
	<path fill-rule="evenodd" clip-rule="evenodd" fill="#F2F8F1" d="M17.918,36.742c-0.003,0.291-0.592,0.672-0.856,0.474
		c-0.609-0.457-1.129-0.425-1.732,0.01c-0.136,0.099-0.554-0.055-0.736-0.214c-0.108-0.095-0.086-0.469,0.01-0.645
		c0.483-0.887,2.236-1.167,3.062-0.171C17.786,36.343,17.833,36.551,17.918,36.742z"/>
	<path fill-rule="evenodd" clip-rule="evenodd" fill="#EFF6EE" d="M16.249,37.479c0.487,0.292,1.003,0.543,1.435,0.897
		c0.134,0.11,0.127,0.549,0.021,0.752c-0.124,0.237-0.419,0.428-0.727,0.149c-0.534-0.481-1.024-0.369-1.592-0.001
		c-0.17,0.109-0.631-0.068-0.838-0.251c-0.093-0.082,0.025-0.615,0.196-0.743C15.162,37.972,15.666,37.778,16.249,37.479z"/>
</g>
</svg>
