<?xml version="1.0" encoding="utf-8"?>
<!-- Generator: Adobe Illustrator 16.0.0, SVG Export Plug-In . SVG Version: 6.00 Build 0)  -->
<!DOCTYPE svg PUBLIC "-//W3C//DTD SVG 1.1//EN" "http://www.w3.org/Graphics/SVG/1.1/DTD/svg11.dtd">
<svg version="1.1" id="Layer_1" xmlns="http://www.w3.org/2000/svg" xmlns:xlink="http://www.w3.org/1999/xlink" x="0px" y="0px"
	 width="50px" height="50px" viewBox="0 0 50 50" enable-background="new 0 0 50 50" xml:space="preserve">
<g>
	<path fill-rule="evenodd" clip-rule="evenodd" fill="#EC5856" d="M23.463,44.088c-0.938,0.698-1.945,0.699-2.957,0.653
		c-0.575-0.025-1.024-0.019-1.312,0.681c-0.291,0.706-0.547,0.651-1.138,0.188c-0.776-0.606-0.982-1.491-1.222-2.351
		c-0.368-1.316-0.369-1.309-1.782-1.532c-0.982-0.156-1.948-0.408-2.92-0.62c-0.146-0.032-0.301-0.056-0.431-0.123
		c-0.432-0.225-1.068-0.351-0.945-1c0.144-0.76,0.807-0.43,1.251-0.399c1.241,0.084,2.478,0.232,3.98,0.382
		c-0.34-1.196-0.617-2.173-0.897-3.147c-0.097-0.336-0.309-0.678-0.282-1.001c0.03-0.358,0.203-0.776,0.458-1.01
		c0.11-0.102,0.673,0.112,0.871,0.329c0.292,0.318,0.483,0.752,0.644,1.165c0.45,1.158,0.863,2.33,1.271,3.446
		c1.006-0.062,1.9-0.118,2.794-0.171c1.016-0.061,1.079-0.121,1.112-1.171c0.011-0.35,0.002-0.7,0.002-1.041
		c-0.895-0.147-0.895-0.147-2.126,0.249c0,0.257,0,0.551,0,0.845c0,0.389-0.244,0.583-0.575,0.502
		c-0.236-0.057-0.496-0.264-0.618-0.477c-0.142-0.248-0.17-0.573-0.204-0.87c-0.258-2.242-0.545-4.481-0.739-6.729
		c-0.102-1.173,0.097-1.358,1.243-1.349c3.235,0.03,6.373-0.561,9.492-1.352c0.719-0.182,1.496-0.143,2.248-0.182
		c0.506-0.027,0.73,0.24,0.699,0.747c-0.07,1.104-0.17,2.209-0.186,3.314c-0.028,2.156-0.008,4.313-0.008,6.355
		c1.375,0.083,2.716,0.096,4.037,0.261c1.799,0.224,3.104,2.538,2.385,4.229c-0.472,1.109-1.012,2.114-2.543,2.218
		c-1.376,0.093-2.734,0.54-4.084,0.891C28.163,46.753,25.736,45.988,23.463,44.088z M24.98,43.365
		c1.288,1.279,2.662,1.845,4.361,1.014c0.776-0.38,1.59-0.512,2.453-0.577c0.62-0.047,1.282-0.279,1.815-0.608
		c1.165-0.718,1.045-2.309-0.174-2.906c-0.729-0.357-1.489-0.523-2.332-0.201c0,0.678-0.054,1.332,0.015,1.974
		c0.07,0.653-0.287,1.006-0.797,1.037c-1.034,0.065-2.138,0.587-3.092-0.351c-0.146-0.145-0.578-0.092-0.84-0.008
		C25.927,42.889,25.493,43.131,24.98,43.365z M24.763,31.97c0.695,0,1.293,0.036,1.886-0.011c0.595-0.046,1.153-0.963,1.011-1.573
		c-0.109-0.469-0.513-0.621-1.254-0.46c-0.529,0.115-1.055,0.244-1.643,0.381C24.763,30.797,24.763,31.286,24.763,31.97z
		 M25.079,38.928c2.445,0.114,2.472,0.088,2.157-1.993c-0.724,0-1.444,0-2.157,0C25.079,37.646,25.079,38.236,25.079,38.928z
		 M22.14,33.851c-0.602,0-1.109-0.049-1.603,0.013c-0.588,0.072-1.004,0.558-0.882,1.003c0.14,0.514,0.43,0.802,1.074,0.772
		C22.163,35.575,22.269,35.498,22.14,33.851z M22.233,30.594c-0.738,0.063-1.371,0.152-2.005,0.163
		c-0.512,0.008-0.704,0.205-0.705,0.713c0,0.531,0.13,0.875,0.739,0.865c0.637-0.011,1.273-0.002,1.971-0.002
		C22.233,31.676,22.233,31.194,22.233,30.594z M25.04,35.166c0.486-0.052,0.88-0.1,1.275-0.136c1.15-0.102,1.232-0.246,0.859-1.474
		c-0.697,0-1.384,0-2.134,0C25.04,34.109,25.04,34.59,25.04,35.166z M22.087,42.135c-0.254-0.245-0.447-0.59-0.641-0.589
		c-0.69,0.001-1.379,0.129-2.07,0.188c-0.403,0.035-0.55,0.302-0.441,0.607c0.095,0.268,0.382,0.685,0.553,0.67
		c0.733-0.063,1.458-0.246,2.176-0.425C21.805,42.552,21.902,42.341,22.087,42.135z M27.184,40.521
		c-0.675,0.122-1.174,0.158-1.623,0.326c-0.13,0.049-0.118,0.476-0.171,0.729c0.525,0.019,1.066,0.106,1.568,0.006
		C27.088,41.556,27.102,40.941,27.184,40.521z"/>
	<path fill-rule="evenodd" clip-rule="evenodd" fill="#111010" d="M17.52,15.7c-1.485-0.017-2.935-0.181-4.304-0.743
		c-0.434-0.178-0.866-0.514-1.141-0.893c-0.375-0.517-0.034-1.115,0.611-1.204c0.247-0.034,0.516-0.042,0.754,0.019
		c2.885,0.726,5.704,0.194,8.504-0.471c2.386-0.566,4.761-1.186,7.13-1.821c2.729-0.731,5.393-0.337,8.025,0.431
		c1.244,0.363,2.039,1.333,1.925,2.213c-0.148,1.135-1.109,1.346-1.98,1.55c-0.515,0.12-1.096,0.123-1.612,0.014
		c-0.679-0.145-1.358-0.382-1.977-0.7c-2.235-1.15-4.495-1.171-6.862-0.422c-2.05,0.649-4.141,1.18-6.233,1.68
		C19.439,15.575,18.468,15.591,17.52,15.7z"/>
	<path fill-rule="evenodd" clip-rule="evenodd" fill="#ED5A58" d="M24.592,25.879c0.673,0.096,1.279,0.099,1.375-0.848
		c0.02-0.191,0.143-0.374,0.223-0.557c0.617-1.399,0.704-2.661-0.813-3.597c-0.472-0.292-0.489-0.72-0.053-1.132
		c0.477-0.453,0.912-0.949,1.397-1.392c0.599-0.546,0.838-0.501,1.274,0.234c0.436,0.732,0.818,1.496,1.26,2.225
		c0.418,0.69,0.472,1.285-0.198,1.871c-0.572,0.5-0.845,1.182-1.144,2.106c0.618-0.104,1-0.143,1.368-0.237
		c2.054-0.522,4.134-0.81,6.256-0.768c0.795,0.016,1.459,0.366,1.492,0.768c0.035,0.445-0.698,0.996-1.484,1.055
		c-2.749,0.206-5.487,0.469-8.159,1.208c-1.395,0.386-2.794,0.788-4.217,1.024c-2.276,0.378-4.564,0.719-6.889,0.273
		c-0.735-0.141-1.514-0.034-2.269-0.098c-0.974-0.081-1.889-0.35-2.504-1.188c-0.279-0.38-0.28-0.704,0.232-0.972
		c0.737-0.386,1.459-0.223,2.208-0.114c2.729,0.396,5.454,0.842,8.386,0.742c-0.142-0.305-0.181-0.562-0.329-0.676
		c-0.545-0.421-0.559-0.88-0.225-1.429c0.393-0.643,0.752-1.305,1.154-1.941c0.229-0.363,0.572-0.626,1.019-0.411
		c0.418,0.202,0.729,0.482,0.483,1.06C24.042,24.003,24.125,24.927,24.592,25.879z"/>
	<path fill-rule="evenodd" clip-rule="evenodd" fill="#121212" d="M18.835,8.255c0.03,0-0.121,0-0.272,0
		c-0.59,0.003-0.949-0.33-1.11-0.852c-0.142-0.459,0.269-1.098,0.819-1.249c0.675-0.186,1.377-0.273,2.057-0.449
		c3.485-0.904,6.964-1.83,10.452-2.729c0.649-0.168,1.48-0.678,1.926,0.021c0.274,0.429-0.041,1.229-0.079,1.863
		c-0.045,0.74-0.521,1.047-1.168,1.164c-4.045,0.734-8.092,1.461-12.139,2.19C19.221,8.233,19.118,8.233,18.835,8.255z"/>
</g>
</svg>
