<?xml version="1.0" encoding="utf-8"?>
<!-- Generator: Adobe Illustrator 16.0.0, SVG Export Plug-In . SVG Version: 6.00 Build 0)  -->
<!DOCTYPE svg PUBLIC "-//W3C//DTD SVG 1.1//EN" "http://www.w3.org/Graphics/SVG/1.1/DTD/svg11.dtd">
<svg version="1.1" id="Layer_1" xmlns="http://www.w3.org/2000/svg" xmlns:xlink="http://www.w3.org/1999/xlink" x="0px" y="0px"
	 width="50px" height="50px" viewBox="0 0 50 50" enable-background="new 0 0 50 50" xml:space="preserve">
<g>
	<path fill-rule="evenodd" clip-rule="evenodd" fill="#151515" d="M8.681,9.563c-0.202-3.991,3.507-7.477,7.416-7.467
		c3.199,0.008,7.436,2.377,7.496,7.428c0.051,4.268-3.219,7.582-7.527,7.534C11.042,17.001,8.465,12.795,8.681,9.563z M10.486,9.613
		c-0.134,3.009,2.376,5.756,5.694,5.666c3.455-0.094,5.661-2.605,5.635-5.784c-0.028-3.479-2.964-5.547-5.666-5.587
		C13.176,3.863,10.263,6.554,10.486,9.613z"/>
	<path fill-rule="evenodd" clip-rule="evenodd" fill="#151515" d="M41.825,40.193c0.182,3.842-3.406,7.442-7.475,7.404
		c-3.257-0.032-7.43-2.495-7.438-7.484c-0.008-4.363,3.383-7.56,7.59-7.474C39.507,32.742,42.065,36.943,41.825,40.193z
		 M34.374,45.746c3.006,0.222,5.744-2.648,5.686-5.681c-0.053-2.781-2.15-5.622-5.602-5.646c-3.168-0.023-5.687,2.193-5.767,5.65
		C28.614,43.429,31.401,45.893,34.374,45.746z"/>
	<path fill-rule="evenodd" clip-rule="evenodd" fill="#141414" d="M32.671,24.823c0.223,4.055-3.467,7.481-7.397,7.487
		c-4.003,0.006-7.479-3.462-7.486-7.446c-0.008-4.023,3.47-7.479,7.446-7.487C29.311,17.368,32.888,20.904,32.671,24.823z
		 M25.301,19.101c-3.313,0.242-5.719,2.268-5.727,5.732c-0.008,3.491,2.45,5.699,5.708,5.686c3.151-0.012,5.574-2.088,5.649-5.592
		C31.001,21.714,28.858,19.42,25.301,19.101z"/>
	<path fill-rule="evenodd" clip-rule="evenodd" fill="#E8E7EB" d="M10.486,9.613c-0.223-3.059,2.689-5.75,5.664-5.706
		c2.702,0.04,5.637,2.108,5.666,5.587c0.026,3.178-2.181,5.689-5.635,5.784C12.863,15.369,10.353,12.622,10.486,9.613z
		 M11.352,9.568c-0.069,3.028,2.397,4.824,4.782,4.843c2.682,0.021,4.88-2.325,4.815-4.865c-0.061-2.435-1.886-4.756-4.895-4.748
		C13.543,4.805,11.258,6.938,11.352,9.568z"/>
	<path fill-rule="evenodd" clip-rule="evenodd" fill="#E9E8EB" d="M34.374,45.746c-2.973,0.146-5.76-2.317-5.683-5.677
		c0.08-3.457,2.599-5.674,5.767-5.65c3.451,0.024,5.549,2.865,5.602,5.646C40.118,43.098,37.38,45.968,34.374,45.746z M39.155,40.12
		c0.063-3.04-2.416-4.827-4.793-4.837c-2.677-0.012-4.879,2.327-4.806,4.88c0.071,2.464,1.913,4.753,4.911,4.737
		C37.024,44.888,39.261,42.737,39.155,40.12z"/>
	<path fill-rule="evenodd" clip-rule="evenodd" fill="#F0EAEA" d="M25.301,19.101c3.558,0.319,5.7,2.613,5.631,5.826
		c-0.075,3.504-2.498,5.581-5.649,5.592c-3.258,0.013-5.716-2.195-5.708-5.686C19.582,21.369,21.988,19.343,25.301,19.101z
		 M25.275,19.966c-2.533-0.015-4.869,2.299-4.899,4.854c-0.03,2.518,2.306,4.876,4.855,4.9c2.521,0.024,4.876-2.31,4.899-4.857
		C30.153,22.343,27.812,19.98,25.275,19.966z"/>
	<path fill-rule="evenodd" clip-rule="evenodd" fill="#1D1C50" d="M11.352,9.568c-0.094-2.63,2.191-4.763,4.703-4.77
		c3.009-0.008,4.833,2.313,4.895,4.748c0.064,2.54-2.134,4.887-4.815,4.865C13.749,14.392,11.283,12.596,11.352,9.568z
		 M15.121,9.589c0.012,0.528,0.578,1.103,1.049,1.065c0.415-0.033,1.046-0.752,1.009-1.151c-0.041-0.441-0.557-0.903-1.032-0.923
		C15.51,8.553,15.106,8.951,15.121,9.589z M13.914,10.611c-0.128,0.248-0.319,0.442-0.297,0.608c0.07,0.527,1.113,1.351,1.662,1.339
		c0.127-0.002,0.293-0.116,0.365-0.228c0.07-0.108,0.107-0.362,0.046-0.41C15.149,11.492,14.583,11.096,13.914,10.611z M15.928,7.35
		c0.268,0.039,0.518,0.125,0.754,0.096c0.206-0.025,0.395-0.179,0.592-0.276c-0.121-0.195-0.229-0.546-0.364-0.556
		c-0.573-0.044-1.157-0.012-1.73,0.052c-0.126,0.015-0.347,0.356-0.311,0.412c0.113,0.178,0.309,0.358,0.507,0.413
		C15.539,7.535,15.75,7.401,15.928,7.35z M13.46,10.059c0.143-0.1,0.269-0.141,0.3-0.219C14,9.246,14.231,8.648,14.43,8.041
		c0.025-0.078-0.127-0.269-0.239-0.323c-0.118-0.058-0.313-0.067-0.427-0.007c-0.511,0.268-0.937,1.481-0.694,2.001
		C13.141,9.861,13.336,9.952,13.46,10.059z M19.293,9.311c-0.233-0.534-0.422-1.038-0.681-1.503
		c-0.061-0.109-0.399-0.169-0.531-0.101c-0.119,0.062-0.202,0.344-0.173,0.507c0.075,0.436,0.185,0.875,0.35,1.284
		c0.083,0.206,0.316,0.352,0.481,0.525C18.903,9.813,19.066,9.603,19.293,9.311z M17.052,12.697
		c0.542-0.486,1.085-0.966,1.608-1.467c0.033-0.032-0.071-0.311-0.165-0.351c-0.156-0.067-0.402-0.11-0.527-0.031
		c-0.459,0.292-0.898,0.622-1.312,0.976c-0.094,0.08-0.103,0.33-0.061,0.476C16.629,12.413,16.801,12.487,17.052,12.697z"/>
	<path fill-rule="evenodd" clip-rule="evenodd" fill="#1F1E51" d="M39.155,40.12c0.105,2.617-2.131,4.768-4.688,4.78
		c-2.998,0.016-4.84-2.273-4.911-4.737c-0.073-2.553,2.129-4.892,4.806-4.88C36.739,35.293,39.218,37.08,39.155,40.12z
		 M34.427,41.11c0.635-0.011,1.008-0.425,0.957-1.067c-0.039-0.476-0.525-0.978-0.961-0.988c-0.395-0.01-1.086,0.654-1.1,1.055
		C33.31,40.594,33.888,41.119,34.427,41.11z M37.657,40.006c-0.279-0.604-0.51-1.156-0.795-1.678
		c-0.061-0.113-0.422-0.212-0.467-0.161c-0.143,0.162-0.311,0.423-0.27,0.601c0.107,0.483,0.297,0.954,0.502,1.407
		c0.064,0.142,0.314,0.322,0.424,0.291C37.251,40.409,37.407,40.208,37.657,40.006z M34.14,42.714
		c-0.189-0.23-0.283-0.405-0.428-0.513c-0.4-0.299-0.811-0.588-1.24-0.84c-0.123-0.073-0.391-0.071-0.483,0.014
		c-0.109,0.102-0.192,0.384-0.128,0.495c0.371,0.637,0.926,1.049,1.68,1.102C33.7,42.982,33.87,42.835,34.14,42.714z M34.259,37.999
		c0.305,0.013,0.57,0.077,0.805,0.019c0.209-0.051,0.383-0.239,0.572-0.367c-0.156-0.173-0.283-0.414-0.479-0.498
		c-0.217-0.095-0.504-0.096-0.744-0.051c-0.434,0.082-1.188-0.277-1.176,0.518C33.247,38.353,33.935,37.899,34.259,37.999z
		 M31.255,39.769c0.153,0.297,0.256,0.496,0.359,0.695c0.215-0.163,0.523-0.283,0.627-0.5c0.188-0.395,0.285-0.842,0.359-1.278
		c0.027-0.165-0.064-0.43-0.193-0.518c-0.092-0.063-0.428,0.039-0.492,0.156C31.659,38.79,31.466,39.29,31.255,39.769z
		 M36.905,41.647c-0.059-0.077-0.123-0.223-0.236-0.287c-0.098-0.057-0.285-0.075-0.369-0.018c-0.492,0.337-0.973,0.689-1.432,1.066
		c-0.078,0.064-0.068,0.277-0.043,0.41c0.014,0.063,0.154,0.128,0.246,0.146C35.698,43.082,36.833,42.296,36.905,41.647z"/>
	<path fill-rule="evenodd" clip-rule="evenodd" fill="#ED5B59" d="M25.275,19.966c2.536,0.015,4.878,2.377,4.855,4.898
		c-0.023,2.547-2.378,4.881-4.899,4.857c-2.549-0.024-4.886-2.383-4.855-4.9C20.407,22.265,22.742,19.951,25.275,19.966z
		 M26.198,24.846c0-0.616-0.299-0.928-0.905-0.947c-0.604-0.019-0.948,0.285-0.984,0.87c-0.041,0.66,0.324,1.039,0.981,1.018
		C25.901,25.77,26.197,25.461,26.198,24.846z M28.39,24.317c-0.177-0.373-0.385-0.871-0.654-1.333
		c-0.066-0.116-0.41-0.214-0.489-0.15c-0.171,0.137-0.389,0.42-0.347,0.581c0.147,0.567,0.383,1.113,0.616,1.653
		c0.052,0.118,0.233,0.248,0.355,0.249c0.123,0,0.298-0.129,0.356-0.248C28.314,24.898,28.317,24.686,28.39,24.317z M22.153,24.254
		c0.033,0.387,0,0.563,0.069,0.677c0.096,0.16,0.265,0.375,0.409,0.38c0.14,0.005,0.36-0.2,0.418-0.359
		c0.185-0.505,0.343-1.025,0.441-1.553c0.033-0.174-0.109-0.43-0.252-0.563c-0.063-0.059-0.414,0.046-0.481,0.164
		C22.495,23.461,22.292,23.956,22.153,24.254z M23.106,25.802c-0.167,0.382-0.342,0.586-0.316,0.761
		c0.083,0.559,1.158,1.391,1.665,1.271c0.179-0.042,0.436-0.496,0.422-0.508C24.35,26.839,23.796,26.382,23.106,25.802z
		 M26.196,27.996c0.51-0.42,1.014-0.802,1.47-1.235c0.091-0.087,0.067-0.482-0.019-0.531c-0.18-0.102-0.49-0.16-0.652-0.069
		c-0.432,0.239-0.83,0.55-1.206,0.874c-0.108,0.093-0.17,0.356-0.117,0.489C25.733,27.68,25.942,27.778,26.196,27.996z
		 M24.015,22.699c0.741,0,1.394,0.01,2.045-0.009c0.125-0.003,0.312-0.097,0.353-0.196c0.045-0.114-0.008-0.387-0.074-0.408
		c-0.418-0.129-0.849-0.243-1.283-0.292C24.582,21.741,24.129,21.81,24.015,22.699z"/>
	<path fill-rule="evenodd" clip-rule="evenodd" fill="#D6D5E3" d="M15.121,9.589c-0.015-0.639,0.389-1.036,1.026-1.009
		c0.476,0.02,0.992,0.482,1.032,0.923c0.037,0.399-0.594,1.119-1.009,1.151C15.699,10.692,15.133,10.118,15.121,9.589z
		 M16.453,9.538c-0.151-0.127-0.249-0.209-0.347-0.292c-0.104,0.125-0.207,0.249-0.31,0.374c0.114,0.069,0.229,0.19,0.342,0.19
		C16.229,9.809,16.319,9.66,16.453,9.538z"/>
	<path fill-rule="evenodd" clip-rule="evenodd" fill="#E2E1EB" d="M13.914,10.611c0.669,0.485,1.235,0.881,1.776,1.309
		c0.061,0.048,0.023,0.302-0.046,0.41c-0.072,0.112-0.238,0.226-0.365,0.228c-0.548,0.012-1.592-0.812-1.662-1.339
		C13.595,11.053,13.786,10.858,13.914,10.611z"/>
	<path fill-rule="evenodd" clip-rule="evenodd" fill="#E2E1EC" d="M15.928,7.35c-0.178,0.051-0.39,0.185-0.552,0.141
		c-0.198-0.055-0.394-0.235-0.507-0.413c-0.036-0.056,0.185-0.397,0.311-0.412c0.573-0.064,1.157-0.096,1.73-0.052
		c0.135,0.01,0.244,0.361,0.364,0.556c-0.197,0.097-0.386,0.251-0.592,0.276C16.446,7.474,16.196,7.389,15.928,7.35z"/>
	<path fill-rule="evenodd" clip-rule="evenodd" fill="#DDDCE9" d="M13.46,10.059c-0.125-0.106-0.32-0.198-0.39-0.347
		c-0.243-0.52,0.183-1.734,0.694-2.001c0.114-0.06,0.309-0.051,0.427,0.007c0.111,0.054,0.264,0.245,0.239,0.323
		C14.231,8.648,14,9.246,13.761,9.839C13.729,9.918,13.603,9.958,13.46,10.059z"/>
	<path fill-rule="evenodd" clip-rule="evenodd" fill="#E0DFEA" d="M19.293,9.311c-0.228,0.292-0.391,0.502-0.554,0.712
		c-0.165-0.173-0.397-0.319-0.481-0.525c-0.165-0.409-0.275-0.848-0.35-1.284c-0.029-0.164,0.054-0.446,0.173-0.507
		c0.132-0.069,0.471-0.008,0.531,0.101C18.871,8.273,19.06,8.777,19.293,9.311z"/>
	<path fill-rule="evenodd" clip-rule="evenodd" fill="#EDECF4" d="M17.052,12.697c-0.251-0.209-0.423-0.284-0.456-0.397
		c-0.042-0.146-0.033-0.396,0.061-0.476c0.414-0.354,0.852-0.684,1.312-0.976c0.125-0.079,0.371-0.036,0.527,0.031
		c0.093,0.04,0.198,0.318,0.165,0.351C18.138,11.731,17.594,12.21,17.052,12.697z"/>
	<path fill-rule="evenodd" clip-rule="evenodd" fill="#DAD9E6" d="M34.427,41.11c-0.539,0.009-1.117-0.517-1.104-1.001
		c0.014-0.4,0.705-1.064,1.1-1.055c0.436,0.011,0.922,0.513,0.961,0.988C35.435,40.686,35.062,41.1,34.427,41.11z M34.8,40.218
		c-0.129-0.153-0.256-0.354-0.293-0.338c-0.139,0.058-0.25,0.186-0.371,0.287c0.094,0.091,0.178,0.238,0.285,0.256
		C34.517,40.439,34.636,40.313,34.8,40.218z"/>
	<path fill-rule="evenodd" clip-rule="evenodd" fill="#E3E2ED" d="M37.657,40.006c-0.25,0.202-0.406,0.403-0.605,0.46
		c-0.109,0.031-0.359-0.149-0.424-0.291c-0.205-0.453-0.395-0.924-0.502-1.407c-0.041-0.178,0.127-0.438,0.27-0.601
		c0.045-0.051,0.406,0.048,0.467,0.161C37.147,38.85,37.378,39.401,37.657,40.006z"/>
	<path fill-rule="evenodd" clip-rule="evenodd" fill="#E2E1EB" d="M34.14,42.714c-0.27,0.121-0.439,0.269-0.6,0.258
		c-0.754-0.053-1.309-0.465-1.68-1.102c-0.064-0.111,0.019-0.394,0.128-0.495c0.093-0.085,0.36-0.087,0.483-0.014
		c0.43,0.252,0.84,0.541,1.24,0.84C33.856,42.309,33.95,42.483,34.14,42.714z"/>
	<path fill-rule="evenodd" clip-rule="evenodd" fill="#E9E8F1" d="M34.259,37.999c-0.324-0.1-1.012,0.354-1.021-0.38
		c-0.012-0.795,0.742-0.436,1.176-0.518c0.24-0.045,0.527-0.044,0.744,0.051c0.195,0.084,0.322,0.325,0.479,0.498
		c-0.189,0.128-0.363,0.316-0.572,0.367C34.829,38.076,34.563,38.012,34.259,37.999z"/>
	<path fill-rule="evenodd" clip-rule="evenodd" fill="#E8E8F1" d="M31.255,39.769c0.211-0.479,0.404-0.979,0.66-1.444
		c0.064-0.117,0.4-0.22,0.492-0.156c0.129,0.088,0.221,0.353,0.193,0.518c-0.074,0.437-0.172,0.884-0.359,1.278
		c-0.104,0.217-0.412,0.337-0.627,0.5C31.511,40.265,31.408,40.065,31.255,39.769z"/>
	<path fill-rule="evenodd" clip-rule="evenodd" fill="#EBEAF2" d="M36.905,41.647c-0.072,0.648-1.207,1.435-1.834,1.317
		c-0.092-0.018-0.232-0.082-0.246-0.146c-0.025-0.133-0.035-0.346,0.043-0.41c0.459-0.377,0.939-0.729,1.432-1.066
		c0.084-0.058,0.271-0.039,0.369,0.018C36.782,41.425,36.847,41.57,36.905,41.647z"/>
	<path fill-rule="evenodd" clip-rule="evenodd" fill="#FFFAFA" d="M26.198,24.846c-0.001,0.616-0.297,0.924-0.908,0.941
		c-0.658,0.021-1.022-0.358-0.981-1.018c0.037-0.585,0.38-0.889,0.984-0.87C25.899,23.917,26.198,24.23,26.198,24.846z
		 M25.201,24.472c-0.104,0.186-0.233,0.313-0.212,0.407c0.021,0.098,0.196,0.233,0.29,0.222c0.09-0.01,0.226-0.187,0.224-0.288
		C25.501,24.718,25.346,24.626,25.201,24.472z"/>
	<path fill-rule="evenodd" clip-rule="evenodd" fill="#FDE7E4" d="M28.39,24.317c-0.072,0.368-0.075,0.581-0.162,0.751
		c-0.059,0.119-0.233,0.248-0.356,0.248c-0.122,0-0.304-0.13-0.355-0.249c-0.233-0.54-0.469-1.086-0.616-1.653
		c-0.042-0.161,0.176-0.444,0.347-0.581c0.079-0.064,0.423,0.034,0.489,0.15C28.005,23.446,28.213,23.945,28.39,24.317z"/>
	<path fill-rule="evenodd" clip-rule="evenodd" fill="#FEEAE7" d="M22.153,24.254c0.139-0.298,0.342-0.793,0.605-1.254
		c0.067-0.118,0.418-0.223,0.481-0.164c0.143,0.133,0.285,0.389,0.252,0.563c-0.098,0.528-0.256,1.048-0.441,1.553
		c-0.058,0.16-0.278,0.364-0.418,0.359c-0.144-0.004-0.313-0.22-0.409-0.38C22.153,24.817,22.186,24.641,22.153,24.254z"/>
	<path fill-rule="evenodd" clip-rule="evenodd" fill="#FDE2E0" d="M23.106,25.802c0.69,0.58,1.244,1.037,1.77,1.524
		c0.014,0.012-0.243,0.466-0.422,0.508c-0.506,0.119-1.581-0.713-1.665-1.271C22.764,26.388,22.939,26.184,23.106,25.802z"/>
	<path fill-rule="evenodd" clip-rule="evenodd" fill="#FDE5E2" d="M26.196,27.996c-0.254-0.218-0.463-0.316-0.524-0.473
		c-0.053-0.133,0.009-0.396,0.117-0.489c0.376-0.324,0.774-0.635,1.206-0.874c0.162-0.091,0.473-0.032,0.652,0.069
		c0.086,0.049,0.109,0.444,0.019,0.531C27.21,27.194,26.706,27.576,26.196,27.996z"/>
	<path fill-rule="evenodd" clip-rule="evenodd" fill="#FFFDFD" d="M24.015,22.699c0.114-0.89,0.566-0.958,1.041-0.905
		c0.435,0.049,0.865,0.163,1.283,0.292c0.066,0.021,0.119,0.294,0.074,0.408c-0.041,0.1-0.228,0.193-0.353,0.196
		C25.409,22.709,24.756,22.699,24.015,22.699z"/>
	<path fill-rule="evenodd" clip-rule="evenodd" fill="#1B184E" d="M16.453,9.538c-0.133,0.122-0.224,0.271-0.314,0.271
		c-0.114,0-0.228-0.122-0.342-0.19c0.103-0.125,0.206-0.249,0.31-0.374C16.204,9.329,16.302,9.411,16.453,9.538z"/>
	<path fill-rule="evenodd" clip-rule="evenodd" fill="#1B184E" d="M34.8,40.218c-0.164,0.096-0.283,0.222-0.379,0.205
		c-0.107-0.018-0.191-0.165-0.285-0.256c0.121-0.102,0.232-0.229,0.371-0.287C34.544,39.864,34.671,40.064,34.8,40.218z"/>
	<path fill-rule="evenodd" clip-rule="evenodd" fill="#EC5554" d="M25.201,24.472c0.145,0.154,0.3,0.246,0.302,0.341
		c0.002,0.101-0.134,0.278-0.224,0.288c-0.094,0.011-0.269-0.125-0.29-0.222C24.968,24.785,25.097,24.657,25.201,24.472z"/>
</g>
</svg>
