<?xml version="1.0" encoding="utf-8"?>
<!-- Generator: Adobe Illustrator 16.0.0, SVG Export Plug-In . SVG Version: 6.00 Build 0)  -->
<!DOCTYPE svg PUBLIC "-//W3C//DTD SVG 1.1//EN" "http://www.w3.org/Graphics/SVG/1.1/DTD/svg11.dtd">
<svg version="1.1" id="Layer_1" xmlns="http://www.w3.org/2000/svg" xmlns:xlink="http://www.w3.org/1999/xlink" x="0px" y="0px"
	 width="50px" height="50px" viewBox="0 0 50 50" enable-background="new 0 0 50 50" xml:space="preserve">
<g>
	<path fill-rule="evenodd" clip-rule="evenodd" fill="#206936" d="M38.518,32.445c-1.031-0.286-2.104-0.235-3.189-0.027
		c-0.246,0.048-0.533-0.084-0.795-0.158c-0.654-0.184-1.14-0.577-1.305-1.251c-0.161-0.662,0.159-1.182,0.704-1.493
		c0.493-0.281,0.705-0.6,0.663-1.182c-0.032-0.434-0.252-0.643-0.563-0.854c-1.159-0.786-1.139-2.2,0.035-3.069
		c0.736-0.546,0.741-0.925,0.028-1.435c-0.536-0.383-0.892-0.864-0.787-1.459c0.12-0.693,0.628-1.094,1.347-1.372
		c1.569-0.605,3.072-0.557,4.61,0.041c1.491,0.579,1.703,1.713,0.489,2.76c-0.693,0.598-0.692,0.827,0.003,1.47
		c1.255,1.161,1.245,1.993-0.037,3.133c-0.652,0.579-0.665,1.251-0.032,1.763c0.866,0.702,1.133,1.28,0.89,1.933
		C40.363,31.82,39.349,32.425,38.518,32.445z M36.227,22.686c0,0.452,0.006,0.904-0.001,1.355c-0.006,0.401,0.212,0.568,0.583,0.576
		c0.377,0.007,0.768-0.014,0.778-0.519c0.02-0.903,0.021-1.808-0.003-2.71c-0.012-0.425-0.28-0.647-0.716-0.626
		c-0.442,0.021-0.638,0.281-0.642,0.705C36.223,21.873,36.226,22.279,36.227,22.686z M37.594,29.134c0-0.41-0.01-0.82,0.003-1.23
		c0.016-0.499-0.306-0.621-0.702-0.623c-0.406-0.001-0.689,0.146-0.676,0.641c0.022,0.774,0.022,1.551-0.001,2.325
		c-0.014,0.461,0.18,0.68,0.627,0.689c0.479,0.011,0.79-0.15,0.755-0.708C37.576,29.864,37.595,29.499,37.594,29.134z M37.669,25.74
		c-0.231-0.107-0.465-0.271-0.72-0.32c-0.313-0.06-0.659-0.031-0.748,0.385c-0.073,0.342,0.253,0.68,0.655,0.699
		C37.281,26.523,37.532,26.319,37.669,25.74z"/>
	<path fill-rule="evenodd" clip-rule="evenodd" fill="#1F6936" d="M36.964,46.795c-0.592,0-1.188,0.036-1.775-0.013
		c-0.394-0.033-0.818-0.113-1.158-0.299c-1.048-0.574-1.132-1.671-0.214-2.446c0.362-0.307,0.81-0.44,0.8-1.117
		c-0.008-0.651-0.441-0.822-0.78-1.143c-0.95-0.9-0.908-1.834,0.128-2.791c0.839-0.774,0.841-0.884,0.026-1.657
		c-1.062-1.009-0.891-2.036,0.463-2.631c1.653-0.728,3.322-0.746,4.974,0.013c1.262,0.58,1.443,1.61,0.473,2.56
		c-0.064,0.063-0.149,0.104-0.215,0.167c-0.618,0.591-0.595,0.844,0.01,1.427c0.346,0.333,0.753,0.7,0.89,1.13
		c0.24,0.749-0.069,1.388-0.704,1.908c-0.906,0.744-0.883,1.308-0.008,1.997c0.69,0.545,0.962,1.116,0.709,1.745
		c-0.273,0.679-0.832,1.061-1.569,1.126c-0.361,0.031-0.728,0.003-1.092,0.003c-0.318-0.001-0.638,0-0.956,0
		C36.964,46.78,36.964,46.787,36.964,46.795z M37.593,37.171c0-0.409-0.002-0.818,0-1.227c0.003-0.445-0.221-0.672-0.66-0.684
		c-0.431-0.012-0.7,0.171-0.703,0.63c-0.005,0.863-0.012,1.727,0.003,2.59c0.008,0.448,0.282,0.64,0.716,0.621
		c0.447-0.021,0.645-0.272,0.645-0.704C37.593,37.988,37.593,37.58,37.593,37.171z M37.592,43.508c0-0.407-0.005-0.813,0.001-1.22
		c0.008-0.495-0.396-0.621-0.722-0.635c-0.37-0.017-0.661,0.218-0.651,0.684c0.017,0.813,0.001,1.626,0.01,2.439
		c0.005,0.453,0.274,0.639,0.701,0.628c0.435-0.012,0.662-0.235,0.662-0.677C37.593,44.32,37.593,43.914,37.592,43.508z
		 M37.998,40.354c-0.544-0.249-0.771-0.423-1.014-0.447c-0.323-0.032-0.777-0.11-0.789,0.429c-0.01,0.432,0.33,0.664,0.692,0.626
		C37.174,40.932,37.436,40.675,37.998,40.354z"/>
	<path fill-rule="evenodd" clip-rule="evenodd" fill="#226A36" d="M25.741,32.228c-0.481,0.038-0.873-0.012-1.199,0.112
		c-0.627,0.238-1.194,0.013-1.706-0.214c-1.099-0.488-1.496-1.712-0.353-2.578c0.391-0.296,0.665-0.521,0.66-1.063
		c-0.004-0.513-0.201-0.775-0.594-1.094c-1.107-0.897-1.071-1.907,0.003-2.865c0.781-0.696,0.784-0.908,0.023-1.675
		c-0.943-0.951-0.776-2.081,0.45-2.619c1.695-0.745,3.431-0.739,5.113,0.034c1.151,0.529,1.308,1.646,0.435,2.544
		c-0.826,0.85-0.822,0.958,0.054,1.75c1.029,0.932,1.053,2.002-0.115,2.859c-0.526,0.388-0.554,0.777-0.507,1.259
		c0.022,0.223,0.186,0.479,0.361,0.632c0.997,0.868,1.154,1.19,0.842,1.901c-0.351,0.799-1.375,1.324-2.377,1.201
		C26.429,32.364,26.031,32.277,25.741,32.228z M24.767,22.621c-0.001,0-0.003,0-0.005,0c0,0.454-0.032,0.912,0.009,1.362
		c0.038,0.405,0.291,0.631,0.727,0.657c0.439,0.026,0.768-0.187,0.792-0.573c0.057-0.905,0.052-1.818-0.005-2.724
		c-0.023-0.385-0.333-0.618-0.774-0.599c-0.434,0.019-0.688,0.25-0.734,0.651C24.731,21.799,24.767,22.212,24.767,22.621z
		 M24.763,29.019c-0.001,0-0.001,0-0.002,0c0,0.408-0.025,0.818,0.006,1.224c0.037,0.483,0.334,0.712,0.819,0.705
		c0.441-0.005,0.695-0.266,0.716-0.661c0.039-0.769,0.034-1.542,0.004-2.312c-0.016-0.393-0.23-0.678-0.675-0.704
		c-0.48-0.028-0.8,0.18-0.859,0.661C24.727,28.289,24.763,28.656,24.763,29.019z M25.537,26.746c0.345-0.348,0.735-0.56,0.758-0.806
		c0.04-0.411-0.344-0.543-0.751-0.538c-0.399,0.005-0.795,0.116-0.757,0.534C24.809,26.183,25.196,26.396,25.537,26.746z"/>
	<path fill-rule="evenodd" clip-rule="evenodd" fill="#216936" d="M14.088,19.563c0.866,0.227,1.723,0.362,2.509,0.676
		c1.222,0.488,1.396,1.669,0.46,2.606c-0.762,0.762-0.76,0.978,0.015,1.659c1.093,0.961,1.126,1.926,0.053,2.871
		c-0.341,0.299-0.652,0.517-0.642,1.063c0.01,0.525,0.22,0.791,0.629,1.055c0.518,0.334,0.892,0.82,0.745,1.488
		c-0.151,0.684-0.658,1.101-1.302,1.257c-0.464,0.112-0.968,0.067-1.454,0.08c-0.723,0.021-1.447,0.062-2.168,0.033
		c-0.527-0.021-1.097-0.029-1.564-0.232c-1.185-0.516-1.339-1.796-0.301-2.578c0.463-0.349,0.711-0.696,0.587-1.235
		c-0.063-0.272-0.214-0.57-0.417-0.757c-1.275-1.168-1.279-1.917,0.028-3.118c0.562-0.517,0.562-0.88-0.001-1.446
		c-1.25-1.256-0.982-2.311,0.743-2.856C12.689,19.912,13.39,19.75,14.088,19.563z M13.292,22.756c0.002,0,0.004,0,0.007,0
		c0,0.409-0.033,0.821,0.009,1.226c0.041,0.396,0.258,0.656,0.714,0.657c0.491,0.001,0.801-0.216,0.819-0.704
		c0.029-0.817,0.027-1.637,0.001-2.454c-0.015-0.477-0.294-0.739-0.792-0.734c-0.518,0.005-0.724,0.325-0.752,0.781
		C13.271,21.937,13.292,22.347,13.292,22.756z M14.849,29.179c0-0.407,0.038-0.819-0.01-1.221c-0.051-0.434-0.292-0.752-0.787-0.729
		c-0.409,0.02-0.72,0.252-0.741,0.655c-0.042,0.813-0.042,1.63,0,2.442c0.021,0.401,0.329,0.638,0.736,0.66
		c0.494,0.027,0.735-0.288,0.792-0.723C14.886,29.908,14.848,29.541,14.849,29.179z M14.904,26.094
		c-0.159-0.588-0.458-0.693-0.855-0.692c-0.405,0.001-0.77,0.126-0.751,0.554c0.018,0.403,0.394,0.614,0.781,0.537
		C14.379,26.432,14.65,26.222,14.904,26.094z"/>
	<path fill-rule="evenodd" clip-rule="evenodd" fill="#216A36" d="M25.616,46.79c-0.637,0-1.28,0.056-1.909-0.02
		c-0.427-0.051-0.897-0.199-1.235-0.453c-0.875-0.66-0.896-1.6-0.033-2.275c0.414-0.325,0.741-0.547,0.708-1.159
		c-0.028-0.529-0.278-0.771-0.648-1.081c-1.035-0.866-1.006-1.845,0-2.776c0.862-0.797,0.865-0.945,0.042-1.725
		c-0.906-0.856-0.762-2,0.385-2.538c1.726-0.809,3.497-0.811,5.226-0.01c1.202,0.558,1.313,1.7,0.315,2.619
		c-0.687,0.632-0.683,0.916,0.026,1.553c1.194,1.072,1.178,1.977-0.056,3.047c-0.631,0.547-0.629,1.337,0.001,1.859
		c0.527,0.438,1.11,0.857,0.851,1.686c-0.244,0.775-0.928,1.236-1.899,1.272c-0.591,0.022-1.183,0.004-1.774,0.004
		C25.616,46.792,25.616,46.791,25.616,46.79z M24.758,37.064c0.001,0,0.002,0,0.003,0c0,0.455-0.028,0.913,0.008,1.365
		c0.038,0.481,0.323,0.707,0.826,0.69c0.457-0.016,0.687-0.274,0.706-0.668c0.038-0.818,0.033-1.64,0.011-2.459
		c-0.013-0.461-0.23-0.752-0.762-0.752c-0.516,0-0.754,0.256-0.787,0.73C24.739,36.334,24.758,36.7,24.758,37.064z M24.757,43.484
		c0,0,0.001,0,0.002,0c0,0.408-0.021,0.817,0.005,1.224c0.032,0.476,0.282,0.719,0.794,0.717c0.451-0.002,0.716-0.23,0.737-0.624
		c0.045-0.813,0.074-1.637-0.019-2.441c-0.031-0.271-0.424-0.661-0.698-0.705c-0.427-0.068-0.746,0.301-0.811,0.744
		C24.715,42.753,24.757,43.122,24.757,43.484z M26.41,40.501c-0.005-0.098-0.01-0.195-0.015-0.293
		c-0.309-0.106-0.624-0.311-0.923-0.29c-0.251,0.018-0.57,0.248-0.701,0.475s0.399,0.663,0.756,0.573
		C25.841,40.887,26.117,40.662,26.41,40.501z"/>
	<path fill-rule="evenodd" clip-rule="evenodd" fill="#ED5958" d="M25.562,4.766c0.886,0.253,1.79,0.407,2.601,0.768
		c1.16,0.516,1.261,1.576,0.343,2.529c-0.751,0.78-0.745,0.954,0.06,1.677c1.104,0.991,1.067,1.938-0.113,2.971
		c-0.664,0.58-0.676,1.319-0.029,1.863c0.868,0.732,1.055,1.162,0.786,1.81c-0.317,0.768-1.29,1.282-2.209,1.239
		c-0.944-0.045-1.893-0.003-2.837-0.046c-0.439-0.021-0.891-0.103-1.308-0.243c-1.027-0.345-1.457-1.773-0.381-2.587
		c0.924-0.7,0.913-1.367,0.074-2.121c-1.068-0.96-1.067-1.916,0.005-2.888c0.787-0.714,0.791-0.896,0.028-1.684
		c-0.913-0.945-0.8-2.017,0.365-2.526C23.762,5.171,24.665,5.019,25.562,4.766z M24.742,7.757c0,0.452-0.012,0.904,0.003,1.355
		c0.017,0.494,0.304,0.727,0.784,0.735c0.482,0.008,0.79-0.225,0.807-0.71c0.026-0.813,0.024-1.627,0.001-2.44
		c-0.014-0.476-0.288-0.728-0.784-0.732c-0.49-0.004-0.771,0.223-0.805,0.707C24.723,7.032,24.743,7.396,24.742,7.757z
		 M26.347,14.243c0-0.365,0.105-0.776-0.029-1.082c-0.144-0.326-0.513-0.552-0.785-0.822c-0.264,0.276-0.712,0.526-0.757,0.834
		c-0.11,0.76-0.111,1.557,0.001,2.316c0.045,0.303,0.505,0.545,0.775,0.815c0.264-0.276,0.642-0.511,0.763-0.84
		C26.448,15.102,26.346,14.654,26.347,14.243z M25.565,10.623c-0.395-0.019-0.783,0.075-0.801,0.52s0.363,0.564,0.756,0.577
		c0.4,0.013,0.775-0.112,0.799-0.538C26.345,10.726,25.962,10.617,25.565,10.623z"/>
	<path fill-rule="evenodd" clip-rule="evenodd" fill="#216A36" d="M14.051,46.793c-0.592,0-1.183,0.001-1.774,0
		c-0.858-0.002-1.506-0.375-1.8-1.184c-0.294-0.81,0.125-1.356,0.783-1.816c0.558-0.39,0.583-1.242,0.105-1.732
		c-0.125-0.128-0.305-0.202-0.432-0.33c-0.865-0.875-0.824-1.866,0.101-2.712c0.889-0.812,0.89-0.89,0.031-1.725
		c-0.87-0.846-0.793-1.916,0.278-2.465c1.847-0.947,3.75-0.884,5.584,0.043c0.9,0.454,0.984,1.574,0.265,2.306
		c-0.125,0.127-0.305,0.197-0.432,0.322c-0.368,0.362-0.359,0.922,0.018,1.284c0.129,0.124,0.302,0.201,0.432,0.325
		c0.917,0.877,0.935,1.878-0.02,2.688c-0.386,0.328-0.75,0.523-0.716,1.158c0.029,0.548,0.316,0.757,0.671,1.027
		c0.485,0.371,0.904,0.836,0.688,1.505c-0.243,0.751-0.804,1.218-1.599,1.277c-0.724,0.053-1.455,0.011-2.184,0.011
		C14.051,46.781,14.051,46.787,14.051,46.793z M14.846,37.307c0-0.455,0.022-0.911-0.006-1.364c-0.03-0.489-0.314-0.702-0.814-0.7
		c-0.462,0.002-0.696,0.255-0.712,0.649c-0.036,0.862-0.038,1.729,0.004,2.591c0.019,0.395,0.274,0.639,0.729,0.637
		c0.506-0.001,0.764-0.241,0.795-0.722C14.866,38.035,14.847,37.67,14.846,37.307z M14.851,43.488c0-0.317,0.017-0.637-0.004-0.953
		c-0.033-0.502-0.424-0.968-0.794-0.908c-0.45,0.073-0.729,0.396-0.75,0.841c-0.036,0.726-0.026,1.454-0.003,2.18
		c0.014,0.452,0.2,0.777,0.738,0.771c0.551-0.006,0.76-0.191,0.81-0.841C14.874,44.217,14.851,43.853,14.851,43.488z M14.125,39.699
		c-0.343,0.261-0.604,0.458-0.864,0.655c0.251,0.212,0.473,0.528,0.761,0.611c0.422,0.12,0.956-0.326,0.823-0.627
		C14.742,40.106,14.437,39.964,14.125,39.699z"/>
	<path fill-rule="evenodd" clip-rule="evenodd" fill="#FBFDFA" d="M36.227,22.686c-0.001-0.407-0.004-0.813,0-1.22
		c0.004-0.423,0.199-0.683,0.642-0.705c0.436-0.021,0.704,0.201,0.716,0.626c0.024,0.903,0.022,1.807,0.003,2.71
		c-0.011,0.505-0.401,0.526-0.778,0.519c-0.371-0.007-0.589-0.174-0.583-0.576C36.232,23.59,36.227,23.138,36.227,22.686z"/>
	<path fill-rule="evenodd" clip-rule="evenodd" fill="#F8FBF8" d="M37.595,29.134c0,0.365-0.019,0.73,0.005,1.094
		c0.035,0.558-0.276,0.719-0.755,0.708c-0.447-0.01-0.641-0.229-0.627-0.689c0.023-0.774,0.023-1.551,0.001-2.325
		c-0.014-0.495,0.27-0.642,0.676-0.641c0.396,0.002,0.718,0.124,0.702,0.623C37.584,28.313,37.594,28.724,37.595,29.134z"/>
	<path fill-rule="evenodd" clip-rule="evenodd" fill="#F0F7EF" d="M37.669,25.74c-0.137,0.579-0.388,0.783-0.813,0.764
		c-0.402-0.019-0.729-0.356-0.655-0.699c0.089-0.416,0.435-0.445,0.748-0.385C37.204,25.47,37.438,25.633,37.669,25.74z"/>
	<path fill-rule="evenodd" clip-rule="evenodd" fill="#FCFDFB" d="M37.593,37.171c0,0.409,0,0.817,0,1.227
		c0,0.432-0.197,0.684-0.645,0.704c-0.434,0.019-0.708-0.173-0.716-0.621c-0.015-0.863-0.008-1.727-0.003-2.59
		c0.003-0.459,0.272-0.642,0.703-0.63c0.439,0.012,0.663,0.238,0.66,0.684C37.591,36.353,37.593,36.762,37.593,37.171z"/>
	<path fill-rule="evenodd" clip-rule="evenodd" fill="#F9FCF9" d="M37.593,43.508c0,0.406,0,0.813,0,1.22
		c0,0.441-0.228,0.665-0.662,0.677c-0.427,0.011-0.696-0.175-0.701-0.628c-0.009-0.813,0.007-1.627-0.01-2.439
		c-0.01-0.466,0.281-0.7,0.651-0.684c0.325,0.014,0.729,0.14,0.722,0.635C37.587,42.694,37.592,43.101,37.593,43.508z"/>
	<path fill-rule="evenodd" clip-rule="evenodd" fill="#EDF6EC" d="M37.998,40.354c-0.563,0.321-0.824,0.578-1.11,0.607
		c-0.362,0.038-0.702-0.194-0.692-0.626c0.012-0.539,0.466-0.461,0.789-0.429C37.228,39.931,37.454,40.104,37.998,40.354z"/>
	<path fill-rule="evenodd" clip-rule="evenodd" fill="#E2F0E1" d="M24.767,22.621c0-0.409-0.036-0.822,0.01-1.226
		c0.045-0.4,0.3-0.632,0.734-0.651c0.441-0.019,0.75,0.214,0.774,0.599c0.057,0.905,0.062,1.819,0.005,2.724
		c-0.024,0.386-0.353,0.599-0.792,0.573c-0.436-0.025-0.689-0.251-0.727-0.657c-0.042-0.451-0.009-0.908-0.009-1.362
		C24.764,22.621,24.766,22.621,24.767,22.621z"/>
	<path fill-rule="evenodd" clip-rule="evenodd" fill="#E3F0E2" d="M24.763,29.019c0-0.362-0.036-0.729,0.008-1.087
		c0.059-0.481,0.379-0.689,0.859-0.661c0.445,0.026,0.66,0.312,0.675,0.704c0.03,0.77,0.035,1.543-0.004,2.312
		c-0.021,0.396-0.274,0.656-0.716,0.661c-0.485,0.007-0.782-0.222-0.819-0.705c-0.032-0.405-0.006-0.815-0.006-1.224
		C24.761,29.019,24.762,29.019,24.763,29.019z"/>
	<path fill-rule="evenodd" clip-rule="evenodd" fill="#F0F8EF" d="M25.537,26.746c-0.341-0.35-0.728-0.563-0.75-0.811
		c-0.038-0.417,0.358-0.529,0.757-0.534c0.407-0.005,0.792,0.127,0.751,0.538C26.271,26.187,25.881,26.398,25.537,26.746z"/>
	<path fill-rule="evenodd" clip-rule="evenodd" fill="#E2EEE0" d="M13.292,22.756c0-0.409-0.02-0.819,0.005-1.227
		c0.028-0.456,0.234-0.776,0.752-0.781c0.498-0.005,0.777,0.257,0.792,0.734c0.026,0.817,0.028,1.637-0.001,2.454
		c-0.018,0.487-0.328,0.705-0.819,0.704c-0.456-0.001-0.673-0.261-0.714-0.657c-0.042-0.405-0.009-0.817-0.009-1.226
		C13.296,22.756,13.294,22.756,13.292,22.756z"/>
	<path fill-rule="evenodd" clip-rule="evenodd" fill="#E3EFE1" d="M14.848,29.179c0,0.362,0.038,0.729-0.01,1.085
		c-0.058,0.435-0.299,0.75-0.792,0.723c-0.407-0.022-0.715-0.259-0.736-0.66c-0.042-0.813-0.042-1.63,0-2.442
		c0.021-0.403,0.332-0.636,0.741-0.655c0.495-0.022,0.735,0.296,0.787,0.729C14.886,28.359,14.849,28.771,14.848,29.179z"/>
	<path fill-rule="evenodd" clip-rule="evenodd" fill="#EFF7EE" d="M14.904,26.094c-0.254,0.128-0.525,0.338-0.826,0.398
		c-0.387,0.077-0.763-0.134-0.781-0.537c-0.019-0.427,0.346-0.553,0.751-0.554C14.446,25.4,14.745,25.506,14.904,26.094z"/>
	<path fill-rule="evenodd" clip-rule="evenodd" fill="#E2EFE0" d="M24.758,37.064c0-0.364-0.02-0.73,0.005-1.093
		c0.032-0.475,0.271-0.73,0.787-0.73c0.531,0,0.749,0.291,0.762,0.752c0.022,0.819,0.027,1.641-0.011,2.459
		c-0.019,0.394-0.249,0.652-0.706,0.668c-0.503,0.017-0.788-0.209-0.826-0.69c-0.036-0.452-0.008-0.91-0.008-1.365
		C24.76,37.064,24.759,37.064,24.758,37.064z"/>
	<path fill-rule="evenodd" clip-rule="evenodd" fill="#E1EFE0" d="M24.757,43.484c0-0.362-0.042-0.731,0.011-1.086
		c0.065-0.443,0.384-0.813,0.811-0.744c0.274,0.044,0.667,0.435,0.698,0.705c0.093,0.805,0.063,1.629,0.019,2.441
		c-0.021,0.394-0.286,0.622-0.737,0.624c-0.512,0.002-0.762-0.241-0.794-0.717c-0.027-0.406-0.005-0.815-0.005-1.224
		C24.758,43.484,24.758,43.484,24.757,43.484z"/>
	<path fill-rule="evenodd" clip-rule="evenodd" fill="#ECF5EB" d="M26.41,40.501c-0.293,0.161-0.569,0.386-0.882,0.465
		c-0.356,0.09-0.886-0.347-0.756-0.573s0.45-0.457,0.701-0.475c0.299-0.021,0.614,0.184,0.923,0.29
		C26.4,40.306,26.405,40.403,26.41,40.501z"/>
	<path fill-rule="evenodd" clip-rule="evenodd" fill="#FEEDEB" d="M24.743,7.757c0-0.361-0.02-0.725,0.005-1.084
		c0.034-0.484,0.315-0.711,0.805-0.707c0.496,0.004,0.77,0.256,0.784,0.732c0.023,0.813,0.025,1.627-0.001,2.44
		c-0.017,0.485-0.324,0.719-0.807,0.71c-0.48-0.009-0.768-0.242-0.784-0.735C24.729,8.661,24.742,8.209,24.743,7.757z"/>
	<path fill-rule="evenodd" clip-rule="evenodd" fill="#FEEAE8" d="M26.346,14.243c0,0.411,0.103,0.859-0.03,1.221
		c-0.121,0.329-0.499,0.564-0.763,0.84c-0.271-0.27-0.73-0.512-0.775-0.815c-0.113-0.759-0.112-1.556-0.001-2.316
		c0.045-0.308,0.493-0.558,0.757-0.834c0.271,0.27,0.641,0.496,0.785,0.822C26.452,13.467,26.347,13.878,26.346,14.243z"/>
	<path fill-rule="evenodd" clip-rule="evenodd" fill="#FFF7F7" d="M25.565,10.623c0.397-0.006,0.78,0.104,0.754,0.559
		c-0.023,0.426-0.398,0.551-0.799,0.538c-0.393-0.013-0.774-0.133-0.756-0.577S25.17,10.604,25.565,10.623z"/>
	<path fill-rule="evenodd" clip-rule="evenodd" fill="#E4EFE2" d="M14.846,37.307c0,0.363,0.02,0.729-0.004,1.091
		c-0.032,0.48-0.29,0.721-0.795,0.722c-0.456,0.002-0.71-0.242-0.729-0.637c-0.042-0.862-0.04-1.729-0.004-2.591
		c0.017-0.395,0.25-0.647,0.712-0.649c0.5-0.002,0.784,0.211,0.814,0.7C14.868,36.396,14.846,36.852,14.846,37.307z"/>
	<path fill-rule="evenodd" clip-rule="evenodd" fill="#E3EFE0" d="M14.851,43.488c0,0.364,0.022,0.729-0.005,1.09
		c-0.049,0.649-0.258,0.835-0.81,0.841c-0.538,0.006-0.724-0.319-0.738-0.771c-0.022-0.726-0.032-1.454,0.003-2.18
		c0.022-0.445,0.3-0.768,0.75-0.841c0.37-0.06,0.762,0.406,0.794,0.908C14.868,42.852,14.851,43.171,14.851,43.488z"/>
	<path fill-rule="evenodd" clip-rule="evenodd" fill="#E6F0E3" d="M14.125,39.699c0.312,0.265,0.617,0.407,0.72,0.64
		c0.133,0.301-0.4,0.747-0.823,0.627c-0.288-0.083-0.51-0.399-0.761-0.611C13.521,40.157,13.782,39.96,14.125,39.699z"/>
</g>
</svg>
