<?xml version="1.0" encoding="utf-8"?>
<!-- Generator: Adobe Illustrator 16.0.0, SVG Export Plug-In . SVG Version: 6.00 Build 0)  -->
<!DOCTYPE svg PUBLIC "-//W3C//DTD SVG 1.1//EN" "http://www.w3.org/Graphics/SVG/1.1/DTD/svg11.dtd">
<svg version="1.1" id="Layer_1" xmlns="http://www.w3.org/2000/svg" xmlns:xlink="http://www.w3.org/1999/xlink" x="0px" y="0px"
	 width="50px" height="50px" viewBox="0 0 50 50" enable-background="new 0 0 50 50" xml:space="preserve">
<g>
	<path fill-rule="evenodd" clip-rule="evenodd" fill="#3852A3" d="M28.001,15.376c0.9-0.118,1.362-0.429,1.691-1.06
		c0.393-0.752,0.919-1.543,1.872-1.491c0.94,0.052,1.045,1.063,1.465,1.696c0.083,0.126,0.099,0.296,0.152,0.444
		c0.571,1.558,0.333,2.11-1.267,2.49c-1.423,0.338-2.879,0.539-4.512,0.835c-0.244,1.31-0.506,2.72-0.835,4.488
		c2.52-1.31,4.742-2.427,6.923-3.622c0.594-0.325,1.108-0.406,1.575,0.034c0.362,0.341,0.726,0.757,0.351,1.376
		c-0.239,0.395-0.373,0.866-0.488,1.319c-0.134,0.532-0.196,1.082-0.302,1.698c1.025,0,1.86,0.053,2.687-0.015
		c0.782-0.064,1.332,0.204,1.71,0.863c1.099,1.91,2.021,3.9,2.622,6.024c0.262,0.926,0.216,1.863-0.218,2.733
		c-1.023,2.058-1.948,4.178-3.144,6.13c-1.59,2.595-3.386,5.063-5.118,7.567c-0.819,1.185-1.428,1.349-2.811,0.851
		c-0.389-0.141-0.783-0.304-1.124-0.533c-1.742-1.174-3.469-2.373-5.201-3.563c-0.172-0.118-0.42-0.197-0.5-0.359
		c-0.123-0.251-0.132-0.558-0.189-0.84c0.24-0.021,0.481-0.06,0.721-0.058c0.127,0.001,0.253,0.071,0.448,0.131
		c0-1.263,0-2.452,0-3.729c-0.859,0.195-1.613,0.372-2.37,0.537c-0.753,0.165-1.229-0.053-1.392-0.624
		c-0.168-0.587,0.063-1.001,0.834-1.292c0.583-0.221,1.196-0.371,1.806-0.509c1.146-0.256,1.156-0.243,1.119-1.441
		c-0.011-0.36-0.073-0.719-0.11-1.072c-0.666-0.213-1.18,0.037-1.707,0.266c-0.527,0.229-1.054,0.477-1.604,0.627
		c-0.983,0.268-1.58-0.333-1.289-1.312c0.181-0.608,0.499-1.147,1.21-1.341c0.545-0.147,1.066-0.386,1.646-0.602
		c-0.356-1.067-0.685-2.054-1.013-3.039c-0.209-0.628-0.609-0.793-1.224-0.546c-1.21,0.484-2.441,0.921-3.641,1.432
		c-0.954,0.405-0.93,0.438-0.579,1.38c1.239,3.323,2.472,6.648,3.703,9.976c0.126,0.342,0.234,0.693,0.324,1.046
		c0.235,0.924-0.189,1.59-1.104,1.64c-1.404,0.075-2.512-0.34-3.236-1.714c-1.908-3.619-3.4-7.405-4.68-11.278
		c-0.522-1.58-0.911-3.208-1.277-4.833c-0.132-0.583-0.292-1.325,0.38-1.735c0.67-0.409,1.365-0.101,1.93,0.268
		c0.928,0.604,1.777,1.319,2.177,2.425c0.122,0.337,0.318,0.646,0.528,1.062c1.731-0.6,3.435-1.189,5.249-1.817
		c-0.838-1.255-1.818-2.199-2.906-3.02c-0.752-0.567-1.583-1.027-2.377-1.54c-0.306-0.198-0.645-0.369-0.893-0.626
		c-0.155-0.161-0.271-0.492-0.211-0.686c0.05-0.163,0.384-0.338,0.588-0.333c0.462,0.012,0.942,0.069,1.377,0.218
		c2.511,0.859,4.576,2.319,6.03,4.578c0.195,0.303,0.409,0.594,0.606,0.879c0.57-0.131,1.073-0.247,1.674-0.386
		c0.527-2.186,0.782-4.446,0.785-6.871c-1.188,0-2.288,0.048-3.38-0.018c-0.668-0.04-1.332-0.232-1.983-0.409
		c-0.159-0.043-0.389-0.328-0.36-0.447c0.053-0.22,0.239-0.517,0.431-0.574c0.649-0.192,1.321-0.328,1.993-0.421
		c1.136-0.158,2.28-0.266,3.584-0.413c0-2.04,0.059-4.033-0.042-6.017c-0.024-0.485-0.539-0.974-0.891-1.41
		c-0.725-0.897-0.738-0.905-0.026-1.856c1.14-1.525,2.425-2.896,4.022-4.008c0.924,0.748,1.306,1.726,1.683,2.684
		c0.534,1.358,1.032,2.733,1.479,4.123c0.35,1.086,0.17,1.368-0.897,1.761c-0.343,0.126-0.721,0.183-1.033,0.359
		c-0.299,0.168-0.641,0.399-0.777,0.69C28.272,13.386,27.997,14.275,28.001,15.376z M26.683,43.699
		c0.807,0.256,1.423,0.396,1.99,0.646c0.842,0.37,1.415,0.084,1.894-0.604c0.181-0.259,0.423-0.481,0.569-0.757
		c1.819-3.415,3.478-6.9,4.555-10.633c0.459-1.593-0.423-4.456-1.664-5.432c-0.162-0.128-0.36-0.212-0.541-0.316
		c-0.469-0.271-0.895-0.254-1.275,0.169c-0.911,1.009-1.787,2.042-2.377,3.369c1.122,0.138,2.155,0.28,2.909,1.148
		c0.396,0.455,0.518,1,0.263,1.452c-0.144,0.254-0.696,0.346-1.077,0.383c-0.574,0.055-1.163-0.046-1.74-0.003
		c-1.024,0.077-2.046,0.212-3.017,0.317c0,0.919,0,1.644,0,2.381c1.339-0.277,1.339-0.277,2.551-1.145
		c0.633-0.452,1.063-0.432,1.483,0.138c0.518,0.702,0.415,1.528,0.203,2.268c-0.175,0.609-0.805,0.719-1.425,0.777
		c-0.97,0.092-1.93,0.289-2.846,0.435c-0.081,0.988-0.147,1.826-0.218,2.665C26.845,41.843,26.767,42.728,26.683,43.699z
		 M23.281,27.758c0.353,1.122,0.627,2.069,0.955,2.997c0.094,0.267,0.405,0.707,0.505,0.679c0.529-0.15,1.203-0.291,1.493-0.683
		c0.892-1.204,1.631-2.521,2.588-4.048C26.821,26.998,25.051,27.183,23.281,27.758z M26.021,24.751
		c0.354,0.042,0.563,0.113,0.753,0.081c1.021-0.174,2.032-0.474,3.06-0.536c1.036-0.063,1.456-0.599,1.676-1.493
		c-1.012-0.156-3.416,0.398-4.901,1.165C26.382,24.085,26.266,24.416,26.021,24.751z"/>
</g>
</svg>
