<?xml version="1.0" encoding="utf-8"?>
<!-- Generator: Adobe Illustrator 16.0.0, SVG Export Plug-In . SVG Version: 6.00 Build 0)  -->
<!DOCTYPE svg PUBLIC "-//W3C//DTD SVG 1.1//EN" "http://www.w3.org/Graphics/SVG/1.1/DTD/svg11.dtd">
<svg version="1.1" id="Layer_1" xmlns="http://www.w3.org/2000/svg" xmlns:xlink="http://www.w3.org/1999/xlink" x="0px" y="0px"
	 width="110px" height="90px" viewBox="0 0 110 90" enable-background="new 0 0 110 90" xml:space="preserve">
<g>
	<path fill="#A54240" d="M75.494,88.509c-2.162-0.425-4.114-0.678-5.992-1.204c-4.092-1.146-8.148-2.414-12.211-3.668
		c-1.615-0.5-3.204-1.084-4.795-1.652c-7.787-2.779-14.725-7.023-20.891-12.479c-4.908-4.343-7.677-9.926-8.778-16.371
		c-0.476-2.782-0.668-5.544-0.061-8.332c0.431-1.979,0.678-4.001,1.192-5.956c0.511-1.94,1.252-3.82,1.917-5.795
		c-7.743,0-15.545,0-23.348,0c-0.053-0.127-0.106-0.254-0.159-0.38c18.205-10.167,36.411-20.33,54.815-30.605
		c7.676,10.187,15.354,20.372,23.356,30.991c-1.478,0-2.412-0.001-3.345,0c-5.764,0.007-11.528,0.047-17.293-0.003
		c-1.158-0.01-1.967,0.289-2.529,1.301c-0.95,1.705-2.175,3.303-2.846,5.108c-1.14,3.067-0.081,5.743,2.284,7.87
		c4.256,3.833,9.313,6.118,14.744,7.836c7.166,2.267,14.413,4.079,21.859,5.13c4.564,0.643,9.107,1.424,14.084,2.208
		C96.675,71.3,86.051,79.934,75.494,88.509z M10.69,30.601c0.023,0.138,0.046,0.277,0.07,0.416c4.796,0,9.593-0.008,14.389,0.002
		c2.927,0.007,3.765,1.42,2.455,4.1c-1.945,3.977-2.792,8.255-3.042,12.605c-0.122,2.133,0.427,4.314,0.775,6.457
		c0.535,3.278,1.672,6.438,3.676,9.016c2.509,3.225,5.484,6.142,8.881,8.449c5.252,3.569,10.693,6.814,16.843,8.729
		c5.973,1.859,11.736,4.41,18,5.297c1.213,0.171,2.302,0.244,3.298-0.566c3.065-2.508,6.134-5.019,9.211-7.514
		c4.138-3.355,8.291-6.691,12.424-10.055c1.308-1.064,2.572-2.18,3.979-3.376c-0.479-0.271-0.694-0.483-0.94-0.521
		c-2.082-0.314-4.177-0.554-6.252-0.902c-3.613-0.612-7.244-1.163-10.813-1.973c-3.773-0.855-7.504-1.926-11.224-3.009
		c-5.801-1.688-11.317-3.946-16.157-7.728c-3.817-2.977-4.807-6.814-3.937-11.272c0.52-2.661,2.329-4.588,3.866-6.656
		c0.703-0.944,1.791-1.116,2.953-1.105c4.051,0.038,8.102,0.014,12.151,0.013c1.468,0,2.937,0,4.804,0
		C69.4,22.147,62.958,13.626,56.484,5.06C41.106,13.637,25.898,22.118,10.69,30.601z"/>
	<path fill="#FF3131" d="M10.69,30.601C25.898,22.118,41.106,13.637,56.482,5.06c6.475,8.566,12.916,17.087,19.613,25.949
		c-1.867,0-3.336,0-4.803,0c-4.052,0.001-8.104,0.025-12.152-0.013c-1.16-0.011-2.25,0.161-2.951,1.105
		c-1.54,2.068-3.349,3.995-3.869,6.656c-0.87,4.458,0.12,8.296,3.936,11.274c4.841,3.777,10.356,6.037,16.158,7.726
		c3.719,1.083,7.448,2.151,11.226,3.007c3.567,0.812,7.198,1.36,10.813,1.973c2.076,0.353,4.17,0.59,6.252,0.902
		c0.246,0.039,0.464,0.25,0.941,0.521c-1.406,1.195-2.672,2.313-3.979,3.376c-4.133,3.362-8.286,6.698-12.424,10.055
		c-3.077,2.495-6.144,5.007-9.211,7.513c-0.996,0.813-2.085,0.738-3.296,0.567c-6.266-0.887-12.027-3.438-18-5.297
		c-6.15-1.912-11.591-5.157-16.843-8.729c-3.397-2.308-6.372-5.225-8.881-8.449c-2.004-2.573-3.141-5.733-3.676-9.014
		c-0.349-2.143-0.897-4.326-0.775-6.457c0.25-4.352,1.097-8.628,3.042-12.605c1.311-2.679,0.473-4.093-2.455-4.1
		c-4.796-0.011-9.593-0.002-14.389-0.002C10.736,30.877,10.713,30.739,10.69,30.601z"/>
</g>
</svg>
