<?xml version="1.0" encoding="utf-8"?>
<!-- Generator: Adobe Illustrator 16.0.0, SVG Export Plug-In . SVG Version: 6.00 Build 0)  -->
<!DOCTYPE svg PUBLIC "-//W3C//DTD SVG 1.1//EN" "http://www.w3.org/Graphics/SVG/1.1/DTD/svg11.dtd">
<svg version="1.1" id="Layer_1" xmlns="http://www.w3.org/2000/svg" xmlns:xlink="http://www.w3.org/1999/xlink" x="0px" y="0px"
	 width="110px" height="90px" viewBox="0 0 110 90" enable-background="new 0 0 110 90" xml:space="preserve">
<g>
	<path fill="#A54240" d="M34.076,88.223c2.167-0.427,4.123-0.679,6.006-1.205c4.102-1.146,8.167-2.414,12.238-3.668
		c1.618-0.5,3.211-1.084,4.807-1.652c7.805-2.781,14.758-7.025,20.938-12.48c4.92-4.344,7.694-9.926,8.799-16.371
		c0.477-2.783,0.67-5.545,0.062-8.332c-0.433-1.979-0.68-4.002-1.194-5.956c-0.513-1.94-1.256-3.82-1.922-5.795
		c7.762,0,15.58,0,23.401,0c0.054-0.127,0.104-0.254,0.159-0.38c-18.247-10.166-36.495-20.33-54.94-30.605
		C44.735,11.965,37.04,22.15,29.019,32.769c1.481,0,2.417-0.001,3.351,0c5.779,0.007,11.556,0.047,17.334-0.003
		c1.161-0.01,1.971,0.289,2.535,1.301c0.952,1.705,2.18,3.303,2.853,5.108c1.143,3.066,0.081,5.742-2.288,7.869
		c-4.266,3.834-9.332,6.119-14.778,7.836c-7.182,2.269-14.446,4.08-21.908,5.132C11.541,60.652,6.986,61.436,2,62.218
		C12.847,71.014,23.496,79.646,34.076,88.223z M99.027,30.313c-0.023,0.138-0.047,0.277-0.07,0.416
		c-4.807,0-9.614-0.008-14.422,0.002c-2.934,0.007-3.773,1.42-2.46,4.1c1.948,3.977,2.799,8.256,3.049,12.604
		c0.122,2.133-0.429,4.316-0.776,6.457c-0.537,3.279-1.677,6.439-3.686,9.017c-2.516,3.225-5.496,6.141-8.9,8.448
		c-5.266,3.57-10.718,6.816-16.883,8.729c-5.985,1.858-11.761,4.41-18.04,5.297c-1.214,0.171-2.307,0.244-3.305-0.567
		c-3.073-2.506-6.146-5.019-9.231-7.512c-4.146-3.357-8.311-6.693-12.452-10.056c-1.31-1.063-2.578-2.181-3.987-3.377
		c0.479-0.271,0.696-0.481,0.943-0.521c2.087-0.314,4.185-0.552,6.266-0.902c3.622-0.611,7.261-1.162,10.839-1.973
		c3.784-0.855,7.521-1.924,11.248-3.006c5.814-1.689,11.345-3.947,16.195-7.728c3.825-2.978,4.817-6.816,3.945-11.273
		c-0.521-2.661-2.334-4.588-3.875-6.656c-0.704-0.944-1.796-1.116-2.96-1.105c-4.06,0.038-8.12,0.014-12.18,0.013
		c-1.47,0-2.942,0-4.813,0c6.714-8.862,13.17-17.383,19.659-25.949C68.542,13.349,83.784,21.831,99.027,30.313z"/>
	<path fill="#EC5957" d="M99.027,30.313C83.784,21.831,68.542,13.349,53.131,4.772c-6.489,8.566-12.945,17.087-19.659,25.949
		c1.871,0,3.344,0,4.813,0c4.06,0.001,8.12,0.025,12.18-0.013c1.164-0.011,2.256,0.161,2.96,1.105
		c1.541,2.068,3.354,3.995,3.875,6.656c0.872,4.457-0.12,8.296-3.945,11.273c-4.851,3.779-10.381,6.037-16.195,7.727
		c-3.727,1.082-7.464,2.15-11.248,3.006c-3.578,0.812-7.217,1.361-10.839,1.973c-2.081,0.353-4.179,0.589-6.266,0.902
		c-0.247,0.039-0.464,0.25-0.943,0.521c1.409,1.197,2.678,2.313,3.987,3.377c4.142,3.361,8.306,6.697,12.452,10.055
		c3.085,2.494,6.158,5.006,9.231,7.512c0.998,0.813,2.091,0.738,3.305,0.568c6.279-0.887,12.055-3.438,18.04-5.297
		c6.165-1.912,11.617-5.158,16.882-8.729c3.405-2.31,6.388-5.226,8.901-8.449c2.009-2.576,3.148-5.736,3.686-9.016
		c0.35-2.142,0.898-4.324,0.776-6.457c-0.25-4.351-1.101-8.629-3.049-12.605c-1.313-2.679-0.474-4.093,2.46-4.1
		c4.808-0.011,9.615-0.002,14.422-0.002C98.98,30.59,99.004,30.451,99.027,30.313z"/>
</g>
<g>
	<path fill="#A54240" d="M34.076,88.223c2.167-0.427,4.123-0.679,6.006-1.205c4.102-1.146,8.167-2.414,12.238-3.668
		c1.618-0.5,3.211-1.084,4.807-1.652c7.805-2.781,14.758-7.025,20.938-12.48c4.92-4.344,7.694-9.926,8.799-16.371
		c0.477-2.783,0.67-5.545,0.062-8.332c-0.433-1.979-0.68-4.002-1.194-5.956c-0.513-1.94-1.256-3.82-1.922-5.795
		c7.762,0,15.58,0,23.401,0c0.054-0.127,0.104-0.254,0.159-0.38c-18.247-10.166-36.495-20.33-54.94-30.605
		C44.735,11.965,37.04,22.15,29.019,32.769c1.481,0,2.417-0.001,3.351,0c5.779,0.007,11.556,0.047,17.334-0.003
		c1.161-0.01,1.971,0.289,2.535,1.301c0.952,1.705,2.18,3.303,2.853,5.108c1.143,3.066,0.081,5.742-2.288,7.869
		c-4.266,3.834-9.332,6.119-14.778,7.836c-7.182,2.269-14.446,4.08-21.908,5.132C11.541,60.652,6.986,61.436,2,62.218
		C12.847,71.014,23.496,79.646,34.076,88.223z M99.027,30.313c-0.023,0.138-0.047,0.277-0.07,0.416
		c-4.807,0-9.614-0.008-14.422,0.002c-2.934,0.007-3.773,1.42-2.46,4.1c1.948,3.977,2.799,8.256,3.049,12.604
		c0.122,2.133-0.429,4.316-0.776,6.457c-0.537,3.279-1.677,6.439-3.686,9.017c-2.516,3.225-5.496,6.141-8.9,8.448
		c-5.266,3.57-10.718,6.816-16.883,8.729c-5.985,1.858-11.761,4.41-18.04,5.297c-1.214,0.171-2.307,0.244-3.305-0.567
		c-3.073-2.506-6.146-5.019-9.231-7.512c-4.146-3.357-8.311-6.693-12.452-10.056c-1.31-1.063-2.578-2.181-3.987-3.377
		c0.479-0.271,0.696-0.481,0.943-0.521c2.087-0.314,4.185-0.552,6.266-0.902c3.622-0.611,7.261-1.162,10.839-1.973
		c3.784-0.855,7.521-1.924,11.248-3.006c5.814-1.689,11.345-3.947,16.195-7.728c3.825-2.978,4.817-6.816,3.945-11.273
		c-0.521-2.661-2.334-4.588-3.875-6.656c-0.704-0.944-1.796-1.116-2.96-1.105c-4.06,0.038-8.12,0.014-12.18,0.013
		c-1.47,0-2.942,0-4.813,0c6.714-8.862,13.17-17.383,19.659-25.949C68.542,13.349,83.784,21.831,99.027,30.313z"/>
	<path fill="#FF3131" d="M99.027,30.313C83.784,21.831,68.542,13.349,53.131,4.772c-6.489,8.566-12.945,17.087-19.659,25.949
		c1.871,0,3.344,0,4.813,0c4.06,0.001,8.12,0.025,12.18-0.013c1.164-0.011,2.256,0.161,2.96,1.105
		c1.541,2.068,3.354,3.995,3.875,6.656c0.872,4.457-0.12,8.296-3.945,11.273c-4.851,3.779-10.381,6.037-16.195,7.727
		c-3.727,1.082-7.464,2.15-11.248,3.006c-3.578,0.812-7.217,1.361-10.839,1.973c-2.081,0.353-4.179,0.589-6.266,0.902
		c-0.247,0.039-0.464,0.25-0.943,0.521c1.409,1.197,2.678,2.313,3.987,3.377c4.142,3.361,8.306,6.697,12.452,10.055
		c3.085,2.494,6.158,5.006,9.231,7.512c0.998,0.813,2.091,0.738,3.305,0.568c6.279-0.887,12.055-3.438,18.04-5.297
		c6.165-1.912,11.617-5.158,16.882-8.729c3.405-2.31,6.388-5.226,8.901-8.449c2.009-2.576,3.148-5.736,3.686-9.016
		c0.35-2.142,0.898-4.324,0.776-6.457c-0.25-4.351-1.101-8.629-3.049-12.605c-1.313-2.679-0.474-4.093,2.46-4.1
		c4.808-0.011,9.615-0.002,14.422-0.002C98.98,30.59,99.004,30.451,99.027,30.313z"/>
</g>
</svg>
